<svg width="621" height="259" viewBox="0 0 621 259" fill="none" xmlns="http://www.w3.org/2000/svg">
<path d="M286.725 167.354C327.626 158.622 363.726 132.125 397.693 104.019C431.66 75.912 464.915 45.4619 503.333 27.325C528.031 15.6528 557.482 9.88474 581.7 27.6864C605.009 44.8105 617.066 78.8501 625.724 110.834C632.238 134.903 637.853 160.425 634.321 184.491C631.854 201.193 625.117 215.979 621.407 232.195C608.506 288.616 633.971 351.622 665.319 399.776C680.023 422.377 696.276 443.522 708.748 468.057C721.221 492.591 729.802 521.605 726.67 549.145C723.563 576.422 709.4 598.825 692.863 615.61C659.271 649.679 615.719 664.817 572.737 676.355C477.575 701.788 379.601 712.881 281.893 723.932C245.731 728.014 209.408 732.112 172.746 729.263C152.387 727.685 130.951 723.462 113.857 707.761C92.1596 687.823 81.542 649.925 89.1128 619.398C101.813 568.209 156.096 547.368 162.124 493.637C165.437 464.064 152.396 433.773 136.86 409.3C103.542 356.805 54.8344 313.837 42.4481 249.741C33.9366 205.718 46.5351 158.286 73.5738 132.517C101.906 105.49 146.48 101.255 175.725 133.839C205.843 167.41 250.615 175.057 286.725 167.354Z" fill="#7CBF9A"/>
<path fill-rule="evenodd" clip-rule="evenodd" d="M485.157 157.756C502.069 157.756 511.151 169.055 512.839 180.53C514.555 192.268 512.598 201.986 513.087 216.176C513.418 225.731 517.624 232.113 520.321 240.632C523.017 249.15 451.053 251.298 451.482 243.331C451.911 235.364 457.059 227.203 457.244 217.278C457.432 207.159 455.991 201.087 456.189 184.626C456.336 171.633 468.24 157.756 485.157 157.756Z" fill="black"/>
<path fill-rule="evenodd" clip-rule="evenodd" d="M415.72 300.197C415.072 292.199 418.639 263.675 429.666 242.376C470.852 219.567 522.526 230.431 542.957 242.376C549.875 249.403 554.877 296.092 553.364 299.443" fill="#FFD98E"/>
<path fill-rule="evenodd" clip-rule="evenodd" d="M459.017 194.792C459.016 193.886 459.284 193 459.787 192.246C460.289 191.493 461.004 190.905 461.841 190.557C462.677 190.21 463.598 190.118 464.487 190.294C465.376 190.469 466.192 190.905 466.834 191.544C467.475 192.184 467.913 192.999 468.091 193.888C468.269 194.776 468.18 195.697 467.834 196.535C467.489 197.372 466.903 198.089 466.151 198.593C465.399 199.098 464.514 199.368 463.608 199.37C463.006 199.371 462.409 199.254 461.852 199.024C461.295 198.795 460.789 198.458 460.363 198.033C459.937 197.607 459.598 197.102 459.367 196.546C459.136 195.99 459.017 195.394 459.017 194.792Z" fill="#D18C65"/>
<path fill-rule="evenodd" clip-rule="evenodd" d="M501.032 194.792C501.032 193.885 501.3 192.999 501.803 192.245C502.306 191.491 503.022 190.904 503.859 190.556C504.696 190.209 505.617 190.118 506.506 190.294C507.395 190.471 508.212 190.907 508.853 191.548C509.494 192.188 509.931 193.005 510.108 193.893C510.285 194.782 510.194 195.704 509.848 196.541C509.501 197.378 508.914 198.094 508.16 198.598C507.407 199.101 506.521 199.37 505.614 199.37C504.4 199.37 503.235 198.888 502.376 198.029C501.516 197.171 501.033 196.006 501.032 194.792Z" fill="#D18C65"/>
<path fill-rule="evenodd" clip-rule="evenodd" d="M503.403 115.918C498.781 112.314 497.641 116.341 496.917 118.737C496.194 121.133 496.247 125.358 499.871 125.267C503.046 128.113 506.003 124.427 506.911 122.555C507.819 120.682 510.049 116.62 503.403 115.918Z" fill="#FF8364"/>
<path d="M506.46 113.35C504.866 113.911 503.97 114.675 503.463 116.003" stroke="#FFD98E" stroke-width="0.886289" stroke-linecap="round" stroke-linejoin="round"/>
<path fill-rule="evenodd" clip-rule="evenodd" d="M473.26 137.311C473.259 136.25 473.573 135.212 474.162 134.33C474.751 133.447 475.589 132.758 476.569 132.351C477.549 131.944 478.627 131.836 479.669 132.042C480.71 132.248 481.666 132.758 482.418 133.507C483.169 134.256 483.682 135.212 483.891 136.252C484.1 137.293 483.995 138.372 483.591 139.353C483.187 140.334 482.501 141.174 481.619 141.765C480.738 142.357 479.702 142.674 478.64 142.676C477.935 142.678 477.236 142.54 476.583 142.271C475.931 142.003 475.337 141.608 474.838 141.109C474.338 140.611 473.941 140.019 473.671 139.367C473.4 138.716 473.26 138.017 473.26 137.311Z" fill="#6BD5E1"/>
<path fill-rule="evenodd" clip-rule="evenodd" d="M436.089 139.679L450.956 135.905L456.978 159.638L442.115 163.396L436.089 139.679Z" fill="#DFDFDF"/>
<path fill-rule="evenodd" clip-rule="evenodd" d="M439.221 142.294L449.449 139.698L450.238 142.808L440.01 145.398L439.221 142.294Z" fill="#FF8364"/>
<path d="M440.868 148.78L451.096 146.184" stroke="#6BD5E1" stroke-width="0.973978" stroke-linecap="round" stroke-linejoin="round"/>
<path d="M441.727 152.156L451.958 149.56" stroke="#6BD5E1" stroke-width="0.973978" stroke-linecap="round" stroke-linejoin="round"/>
<path d="M442.625 155.679L452.863 153.08" stroke="#6BD5E1" stroke-width="0.973978" stroke-linecap="round" stroke-linejoin="round"/>
<path d="M443.483 159.083L447.498 158.062" stroke="#6BD5E1" stroke-width="0.973978" stroke-linecap="round" stroke-linejoin="round"/>
<path d="M452.111 156.891L453.721 156.484" stroke="#6BD5E1" stroke-width="0.973978" stroke-linecap="round" stroke-linejoin="round"/>
<path fill-rule="evenodd" clip-rule="evenodd" d="M426.234 85.7938L464.704 67.4761L476.727 92.7213L438.256 111.042L426.234 85.7938Z" fill="#DFDFDF"/>
<path d="M439.537 105.458L443.364 94.2557L450.495 95.6024L453.295 81.7882L460.185 82.9344L462.189 73.1884" stroke="#FF8364" stroke-width="0.973978" stroke-linecap="round" stroke-linejoin="round"/>
<path fill-rule="evenodd" clip-rule="evenodd" d="M442.015 94.9761C441.847 94.622 441.788 94.2262 441.845 93.8386C441.902 93.4509 442.072 93.0889 442.335 92.7981C442.597 92.5074 442.94 92.301 443.32 92.205C443.7 92.109 444.1 92.1278 444.469 92.2589C444.838 92.39 445.16 92.6275 445.395 92.9415C445.629 93.2556 445.765 93.632 445.786 94.0232C445.806 94.4145 445.71 94.8031 445.51 95.1399C445.31 95.4767 445.014 95.7466 444.661 95.9156C444.425 96.0281 444.17 96.0931 443.91 96.1067C443.649 96.1204 443.388 96.0825 443.143 95.9952C442.897 95.9079 442.671 95.773 442.477 95.5981C442.283 95.4232 442.126 95.2118 442.015 94.9761Z" fill="#FFD98E"/>
<path fill-rule="evenodd" clip-rule="evenodd" d="M451.598 82.9566C451.429 82.602 451.369 82.2053 451.426 81.8168C451.483 81.4282 451.653 81.0651 451.916 80.7735C452.179 80.4819 452.523 80.2749 452.903 80.1785C453.284 80.0822 453.685 80.1009 454.055 80.2323C454.425 80.3636 454.748 80.6018 454.982 80.9166C455.217 81.2315 455.353 81.6088 455.373 82.001C455.394 82.3932 455.297 82.7825 455.096 83.1198C454.895 83.4572 454.599 83.7273 454.244 83.8961C454.009 84.0086 453.753 84.0736 453.493 84.0872C453.232 84.1009 452.972 84.063 452.726 83.9757C452.48 83.8884 452.254 83.7535 452.06 83.5786C451.867 83.4037 451.709 83.1923 451.598 82.9566Z" fill="#FFD98E"/>
<path fill-rule="evenodd" clip-rule="evenodd" d="M524.471 104.246C524.471 102.901 524.87 101.587 525.617 100.469C526.364 99.3513 527.426 98.4803 528.669 97.9663C529.911 97.4523 531.278 97.3185 532.597 97.5817C533.916 97.8449 535.127 98.4934 536.077 99.4451C537.026 100.397 537.673 101.609 537.933 102.928C538.194 104.247 538.058 105.614 537.542 106.855C537.025 108.097 536.152 109.158 535.033 109.903C533.914 110.648 532.599 111.045 531.254 111.042C529.454 111.04 527.728 110.322 526.456 109.048C525.184 107.774 524.47 106.047 524.471 104.246Z" fill="#FFD98E"/>
<path d="M542.738 103.059C543.064 104.222 543.118 105.443 542.894 106.629C542.67 107.816 542.174 108.934 541.447 109.897C540.719 110.86 539.778 111.642 538.699 112.181C537.619 112.72 536.429 113.003 535.222 113.006C534.71 113.007 534.199 112.957 533.697 112.859" stroke="#FF8364" stroke-width="0.973978" stroke-linecap="round" stroke-linejoin="round"/>
<path fill-rule="evenodd" clip-rule="evenodd" d="M527.145 109.407L524.539 114.08L535.297 115.809L534.119 110.366" fill="#FFD98E"/>
<path fill-rule="evenodd" clip-rule="evenodd" d="M529.663 104.246C529.663 103.929 529.757 103.619 529.933 103.355C530.11 103.092 530.36 102.886 530.653 102.765C530.946 102.643 531.268 102.612 531.579 102.674C531.89 102.735 532.176 102.888 532.4 103.112C532.625 103.337 532.777 103.622 532.839 103.933C532.901 104.244 532.869 104.567 532.748 104.86C532.627 105.153 532.421 105.403 532.157 105.579C531.894 105.756 531.584 105.85 531.267 105.85C530.841 105.85 530.433 105.681 530.133 105.38C529.832 105.079 529.663 104.671 529.663 104.246Z" fill="#1B3C87"/>
<path fill-rule="evenodd" clip-rule="evenodd" d="M540.702 102.643C540.702 102.325 540.796 102.015 540.973 101.752C541.149 101.488 541.399 101.283 541.692 101.161C541.985 101.04 542.308 101.008 542.619 101.07C542.93 101.132 543.215 101.285 543.44 101.509C543.664 101.733 543.817 102.019 543.879 102.33C543.94 102.641 543.909 102.963 543.787 103.256C543.666 103.549 543.46 103.8 543.197 103.976C542.933 104.152 542.623 104.246 542.306 104.246C541.881 104.245 541.473 104.076 541.173 103.776C540.872 103.475 540.703 103.068 540.702 102.643Z" fill="#FFD98E"/>
<path fill-rule="evenodd" clip-rule="evenodd" d="M411.906 53.1579L421.956 55.8731L412.059 92.5147L402.01 89.8089L411.906 53.1579Z" fill="#FF8364"/>
<path d="M405.204 77.9801L410.738 79.4771" stroke="#FFD98E" stroke-width="1.32474" stroke-linecap="round" stroke-linejoin="round"/>
<path d="M403.447 84.4818L408.984 85.9756" stroke="#FFD98E" stroke-width="1.32474" stroke-linecap="round" stroke-linejoin="round"/>
<path d="M406.957 71.4881L412.494 72.9851" stroke="#FFD98E" stroke-width="1.32474" stroke-linecap="round" stroke-linejoin="round"/>
<path d="M408.714 64.9832L414.248 66.4771" stroke="#FFD98E" stroke-width="1.32474" stroke-linecap="round" stroke-linejoin="round"/>
<path d="M410.468 58.485L416.005 59.9788" stroke="#FFD98E" stroke-width="1.32474" stroke-linecap="round" stroke-linejoin="round"/>
<path fill-rule="evenodd" clip-rule="evenodd" d="M515.417 45.5602L553.364 54.7206L547.101 80.5952L509.169 71.4317L515.417 45.5602Z" fill="#DFDFDF"/>
<path fill-rule="evenodd" clip-rule="evenodd" d="M538.113 73.6112C538.302 72.8249 538.721 72.1124 539.316 71.5641C539.911 71.0157 540.655 70.656 541.454 70.5305C542.253 70.405 543.071 70.5192 543.805 70.8588C544.54 71.1985 545.157 71.7482 545.578 72.4384C546 73.1287 546.208 73.9286 546.175 74.7369C546.142 75.5452 545.871 76.3256 545.394 76.9794C544.918 77.6332 544.258 78.1311 543.499 78.4101C542.74 78.6892 541.915 78.7367 541.128 78.5469C540.074 78.2923 539.164 77.6292 538.598 76.7036C538.033 75.778 537.858 74.6657 538.113 73.6112Z" fill="#FF8364"/>
<path fill-rule="evenodd" clip-rule="evenodd" d="M539.322 76.9782L536.594 84.0904L540.402 83.2292L542.848 85.4997L543.34 77.7517" fill="#FF8364"/>
<path d="M517.659 52.2715L547.617 59.5059" stroke="#6BD5E1" stroke-width="0.973978" stroke-linecap="round" stroke-linejoin="round"/>
<path d="M515.924 59.3713L534.016 63.7401" stroke="#6BD5E1" stroke-width="0.973978" stroke-linecap="round" stroke-linejoin="round"/>
<path fill-rule="evenodd" clip-rule="evenodd" d="M455.196 49.0896L451.125 44.677L456.981 43.3522L462.841 42.0275L461.059 47.7649L459.277 53.4991L455.196 49.0896Z" fill="#6BD5E1"/>
<path fill-rule="evenodd" clip-rule="evenodd" d="M536.086 141.602L530.509 143.832L531.364 137.881L532.218 131.931L536.938 135.642L541.661 139.356L536.086 141.602Z" fill="#FFD98E"/>
<path d="M490.303 69.922C490.303 69.3459 490.474 68.7828 490.794 68.3038C491.114 67.8249 491.569 67.4516 492.101 67.2311C492.633 67.0107 493.219 66.953 493.784 67.0654C494.349 67.1778 494.868 67.4552 495.275 67.8625C495.682 68.2698 495.96 68.7888 496.072 69.3538C496.184 69.9187 496.127 70.5044 495.906 71.0366C495.686 71.5687 495.313 72.0236 494.834 72.3437C494.355 72.6637 493.792 72.8345 493.216 72.8345C492.443 72.8345 491.702 72.5277 491.156 71.9814C490.61 71.4352 490.303 70.6944 490.303 69.922Z" stroke="#FF8364" stroke-width="0.973978" stroke-linecap="round" stroke-linejoin="round"/>
<path fill-rule="evenodd" clip-rule="evenodd" d="M408.927 118.715C408.927 118.139 409.098 117.576 409.418 117.097C409.738 116.618 410.193 116.244 410.725 116.024C411.258 115.804 411.843 115.746 412.408 115.858C412.973 115.971 413.492 116.248 413.9 116.655C414.307 117.063 414.584 117.582 414.697 118.147C414.809 118.712 414.751 119.297 414.531 119.829C414.31 120.362 413.937 120.816 413.458 121.136C412.979 121.456 412.416 121.627 411.84 121.627C411.068 121.627 410.327 121.32 409.781 120.774C409.234 120.228 408.927 119.487 408.927 118.715Z" fill="#FFD98E"/>
<path fill-rule="evenodd" clip-rule="evenodd" d="M474.823 212.026H494.299C494.299 212.026 494.39 232.148 494.299 240.065C494.299 243.331 474.829 242.958 474.829 240.065L474.823 212.026Z" fill="#D18C65"/>
<path fill-rule="evenodd" clip-rule="evenodd" d="M464.861 192.787C464.861 177.842 473.943 165.726 485.164 165.726C496.385 165.726 505.47 177.842 505.47 192.787C505.47 207.732 496.388 219.852 485.164 219.852C473.94 219.852 464.861 207.735 464.861 192.787Z" fill="#E49D75"/>
<path fill-rule="evenodd" clip-rule="evenodd" d="M496.128 163.787C490.97 175.773 469.599 187.473 460.598 190.21C459.177 183.054 468.387 152.572 496.128 163.787Z" fill="black"/>
<path fill-rule="evenodd" clip-rule="evenodd" d="M484.707 163.418C480.801 164.905 493.498 185.212 508.712 190.21C514.922 181.369 500.604 162.995 484.707 163.418Z" fill="black"/>
<path fill-rule="evenodd" clip-rule="evenodd" d="M513.738 27.371C513.737 26.309 514.052 25.2708 514.641 24.3876C515.231 23.5044 516.069 22.8159 517.05 22.4092C518.031 22.0025 519.111 21.896 520.152 22.103C521.194 22.31 522.151 22.8213 522.902 23.5722C523.652 24.3231 524.164 25.2798 524.371 26.3214C524.578 27.3629 524.471 28.4425 524.065 29.4235C523.658 30.4044 522.969 31.2428 522.086 31.8323C521.203 32.4219 520.165 32.7363 519.103 32.7357C517.68 32.7357 516.315 32.1705 515.309 31.1644C514.303 30.1583 513.738 28.7938 513.738 27.371Z" fill="#FFD98E"/>
<path d="M421.21 168.435C421.21 167.444 421.504 166.475 422.054 165.651C422.605 164.827 423.388 164.185 424.303 163.805C425.219 163.426 426.226 163.327 427.198 163.52C428.17 163.714 429.063 164.191 429.764 164.892C430.465 165.592 430.942 166.485 431.135 167.457C431.329 168.429 431.229 169.437 430.85 170.352C430.471 171.268 429.829 172.05 429.005 172.601C428.181 173.152 427.212 173.446 426.221 173.446C424.892 173.446 423.617 172.918 422.678 171.978C421.738 171.038 421.21 169.764 421.21 168.435Z" stroke="#6BD5E1" stroke-width="0.973978" stroke-linecap="round" stroke-linejoin="round"/>
<path d="M532.234 166.324C532.234 165.747 532.404 165.183 532.724 164.703C533.044 164.224 533.499 163.849 534.032 163.628C534.565 163.407 535.151 163.349 535.717 163.461C536.283 163.573 536.803 163.851 537.211 164.258C537.619 164.666 537.897 165.185 538.009 165.751C538.122 166.317 538.065 166.903 537.844 167.436C537.623 167.969 537.25 168.425 536.77 168.745C536.291 169.066 535.727 169.237 535.15 169.237C534.767 169.237 534.388 169.162 534.034 169.016C533.681 168.87 533.359 168.655 533.089 168.385C532.818 168.114 532.603 167.793 532.456 167.439C532.31 167.086 532.234 166.707 532.234 166.324V166.324Z" stroke="#FF8364" stroke-width="0.973978" stroke-linecap="round" stroke-linejoin="round"/>
<path fill-rule="evenodd" clip-rule="evenodd" d="M485.157 157.987C502.069 157.987 511.151 169.29 512.839 180.764C514.555 192.499 512.598 202.217 513.087 216.407C513.418 225.965 517.624 232.345 520.321 240.866C523.017 249.388 451.053 251.533 451.482 243.563C451.911 235.592 457.059 227.434 457.244 217.509C457.432 207.394 455.991 201.318 456.189 184.861C456.336 171.864 468.24 157.987 485.157 157.987Z" fill="black"/>
<path fill-rule="evenodd" clip-rule="evenodd" d="M415.72 300.42C415.072 292.421 418.639 263.897 429.666 242.601C470.852 219.793 522.526 230.654 542.957 242.601C549.875 249.629 554.877 296.314 553.364 299.665" fill="#FFD98E"/>
<path fill-rule="evenodd" clip-rule="evenodd" d="M459.017 195.024C459.016 194.118 459.284 193.232 459.787 192.478C460.289 191.724 461.004 191.137 461.841 190.789C462.677 190.442 463.598 190.35 464.487 190.526C465.376 190.701 466.192 191.136 466.834 191.776C467.475 192.416 467.913 193.231 468.091 194.12C468.269 195.008 468.18 195.929 467.834 196.767C467.489 197.604 466.903 198.32 466.151 198.825C465.399 199.33 464.514 199.6 463.608 199.602C463.006 199.603 462.409 199.486 461.852 199.256C461.295 199.027 460.789 198.69 460.363 198.265C459.937 197.839 459.598 197.334 459.367 196.778C459.136 196.222 459.017 195.626 459.017 195.024Z" fill="#D18C65"/>
<path fill-rule="evenodd" clip-rule="evenodd" d="M501.032 195.024C501.032 194.117 501.3 193.231 501.803 192.477C502.306 191.723 503.022 191.136 503.859 190.788C504.696 190.441 505.617 190.35 506.506 190.526C507.395 190.703 508.212 191.139 508.853 191.779C509.494 192.42 509.931 193.236 510.108 194.125C510.285 195.014 510.194 195.936 509.848 196.773C509.501 197.61 508.914 198.326 508.16 198.83C507.407 199.333 506.521 199.602 505.614 199.602C504.4 199.602 503.235 199.12 502.376 198.261C501.516 197.403 501.033 196.238 501.032 195.024Z" fill="#D18C65"/>
<path fill-rule="evenodd" clip-rule="evenodd" d="M503.403 116.153C498.781 112.545 497.641 116.576 496.917 118.972C496.194 121.368 496.247 125.592 499.871 125.501C503.046 128.351 506.003 124.665 506.911 122.792C507.819 120.92 510.049 116.855 503.403 116.153Z" fill="#FF8364"/>
<path d="M506.46 113.582C504.866 114.143 503.97 114.907 503.463 116.235" stroke="#FFD98E" stroke-width="0.886289" stroke-linecap="round" stroke-linejoin="round"/>
<path fill-rule="evenodd" clip-rule="evenodd" d="M473.26 137.543C473.259 136.482 473.573 135.444 474.162 134.562C474.751 133.679 475.589 132.99 476.569 132.583C477.549 132.176 478.627 132.068 479.669 132.274C480.71 132.48 481.666 132.99 482.418 133.739C483.169 134.488 483.682 135.444 483.891 136.484C484.1 137.525 483.995 138.604 483.591 139.585C483.187 140.566 482.501 141.406 481.619 141.997C480.738 142.588 479.702 142.905 478.64 142.908C477.935 142.91 477.235 142.773 476.583 142.504C475.93 142.235 475.337 141.841 474.837 141.342C474.337 140.844 473.94 140.252 473.67 139.6C473.399 138.948 473.26 138.249 473.26 137.543Z" fill="#6BD5E1"/>
<path fill-rule="evenodd" clip-rule="evenodd" d="M436.089 139.911L450.956 136.137L456.978 159.869L442.115 163.643L436.089 139.911Z" fill="#DFDFDF"/>
<path fill-rule="evenodd" clip-rule="evenodd" d="M439.221 142.526L449.449 139.93L450.238 143.039L440.01 145.636L439.221 142.526Z" fill="#FF8364"/>
<path d="M440.868 149.015L451.096 146.415" stroke="#6BD5E1" stroke-width="0.973978" stroke-linecap="round" stroke-linejoin="round"/>
<path d="M441.727 152.391L451.958 149.782" stroke="#6BD5E1" stroke-width="0.973978" stroke-linecap="round" stroke-linejoin="round"/>
<path d="M442.625 155.911L452.863 153.311" stroke="#6BD5E1" stroke-width="0.973978" stroke-linecap="round" stroke-linejoin="round"/>
<path d="M443.483 159.315L447.498 158.297" stroke="#6BD5E1" stroke-width="0.973978" stroke-linecap="round" stroke-linejoin="round"/>
<path d="M452.111 157.123L453.721 156.716" stroke="#6BD5E1" stroke-width="0.973978" stroke-linecap="round" stroke-linejoin="round"/>
<path fill-rule="evenodd" clip-rule="evenodd" d="M426.234 86.0288L464.704 67.708L476.727 92.9563L438.256 111.261L426.234 86.0288Z" fill="#DFDFDF"/>
<path d="M439.537 105.69L443.364 94.4906L450.495 95.8185L453.295 82.0043L460.185 83.1505L462.189 73.4076" stroke="#FF8364" stroke-width="0.973978" stroke-linecap="round" stroke-linejoin="round"/>
<path fill-rule="evenodd" clip-rule="evenodd" d="M442.014 95.2238C441.845 94.8692 441.786 94.4725 441.842 94.0839C441.899 93.6954 442.07 93.3323 442.333 93.0407C442.596 92.7491 442.939 92.542 443.32 92.4457C443.701 92.3494 444.101 92.3681 444.471 92.4994C444.841 92.6308 445.164 92.869 445.399 93.1838C445.634 93.4986 445.77 93.876 445.79 94.2682C445.81 94.6603 445.714 95.0497 445.513 95.387C445.312 95.7244 445.015 95.9945 444.661 96.1633C444.185 96.3888 443.639 96.4166 443.143 96.2404C442.647 96.0643 442.241 95.6987 442.014 95.2238Z" fill="#FFD98E"/>
<path fill-rule="evenodd" clip-rule="evenodd" d="M451.598 83.1881C451.429 82.8335 451.369 82.4369 451.426 82.0483C451.483 81.6597 451.653 81.2967 451.916 81.0051C452.179 80.7135 452.523 80.5064 452.903 80.4101C453.284 80.3137 453.685 80.3324 454.055 80.4638C454.425 80.5952 454.748 80.8333 454.982 81.1482C455.217 81.463 455.353 81.8404 455.373 82.2325C455.394 82.6247 455.297 83.0141 455.096 83.3514C454.895 83.6887 454.599 83.9589 454.244 84.1277C454.009 84.2402 453.753 84.3051 453.493 84.3188C453.232 84.3324 452.972 84.2945 452.726 84.2072C452.48 84.12 452.254 83.985 452.06 83.8101C451.867 83.6352 451.709 83.4239 451.598 83.1881Z" fill="#FFD98E"/>
<path fill-rule="evenodd" clip-rule="evenodd" d="M524.471 104.478C524.468 103.133 524.865 101.817 525.611 100.698C526.357 99.5781 527.418 98.7051 528.66 98.1891C529.902 97.6732 531.27 97.5376 532.589 97.7994C533.909 98.0612 535.121 98.7087 536.072 99.6599C537.023 100.611 537.671 101.823 537.933 103.143C538.194 104.462 538.059 105.83 537.543 107.072C537.027 108.314 536.154 109.375 535.034 110.121C533.915 110.867 532.599 111.264 531.254 111.261C529.456 111.258 527.733 110.542 526.461 109.271C525.19 107.999 524.474 106.276 524.471 104.478Z" fill="#FFD98E"/>
<path d="M542.738 103.294C542.935 103.987 543.034 104.704 543.033 105.424C543.033 106.58 542.777 107.721 542.283 108.766C541.789 109.811 541.07 110.733 540.177 111.466C539.283 112.2 538.239 112.726 537.118 113.007C535.996 113.287 534.827 113.316 533.694 113.09" stroke="#FF8364" stroke-width="0.973978" stroke-linecap="round" stroke-linejoin="round"/>
<path fill-rule="evenodd" clip-rule="evenodd" d="M527.145 109.639L524.539 114.302L535.297 116.034L534.119 110.588" fill="#FFD98E"/>
<path fill-rule="evenodd" clip-rule="evenodd" d="M529.663 104.478C529.663 104.161 529.757 103.851 529.933 103.587C530.11 103.324 530.36 103.118 530.653 102.997C530.946 102.875 531.268 102.844 531.579 102.905C531.89 102.967 532.176 103.12 532.4 103.344C532.625 103.568 532.777 103.854 532.839 104.165C532.901 104.476 532.869 104.799 532.748 105.092C532.627 105.385 532.421 105.635 532.157 105.811C531.894 105.987 531.584 106.082 531.267 106.082C530.841 106.082 530.433 105.913 530.133 105.612C529.832 105.311 529.663 104.903 529.663 104.478Z" fill="#1B3C87"/>
<path fill-rule="evenodd" clip-rule="evenodd" d="M540.702 102.875C540.702 102.557 540.796 102.247 540.973 101.984C541.149 101.72 541.399 101.515 541.692 101.393C541.985 101.272 542.308 101.24 542.619 101.302C542.93 101.364 543.215 101.516 543.44 101.741C543.664 101.965 543.817 102.251 543.879 102.562C543.94 102.873 543.909 103.195 543.787 103.488C543.666 103.781 543.46 104.032 543.197 104.208C542.933 104.384 542.623 104.478 542.306 104.478C541.881 104.478 541.473 104.309 541.172 104.008C540.871 103.708 540.702 103.3 540.702 102.875Z" fill="#FFD98E"/>
<path fill-rule="evenodd" clip-rule="evenodd" d="M411.906 53.3894L421.956 56.1078L412.059 92.7494L402 90.0341L411.906 53.3894Z" fill="#FF8364"/>
<path d="M405.204 78.215L410.738 79.7088" stroke="#FFD98E" stroke-width="1.32474" stroke-linecap="round" stroke-linejoin="round"/>
<path d="M403.447 84.7133L408.984 86.2071" stroke="#FFD98E" stroke-width="1.32474" stroke-linecap="round" stroke-linejoin="round"/>
<path d="M406.957 71.7167L412.494 73.2106" stroke="#FFD98E" stroke-width="1.32474" stroke-linecap="round" stroke-linejoin="round"/>
<path d="M408.714 65.2244L414.248 66.7182" stroke="#FFD98E" stroke-width="1.32474" stroke-linecap="round" stroke-linejoin="round"/>
<path d="M410.468 58.7168L416.005 60.2138" stroke="#FFD98E" stroke-width="1.32474" stroke-linecap="round" stroke-linejoin="round"/>
<path fill-rule="evenodd" clip-rule="evenodd" d="M515.417 45.8076L553.364 54.9555L547.101 80.827L509.169 71.6635L515.417 45.8076Z" fill="#DFDFDF"/>
<path fill-rule="evenodd" clip-rule="evenodd" d="M538.113 73.8431C538.302 73.0568 538.721 72.3444 539.316 71.796C539.911 71.2477 540.655 70.888 541.454 70.7624C542.253 70.6369 543.071 70.7512 543.805 71.0908C544.54 71.4304 545.157 71.9801 545.578 72.6704C546 73.3607 546.208 74.1605 546.175 74.9688C546.142 75.7771 545.871 76.5575 545.394 77.2113C544.918 77.8652 544.258 78.3631 543.499 78.6421C542.74 78.9211 541.915 78.9687 541.128 78.7788C540.074 78.5242 539.164 77.8612 538.598 76.9356C538.033 76.01 537.858 74.8976 538.113 73.8431Z" fill="#FF8364"/>
<path fill-rule="evenodd" clip-rule="evenodd" d="M539.322 77.213L536.594 84.3283L540.402 83.4639L542.848 85.7345L543.34 77.9834" fill="#FF8364"/>
<path d="M517.659 52.5063L547.617 59.7407" stroke="#6BD5E1" stroke-width="0.973978" stroke-linecap="round" stroke-linejoin="round"/>
<path d="M515.924 59.6062L534.016 63.9719" stroke="#6BD5E1" stroke-width="0.973978" stroke-linecap="round" stroke-linejoin="round"/>
<path fill-rule="evenodd" clip-rule="evenodd" d="M455.196 49.3214L451.125 44.9118L456.981 43.5871L462.841 42.2624L461.056 47.9997L459.274 53.7371L455.196 49.3214Z" fill="#6BD5E1"/>
<path fill-rule="evenodd" clip-rule="evenodd" d="M536.086 141.834L530.509 144.067L531.364 138.116L532.218 132.166L536.938 135.877L541.661 139.588L536.086 141.834Z" fill="#FFD98E"/>
<path d="M490.303 70.1601C490.303 69.584 490.474 69.0209 490.794 68.542C491.114 68.063 491.569 67.6897 492.101 67.4693C492.633 67.2488 493.219 67.1911 493.784 67.3035C494.349 67.4159 494.868 67.6933 495.275 68.1006C495.682 68.5079 495.96 69.0269 496.072 69.5919C496.184 70.1569 496.127 70.7425 495.906 71.2747C495.686 71.8069 495.313 72.2617 494.834 72.5818C494.355 72.9018 493.792 73.0726 493.216 73.0726C492.443 73.0726 491.702 72.7658 491.156 72.2196C490.61 71.6734 490.303 70.9325 490.303 70.1601Z" stroke="#FF8364" stroke-width="0.973978" stroke-linecap="round" stroke-linejoin="round"/>
<path fill-rule="evenodd" clip-rule="evenodd" d="M408.927 118.947C408.927 118.371 409.098 117.808 409.418 117.329C409.738 116.85 410.193 116.476 410.725 116.256C411.258 116.035 411.843 115.978 412.408 116.09C412.973 116.203 413.492 116.48 413.9 116.887C414.307 117.295 414.584 117.814 414.697 118.379C414.809 118.943 414.751 119.529 414.531 120.061C414.31 120.594 413.937 121.048 413.458 121.368C412.979 121.688 412.416 121.859 411.84 121.859C411.068 121.859 410.327 121.552 409.781 121.006C409.234 120.46 408.927 119.719 408.927 118.947Z" fill="#FFD98E"/>
<path fill-rule="evenodd" clip-rule="evenodd" d="M474.823 212.257H494.299C494.299 212.257 494.39 232.379 494.299 240.299C494.299 243.566 474.829 243.19 474.829 240.299L474.823 212.257Z" fill="#D18C65"/>
<path fill-rule="evenodd" clip-rule="evenodd" d="M464.861 193.022C464.861 178.074 473.943 165.961 485.164 165.961C496.385 165.961 505.47 178.074 505.47 193.022C505.47 207.97 496.388 220.084 485.164 220.084C473.94 220.084 464.861 207.967 464.861 193.022Z" fill="#E49D75"/>
<path fill-rule="evenodd" clip-rule="evenodd" d="M496.128 164.019C490.97 176.004 469.599 187.708 460.598 190.445C459.177 183.292 468.387 152.807 496.128 164.019Z" fill="black"/>
<path fill-rule="evenodd" clip-rule="evenodd" d="M484.707 163.649C480.801 165.128 493.498 185.443 508.705 190.445C514.922 181.601 500.604 163.23 484.707 163.649Z" fill="black"/>
<path fill-rule="evenodd" clip-rule="evenodd" d="M513.738 27.6058C513.737 26.5437 514.051 25.5052 514.64 24.6216C515.229 23.7379 516.067 23.0489 517.048 22.6418C518.029 22.2346 519.109 22.1276 520.15 22.3343C521.192 22.541 522.149 23.052 522.9 23.8028C523.652 24.5536 524.163 25.5103 524.371 26.5519C524.578 27.5936 524.471 28.6733 524.065 29.6544C523.658 30.6356 522.97 31.4741 522.086 32.0638C521.203 32.6535 520.165 32.968 519.103 32.9674C517.68 32.9674 516.316 32.4026 515.31 31.3972C514.304 30.3918 513.739 29.0281 513.738 27.6058Z" fill="#FFD98E"/>
<path d="M421.21 168.667C421.21 167.676 421.504 166.707 422.054 165.883C422.605 165.059 423.388 164.416 424.303 164.037C425.219 163.658 426.226 163.559 427.198 163.752C428.17 163.945 429.063 164.423 429.764 165.123C430.465 165.824 430.942 166.717 431.135 167.689C431.329 168.661 431.229 169.669 430.85 170.584C430.471 171.5 429.829 172.282 429.005 172.833C428.181 173.384 427.212 173.677 426.221 173.677C424.892 173.677 423.617 173.149 422.678 172.21C421.738 171.27 421.21 169.996 421.21 168.667Z" stroke="#6BD5E1" stroke-width="0.973978" stroke-linecap="round" stroke-linejoin="round"/>
<path d="M532.234 166.556C532.234 165.979 532.404 165.415 532.724 164.935C533.044 164.455 533.499 164.081 534.032 163.86C534.565 163.639 535.151 163.58 535.717 163.692C536.283 163.805 536.803 164.082 537.211 164.49C537.619 164.897 537.897 165.417 538.009 165.983C538.122 166.548 538.065 167.135 537.844 167.668C537.623 168.201 537.25 168.656 536.77 168.977C536.291 169.297 535.727 169.468 535.15 169.468C534.767 169.469 534.388 169.394 534.034 169.247C533.681 169.101 533.359 168.887 533.089 168.616C532.818 168.346 532.603 168.025 532.456 167.671C532.31 167.317 532.234 166.938 532.234 166.556V166.556Z" stroke="#FF8364" stroke-width="0.973978" stroke-linecap="round" stroke-linejoin="round"/>
</svg>
