<svg width="351" height="482" viewBox="0 0 351 482" fill="none" xmlns="http://www.w3.org/2000/svg">
<path d="M-45.9476 88.0389C-9.67581 86.2613 24.8977 69.7486 57.8616 51.6861C90.8255 33.6235 123.498 13.6071 158.92 4.03589C181.695 -2.12697 207.741 -2.99375 226.088 14.2241C243.747 30.7882 249.451 59.3842 252.52 85.9161C254.827 105.881 256.166 126.889 249.858 145.583C245.466 158.556 237.673 169.464 232.282 181.892C213.529 225.135 226.786 278.463 247.112 320.722C256.645 340.555 267.704 359.425 275.06 380.514C282.415 401.603 285.822 425.762 279.383 447.27C273.002 468.572 257.802 484.6 241.33 495.861C207.877 518.712 168.458 525.25 130.02 528.996C44.9324 537.201 -40.6133 533.646 -125.925 530.09C-157.498 528.768 -189.211 527.439 -220.269 520.541C-237.516 516.714 -255.327 510.647 -267.85 496C-283.743 477.401 -287.686 445.919 -277.034 422.597C-259.166 383.489 -209.767 373.771 -197.275 331.799C-190.404 308.697 -197.463 282.959 -207.454 261.532C-228.88 215.571 -264.802 175.245 -266.693 122.702C-267.996 86.6139 -250.727 50.4814 -224.025 33.4032C-196.041 15.4875 -157.232 17.7499 -136.588 47.3596C-115.329 77.8654 -77.9686 89.6035 -45.9476 88.0389Z" fill="#304D63"/>
<path d="M282.838 390.586C282.838 390.586 306.654 372.581 311.153 349.679C312.978 340.06 317.871 331.292 325.101 324.69C328.559 321.584 332.294 318.801 336.259 316.376" stroke="#828282" stroke-width="0.866028" stroke-miterlimit="10"/>
<path d="M339.174 301.948C337.087 304.771 336.143 316.736 336.143 316.736C336.143 316.736 347.301 312.341 349.393 309.522C350.397 308.167 350.822 306.468 350.574 304.8C350.326 303.131 349.425 301.63 348.07 300.625C346.715 299.621 345.016 299.196 343.348 299.444C341.679 299.692 340.178 300.593 339.174 301.948Z" fill="#67A3A3"/>
<path d="M319.159 311.336C318.943 314.839 324.646 325.396 324.646 325.396C324.646 325.396 331.63 315.636 331.851 312.133C331.935 310.463 331.358 308.827 330.244 307.579C329.13 306.332 327.57 305.574 325.901 305.469C324.232 305.364 322.589 305.921 321.328 307.02C320.067 308.118 319.289 309.668 319.164 311.336H319.159Z" fill="#67A3A3"/>
<path d="M299.76 338.321C301.337 341.456 311.595 347.692 311.595 347.692C311.595 347.692 312.69 335.74 311.114 332.605C310.338 331.131 309.015 330.02 307.428 329.512C305.841 329.004 304.119 329.139 302.631 329.888C301.142 330.637 300.008 331.941 299.471 333.518C298.934 335.095 299.038 336.82 299.76 338.321Z" fill="#67A3A3"/>
<path d="M289.676 362.033C290.702 365.389 299.756 373.265 299.756 373.265C299.756 373.265 302.861 361.674 301.835 358.314C301.341 356.701 300.228 355.351 298.739 354.559C297.25 353.768 295.508 353.601 293.895 354.094C292.283 354.587 290.933 355.701 290.141 357.19C289.35 358.678 289.182 360.421 289.676 362.033Z" fill="#67A3A3"/>
<path d="M334.969 333.883C331.505 334.35 320.554 329.405 320.554 329.405C320.554 329.405 329.795 321.75 333.276 321.282C334.947 321.058 336.639 321.506 337.979 322.529C339.319 323.552 340.198 325.065 340.423 326.736C340.647 328.407 340.199 330.099 339.176 331.439C338.153 332.779 336.64 333.658 334.969 333.883Z" fill="#67A3A3"/>
<path d="M322.823 361.47C319.359 360.877 310.409 352.888 310.409 352.888C310.409 352.888 321.52 348.35 324.979 348.943C325.808 349.079 326.601 349.377 327.313 349.821C328.026 350.265 328.643 350.846 329.13 351.53C329.617 352.214 329.963 352.987 330.149 353.806C330.336 354.624 330.358 355.471 330.215 356.299C330.072 357.126 329.767 357.916 329.317 358.625C328.866 359.333 328.28 359.946 327.592 360.426C326.904 360.907 326.128 361.247 325.308 361.426C324.488 361.605 323.64 361.62 322.814 361.47H322.823Z" fill="#67A3A3"/>
<path d="M307.343 386.667C303.831 386.667 293.655 380.306 293.655 380.306C293.655 380.306 303.835 373.954 307.347 373.954C309.033 373.954 310.65 374.624 311.842 375.816C313.034 377.008 313.704 378.625 313.704 380.311C313.704 381.996 313.034 383.613 311.842 384.805C310.65 385.998 309.033 386.667 307.347 386.667H307.343Z" fill="#67A3A3"/>
<path d="M118.213 301.004C118.213 301.004 103.534 275.002 81.4071 267.511C72.1157 264.425 64.0753 258.41 58.492 250.368C55.8734 246.523 53.6136 242.445 51.7413 238.187" stroke="#828282" stroke-width="0.866028" stroke-miterlimit="10"/>
<path d="M37.8503 233.424C40.3705 235.866 52.1008 238.395 52.1008 238.395C52.1008 238.395 49.2213 226.747 46.7011 224.3C45.4847 223.161 43.8697 222.546 42.2038 222.586C40.5379 222.626 38.9544 223.318 37.7941 224.514C36.6339 225.71 35.9896 227.314 36.0001 228.98C36.0106 230.647 36.675 232.242 37.8503 233.424Z" fill="#67A3A3"/>
<path d="M44.484 254.481C47.9481 255.165 59.1501 250.913 59.1501 250.913C59.1501 250.913 50.4033 242.686 46.9608 242.015C46.1343 241.831 45.2794 241.815 44.4464 241.966C43.6133 242.118 42.819 242.434 42.1099 242.897C41.4008 243.359 40.7913 243.959 40.3172 244.661C39.843 245.362 39.5138 246.151 39.3488 246.982C39.1838 247.812 39.1864 248.667 39.3564 249.496C39.5264 250.326 39.8603 251.113 40.3387 251.812C40.817 252.51 41.4301 253.106 42.142 253.565C42.8538 254.023 43.6501 254.335 44.484 254.481Z" fill="#67A3A3"/>
<path d="M68.629 277.292C71.9458 276.145 79.4846 266.809 79.4846 266.809C79.4846 266.809 67.7932 264.133 64.4677 265.28C63.6687 265.545 62.9303 265.967 62.2954 266.519C61.6604 267.072 61.1416 267.745 60.769 268.5C60.3964 269.255 60.1775 270.076 60.1249 270.917C60.0723 271.757 60.1871 272.599 60.4627 273.395C60.7383 274.19 61.1691 274.923 61.7302 275.55C62.2912 276.178 62.9713 276.688 63.7311 277.05C64.4908 277.413 65.315 277.621 66.1558 277.663C66.9965 277.704 67.8372 277.578 68.629 277.292Z" fill="#67A3A3"/>
<path d="M90.8165 290.439C94.2806 289.867 103.27 281.921 103.27 281.921C103.27 281.921 92.1892 277.306 88.7294 277.877C87.0642 278.151 85.576 279.075 84.5922 280.446C83.6084 281.818 83.2095 283.523 83.4834 285.189C83.7573 286.854 84.6815 288.342 86.0527 289.326C87.4239 290.31 89.1297 290.708 90.7949 290.435L90.8165 290.439Z" fill="#67A3A3"/>
<path d="M68.9321 241.807C68.9365 245.319 62.5668 255.508 62.5668 255.508C62.5668 255.508 56.2058 245.332 56.2058 241.824C56.1837 240.976 56.3317 240.132 56.641 239.341C56.9504 238.551 57.415 237.831 58.0072 237.223C58.5995 236.615 59.3075 236.132 60.0895 235.802C60.8714 235.472 61.7116 235.302 62.5603 235.302C63.409 235.302 64.2492 235.472 65.0312 235.802C65.8132 236.132 66.5212 236.615 67.1134 237.223C67.7057 237.831 68.1702 238.551 68.4796 239.341C68.789 240.132 68.9369 240.976 68.9148 241.824L68.9321 241.807Z" fill="#67A3A3"/>
<path d="M94.666 257.508C93.6181 260.859 84.5075 268.675 84.5075 268.675C84.5075 268.675 81.4764 257.062 82.5329 253.71C83.0809 252.158 84.2099 250.878 85.6824 250.141C87.155 249.404 88.856 249.267 90.4274 249.759C91.9987 250.252 93.3178 251.334 94.1068 252.78C94.8958 254.225 95.0931 255.92 94.6573 257.508H94.666Z" fill="#67A3A3"/>
<path d="M117.559 276.201C117.092 279.665 109.436 288.919 109.436 288.919C109.436 288.919 104.495 277.985 104.963 274.508C105.056 273.666 105.316 272.85 105.729 272.11C106.141 271.369 106.698 270.719 107.365 270.197C108.033 269.675 108.798 269.291 109.616 269.069C110.434 268.847 111.288 268.791 112.128 268.904C112.968 269.017 113.777 269.297 114.508 269.727C115.238 270.157 115.875 270.729 116.381 271.409C116.887 272.089 117.252 272.863 117.454 273.686C117.657 274.509 117.692 275.364 117.559 276.201Z" fill="#67A3A3"/>
<path opacity="0.25" d="M37.8503 233.424C40.3705 235.866 52.1008 238.395 52.1008 238.395C52.1008 238.395 49.2213 226.747 46.7011 224.3C45.4847 223.161 43.8697 222.546 42.2038 222.586C40.5379 222.626 38.9544 223.318 37.7941 224.514C36.6339 225.71 35.9896 227.314 36.0001 228.98C36.0106 230.647 36.675 232.242 37.8503 233.424Z" fill="#0A0806"/>
<path opacity="0.25" d="M44.484 254.481C47.9481 255.165 59.1501 250.913 59.1501 250.913C59.1501 250.913 50.4033 242.686 46.9608 242.015C46.1343 241.831 45.2794 241.815 44.4464 241.966C43.6133 242.118 42.819 242.434 42.1099 242.897C41.4008 243.359 40.7913 243.959 40.3172 244.661C39.843 245.362 39.5138 246.151 39.3488 246.982C39.1838 247.812 39.1864 248.667 39.3564 249.496C39.5264 250.326 39.8603 251.113 40.3387 251.812C40.817 252.51 41.4301 253.106 42.142 253.565C42.8538 254.023 43.6501 254.335 44.484 254.481Z" fill="#0A0806"/>
<path opacity="0.25" d="M68.629 277.292C71.9458 276.145 79.4846 266.809 79.4846 266.809C79.4846 266.809 67.7932 264.133 64.4677 265.28C63.6687 265.545 62.9303 265.967 62.2954 266.519C61.6604 267.072 61.1416 267.745 60.769 268.5C60.3964 269.255 60.1775 270.076 60.1249 270.917C60.0723 271.757 60.1871 272.599 60.4627 273.395C60.7383 274.19 61.1691 274.923 61.7302 275.55C62.2912 276.178 62.9713 276.688 63.7311 277.05C64.4908 277.413 65.315 277.621 66.1558 277.663C66.9965 277.704 67.8372 277.578 68.629 277.292Z" fill="#0A0806"/>
<path opacity="0.25" d="M90.8165 290.439C94.2806 289.867 103.27 281.921 103.27 281.921C103.27 281.921 92.1892 277.306 88.7294 277.877C87.0642 278.151 85.576 279.075 84.5922 280.446C83.6084 281.818 83.2095 283.523 83.4834 285.189C83.7573 286.854 84.6815 288.342 86.0527 289.326C87.4239 290.31 89.1297 290.708 90.7949 290.435L90.8165 290.439Z" fill="#0A0806"/>
<path opacity="0.25" d="M68.9321 241.807C68.9365 245.319 62.5668 255.508 62.5668 255.508C62.5668 255.508 56.2058 245.332 56.2058 241.824C56.1837 240.976 56.3317 240.132 56.641 239.341C56.9504 238.551 57.415 237.831 58.0072 237.223C58.5995 236.615 59.3075 236.132 60.0895 235.802C60.8714 235.472 61.7116 235.302 62.5603 235.302C63.409 235.302 64.2492 235.472 65.0312 235.802C65.8132 236.132 66.5212 236.615 67.1134 237.223C67.7057 237.831 68.1702 238.551 68.4796 239.341C68.789 240.132 68.9369 240.976 68.9148 241.824L68.9321 241.807Z" fill="#0A0806"/>
<path opacity="0.25" d="M94.666 257.508C93.6181 260.859 84.5075 268.675 84.5075 268.675C84.5075 268.675 81.4764 257.062 82.5329 253.71C83.0809 252.158 84.2099 250.878 85.6824 250.141C87.155 249.404 88.856 249.267 90.4274 249.759C91.9987 250.252 93.3178 251.334 94.1068 252.78C94.8958 254.225 95.0931 255.92 94.6573 257.508H94.666Z" fill="#0A0806"/>
<path opacity="0.25" d="M117.559 276.201C117.092 279.665 109.436 288.919 109.436 288.919C109.436 288.919 104.495 277.985 104.963 274.508C105.056 273.666 105.316 272.85 105.729 272.11C106.141 271.369 106.698 270.719 107.365 270.197C108.033 269.675 108.798 269.291 109.616 269.069C110.434 268.847 111.288 268.791 112.128 268.904C112.968 269.017 113.777 269.297 114.508 269.727C115.238 270.157 115.875 270.729 116.381 271.409C116.887 272.089 117.252 272.863 117.454 273.686C117.657 274.509 117.692 275.364 117.559 276.201Z" fill="#0A0806"/>
<path d="M117.369 300.489C117.369 300.489 114.485 270.767 97.3117 254.962C90.0682 248.375 85.1548 239.618 83.308 230.003C82.4675 225.432 82.0486 220.794 82.0566 216.146" stroke="#828282" stroke-width="0.866028" stroke-miterlimit="10"/>
<path d="M71.2919 206.118C72.5909 209.374 82.3078 216.441 82.3078 216.441C82.3078 216.441 84.3949 204.624 83.0829 201.368C82.4512 199.804 81.2243 198.556 79.6721 197.897C78.1198 197.238 76.3694 197.222 74.8058 197.854C73.2422 198.485 71.9936 199.712 71.3346 201.265C70.6756 202.817 70.6603 204.567 71.2919 206.131V206.118Z" fill="#67A3A3"/>
<path d="M68.8194 228.081C71.6903 230.098 83.6718 230.761 83.6718 230.761C83.6718 230.761 79.0039 219.702 76.133 217.684C75.4521 217.174 74.676 216.807 73.8504 216.602C73.0249 216.398 72.1668 216.362 71.3269 216.495C70.487 216.629 69.6824 216.929 68.9608 217.379C68.2392 217.829 67.6152 218.419 67.1257 219.115C66.6363 219.81 66.2914 220.597 66.1114 221.428C65.9315 222.259 65.9201 223.118 66.0781 223.954C66.236 224.789 66.56 225.585 67.0308 226.293C67.5017 227.001 68.1099 227.607 68.8194 228.076V228.081Z" fill="#67A3A3"/>
<path d="M81.6627 258.729C85.1615 259.023 95.8396 253.533 95.8396 253.533C95.8396 253.533 86.2267 246.345 82.7279 246.05C81.0478 245.909 79.3803 246.441 78.0924 247.529C76.8045 248.617 76.0016 250.172 75.8603 251.853C75.7191 253.533 76.251 255.2 77.3392 256.488C78.4274 257.776 79.9826 258.579 81.6627 258.72V258.729Z" fill="#67A3A3"/>
<path d="M96.606 279.726C100.005 280.592 111.454 277.011 111.454 277.011C111.454 277.011 103.197 268.303 99.7973 267.42C98.1654 266.996 96.4323 267.239 94.9791 268.094C93.5259 268.948 92.4718 270.345 92.0486 271.977C91.6254 273.609 91.8678 275.342 92.7225 276.795C93.5772 278.249 94.9741 279.303 96.606 279.726Z" fill="#67A3A3"/>
<path d="M96.3028 226.4C94.8825 229.609 84.9492 236.36 84.9492 236.36C84.9492 236.36 83.2605 224.478 84.6807 221.269C85.3885 219.768 86.6552 218.603 88.2104 218.023C89.7655 217.444 91.4857 217.495 93.0033 218.167C94.5209 218.839 95.7157 220.077 96.3322 221.618C96.9488 223.159 96.9382 224.88 96.3028 226.413V226.4Z" fill="#67A3A3"/>
<path d="M113.467 251.177C111.151 253.814 99.6586 257.27 99.6586 257.27C99.6586 257.27 101.599 245.427 103.915 242.79C104.462 242.149 105.131 241.624 105.882 241.244C106.634 240.864 107.454 240.637 108.294 240.577C109.134 240.516 109.978 240.623 110.776 240.892C111.574 241.16 112.311 241.584 112.944 242.14C113.577 242.696 114.093 243.372 114.463 244.129C114.832 244.886 115.047 245.708 115.096 246.549C115.145 247.39 115.026 248.232 114.746 249.027C114.467 249.821 114.032 250.552 113.467 251.177Z" fill="#67A3A3"/>
<path d="M126.843 277.557C125.007 280.544 114.264 285.892 114.264 285.892C114.264 285.892 114.173 273.893 115.996 270.901C116.904 269.52 118.314 268.546 119.927 268.186C121.541 267.827 123.23 268.11 124.639 268.976C126.047 269.842 127.062 271.222 127.47 272.824C127.877 274.426 127.645 276.123 126.822 277.557H126.843Z" fill="#67A3A3"/>
<path d="M139.453 184.091C138.734 181.454 137.868 178.803 137.262 176.132C137.989 178.803 138.859 181.462 139.453 184.091Z" fill="url(#paint0_linear)"/>
<path d="M237.288 273.092L239.886 274.24C239.886 274.24 256.821 340.032 256.821 345.349C256.821 350.667 220.911 380.254 220.911 380.254L215.308 342.435C215.308 342.435 223.353 255.707 237.288 273.092Z" fill="#E8F7F6"/>
<path d="M158.518 252.165L173.522 244.336C174.363 240.753 175.854 237.355 177.922 234.311C180.117 231.142 183.035 228.028 186.673 226.405C195.866 222.282 147.788 200.645 147.788 200.645C147.031 203.244 146.139 205.802 145.116 208.309C142.64 214.423 138.53 222.33 133.235 224.582C124.232 228.414 158.518 252.165 158.518 252.165Z" fill="#BC7954"/>
<path opacity="0.1" d="M145.116 208.309C147.171 215.534 151.443 221.931 157.329 226.596C163.215 231.262 170.419 233.961 177.922 234.311C180.117 231.142 183.035 228.028 186.673 226.405C195.866 222.282 147.788 200.645 147.788 200.645C147.031 203.244 146.139 205.802 145.116 208.309Z" fill="#0A0806"/>
<path d="M143.766 197.384C143.764 204.47 145.864 211.397 149.799 217.289C153.734 223.181 159.329 227.774 165.875 230.487C172.421 233.2 179.624 233.91 186.574 232.528C193.524 231.147 199.908 227.735 204.918 222.725C209.929 217.715 213.341 211.332 214.724 204.382C216.106 197.432 215.397 190.229 212.685 183.683C209.973 177.136 205.381 171.541 199.489 167.605C193.597 163.669 186.67 161.569 179.585 161.569C174.875 161.548 170.208 162.459 165.852 164.251C161.497 166.043 157.54 168.68 154.21 172.01C150.879 175.34 148.242 179.297 146.449 183.652C144.656 188.007 143.744 192.674 143.766 197.384Z" fill="#BC7954"/>
<path d="M138.595 247.566L148.364 270.36L156.981 285.489H184.564L192.609 264.804L189.349 243.353H168.283L154.682 242.586L150.087 241.053L147.126 242.734L138.595 247.566Z" fill="#575A89"/>
<path opacity="0.1" d="M141.96 217.181C141.96 217.181 135.867 218.48 141.323 222.953C146.779 227.426 165.603 241.651 165.603 241.651C165.603 241.651 158.99 247.54 160.359 254.438L138.453 242.227L134.555 222.689C134.555 222.689 134.118 216.818 141.96 217.181Z" fill="#0A0806"/>
<path opacity="0.1" d="M161.294 241.651L175.228 243.95C175.228 243.95 172.353 254.581 173.791 257.599C173.834 257.693 173.87 257.79 173.899 257.889L179.584 273.257L175.324 285.325L160.575 265.211L165.602 257.599C165.602 257.599 160.289 250.558 157.128 248.116C153.967 245.674 161.294 241.651 161.294 241.651Z" fill="#0A0806"/>
<path d="M161.294 241.058L175.228 243.353C175.228 243.353 172.353 253.983 173.791 257.001C173.834 257.095 173.87 257.192 173.899 257.291L179.584 272.659L175.324 284.727L160.575 264.601L165.602 256.988C165.602 256.988 160.289 249.948 157.128 247.505C153.967 245.063 161.294 241.058 161.294 241.058Z" fill="#E8F7F6"/>
<path d="M141.375 216.034C141.375 216.034 135.283 217.333 140.743 221.806C146.203 226.279 165.603 241.651 165.603 241.651C165.603 241.651 158.419 246.393 159.783 253.286L137.877 241.08L133.98 221.542C133.98 221.542 133.547 215.67 141.375 216.034Z" fill="#575A89"/>
<path opacity="0.1" d="M176.965 235.667C176.965 235.667 175.635 238.152 169.768 242.634C169.768 242.634 179.537 247.83 175.8 255.135L190.743 251.238L193.042 244.054L176.965 235.667Z" fill="#0A0806"/>
<path d="M177.541 235.095C177.541 235.095 176.211 237.581 170.344 242.062C170.344 242.062 180.113 247.232 176.376 254.559L191.315 250.662L193.614 243.483L177.541 235.095Z" fill="#575A89"/>
<path opacity="0.1" d="M138.595 247.566L148.364 270.36L156.964 285.489H184.564L192.609 264.804L189.353 243.353H183.494C183.59 248.358 181.762 254.239 181.879 256.425C182.078 260.019 176.519 279.41 176.519 279.41C176.519 279.41 164.883 260.591 160.289 258.915C157.401 257.863 151.283 249.107 147.13 242.734L138.595 247.566Z" fill="#0A0806"/>
<path d="M100.113 367.515L101.105 368.762C101.105 368.762 93.9211 404.819 95.9086 413.008C96.2465 414.483 96.4394 415.989 96.4845 417.502V417.567C96.8353 425.898 94.3195 436.711 94.3195 436.711C94.3195 436.711 92.3103 468.581 93.4534 481.688H227.956C228.744 462.306 229.593 437.196 228.822 434.411C227.523 429.817 224.925 413.15 224.925 413.15L224.639 405.252C224.639 405.252 224.639 397.618 224.406 389.114C224.306 385.29 224.159 381.276 223.947 377.717C223.674 373.24 223.293 369.468 222.769 367.615C222.446 366.21 222.26 364.777 222.214 363.337C222.214 363.202 222.214 363.064 222.189 362.925C222.189 362.492 222.145 362.025 222.128 361.544C222.128 361.41 222.128 361.275 222.128 361.111C222.046 358.322 222.076 355.014 222.167 351.585C222.167 351.398 222.167 351.208 222.167 351.017C222.24 348.445 222.349 345.821 222.47 343.327C222.847 335.533 223.336 328.942 223.336 328.942L239.855 274.209L235.404 263.245L223.05 255.676L200.209 241.885C189.067 232.727 181.732 233.826 178.935 234.831C178.663 234.924 178.397 235.032 178.138 235.156C178.051 235.199 177.982 235.234 177.917 235.273C177.828 235.315 177.743 235.364 177.662 235.42C178.428 235.788 179.093 236.337 179.602 237.018C180.174 237.793 180.583 238.677 180.801 239.616C180.947 240.198 181.05 240.79 181.108 241.387C181.165 242.015 181.186 242.664 181.186 243.318C181.156 244.752 181.033 246.182 180.818 247.601C180.818 247.627 180.818 247.661 180.818 247.696C180.675 248.709 180.498 249.701 180.325 250.632C180.327 250.647 180.327 250.663 180.325 250.679C180.126 251.766 179.926 252.771 179.792 253.637C179.766 253.793 179.744 253.936 179.723 254.07C179.627 254.642 179.582 255.222 179.589 255.802C179.54 257.203 179.351 258.595 179.026 259.959C178.913 260.53 178.783 261.141 178.64 261.777C178.445 262.643 178.233 263.587 178.004 264.549C177.878 265.077 177.744 265.623 177.605 266.164C177.553 266.38 177.497 266.597 177.445 266.818L177.359 267.16C176.436 270.827 175.436 274.478 174.821 276.686C174.457 277.985 174.228 278.786 174.228 278.786C174.228 278.786 167.707 268.242 162.502 262.241C162.424 262.154 162.355 262.072 162.281 261.994C161.766 261.401 161.259 260.859 160.774 260.383C159.713 259.327 158.761 258.573 157.994 258.296C157.831 258.236 157.673 258.162 157.522 258.075C155.392 256.867 151.954 252.481 148.736 247.886C148.42 247.453 148.113 246.981 147.801 246.535C147.087 245.505 146.394 244.47 145.74 243.478C145.238 242.721 144.757 241.984 144.302 241.283C142.137 237.914 140.613 235.403 140.613 235.403L137.608 235.268L137.084 235.242H136.733L123.089 234.61C123.089 234.61 122.5 234.71 121.53 234.905C121.478 234.905 121.426 234.905 121.37 234.939C116.529 235.901 103.079 238.945 102.257 243.167C101.252 248.337 79.558 255.235 79.558 255.235C79.2722 258.699 73.9592 260.981 73.9592 260.981C73.9592 260.981 65.9138 282.242 68.0658 290.573C70.1919 298.8 62.5319 319.152 62.3284 319.723L63.7963 321.577L100.113 367.515Z" fill="#E8F7F6"/>
<path opacity="0.1" d="M141.964 215.67C141.964 215.67 128.683 211.903 125.665 219.658C122.647 227.413 115.897 258.733 115.897 258.733C115.897 258.733 133.425 262.037 138.019 258.733C140.714 256.773 144.05 255.9 147.359 256.291L157.271 263.042L160.198 262.176C160.198 262.176 144.341 238.603 140.894 230.592C137.448 222.581 136.283 219 141.964 215.67Z" fill="#0A0806"/>
<path d="M142.54 213.938C142.54 213.938 129.251 210.171 126.22 217.926C123.189 225.681 116.451 257.001 116.451 257.001C116.451 257.001 133.975 260.305 138.574 257.001C141.267 255.04 144.601 254.168 147.91 254.559L157.83 261.31L160.757 260.444C160.757 260.444 144.9 236.87 141.453 228.86C138.007 220.849 136.859 217.277 142.54 213.938Z" fill="#E8F7F6"/>
<path opacity="0.1" d="M231.685 338.884C231.685 338.884 221.773 341.327 219.902 346.93C218.032 352.533 227.229 352.676 227.229 352.676C227.229 352.676 232.832 342.764 231.685 338.884Z" fill="#0A0806"/>
<path opacity="0.1" d="M194.766 380.255C194.766 380.255 219.041 429.96 213.437 434.702C207.834 439.443 194.766 380.255 194.766 380.255Z" fill="#0A0806"/>
<path opacity="0.1" d="M161.294 343.626C161.294 343.626 141.899 391.907 145.779 399.363C149.659 406.82 137.448 399.363 137.448 399.363L161.294 343.626Z" fill="#0A0806"/>
<path d="M134.287 391.318C134.287 391.318 199.793 394.479 180.684 414.878C161.575 435.278 122.362 415.744 122.362 415.744L134.287 391.318Z" fill="#BC7954"/>
<path opacity="0.1" d="M143.766 197.384C143.76 202.082 144.682 206.735 146.481 211.076C147.082 211.145 147.684 211.189 148.265 211.215C149.131 209.314 148.667 207.118 148.65 205.027C148.633 202.935 149.403 200.476 151.417 199.913C155.431 198.783 158.202 206.287 162.16 204.931C165.191 203.901 164.399 199.302 166.144 196.648C167.525 194.548 170.292 193.955 172.444 192.638C177.021 189.828 176.882 185.333 179.009 181.081C181.234 176.625 185.937 177.942 190.02 180.57C193.121 182.571 195.797 185.251 199.113 186.844C201.984 188.23 205.21 188.732 208.393 188.806C210.352 188.882 212.312 188.675 214.213 188.191C211.977 179.788 206.762 172.485 199.54 167.643C192.317 162.802 183.58 160.752 174.957 161.878C166.335 163.003 158.417 167.226 152.678 173.759C146.94 180.292 143.774 188.689 143.77 197.384H143.766Z" fill="#0A0806"/>
<path d="M190.007 179.423C193.112 181.423 195.783 184.099 199.1 185.701C201.971 187.083 205.197 187.585 208.38 187.659C212.277 187.745 216.473 187.061 219.136 184.246C221.582 181.648 222.167 177.652 221.132 174.244C220.097 170.836 217.616 168.008 214.702 165.96C211.788 163.912 208.406 162.496 206.474 159.565C205.453 158.014 204.959 156.187 204.11 154.537C201.395 149.259 195.29 146.401 189.388 146.046C183.486 145.691 177.636 147.449 172.015 149.354C166.395 151.259 160.731 153.355 154.799 153.749C152.157 153.914 149.412 153.749 146.961 154.75C143.666 156.088 141.505 159.288 140.033 162.544C138.383 166.216 137.357 170.225 137.53 174.235C137.894 182.796 143.549 191.196 141.063 199.398C140.405 201.584 139.171 203.827 139.829 206.014C140.791 209.205 144.909 209.933 148.238 210.084C149.104 208.183 148.641 205.984 148.624 203.897C148.606 201.81 149.377 199.346 151.386 198.783C155.405 197.661 158.176 205.152 162.125 203.801C165.135 202.766 164.355 198.172 166.105 195.518C167.486 193.413 170.257 192.824 172.405 191.508C176.982 188.698 176.843 184.203 178.969 179.951C181.212 175.474 185.919 176.79 190.007 179.423Z" fill="#464353"/>
<path d="M253.526 344.197L256.83 345.349C256.83 345.349 255.531 364.887 259.861 370.49C264.191 376.093 245.641 390.023 245.641 390.023C245.641 390.023 220.214 389.88 219.495 387.858C218.777 385.836 220.794 351.658 220.794 351.658C220.794 351.658 234.443 346.341 233.296 337.867C233.296 337.867 237.461 357.833 243.636 356.971C249.811 356.109 256.821 350.952 253.526 344.197Z" fill="#E8F7F6"/>
<path opacity="0.1" d="M242.506 363.016C237.692 363.016 233.789 359.447 233.789 355.044C233.789 350.642 237.692 347.073 242.506 347.073C247.32 347.073 251.222 350.642 251.222 355.044C251.222 359.447 247.32 363.016 242.506 363.016Z" fill="#0A0806"/>
<path d="M232.975 344.773C232.975 344.773 234.707 291.911 249.785 303.689C264.862 315.467 265.01 329.553 262.139 333.714C259.268 337.875 250.062 358.707 250.062 358.707C248.622 359.542 247.005 360.024 245.343 360.113C243.681 360.202 242.021 359.896 240.5 359.22C238.979 358.544 237.64 357.517 236.593 356.224C235.545 354.93 234.819 353.407 234.473 351.779L232.975 344.773Z" fill="#BC7954"/>
<path opacity="0.1" d="M138.92 210.872C138.99 210.64 139.126 210.433 139.31 210.275C140.054 209.595 141.657 209.357 144.073 209.565L143.973 210.708C140.752 210.431 140.115 211.071 140.033 211.18V211.288L139.933 211.431C139.532 211.971 139.247 212.588 139.098 213.245C138.949 213.901 138.938 214.581 139.067 215.241C139.773 218.77 144.107 221.581 144.151 221.611L144.255 221.672L144.32 221.771C146.19 224.547 156.769 232.38 159.536 234.407L159.778 234.129C161.017 235.203 171.903 244.734 172.492 248.384C172.873 250.675 175.453 251.563 176.389 251.809C177.376 251.06 180.58 248.51 182.247 245.652C183.811 242.963 177.519 237.715 176.965 235.667L177.831 234.779C177.922 235.108 186.002 242.66 183.754 246.518C181.953 249.614 178.662 252.264 177.51 253.139C177.878 256.482 180.169 276.11 183.689 280.761C188.063 286.541 191.739 315.675 191.332 325.846C190.973 334.883 193.333 351.952 201.213 359.283C202.578 360.608 204.224 361.608 206.028 362.208C207.833 362.807 209.75 362.992 211.636 362.748H211.731H211.827C211.939 362.748 223.371 363.917 232.975 355.819C240.834 349.207 245.286 338.416 246.212 323.737H246.403L246.481 319.463C244.35 319.131 242.431 317.985 241.127 316.267C239.823 314.55 239.235 312.393 239.488 310.251C239.74 308.109 240.813 306.149 242.481 304.782C244.149 303.414 246.282 302.746 248.432 302.919C250.582 303.091 252.581 304.09 254.01 305.705C255.439 307.321 256.186 309.427 256.094 311.582C256.002 313.737 255.079 315.772 253.518 317.26C251.957 318.749 249.88 319.574 247.723 319.563H247.628L247.55 323.811L247.931 323.837C246.979 338.992 242.302 350.203 234.075 357.127C227.822 362.309 219.834 364.923 211.727 364.441C211.152 364.504 210.574 364.535 209.995 364.536C206.279 364.555 202.704 363.117 200.036 360.531C191.735 352.801 189.21 335.104 189.604 325.759C190.037 314.982 186.179 286.896 182.308 281.783C178.515 276.764 176.215 257.209 175.813 253.42C174.44 253.035 171.335 251.818 170.807 248.657C170.426 246.371 163.156 239.326 158.683 235.424L158.817 235.268C156.409 233.51 148.923 227.968 145.212 224.408C144.06 223.304 142.917 222.2 141.722 221.148C140.284 219.875 138.457 217.852 137.976 215.462C137.812 214.673 137.811 213.859 137.974 213.07C138.136 212.28 138.458 211.533 138.92 210.872Z" fill="#0A0806"/>
<path d="M177.657 252.866C177.839 252.741 182.152 249.653 184.313 245.938C186.556 242.08 178.476 234.532 178.389 234.203L177.523 235.091C178.073 237.135 184.365 242.387 182.802 245.072C180.831 248.462 176.683 251.428 176.64 251.459L177.657 252.866Z" fill="#353146"/>
<path d="M160.099 235.247L160.774 234.316C160.636 234.216 147.035 224.378 144.891 221.196L144.822 221.1L144.722 221.035C144.679 221.005 140.345 218.199 139.639 214.666C139.509 214.006 139.518 213.326 139.668 212.671C139.817 212.015 140.102 211.398 140.505 210.86L140.604 210.712V210.608C140.691 210.496 141.328 209.859 144.549 210.136L144.649 208.989C142.228 208.781 140.63 209.019 139.886 209.699C139.7 209.859 139.564 210.067 139.492 210.301C139.023 210.959 138.695 211.707 138.527 212.497C138.358 213.287 138.354 214.103 138.513 214.895C138.994 217.29 140.817 219.312 142.258 220.581C143.449 221.633 144.597 222.746 145.744 223.841C150.096 228.011 159.622 234.905 160.099 235.247Z" fill="#E8F7F6"/>
<path d="M247.039 317.956L248.187 317.977L248.059 324.952L246.912 324.931L247.039 317.956Z" fill="#E8F7F6"/>
<path d="M248.282 319.013C243.655 319.013 239.903 315.262 239.903 310.634C239.903 306.007 243.655 302.256 248.282 302.256C252.91 302.256 256.661 306.007 256.661 310.634C256.661 315.262 252.91 319.013 248.282 319.013Z" fill="#67A3A3"/>
<path d="M248.282 317.593C244.439 317.593 241.323 314.477 241.323 310.634C241.323 306.791 244.439 303.676 248.282 303.676C252.125 303.676 255.24 306.791 255.24 310.634C255.24 314.477 252.125 317.593 248.282 317.593Z" fill="#E8F7F6"/>
<path d="M210.54 363.977C211.119 363.978 211.697 363.948 212.272 363.886C220.379 364.364 228.365 361.75 234.62 356.573C242.848 349.645 247.516 338.447 248.477 323.278L246.745 323.17C245.818 337.849 241.367 348.644 233.503 355.252C223.899 363.328 212.472 362.18 212.359 362.18H212.264H212.169C210.282 362.424 208.365 362.238 206.56 361.639C204.754 361.039 203.108 360.04 201.742 358.716C193.865 351.385 191.505 334.316 191.865 325.279C192.298 315.099 188.621 285.966 184.243 280.189C180.411 275.127 178.034 252.312 178.008 252.082L177.943 251.433L177.302 251.32C177.263 251.32 173.522 250.61 173.054 247.813C172.448 244.167 161.58 234.636 160.345 233.558L159.215 234.857C163.706 238.754 170.976 245.803 171.34 248.094C171.868 251.264 174.973 252.476 176.341 252.857C176.774 256.65 179.056 276.201 182.836 281.22C186.707 286.334 190.565 314.419 190.132 325.197C189.76 334.541 192.259 352.243 200.559 359.968C203.232 362.561 206.817 364.001 210.54 363.977Z" fill="#353146"/>
<g opacity="0.1">
<path opacity="0.1" d="M140.076 187.148C139.366 184.523 138.509 181.882 137.911 179.223C138.626 181.895 139.487 184.523 140.076 187.148Z" fill="#0A0806"/>
<path opacity="0.1" d="M147.32 207.768C148.186 205.867 147.723 203.667 147.706 201.58C147.688 199.493 148.459 197.051 150.468 196.466C154.487 195.345 157.258 202.84 161.207 201.485C164.238 200.45 163.437 195.856 165.187 193.201C166.568 191.097 169.335 190.508 171.483 189.191C176.064 186.381 175.925 181.886 178.047 177.634C180.277 173.174 184.975 174.491 189.063 177.123C192.168 179.124 194.839 181.804 198.156 183.402C201.027 184.783 204.253 185.286 207.436 185.359C211.311 185.45 215.529 184.762 218.192 181.947C220.244 179.782 220.985 176.608 220.56 173.633C220.634 173.837 220.699 174.04 220.764 174.244C221.803 177.652 221.197 181.657 218.768 184.246C216.105 187.061 211.887 187.745 208.012 187.659C204.825 187.585 201.603 187.083 198.728 185.701C195.402 184.099 192.731 181.423 189.635 179.423C185.547 176.79 180.844 175.474 178.619 179.934C176.497 184.186 176.631 188.68 172.054 191.491C169.889 192.79 167.139 193.396 165.754 195.5C164.022 198.163 164.788 202.749 161.774 203.784C157.83 205.135 155.058 197.644 151.04 198.765C149.031 199.328 148.256 201.796 148.277 203.879C148.299 205.962 148.749 208.166 147.892 210.067C144.562 209.915 140.444 209.201 139.479 205.997C139.346 205.537 139.284 205.059 139.297 204.581C140.704 207.01 144.324 207.633 147.32 207.768Z" fill="#0A0806"/>
</g>
<path opacity="0.1" d="M69.0621 314.462L64.0348 319.78C64.0348 319.78 60.0121 349.082 58.003 351.823C55.9938 354.564 51.2479 365.467 55.7037 373.655C55.7037 373.655 57.1412 378.111 56.2795 379.977C55.4178 381.843 62.7401 391.184 62.7401 391.184C62.7401 391.184 72.366 399.801 74.3795 401.095C76.3931 402.39 87.0192 412.73 90.6089 412.873C94.1986 413.016 95.3721 417.472 95.3721 417.472L115.628 418.191C115.628 418.191 126.818 417.606 129.251 419.187C129.251 419.187 127.952 402.091 140.453 390.885L124.51 385.139C124.51 385.139 118.473 382.541 116.607 379.826C115.433 378.161 113.767 376.906 111.844 376.236C111.844 376.236 107.393 373.075 107.25 371.352C107.107 369.628 101.807 367.515 101.807 367.515L104.807 341.902L103.227 299.38C103.227 299.38 98.1996 263.752 87.5691 265.765C76.9386 267.779 69.0621 314.462 69.0621 314.462Z" fill="#0A0806"/>
<path d="M67.3299 314.462L62.3027 319.78C62.3027 319.78 58.28 349.082 56.2708 351.823C54.2616 354.564 49.5158 365.467 53.9715 373.655C53.9715 373.655 55.4047 378.111 54.543 379.977C53.6813 381.843 61.0079 391.184 61.0079 391.184C61.0079 391.184 70.6339 399.801 72.6474 401.095C74.6609 402.39 85.287 412.73 88.8767 412.873C92.4664 413.016 93.6399 417.472 93.6399 417.472L113.896 418.191C113.896 418.191 125.094 417.606 127.519 419.187C127.519 419.187 126.22 402.091 138.721 390.885L122.777 385.139C122.777 385.139 116.741 382.541 114.875 379.826C113.701 378.161 112.035 376.906 110.112 376.236C110.112 376.236 105.66 373.075 105.517 371.352C105.375 369.628 100.074 367.515 100.074 367.515L103.075 341.902L101.495 299.38C101.495 299.38 96.4674 263.752 85.837 265.765C75.2065 267.779 67.3299 314.462 67.3299 314.462Z" fill="#E8F7F6"/>
<path opacity="0.1" d="M86.0188 357.417C86.0188 357.417 71.2227 353.52 67.3429 358.283C63.4631 363.046 86.0188 357.417 86.0188 357.417Z" fill="#0A0806"/>
<path opacity="0.1" d="M89.4656 363.951C84.4383 367.472 68.9234 367.615 68.9234 367.615L89.4656 363.951Z" fill="#0A0806"/>
<path opacity="0.1" d="M81.8531 381.549C81.4201 381.692 71.188 392.612 66.8925 389.309C62.597 386.005 81.8531 381.549 81.8531 381.549Z" fill="#0A0806"/>
<path opacity="0.1" d="M219.656 289.897C219.656 289.897 216.65 310.587 218.131 319.013C219.612 327.44 214.208 337.879 214.208 337.879L219.656 289.897Z" fill="#0A0806"/>
<defs>
<linearGradient id="paint0_linear" x1="138.357" y1="184.091" x2="138.357" y2="176.132" gradientUnits="userSpaceOnUse">
<stop stop-color="#808080" stop-opacity="0.25"/>
<stop offset="0.54" stop-color="#808080" stop-opacity="0.12"/>
<stop offset="1" stop-color="#808080" stop-opacity="0.1"/>
</linearGradient>
</defs>
</svg>
