<svg id="Layer_1" data-name="Layer 1" xmlns="http://www.w3.org/2000/svg" xmlns:xlink="http://www.w3.org/1999/xlink" viewBox="0 0 421.71 587.85"><defs><style>.cls-1{fill:#304d63;}.cls-2{fill:none;stroke:#828282;stroke-miterlimit:10;stroke-width:0.87px;}.cls-3{fill:#67a3a3;}.cls-4,.cls-8{fill:#0a0806;isolation:isolate;}.cls-4{opacity:0.25;}.cls-5{fill:url(#linear-gradient);}.cls-6{fill:#e8f7f6;}.cls-7{fill:#bc7954;}.cls-12,.cls-8{opacity:0.1;}.cls-9{fill:#575a89;}.cls-10{fill:#464353;}.cls-11{fill:#353146;}</style><linearGradient id="linear-gradient" x1="138.36" y1="405.76" x2="138.36" y2="413.72" gradientTransform="matrix(1, 0, 0, -1, 0, 695.7)" gradientUnits="userSpaceOnUse"><stop offset="0" stop-color="gray" stop-opacity="0.25"/><stop offset="0.54" stop-color="gray" stop-opacity="0.12"/><stop offset="1" stop-color="gray" stop-opacity="0.1"/></linearGradient></defs><path class="cls-1" d="M-45.95,193.89c36.27-1.78,70.85-18.29,103.81-36.35s65.64-38.08,101.06-47.65c22.78-6.16,48.82-7,67.17,10.19,17.66,16.56,23.36,45.16,26.43,71.69,2.31,20,3.65,41-2.66,59.66-4.39,13-12.19,23.89-17.58,36.31-18.75,43.25-5.49,96.58,14.83,138.83,9.53,19.84,20.59,38.71,27.95,59.8s10.76,45.24,4.32,66.75c-6.38,21.3-21.58,37.33-38,48.59C207.88,624.56,168.46,631.1,130,634.85c-85.09,8.2-170.63,4.65-255.95,1.09-31.57-1.32-63.28-2.65-94.34-9.55-17.25-3.82-35.06-9.89-47.58-24.54-15.89-18.6-19.84-50.08-9.18-73.4,17.86-39.11,67.26-48.83,79.76-90.8,6.87-23.1-.19-48.84-10.18-70.27-21.43-46-57.35-86.28-59.24-138.83-1.31-36.08,16-72.22,42.67-89.29,28-17.92,66.79-15.66,87.43,14C-115.33,183.72-78,195.46-45.95,193.89Z"/><path class="cls-2" d="M282.84,496.44s23.81-18,28.31-40.91a45.29,45.29,0,0,1,14-25,76.08,76.08,0,0,1,11.16-8.31"/><path class="cls-3" d="M339.17,407.8c-2.08,2.82-3,14.79-3,14.79s11.16-4.4,13.25-7.22a6.36,6.36,0,0,0-10.22-7.57Z"/><path class="cls-3" d="M319.16,417.19c-.22,3.5,5.49,14.06,5.49,14.06s7-9.76,7.2-13.26a6.36,6.36,0,0,0-12.69-.8Z"/><path class="cls-3" d="M299.76,444.17c1.58,3.14,11.84,9.37,11.84,9.37s1.09-12-.49-15.08a6.31,6.31,0,0,0-3.68-3.1,6.36,6.36,0,0,0-7.67,8.81Z"/><path class="cls-3" d="M289.68,467.88c1,3.36,10.08,11.24,10.08,11.24s3.1-11.59,2.07-14.95a6.35,6.35,0,1,0-12.15,3.71Z"/><path class="cls-3" d="M335,439.74c-3.46.46-14.42-4.48-14.42-4.48s9.25-7.66,12.73-8.13A6.36,6.36,0,0,1,335,439.74Z"/><path class="cls-3" d="M322.82,467.32c-3.46-.59-12.41-8.58-12.41-8.58s11.11-4.54,14.57-3.95a6.36,6.36,0,0,1,5.17,4.87,6.14,6.14,0,0,1,.06,2.49,6.27,6.27,0,0,1-2.62,4.13,6.32,6.32,0,0,1-4.78,1Z"/><path class="cls-3" d="M307.34,492.52c-3.51,0-13.69-6.36-13.69-6.36s10.18-6.35,13.7-6.35a6.36,6.36,0,0,1,0,12.71Z"/><path class="cls-2" d="M118.21,406.86s-14.68-26-36.8-33.5a45.28,45.28,0,0,1-22.92-17.14A75.36,75.36,0,0,1,51.74,344"/><path class="cls-3" d="M37.85,339.28c2.52,2.44,14.25,5,14.25,5s-2.88-11.65-5.4-14.1a6.36,6.36,0,0,0-8.85,9.13Z"/><path class="cls-3" d="M44.48,360.33c3.47.69,14.67-3.57,14.67-3.57S50.4,348.54,47,347.87a6.24,6.24,0,0,0-2.51-.05,6.35,6.35,0,0,0-2.34.93,6.25,6.25,0,0,0-1.79,1.76,6.17,6.17,0,0,0-1,2.32,6.37,6.37,0,0,0,1,4.83,6.42,6.42,0,0,0,1.8,1.76A6.21,6.21,0,0,0,44.48,360.33Z"/><path class="cls-3" d="M68.63,383.14C72,382,79.48,372.66,79.48,372.66s-11.69-2.67-15-1.53a6.42,6.42,0,0,0-2.17,1.24,6.28,6.28,0,0,0-1.53,2,6.32,6.32,0,0,0-.31,4.9,6.41,6.41,0,0,0,1.27,2.15,6.26,6.26,0,0,0,2,1.5,6.41,6.41,0,0,0,2.43.61A6.11,6.11,0,0,0,68.63,383.14Z"/><path class="cls-3" d="M90.82,396.29c3.46-.57,12.45-8.52,12.45-8.52s-11.08-4.61-14.54-4a6.36,6.36,0,0,0,2.06,12.56Z"/><path class="cls-3" d="M68.93,347.66c0,3.51-6.36,13.7-6.36,13.7s-6.36-10.18-6.36-13.68a6.23,6.23,0,0,1,.43-2.49,6.34,6.34,0,0,1,10.47-2.11,6.15,6.15,0,0,1,1.37,2.11,6.23,6.23,0,0,1,.43,2.49Z"/><path class="cls-3" d="M94.67,363.36c-1,3.35-10.16,11.17-10.16,11.17s-3-11.62-2-15a6.36,6.36,0,0,1,12.13,3.8Z"/><path class="cls-3" d="M117.56,382.05c-.47,3.47-8.12,12.72-8.12,12.72s-4.94-10.93-4.48-14.41a6.56,6.56,0,0,1,.77-2.4,6.33,6.33,0,0,1,3.89-3,6.37,6.37,0,0,1,7.94,7.13Z"/><path class="cls-4" d="M37.85,339.28c2.52,2.44,14.25,5,14.25,5s-2.88-11.65-5.4-14.1a6.36,6.36,0,0,0-8.85,9.13Z"/><path class="cls-4" d="M44.48,360.33c3.47.69,14.67-3.57,14.67-3.57S50.4,348.54,47,347.87a6.24,6.24,0,0,0-2.51-.05,6.35,6.35,0,0,0-2.34.93,6.25,6.25,0,0,0-1.79,1.76,6.17,6.17,0,0,0-1,2.32,6.37,6.37,0,0,0,1,4.83,6.42,6.42,0,0,0,1.8,1.76A6.21,6.21,0,0,0,44.48,360.33Z"/><path class="cls-4" d="M68.63,383.14C72,382,79.48,372.66,79.48,372.66s-11.69-2.67-15-1.53a6.42,6.42,0,0,0-2.17,1.24,6.28,6.28,0,0,0-1.53,2,6.32,6.32,0,0,0-.31,4.9,6.41,6.41,0,0,0,1.27,2.15,6.26,6.26,0,0,0,2,1.5,6.41,6.41,0,0,0,2.43.61A6.11,6.11,0,0,0,68.63,383.14Z"/><path class="cls-4" d="M90.82,396.29c3.46-.57,12.45-8.52,12.45-8.52s-11.08-4.61-14.54-4a6.36,6.36,0,0,0,2.06,12.56Z"/><path class="cls-4" d="M68.93,347.66c0,3.51-6.36,13.7-6.36,13.7s-6.36-10.18-6.36-13.68a6.23,6.23,0,0,1,.43-2.49,6.34,6.34,0,0,1,10.47-2.11,6.15,6.15,0,0,1,1.37,2.11,6.23,6.23,0,0,1,.43,2.49Z"/><path class="cls-4" d="M94.67,363.36c-1,3.35-10.16,11.17-10.16,11.17s-3-11.62-2-15a6.36,6.36,0,0,1,12.13,3.8Z"/><path class="cls-4" d="M117.56,382.05c-.47,3.47-8.12,12.72-8.12,12.72s-4.94-10.93-4.48-14.41a6.56,6.56,0,0,1,.77-2.4,6.33,6.33,0,0,1,3.89-3,6.37,6.37,0,0,1,7.94,7.13Z"/><path class="cls-2" d="M117.37,406.34s-2.88-29.72-20.06-45.53a45.22,45.22,0,0,1-14-24.95A75.85,75.85,0,0,1,82.06,322"/><path class="cls-3" d="M71.29,312c1.3,3.26,11,10.32,11,10.32s2.08-11.81.77-15.07a6.37,6.37,0,0,0-3.41-3.47,6.37,6.37,0,0,0-8.34,3.37,6.39,6.39,0,0,0,0,4.86Z"/><path class="cls-3" d="M68.82,333.93c2.87,2,14.85,2.68,14.85,2.68S79,325.55,76.13,323.54a6.41,6.41,0,0,0-2.28-1.09,6.36,6.36,0,0,0-7.77,7.36,6.31,6.31,0,0,0,2.74,4.12Z"/><path class="cls-3" d="M81.66,364.58c3.5.3,14.18-5.19,14.18-5.19s-9.61-7.19-13.11-7.49a6.36,6.36,0,1,0-1.07,12.67Z"/><path class="cls-3" d="M96.61,385.58c3.39.86,14.84-2.72,14.84-2.72s-8.25-8.7-11.65-9.59a6.36,6.36,0,1,0-3.19,12.31Z"/><path class="cls-3" d="M96.3,332.25c-1.42,3.21-11.35,10-11.35,10s-1.69-11.88-.27-15.09a6.36,6.36,0,0,1,11.65.35,6.31,6.31,0,0,1,0,4.79Z"/><path class="cls-3" d="M113.47,357c-2.32,2.64-13.81,6.09-13.81,6.09s1.94-11.84,4.26-14.48a6.26,6.26,0,0,1,2-1.54,6.34,6.34,0,0,1,2.41-.67,6.57,6.57,0,0,1,2.49.31,6.5,6.5,0,0,1,2.16,1.25,6.28,6.28,0,0,1,1.52,2,6.39,6.39,0,0,1,.64,2.42,6.35,6.35,0,0,1-1.63,4.63Z"/><path class="cls-3" d="M126.84,383.41c-1.83,3-12.58,8.33-12.58,8.33s-.09-12,1.74-15a6.36,6.36,0,0,1,10.82,6.66Z"/><path class="cls-5" d="M139.45,289.94c-.72-2.63-1.58-5.29-2.19-8C138,284.65,138.86,287.31,139.45,289.94Z"/><path class="cls-6" d="M237.29,378.94l2.6,1.15s16.93,65.79,16.93,71.11-35.91,34.91-35.91,34.91l-5.6-37.82S223.35,361.56,237.29,378.94Z"/><path class="cls-7" d="M158.52,358l15-7.83a30.11,30.11,0,0,1,4.4-10c2.2-3.17,5.12-6.28,8.75-7.9,9.2-4.13-38.88-25.76-38.88-25.76a79.78,79.78,0,0,1-2.67,7.66c-2.48,6.12-6.59,14-11.88,16.27C124.23,334.27,158.52,358,158.52,358Z"/><path class="cls-8" d="M145.12,314.16a35.82,35.82,0,0,0,32.8,26c2.2-3.17,5.12-6.28,8.75-7.9,9.2-4.13-38.88-25.76-38.88-25.76A79.78,79.78,0,0,1,145.12,314.16Z"/><path class="cls-7" d="M143.77,303.24a35.63,35.63,0,1,0,2.68-13.74A35.71,35.71,0,0,0,143.77,303.24Z"/><path class="cls-9" d="M138.6,353.42l9.76,22.79L157,391.34h27.58l8.05-20.68-3.26-21.45H168.28l-13.6-.77-4.59-1.54-3,1.69Z"/><path class="cls-8" d="M142,323s-6.09,1.3-.64,5.78S165.6,347.5,165.6,347.5s-6.61,5.89-5.24,12.79l-21.91-12.21-3.9-19.54S134.12,322.67,142,323Z"/><path class="cls-8" d="M161.29,347.5l13.94,2.3s-2.88,10.63-1.44,13.65a2.49,2.49,0,0,1,.11.29l5.68,15.37-4.26,12.07-14.75-20.12,5-7.61s-5.31-7-8.47-9.48S161.29,347.5,161.29,347.5Z"/><path class="cls-6" d="M161.29,346.91l13.94,2.3s-2.88,10.63-1.44,13.64c0,.1.08.19.11.29l5.68,15.37-4.26,12.07-14.75-20.13,5-7.61s-5.31-7-8.47-9.48S161.29,346.91,161.29,346.91Z"/><path class="cls-9" d="M141.38,321.89s-6.1,1.29-.64,5.77S165.6,347.5,165.6,347.5s-7.18,4.75-5.82,11.64l-21.9-12.21L134,327.39S133.55,321.52,141.38,321.89Z"/><path class="cls-8" d="M177,341.52s-1.33,2.48-7.19,7c0,0,9.77,5.19,6,12.5l14.94-3.9,2.3-7.18Z"/><path class="cls-9" d="M177.54,341s-1.33,2.48-7.2,7c0,0,9.77,5.17,6,12.5l14.94-3.9,2.29-7.17Z"/><path class="cls-8" d="M138.6,353.42l9.76,22.79,8.6,15.13h27.6l8.05-20.68-3.26-21.45h-5.86c.1,5-1.73,10.88-1.61,13.07.2,3.59-5.36,23-5.36,23s-11.64-18.82-16.23-20.49c-2.89-1-9-9.81-13.16-16.18Z"/><path class="cls-6" d="M100.11,473.37l1,1.24s-7.19,36.06-5.2,44.25a22.71,22.71,0,0,1,.57,4.49v.07c.36,8.33-2.16,19.14-2.16,19.14s-2,31.87-.87,45H228c.78-19.38,1.63-44.49.86-47.28-1.3-4.59-3.89-21.26-3.89-21.26l-.29-7.9s0-7.63-.23-16.13c-.1-3.83-.25-7.84-.46-11.4a61.22,61.22,0,0,0-1.18-10.1,22.92,22.92,0,0,1-.56-4.28,2.82,2.82,0,0,0,0-.41c0-.44,0-.9-.06-1.38V467c-.08-2.79,0-6.09,0-9.52v-.57c.07-2.57.18-5.2.3-7.69.38-7.8.87-14.39.87-14.39l16.51-54.73-4.45-11-12.35-7.57-22.84-13.79c-11.14-9.16-18.48-8.06-21.28-7.06a7.75,7.75,0,0,0-.79.33l-.22.11-.26.15a5.29,5.29,0,0,1,1.94,1.6,7.17,7.17,0,0,1,1.2,2.6,11.7,11.7,0,0,1,.31,1.77c0,.63.08,1.28.08,1.93a34.17,34.17,0,0,1-.37,4.28v.1c-.14,1-.32,2-.5,2.93a0,0,0,0,1,0,0c-.19,1.09-.39,2.09-.53,3,0,.16,0,.3-.07.43a10,10,0,0,0-.13,1.73,21.47,21.47,0,0,1-.56,4.16c-.12.57-.25,1.18-.39,1.82-.19.87-.41,1.81-.64,2.77-.12.53-.26,1.07-.4,1.62l-.15.65-.09.34c-.92,3.67-1.92,7.32-2.54,9.53-.36,1.3-.59,2.1-.59,2.1s-6.52-10.55-11.73-16.55l-.22-.24a21.83,21.83,0,0,0-1.51-1.61,8.86,8.86,0,0,0-2.78-2.09,4,4,0,0,1-.47-.22c-2.13-1.21-5.57-5.6-8.78-10.19-.32-.43-.63-.91-.94-1.35-.71-1-1.41-2.07-2.06-3.06l-1.44-2.19c-2.16-3.37-3.69-5.88-3.69-5.88l-3-.14-.53,0h-.35l-13.64-.63s-.59.1-1.56.3a.32.32,0,0,0-.16,0c-4.84,1-18.29,4-19.11,8.23-1,5.17-22.7,12.07-22.7,12.07-.29,3.46-5.6,5.74-5.6,5.74s-8,21.26-5.89,29.6S62.53,425,62.33,425.57l1.47,1.86Z"/><path class="cls-8" d="M142,321.52s-13.28-3.76-16.29,4-9.77,39.08-9.77,39.08,17.53,3.3,22.12,0a13.24,13.24,0,0,1,9.34-2.45l9.91,6.75,2.93-.86s-15.86-23.57-19.31-31.59S136.28,324.85,142,321.52Z"/><path class="cls-6" d="M142.54,319.79s-13.29-3.77-16.32,4-9.77,39.07-9.77,39.07,17.53,3.31,22.12,0a13.25,13.25,0,0,1,9.34-2.44l9.92,6.75,2.93-.86s-15.86-23.58-19.31-31.59S136.86,323.13,142.54,319.79Z"/><path class="cls-8" d="M231.68,444.74s-9.91,2.44-11.78,8,7.33,5.75,7.33,5.75S232.83,448.62,231.68,444.74Z"/><path class="cls-8" d="M194.77,486.11s24.27,49.7,18.67,54.44S194.77,486.11,194.77,486.11Z"/><path class="cls-8" d="M161.29,449.48s-19.39,48.28-15.51,55.74-8.33,0-8.33,0Z"/><path class="cls-7" d="M134.29,497.17s65.5,3.16,46.39,23.56-58.32.87-58.32.87Z"/><path class="cls-8" d="M143.77,303.24a35.56,35.56,0,0,0,2.71,13.69c.6.07,1.2.11,1.78.14.87-1.9.41-4.1.39-6.19s.75-4.55,2.77-5.12c4-1.12,6.78,6.38,10.74,5,3-1,2.24-5.63,4-8.28,1.38-2.1,4.15-2.69,6.3-4,4.58-2.81,4.44-7.31,6.57-11.56,2.22-4.45,6.93-3.14,11-.51,3.1,2,5.78,4.68,9.09,6.28a22.7,22.7,0,0,0,9.28,2,20.38,20.38,0,0,0,5.82-.62,35.82,35.82,0,0,0-70.44,9.2Z"/><path class="cls-10" d="M190,285.28c3.1,2,5.77,4.67,9.09,6.27a22.53,22.53,0,0,0,9.28,2c3.9.09,8.09-.6,10.76-3.41a10.38,10.38,0,0,0,2-10,16.2,16.2,0,0,0-6.43-8.29c-2.91-2.05-6.29-3.46-8.23-6.39a52.44,52.44,0,0,1-2.36-5c-2.71-5.28-8.82-8.14-14.72-8.49s-11.75,1.4-17.38,3.31-11.28,4-17.21,4.39c-2.64.17-5.39,0-7.84,1-3.29,1.34-5.45,4.54-6.93,7.8a26.08,26.08,0,0,0-2.5,11.69c.36,8.56,6,17,3.53,25.16-.66,2.19-1.89,4.43-1.23,6.62,1,3.19,5.08,3.92,8.41,4.07.86-1.9.4-4.1.38-6.19s.76-4.55,2.77-5.11c4-1.13,6.79,6.36,10.73,5,3-1,2.23-5.63,4-8.28,1.39-2.11,4.16-2.69,6.3-4,4.58-2.81,4.44-7.3,6.57-11.56C181.21,281.33,185.92,282.64,190,285.28Z"/><path class="cls-6" d="M253.53,450.05l3.3,1.15s-1.3,19.54,3,25.14-14.22,19.54-14.22,19.54-25.43-.15-26.15-2.17,1.3-36.2,1.3-36.2,13.65-5.32,12.51-13.79c0,0,4.16,20,10.34,19.1S256.82,456.8,253.53,450.05Z"/><path class="cls-8" d="M242.51,468.87c-4.82,0-8.72-3.57-8.72-8s3.9-8,8.72-8,8.71,3.56,8.71,8S247.32,468.87,242.51,468.87Z"/><path class="cls-7" d="M233,450.63s1.73-52.87,16.81-41.09,15.22,25.87,12.35,30-12.08,25-12.08,25a10.53,10.53,0,0,1-15.59-6.93Z"/><path class="cls-8" d="M138.92,316.72a1.3,1.3,0,0,1,.39-.59c.74-.68,2.35-.92,4.76-.71l-.1,1.14c-3.22-.28-3.85.36-3.94.47v.11l-.1.14a4.86,4.86,0,0,0-.83,1.82,4.77,4.77,0,0,0,0,2c.7,3.53,5,6.34,5.08,6.37l.11.06.06.1c1.87,2.78,12.45,10.61,15.22,12.64l.24-.28c1.24,1.08,12.12,10.61,12.71,14.26.38,2.29,3,3.18,3.9,3.42a24.47,24.47,0,0,0,5.86-6.16c1.56-2.68-4.73-7.93-5.29-10l.87-.89c.09.33,8.17,7.88,5.92,11.74a25.56,25.56,0,0,1-6.24,6.62c.37,3.34,2.66,23,6.18,27.62,4.37,5.78,8.05,34.92,7.64,45.09-.36,9,2,26.1,9.88,33.43a12.63,12.63,0,0,0,10.43,3.47h.19A30.76,30.76,0,0,0,233,461.67c7.85-6.61,12.31-17.4,13.23-32.08h.19l.08-4.27a8.48,8.48,0,1,1,1.24.09h-.09l-.08,4.25.38,0c-1,15.15-5.63,26.37-13.86,33.29a32,32,0,0,1-22.34,7.31,14.5,14.5,0,0,1-1.74.1,14.16,14.16,0,0,1-10-4c-8.3-7.73-10.83-25.42-10.44-34.77.44-10.78-3.42-38.86-7.29-44s-6.1-24.57-6.5-28.36c-1.37-.38-4.47-1.6-5-4.76-.38-2.29-7.65-9.33-12.13-13.23l.14-.16a168.19,168.19,0,0,1-13.61-10.86c-1.15-1.1-2.29-2.21-3.49-3.26a11.15,11.15,0,0,1-3.74-5.69,5.83,5.83,0,0,1,0-2.39A6.16,6.16,0,0,1,138.92,316.72Z"/><path class="cls-11" d="M177.66,358.72a26.55,26.55,0,0,0,6.65-6.93c2.25-3.86-5.83-11.41-5.92-11.73l-.87.88c.55,2.05,6.85,7.3,5.28,10-2,3.39-6.12,6.36-6.16,6.39Z"/><path class="cls-6" d="M160.1,341.1l.67-.93c-.13-.1-13.73-9.94-15.88-13.12l-.07-.1-.1-.06s-4.37-2.84-5.08-6.37a4.82,4.82,0,0,1,0-2,4.76,4.76,0,0,1,.84-1.81l.09-.15v-.1c.09-.11.73-.75,4-.47l.1-1.15c-2.42-.21-4,0-4.76.71a1.28,1.28,0,0,0-.4.6,6,6,0,0,0-1,4.6,11.13,11.13,0,0,0,3.75,5.68c1.19,1.06,2.34,2.17,3.48,3.26C150.1,333.86,159.62,340.76,160.1,341.1Z"/><path class="cls-6" d="M247,423.81l1.15,0-.13,7-1.15,0Z"/><path class="cls-3" d="M248.28,424.87a8.38,8.38,0,1,1,8.38-8.38A8.38,8.38,0,0,1,248.28,424.87Z"/><path class="cls-6" d="M248.28,423.44a7,7,0,1,1,7-6.95A7,7,0,0,1,248.28,423.44Z"/><path class="cls-11" d="M210.54,469.83a16.56,16.56,0,0,0,1.73-.09,32.1,32.1,0,0,0,22.35-7.31c8.23-6.93,12.9-18.13,13.86-33.3l-1.74-.11c-.92,14.68-5.37,25.48-13.24,32.08A30.85,30.85,0,0,1,212.36,468h-.19a12.56,12.56,0,0,1-5.61-.54,12.7,12.7,0,0,1-4.82-2.92c-7.87-7.33-10.23-24.4-9.87-33.44.43-10.18-3.25-39.31-7.63-45.09C180.41,381,178,358.16,178,357.93l-.07-.64-.64-.12s-3.78-.71-4.25-3.5c-.6-3.65-11.47-13.18-12.7-14.26l-1.14,1.3c4.5,3.9,11.77,10.94,12.13,13.24.53,3.17,3.63,4.38,5,4.76.43,3.79,2.72,23.34,6.5,28.36s7.73,33.2,7.29,44c-.37,9.34,2.13,27.05,10.43,34.77A14.23,14.23,0,0,0,210.54,469.83Z"/><g class="cls-12"><path class="cls-8" d="M140.08,293c-.71-2.62-1.57-5.27-2.17-7.92C138.63,287.75,139.49,290.38,140.08,293Z"/><path class="cls-8" d="M147.32,313.62c.87-1.9.4-4.1.39-6.19s.75-4.53,2.76-5.11c4-1.12,6.79,6.37,10.74,5,3-1,2.23-5.63,4-8.29,1.38-2.1,4.15-2.69,6.29-4,4.58-2.81,4.45-7.3,6.57-11.55,2.23-4.46,6.93-3.15,11-.51,3.11,2,5.78,4.68,9.1,6.27a22.34,22.34,0,0,0,9.28,2c3.87.09,8.09-.6,10.75-3.41a10,10,0,0,0,2.37-8.31c.07.2.14.4.2.61a10.4,10.4,0,0,1-2,10c-2.67,2.81-6.88,3.5-10.76,3.41a22.5,22.5,0,0,1-9.28-2c-3.33-1.6-6-4.27-9.1-6.27-4.08-2.64-8.79-3.95-11,.51-2.12,4.25-2,8.74-6.57,11.55-2.16,1.3-4.91,1.91-6.3,4-1.73,2.66-1,7.25-4,8.29-3.94,1.35-6.71-6.14-10.73-5-2,.56-2.78,3-2.76,5.11s.47,4.29-.39,6.19c-3.33-.15-7.45-.87-8.41-4.07a4.54,4.54,0,0,1-.18-1.42C140.7,312.86,144.32,313.49,147.32,313.62Z"/></g><path class="cls-8" d="M69.06,420.31l-5,5.32s-4,29.3-6,32.05-6.75,13.64-2.3,21.83c0,0,1.44,4.45.58,6.32S62.74,497,62.74,497s9.63,8.61,11.64,9.91S87,518.58,90.61,518.72s4.76,4.6,4.76,4.6l20.26.72s11.19-.58,13.62,1c0,0-1.3-17.1,11.2-28.3L124.51,491s-6-2.6-7.9-5.31a9.74,9.74,0,0,0-4.77-3.59s-4.45-3.16-4.59-4.89-5.44-3.83-5.44-3.83l3-25.62-1.58-42.52s-5-35.63-15.66-33.61S69.06,420.31,69.06,420.31Z"/><path class="cls-6" d="M67.33,420.31l-5,5.32s-4,29.3-6,32.05-6.75,13.64-2.3,21.83c0,0,1.43,4.45.57,6.32S61,497,61,497s9.62,8.61,11.64,9.91,12.64,11.63,16.23,11.77,4.76,4.6,4.76,4.6l20.26.72s11.19-.58,13.62,1c0,0-1.3-17.1,11.2-28.3L122.78,491s-6-2.6-7.9-5.31a9.74,9.74,0,0,0-4.77-3.59s-4.45-3.16-4.59-4.89-5.45-3.83-5.45-3.83l3-25.62-1.57-42.52s-5-35.63-15.66-33.61S67.33,420.31,67.33,420.31Z"/><path class="cls-8" d="M86,463.27s-14.8-3.9-18.68.86S86,463.27,86,463.27Z"/><path class="cls-8" d="M89.47,469.8c-5,3.52-20.55,3.67-20.55,3.67Z"/><path class="cls-8" d="M81.85,487.4c-.43.14-10.66,11.06-15,7.76S81.85,487.4,81.85,487.4Z"/><path class="cls-8" d="M219.66,395.75s-3,20.69-1.53,29.12-3.92,18.86-3.92,18.86Z"/></svg>