<?xml version="1.0" encoding="utf-8"?>
<!-- Generator: Adobe Illustrator 24.2.3, SVG Export Plug-In . SVG Version: 6.00 Build 0)  -->
<svg version="1.1" id="Layer_1" xmlns="http://www.w3.org/2000/svg" xmlns:xlink="http://www.w3.org/1999/xlink" x="0px" y="0px"
	 viewBox="0 0 326 242" style="enable-background:new 0 0 326 242;" xml:space="preserve">
<style type="text/css">
	.st0{clip-path:url(#SVGID_2_);}
	.st1{fill:#E6E6E6;}
	.st2{fill:#CCCCCC;}
	.st3{fill:#44797B;}
	.st4{opacity:0.2;enable-background:new    ;}
	.st5{fill:#2F2E41;}
	.st6{fill:#A0616A;}
	.st7{fill:#67A3A3;}
	.st8{fill:#3F3D56;}
	.st9{fill:#FFFFFF;}
	.st10{fill:#B3B3B3;}
	.st11{fill:#D0CDE1;}
</style>
<g>
	<defs>
		<rect id="SVGID_1_" x="4.8" y="5.2" width="316.2" height="233"/>
	</defs>
	<clipPath id="SVGID_2_">
		<use xlink:href="#SVGID_1_"  style="overflow:visible;"/>
	</clipPath>
	<g class="st0">
		<path class="st1" d="M321.1,91.5H188.1v3.9h132.9V91.5z"/>
		<path class="st1" d="M232.8,58.9h-33.7v33.7h33.7V58.9z"/>
		<path class="st2" d="M226.1,65.6h-20.2v20.2h20.2V65.6z"/>
		<path class="st1" d="M283.1,58.9h-8.5v33.7h8.5V58.9z"/>
		<path class="st2" d="M283.1,64.2h-8.5v3.9h8.5V64.2z"/>
		<path class="st2" d="M283.1,81.2h-8.5v3.9h8.5V81.2z"/>
		<path class="st1" d="M270,58.9h-8.5v33.7h8.5V58.9z"/>
		<path class="st2" d="M270,64.2h-8.5v3.9h8.5V64.2z"/>
		<path class="st2" d="M270,81.2h-8.5v3.9h8.5V81.2z"/>
		<path class="st1" d="M290.5,58.7l-7.6,3.8l14.9,30.2l7.6-3.8L290.5,58.7z"/>
		<path class="st2" d="M292.8,63.5l-7.6,3.8l1.7,3.5l7.6-3.8L292.8,63.5z"/>
		<path class="st2" d="M300.4,78.8l-7.6,3.8l1.7,3.5l7.6-3.8L300.4,78.8z"/>
		<path class="st1" d="M211.7,72.4l4.3,7.4l4.3,7.4h-8.6h-8.6l4.3-7.4L211.7,72.4z"/>
		<path class="st1" d="M219.2,73.8l4.3,7.4l4.3,7.4h-8.6h-8.6l4.3-7.4L219.2,73.8z"/>
		<path class="st1" d="M222.2,71.6c1.4,0,2.5-1.1,2.5-2.5c0-1.4-1.1-2.5-2.5-2.5c-1.4,0-2.5,1.1-2.5,2.5
			C219.7,70.5,220.8,71.6,222.2,71.6z"/>
		<path class="st1" d="M188.1,41.9h132.9V38H188.1V41.9z"/>
		<path class="st1" d="M276.4,39h33.7V5.4h-33.7V39z"/>
		<path class="st2" d="M283.1,32.3h20.2V12.1h-20.2V32.3z"/>
		<path class="st1" d="M226.1,39h8.5V5.4h-8.5V39z"/>
		<path class="st2" d="M226.1,14.6h8.5v-3.9h-8.5V14.6z"/>
		<path class="st2" d="M226.1,31.6h8.5v-3.9h-8.5V31.6z"/>
		<path class="st1" d="M239.2,39h8.5V5.4h-8.5V39z"/>
		<path class="st2" d="M239.2,14.6h8.5v-3.9h-8.5V14.6z"/>
		<path class="st2" d="M239.2,31.6h8.5v-3.9h-8.5V31.6z"/>
		<path class="st1" d="M203.8,35.4l7.6,3.8L226.4,9l-7.6-3.8L203.8,35.4z"/>
		<path class="st2" d="M214.7,13.5l7.6,3.8l1.7-3.5l-7.6-3.8L214.7,13.5z"/>
		<path class="st2" d="M207.1,28.7l7.6,3.8l1.7-3.5l-7.6-3.8L207.1,28.7z"/>
		<path class="st1" d="M297.5,18.9l-4.3,7.4l-4.3,7.4h8.6h8.6l-4.3-7.4L297.5,18.9z"/>
		<path class="st1" d="M290.1,20.3l-4.3,7.4l-4.3,7.4h8.6h8.6l-4.3-7.4L290.1,20.3z"/>
		<path class="st1" d="M287,18.1c1.4,0,2.5-1.1,2.5-2.5c0-1.4-1.1-2.5-2.5-2.5c-1.4,0-2.5,1.1-2.5,2.5C284.6,17,285.7,18.1,287,18.1
			z"/>
		<path class="st1" d="M188.1,148.9h132.9V145H188.1V148.9z"/>
		<path class="st1" d="M276.4,146.1h33.7v-33.7h-33.7V146.1z"/>
		<path class="st2" d="M283.1,139.4h20.2v-20.2h-20.2V139.4z"/>
		<path class="st1" d="M226.1,146.1h8.5v-33.7h-8.5V146.1z"/>
		<path class="st2" d="M226.1,121.6h8.5v-3.9h-8.5V121.6z"/>
		<path class="st2" d="M226.1,138.6h8.5v-3.9h-8.5V138.6z"/>
		<path class="st1" d="M239.2,146.1h8.5v-33.7h-8.5V146.1z"/>
		<path class="st2" d="M239.2,121.6h8.5v-3.9h-8.5V121.6z"/>
		<path class="st2" d="M239.2,138.6h8.5v-3.9h-8.5V138.6z"/>
		<path class="st1" d="M203.8,142.5l7.6,3.8l14.9-30.2l-7.6-3.8L203.8,142.5z"/>
		<path class="st2" d="M214.7,120.5l7.6,3.8l1.7-3.5l-7.6-3.8L214.7,120.5z"/>
		<path class="st2" d="M207.1,135.8l7.6,3.8l1.7-3.5l-7.6-3.8L207.1,135.8z"/>
		<path class="st1" d="M297.5,125.9l-4.3,7.4l-4.3,7.4h8.6h8.6l-4.3-7.4L297.5,125.9z"/>
		<path class="st1" d="M290.1,127.3l-4.3,7.4l-4.3,7.4h8.6h8.6l-4.3-7.4L290.1,127.3z"/>
		<path class="st1" d="M287,125.2c1.4,0,2.5-1.1,2.5-2.5c0-1.4-1.1-2.5-2.5-2.5c-1.4,0-2.5,1.1-2.5,2.5
			C284.6,124.1,285.7,125.2,287,125.2z"/>
		<path class="st1" d="M161.4,238.2c86.5,0,156.6-5,156.6-11.1S247.9,216,161.4,216S4.8,221,4.8,227.1S74.9,238.2,161.4,238.2z"/>
		<path class="st3" d="M283.8,233.3c-25.5-4.5-53.5-3.8-82.7,0c13.3-11.3,24.9-22.5,11.5-33.8c26,5.4,29.7,4.8,58.7,0
			C264.5,210.8,277,222.1,283.8,233.3z"/>
		<path class="st4" d="M283.8,233.3c-25.5-4.5-53.5-3.8-82.7,0c13.3-11.3,24.9-22.5,11.5-33.8c26,5.4,29.7,4.8,58.7,0
			C264.5,210.8,277,222.1,283.8,233.3z"/>
		<path class="st3" d="M277.5,228.5c-21.7-3.6-45.4-3-70.3,0c11.3-9,21.1-18,9.8-27c22.1,4.3,25.2,3.9,49.8,0
			C261.1,210.5,271.8,219.5,277.5,228.5z"/>
		<path class="st5" d="M269.3,214c6.4,0,11.6-5.2,11.6-11.6c0-6.4-5.2-11.6-11.6-11.6c-6.4,0-11.6,5.2-11.6,11.6
			C257.7,208.9,262.9,214,269.3,214z"/>
		<path class="st6" d="M216.8,189.1l8,1.3l4,11.6l-11.6,7.1l-13.3-20h12.5H216.8z"/>
		<path class="st6" d="M239.5,206.9c10.3,0,18.7-8.4,18.7-18.7s-8.4-18.7-18.7-18.7c-10.3,0-18.7,8.4-18.7,18.7
			S229.2,206.9,239.5,206.9z"/>
		<path class="st5" d="M136.3,120.1c0,0-45.4,4.9-53.4,4c-8-0.9-11.6-1.8-11.6-1.8s-5.3,7.1-2.7,10.2c1.5,1.8,3.3,3.3,5.3,4.4
			c0,0,4.9-1.3,8.5,0c3.6,1.3,39.6,7.1,45.8,1.8C134.5,133.5,136.3,120.1,136.3,120.1z"/>
		<path class="st5" d="M139.4,219.3c0,0-29.8-8.5-35.1-45.8v-3.6c0,0-5.9,10.3-8,12.5c-2.4,2.4-11.1,24.5-10.7,26.7
			c0.4,2.2,0,3.1,0,3.1l-12.9-1.3v-4c0,0,6.9-20.7,7.3-25.6c0.4-4.9,17.1-38.9,17.1-38.9s6.2-12.9,16.9,0
			c10.7,12.9,11.6,21.8,11.6,21.8l13.8,26.7V219.3z"/>
		<path class="st5" d="M72.7,121l-14.2-4.9c0,0-13.3-9.8-10.2,0c3.1,9.8,17.4,31.1,21.4,28.9c4-2.2,8.8-7.7,7.7-8.5
			S69.1,129.9,72.7,121z"/>
		<path class="st5" d="M74.4,204.2l-11.5,5.6c0,0-13.9,2.1-6.1,6.1s29.1,8.3,30.2,4.5c1.1-3.7,0.6-10-0.5-9.8
			C85.4,210.9,77.6,211.7,74.4,204.2z"/>
		<path class="st7" d="M133.6,190c0,0-5.8,24.9,4,30.2c9.8,5.3,78.3,6.2,83.6-3.6c5.3-9.8,2.7-9.8,2.7-9.8l-14.2-16l11.6-0.9
			c0,0,0-3.6-4-4c-4-0.4-16.5-4.9-27.1-1.8c-10.7,3.1-16.9-6.2-16.9-6.2L133.6,190z"/>
		<path class="st8" d="M126.1,112.1l-7.6,41.4l52-6.2l9.3-37.4L126.1,112.1z"/>
		<path class="st9" d="M127.6,113.7l-6.2,36.9l47.4-5.6l9.1-33.6L127.6,113.7z"/>
		<path class="st10" d="M120.3,153.9l-1.8-0.4l-0.9,1.8l14.2,39.6l1.3-0.5l0.4-2.6L120.3,153.9z"/>
		<path class="st11" d="M118.5,153l14.2,41.4l53.8-8l-16-39.1L118.5,153z"/>
		<path class="st8" d="M125.6,151.7v2.2l39.6-4.4l-0.4-2.2L125.6,151.7z"/>
		<path class="st8" d="M126.5,156.1l6.2,17.4l40.5-4.9l-7.1-16.5L126.5,156.1z"/>
		<path class="st6" d="M177.2,180.6l-1.3-3.6c0,0-10.2-17.8-15.6-14.2s11.1,20.9,11.1,20.9h5.3L177.2,180.6z"/>
		<path class="st6" d="M143.4,183.3l-1.3-5.3c0,0-3.6-16.5,2.7-15.6c6.2,0.9,8,16.5,8,16.5l-0.4,3.6L143.4,183.3z"/>
		<path class="st7" d="M154.1,181.1c0,0-11.6-1.8-12,0.9c-0.4,2.7-2.7,42.7,8.5,44c11.1,1.3,66.3,7.1,60.5-6.7
			c-5.8-13.8-14.7-12-14.7-12l-37.8,4L154.1,181.1z"/>
		<path class="st7" d="M189,186.2l-11.8-8.2l-7.8,6l9.8,10.7L189,186.2z"/>
		<path class="st4" d="M157.4,194.2l1.8,16.9l30.7-1.8l-26.7-0.4L157.4,194.2z"/>
		<path class="st5" d="M248.7,213.8c12.3,0,22.2-10,22.2-22.2c0-12.3-10-22.2-22.2-22.2c-12.3,0-22.2,10-22.2,22.2
			C226.5,203.9,236.4,213.8,248.7,213.8z"/>
		<path class="st3" d="M134.3,126.6l27.6-1l2.7-10.2l-28.5,0.9L134.3,126.6z"/>
		<path class="st1" d="M127.2,132.3L169,131l0.4-1.8l-41.8,1.5L127.2,132.3z"/>
		<path class="st1" d="M126.3,136.8l41.8-1.3l0.4-1.8l-41.8,1.5L126.3,136.8z"/>
		<path class="st1" d="M125.8,140.4l41.8-1.3l0.4-1.8l-41.8,1.5L125.8,140.4z"/>
	</g>
</g>
</svg>
