<svg width="40" height="32" viewBox="0 0 40 32" fill="none" xmlns="http://www.w3.org/2000/svg">
<path d="M27.7594 0H15.4361C6.9114 0 0 7.16348 0 16C0 24.8365 6.9114 32 15.437 32H16.4649C16.4649 28.3407 19.3268 25.3745 22.8576 25.3745H27.7594C34.5197 25.3745 40 19.6943 40 12.6871C40 5.67988 34.5197 0 27.7594 0Z" fill="#213047"/>
<path d="M16.651 9.84958C16.8716 9.86145 16.9703 9.99317 16.9472 10.2447L16.7902 12.3096C16.7784 12.5613 16.6447 12.6571 16.3891 12.5969C16.2726 12.5607 16.1156 12.5426 15.9181 12.5426C15.3715 12.5426 14.9239 12.6938 14.5753 12.9961C14.2267 13.2984 14.0523 13.7396 14.0521 14.3197V17.9461C14.0521 18.1881 13.9359 18.309 13.7035 18.3088H11.6458C11.413 18.3088 11.2967 18.1883 11.2969 17.9474V10.3556C11.2969 10.1144 11.4132 9.99399 11.6458 9.99419H13.2328C13.4419 9.99419 13.5581 10.1078 13.5814 10.335L13.6688 11.5192C13.7966 11.0165 14.0928 10.6095 14.5575 10.2982C15.0222 9.98682 15.5861 9.83126 16.2493 9.83146H16.4584C16.523 9.83096 16.5875 9.83702 16.651 9.84958Z" fill="white"/>
<path d="M25.6494 14.2423V14.405C25.6486 14.4597 25.6428 14.5142 25.6319 14.5678C25.5969 14.7968 25.4807 14.9113 25.2832 14.9113H20.0512C20.2022 15.2487 20.4491 15.5288 20.7917 15.7517C21.1344 15.9746 21.5616 16.086 22.0735 16.086C22.5037 16.086 22.8554 16.0228 23.1287 15.8963C23.402 15.7698 23.6201 15.6402 23.7828 15.5076C23.9803 15.3514 24.143 15.3876 24.271 15.6163L25.021 17.0259C25.1372 17.2197 25.1082 17.3883 24.9343 17.5316C24.6775 17.7363 24.2939 17.9441 23.7834 18.1552C23.2729 18.3662 22.5986 18.4716 21.7604 18.4714C21.1209 18.4714 20.5285 18.36 19.983 18.1371C19.4564 17.9274 18.9737 17.6147 18.5611 17.2159C18.1618 16.8279 17.8414 16.361 17.6185 15.8429C17.3904 15.3115 17.2745 14.7358 17.2784 14.1542C17.2746 13.5719 17.3813 12.9946 17.5924 12.455C17.7922 11.9395 18.092 11.472 18.4731 11.0813C18.8617 10.6884 19.3208 10.3783 19.8245 10.1685C20.3477 9.94562 20.9173 9.83416 21.5335 9.83416C22.1615 9.83416 22.7313 9.94562 23.2428 10.1685C23.7355 10.3783 24.1787 10.6958 24.542 11.0995C24.9016 11.5059 25.1801 11.9819 25.3617 12.5002C25.5535 13.0352 25.6494 13.6159 25.6494 14.2423ZM21.6384 12.0553C21.2434 12.0553 20.9091 12.1456 20.6356 12.3264C20.3621 12.5071 20.1615 12.7964 20.0337 13.1941H23.0333L23.0159 13.1216C22.9462 12.8207 22.7803 12.5532 22.5451 12.3626C22.301 12.1579 21.9988 12.0555 21.6384 12.0553Z" fill="white"/>
<path d="M28.0906 13.0131C27.6137 13.0131 27.2187 12.8445 26.9057 12.5071C26.5927 12.1698 26.4354 11.7721 26.4338 11.314C26.4305 11.0898 26.4705 10.8673 26.5513 10.6593C26.6321 10.4514 26.7522 10.2622 26.9045 10.103C27.2185 9.76591 27.6135 9.59724 28.0894 9.59703C28.5543 9.59703 28.9438 9.7657 29.2578 10.103C29.4101 10.2622 29.5303 10.4513 29.6112 10.6592C29.6921 10.8672 29.732 11.0898 29.7288 11.314C29.7288 11.7721 29.5718 12.1698 29.2578 12.5071C28.9438 12.8445 28.5547 13.0131 28.0906 13.0131ZM28.0906 18.6528C27.6137 18.6528 27.2187 18.484 26.9057 18.1465C26.5927 17.8089 26.4358 17.4113 26.435 16.9536C26.4317 16.7295 26.4716 16.5069 26.5525 16.299C26.6333 16.091 26.7534 15.9019 26.9057 15.7427C27.2197 15.4052 27.6147 15.2364 28.0906 15.2364C28.5555 15.2364 28.9449 15.4052 29.2589 15.7427C29.4113 15.9018 29.5315 16.0909 29.6124 16.2989C29.6933 16.5068 29.7332 16.7295 29.73 16.9536C29.73 17.4117 29.573 17.8094 29.2589 18.1465C28.9449 18.4836 28.5555 18.6524 28.0906 18.6528Z" fill="#7CBF9A"/>
</svg>
