<?xml version="1.0" encoding="utf-8"?>
<!-- Generator: Adobe Illustrator 24.2.3, SVG Export Plug-In . SVG Version: 6.00 Build 0)  -->
<svg version="1.1" id="Layer_1" xmlns="http://www.w3.org/2000/svg" xmlns:xlink="http://www.w3.org/1999/xlink" x="0px" y="0px"
	 viewBox="0 0 308.3 389" style="enable-background:new 0 0 308.3 389;" xml:space="preserve">
<style type="text/css">
	.st0{fill:#67A3A3;}
	.st1{fill:#FFFFFF;}
	.st2{fill:#FFC600;filter:url(#Adobe_OpacityMaskFilter);}
	.st3{mask:url(#mask0_1_);}
	.st4{fill:#9F616A;}
	.st5{fill:#97CAEB;}
	.st6{fill:#2F2E41;}
	.st7{opacity:0.2;enable-background:new    ;}
	.st8{fill:#3F3D56;}
	.st9{fill:#E6E6E6;}
	.st10{fill:#FDC900;}
</style>
<path class="st0" d="M99.5,334c2.4,19.1,11.4,36.6,21,53.5c0.3,0.6,0.6,1.1,1,1.7H221c2-0.5,4-1.1,6-1.7
	c11.2-3.4,21.8-8.6,31.4-15.5c36.6-26.4,50.7-76.2,44.3-120.9c-4-27.8-16.1-56.1-39.8-71c-12.5-7.9-28.6-10.5-43-7.5
	c-0.4,0.1-0.8,0.2-1.1,0.2c-12.4,2.8-23.5,9.7-29.7,20.9c-11.3,20.1-4.6,45,1,67.3c5.5,22.4,8.5,49.1-7.5,65.6
	c5.3-15.6,0.1-34.3-12.6-44.8c-9.6-8-22.9-11-35.1-8.5c-1.2,0.2-2.3,0.5-3.4,0.9c-2.7,0.8-5.4,1.9-7.9,3.3
	C104.5,288,96.8,312.4,99.5,334z"/>
<path class="st1" d="M158.6,387.5c-2.8,0.6-5.5,1.2-8.3,1.7h15.1c2-0.5,3.9-1.1,5.9-1.7c4.3-1.3,8.5-2.9,12.7-4.6
	c16.7-7,32-17.5,43.6-31.4c5.7-6.8,10.3-14.3,13.8-22.5c3.7-9.2,6.1-18.9,7.1-28.7c2.1-20.3-0.1-41.1-4.1-61
	c-4.1-20.6-10.8-40.6-19.9-59.6c-1.1-2.3-2.2-4.5-3.4-6.8c-0.1-0.2-0.2-0.3-0.3-0.5c-0.2-0.1-0.3-0.2-0.5-0.3
	c-0.4-0.1-0.8,0-1.2,0.2c-0.4,0.2-0.7,0.6-0.8,1.1s-0.1,0.9,0.1,1.3c9.3,18.2,16.4,37.5,21.1,57.5c4.6,19.5,7.2,39.8,6.3,59.8
	c-0.8,18.7-5.7,37.1-16.8,52.4c-10.1,14-24.1,25-39.6,32.4C179.5,381.5,169.2,385.1,158.6,387.5z"/>
<path class="st1" d="M125.7,389.2h4.3c0.5-0.6,1-1.1,1.4-1.7c9.9-12.3,16.6-26.9,19.5-42.6c3.5-19.5,0.8-39.7-7.8-57.5
	c-2.4-5-5.2-9.8-8.4-14.2c-1.1,0.2-2.3,0.5-3.4,0.9c8.5,11.4,14.1,24.7,16.6,38.9c2.2,13.2,1.5,26.8-2.1,39.7
	c-3.6,12.9-10,24.8-18.6,34.9C126.8,388,126.2,388.6,125.7,389.2z"/>
<defs>
	<filter id="Adobe_OpacityMaskFilter" filterUnits="userSpaceOnUse" x="0" y="135.7" width="250.7" height="249.4">
		<feColorMatrix  type="matrix" values="1 0 0 0 0  0 1 0 0 0  0 0 1 0 0  0 0 0 1 0"/>
	</filter>
</defs>
<mask maskUnits="userSpaceOnUse" x="0" y="135.7" width="250.7" height="249.4" id="mask0_1_">
	<rect x="-70.7" y="93" class="st2" width="355.1" height="291.7"/>
</mask>
<g class="st3">
	<path class="st4" d="M174,228.8l-3,7l-18.3,24.3c0,0-12.6,13.6-5.6,14.4c7,0.8,11.6-12.6,11.6-12.6l21.5-21.3l2.4-9.8L174,228.8z"
		/>
	<path class="st5" d="M183.2,200.5l-2.9,0.8c0,0-13,34.5-11.8,38.7c1.2,4.2,6.6,9.4,9,9C179.9,248.5,183.2,200.5,183.2,200.5z"/>
	<path class="st6" d="M223.6,377.7c0,0-1.3,6.4,2.5,3.8c3.8-2.5,5.8-7.5,5.8-7.5L223.6,377.7z"/>
	<path class="st6" d="M178.4,234.2c0,0-40.5,142.8-26.1,147c14.4,4.2,35.5-0.4,35.3-3.2c-0.2-2.8-3.8-58-3.8-58s20.9,73.4,46.9,56.2
		c25.9-17.2,20.2-20.3,17.8-21.5c-2.4-1.2-38.5-58-38.3-68.6c0.2-10.6-0.4-43.7-4.8-48.7L178.4,234.2z"/>
	<path class="st6" d="M204.1,183.4c-1.6-1.4-2.5-3.4-2.7-5.4c-0.2-2.1,0.4-4.2,1.7-5.9c-0.2,0.2-0.3,0.3-0.5,0.5
		c-1.5,1.6-2.3,3.8-2.2,6s1.1,4.3,2.8,5.8s3.8,2.3,6,2.2c2.2-0.1,4.3-1.1,5.8-2.7c0.2-0.2,0.3-0.4,0.4-0.5c-1.5,1.4-3.6,2.2-5.7,2.3
		C207.7,185.6,205.7,184.8,204.1,183.4z"/>
	<path class="st6" d="M203.3,185.4c9.5,0,17.2-7.7,17.2-17.3c0-9.5-7.7-17.3-17.2-17.3c-9.5,0-17.3,7.7-17.3,17.3
		C186.1,177.7,193.8,185.4,203.3,185.4z"/>
	<path class="st6" d="M156.8,380.6c0,0-4.6,4.6,0,4.6c4.6,0,9-3,9-3L156.8,380.6z"/>
	<path class="st4" d="M192.3,178.9c0,0,3,12.4,0.8,14.8c-2.2,2.4-7,4.2-7,4.2l0.8,22.3c0,0,9.2-3.2,9.6-3.6
		c0.4-0.4,8.6-13.4,8.6-13.4l8-7.6c0,0-12.2-5.8-8.6-15.8C208.1,170,192.3,178.9,192.3,178.9z"/>
	<path class="st4" d="M210,174.8c0.9-5.7-2.9-11-8.6-11.9c-5.7-0.9-11,2.9-11.9,8.6c-0.9,5.7,2.9,11,8.6,11.9
		C203.7,184.3,209,180.5,210,174.8z"/>
	<path class="st5" d="M205.3,237.4c0,0,4.6-15.2,6.8-17.2c2.2-2,7.6-20.7,7.6-20.7s-3.4-4.6-6.2-4.6c-2.8,0-5.4,1-8.6,4
		c-1.5,1.4-4.2,3-6.7,4.2c-0.9,0.4-1.8,0.7-2.8,0.8c-1,0.1-2,0-2.9-0.4c-0.9-0.3-1.8-0.8-2.6-1.5c-0.7-0.7-1.3-1.4-1.8-2.3
		c-0.5-1.1-0.7-2.1-0.2-2.8c0,0-7.4,2-7.8,4.8c-0.4,2.8,0,8.6-0.6,9.8c-0.6,1.2-2.4,3-1.6,10.6c0.8,7.6-0.8,17.2-0.8,17.2
		C184.6,246.3,194.9,241.9,205.3,237.4z"/>
	<path class="st6" d="M199.6,169.9c4.8,0,8.8-2.7,8.8-6c0-3.3-3.9-6-8.8-6c-4.8,0-8.8,2.7-8.8,6
		C190.8,167.2,194.8,169.9,199.6,169.9z"/>
	<path class="st6" d="M214.6,163.5c4.6,0,8.4-3.8,8.4-8.4c0-4.6-3.8-8.4-8.4-8.4c-4.6,0-8.4,3.8-8.4,8.4
		C206.2,159.7,210,163.5,214.6,163.5z"/>
	<path class="st6" d="M220.6,161.1c-2.1,0-4.1-0.8-5.7-2.2c-1.6-1.4-2.5-3.4-2.7-5.5c0,0.2,0,0.5,0,0.7c0,2.2,0.9,4.4,2.4,5.9
		c1.6,1.6,3.7,2.5,5.9,2.5c2.2,0,4.3-0.9,5.9-2.5c1.6-1.6,2.5-3.7,2.5-5.9v0c0-0.2,0-0.5,0-0.7c-0.2,2.1-1.1,4-2.7,5.5
		C224.7,160.3,222.7,161.1,220.6,161.1z"/>
	<path class="st5" d="M200.9,289.2h-2.8l-5.6,48.6l18.4-0.6L200.9,289.2z"/>
	<path class="st7" d="M200.9,289.2h-2.8l-5.6,48.6l18.4-0.6L200.9,289.2z"/>
	<path class="st5" d="M200,288.6l-3.4,48.9l41.7,3.1l3.4-47.7L200,288.6z"/>
	<path class="st7" d="M214,293.5c0.3,0,0.6-0.3,0.6-0.6c0-0.3-0.3-0.6-0.6-0.6s-0.6,0.3-0.6,0.6C213.4,293.3,213.7,293.5,214,293.5z
		"/>
	<path class="st7" d="M227,295.1c0.3,0,0.6-0.3,0.6-0.6c0-0.3-0.3-0.6-0.6-0.6c-0.3,0-0.6,0.3-0.6,0.6
		C226.4,294.8,226.7,295.1,227,295.1z"/>
	<path class="st8" d="M227.2,294.5h-0.3c0-0.1,0.2-13.2-7.3-14.4c-1.5-0.2-2.7,0.1-3.6,1c-3.1,3.1-1.8,11.7-1.8,11.8l-0.3,0
		c-0.1-0.4-1.3-8.9,1.9-12.1c1-1,2.3-1.3,3.8-1.1C227.4,281,227.2,294.3,227.2,294.5z"/>
	<path class="st4" d="M220.3,227l-1,11.2l2,33.5c0,0,4.6,17-2.4,16.6c-7-0.4-4.4-17.8-4.4-17.8l-3.2-38.9L220.3,227z"/>
	<path class="st5" d="M214.5,196.7l5.2,2.8c0,0,7,47.4,3,52c-4,4.6-12.2,6.4-12.6,4.6c-0.4-1.8-1.8-38.3-1.8-38.3L214.5,196.7z"/>
	<path class="st9" d="M28.2,135.7h-5.8c-0.2,0-0.4,0.1-0.5,0.2s-0.2,0.3-0.2,0.5v2.6c0,0.2,0.1,0.4,0.2,0.5c0.1,0.1,0.3,0.2,0.5,0.2
		h1v3.8h3.9v-3.8h1c0.2,0,0.4-0.1,0.5-0.2c0.1-0.1,0.2-0.3,0.2-0.5v-2.6c0-0.2-0.1-0.4-0.2-0.5C28.6,135.8,28.4,135.7,28.2,135.7z"
		/>
	<path class="st9" d="M34.1,159.1c-3.6-5.2-5.4-11.4-5.2-17.7c0-0.1,0-0.3-0.1-0.4c-0.1-0.1-0.2-0.2-0.4-0.2v-1.1h-6.1v1.1h-0.1
		c-0.1,0-0.2,0-0.2,0c-0.1,0-0.1,0.1-0.2,0.1c-0.1,0.1-0.1,0.1-0.1,0.2c0,0.1,0,0.2,0,0.2c0,0,0,0,0,0c0.5,6.7-1.1,12.8-4.9,18.1
		c-0.2,0.3-0.3,0.7-0.3,1.1l0.7,20.8c0,0.5,0.2,0.9,0.5,1.2c0.3,0.3,0.8,0.5,1.2,0.5h13.9c0.5,0,0.9-0.2,1.3-0.5
		c0.3-0.3,0.5-0.8,0.5-1.2l0.3-20.2C34.7,160.4,34.5,159.7,34.1,159.1z"/>
	<path class="st1" d="M31.9,166H19.8c-0.2,0-0.4,0-0.5,0.1c-0.2,0.1-0.3,0.2-0.4,0.3c-0.1,0.1-0.2,0.3-0.3,0.5c0,0.2-0.1,0.4,0,0.5
		l1.8,11.9h10.5l2.2-11.8c0-0.2,0-0.4,0-0.5c0-0.2-0.1-0.3-0.2-0.5c-0.1-0.1-0.3-0.3-0.4-0.3C32.2,166,32,166,31.9,166L31.9,166z"/>
	<path class="st9" d="M93,198h-5.8c-0.2,0-0.4,0.1-0.5,0.2c-0.1,0.1-0.2,0.3-0.2,0.5v2.6c0,0.2,0.1,0.4,0.2,0.5
		c0.1,0.1,0.3,0.2,0.5,0.2h1v3.8H92v-3.8h1c0.2,0,0.4-0.1,0.5-0.2c0.1-0.1,0.2-0.3,0.2-0.5v-2.6c0-0.2-0.1-0.4-0.2-0.5
		S93.2,198,93,198z"/>
	<path class="st9" d="M98.8,221.3c-3.6-5.2-5.4-11.4-5.2-17.7c0-0.1,0-0.3-0.1-0.4c-0.1-0.1-0.2-0.2-0.4-0.2v-1.1H87v1.1h-0.1
		c-0.1,0-0.2,0-0.2,0c-0.1,0-0.1,0.1-0.2,0.1c-0.1,0.1-0.1,0.1-0.1,0.2c0,0.1,0,0.2,0,0.2c0,0,0,0,0,0c0.5,6.7-1.2,12.8-4.9,18.1
		c-0.2,0.3-0.3,0.7-0.3,1.1l0.7,20.8c0,0.5,0.2,0.9,0.5,1.2c0.3,0.3,0.8,0.5,1.2,0.5h13.9c0.5,0,0.9-0.2,1.3-0.5s0.5-0.8,0.5-1.2
		l0.3-20.2C99.4,222.7,99.2,222,98.8,221.3z"/>
	<path class="st1" d="M96.6,228.2H84.5c-0.2,0-0.4,0-0.5,0.1c-0.2,0.1-0.3,0.2-0.4,0.3c-0.1,0.1-0.2,0.3-0.3,0.5
		c0,0.2-0.1,0.4,0,0.5l1.8,11.9h10.5l2.2-11.8c0-0.2,0-0.4,0-0.5c0-0.2-0.1-0.3-0.2-0.5c-0.1-0.1-0.3-0.3-0.4-0.3
		S96.8,228.2,96.6,228.2L96.6,228.2z"/>
	<path class="st9" d="M20.1,286h-2.8c-0.1,0-0.2,0-0.3,0.1c-0.1,0.1-0.1,0.2-0.1,0.3v1.2c0,0.1,0,0.2,0.1,0.3
		c0.1,0.1,0.2,0.1,0.3,0.1h0.5v1.8h1.8v-1.8h0.5c0.1,0,0.2,0,0.3-0.1c0.1-0.1,0.1-0.2,0.1-0.3v-1.2c0-0.1,0-0.2-0.1-0.3
		C20.2,286,20.2,286,20.1,286z"/>
	<path class="st9" d="M22.8,297.1c-1.7-2.5-2.6-5.4-2.5-8.4c0-0.1,0-0.1-0.1-0.2c0-0.1-0.1-0.1-0.2-0.1v-0.5h-2.9v0.5h0
		c0,0-0.1,0-0.1,0c0,0-0.1,0-0.1,0.1c0,0,0,0.1-0.1,0.1c0,0,0,0.1,0,0.1c0,0,0,0,0,0c0.3,3.1-0.6,6.1-2.3,8.6
		c-0.1,0.1-0.2,0.3-0.1,0.5l0.3,9.9c0,0.2,0.1,0.4,0.3,0.6c0.2,0.2,0.4,0.2,0.6,0.2h6.6c0.2,0,0.4-0.1,0.6-0.2
		c0.2-0.2,0.2-0.4,0.3-0.6l0.1-9.6C23.1,297.7,23,297.3,22.8,297.1z"/>
	<path class="st1" d="M21.9,300.7h-6.3v3.1h6.3V300.7z"/>
	<path class="st9" d="M32.9,286h-2.8c-0.1,0-0.2,0-0.3,0.1c-0.1,0.1-0.1,0.2-0.1,0.3v1.2c0,0.1,0,0.2,0.1,0.3
		c0.1,0.1,0.2,0.1,0.3,0.1h0.5v1.8h1.8v-1.8h0.5c0.1,0,0.2,0,0.3-0.1c0.1-0.1,0.1-0.2,0.1-0.3v-1.2c0,0,0-0.1,0-0.1
		c0,0,0-0.1-0.1-0.1S33.1,286,33,286C33,286,32.9,286,32.9,286z"/>
	<path class="st9" d="M35.7,297.1c-1.7-2.5-2.6-5.4-2.5-8.4c0-0.1,0-0.1-0.1-0.2c0-0.1-0.1-0.1-0.2-0.1v-0.5H30v0.5h0
		c0,0-0.1,0-0.1,0c0,0-0.1,0-0.1,0.1c0,0,0,0.1-0.1,0.1c0,0,0,0.1,0,0.1c0,0,0,0,0,0c0.3,3.1-0.6,6.1-2.3,8.6
		c-0.1,0.1-0.2,0.3-0.1,0.5l0.3,9.9c0,0.2,0.1,0.4,0.3,0.6c0.2,0.2,0.4,0.2,0.6,0.2H35c0.2,0,0.4-0.1,0.6-0.2
		c0.2-0.2,0.2-0.4,0.3-0.6L36,298C36,297.7,35.9,297.3,35.7,297.1z"/>
	<path class="st1" d="M34.7,300.7h-6.3v3.1h6.3V300.7z"/>
	<path class="st9" d="M45.7,286H43c-0.1,0-0.2,0-0.3,0.1c-0.1,0.1-0.1,0.2-0.1,0.3v1.2c0,0.1,0,0.2,0.1,0.3c0.1,0.1,0.2,0.1,0.3,0.1
		h0.5v1.8h1.8v-1.8h0.5c0.1,0,0.2,0,0.3-0.1c0.1-0.1,0.1-0.2,0.1-0.3v-1.2c0-0.1,0-0.2-0.1-0.3C45.9,286,45.8,286,45.7,286z"/>
	<path class="st9" d="M48.5,297.1c-1.7-2.5-2.6-5.4-2.5-8.4c0-0.1,0-0.1-0.1-0.2c0-0.1-0.1-0.1-0.2-0.1v-0.5h-2.9v0.5h0
		c0,0-0.1,0-0.1,0c0,0-0.1,0-0.1,0.1c0,0,0,0.1-0.1,0.1c0,0,0,0.1,0,0.1c0,0,0,0,0,0c0.3,3.1-0.6,6.1-2.3,8.6
		c-0.1,0.1-0.2,0.3-0.1,0.5l0.3,9.9c0,0.2,0.1,0.4,0.3,0.6c0.2,0.2,0.4,0.2,0.6,0.2h6.6c0.2,0,0.4-0.1,0.6-0.2
		c0.2-0.2,0.2-0.4,0.3-0.6l0.1-9.6C48.8,297.7,48.7,297.3,48.5,297.1z"/>
	<path class="st1" d="M47.6,300.7h-6.3v3.1h6.3V300.7z"/>
	<path class="st9" d="M82.9,261.9h-5.8c-0.2,0-0.4,0.1-0.5,0.2c-0.1,0.1-0.2,0.3-0.2,0.5v2.6c0,0.2,0.1,0.4,0.2,0.5
		c0.1,0.1,0.3,0.2,0.5,0.2h1v3.8h3.9V266h1c0.1,0,0.2,0,0.3-0.1c0.1,0,0.2-0.1,0.2-0.2c0.1-0.1,0.1-0.2,0.2-0.2
		c0-0.1,0.1-0.2,0.1-0.3v-2.6c0-0.2-0.1-0.4-0.2-0.5C83.3,262,83.1,261.9,82.9,261.9z"/>
	<path class="st9" d="M88.7,285.3c-3.6-5.2-5.4-11.4-5.2-17.7c0-0.1,0-0.3-0.1-0.4c-0.1-0.1-0.2-0.2-0.4-0.2v-1.1h-6.1v1.1h-0.1
		c-0.1,0-0.2,0-0.2,0c-0.1,0-0.1,0.1-0.2,0.1c-0.1,0.1-0.1,0.1-0.1,0.2c0,0.1,0,0.2,0,0.2c0,0,0,0,0,0c0.5,6.7-1.2,12.8-4.9,18.2
		c-0.2,0.3-0.3,0.7-0.3,1.1l0.7,20.8c0,0.5,0.2,0.9,0.5,1.2c0.3,0.3,0.8,0.5,1.2,0.5h13.9c0.5,0,0.9-0.2,1.3-0.5
		c0.3-0.3,0.5-0.8,0.5-1.2l0.3-20.2C89.3,286.6,89.1,285.9,88.7,285.3z"/>
	<path class="st1" d="M86.5,292.2H74.4c-0.2,0-0.4,0-0.5,0.1c-0.2,0.1-0.3,0.2-0.4,0.3c-0.1,0.1-0.2,0.3-0.3,0.5
		c0,0.2-0.1,0.4,0,0.5l1.8,11.9h10.5l2.2-11.8c0-0.2,0-0.4,0-0.5c0-0.2-0.1-0.3-0.2-0.5c-0.1-0.1-0.3-0.3-0.4-0.3
		C86.9,292.2,86.7,292.2,86.5,292.2L86.5,292.2z"/>
	<path class="st9" d="M86.1,185.8H51.4c2.4-13.1,1.9-28.9,0-46h34.7C84.2,156.9,83.7,172.7,86.1,185.8z"/>
	<path class="st1" d="M68.9,169.9c4.6,0,8.4-3.7,8.4-8.4c0-4.6-3.7-8.4-8.4-8.4c-4.6,0-8.4,3.7-8.4,8.4
		C60.6,166.2,64.3,169.9,68.9,169.9z"/>
	<path class="st9" d="M54.3,246.8H19.6c2.4-13.1,1.9-28.9,0-46h34.7C52.5,217.8,51.9,233.7,54.3,246.8z"/>
	<path class="st1" d="M37.2,230.9c4.6,0,8.4-3.7,8.4-8.4s-3.7-8.4-8.4-8.4c-4.6,0-8.4,3.7-8.4,8.4S32.6,230.9,37.2,230.9z"/>
	<path class="st9" d="M105.7,188.7H71c2.4-13.1,1.9-28.9,0-46h34.7C103.9,159.8,103.3,175.6,105.7,188.7z"/>
	<path class="st1" d="M88.6,172.8c4.6,0,8.4-3.7,8.4-8.4s-3.7-8.4-8.4-8.4c-4.6,0-8.4,3.7-8.4,8.4S83.9,172.8,88.6,172.8z"/>
	<path class="st9" d="M105.7,186.6H71c2.4-13.1,1.9-28.9,0-46h34.7C103.9,157.7,103.3,173.5,105.7,186.6z"/>
	<path class="st1" d="M88.6,170.7c4.6,0,8.4-3.7,8.4-8.4c0-4.6-3.7-8.4-8.4-8.4c-4.6,0-8.4,3.7-8.4,8.4
		C80.2,167,83.9,170.7,88.6,170.7z"/>
	<path class="st9" d="M105.7,188.7H71c2.4-13.1,1.9-28.9,0-46h34.7C103.9,159.8,103.3,175.6,105.7,188.7z"/>
	<path class="st1" d="M88.6,172.8c4.6,0,8.4-3.7,8.4-8.4s-3.7-8.4-8.4-8.4c-4.6,0-8.4,3.7-8.4,8.4S83.9,172.8,88.6,172.8z"/>
	<path class="st9" d="M113.6,183.3H0v12.5h113.6V183.3z"/>
	<path class="st9" d="M113.6,245.5H0v12.5h113.6V245.5z"/>
	<path class="st9" d="M113.6,307.8H0v12.5h113.6V307.8z"/>
</g>
<path class="st10" d="M173.6,90.4l-12.9-0.7l8.3-9.2L158,71l15.2,0.7l-0.3-15.4l11.9,14.4l15.4-6.2l-4.6,12.4l16.9,6.7l-17.8,4.7
	l9.2,17.9l-18.6-13.1l-9.8,10.7L173.6,90.4z"/>
<path class="st10" d="M159.3,123.6l7-1.3l-3,6l7.4,3.7l-8.2,1.6l2.5,8.2l-8.6-6.2l-7.3,5.3l0.5-7.3l-10.1-1.4l8.8-4.8l-7.8-8.4
	l12,4.6l3.6-7L159.3,123.6z"/>
</svg>
