<svg id="Layer_1" data-name="Layer 1" xmlns="http://www.w3.org/2000/svg" xmlns:xlink="http://www.w3.org/1999/xlink" viewBox="0 0 320.3 293.67"><defs><style>.cls-1{fill:#ffc600;}.cls-2,.cls-3,.cls-4,.cls-5{opacity:0.1;}.cls-3,.cls-6{fill:#304d63;}.cls-3,.cls-4,.cls-5,.cls-7{isolation:isolate;}.cls-4,.cls-9{fill:#e8f7f6;}.cls-5,.cls-7{fill:#0a0806;}.cls-7{opacity:0.15;}.cls-8{fill:none;stroke:#304d63;stroke-miterlimit:10;stroke-width:0.99px;}.cls-10{fill:url(#linear-gradient);}.cls-11{fill:#72a5bd;}.cls-12{fill:#fbbebe;}.cls-13{fill:#e8e8f0;}.cls-14{fill:#f86d70;}</style><linearGradient id="linear-gradient" x1="159.32" y1="42.28" x2="159.32" y2="81.78" gradientTransform="matrix(1, 0, 0, -1, 0, 304)" gradientUnits="userSpaceOnUse"><stop offset="0" stop-color="gray" stop-opacity="0.25"/><stop offset="0.54" stop-color="gray" stop-opacity="0.12"/><stop offset="1" stop-color="gray" stop-opacity="0.1"/></linearGradient></defs><path class="cls-1" d="M198.36,315.06c-11.31-12.07-27.23-19.22-43.22-25.35s-32.56-11.58-46.32-21.06C100,262.55,92,253.76,92.56,242.31c.56-11,8.81-21.42,17.12-30.3,6.26-6.68,13.16-13.34,21.51-16.66,5.8-2.29,11.89-2.8,17.79-4.59,20.55-6.22,35.17-26.54,43.86-46,4.08-9.16,7.38-18.56,12.53-27.33s12.55-17.07,21.92-21.17,19.32-3.5,28.09-1.1c17.79,4.89,31.68,16.66,44.3,28.91,27.92,27.14,51.89,57.9,75.79,88.58C384.31,224,393.2,235.37,400,248.19c3.75,7.12,6.89,15.09,5.5,23.76-1.78,11-11.56,21.64-22.8,24.81-18.85,5.32-36.78-9-55-.95-10.05,4.42-16.91,14.45-21.4,24.24-9.66,21-13.08,45.34-30.78,61.48-12.15,11.08-29.79,15.73-43.59,11.49-14.47-4.45-25.11-18.59-20.91-34.49C215.26,342.16,208.33,325.72,198.36,315.06Z"/><g class="cls-2"><path class="cls-3" d="M226.84,265.26c3,0,5.46-3.2,5.46-7.15s-2.44-7.16-5.46-7.16-5.47,3.21-5.47,7.16S223.82,265.26,226.84,265.26Z"/><path class="cls-3" d="M231.16,227.51a8.61,8.61,0,0,0,1.15-4.38c0-3.95-2.45-7.15-5.46-7.15s-5.47,3.2-5.47,7.15a8.71,8.71,0,0,0,1.14,4.38,8.95,8.95,0,0,0,0,8.74,8.95,8.95,0,0,0,0,8.74,8.7,8.7,0,0,0-1.14,4.37c0,4,2.45,7.16,5.47,7.16s5.46-3.21,5.46-7.16a8.59,8.59,0,0,0-1.14-4.37,8.95,8.95,0,0,0,0-8.74,8.95,8.95,0,0,0,0-8.74Z"/><path class="cls-3" d="M226.84,221.55c3,0,5.46-3.21,5.46-7.16s-2.44-7.15-5.46-7.15-5.47,3.2-5.47,7.15S223.82,221.55,226.84,221.55Z"/><path class="cls-3" d="M226.84,212.8c3,0,5.46-3.2,5.46-7.15s-2.44-7.15-5.46-7.15-5.47,3.2-5.47,7.15S223.82,212.8,226.84,212.8Z"/><path class="cls-4" d="M247.29,145.82a25.54,25.54,0,0,0,2-3L235,140.47l15.53.11a26.26,26.26,0,0,0,.49-20.74l-20.84,10.81,19.22-14.12a26.2,26.2,0,0,0-27.47-12.61,26.44,26.44,0,0,0-9.86,4.06,26.18,26.18,0,0,0-5.9,37.84,26,26,0,0,0-3,4.77l18.64,9.69-19.87-6.68a26.18,26.18,0,0,0,4.21,24.58,26.17,26.17,0,1,0,41.14,0,26.19,26.19,0,0,0,0-32.37Z"/><path class="cls-5" d="M200.55,162a26,26,0,0,0,5.6,16.18,26.17,26.17,0,1,0,41.14,0C250.8,173.73,200.55,159.06,200.55,162Z"/></g><g class="cls-2"><path class="cls-3" d="M73.55,257.61c1.84,0,3.33-2,3.33-4.36s-1.49-4.35-3.33-4.35-3.33,1.95-3.33,4.35S71.71,257.61,73.55,257.61Z"/><path class="cls-3" d="M76.19,234.63a5.2,5.2,0,0,0,.7-2.67c0-2.4-1.48-4.35-3.33-4.35s-3.32,1.95-3.32,4.35a5.29,5.29,0,0,0,.69,2.67,5.47,5.47,0,0,0,0,5.32,5.47,5.47,0,0,0,0,5.32,5.28,5.28,0,0,0-.69,2.66c0,2.41,1.48,4.36,3.32,4.36s3.33-1.95,3.33-4.36a5.19,5.19,0,0,0-.7-2.66,5.4,5.4,0,0,0,0-5.32,5.4,5.4,0,0,0,0-5.32Z"/><path class="cls-3" d="M73.55,231c1.84,0,3.33-1.95,3.33-4.36s-1.49-4.35-3.33-4.35-3.33,2-3.33,4.35S71.71,231,73.55,231Z"/><path class="cls-3" d="M73.55,225.68c1.84,0,3.33-2,3.33-4.36S75.39,217,73.55,217s-3.33,1.95-3.33,4.35S71.71,225.68,73.55,225.68Z"/><path class="cls-4" d="M61.1,184.9a15,15,0,0,1-1.23-1.83l8.74-1.43-9.46.07a16,16,0,0,1-.3-12.62l12.67,6.59-11.69-8.61a15.93,15.93,0,0,1,27.24-.54,16,16,0,0,1,2,12.55,16,16,0,0,1-2.88,5.82A16.38,16.38,0,0,1,88,187.8l-11.34,5.9,12.09-4.06a16,16,0,0,1-2.56,15,15.94,15.94,0,1,1-25.05,0,15.93,15.93,0,0,1,0-19.7Z"/><path class="cls-5" d="M89.55,194.75a15.86,15.86,0,0,1-3.4,9.85,15.94,15.94,0,1,1-25.05,0C59,201.9,89.55,193,89.55,194.75Z"/></g><g class="cls-2"><path class="cls-3" d="M148.52,261.4c2.45,0,4.45-2.61,4.45-5.83s-2-5.82-4.45-5.82-4.45,2.61-4.45,5.82S146.06,261.4,148.52,261.4Z"/><path class="cls-3" d="M152,230.64a7,7,0,0,0,.93-3.56c0-3.22-2-5.83-4.46-5.83s-4.45,2.61-4.45,5.83a7,7,0,0,0,.93,3.56,7.3,7.3,0,0,0,0,7.13,7.28,7.28,0,0,0,0,7.12,7,7,0,0,0-.93,3.56c0,3.22,2,5.83,4.45,5.83s4.46-2.61,4.46-5.83a7,7,0,0,0-.93-3.56,7.28,7.28,0,0,0,0-7.12,7.3,7.3,0,0,0,0-7.13Z"/><path class="cls-3" d="M148.52,225.79c2.45,0,4.45-2.61,4.45-5.83s-2-5.83-4.45-5.83-4.45,2.61-4.45,5.83S146.06,225.79,148.52,225.79Z"/><path class="cls-3" d="M148.52,218.66c2.45,0,4.45-2.6,4.45-5.82s-2-5.83-4.45-5.83-4.45,2.61-4.45,5.83S146.06,218.66,148.52,218.66Z"/><path class="cls-4" d="M131.86,164.1a20.89,20.89,0,0,1-1.65-2.44l11.69-1.92-12.65.09a21.43,21.43,0,0,1-.41-16.89l17,8.8-15.66-11.51a21.32,21.32,0,0,1,39.56,7.39,21.37,21.37,0,0,1-4.35,16.48A21.13,21.13,0,0,1,167.8,168l-15.18,7.88,16.19-5.44a21.3,21.3,0,0,1-3.44,20,21.32,21.32,0,1,1-33.52,0,21.33,21.33,0,0,1,0-26.36Z"/><path class="cls-5" d="M169.93,177.28a21.21,21.21,0,0,1-4.56,13.18,21.32,21.32,0,1,1-33.52,0C129,186.84,169.93,174.89,169.93,177.28Z"/></g><path class="cls-6" d="M301.71,260.88c0,1.69-12.42,3.25-33,4.45-3.73.21-7.74.42-12,.61q-5.5.26-11.54.47-5.83.21-12.13.39c-13.25.37-27.89.65-43.45.78-3.78,0-7.6.06-11.48.08q-6.06,0-12.25,0c-75,0-135.8-3.05-135.8-6.81s60.8-6.8,135.8-6.8c32.29,0,61.94.57,85.25,1.51l2.55.1h0C283.08,256.93,301.71,258.81,301.71,260.88Z"/><path class="cls-7" d="M301.71,260.88c0,1.69-12.42,3.25-33,4.45-3.73.21-7.74.42-12,.61q-5.5.26-11.54.47-5.83.21-12.13.39c-13.25.37-27.89.65-43.45.78-3.78,0-7.6.06-11.48.08q-6.06,0-12.25,0c-75,0-135.8-3.05-135.8-6.81s60.8-6.8,135.8-6.8c32.29,0,61.94.57,85.25,1.51l2.55.1h0C283.08,256.93,301.71,258.81,301.71,260.88Z"/><path class="cls-6" d="M290.52,259.68c0,1.42-12.43,2.72-33,3.71q-5.61.27-12,.51-5.5.21-11.54.39-5.84.18-12.13.33c-13.25.31-27.9.54-43.46.65l-11.47.07-12.25,0c-75,0-135.8-2.55-135.8-5.69S79.72,254,154.72,254c32.29,0,61.94.47,85.24,1.26l2.55.09h0C271.9,256.38,290.52,257.94,290.52,259.68Z"/><path class="cls-6" d="M54,208l-3.41-10.44,81.65-.9L135.57,207Z"/><path class="cls-7" d="M54,208l-3.41-10.44,81.65-.9L135.57,207Z"/><path class="cls-6" d="M48.55,208l-3.41-10.44,81.65-.9L130.13,207Z"/><path class="cls-6" d="M187.93,192q-12.66,0-20-10.06t-7.3-24.35q0-14.4,7.06-24.31t19.91-9.89q13.62,0,20.53,10.43a42.76,42.76,0,0,1,6.91,24.17,40.42,40.42,0,0,1-7.15,23.82Q200.77,191.95,187.93,192Zm.25-7.54a13.43,13.43,0,0,0,12.45-7.26q4.13-7.28,4.12-18.31,0-12.3-4.22-20.14t-12.94-7.84q-16.58,0-16.58,26.33,0,27.23,17.16,27.22ZM191,256.6H178.75l79.93-131.92h12ZM261.67,258q-12.86,0-20-10.14t-7.22-24.36q0-14.3,7-24.21t20-9.89q13.53,0,20.39,10.43a43,43,0,0,1,6.86,24.16,40.65,40.65,0,0,1-7.1,23.78Q274.42,258,261.67,258Zm.15-7.73a13.37,13.37,0,0,0,12.38-7.14q4.1-7.12,4.1-18.23,0-11.88-4.15-19.92t-12.91-8.06q-16.68,0-16.67,26.34,0,27,17.24,27Z"/><path class="cls-6" d="M187.93,192q-12.66,0-20-10.06t-7.3-24.35q0-14.4,7.06-24.31t19.91-9.89q13.62,0,20.53,10.43a42.76,42.76,0,0,1,6.91,24.17,40.42,40.42,0,0,1-7.15,23.82Q200.77,191.95,187.93,192Zm.25-7.54a13.43,13.43,0,0,0,12.45-7.26q4.13-7.28,4.12-18.31,0-12.3-4.22-20.14t-12.94-7.84q-16.58,0-16.58,26.33,0,27.23,17.16,27.22ZM191,256.6H178.75l79.93-131.92h12ZM261.67,258q-12.86,0-20-10.14t-7.22-24.36q0-14.3,7-24.21t20-9.89q13.53,0,20.39,10.43a43,43,0,0,1,6.86,24.16,40.65,40.65,0,0,1-7.1,23.78Q274.42,258,261.67,258Zm.15-7.73a13.37,13.37,0,0,0,12.38-7.14q4.1-7.12,4.1-18.23,0-11.88-4.15-19.92t-12.91-8.06q-16.68,0-16.67,26.34,0,27,17.24,27Z"/><path class="cls-7" d="M187.93,192q-12.66,0-20-10.06t-7.3-24.35q0-14.4,7.06-24.31t19.91-9.89q13.62,0,20.53,10.43a42.76,42.76,0,0,1,6.91,24.17,40.42,40.42,0,0,1-7.15,23.82Q200.77,191.95,187.93,192Zm.25-7.54a13.43,13.43,0,0,0,12.45-7.26q4.13-7.28,4.12-18.31,0-12.3-4.22-20.14t-12.94-7.84q-16.58,0-16.58,26.33,0,27.23,17.16,27.22ZM191,256.6H178.75l79.93-131.92h12ZM261.67,258q-12.86,0-20-10.14t-7.22-24.36q0-14.3,7-24.21t20-9.89q13.53,0,20.39,10.43a43,43,0,0,1,6.86,24.16,40.65,40.65,0,0,1-7.1,23.78Q274.42,258,261.67,258Zm.15-7.73a13.37,13.37,0,0,0,12.38-7.14q4.1-7.12,4.1-18.23,0-11.88-4.15-19.92t-12.91-8.06q-16.68,0-16.67,26.34,0,27,17.24,27Z"/><path class="cls-6" d="M180.26,192q-12.66,0-20-10.06T153,157.54q0-14.4,7.06-24.31T180,123.34q13.62,0,20.53,10.43a42.76,42.76,0,0,1,6.91,24.17,40.42,40.42,0,0,1-7.15,23.82Q193.12,191.95,180.26,192Zm.25-7.54A13.43,13.43,0,0,0,193,177.15q4.13-7.28,4.12-18.31,0-12.3-4.22-20.14t-12.94-7.84q-16.57,0-16.57,26.33,0,27.23,17.15,27.22Zm2.78,72.19H171.08L251,124.68h12ZM254,258q-12.85,0-20-10.14t-7.21-24.36q0-14.3,7-24.21t20-9.89q13.53,0,20.39,10.43A43,43,0,0,1,281,223.94a40.72,40.72,0,0,1-7.1,23.78Q266.75,258,254,258Zm.15-7.73a13.37,13.37,0,0,0,12.38-7.14q4.1-7.12,4.1-18.23,0-11.88-4.15-19.92t-12.92-8.06q-16.67,0-16.67,26.34,0,27,17.25,27Z"/><path class="cls-8" d="M207,259.91c1-1.89-.14-4.21-1.47-5.89s-2.95-3.44-2.92-5.59c0-3.09,3.32-4.91,5.94-6.55a29,29,0,0,0,5.34-4.29,7.9,7.9,0,0,0,1.64-2.2,9,9,0,0,0,.49-3.9c-.11-4.4-.33-8.81-.65-13.2"/><path class="cls-9" d="M220.32,218.05a4.83,4.83,0,0,0-.7-2.28,4.88,4.88,0,0,0-1.71-1.67l-1.07,2.14,0-2.59a5,5,0,0,0-1.59-.19,4.8,4.8,0,0,0-2.63.94,4.72,4.72,0,0,0-1.67,2.24,4.83,4.83,0,0,0-.15,2.79,4.83,4.83,0,0,0,6.73,3.2,4.83,4.83,0,0,0,2.76-4.58Z"/><path class="cls-9" d="M211.73,250.64a4.81,4.81,0,1,1-1.83-6.34,4.77,4.77,0,0,1,2.06,2.47l-3,2.44,3.31-.77A4.8,4.8,0,0,1,211.73,250.64Z"/><path class="cls-9" d="M209.35,241.29a4.84,4.84,0,0,1-1.85-.28,5,5,0,0,1-1.61-1,4.77,4.77,0,0,1-1.57-3.34,4.73,4.73,0,0,1,.41-2.19,4.93,4.93,0,0,1,1.25-1.68,4.77,4.77,0,0,1,1.84-1l0,2,1.09-2.16a4.82,4.82,0,1,1,.45,9.62Z"/><path class="cls-9" d="M221,233.51a4.78,4.78,0,0,1-1.88-.25,5,5,0,0,1-1.65-1,5.14,5.14,0,0,1-1.14-1.52,4.94,4.94,0,0,1-.46-1.85,4.81,4.81,0,0,1,.29-1.88,4.91,4.91,0,0,1,1-1.62,4.87,4.87,0,0,1,3.4-1.54,4.83,4.83,0,0,1,2.58.61l-.85,2.33,1.75-1.68a4.8,4.8,0,0,1,1.56,3.32,4.92,4.92,0,0,1-.12,1.33,4.82,4.82,0,0,1-4.47,3.71Z"/><path class="cls-5" d="M219.67,219.33c-1.11.12-2.19.47-3.31.54a3.58,3.58,0,0,1-3-1.07,14,14,0,0,1-.89-1.56,3.39,3.39,0,0,0-1.21-1.14,4.8,4.8,0,0,0-.52,2,4.9,4.9,0,0,0,.34,2,4.81,4.81,0,0,0,4.87,3,4.87,4.87,0,0,0,1.94-.59,4.92,4.92,0,0,0,1.53-1.34,4.86,4.86,0,0,0,.84-1.85Z"/><path class="cls-5" d="M221,233.51a4.8,4.8,0,0,1-5-4.46,4.76,4.76,0,0,1,.44-2.41,3.73,3.73,0,0,1,1,1,13.42,13.42,0,0,0,1,1.59,3.9,3.9,0,0,0,3.19,1.12c1.16,0,2.28-.38,3.44-.49a3.91,3.91,0,0,1,.49,0,4.79,4.79,0,0,1-1.61,2.6A4.84,4.84,0,0,1,221,233.51Z"/><path class="cls-5" d="M209.35,241.29a4.84,4.84,0,0,1-1.85-.28,5,5,0,0,1-1.61-1,4.77,4.77,0,0,1-1.57-3.34,4.73,4.73,0,0,1,.41-2.19,3.7,3.7,0,0,1,1,1,18.65,18.65,0,0,0,1.05,1.62,4.47,4.47,0,0,0,3.41,1.19c1.23,0,2.34-.31,3.52-.4a4.84,4.84,0,0,1-1.65,2.38A4.92,4.92,0,0,1,209.35,241.29Z"/><path class="cls-5" d="M211.73,250.64a4.82,4.82,0,0,1-8.78-3.93,4.57,4.57,0,0,1,1.06.95,20.69,20.69,0,0,0,1.29,1.71,6.09,6.09,0,0,0,4,1.4A22.16,22.16,0,0,0,211.73,250.64Z"/><path class="cls-8" d="M281.44,259.66c1-1.89-.14-4.2-1.47-5.89s-3-3.44-2.92-5.59c.05-3.08,3.33-4.91,5.94-6.55a29,29,0,0,0,5.34-4.29,8,8,0,0,0,1.64-2.19,9,9,0,0,0,.49-3.9q-.16-6.62-.65-13.21"/><path class="cls-9" d="M294.79,217.8a4.82,4.82,0,0,0-2.4-3.94L291.31,216l0-2.58a4.72,4.72,0,0,0-1.59-.19,4.8,4.8,0,0,0-4.44,6,4.74,4.74,0,0,0,1.43,2.41,4.8,4.8,0,0,0,5.29.79,4.74,4.74,0,0,0,2.07-1.87A4.88,4.88,0,0,0,294.79,217.8Z"/><path class="cls-9" d="M286.2,250.39a4.81,4.81,0,0,1-9.08-2.49,4.8,4.8,0,0,1,4.1-4.47,4.83,4.83,0,0,1,5.22,3.09l-3,2.44,3.31-.77A4.68,4.68,0,0,1,286.2,250.39Z"/><path class="cls-9" d="M283.83,241a4.86,4.86,0,0,1-1.86-.28,4.66,4.66,0,0,1-1.61-1,4.87,4.87,0,0,1-1.12-1.51,4.81,4.81,0,0,1,0-4,4.87,4.87,0,0,1,1.24-1.68,4.77,4.77,0,0,1,1.84-1l0,2,1.09-2.16h0a4.81,4.81,0,0,1,5,4.59,4.92,4.92,0,0,1-.28,1.86,4.61,4.61,0,0,1-1,1.6,4.87,4.87,0,0,1-1.51,1.12,4.78,4.78,0,0,1-1.82.45Z"/><path class="cls-9" d="M295.51,233.26a4.61,4.61,0,0,1-1.88-.25,4.67,4.67,0,0,1-1.64-1,4.89,4.89,0,0,1-1.15-1.52,4.94,4.94,0,0,1-.46-1.85,4.81,4.81,0,0,1,.29-1.88,4.91,4.91,0,0,1,1-1.62,4.87,4.87,0,0,1,3.4-1.54,4.83,4.83,0,0,1,2.58.61l-.85,2.33,1.75-1.68a4.82,4.82,0,0,1,1.56,3.33,4.82,4.82,0,0,1-1.73,3.93A4.77,4.77,0,0,1,295.51,233.26Z"/><path class="cls-5" d="M294.14,219.08c-1.11.13-2.19.47-3.31.54a3.6,3.6,0,0,1-3-1.06,15.11,15.11,0,0,1-.89-1.57,3.39,3.39,0,0,0-1.21-1.14,4.8,4.8,0,0,0-.52,2,4.88,4.88,0,0,0,.34,2,4.81,4.81,0,0,0,4.87,3,4.87,4.87,0,0,0,1.94-.59,4.8,4.8,0,0,0,1.53-1.34,4.86,4.86,0,0,0,.84-1.85Z"/><path class="cls-5" d="M295.51,233.26a4.82,4.82,0,0,1-2.39-.51,4.9,4.9,0,0,1-1.84-1.63,4.8,4.8,0,0,1-.79-2.31,4.87,4.87,0,0,1,.44-2.41,3.45,3.45,0,0,1,1,1,15.26,15.26,0,0,0,1,1.59,3.9,3.9,0,0,0,3.19,1.11c1.16,0,2.28-.38,3.44-.49l.49,0a4.79,4.79,0,0,1-4.47,3.71Z"/><path class="cls-5" d="M283.83,241a4.86,4.86,0,0,1-1.86-.28,4.66,4.66,0,0,1-1.61-1,4.87,4.87,0,0,1-1.12-1.51,4.81,4.81,0,0,1,0-4,4,4,0,0,1,1,1,16,16,0,0,0,1,1.62,4.44,4.44,0,0,0,3.41,1.2c1.19,0,2.34-.32,3.52-.41a4.84,4.84,0,0,1-1.65,2.38A4.89,4.89,0,0,1,283.83,241Z"/><path class="cls-5" d="M286.2,250.39a4.78,4.78,0,0,1-2.68,2.36,4.8,4.8,0,0,1-6.06-2.71,4.79,4.79,0,0,1,0-3.57,4.69,4.69,0,0,1,1.05.94,19.14,19.14,0,0,0,1.29,1.71,6,6,0,0,0,4,1.4A18.05,18.05,0,0,0,286.2,250.39Z"/><path class="cls-8" d="M46.12,256.45c-1-1.89.14-4.21,1.47-5.9s2.95-3.44,2.92-5.59c0-3.08-3.33-4.9-5.94-6.54a29.13,29.13,0,0,1-5.34-4.29,7.85,7.85,0,0,1-1.64-2.2,9,9,0,0,1-.5-3.9q.18-6.61.66-13.2"/><path class="cls-9" d="M32.77,214.58a4.85,4.85,0,0,1,2.4-3.94l1.08,2.13,0-2.58A5,5,0,0,1,37.8,210a4.78,4.78,0,0,1,2.64.94,4.82,4.82,0,0,1,.38,7.43,4.79,4.79,0,0,1-2.52,1.2,4.81,4.81,0,0,1-4.85-2.28A4.75,4.75,0,0,1,32.77,214.58Z"/><path class="cls-9" d="M41.35,247.18a4.84,4.84,0,0,0,5.56,2.44,4.82,4.82,0,1,0-3.73-8.79,4.89,4.89,0,0,0-2.06,2.47l3,2.45L40.81,245A5,5,0,0,0,41.35,247.18Z"/><path class="cls-9" d="M43.73,237.82a4.82,4.82,0,0,0,3.47-1.25,4.59,4.59,0,0,0,1.11-1.51,4.79,4.79,0,0,0,.46-1.82,4.81,4.81,0,0,0-3.5-4.86l0,2-1.1-2.15a4.82,4.82,0,0,0-.45,9.62Z"/><path class="cls-9" d="M32,230.05a5.05,5.05,0,0,0,1.89-.25,4.78,4.78,0,0,0,1.64-1,4.61,4.61,0,0,0,1.14-1.52,4.71,4.71,0,0,0,.46-1.84,4.8,4.8,0,0,0-.28-1.88,4.72,4.72,0,0,0-1-1.63,4.85,4.85,0,0,0-1.54-1.11,4.8,4.8,0,0,0-1.86-.42,4.69,4.69,0,0,0-2.56.61l.85,2.33L29,221.69A4.85,4.85,0,0,0,27.45,225a4.59,4.59,0,0,0,.13,1.33A4.83,4.83,0,0,0,32,230.05Z"/><path class="cls-5" d="M33.42,215.87c1.11.12,2.19.47,3.3.54a3.63,3.63,0,0,0,3.05-1.07,15.11,15.11,0,0,0,.89-1.57,3.48,3.48,0,0,1,1.21-1.14,4.81,4.81,0,0,1,.52,2,4.78,4.78,0,0,1-1.48,3.68,4.72,4.72,0,0,1-1.72,1.06,5,5,0,0,1-2,.27,4.78,4.78,0,0,1-1.94-.6,4.86,4.86,0,0,1-2.36-3.18Z"/><path class="cls-5" d="M32,230.05a4.84,4.84,0,0,0,4.23-2.14,4.82,4.82,0,0,0,.8-2.32,4.77,4.77,0,0,0-.45-2.41,3.54,3.54,0,0,0-1,1,16.76,16.76,0,0,1-1,1.59,3.94,3.94,0,0,1-3.19,1.12c-1.16-.05-2.28-.39-3.44-.5l-.5,0A4.84,4.84,0,0,0,32,230.05Z"/><path class="cls-5" d="M43.73,237.82a4.82,4.82,0,0,0,3.47-1.25,4.59,4.59,0,0,0,1.11-1.51,4.79,4.79,0,0,0,.46-1.82,4.88,4.88,0,0,0-.42-2.2,4,4,0,0,0-1,1,15.49,15.49,0,0,1-1,1.63,4.47,4.47,0,0,1-3.41,1.19c-1.19,0-2.34-.32-3.53-.41A4.84,4.84,0,0,0,41,236.82,4.72,4.72,0,0,0,43.73,237.82Z"/><path class="cls-5" d="M41.35,247.18a4.82,4.82,0,0,0,8.78-3.93,5,5,0,0,0-1.05.94,19.14,19.14,0,0,1-1.29,1.71,6,6,0,0,1-4,1.4A20.1,20.1,0,0,1,41.35,247.18Z"/><path class="cls-10" d="M185.55,233.26a3.85,3.85,0,0,0-.4-1.73,3.75,3.75,0,0,0-1.13-1.37,4.5,4.5,0,0,0-3.76-4.41,4.45,4.45,0,0,0-3-3.34,3.39,3.39,0,0,0-.55-.13h-.66A4.41,4.41,0,0,0,171.8,226c-1.37-.32-2.63.09-2.85,1a1.2,1.2,0,0,0,0,.7,3,3,0,0,0,2,1.63l.13,0,.2,0h0a3.46,3.46,0,0,0,1.51,4.53l-.09.06a1.31,1.31,0,0,0-.3.41,6.25,6.25,0,0,0-.57,1.39c-.1.41-.12.84-.25,1.25a11.66,11.66,0,0,0-.87,2.18c0,.36,0,.77-.22,1l-.2.14a1.57,1.57,0,0,0-.43.46,1.64,1.64,0,0,1-.29.4c-.23.17-.6.15-.71.42s.18.57.11.85-.31.34-.5.5a1.82,1.82,0,0,0-.42.8,2.6,2.6,0,0,1-1.11,0,2.64,2.64,0,0,1-1-.51,3.72,3.72,0,0,1,.22.79,3.49,3.49,0,0,0-1.14-.57,3.68,3.68,0,0,1-1.21-.9l.65-.09-2.87-4.35-.85-.18.76,1.46a.51.51,0,0,0-.16.13.61.61,0,0,0-.09.18,1.41,1.41,0,0,0,0,.5,9.07,9.07,0,0,0,.2,1.16l.22,1c0,.1,0,.19.07.29a3,3,0,0,0-.85.09,7.15,7.15,0,0,0-1.76-.41.77.77,0,0,0-.4,0,.84.84,0,0,0-.37.3,11.19,11.19,0,0,0-1.31,1.84,61.66,61.66,0,0,1-5.53,7.45c-1.33.54-2.67,1.06-4,1.57l-2.88,1.1a4.36,4.36,0,0,1-1.79.4c-.28,0-.62-.06-.77.18a1.33,1.33,0,0,0-.18.38l-.3,0h0a3.29,3.29,0,0,0-.7-1.27.46.46,0,0,0-.19.08.43.43,0,0,0-.13.17c-.07.13-.11.27-.19.39a5.25,5.25,0,0,1-.62.53c-.19.19-.32.49-.52.68a2.11,2.11,0,0,1-1,.38,6.37,6.37,0,0,0-1.54.59,2.44,2.44,0,0,1-.57.26,2.09,2.09,0,0,1-.66,0l-1.53-.11a1.12,1.12,0,0,0-.41,0,.77.77,0,0,0-.38.31.79.79,0,0,0-.12.47,1.25,1.25,0,0,0,.16.47,1.06,1.06,0,0,0,.33.37,3.16,3.16,0,0,0,.87.46,26.61,26.61,0,0,0,4.09,1.2V261a7.05,7.05,0,0,0,3.12.74.59.59,0,0,0,.23,0,.53.53,0,0,0,.2-.31,12.79,12.79,0,0,0,.61-3,1.49,1.49,0,0,0,.55-.14c.53-.14,1.05.22,1.59.28a4.37,4.37,0,0,0,1.92-.56l.28-.09a3,3,0,0,1-.63.61c-.27.19-.56.33-.82.52a4.29,4.29,0,0,1-.68.53,4.87,4.87,0,0,1-.53.21,3.41,3.41,0,0,0-.74.37,1.46,1.46,0,0,0-.52.5.68.68,0,0,0-.11.31.64.64,0,0,0,.05.34.67.67,0,0,0,.52.4,2.22,2.22,0,0,0,.63,0l2.47-.22a7.22,7.22,0,0,0,1-.14l.54-.16a5.08,5.08,0,0,1,.94-.14,1.27,1.27,0,0,1,.28,0c.19.06.33.25.52.3a1,1,0,0,0,.38,0,8,8,0,0,1,1.83-.2.77.77,0,0,0,.71-.32c.16-.31-.1-.65-.2-1a2.8,2.8,0,0,1-.08-.64,4.21,4.21,0,0,0-.46-1.55,4.12,4.12,0,0,1-.34-.7,18.18,18.18,0,0,0,3.38-1.71,6,6,0,0,1,1.92-.93,5.3,5.3,0,0,1,2.42.28,54.24,54.24,0,0,1,5.54,1.94,27.6,27.6,0,0,0,2.62,1,3.93,3.93,0,0,0,.92.9,4.3,4.3,0,0,0,2,.55,26.78,26.78,0,0,0,2.83.11,4.91,4.91,0,0,0,2.12-.39,2.45,2.45,0,0,0,.44-.3,1.74,1.74,0,0,0,1.39-.51,3.34,3.34,0,0,0,1.06-1.67c.23-.89.06-1.94.61-2.67.14-.19.33-.35.48-.55a1.48,1.48,0,0,0,.24-.89l0,0a4,4,0,0,0,.25-.9,4.23,4.23,0,0,1,.24-.71c.28-.69.52-1.4.73-2.11a14.52,14.52,0,0,0,.34-1.45c.06-.39.09-.78.12-1.18a7.09,7.09,0,0,1,.36-1.81,14.82,14.82,0,0,0,.82-4.33v-.09a2.88,2.88,0,0,0,2.58-2.93,3.23,3.23,0,0,0-.26-1.26A4,4,0,0,0,185.55,233.26Zm-14,17c0,.15.09.3.14.45L171,250l.27.09a1.71,1.71,0,0,1,.27.14Zm-1.11-.74c-1.35-1.17-2.91-2.08-4.3-3.22.75.38,1.49.81,2.23,1.22s1.74,1,2.62,1.42a2.1,2.1,0,0,1-.54.57Zm.58-3,.06-.06V247l-.36-.12a2.72,2.72,0,0,0,.3-.29Zm-11.89,3.18a12.19,12.19,0,0,0,1.44-2.05,13.42,13.42,0,0,0,2.14,2.39,35.84,35.84,0,0,0-3.58-.35Z"/><path class="cls-11" d="M161.06,238.34l.86.17,2.91,4.29-1.29.18Z"/><path class="cls-12" d="M140.39,255.77a18.25,18.25,0,0,0,.85,2.23,23,23,0,0,0,2.84-.81,7.86,7.86,0,0,0-.59-.8,2.82,2.82,0,0,0-.8-.62,2.16,2.16,0,0,0-1,0C141.27,255.77,140.83,255.78,140.39,255.77Z"/><path class="cls-11" d="M142.69,256.92a1.8,1.8,0,0,1-1-1.11,3.62,3.62,0,0,0-.72-1.32.5.5,0,0,0-.2.08.43.43,0,0,0-.13.17,3.48,3.48,0,0,1-.2.38c-.15.23-.42.33-.62.52s-.31.48-.52.68a2.16,2.16,0,0,1-1,.38,6.14,6.14,0,0,0-1.55.57,2.48,2.48,0,0,1-.58.25,2.14,2.14,0,0,1-.67,0l-1.54-.11a1.13,1.13,0,0,0-.41,0,.73.73,0,0,0-.49.77,1.14,1.14,0,0,0,.16.47,1.26,1.26,0,0,0,.33.36,3.16,3.16,0,0,0,.88.44,25.63,25.63,0,0,0,4.13,1.18V261a7.14,7.14,0,0,0,3.14.74.53.53,0,0,0,.25,0,.52.52,0,0,0,.2-.3,12.34,12.34,0,0,0,.64-3.35,2.48,2.48,0,0,0-.06-.86c-.09-.28.2-.16-.07-.27"/><path class="cls-11" d="M172.24,251.11c-4.57.27-9.08-1.07-13.66-1.21a6.81,6.81,0,0,0-1.69.11,7.87,7.87,0,0,0-1.69.65c-2.45,1.14-5,2.09-7.52,3l-2.91,1.09a4.6,4.6,0,0,1-1.81.39c-.28,0-.62,0-.77.18a2.83,2.83,0,0,0,.06,2.52c.1.24.27.53.55.56a1.71,1.71,0,0,0,.55-.14c.53-.14,1.06.21,1.61.27a4.4,4.4,0,0,0,1.93-.55,18.42,18.42,0,0,1,3.32-.56,14.69,14.69,0,0,0,5.19-2.16,6.36,6.36,0,0,1,1.94-.91,5.23,5.23,0,0,1,2.44.28,54.7,54.7,0,0,1,5.58,1.9,25.46,25.46,0,0,0,2.92,1.06,10.57,10.57,0,0,0,6.55-.38c.74-.29,1.52-.8,1.56-1.59,0-.45-.32-.84-.56-1.23s-.29-.5-.46-.73C174.58,252.54,173.63,251,172.24,251.11Z"/><path class="cls-5" d="M172.24,251.11c-4.57.27-9.08-1.07-13.66-1.21a6.81,6.81,0,0,0-1.69.11,7.87,7.87,0,0,0-1.69.65c-2.45,1.14-5,2.09-7.52,3l-2.91,1.09a4.6,4.6,0,0,1-1.81.39c-.28,0-.62,0-.77.18a2.83,2.83,0,0,0,.06,2.52c.1.24.27.53.55.56a1.71,1.71,0,0,0,.55-.14c.53-.14,1.06.21,1.61.27a4.4,4.4,0,0,0,1.93-.55,18.42,18.42,0,0,1,3.32-.56,14.69,14.69,0,0,0,5.19-2.16,6.36,6.36,0,0,1,1.94-.91,5.23,5.23,0,0,1,2.44.28,54.7,54.7,0,0,1,5.58,1.9,25.46,25.46,0,0,0,2.92,1.06,10.57,10.57,0,0,0,6.55-.38c.74-.29,1.52-.8,1.56-1.59,0-.45-.32-.84-.56-1.23s-.29-.5-.46-.73C174.58,252.54,173.63,251,172.24,251.11Z"/><path class="cls-12" d="M149.16,256c.72.24,1.44.47,2.17.67.4-.67,1.17-1.13,1.34-1.9a.17.17,0,0,0,0-.1.18.18,0,0,0-.08-.07,4,4,0,0,0-1.7-.5c-.47,0-.68.46-.89.81C149.92,255,149.35,256.06,149.16,256Z"/><path class="cls-11" d="M150.17,255.5a1.47,1.47,0,0,1-.6-.23,1.64,1.64,0,0,1-.45-.46c-.1-.17-.21-.41-.41-.4s-.27.24-.32.42a11.21,11.21,0,0,1-.59,2,3.77,3.77,0,0,1-1.26,1.66c-.27.19-.56.32-.82.52a5.67,5.67,0,0,1-.69.52,3.5,3.5,0,0,1-.54.2,3.49,3.49,0,0,0-.75.37,1.53,1.53,0,0,0-.52.49.72.72,0,0,0-.11.34.74.74,0,0,0,.06.36.88.88,0,0,0,.21.22.81.81,0,0,0,.29.12,2.22,2.22,0,0,0,.63,0l2.5-.21a7.22,7.22,0,0,0,1-.14l.54-.16a4.44,4.44,0,0,1,1-.13.82.82,0,0,1,.27,0c.2.06.33.25.53.3a1,1,0,0,0,.38-.05,8.88,8.88,0,0,1,1.85-.2c.27,0,.59-.06.71-.31s-.1-.64-.2-1a3.4,3.4,0,0,1-.09-.64,3.88,3.88,0,0,0-.45-1.52c-.22-.39-.5-.82-.36-1.23a1,1,0,0,0,.14-.43C152.09,255.34,150.55,255.59,150.17,255.5Z"/><path class="cls-12" d="M165.39,243.78a3.57,3.57,0,0,1-1.82-1.81l-.21-.53a4,4,0,0,0-1.09-1.51.59.59,0,0,0-.18-.13.57.57,0,0,0-.22,0,.39.39,0,0,0-.19.12.36.36,0,0,0-.11.2,1.35,1.35,0,0,0,0,.49,8.48,8.48,0,0,0,.2,1.14l.22,1a1.69,1.69,0,0,0,.14.45,1.59,1.59,0,0,0,.37.45l.62.54a2.51,2.51,0,0,0,.37.27,2.1,2.1,0,0,0,.69.2,6.12,6.12,0,0,1,2.6,1s0-.67,0-.74a1,1,0,0,0-.19-.54A3.24,3.24,0,0,0,165.39,243.78Z"/><path class="cls-5" d="M165.39,243.78a3.57,3.57,0,0,1-1.82-1.81l-.21-.53a4,4,0,0,0-1.09-1.51.59.59,0,0,0-.18-.13.57.57,0,0,0-.22,0,.39.39,0,0,0-.19.12.36.36,0,0,0-.11.2,1.35,1.35,0,0,0,0,.49,8.48,8.48,0,0,0,.2,1.14l.22,1a1.69,1.69,0,0,0,.14.45,1.59,1.59,0,0,0,.37.45l.62.54a2.51,2.51,0,0,0,.37.27,2.1,2.1,0,0,0,.69.2,6.12,6.12,0,0,1,2.6,1s0-.67,0-.74a1,1,0,0,0-.19-.54A3.24,3.24,0,0,0,165.39,243.78Z"/><path class="cls-11" d="M174.69,236.06a1.12,1.12,0,1,0-1.11-1.12A1.11,1.11,0,0,0,174.69,236.06Z"/><path class="cls-11" d="M174,234.27a1.22,1.22,0,0,0-.88.12,1.31,1.31,0,0,0-.3.41,6.26,6.26,0,0,0-.58,1.36c-.1.41-.12.84-.25,1.24-.23.74-.81,1.37-.88,2.15,0,.34,0,.75-.22,1l-.2.14a1.45,1.45,0,0,0-.44.45,1.43,1.43,0,0,1-.31.43c-.23.17-.6.15-.71.41s.17.56.11.84-.31.34-.5.5a1.69,1.69,0,0,0-.42.79,2.65,2.65,0,0,1-1.12,0,2.59,2.59,0,0,1-1-.5,6.68,6.68,0,0,1,.33,2.44,1,1,0,0,1-.19.74,13,13,0,0,1,2.61.45,1.85,1.85,0,0,0,1.14,0,2.29,2.29,0,0,0,.52-.41,3.28,3.28,0,0,0,1.07-1.66,8.5,8.5,0,0,0,0-1.13,7,7,0,0,1,.29-1.36,15.74,15.74,0,0,0,.49-2.81c.06-.58.56-1,.83-1.58a7.86,7.86,0,0,0,1.05-3.12C174.5,234.76,174.37,234.31,174,234.27Z"/><path class="cls-5" d="M174,234.27a1.22,1.22,0,0,0-.88.12,1.31,1.31,0,0,0-.3.41,6.26,6.26,0,0,0-.58,1.36c-.1.41-.12.84-.25,1.24-.23.74-.81,1.37-.88,2.15,0,.34,0,.75-.22,1l-.2.14a1.45,1.45,0,0,0-.44.45,1.43,1.43,0,0,1-.31.43c-.23.17-.6.15-.71.41s.17.56.11.84-.31.34-.5.5a1.69,1.69,0,0,0-.42.79,2.65,2.65,0,0,1-1.12,0,2.59,2.59,0,0,1-1-.5,6.68,6.68,0,0,1,.33,2.44,1,1,0,0,1-.19.74,13,13,0,0,1,2.61.45,1.85,1.85,0,0,0,1.14,0,2.29,2.29,0,0,0,.52-.41,3.28,3.28,0,0,0,1.07-1.66,8.5,8.5,0,0,0,0-1.13,7,7,0,0,1,.29-1.36,15.74,15.74,0,0,0,.49-2.81c.06-.58.56-1,.83-1.58a7.86,7.86,0,0,0,1.05-3.12C174.5,234.76,174.37,234.31,174,234.27Z"/><path class="cls-11" d="M173,252.07a10.13,10.13,0,0,1-2.42-2c-1.47-1.38-3.27-2.35-4.81-3.65a32.51,32.51,0,0,0-3.06-2.57,7.72,7.72,0,0,0-3.28-1.15.9.9,0,0,0-.4,0,1,1,0,0,0-.38.3,11.26,11.26,0,0,0-1.32,1.82c-2,3.32-4.74,6.11-7,9.2a.4.4,0,0,0-.12.27.42.42,0,0,0,.09.29l.47.92c.26.51.68,1.11,1.24,1a1.41,1.41,0,0,0,.65-.42l2.11-2,2.2-2.11a17,17,0,0,0,3.45-4.08c.66,1.14,1.82,1.89,2.63,2.94.3.39.55.83.82,1.25.44.68.93,1.31,1.43,1.94l2.53,3.23a4.9,4.9,0,0,0,1.17,1.19,4.58,4.58,0,0,0,2,.54,27.33,27.33,0,0,0,2.86.1,4.92,4.92,0,0,0,2.13-.38A2,2,0,0,0,177.1,257a2.57,2.57,0,0,0-.36-1.07A8.45,8.45,0,0,0,173,252.07Z"/><path class="cls-13" d="M175.38,236.57a.86.86,0,0,0,0-1.71.86.86,0,1,0,0,1.71Z"/><path class="cls-12" d="M175.19,235.07a1.62,1.62,0,0,1,.09,1.24,4.61,4.61,0,0,1-.55,1.14,5.92,5.92,0,0,1-.71,1,7.25,7.25,0,0,0,3.76-1.08,5.31,5.31,0,0,0,2.37-2.07,1.14,1.14,0,0,1-.45,0,1.05,1.05,0,0,1-.42-.18,3,3,0,0,1-.67-.62l-.66-.74a2.41,2.41,0,0,1-.41-.54,1.43,1.43,0,0,1-.18-.86,5.1,5.1,0,0,1-.87.73c-.47.3-1,.53-1.47.83-.17.11-.54.29-.44.5S175.06,234.83,175.19,235.07Z"/><path class="cls-5" d="M175.19,235.07a1.62,1.62,0,0,1,.09,1.24,4.61,4.61,0,0,1-.55,1.14,5.92,5.92,0,0,1-.71,1,7.25,7.25,0,0,0,3.76-1.08,5.31,5.31,0,0,0,2.37-2.07,1.14,1.14,0,0,1-.45,0,1.05,1.05,0,0,1-.42-.18,3,3,0,0,1-.67-.62l-.66-.74a2.41,2.41,0,0,1-.41-.54,1.43,1.43,0,0,1-.18-.86,5.1,5.1,0,0,1-.87.73c-.47.3-1,.53-1.47.83-.17.11-.54.29-.44.5S175.06,234.83,175.19,235.07Z"/><path class="cls-13" d="M175.21,235.2a1.07,1.07,0,0,0-.21.64,1.1,1.1,0,0,0,.21.65s.18.34.24.34a.21.21,0,0,0,.16-.08c.29-.31.57-.64.83-1a1.82,1.82,0,0,1,1.06-.7,2.34,2.34,0,0,1,1.47.45,1,1,0,0,1,.66,1,26.43,26.43,0,0,1,.15,3.56,13.61,13.61,0,0,1-.17,2.55c-.08.44-.21.86-.27,1.3a9.16,9.16,0,0,0-.05,1.17v1.63a3.91,3.91,0,0,0,.07.9c.1.35.22.69.35,1a6.65,6.65,0,0,1,.25,1.24l.22,1.69a2,2,0,0,1-.2,1.54c-.14.2-.33.35-.49.55-.56.7-.37,1.73-.62,2.61a3.3,3.3,0,0,1-1.07,1.64,1.76,1.76,0,0,1-1.42.5,2,2,0,0,1-1.28-1.52,6,6,0,0,0-.66-2,5.11,5.11,0,0,0-1.31-1.09,2.31,2.31,0,0,1-1-1.33c0-.25,0-.49,0-.74A1.78,1.78,0,0,0,171,250.3c-.36-.13-.79-.18-1-.49a2.36,2.36,0,0,0,1-1.38,6.84,6.84,0,0,0,.25-1.74l.12-2a6.58,6.58,0,0,1,.46-2.54c.18-.35.39-.68.57-1a11.76,11.76,0,0,0,.61-1.52c.28-.8.56-1.61.81-2.42a4.76,4.76,0,0,1,.45-1.13C174.51,235.72,174.81,235.27,175.21,235.2Z"/><path class="cls-11" d="M170.84,248l.52,0,.12-.78a1.71,1.71,0,0,1,.1-.46,3.41,3.41,0,0,1,.3-.44,5.49,5.49,0,0,0,.6-2.56,12.66,12.66,0,0,1,1.15-3.35l1-2.25a3,3,0,0,0,.21-.57,2.54,2.54,0,0,0,.06-.67c0-.35.12-1.61.13-2,0-.13-.29-.06-.35-.17s-.3.43-.53.57a1.34,1.34,0,0,0-.47.68c-.22.57-.35,1.17-.55,1.74a3.58,3.58,0,0,1-.94,1.53c-.21.18-.45.32-.65.52a3.58,3.58,0,0,0-.71,2.47C170.83,242.82,170.73,248,170.84,248Z"/><path class="cls-11" d="M178.33,234.26a1.78,1.78,0,0,0-.92,1.27,6.28,6.28,0,0,1-.48,1.56c-.63,1.1-2.24,1.43-2.69,2.62a4.33,4.33,0,0,0-.18,1.24c-.08.85-.37,1.68-.45,2.53a11,11,0,0,0,0,2l.56,6.74a8.74,8.74,0,0,1-.17,3,2.92,2.92,0,0,0,1.7-.28c.53-.25,1-.58,1.53-.86a15.16,15.16,0,0,0,2.61-1.48,1.67,1.67,0,0,0,.36-.39,3.35,3.35,0,0,0,.24-.89,5.83,5.83,0,0,1,.25-.7,19,19,0,0,0,.74-2.08,9.78,9.78,0,0,0,.34-1.42c.07-.39.1-.78.13-1.16a6.7,6.7,0,0,1,.36-1.78,14.12,14.12,0,0,0,.82-4.27,1.91,1.91,0,0,0,0-.63,3.09,3.09,0,0,0-.34-.71c-.24-.44-.38-.93-.6-1.38a6.71,6.71,0,0,0-2.31-2.43C179.37,234.41,178.84,234.07,178.33,234.26Z"/><path class="cls-12" d="M166.52,245.25a4.08,4.08,0,0,1-1.08-.81c-.14-.17-.25-.35-.4-.52a2.7,2.7,0,0,0-1.35-.77,6.91,6.91,0,0,0-1.57-.15,2.81,2.81,0,0,0-1,.13,1,1,0,0,0-.44.28,1.06,1.06,0,0,0-.26.46,1.22,1.22,0,0,0,.53,1.09,2.66,2.66,0,0,0,1.05.52c.32.05.63.09.95.11a13.71,13.71,0,0,1,5.18,2.14q2.16,1.22,4.41,2.28a10.18,10.18,0,0,0,.07-1.35c0-.34,0-.85-.34-1a7.53,7.53,0,0,0-1.4-.42,23.08,23.08,0,0,1-2.82-1.14C167.49,245.8,167,245.54,166.52,245.25Z"/><path class="cls-12" d="M174.69,234.69a3.36,3.36,0,1,0-3.33-3.36A3.35,3.35,0,0,0,174.69,234.69Z"/><path class="cls-11" d="M179.28,238.06a5.39,5.39,0,0,0-.64,1.21,24.85,24.85,0,0,0-1.39,2.47c-.34.93-.32,2-1,2.78a.92.92,0,0,0-.28.42c0,.1,0,.2,0,.3-.09.27-.53.28-.61.56,0,.07,0,.16,0,.24s-.3.2-.46.31c-.32.22-.24.73-.49,1.05a.9.9,0,0,1-.38.25.77.77,0,0,1-.45,0,3.39,3.39,0,0,1-.87-.33.8.8,0,0,0-.31-.09.6.6,0,0,0-.36.12,2.21,2.21,0,0,0-.89,1.9,6,6,0,0,0,.51,2.12.76.76,0,0,0,.17.32.75.75,0,0,0,.83.06,3.7,3.7,0,0,1,.81-.36c.51-.1,1,.26,1.54.23a2.23,2.23,0,0,0,1-.46,6,6,0,0,0,1.41-1.2c.22-.3.39-.64.59-1a11.68,11.68,0,0,1,.84-1.12l1.93-2.36a5.11,5.11,0,0,0,.51-.71,5,5,0,0,0,.41-1.08,8.31,8.31,0,0,0,.39-1.91,7.11,7.11,0,0,0-.14-1.6,5.42,5.42,0,0,0-.41-1.53C181.08,237.86,180.07,237.15,179.28,238.06Z"/><path class="cls-14" d="M186,233.69a3.78,3.78,0,0,0-1.55-3.05,4.44,4.44,0,0,0-3.79-4.34,4.33,4.33,0,0,0-7.12-2.38,4.29,4.29,0,0,0-1.4,2.61c-1.39-.31-2.66.1-2.89.95s.75,1.94,2.21,2.33a4,4,0,0,0,1.41.14,4.32,4.32,0,0,0,3,1.86A4.32,4.32,0,0,0,177,234a4.43,4.43,0,0,0,2.1,1.22,3.75,3.75,0,0,0,1,1.39c0,.1,0,.21,0,.32a2.62,2.62,0,0,0,.18,1.11,2.83,2.83,0,0,0,.6,1,2.86,2.86,0,0,0,.93.64,2.79,2.79,0,0,0,2.22,0,3,3,0,0,0,1.44-4A3.81,3.81,0,0,0,186,233.69Z"/><path class="cls-5" d="M170.17,227.65c.23-.85,1.49-1.26,2.89-1a4.42,4.42,0,0,1,1.46-2.64,4.51,4.51,0,0,1,2.82-1.07h.29a4.33,4.33,0,0,0-1.24-.18,4.38,4.38,0,0,0-4.28,3.71c-1.39-.31-2.66.09-2.89.95s.75,1.93,2.21,2.33a3.89,3.89,0,0,0,.83.14C170.87,229.54,169.94,228.52,170.17,227.65Z"/><path class="cls-5" d="M181,237.05a1.67,1.67,0,0,1,0-.32,3.75,3.75,0,0,1-1-1.39,4.43,4.43,0,0,1-2.1-1.22,4.32,4.32,0,0,1-1.15-2.14,4.25,4.25,0,0,1-1.69-.61,4.55,4.55,0,0,1-1.3-1.25,3.31,3.31,0,0,1-.83,0,4.39,4.39,0,0,0,2.88,1.71A4.32,4.32,0,0,0,177,234a4.43,4.43,0,0,0,2.1,1.22,3.75,3.75,0,0,0,1,1.39c0,.1,0,.21,0,.32a2.89,2.89,0,0,0,2.8,2.92,3,3,0,0,1-1.36-1.09A2.89,2.89,0,0,1,181,237.05Z"/><path class="cls-12" d="M176.22,232.56a.62.62,0,0,0,0-.85.61.61,0,0,0-.82-.24.71.71,0,0,0,.83,1.09Z"/><path class="cls-9" d="M96.56,249.24l3.29-1.93a7.77,7.77,0,0,0-1.68-2L92,247.22l4.87-2.86a7.83,7.83,0,0,0-3.94-1,7.93,7.93,0,0,0-7.78,7.92c0,4.37,3.55,4.52,7.92,4.52s7.92-.15,7.92-4.52a7.92,7.92,0,0,0-.68-3.22Z"/><path class="cls-5" d="M97.4,253.49a6.35,6.35,0,0,0-1.17-.91,5.37,5.37,0,0,0-1.92-.94,14.86,14.86,0,0,0-1.89-.06,4.33,4.33,0,0,1-2.89-1.32,8.9,8.9,0,0,0-1.35-1.39,3,3,0,0,0-2-.37,5.31,5.31,0,0,0-.6.12,7.93,7.93,0,0,0-.47,2.69c0,4.37,3.55,4.52,7.92,4.52a16.8,16.8,0,0,0,5.47-.57l-.25-.45A6.55,6.55,0,0,0,97.4,253.49Z"/></svg>