<?xml version="1.0" encoding="utf-8"?>
<!-- Generator: Adobe Illustrator 24.2.3, SVG Export Plug-In . SVG Version: 6.00 Build 0)  -->
<svg version="1.1" id="Layer_1" xmlns="http://www.w3.org/2000/svg" xmlns:xlink="http://www.w3.org/1999/xlink" x="0px" y="0px"
	 viewBox="0 0 169 193" style="enable-background:new 0 0 169 193;" xml:space="preserve">
<style type="text/css">
	.st0{fill:#7CBF9A;}
	.st1{fill-rule:evenodd;clip-rule:evenodd;}
	.st2{fill-rule:evenodd;clip-rule:evenodd;fill:#FFD98E;}
	.st3{fill:none;stroke:#FF8364;stroke-width:0.7456;stroke-linecap:round;stroke-linejoin:round;}
	.st4{fill-rule:evenodd;clip-rule:evenodd;fill:#D18C65;}
	.st5{fill-rule:evenodd;clip-rule:evenodd;fill:#FF8364;}
	.st6{fill:none;stroke:#FFD98E;stroke-width:0.3682;stroke-linecap:round;stroke-linejoin:round;}
	.st7{fill-rule:evenodd;clip-rule:evenodd;fill:#6BD5E1;}
	.st8{fill-rule:evenodd;clip-rule:evenodd;fill:#DFDFDF;}
	.st9{fill:none;stroke:#6BD5E1;stroke-width:0.4047;stroke-linecap:round;stroke-linejoin:round;}
	.st10{fill:none;stroke:#FF8364;stroke-width:0.4047;stroke-linecap:round;stroke-linejoin:round;}
	.st11{fill-rule:evenodd;clip-rule:evenodd;fill:#1B3C87;}
	.st12{fill:none;stroke:#FFD98E;stroke-width:0.5504;stroke-linecap:round;stroke-linejoin:round;}
	.st13{fill-rule:evenodd;clip-rule:evenodd;fill:#E49D75;}
</style>
<path class="st0" d="M66.9,137.8c11.7-2.5,22-10.1,31.7-18.1c9.7-8,19.2-16.7,30.2-21.9c7.1-3.3,15.5-5,22.4,0.1
	c6.7,4.9,10.1,14.6,12.6,23.7c1.9,6.9,3.5,14.2,2.5,21c-0.7,4.8-2.6,9-3.7,13.6c-3.7,16.1,3.6,34.1,12.5,47.9
	c4.2,6.5,8.8,12.5,12.4,19.5c3.6,7,6,15.3,5.1,23.2c-0.9,7.8-4.9,14.2-9.7,19c-9.6,9.7-22,14.1-34.3,17.3
	c-27.2,7.3-55.1,10.4-83,13.6c-10.3,1.2-20.7,2.3-31.2,1.5c-5.8-0.5-11.9-1.7-16.8-6.1c-6.2-5.7-9.2-16.5-7.1-25.2
	c3.6-14.6,19.1-20.6,20.8-35.9c0.9-8.4-2.8-17.1-7.2-24.1c-9.5-15-23.4-27.3-27-45.6c-2.4-12.6,1.2-26.1,8.9-33.5
	c8.1-7.7,20.8-8.9,29.2,0.4C43.8,137.8,56.6,140,66.9,137.8z"/>
<path class="st1" d="M88.1,120.6c7.1,0,11,4.7,11.7,9.5c0.7,4.9-0.1,8.9,0.1,14.9c0.1,4,1.9,6.6,3.1,10.2c1.1,3.5-29.2,4.4-29.1,1.1
	c0.2-3.3,2.4-6.7,2.4-10.9c0.1-4.2-0.5-6.7-0.4-13.6C75.9,126.3,81,120.6,88.1,120.6z"/>
<path class="st2" d="M58.8,179.9c-0.3-3.3,1.2-15.2,5.9-24.1c17.4-9.5,39.2-5,47.8,0c2.9,2.9,5,22.4,4.4,23.8"/>
<path class="st3" d="M68.8,179.6c0.3-2.2,0.7-5.6,1.4-8.9"/>
<path class="st3" d="M107.4,179.6c-0.3-2.2-0.7-5.6-1.4-8.9"/>
<path class="st4" d="M77.1,136c0-0.4,0.1-0.7,0.3-1.1c0.2-0.3,0.5-0.6,0.9-0.7c0.4-0.1,0.7-0.2,1.1-0.1c0.4,0.1,0.7,0.3,1,0.5
	c0.3,0.3,0.5,0.6,0.5,1c0.1,0.4,0,0.8-0.1,1.1s-0.4,0.6-0.7,0.9c-0.3,0.2-0.7,0.3-1.1,0.3c-0.3,0-0.5,0-0.7-0.1
	c-0.2-0.1-0.4-0.2-0.6-0.4s-0.3-0.4-0.4-0.6C77.1,136.5,77.1,136.2,77.1,136z"/>
<path class="st4" d="M94.8,136c0-0.4,0.1-0.7,0.3-1.1c0.2-0.3,0.5-0.6,0.9-0.7c0.4-0.1,0.7-0.2,1.1-0.1c0.4,0.1,0.7,0.3,1,0.5
	s0.5,0.6,0.5,1c0.1,0.4,0,0.8-0.1,1.1s-0.4,0.6-0.7,0.9c-0.3,0.2-0.7,0.3-1.1,0.3c-0.5,0-1-0.2-1.4-0.6C95,137,94.8,136.5,94.8,136z
	"/>
<path class="st5" d="M95.8,103.1c-2-1.5-2.4,0.2-2.7,1.2c-0.3,1-0.3,2.8,1.2,2.7c1.3,1.2,2.6-0.3,3-1.1
	C97.7,105.1,98.6,103.4,95.8,103.1z"/>
<path class="st6" d="M97.1,102.1c-0.7,0.2-1.1,0.6-1.3,1.1"/>
<path class="st7" d="M83.1,112c0-0.4,0.1-0.9,0.4-1.2c0.2-0.4,0.6-0.7,1-0.8c0.4-0.2,0.9-0.2,1.3-0.1c0.4,0.1,0.8,0.3,1.2,0.6
	s0.5,0.7,0.6,1.1c0.1,0.4,0,0.9-0.1,1.3c-0.2,0.4-0.5,0.8-0.8,1c-0.4,0.2-0.8,0.4-1.3,0.4c-0.3,0-0.6-0.1-0.9-0.2
	c-0.3-0.1-0.5-0.3-0.7-0.5c-0.2-0.2-0.4-0.5-0.5-0.7C83.1,112.6,83.1,112.3,83.1,112z"/>
<path class="st8" d="M67.4,113l6.3-1.6l2.5,9.9l-6.3,1.6L67.4,113z"/>
<path class="st5" d="M68.7,114.1L73,113l0.3,1.3l-4.3,1.1L68.7,114.1z"/>
<path class="st9" d="M69.4,116.8l4.3-1.1"/>
<path class="st9" d="M69.8,118.2l4.3-1.1"/>
<path class="st9" d="M70.1,119.7l4.3-1.1"/>
<path class="st9" d="M70.5,121.1l1.7-0.4"/>
<path class="st9" d="M74.2,120.2l0.7-0.2"/>
<path class="st8" d="M63.2,90.6l16.2-7.6l5.1,10.5l-16.2,7.6L63.2,90.6z"/>
<path class="st10" d="M68.8,98.8l1.6-4.7l3,0.6l1.2-5.8l2.9,0.5l0.8-4.1"/>
<path class="st2" d="M69.9,94.4c-0.1-0.1-0.1-0.3-0.1-0.5s0.1-0.3,0.2-0.4c0.1-0.1,0.3-0.2,0.4-0.2c0.2,0,0.3,0,0.5,0
	c0.2,0.1,0.3,0.2,0.4,0.3c0.1,0.1,0.2,0.3,0.2,0.5c0,0.2,0,0.3-0.1,0.5c-0.1,0.1-0.2,0.3-0.4,0.3c-0.1,0-0.2,0.1-0.3,0.1
	c-0.1,0-0.2,0-0.3,0c-0.1,0-0.2-0.1-0.3-0.2C70,94.6,69.9,94.5,69.9,94.4z"/>
<path class="st2" d="M73.9,89.4c-0.1-0.1-0.1-0.3-0.1-0.5c0-0.2,0.1-0.3,0.2-0.4c0.1-0.1,0.3-0.2,0.4-0.2c0.2,0,0.3,0,0.5,0
	c0.2,0.1,0.3,0.2,0.4,0.3c0.1,0.1,0.2,0.3,0.2,0.5c0,0.2,0,0.3-0.1,0.5c-0.1,0.1-0.2,0.3-0.4,0.3c-0.1,0-0.2,0.1-0.3,0.1
	c-0.1,0-0.2,0-0.3,0c-0.1,0-0.2-0.1-0.3-0.2C74,89.6,74,89.5,73.9,89.4z"/>
<path class="st2" d="M104.7,98.3c0-0.6,0.2-1.1,0.5-1.6c0.3-0.5,0.8-0.8,1.3-1c0.5-0.2,1.1-0.3,1.7-0.2c0.6,0.1,1.1,0.4,1.5,0.8
	c0.4,0.4,0.7,0.9,0.8,1.5s0.1,1.1-0.2,1.6c-0.2,0.5-0.6,1-1.1,1.3c-0.5,0.3-1,0.5-1.6,0.5c-0.8,0-1.5-0.3-2-0.8
	C105,99.7,104.7,99,104.7,98.3z"/>
<path class="st10" d="M112.4,97.8c0.1,0.5,0.2,1,0.1,1.5c-0.1,0.5-0.3,1-0.6,1.4s-0.7,0.7-1.2,1c-0.5,0.2-1,0.3-1.5,0.3
	c-0.2,0-0.4,0-0.6-0.1"/>
<path class="st2" d="M105.8,100.4l-1.1,1.9l4.5,0.7l-0.5-2.3"/>
<path class="st11" d="M106.9,98.3c0-0.1,0-0.3,0.1-0.4c0.1-0.1,0.2-0.2,0.3-0.2c0.1-0.1,0.3-0.1,0.4,0c0.1,0,0.3,0.1,0.3,0.2
	c0.1,0.1,0.2,0.2,0.2,0.3c0,0.1,0,0.3,0,0.4c-0.1,0.1-0.1,0.2-0.2,0.3c-0.1,0.1-0.2,0.1-0.4,0.1c-0.2,0-0.4-0.1-0.5-0.2
	C107,98.6,106.9,98.4,106.9,98.3z"/>
<path class="st2" d="M111.5,97.6c0-0.1,0-0.3,0.1-0.4c0.1-0.1,0.2-0.2,0.3-0.2c0.1-0.1,0.3-0.1,0.4,0c0.1,0,0.3,0.1,0.3,0.2
	c0.1,0.1,0.2,0.2,0.2,0.3c0,0.1,0,0.3,0,0.4c-0.1,0.1-0.1,0.2-0.2,0.3c-0.1,0.1-0.2,0.1-0.4,0.1c-0.2,0-0.4-0.1-0.5-0.2
	S111.5,97.8,111.5,97.6z"/>
<path class="st5" d="M57.2,77l4.2,1.1l-4.2,15.3L53,92.3L57.2,77z"/>
<path class="st12" d="M54.4,87.3l2.3,0.6"/>
<path class="st12" d="M53.6,90l2.3,0.6"/>
<path class="st12" d="M55.1,84.6l2.3,0.6"/>
<path class="st12" d="M55.8,81.9l2.3,0.6"/>
<path class="st12" d="M56.6,79.2l2.3,0.6"/>
<path class="st8" d="M100.9,73.8l16,3.8l-2.6,10.8l-16-3.8L100.9,73.8z"/>
<path class="st5" d="M110.4,85.5c0.1-0.3,0.3-0.6,0.5-0.9c0.3-0.2,0.6-0.4,0.9-0.4c0.3-0.1,0.7,0,1,0.1c0.3,0.1,0.6,0.4,0.7,0.7
	c0.2,0.3,0.3,0.6,0.3,1c0,0.3-0.1,0.7-0.3,0.9c-0.2,0.3-0.5,0.5-0.8,0.6c-0.3,0.1-0.7,0.1-1,0.1c-0.4-0.1-0.8-0.4-1.1-0.8
	C110.4,86.4,110.3,85.9,110.4,85.5z"/>
<path class="st5" d="M111,86.9l-1.2,3l1.6-0.4l1,0.9l0.2-3.2"/>
<path class="st9" d="M101.8,76.6l12.6,3"/>
<path class="st9" d="M101.1,79.6l7.6,1.8"/>
<path class="st7" d="M75.5,75.3l-1.7-1.8l2.5-0.6l2.5-0.6l-0.8,2.4l-0.8,2.4L75.5,75.3z"/>
<path class="st2" d="M109.6,113.8l-2.4,0.9l0.4-2.5l0.4-2.5l2,1.5l2,1.5L109.6,113.8z"/>
<path class="st10" d="M90.3,84c0-0.2,0.1-0.5,0.2-0.7c0.1-0.2,0.3-0.4,0.6-0.4c0.2-0.1,0.5-0.1,0.7-0.1c0.2,0,0.5,0.2,0.6,0.3
	s0.3,0.4,0.3,0.6c0,0.2,0,0.5-0.1,0.7c-0.1,0.2-0.3,0.4-0.5,0.5c-0.2,0.1-0.4,0.2-0.7,0.2c-0.3,0-0.6-0.1-0.9-0.4
	C90.4,84.6,90.3,84.3,90.3,84z"/>
<path class="st2" d="M55.9,104.3c0-0.2,0.1-0.5,0.2-0.7c0.1-0.2,0.3-0.4,0.6-0.4c0.2-0.1,0.5-0.1,0.7-0.1c0.2,0,0.5,0.2,0.6,0.3
	c0.2,0.2,0.3,0.4,0.3,0.6c0,0.2,0,0.5-0.1,0.7c-0.1,0.2-0.3,0.4-0.5,0.5c-0.2,0.1-0.4,0.2-0.7,0.2c-0.3,0-0.6-0.1-0.9-0.4
	C56.1,104.9,55.9,104.6,55.9,104.3z"/>
<path class="st4" d="M83.7,143.2H92c0,0,0,8.4,0,11.7c0,1.4-8.2,1.2-8.2,0L83.7,143.2z"/>
<path class="st13" d="M79.5,135.2c0-6.2,3.8-11.3,8.6-11.3c4.7,0,8.6,5,8.6,11.3c0,6.2-3.8,11.3-8.6,11.3
	C83.4,146.4,79.5,141.4,79.5,135.2z"/>
<path class="st1" d="M92.7,123.1c-2.2,5-11.2,9.9-15,11C77.1,131.1,81,118.4,92.7,123.1z"/>
<path class="st1" d="M87.9,122.9c-1.6,0.6,3.7,9.1,10.1,11.2C100.7,130.4,94.6,122.7,87.9,122.9z"/>
<path class="st2" d="M100.2,66.2c0-0.4,0.1-0.9,0.4-1.2c0.2-0.4,0.6-0.7,1-0.8c0.4-0.2,0.9-0.2,1.3-0.1c0.4,0.1,0.8,0.3,1.2,0.6
	c0.3,0.3,0.5,0.7,0.6,1.1c0.1,0.4,0,0.9-0.1,1.3c-0.2,0.4-0.5,0.8-0.8,1c-0.4,0.2-0.8,0.4-1.3,0.4c-0.6,0-1.2-0.2-1.6-0.7
	C100.4,67.4,100.2,66.8,100.2,66.2z"/>
<path class="st9" d="M61.1,125c0-0.4,0.1-0.8,0.4-1.2c0.2-0.3,0.6-0.6,0.9-0.8c0.4-0.2,0.8-0.2,1.2-0.1c0.4,0.1,0.8,0.3,1.1,0.6
	c0.3,0.3,0.5,0.7,0.6,1.1c0.1,0.4,0,0.8-0.1,1.2c-0.2,0.4-0.4,0.7-0.8,0.9c-0.3,0.2-0.8,0.4-1.2,0.4c-0.6,0-1.1-0.2-1.5-0.6
	C61.3,126.1,61.1,125.6,61.1,125z"/>
<path class="st10" d="M108,124.1c0-0.2,0.1-0.5,0.2-0.7c0.1-0.2,0.3-0.4,0.6-0.4c0.2-0.1,0.5-0.1,0.7-0.1c0.2,0,0.5,0.2,0.6,0.3
	c0.2,0.2,0.3,0.4,0.3,0.6c0,0.2,0,0.5-0.1,0.7c-0.1,0.2-0.2,0.4-0.5,0.5c-0.2,0.1-0.4,0.2-0.7,0.2c-0.2,0-0.3,0-0.5-0.1
	c-0.1-0.1-0.3-0.2-0.4-0.3c-0.1-0.1-0.2-0.2-0.3-0.4C108,124.4,108,124.3,108,124.1L108,124.1z"/>
<path class="st1" d="M88.1,120.7c7.1,0,11,4.7,11.7,9.5c0.7,4.9-0.1,8.9,0.1,14.8c0.1,4,1.9,6.6,3.1,10.2c1.1,3.6-29.2,4.4-29.1,1.1
	s2.4-6.7,2.4-10.9c0.1-4.2-0.5-6.7-0.4-13.6C75.9,126.4,81,120.7,88.1,120.7z"/>
<path class="st2" d="M58.8,180c-0.3-3.3,1.2-15.2,5.9-24.1c17.4-9.5,39.2-5,47.8,0c2.9,2.9,5,22.4,4.4,23.8"/>
<path class="st3" d="M68.8,179.7c0.3-2.2,0.7-5.6,1.4-8.9"/>
<path class="st3" d="M107.4,179.7c-0.3-2.2-0.7-5.6-1.4-8.9"/>
<path class="st4" d="M77.1,136.1c0-0.4,0.1-0.7,0.3-1.1c0.2-0.3,0.5-0.6,0.9-0.7c0.4-0.1,0.7-0.2,1.1-0.1s0.7,0.3,1,0.5
	c0.3,0.3,0.5,0.6,0.5,1c0.1,0.4,0,0.8-0.1,1.1s-0.4,0.6-0.7,0.9c-0.3,0.2-0.7,0.3-1.1,0.3c-0.3,0-0.5,0-0.7-0.1
	c-0.2-0.1-0.4-0.2-0.6-0.4c-0.2-0.2-0.3-0.4-0.4-0.6C77.1,136.6,77.1,136.3,77.1,136.1z"/>
<path class="st4" d="M94.8,136.1c0-0.4,0.1-0.7,0.3-1.1c0.2-0.3,0.5-0.6,0.9-0.7c0.4-0.1,0.7-0.2,1.1-0.1c0.4,0.1,0.7,0.3,1,0.5
	c0.3,0.3,0.5,0.6,0.5,1c0.1,0.4,0,0.8-0.1,1.1s-0.4,0.6-0.7,0.9c-0.3,0.2-0.7,0.3-1.1,0.3c-0.5,0-1-0.2-1.4-0.6
	S94.8,136.6,94.8,136.1z"/>
<path class="st5" d="M95.8,103.2c-2-1.5-2.4,0.2-2.7,1.2c-0.3,1-0.3,2.8,1.2,2.7c1.3,1.2,2.6-0.3,3-1.1
	C97.7,105.2,98.6,103.5,95.8,103.2z"/>
<path class="st6" d="M97.1,102.2c-0.7,0.2-1.1,0.6-1.3,1.1"/>
<path class="st7" d="M83.1,112.1c0-0.4,0.1-0.9,0.4-1.2c0.2-0.4,0.6-0.7,1-0.8c0.4-0.2,0.9-0.2,1.3-0.1c0.4,0.1,0.8,0.3,1.2,0.6
	c0.3,0.3,0.5,0.7,0.6,1.1c0.1,0.4,0,0.9-0.1,1.3c-0.2,0.4-0.5,0.8-0.8,1c-0.4,0.2-0.8,0.4-1.3,0.4c-0.3,0-0.6-0.1-0.9-0.2
	c-0.3-0.1-0.5-0.3-0.7-0.5c-0.2-0.2-0.4-0.5-0.5-0.7C83.1,112.7,83.1,112.4,83.1,112.1z"/>
<path class="st8" d="M67.4,113.1l6.3-1.6l2.5,9.9l-6.3,1.6L67.4,113.1z"/>
<path class="st5" d="M68.7,114.2l4.3-1.1l0.3,1.3l-4.3,1.1L68.7,114.2z"/>
<path class="st9" d="M69.4,116.9l4.3-1.1"/>
<path class="st9" d="M69.8,118.3l4.3-1.1"/>
<path class="st9" d="M70.1,119.8l4.3-1.1"/>
<path class="st9" d="M70.5,121.2l1.7-0.4"/>
<path class="st9" d="M74.2,120.3l0.7-0.2"/>
<path class="st8" d="M63.2,90.7L79.5,83l5.1,10.5l-16.2,7.6L63.2,90.7z"/>
<path class="st10" d="M68.8,98.9l1.6-4.7l3,0.6l1.2-5.8l2.9,0.5l0.8-4.1"/>
<path class="st2" d="M69.9,94.5c-0.1-0.1-0.1-0.3-0.1-0.5c0-0.2,0.1-0.3,0.2-0.4c0.1-0.1,0.3-0.2,0.4-0.2c0.2,0,0.3,0,0.5,0
	c0.2,0.1,0.3,0.2,0.4,0.3c0.1,0.1,0.2,0.3,0.2,0.5c0,0.2,0,0.3-0.1,0.5c-0.1,0.1-0.2,0.3-0.4,0.3c-0.2,0.1-0.4,0.1-0.6,0
	C70.2,94.9,70,94.7,69.9,94.5z"/>
<path class="st2" d="M73.9,89.5c-0.1-0.1-0.1-0.3-0.1-0.5c0-0.2,0.1-0.3,0.2-0.4c0.1-0.1,0.3-0.2,0.4-0.2c0.2,0,0.3,0,0.5,0
	c0.2,0.1,0.3,0.2,0.4,0.3c0.1,0.1,0.2,0.3,0.2,0.5c0,0.2,0,0.3-0.1,0.5c-0.1,0.1-0.2,0.3-0.4,0.3c-0.1,0-0.2,0.1-0.3,0.1
	c-0.1,0-0.2,0-0.3,0c-0.1,0-0.2-0.1-0.3-0.2C74,89.7,74,89.6,73.9,89.5z"/>
<path class="st2" d="M104.7,98.4c0-0.6,0.2-1.1,0.5-1.6c0.3-0.5,0.8-0.8,1.3-1c0.5-0.2,1.1-0.3,1.7-0.2c0.6,0.1,1.1,0.4,1.5,0.8
	c0.4,0.4,0.7,0.9,0.8,1.5c0.1,0.5,0.1,1.1-0.2,1.6s-0.6,1-1.1,1.3c-0.5,0.3-1,0.5-1.6,0.5c-0.8,0-1.5-0.3-2-0.8
	C105,99.8,104.7,99.1,104.7,98.4z"/>
<path class="st10" d="M112.4,97.9c0.1,0.3,0.1,0.6,0.1,0.9c0,0.5-0.1,1-0.3,1.4c-0.2,0.4-0.5,0.8-0.9,1.1s-0.8,0.5-1.3,0.6
	c-0.5,0.1-1,0.1-1.4,0"/>
<path class="st2" d="M105.8,100.5l-1.1,1.9l4.5,0.7l-0.5-2.3"/>
<path class="st11" d="M106.9,98.4c0-0.1,0-0.3,0.1-0.4c0.1-0.1,0.2-0.2,0.3-0.2c0.1-0.1,0.3-0.1,0.4,0c0.1,0,0.3,0.1,0.3,0.2
	c0.1,0.1,0.2,0.2,0.2,0.3c0,0.1,0,0.3,0,0.4c-0.1,0.1-0.1,0.2-0.2,0.3s-0.2,0.1-0.4,0.1c-0.2,0-0.4-0.1-0.5-0.2
	S106.9,98.5,106.9,98.4z"/>
<path class="st2" d="M111.5,97.7c0-0.1,0-0.3,0.1-0.4c0.1-0.1,0.2-0.2,0.3-0.2c0.1-0.1,0.3-0.1,0.4,0c0.1,0,0.3,0.1,0.3,0.2
	c0.1,0.1,0.2,0.2,0.2,0.3c0,0.1,0,0.3,0,0.4c-0.1,0.1-0.1,0.2-0.2,0.3c-0.1,0.1-0.2,0.1-0.4,0.1c-0.2,0-0.4-0.1-0.5-0.2
	S111.5,97.9,111.5,97.7z"/>
<path class="st5" d="M57.2,77.1l4.2,1.1l-4.2,15.3L53,92.3L57.2,77.1z"/>
<path class="st12" d="M54.4,87.4l2.3,0.6"/>
<path class="st12" d="M53.6,90.1l2.3,0.6"/>
<path class="st12" d="M55.1,84.7l2.3,0.6"/>
<path class="st12" d="M55.8,82l2.3,0.6"/>
<path class="st12" d="M56.6,79.3l2.3,0.6"/>
<path class="st8" d="M100.9,73.9l16,3.8l-2.6,10.8l-16-3.8L100.9,73.9z"/>
<path class="st5" d="M110.4,85.6c0.1-0.3,0.3-0.6,0.5-0.9s0.6-0.4,0.9-0.4c0.3-0.1,0.7,0,1,0.1c0.3,0.1,0.6,0.4,0.7,0.7
	c0.2,0.3,0.3,0.6,0.3,1s-0.1,0.7-0.3,0.9c-0.2,0.3-0.5,0.5-0.8,0.6c-0.3,0.1-0.7,0.1-1,0.1c-0.4-0.1-0.8-0.4-1.1-0.8
	C110.4,86.5,110.3,86,110.4,85.6z"/>
<path class="st5" d="M111,87l-1.2,3l1.6-0.4l1,0.9l0.2-3.2"/>
<path class="st9" d="M101.8,76.7l12.6,3"/>
<path class="st9" d="M101.1,79.7l7.6,1.8"/>
<path class="st7" d="M75.5,75.4l-1.7-1.8l2.5-0.6l2.5-0.6l-0.8,2.4l-0.8,2.4L75.5,75.4z"/>
<path class="st2" d="M109.6,113.9l-2.4,0.9l0.4-2.5l0.4-2.5l2,1.5l2,1.5L109.6,113.9z"/>
<path class="st10" d="M90.3,84.1c0-0.2,0.1-0.5,0.2-0.7c0.1-0.2,0.3-0.4,0.6-0.4c0.2-0.1,0.5-0.1,0.7-0.1c0.2,0,0.5,0.2,0.6,0.3
	s0.3,0.4,0.3,0.6c0,0.2,0,0.5-0.1,0.7c-0.1,0.2-0.3,0.4-0.5,0.5c-0.2,0.1-0.4,0.2-0.7,0.2c-0.3,0-0.6-0.1-0.9-0.4
	C90.4,84.7,90.3,84.4,90.3,84.1z"/>
<path class="st2" d="M55.9,104.4c0-0.2,0.1-0.5,0.2-0.7c0.1-0.2,0.3-0.4,0.6-0.4c0.2-0.1,0.5-0.1,0.7-0.1c0.2,0,0.5,0.2,0.6,0.3
	c0.2,0.2,0.3,0.4,0.3,0.6c0,0.2,0,0.5-0.1,0.7c-0.1,0.2-0.3,0.4-0.5,0.5c-0.2,0.1-0.4,0.2-0.7,0.2c-0.3,0-0.6-0.1-0.9-0.4
	C56.1,105,55.9,104.7,55.9,104.4z"/>
<path class="st4" d="M83.7,143.3H92c0,0,0,8.4,0,11.7c0,1.4-8.2,1.2-8.2,0L83.7,143.3z"/>
<path class="st13" d="M79.5,135.3c0-6.2,3.8-11.3,8.6-11.3c4.7,0,8.6,5,8.6,11.3s-3.8,11.3-8.6,11.3
	C83.4,146.5,79.5,141.5,79.5,135.3z"/>
<path class="st1" d="M92.7,123.2c-2.2,5-11.2,9.9-15,11C77.1,131.2,81,118.5,92.7,123.2z"/>
<path class="st1" d="M87.9,123c-1.6,0.6,3.7,9.1,10.1,11.2C100.7,130.5,94.6,122.8,87.9,123z"/>
<path class="st2" d="M100.2,66.3c0-0.4,0.1-0.9,0.4-1.2c0.2-0.4,0.6-0.7,1-0.8c0.4-0.2,0.9-0.2,1.3-0.1c0.4,0.1,0.8,0.3,1.2,0.6
	c0.3,0.3,0.5,0.7,0.6,1.1c0.1,0.4,0,0.9-0.1,1.3c-0.2,0.4-0.5,0.8-0.8,1c-0.4,0.2-0.8,0.4-1.3,0.4c-0.6,0-1.2-0.2-1.6-0.7
	C100.4,67.5,100.2,66.9,100.2,66.3z"/>
<path class="st9" d="M61.1,125.1c0-0.4,0.1-0.8,0.4-1.2c0.2-0.3,0.6-0.6,0.9-0.8c0.4-0.2,0.8-0.2,1.2-0.1c0.4,0.1,0.8,0.3,1.1,0.6
	c0.3,0.3,0.5,0.7,0.6,1.1c0.1,0.4,0,0.8-0.1,1.2c-0.2,0.4-0.4,0.7-0.8,0.9c-0.3,0.2-0.8,0.4-1.2,0.4c-0.6,0-1.1-0.2-1.5-0.6
	C61.3,126.2,61.1,125.7,61.1,125.1z"/>
<path class="st10" d="M108,124.2c0-0.2,0.1-0.5,0.2-0.7c0.1-0.2,0.3-0.4,0.6-0.4c0.2-0.1,0.5-0.1,0.7-0.1c0.2,0,0.5,0.2,0.6,0.3
	c0.2,0.2,0.3,0.4,0.3,0.6c0,0.2,0,0.5-0.1,0.7c-0.1,0.2-0.2,0.4-0.5,0.5c-0.2,0.1-0.4,0.2-0.7,0.2c-0.2,0-0.3,0-0.5-0.1
	c-0.1-0.1-0.3-0.2-0.4-0.3c-0.1-0.1-0.2-0.2-0.3-0.4C108,124.5,108,124.4,108,124.2L108,124.2z"/>
</svg>
