<svg width="400" height="298" viewBox="0 0 400 298" fill="none" xmlns="http://www.w3.org/2000/svg">
<path opacity="0.1" d="M26.912 116.538H61.5433V164.205H29.4441C29.3622 164.698 29.2803 165.187 29.1882 165.68H61.5433V204.115C61.4887 204.115 61.4341 204.074 61.3829 204.053C60.4729 203.688 59.5629 203.301 58.6528 202.892C58.4583 202.803 58.2672 202.71 58.0693 202.623C57.1592 202.189 56.2492 201.73 55.3392 201.245C55.0218 201.076 54.7044 200.9 54.3939 200.721C49.3417 197.875 44.7499 194.265 40.7775 190.018C40.658 189.905 40.5488 189.781 40.4362 189.674C39.8834 189.067 39.3408 188.454 38.8152 187.827C38.6173 187.596 38.4262 187.362 38.2317 187.138C37.6106 186.373 37.0099 185.58 36.4298 184.784C36.3411 184.663 36.2592 184.546 36.1738 184.439C33.7973 181.119 31.8264 177.521 30.3041 173.723C30.2563 173.609 30.212 173.485 30.1676 173.378C29.6967 172.172 29.2701 170.949 28.9015 169.701C28.7445 169.181 28.591 168.668 28.4613 168.127C28.4135 167.972 28.376 167.813 28.335 167.658C26.4171 160.025 26.1953 152.093 26.1953 144.199C26.1953 143.28 26.1953 142.361 26.1953 141.442C26.2226 138.219 26.2602 134.999 26.3079 131.783C26.3261 130.956 26.3432 130.126 26.3591 129.292C26.4069 127.18 26.4751 125.065 26.5639 122.944C26.5844 122.359 26.6117 121.769 26.6424 121.187C26.656 120.849 26.6731 120.512 26.6936 120.174C26.755 118.954 26.8278 117.742 26.912 116.538Z" fill="#3D666C"/>
<path opacity="0.1" d="M61.5437 63.4651H42.5457C45.6353 58.5874 49.0095 53.8996 52.6504 49.4265C55.4761 45.9255 58.4519 42.5141 61.5437 39.2267V63.4651Z" fill="#67A3A3"/>
<path opacity="0.1" d="M61.5439 64.933V115.064H27.0217C27.0217 114.919 27.0422 114.771 27.0559 114.626C27.0866 114.23 27.1173 113.837 27.1514 113.441C27.1855 112.979 27.2299 112.517 27.2743 112.062C27.3186 111.607 27.363 111.056 27.4176 110.556C27.4722 110.057 27.5166 109.55 27.5712 109.051C27.6258 108.551 27.6804 108.051 27.7418 107.555C27.8032 107.059 27.8578 106.556 27.9261 106.06C27.9773 105.65 28.0285 105.236 28.0865 104.823C28.165 104.24 28.2469 103.658 28.3322 103.079C28.3322 102.989 28.3595 102.903 28.3731 102.817C28.9968 98.5796 29.8444 94.3788 30.9121 90.2327C32.0334 85.884 33.4648 81.623 35.195 77.4829C37.0335 73.1451 39.187 68.9503 41.638 64.933H61.5439Z" fill="#67A3A3"/>
<path opacity="0.1" d="M69.8162 116.538V164.205H143.788V116.538H69.8162ZM69.8162 165.68V206.617C70.2393 206.703 70.6557 206.789 71.0754 206.862C71.6385 206.972 72.205 207.072 72.7817 207.158L73.123 207.206C73.3482 207.244 73.5769 207.275 73.8055 207.303C74.3754 207.386 74.9453 207.448 75.5118 207.503C75.778 207.53 76.0544 207.551 76.324 207.575L76.9827 207.623C77.341 207.651 77.6959 207.672 78.0508 207.685C78.2692 207.685 78.4876 207.703 78.7095 207.71C78.9313 207.716 79.0507 207.71 79.2282 207.71H79.8732C80.1667 207.71 80.4602 207.71 80.7502 207.71H81.1256C81.4191 207.71 81.7126 207.71 82.0027 207.682H82.0197C82.2245 207.682 82.4258 207.682 82.6306 207.658C82.6885 207.661 82.7467 207.661 82.8046 207.658C82.9753 207.658 83.1459 207.658 83.3097 207.637C83.3483 207.634 83.3871 207.634 83.4257 207.637C83.8045 207.613 84.1867 207.582 84.5724 207.548C84.958 207.513 85.3231 207.472 85.7088 207.43L86.4834 207.334C89.649 206.886 92.7793 206.214 95.8511 205.322C102.755 203.378 109.502 200.659 116.402 198.671C125.316 196.104 135.171 194.839 143.785 197.965V165.68H69.8162ZM143.788 63.4651V0.00580859C135.69 -0.0841535 127.614 0.871201 119.757 2.84866C101.025 7.60052 84.2038 17.9071 69.8162 31.0704V63.4616H73.5393V64.933H69.8162V115.064H143.788V64.933H88.7699V63.4582L143.788 63.4651ZM238.823 42.0283C234.189 41.8629 229.582 40.3846 225.412 38.0931C217.446 33.7203 211.078 26.9595 203.967 21.26C189.19 9.38204 170.864 2.21117 152.064 0.433097V63.4651H257.654L257.917 63.186L238.823 42.0283ZM248.443 40.3053L258.644 51.6113V37.3316C255.211 37.7692 252.221 38.7857 248.443 40.2916V40.3053ZM258.644 216.783V165.68H236.892C236.837 165.463 236.776 165.243 236.707 165.022C236.772 165.243 236.83 165.463 236.888 165.68H152.064V202.634C152.869 203.237 153.664 203.874 154.453 204.515C155.304 205.218 156.149 205.929 156.988 206.648L157.835 207.355C158.241 207.699 158.654 208.044 159.063 208.371C159.885 209.04 160.712 209.701 161.544 210.356C161.961 210.687 162.379 211.012 162.8 211.331C169.466 216.475 176.496 221.118 183.835 225.221C185.48 226.148 187.142 227.041 188.814 227.913C189.927 228.492 191.048 229.059 192.176 229.615C193.869 230.449 195.575 231.253 197.295 232.027C213.152 239.214 229.92 244.145 247.119 246.679C250.937 247.246 254.771 247.694 258.623 248.023V216.776H258.964L258.644 216.783ZM152.064 64.933V115.064H258.644V64.933H152.064ZM152.064 116.532V164.205H258.644V116.538L152.064 116.532ZM266.916 37.2626V53.217L279.932 38.7892C275.618 38.0701 271.28 37.5613 266.916 37.2626ZM266.916 116.538V164.205H370.574V116.538H266.916ZM370.209 220.563L370.574 165.68H266.916V248.578C273.593 248.858 280.28 248.776 286.948 248.333H287.064C290.249 248.126 293.419 247.832 296.575 247.451H296.647C313.486 245.472 329.952 241.03 345.526 234.267L370.209 220.563ZM390.572 124.368C390.179 123.449 389.775 122.53 389.361 121.611C388.59 119.888 387.778 118.213 386.938 116.542H378.85V164.205H399.295C399.278 150.704 395.893 136.921 390.572 124.368ZM378.85 165.68V212.889C384.607 207.317 389.477 200.938 392.978 193.647C397.193 184.863 399.121 175.36 399.282 165.677L378.85 165.68ZM378.85 102.648V115.053H386.18C383.958 110.789 381.511 106.648 378.85 102.648ZM308.55 46.6182C308.011 46.408 307.468 46.1978 306.926 45.9979C301.204 43.8629 295.358 42.0883 289.419 40.6844L269.496 62.7587L269.107 63.1825L269.363 63.4616H340.27C330.394 56.5996 319.746 50.9455 308.55 46.6182ZM342.352 64.933H268.37L266.916 66.2735V115.064H279.662H370.574V91.4249C362.354 81.3869 352.866 72.4804 342.352 64.933Z" fill="#67A3A3"/>
<path opacity="0.1" d="M61.5439 90.2222V115.064H27.0217C27.0217 114.919 27.0422 114.771 27.0559 114.626C27.0866 114.23 27.1173 113.837 27.1514 113.441C27.1855 112.979 27.2299 112.517 27.2743 112.062C27.3186 111.607 27.363 111.056 27.4176 110.556C27.4722 110.057 27.5166 109.55 27.5712 109.051C27.6258 108.551 27.6804 108.051 27.7418 107.555C27.8032 107.059 27.8578 106.556 27.9261 106.059C27.9773 105.649 28.0285 105.236 28.0865 104.822C28.165 104.24 28.2469 103.658 28.3322 103.079C28.3322 102.989 28.3595 102.903 28.3731 102.817C28.9968 98.5795 29.8444 94.3787 30.9121 90.2326L61.5439 90.2222Z" fill="#3D666C"/>
<path opacity="0.1" d="M26.912 116.538H61.5433V164.205H29.4441C29.3622 164.698 29.2803 165.187 29.1882 165.68H61.5433V204.115C61.4887 204.115 61.4341 204.074 61.3829 204.053C60.4729 203.688 59.5629 203.301 58.6528 202.892C58.4583 202.803 58.2672 202.71 58.0693 202.623C57.1592 202.189 56.2492 201.73 55.3392 201.245C55.0218 201.076 54.7044 200.9 54.3939 200.721C49.3417 197.875 44.7499 194.265 40.7775 190.018C40.658 189.905 40.5488 189.781 40.4362 189.674C39.8834 189.067 39.3408 188.454 38.8152 187.827C38.6173 187.596 38.4262 187.362 38.2317 187.138C37.6106 186.373 37.0099 185.58 36.4298 184.784C36.3411 184.663 36.2592 184.546 36.1738 184.439C33.7973 181.119 31.8264 177.521 30.3041 173.723C30.2563 173.609 30.212 173.485 30.1676 173.378C29.6967 172.172 29.2701 170.949 28.9015 169.701C28.7445 169.181 28.591 168.668 28.4613 168.127C28.4135 167.972 28.376 167.813 28.335 167.658C26.4171 160.025 26.1953 152.093 26.1953 144.199C26.1953 143.28 26.1953 142.361 26.1953 141.442C26.2226 138.219 26.2602 134.999 26.3079 131.783C26.3261 130.956 26.3432 130.126 26.3591 129.292C26.4069 127.18 26.4751 125.065 26.5639 122.944C26.5844 122.359 26.6117 121.769 26.6424 121.187C26.656 120.849 26.6731 120.512 26.6936 120.174C26.755 118.954 26.8278 117.742 26.912 116.538Z" fill="#3D666C"/>
<path opacity="0.1" d="M95.8528 72.1142V115.064H69.811V72.1142H73.524V57.5726H88.7648V72.1142H95.8528Z" fill="#3D666C"/>
<path opacity="0.1" d="M95.8494 116.535H69.811V164.202H95.8494V116.535Z" fill="#3D666C"/>
<path opacity="0.1" d="M69.8162 165.68H95.8545V205.308C92.7831 206.201 89.6526 206.872 86.4869 207.317C86.2275 207.355 85.9716 207.386 85.7122 207.413C85.33 207.458 84.9512 207.499 84.5724 207.534L83.4291 207.627H83.3131L82.808 207.654H82.634C82.4292 207.654 82.2279 207.679 82.0231 207.682H82.0061C81.7126 207.682 81.4225 207.703 81.129 207.71H80.7536C80.4636 207.71 80.1735 207.71 79.8766 207.71H79.235H78.7129C78.4911 207.71 78.2727 207.71 78.0508 207.682C77.7005 207.668 77.3456 207.648 76.9861 207.62L76.3275 207.572C76.0544 207.551 75.7814 207.523 75.5118 207.496C74.9385 207.445 74.3697 207.38 73.8055 207.299L73.123 207.203L72.7817 207.155C72.2118 207.069 71.6453 206.972 71.0754 206.862C70.6523 206.786 70.2359 206.7 69.8162 206.61V165.68Z" fill="#3D666C"/>
<path opacity="0.1" d="M258.64 67.0418H237.168V115.06H258.64V67.0418Z" fill="#3D666C"/>
<path opacity="0.1" d="M258.644 116.535V164.205H152.064V143.644H208.833V155.773H237.168V116.535H258.644Z" fill="#3D666C"/>
<path opacity="0.1" d="M258.982 216.793C258.869 216.793 258.757 216.793 258.641 216.772V248.043C254.793 247.724 250.96 247.277 247.14 246.703C229.935 244.17 213.16 239.242 197.295 232.058C192.715 229.972 188.229 227.699 183.836 225.239C176.499 221.133 169.47 216.49 162.804 211.348C161.125 210.053 159.471 208.728 157.842 207.375C156.712 206.431 155.593 205.466 154.453 204.532C153.668 203.888 152.873 203.251 152.064 202.644V165.68H236.888C236.827 165.46 236.772 165.243 236.711 165.022C236.776 165.243 236.837 165.46 236.892 165.68H258.644V216.769C258.757 216.772 258.869 216.782 258.982 216.793Z" fill="#3D666C"/>
<path opacity="0.1" d="M314.644 63.465H300.652V59.075H306.921V45.9979C307.465 46.2 308.007 46.4068 308.546 46.6181V59.075H314.641L314.644 63.465Z" fill="#3D666C"/>
<path opacity="0.1" d="M348.356 115.064H279.66C279.667 115.065 279.674 115.065 279.681 115.064H279.65H266.914V67.0454H270.525V102.538H287.021V81.5181H300.655V64.933H314.646V81.5284H328.273V102.548H348.36L348.356 115.064Z" fill="#3D666C"/>
<path opacity="0.1" d="M266.914 116.538V164.205H348.36V116.538H266.914ZM370.457 220.311L370.573 182.579H348.36V165.694H266.914V248.578C273.591 248.858 280.278 248.776 286.946 248.333H287.062C290.247 248.126 293.418 247.832 296.573 247.451H296.645C313.485 245.471 329.95 241.03 345.524 234.267" fill="#3D666C"/>
<path opacity="0.1" d="M258.643 80.3912H247.139V95.4462H258.643V80.3912Z" fill="#3D666C"/>
<path opacity="0.1" d="M258.643 111.597H247.139V115.064H258.643V111.597Z" fill="#3D666C"/>
<path opacity="0.1" d="M258.643 116.535H247.139V126.649H258.643V116.535Z" fill="#3D666C"/>
<path opacity="0.1" d="M258.643 142.803H247.139V157.858H258.643V142.803Z" fill="#3D666C"/>
<path opacity="0.1" d="M258.643 174.009H247.139V189.064H258.643V174.009Z" fill="#3D666C"/>
<path opacity="0.1" d="M258.643 216.769C258.756 216.769 258.868 216.769 258.984 216.793C258.872 216.793 258.759 216.793 258.643 216.772V220.27H247.139V205.215H258.643V216.769Z" fill="#3D666C"/>
<path opacity="0.1" d="M258.643 236.417V248.043C254.794 247.724 250.959 247.277 247.139 246.703V236.417H258.643Z" fill="#3D666C"/>
<path opacity="0.1" d="M201.366 163.099H152.064V164.205H201.366V163.099Z" fill="#3D666C"/>
<path opacity="0.1" d="M201.366 165.677H152.064V169.915H201.366V165.677Z" fill="#3D666C"/>
<path opacity="0.1" d="M201.366 183.809H152.064V190.625H201.366V183.809Z" fill="#3D666C"/>
<path opacity="0.1" d="M201.367 204.519V211.335H162.804C161.125 210.044 159.471 208.718 157.842 207.358C156.709 206.417 155.59 205.452 154.453 204.519H201.367Z" fill="#3D666C"/>
<path opacity="0.1" d="M201.366 225.225V232.058H197.294C192.715 229.972 188.228 227.699 183.835 225.239L201.366 225.225Z" fill="#3D666C"/>
<path opacity="0.1" d="M296.654 121.156H286.948V130.956H296.654V121.156Z" fill="#3D666C"/>
<path opacity="0.1" d="M86.5095 75.4947H76.804V85.2948H86.5095V75.4947Z" fill="#3D666C"/>
<path opacity="0.1" d="M86.5095 98.2581H76.804V108.058H86.5095V98.2581Z" fill="#3D666C"/>
<path opacity="0.1" d="M86.5095 121.022H76.804V130.822H86.5095V121.022Z" fill="#3D666C"/>
<path opacity="0.1" d="M86.5095 143.782H76.804V153.582H86.5095V143.782Z" fill="#3D666C"/>
<path opacity="0.1" d="M86.5095 166.545H76.804V176.345H86.5095V166.545Z" fill="#3D666C"/>
<path opacity="0.1" d="M86.5095 189.309H76.804V199.109H86.5095V189.309Z" fill="#3D666C"/>
<path opacity="0.1" d="M333.703 121.156H323.998V130.956H333.703V121.156Z" fill="#3D666C"/>
<path opacity="0.1" d="M296.654 145.329H286.948V155.129H296.654V145.329Z" fill="#3D666C"/>
<path opacity="0.1" d="M333.703 145.329H323.998V155.129H333.703V145.329Z" fill="#3D666C"/>
<path opacity="0.1" d="M296.654 169.498H286.948V179.298H296.654V169.498Z" fill="#3D666C"/>
<path opacity="0.1" d="M333.703 169.498H323.998V179.298H333.703V169.498Z" fill="#3D666C"/>
<path opacity="0.1" d="M296.654 193.671H286.948V203.471H296.654V193.671Z" fill="#3D666C"/>
<path opacity="0.1" d="M333.703 193.671H323.998V203.471H333.703V193.671Z" fill="#3D666C"/>
<path opacity="0.1" d="M296.654 217.844H286.948V227.644H296.654V217.844Z" fill="#3D666C"/>
<path opacity="0.1" d="M333.703 217.844H323.998V227.644H333.703V217.844Z" fill="#3D666C"/>
<path opacity="0.1" d="M286.948 248.333V242.013H296.65V247.434L286.948 248.333Z" fill="#3D666C"/>
<path opacity="0.1" d="M28.3328 102.807V108.413H61.5445V102.807H28.3328ZM31.6396 108.062H28.9095V103.162H31.6396V108.062ZM34.9464 108.062H32.2163V103.162H34.9464V108.062ZM38.2464 108.062H35.5163V103.162H38.2464V108.062ZM41.5533 108.062H38.8232V103.162H41.5533V108.062ZM44.8567 108.062H42.1266V103.162H44.8567V108.062ZM48.1635 108.062H45.4334V103.162H48.1635V108.062ZM51.4704 108.062H48.7403V103.162H51.4704V108.062ZM54.7738 108.062H52.0437V103.162H54.7738V108.062ZM58.0772 108.062H55.3471V103.162H58.0772V108.062ZM61.3841 108.062H58.654V103.162H61.3841V108.062Z" fill="#3D666C"/>
<path opacity="0.1" d="M28.3328 119.126V124.733H61.5445V119.126H28.3328ZM31.6396 124.381H28.9095V119.481H31.6396V124.381ZM34.9464 124.381H32.2163V119.481H34.9464V124.381ZM38.2464 124.381H35.5163V119.481H38.2464V124.381ZM41.5533 124.381H38.8232V119.481H41.5533V124.381ZM44.8567 124.381H42.1266V119.481H44.8567V124.381ZM48.1635 124.381H45.4334V119.481H48.1635V124.381ZM51.4704 124.381H48.7403V119.481H51.4704V124.381ZM54.7738 124.381H52.0437V119.481H54.7738V124.381ZM58.0772 124.381H55.3471V119.481H58.0772V124.381ZM61.3841 124.381H58.654V119.481H61.3841V124.381Z" fill="#3D666C"/>
<path opacity="0.1" d="M28.3328 135.449V141.052H61.5445V135.449H28.3328ZM31.6396 140.698H28.9095V135.797H31.6396V140.698ZM34.9464 140.698H32.2163V135.797H34.9464V140.698ZM38.2464 140.698H35.5163V135.797H38.2464V140.698ZM41.5533 140.698H38.8232V135.797H41.5533V140.698ZM44.8567 140.698H42.1266V135.797H44.8567V140.698ZM48.1635 140.698H45.4334V135.797H48.1635V140.698ZM51.4704 140.698H48.7403V135.797H51.4704V140.698ZM54.7738 140.698H52.0437V135.797H54.7738V140.698ZM58.0772 140.698H55.3471V135.797H58.0772V140.698ZM61.3841 140.698H58.654V135.797H61.3841V140.698Z" fill="#3D666C"/>
<path opacity="0.1" d="M28.3328 151.769V157.372H61.5445V151.769H28.3328ZM31.6396 157.021H28.9095V152.114H31.6396V157.021ZM34.9464 157.021H32.2163V152.114H34.9464V157.021ZM38.2464 157.021H35.5163V152.114H38.2464V157.021ZM41.5533 157.021H38.8232V152.114H41.5533V157.021ZM44.8567 157.021H42.1266V152.114H44.8567V157.021ZM48.1635 157.021H45.4334V152.114H48.1635V157.021ZM51.4704 157.021H48.7403V152.114H51.4704V157.021ZM54.7738 157.021H52.0437V152.114H54.7738V157.021ZM58.0772 157.021H55.3471V152.114H58.0772V157.021ZM61.3841 157.021H58.654V152.114H61.3841V157.021Z" fill="#3D666C"/>
<path opacity="0.1" d="M28.4932 168.082C28.6228 168.613 28.7764 169.136 28.9334 169.657V168.437H31.6635V173.333H30.1995C30.2404 173.451 30.2848 173.571 30.3326 173.678H61.5581V168.082H28.4932ZM34.9772 173.333H32.2471V168.437H34.9772V173.333ZM38.2772 173.333H35.5471V168.437H38.2772V173.333ZM41.584 173.333H38.8539V168.437H41.584V173.333ZM44.8874 173.333H42.1573V168.437H44.8874V173.333ZM48.1943 173.333H45.4642V168.437H48.1943V173.333ZM51.5011 173.333H48.771V168.437H51.5011V173.333ZM54.8045 173.333H52.0744V168.437H54.8045V173.333ZM58.108 173.333H55.3779V168.437H58.108V173.333ZM61.4148 173.333H58.6847V168.437H61.4148V173.333Z" fill="#3D666C"/>
<path opacity="0.1" d="M36.1833 184.402C36.2721 184.512 36.354 184.636 36.4393 184.746H38.2446V187.1L38.8281 187.789V184.732H41.5582V189.674H40.4355C40.5447 189.788 40.6505 189.908 40.7767 190.018H61.5358V184.402H36.1833ZM44.8719 189.674H42.1418V184.753H44.8719V189.674ZM48.1787 189.674H45.4486V184.753H48.1787V189.674ZM51.4856 189.674H48.7555V184.753H51.4856V189.674ZM54.789 189.674H52.0589V184.753H54.789V189.674ZM58.0924 189.674H55.3623V184.753H58.0924V189.674ZM61.3992 189.674H58.6691V184.753H61.3992V189.674Z" fill="#3D666C"/>
<path opacity="0.1" d="M54.4053 200.721C54.7192 200.9 55.0366 201.066 55.354 201.242V201.069H58.0841V202.623C58.282 202.709 58.4697 202.802 58.6642 202.892V201.069H61.3943V204.053C61.4462 204.077 61.4998 204.097 61.5547 204.112V200.721H54.4053Z" fill="#3D666C"/>
<path opacity="0.1" d="M258.641 216.769H258.982H258.641ZM236.708 165.022C236.773 165.242 236.831 165.463 236.889 165.68C236.838 165.463 236.776 165.242 236.708 165.022ZM73.54 63.465V64.933H88.7843V63.4581L73.54 63.465ZM258.644 216.769H258.986H258.644ZM236.708 165.022C236.773 165.242 236.831 165.463 236.889 165.68C236.838 165.463 236.776 165.242 236.708 165.022ZM258.641 216.769H258.982H258.641ZM236.708 165.022C236.773 165.242 236.831 165.463 236.889 165.68C236.838 165.463 236.776 165.242 236.708 165.022Z" fill="#3D666C"/>
<path opacity="0.1" d="M300.95 297.333C319.315 297.333 334.203 294.919 334.203 291.94C334.203 288.962 319.315 286.548 300.95 286.548C282.585 286.548 267.698 288.962 267.698 291.94C267.698 294.919 282.585 297.333 300.95 297.333Z" fill="#3D666C"/>
<path opacity="0.1" d="M150.977 291.941C169.342 291.941 184.23 289.526 184.23 286.548C184.23 283.569 169.342 281.155 150.977 281.155C132.612 281.155 117.724 283.569 117.724 286.548C117.724 289.526 132.612 291.941 150.977 291.941Z" fill="#3D666C"/>
<path d="M189.262 143.95C189.254 143.916 189.236 143.885 189.211 143.861C188.702 143.354 182.218 134.095 182.218 134.095C182.218 134.095 181.877 133.061 181.324 131.718C181.501 131.486 181.634 131.223 181.716 130.942C181.746 130.823 181.768 130.702 181.781 130.58C181.781 130.543 181.809 130.512 181.819 130.474C181.937 130.006 181.925 129.515 181.785 129.054C181.747 129.172 181.7 129.287 181.645 129.398C181.516 128.997 181.345 128.611 181.133 128.248C180.273 126.752 179.044 125.491 178.14 124.033C176.771 121.769 176.226 119.092 176.601 116.466C176.601 116.6 176.601 116.738 176.601 116.873C176.635 116.352 176.703 115.834 176.806 115.322C176.948 114.74 177.139 114.17 177.376 113.62C178.188 111.742 179.502 110.105 180.3 108.22C180.568 107.584 180.772 106.923 180.908 106.246C181.189 105.115 181.291 103.946 181.211 102.783C181.211 103.058 181.167 103.334 181.126 103.606C181.04 100.809 179.921 98.1458 177.99 96.1389C175.202 93.3098 171.199 92.2106 167.37 91.6317C165.761 91.4421 164.224 90.8499 162.899 89.9087C161.428 88.9473 159.527 88.7165 157.808 88.9267C155.831 89.1425 153.994 90.0595 152.624 91.5145C150.805 93.5338 150.016 96.3939 147.894 98.0961C146.607 99.1299 144.976 99.6123 143.478 100.315C141.98 101.018 140.563 102.038 140.082 103.548C140.082 103.548 140.082 103.527 140.082 103.516V103.603L140.062 103.658C139.564 105.443 140.526 107.259 141.028 109.04C141.55 110.884 141.584 112.831 141.611 114.736C141.649 117.066 141.683 119.399 141.645 121.731C141.628 122.648 141.598 123.575 141.529 124.488C140.722 124.735 139.937 125.053 139.185 125.439C138.42 125.942 135.561 129.061 135.561 129.061L129.967 150.639L130.042 150.725L129.967 151.018L130.251 150.952C131.042 151.814 133.407 154.267 135.96 155.797L136.199 160.029C136.199 160.029 136.485 164.274 140.352 166.028C140.441 167.5 140.717 173.475 139.437 175.842C138.551 177.571 138.134 179.507 138.229 181.452C138.229 181.452 138.676 185.042 138.168 186.931C137.871 188.193 137.849 189.505 138.103 190.776C138.103 190.776 138.103 191.193 138.103 191.91C138.103 195.732 138.147 207.978 138.103 209.364C138.038 211 138.103 235.208 138.103 235.208C138.103 235.208 137.786 247.306 136.769 250.583C135.752 253.86 136.008 264.711 136.008 264.711C136.008 264.711 135.369 277.637 137.625 280.187C137.625 280.3 137.605 280.417 137.601 280.531C137.601 280.583 137.601 280.641 137.601 280.693C137.574 281.675 137.762 282.719 138.598 283.04C140.304 283.701 142.56 285.686 142.986 286.255C143.413 286.823 145.894 288.24 149.129 287.861C151.156 287.631 153.195 287.536 155.234 287.578C155.234 287.578 156.511 287.344 156.098 285.741C155.832 284.742 154.835 283.205 154.125 282.196C154.255 282.23 154.381 282.258 154.501 282.282L154.624 282.306H154.719C154.771 282.309 154.824 282.309 154.876 282.306H154.944C155.008 282.311 155.072 282.311 155.135 282.306C155.992 282.223 159.186 283.726 159.756 284.718C160.326 285.71 162.336 286.465 163.851 286.655C164.752 286.765 167.025 286.579 168.933 286.331C169.893 286.23 170.845 286.055 171.779 285.807C172.229 285.635 172.325 285.083 172.195 284.463C172.042 283.675 171.625 282.965 171.014 282.451C170.462 282.054 169.731 281.01 169.192 280.156L169.049 279.925C170.001 279.008 171.721 276.01 172.243 275.39C172.878 274.635 171.219 247.037 171.219 247.037V233.202L173.762 220.108L175.54 213.178L177.065 202.716C177.065 202.716 179.734 190.497 178.911 189.298C178.911 189.274 178.229 176.693 177.512 173.671C177.201 172.324 177.28 169.291 177.464 166.342C177.657 166.149 177.791 165.904 177.852 165.637C177.912 165.37 177.896 165.091 177.806 164.832C177.755 164.656 177.688 164.484 177.608 164.319C177.608 164.267 177.608 164.212 177.608 164.16C179.082 163.476 180.622 162.947 182.204 162.582C184.747 162.079 184.112 160.756 184.112 160.756C184.112 160.756 184.685 159.622 185.064 158.93C185.443 158.237 185.129 152.124 185.064 151.621C185.04 151.418 184.883 150.294 184.702 149.019C185.518 148.434 186.579 147.706 187.736 147.017C189.937 145.701 189.443 144.312 189.262 143.95ZM156.091 231.314C156.091 231.314 154.183 236.228 154.948 237.485C155.712 238.743 154.821 243.412 154.821 243.412L154.183 250.342C154.183 250.342 152.405 263.195 153.04 266.217C153.538 268.588 153.723 275.669 153.781 278.622C153.737 278.639 153.695 278.66 153.654 278.684L153.569 278.729C153.863 277.568 153.74 275.218 152.282 270.49L152.16 250.962C152.16 250.962 151.934 228.405 153.699 225.883C155.463 223.361 156.088 219.077 156.088 219.077C156.088 219.077 155.705 225.256 155.456 226.893C155.207 228.529 156.091 231.314 156.091 231.314ZM152.538 279.852C152.521 279.894 152.501 279.935 152.487 279.973L152.392 279.849C152.44 279.854 152.489 279.855 152.538 279.852Z" fill="url(#paint0_linear)"/>
<path d="M171.992 287.592C171.006 287.974 165.658 288.626 164.163 288.443C162.669 288.26 160.689 287.495 160.126 286.496C159.563 285.497 156.406 283.987 155.56 284.084C155.213 284.094 154.867 284.045 154.536 283.939C153.952 283.761 153.382 283.54 152.83 283.278C152.753 282.843 152.766 282.397 152.867 281.968C152.887 281.882 152.912 281.796 152.943 281.713C153.142 281.148 153.554 280.685 154.089 280.424L154.212 280.366C154.449 280.263 154.696 280.186 154.949 280.138C157.632 279.618 168.699 280.662 168.699 280.662C168.699 280.662 169.009 281.224 169.436 281.92C169.968 282.781 170.692 283.832 171.238 284.229C171.843 284.751 172.253 285.465 172.401 286.255C172.531 286.865 172.435 287.423 171.992 287.592Z" fill="white"/>
<path opacity="0.1" d="M171.992 287.592C171.006 287.974 165.662 288.626 164.167 288.443C162.673 288.26 160.693 287.492 160.127 286.496C159.56 285.5 156.41 283.987 155.564 284.084C154.718 284.18 152.834 283.278 152.834 283.278C152.834 283.278 152.54 281.899 153.394 280.958L155.1 282.182C155.1 282.182 159.666 283.612 160.512 284.938C161.359 286.265 162.901 287.006 165.13 287.14C166.795 287.251 170.621 286.596 172.412 286.269C172.532 286.865 172.439 287.423 171.992 287.592Z" fill="black"/>
<path d="M155.656 289.349C153.643 289.31 151.629 289.405 149.629 289.635C146.424 290.014 143.978 288.602 143.551 288.019C143.124 287.437 140.916 285.469 139.22 284.78C138.391 284.456 138.197 283.402 138.234 282.416C138.234 282.365 138.234 282.306 138.234 282.254C138.266 281.63 138.357 281.01 138.507 280.404L151.786 280.118L152.936 281.693L153.113 281.934L153.813 282.895C153.813 282.895 154.13 283.316 154.546 283.929C155.249 284.963 156.232 286.489 156.495 287.499C156.915 289.115 155.656 289.349 155.656 289.349Z" fill="white"/>
<path opacity="0.1" d="M155.656 289.349C153.643 289.31 151.629 289.405 149.629 289.635C146.428 290.014 143.978 288.601 143.554 288.019C143.131 287.437 140.916 285.452 139.22 284.787C138.391 284.463 138.197 283.408 138.234 282.423C139.183 282.647 141.176 283.219 141.957 284.215C142.981 285.545 144.814 287.781 147.417 287.923C149.52 288.036 154.639 287.657 156.516 287.506C156.918 289.115 155.656 289.349 155.656 289.349Z" fill="black"/>
<path opacity="0.1" d="M154.077 280.411C153.923 281.562 153.449 281.872 153.107 281.941C153.024 281.957 152.938 281.957 152.855 281.941C152.81 281.937 152.765 281.93 152.722 281.92C152.722 281.92 140.798 284.58 138.389 282.427C138.327 282.371 138.27 282.311 138.218 282.247C138.249 281.623 138.341 281.003 138.491 280.397L151.77 280.111L152.92 281.686C153.119 281.12 153.531 280.657 154.066 280.397L154.077 280.411Z" fill="black"/>
<path opacity="0.1" d="M169.433 281.906C169.167 282.202 168.945 282.371 168.805 282.313C168.177 282.058 163.031 281.172 161.396 281.934C159.762 282.695 154.23 282.058 154.23 282.058C154.23 282.058 154.23 281.396 154.199 280.335C154.436 280.232 154.683 280.155 154.936 280.107C157.618 279.587 168.686 280.631 168.686 280.631C168.686 280.631 169.01 281.21 169.433 281.906Z" fill="black"/>
<path d="M177.221 203.96L175.713 214.484L173.959 221.459L171.447 234.642V248.598C171.447 248.598 173.079 276.365 172.451 277.123C171.823 277.881 169.437 282.199 168.809 281.947C168.181 281.696 163.035 280.807 161.401 281.565C159.766 282.323 154.234 281.692 154.234 281.692C154.234 281.692 154.108 270.917 153.48 267.874C152.852 264.832 154.609 251.899 154.609 251.899L155.237 244.928C155.237 244.928 156.118 240.235 155.364 238.967C154.609 237.699 156.493 232.764 156.493 232.764C156.493 232.764 155.616 229.97 155.869 228.323C156.121 226.676 156.493 220.463 156.493 220.463C156.493 220.463 155.869 224.777 154.125 227.31C152.381 229.842 152.603 252.54 152.603 252.54L152.726 272.182C155.869 282.581 152.726 281.565 152.726 281.565C152.726 281.565 140.802 284.229 138.393 282.072C135.983 279.914 136.673 266.338 136.673 266.338C136.673 266.338 136.423 255.435 137.427 252.141C138.43 248.846 138.747 236.672 138.747 236.672C138.747 236.672 138.683 212.327 138.747 210.683C138.795 209.305 138.747 196.965 138.747 193.109C138.747 192.393 138.747 191.969 138.747 191.969L140.188 188.357L157.251 186.2H165.414C165.414 186.2 177.699 189.116 178.969 190.373C178.996 190.394 179.019 190.42 179.037 190.449C179.859 191.665 177.221 203.96 177.221 203.96Z" fill="#3D666C"/>
<path opacity="0.1" d="M156.502 259.239C156.502 259.239 160.256 268.367 162.027 269.001C163.798 269.635 156.502 259.239 156.502 259.239Z" fill="black"/>
<path opacity="0.1" d="M157.892 272.678C157.892 272.678 170.566 273.312 170.44 274.708C170.314 276.103 157.892 272.678 157.892 272.678Z" fill="black"/>
<path opacity="0.1" d="M140.935 269.029C141.437 269.508 150.603 270.407 149.849 271.283C149.095 272.158 141.69 273.86 141.69 273.86L140.935 269.029Z" fill="black"/>
<path opacity="0.1" d="M139.43 253.281C139.43 253.66 141.314 265.452 141.819 265.959C142.324 266.465 146.464 266.972 146.464 266.972L139.43 253.281Z" fill="black"/>
<path d="M153.099 92.1037C151.3 94.1333 150.522 97.0106 148.427 98.7267C147.154 99.7604 145.543 100.253 144.062 100.956C142.581 101.659 141.113 102.731 140.673 104.323C140.182 106.115 141.13 107.944 141.629 109.736C142.144 111.59 142.175 113.527 142.205 115.467C142.24 117.813 142.277 120.16 142.236 122.507C142.175 126.163 141.874 129.988 139.953 133.086C146.891 135.315 154.269 135.618 161.545 135.904C162.943 136.005 164.348 135.969 165.739 135.797C166.945 135.555 168.137 135.25 169.312 134.884C171.635 134.264 174.028 133.954 176.431 133.964C177.478 133.964 178.547 134.03 179.557 133.754C180.567 133.478 181.539 132.772 181.812 131.752C182.055 130.835 181.7 129.86 181.236 129.037C180.389 127.534 179.188 126.28 178.28 124.798C177.354 123.233 176.804 121.47 176.675 119.651C176.547 117.832 176.843 116.008 177.54 114.326C178.345 112.434 179.642 110.787 180.434 108.892C181.245 106.857 181.46 104.63 181.055 102.475C180.65 100.32 179.641 98.328 178.147 96.735C175.393 93.8887 171.441 92.786 167.66 92.2002C166.068 92.0103 164.549 91.4177 163.244 90.4773C161.794 89.5124 159.914 89.2781 158.214 89.4917C156.254 89.7136 154.438 90.6408 153.099 92.1037Z" fill="#2F2E41"/>
<g opacity="0.1">
<path opacity="0.1" d="M177.644 112.338C176.948 113.998 176.65 115.801 176.774 117.6C176.85 116.314 177.145 115.05 177.644 113.864C178.446 111.973 179.743 110.325 180.535 108.43C181.182 106.848 181.454 105.134 181.33 103.427C181.259 104.624 180.991 105.8 180.535 106.907C179.743 108.802 178.446 110.446 177.644 112.338Z" fill="black"/>
<path opacity="0.1" d="M142.304 114.998C142.325 116.349 142.345 117.703 142.349 119.054C142.349 117.193 142.332 115.336 142.304 113.478C142.277 111.552 142.243 109.602 141.728 107.744C141.386 106.566 140.881 105.37 140.704 104.181C140.4 105.87 141.264 107.582 141.728 109.268C142.243 111.108 142.277 113.072 142.304 114.998Z" fill="black"/>
<path opacity="0.1" d="M179.67 131.783C178.646 132.062 177.595 132 176.548 131.993C174.147 131.978 171.755 132.281 169.432 132.896C168.257 133.26 167.065 133.564 165.859 133.806C164.467 133.98 163.061 134.017 161.662 133.916C154.632 133.637 147.503 133.337 140.77 131.307C140.57 131.758 140.342 132.195 140.087 132.617C147.025 134.843 154.403 135.149 161.675 135.435C163.075 135.537 164.481 135.5 165.873 135.325C167.074 135.086 168.262 134.783 169.432 134.419C171.75 133.802 174.137 133.495 176.534 133.506C177.582 133.506 178.646 133.571 179.657 133.292C180.667 133.013 181.639 132.314 181.912 131.294C182.027 130.821 182.016 130.326 181.878 129.86C181.574 130.825 180.636 131.497 179.67 131.783Z" fill="black"/>
</g>
<path d="M169.564 127.7C169.312 128.272 168.247 133.213 167.994 133.72C167.742 134.226 166.363 142.334 166.237 142.789C166.111 143.244 157.149 140.887 157.149 140.887L151.754 136.321L146.208 130.749C146.208 130.749 146.044 125.722 150.129 124.109C150.407 123.999 150.692 123.909 150.982 123.84C155.938 122.638 155.439 107.424 155.439 107.424L165.609 111.859C165.609 111.859 163.725 120.736 163.79 122.448C163.807 123.024 164.254 123.382 164.838 123.599C165.74 123.858 166.679 123.961 167.616 123.902C167.616 123.902 169.817 127.131 169.564 127.7Z" fill="#E2ACAC"/>
<path d="M187.769 144.371L189.212 144.753C189.212 144.753 190.28 146.393 187.769 147.92C186.174 148.898 184.643 149.979 183.186 151.156L175.763 153.437L174.333 148.906L181.24 143.613L187.769 144.371Z" fill="#3D666C"/>
<path opacity="0.1" d="M187.769 144.371L189.212 144.753C189.212 144.753 190.28 146.393 187.769 147.92C186.174 148.898 184.643 149.979 183.186 151.156L175.763 153.437L174.333 148.906L181.24 143.613L187.769 144.371Z" fill="black"/>
<path d="M133.602 148.747L130.715 151.6C130.715 151.6 135.923 157.686 139.929 158.065C143.935 158.444 146.519 153.437 146.519 153.437L143.051 147.923L133.602 148.747Z" fill="#3D666C"/>
<path opacity="0.1" d="M133.602 148.747L130.715 151.6C130.715 151.6 135.923 157.686 139.929 158.065C143.935 158.444 146.519 153.437 146.519 153.437L143.051 147.923L133.602 148.747Z" fill="black"/>
<path opacity="0.1" d="M161.024 117.365C166.571 117.365 171.068 112.825 171.068 107.224C171.068 101.623 166.571 97.0831 161.024 97.0831C155.478 97.0831 150.981 101.623 150.981 107.224C150.981 112.825 155.478 117.365 161.024 117.365Z" fill="black"/>
<path d="M161.024 116.604C166.571 116.604 171.068 112.063 171.068 106.463C171.068 100.862 166.571 96.3214 161.024 96.3214C155.478 96.3214 150.981 100.862 150.981 106.463C150.981 112.063 155.478 116.604 161.024 116.604Z" fill="#E2ACAC"/>
<path opacity="0.1" d="M179.042 191.6C176.755 191.864 174.503 192.374 172.323 193.12C168.569 194.381 139.152 193.14 138.742 193.12C138.742 192.403 138.742 191.979 138.742 191.979L140.183 188.368L157.246 186.211H165.409C165.409 186.211 177.694 189.126 178.964 190.384C179.015 191.142 179.042 191.6 179.042 191.6Z" fill="black"/>
<path opacity="0.1" d="M169.564 127.7C169.312 128.272 168.247 133.213 167.994 133.72C167.742 134.226 166.363 142.334 166.237 142.789C166.111 143.244 157.149 140.887 157.149 140.887L151.754 136.321L146.208 130.749C146.208 130.749 146.044 125.722 150.129 124.109L160.272 135.884L164.838 123.599C165.74 123.858 166.679 123.961 167.616 123.902C167.616 123.902 169.817 127.131 169.564 127.7Z" fill="black"/>
<path d="M160.272 136.263L149.89 124.202C149.283 123.81 148.588 123.577 147.869 123.524C147.15 123.47 146.429 123.598 145.771 123.895C143.447 124.912 140.56 125.735 139.806 126.242C139.052 126.749 136.226 129.884 136.226 129.884L144.642 152.114L140.936 166.755C140.936 166.755 141.502 174.236 140.059 176.962C139.18 178.705 138.768 180.649 138.864 182.603C138.864 182.603 139.305 186.217 138.803 188.116C138.51 189.386 138.488 190.704 138.738 191.982C138.738 191.982 168.561 193.251 172.325 191.982C174.505 191.234 176.757 190.725 179.045 190.463C179.045 190.463 178.362 177.782 177.68 174.739C176.997 171.697 178.246 160.098 178.246 160.098L177.43 147.672L182.324 134.922C182.324 134.922 179.673 126.749 176.908 125.925C176.908 125.925 171.888 124.719 170.82 124.15C169.752 123.582 166.612 123.072 166.612 123.072L164.964 123.63L160.272 136.263Z" fill="#3D666C"/>
<path opacity="0.1" d="M174.754 147.252L152.909 145.752C152.356 145.714 151.878 146.136 151.84 146.694L149.495 181.521C149.457 182.079 149.875 182.562 150.428 182.6L172.273 184.1C172.826 184.138 173.304 183.716 173.342 183.158L175.687 148.332C175.725 147.774 175.307 147.29 174.754 147.252Z" fill="black"/>
<path d="M175.507 146.496L153.662 144.996C153.109 144.958 152.63 145.38 152.593 145.938L150.247 180.764C150.21 181.323 150.627 181.806 151.18 181.844L173.025 183.344C173.578 183.382 174.057 182.96 174.094 182.402L176.44 147.575C176.477 147.017 176.059 146.534 175.507 146.496Z" fill="#2F2E41"/>
<path d="M174.786 149.226L154.01 147.8L151.875 179.504L172.651 180.931L174.786 149.226Z" fill="white"/>
<path opacity="0.1" d="M172.922 157.318L155.951 156.119L155.62 160.895L172.591 162.094L172.922 157.318Z" fill="black"/>
<path opacity="0.1" d="M172.308 176.298L169.615 176.113L169.447 178.602L172.14 178.787L172.308 176.298Z" fill="black"/>
<path opacity="0.1" d="M169.653 170.291L155.867 169.344L155.7 171.833L169.485 172.78L169.653 170.291Z" fill="black"/>
<path d="M172.215 148.041L157.861 147.055L157.603 150.881L171.958 151.867L172.215 148.041Z" fill="#2F2E41"/>
<path opacity="0.1" d="M172.215 148.041L157.861 147.055L157.603 150.881L171.958 151.867L172.215 148.041Z" fill="black"/>
<path opacity="0.1" d="M161.526 190.9C161.526 190.9 161.399 209.667 156.502 220.442C156.502 220.442 162.406 206.241 162.406 205.673C162.406 205.104 165.668 199.143 164.795 197.368C163.921 195.594 161.526 190.9 161.526 190.9Z" fill="black"/>
<path opacity="0.1" d="M161.793 103.927C161.606 102.266 162.009 100.591 162.93 99.2023C162.82 100.595 163.21 101.98 164.028 103.106C164.847 104.232 166.039 105.024 167.387 105.336C167.272 105.235 167.19 105.101 167.151 104.953C167.113 104.804 167.12 104.647 167.172 104.502C167.871 105.301 168.407 106.249 169.199 106.952C169.991 107.655 171.178 108.075 172.11 107.576C173.376 106.887 173.39 105.071 173.062 103.658C172.359 100.649 170.916 97.8676 168.868 95.5703C168.357 94.8759 167.693 94.3104 166.93 93.9182C166.166 93.5261 165.322 93.3178 164.466 93.3098C162.527 93.1582 160.514 93.3305 158.777 94.2092C157.799 94.7478 156.884 95.3938 156.047 96.1354L151.269 100.071C150.809 100.405 150.416 100.823 150.109 101.304C149.904 101.706 149.781 102.146 149.747 102.596C149.625 103.885 149.861 105.183 150.429 106.344C150.997 107.504 151.874 108.482 152.962 109.168C152.939 108.149 153.216 107.147 153.759 106.288C154.301 105.429 155.085 104.752 156.009 104.344C156.154 104.466 156.271 104.618 156.353 104.79C156.435 104.961 156.479 105.149 156.483 105.339L157.49 103.527C157.64 103.197 157.876 102.915 158.173 102.71C158.794 102.366 159.568 102.772 160.097 103.258C160.626 103.744 161.142 104.35 161.851 104.426L161.879 101.728" fill="black"/>
<path d="M161.791 103.547C161.603 101.885 162.006 100.21 162.928 98.8197C162.621 101.576 164.679 104.423 167.388 104.953C167.273 104.853 167.191 104.72 167.152 104.572C167.114 104.424 167.121 104.267 167.173 104.123C167.873 104.922 168.409 105.867 169.2 106.573C169.992 107.279 171.18 107.696 172.111 107.193C173.377 106.504 173.391 104.688 173.063 103.279C172.36 100.27 170.918 97.4885 168.869 95.1912C168.234 94.4088 167.432 93.7801 166.525 93.3511C165.868 93.1057 165.177 92.9639 164.477 92.9307C162.539 92.7791 160.525 92.948 158.788 93.8267C157.811 94.3677 156.896 95.0147 156.058 95.7564L151.281 99.6916C150.82 100.025 150.426 100.444 150.12 100.925C149.915 101.327 149.792 101.766 149.758 102.217C149.637 103.506 149.873 104.803 150.441 105.963C151.009 107.123 151.886 108.1 152.973 108.785C152.951 107.767 153.229 106.765 153.771 105.906C154.314 105.047 155.097 104.37 156.021 103.961C156.165 104.084 156.282 104.236 156.364 104.408C156.445 104.579 156.49 104.766 156.495 104.957L157.498 103.151C157.647 102.821 157.883 102.538 158.181 102.335C158.802 101.99 159.577 102.397 160.106 102.882C160.635 103.368 161.15 103.971 161.86 104.051L161.887 101.349" fill="#2F2E41"/>
<path d="M166.549 167.513C165.672 167.065 151.168 169.35 151.168 169.35C151.168 169.35 148.779 168.661 143.005 167.703C137.231 166.745 136.863 161.045 136.863 161.045L136.231 149.636L138.18 147.913L146.527 153.427C146.527 153.427 146.657 156.214 146.527 156.717C146.445 157.062 146.227 157.472 146.247 157.751C146.254 157.827 146.284 157.898 146.335 157.954C146.386 158.01 146.453 158.048 146.527 158.061C147.094 158.206 154.813 159.467 154.813 159.467C154.813 159.467 172.705 158.23 177.166 164.316C177.519 164.762 177.786 165.272 177.954 165.818C179.06 169.977 167.344 167.91 166.549 167.513Z" fill="#E2ACAC"/>
<path opacity="0.1" d="M177.964 165.842C177.282 166.149 176.859 166.369 176.859 166.369C176.859 166.369 170.457 166.18 166.86 164.863C163.263 163.547 158.891 163.781 158.891 163.781C158.891 163.781 143.903 161.176 146.227 157.775C146.233 157.851 146.264 157.922 146.315 157.978C146.365 158.034 146.433 158.072 146.507 158.085C147.073 158.23 154.793 159.491 154.793 159.491C154.793 159.491 172.685 158.254 177.145 164.34C177.51 164.784 177.788 165.294 177.964 165.842Z" fill="black"/>
<path d="M184.189 145.766C184.189 145.766 185.07 152.041 185.131 152.551C185.193 153.061 185.51 159.205 185.131 159.905C184.752 160.604 184.189 161.741 184.189 161.741C184.189 161.741 184.817 163.072 182.306 163.582C179.794 164.092 176.845 165.608 176.845 165.608C176.845 165.608 170.44 165.418 166.863 164.088C163.287 162.758 158.892 163.01 158.892 163.01C158.892 163.01 139.866 159.712 148.029 155.687C156.192 151.662 161.966 157.114 161.966 157.114L171.068 156.545C171.068 156.545 174.46 154.45 175.402 154.643C176.067 154.728 176.742 154.618 177.347 154.326L177.412 147.668L184.189 145.766Z" fill="#E2ACAC"/>
<path opacity="0.1" d="M138.037 130.363L136.215 130.267L130.693 151.976C130.693 151.976 136.655 150.453 139.225 151.976C141.795 153.499 146.507 153.813 146.507 153.813L144.75 136.507L138.037 130.363Z" fill="black"/>
<path d="M138.037 129.981L136.215 129.884L130.693 151.593C130.693 151.593 136.655 150.07 139.225 151.593C141.795 153.116 146.507 153.43 146.507 153.43L144.75 136.125L138.037 129.981Z" fill="#3D666C"/>
<path opacity="0.1" d="M179.797 134.736L182.305 135.308C182.305 135.308 188.711 144.612 189.212 145.132C189.714 145.653 186.824 147.544 185.633 147.544C184.442 147.544 178.603 148.234 176.907 149.826C175.21 151.418 175.917 143.406 175.917 143.223C175.917 143.041 178.022 137.986 178.022 137.986L179.797 134.736Z" fill="black"/>
<path d="M179.797 134.357L182.305 134.926C182.305 134.926 188.711 144.247 189.212 144.753C189.714 145.26 186.824 147.166 185.633 147.166C184.442 147.166 178.603 147.855 176.907 149.447C175.21 151.039 175.917 143.027 175.917 142.844C175.917 142.662 178.036 137.589 178.036 137.589L179.797 134.357Z" fill="#3D666C"/>
<g opacity="0.1">
<path opacity="0.1" d="M162.912 98.8507C162.897 98.5865 162.902 98.3215 162.929 98.0582C162.409 98.8454 162.052 99.7302 161.877 100.66V101.459C161.877 101.459 161.877 101.442 161.877 101.432V101.621C161.877 102.179 161.878 102.741 161.86 103.299H161.813V103.558C161.813 103.468 161.813 103.382 161.796 103.292C161.113 103.182 160.625 102.603 160.117 102.142C159.608 101.68 158.813 101.239 158.192 101.594C157.894 101.797 157.658 102.08 157.509 102.41L156.496 104.216C156.491 104.026 156.447 103.839 156.365 103.668C156.283 103.497 156.166 103.345 156.021 103.224C155.097 103.632 154.314 104.309 153.771 105.168C153.228 106.027 152.951 107.029 152.974 108.048C152.042 107.458 151.262 106.652 150.698 105.698C150.135 104.743 149.805 103.667 149.735 102.558C149.676 103.797 149.945 105.028 150.514 106.126C151.083 107.225 151.933 108.15 152.974 108.806C152.952 107.787 153.23 106.785 153.772 105.926C154.315 105.068 155.098 104.391 156.021 103.982C156.166 104.104 156.283 104.257 156.364 104.428C156.446 104.6 156.491 104.787 156.496 104.977L157.499 103.172C157.648 102.841 157.884 102.559 158.182 102.355C158.803 102.011 159.577 102.417 160.106 102.903C160.635 103.389 161.151 103.992 161.86 104.071C161.86 103.189 161.87 102.309 161.888 101.432C162.055 100.511 162.403 99.6335 162.912 98.8507Z" fill="black"/>
<path opacity="0.1" d="M161.758 102.321C161.775 102.086 161.802 101.852 161.836 101.632L161.874 100.681C161.771 101.221 161.732 101.771 161.758 102.321Z" fill="black"/>
<path opacity="0.1" d="M172.113 106.432C171.181 106.935 169.994 106.514 169.202 105.811C168.41 105.108 167.874 104.161 167.175 103.361C167.123 103.506 167.116 103.663 167.154 103.812C167.193 103.961 167.275 104.094 167.39 104.195C167.322 104.195 167.257 104.161 167.192 104.144C167.874 104.936 168.417 105.867 169.202 106.556C169.987 107.245 171.181 107.679 172.113 107.176C173.044 106.673 173.311 105.494 173.229 104.347C173.167 105.25 172.847 106.032 172.113 106.432Z" fill="black"/>
<path opacity="0.1" d="M167.17 104.137C166.029 103.823 165.01 103.164 164.25 102.249C163.49 101.334 163.026 100.206 162.918 99.0162C162.724 101.721 164.744 104.433 167.389 104.953C167.276 104.855 167.195 104.724 167.156 104.579C167.117 104.433 167.122 104.279 167.17 104.137Z" fill="black"/>
</g>
<path d="M331.06 160.456C331.06 160.456 329.715 160.267 329.715 158.292C329.715 156.318 328.753 152.62 328.753 152.62C328.753 152.62 327.92 146.187 326.77 145.167C325.62 144.147 324.142 138.158 324.142 138.158C324.142 138.158 323.89 134.908 323.374 134.209C322.859 133.509 322.163 131.797 321.136 129.354C320.108 126.911 315.836 125.236 315.836 125.236C315.836 125.236 308.093 120.701 305.898 119.223C305.698 119.1 305.51 118.957 305.339 118.796C304.956 118.292 303.291 118.282 303.291 118.282C303.117 117.169 302.95 115.894 302.895 114.74C302.895 114.616 302.895 114.492 302.895 114.368C305.342 112.907 307.185 110.604 308.086 107.882C308.127 107.751 308.161 107.617 308.198 107.483C308.348 107.436 308.486 107.358 308.604 107.253C308.722 107.149 308.816 107.02 308.881 106.876C309.075 106.432 309.082 105.915 309.328 105.498C309.615 105.009 310.161 104.747 310.591 104.381C311.676 103.448 311.956 101.88 311.904 100.457C311.87 99.2987 311.686 98.134 311.758 96.9865C311.758 96.8901 311.758 96.7936 311.778 96.6971C311.799 96.5282 311.823 96.3525 311.853 96.1871C312.02 95.3325 312.386 94.5262 312.59 93.6785C312.795 92.8308 312.816 91.8763 312.338 91.1458C311.638 90.0741 310.181 89.8605 308.901 89.7674C307.451 89.6434 306.171 89.8019 305.226 88.5855C304.792 87.9502 304.304 87.3551 303.765 86.8074C303.574 86.6282 301.718 85.4808 301.718 85.4084C299.901 84.5556 297.841 84.3953 295.916 84.957C294.951 85.2395 294.046 85.7013 293.067 85.9322C290.965 86.4353 288.542 85.8908 286.753 87.1072C285.757 87.7964 285.16 88.8956 284.6 89.9604C284.145 90.838 283.683 91.7167 283.214 92.5965C282.457 94.0403 281.692 95.5083 281.375 97.1072C281.309 97.4564 281.266 97.8099 281.249 98.165C281.249 98.2925 281.249 98.42 281.249 98.5475C281.249 98.6027 281.249 98.6578 281.249 98.7129C281.249 98.8301 281.249 98.9473 281.269 99.0575C281.29 99.1678 281.269 99.1988 281.293 99.2712C281.317 99.3435 281.324 99.5055 281.344 99.6158C281.365 99.726 281.406 99.9224 281.447 100.071C281.447 100.136 281.488 100.198 281.508 100.264C281.529 100.329 281.583 100.494 281.628 100.608C281.672 100.722 281.675 100.729 281.703 100.787C281.754 100.908 281.815 101.025 281.877 101.132C281.904 101.177 281.925 101.222 281.952 101.266C282.045 101.428 282.15 101.582 282.266 101.728C282.993 102.648 284.071 103.234 284.866 104.095C284.866 104.13 284.866 104.164 284.866 104.199C284.866 104.292 284.866 104.385 284.866 104.481C284.915 106.403 285.428 108.283 286.36 109.959C287.293 111.634 288.617 113.054 290.217 114.095C290.217 114.226 290.234 114.361 290.241 114.495C290.308 115.517 290.295 116.542 290.204 117.562C290.064 117.397 289.89 117.266 289.694 117.177C289.498 117.089 289.285 117.046 289.071 117.052C288.924 117.045 288.777 117.057 288.634 117.09L288.603 117.066V117.097C287.852 117.283 286.927 118.072 286.044 120.315C286.044 120.315 283.354 123.375 281.307 123.248C279.259 123.12 274.075 126.435 274.075 126.435C274.075 126.435 269.018 129.747 267.933 133.123C267.326 135.039 266.598 136.913 265.752 138.733L259.483 151.731L258.333 162.069C258.333 162.069 258.971 166.655 258.845 167.358C258.719 168.061 261.469 174.367 261.469 174.367C261.469 174.367 270.557 190.487 274.27 191.314L274.536 191.128C274.696 191.209 274.864 191.272 275.038 191.314L275.802 190.773C275.85 191.379 275.829 191.988 275.741 192.589C275.232 194.184 275.935 204.57 276.829 206.607C277.724 208.643 277.406 235.349 277.406 235.349L277.28 237.702C277.28 237.702 277.28 237.778 277.311 237.909L277.28 238.467L277.372 238.516C277.468 239.264 277.437 240.024 277.28 240.762C276.959 241.796 276.829 244.715 276.829 244.715C276.829 244.715 274.27 261.214 275.485 264.529C276.7 267.844 277.727 271.475 277.727 271.475C277.727 271.475 279.007 275.611 277.788 276.3C276.57 276.989 273.12 278.212 273.823 279.932C274.471 281.524 276.932 285.79 277.297 286.413L277.266 286.758L276.765 292.247C276.846 292.972 277.041 293.679 277.341 294.342C277.891 295.541 278.956 296.779 280.989 296.644C281.331 296.62 281.723 296.582 282.109 296.53C285.825 296.024 290.398 294.349 290.398 294.349C290.161 294.198 289.944 294.016 289.753 293.808C289.57 293.63 289.426 293.415 289.328 293.178C289.23 292.941 289.181 292.687 289.183 292.43C289.238 291.427 287.385 286.668 286.921 285.493L286.815 285.231C286.815 285.231 291.04 280.769 290.337 276.82C290.337 276.82 285.661 274.063 287.2 272.547C288.74 271.031 291.49 266.689 291.49 266.689C291.49 266.689 291.616 250.442 291.49 248.019C291.358 246.334 291.438 244.64 291.726 242.975C291.777 242.727 291.838 242.482 291.903 242.237C294.033 242.562 296.185 242.727 298.339 242.73C299.126 242.73 299.923 242.714 300.728 242.682C300.728 242.911 300.738 243.16 300.759 243.426C300.936 247.451 301.267 254.511 301.537 257.134C301.919 260.89 304.031 271.024 304.031 271.024C304.031 271.024 300.001 273.633 304.734 280.073C304.734 280.073 304.734 282.402 304.421 282.744C304.085 283.849 303.815 284.973 303.612 286.11C303.414 287.32 303.332 288.55 303.653 289.184C304.421 290.707 309.028 290.583 309.028 290.583C309.065 290.574 309.102 290.568 309.14 290.566C310.01 290.473 310.889 290.556 311.726 290.81C312.564 291.065 313.342 291.485 314.017 292.047C315.768 293.467 322.408 292.847 326.009 292.392C327.418 292.209 328.36 292.047 328.36 292.047C328.405 291.886 328.422 291.718 328.408 291.551C328.37 290.659 327.678 288.701 322.982 286.954C322.982 286.954 318.566 283.956 318.627 281.344H318.528H318.02C318.341 281.334 318.566 281.334 318.566 281.334C318.566 281.334 316.836 274.963 317.542 274.442C318.249 273.922 316.133 266.861 316.133 266.861C316.133 266.861 314.921 255.008 314.853 254.181C314.857 253.468 314.966 252.76 315.174 252.079L314.853 245.576C314.853 245.576 314.792 243.416 314.853 242.713C314.846 242.103 314.798 241.494 314.71 240.89C314.679 240.649 314.648 240.397 314.614 240.149C316.269 239.725 317.344 239.336 317.344 239.336L317.153 216.714C318.559 213.957 318.818 207.906 318.812 203.619C318.812 200.863 318.689 198.823 318.689 198.823L320.61 195.656C320.61 195.656 321.054 191.865 320.351 191.035C320.04 190.659 320.18 190.27 320.436 189.949C320.571 189.838 320.713 189.737 320.863 189.646C320.846 189.622 320.831 189.597 320.818 189.57C320.952 189.457 321.095 189.355 321.245 189.264C321.245 189.264 320.562 188.196 321.173 187.744C321.746 188.137 322.258 188.45 322.647 188.674C322.62 188.926 322.593 189.071 322.593 189.071L322.757 188.726C323.132 188.94 323.361 189.071 323.361 189.071C323.361 189.071 326.371 183.016 326.306 182.127C326.241 181.238 328.353 177.475 328.353 177.475C328.353 177.475 328.609 175.497 329.763 174.67C330.916 173.843 330.657 167.851 330.657 167.851C330.657 167.851 330.978 164.729 331.745 163.458C332.513 162.186 331.06 160.456 331.06 160.456ZM273.468 157.799L273.526 159.243C273.185 158.688 272.939 158.292 272.939 158.292L273.468 157.799Z" fill="url(#paint1_linear)"/>
<path d="M323.538 186.452L322.801 189.622C322.801 189.622 316.897 186.572 315.836 182.713C314.774 178.854 317.614 177.382 317.614 177.382L323.118 179.732L323.538 186.452Z" fill="white"/>
<path opacity="0.1" d="M323.538 186.452L322.801 189.622C322.801 189.622 316.897 186.572 315.836 182.713C314.774 178.854 317.614 177.382 317.614 177.382L323.118 179.732L323.538 186.452Z" fill="black"/>
<path d="M290.404 294.346C290.404 294.346 284.944 296.372 281.19 296.627C279.197 296.761 278.149 295.528 277.61 294.339C277.317 293.683 277.126 292.986 277.044 292.271L277.539 286.81L277.798 283.905L285.773 281.81L286.903 285.3L287.009 285.562C287.459 286.73 289.281 291.465 289.227 292.454C289.222 292.71 289.269 292.964 289.365 293.201C289.461 293.438 289.603 293.652 289.783 293.832C289.968 294.029 290.176 294.202 290.404 294.346Z" fill="white"/>
<path d="M327.683 291.568C327.697 291.735 327.681 291.903 327.635 292.064C327.635 292.064 315.957 294.029 313.568 292.064C312.897 291.491 312.114 291.065 311.27 290.814C310.427 290.563 309.54 290.492 308.668 290.607C308.668 290.607 304.15 290.731 303.395 289.229C303.081 288.598 303.163 287.375 303.358 286.172C303.557 285.041 303.821 283.922 304.15 282.823L304.33 282.678L305.405 281.806L317.991 281.431H318.087C318.025 284.029 322.356 287.009 322.356 287.009C326.966 288.732 327.645 290.679 327.683 291.568Z" fill="white"/>
<path opacity="0.1" d="M327.688 291.568C327.701 291.736 327.683 291.904 327.637 292.065C327.637 292.065 315.959 294.029 313.574 292.065C312.902 291.49 312.119 291.064 311.274 290.813C310.43 290.562 309.543 290.492 308.67 290.607C308.67 290.607 304.148 290.731 303.394 289.229C303.083 288.598 303.162 287.375 303.356 286.169C305.097 286.344 307.844 286.782 308.922 287.83C310.554 289.415 313.318 291 315.011 291.127C316.348 291.21 324.303 291.465 327.688 291.568Z" fill="black"/>
<path opacity="0.1" d="M290.403 294.346C290.403 294.346 284.943 296.372 281.189 296.627C279.196 296.761 278.148 295.528 277.609 294.339C279.001 294.811 280.929 295.304 281.943 294.852C283.144 294.311 287.403 293.967 289.792 293.819C289.972 294.02 290.177 294.198 290.403 294.346Z" fill="black"/>
<path d="M298.507 131.049C294.002 129.281 288.207 123.441 289.654 120.711C289.974 120.022 290.165 119.279 290.217 118.52C290.311 117.489 290.324 116.452 290.258 115.419C290.157 113.725 289.955 112.039 289.654 110.37C289.654 110.37 303.718 110.691 302.899 112.782C302.66 113.399 302.619 114.464 302.687 115.653C302.755 116.842 302.923 118.196 303.1 119.337C303.342 120.898 303.592 122.093 303.592 122.093C303.592 122.093 302.728 123.31 302.227 123.375C301.725 123.441 304.97 133.582 298.507 131.049Z" fill="#BE8362"/>
<path opacity="0.1" d="M286.995 285.545L286.89 285.662C282.685 280.528 277.6 286.93 277.6 286.93L277.525 286.792L277.785 283.888L285.76 281.792L286.89 285.283L286.995 285.545Z" fill="black"/>
<path opacity="0.1" d="M318.095 281.792C318.095 281.792 315.024 281.73 313.386 283.191C311.748 284.653 303.83 283.505 304.172 283.191C304.271 283.032 304.332 282.852 304.349 282.664L305.424 281.792L318.01 281.417C318.058 281.658 318.095 281.792 318.095 281.792Z" fill="black"/>
<path d="M292.227 241.472C291.998 242.043 291.825 242.635 291.708 243.24C291.423 244.896 291.344 246.581 291.472 248.257C291.599 250.669 291.472 266.834 291.472 266.834C291.472 266.834 288.773 271.145 287.265 272.664C285.756 274.184 290.336 276.913 290.336 276.913C291.019 280.845 286.882 285.283 286.882 285.283C282.678 280.149 277.593 286.548 277.593 286.548C277.593 286.548 274.829 281.724 274.14 280.001C273.45 278.278 276.839 277.089 278.03 276.386C279.221 275.683 277.969 271.562 277.969 271.562C277.969 271.562 276.965 267.947 275.771 264.649C274.577 261.352 277.088 244.939 277.088 244.939C277.088 244.939 277.218 242.02 277.528 241.004C277.683 240.27 277.715 239.515 277.621 238.771C277.6 238.519 277.576 238.312 277.559 238.168C277.542 238.023 277.528 237.961 277.528 237.961L277.576 237.878L279.283 234.667C279.283 234.667 293.046 239.45 292.227 241.472Z" fill="#3D666C"/>
<path d="M318.093 281.413C318.093 281.413 315.022 281.348 313.384 282.792C311.746 284.235 303.828 283.109 304.17 282.792C304.511 282.475 304.48 280.131 304.48 280.131C299.835 273.726 303.798 271.127 303.798 271.127C303.798 271.127 301.726 261.048 301.351 257.309C301.088 254.701 300.764 247.661 300.59 243.674C300.515 241.951 300.47 240.762 300.47 240.762L304.231 240.008L304.719 239.911L313.872 238.054C313.872 238.054 314.124 239.777 314.295 241.186C314.381 241.788 314.428 242.394 314.435 243.002C314.377 243.691 314.435 245.852 314.435 245.852L314.749 252.316C314.546 252.995 314.44 253.699 314.435 254.408C314.5 255.235 315.691 267.023 315.691 267.023C315.691 267.023 317.762 274.06 317.056 274.566C316.349 275.073 318.093 281.413 318.093 281.413Z" fill="#3D666C"/>
<path opacity="0.1" d="M302.897 112.793C302.658 113.41 302.617 114.474 302.686 115.663C300.802 116.809 298.636 117.394 296.438 117.353C294.239 117.311 292.097 116.644 290.257 115.429C290.155 113.735 289.954 112.05 289.653 110.381C289.653 110.381 303.716 110.701 302.897 112.793Z" fill="black"/>
<path d="M308.327 105.184C308.364 108.311 307.17 111.324 305.007 113.561C302.844 115.799 299.889 117.076 296.793 117.114C293.696 117.151 290.712 115.945 288.496 113.761C286.281 111.577 285.015 108.593 284.978 105.467C284.978 105.37 284.978 105.281 284.978 105.184C284.978 102.057 286.208 99.0576 288.398 96.8462C290.588 94.6349 293.559 93.3925 296.656 93.3925C299.753 93.3925 302.724 94.6349 304.914 96.8462C307.104 99.0576 308.334 102.057 308.334 105.184H308.327Z" fill="#BE8362"/>
<path opacity="0.1" d="M298.507 131.049C294.002 129.281 288.207 123.441 289.654 120.711C289.974 120.022 290.165 119.279 290.217 118.52L296.384 123.64L300.199 126.8L303.1 119.347C303.342 120.908 303.592 122.104 303.592 122.104C303.592 122.104 302.728 123.32 302.227 123.385C301.725 123.451 304.97 133.582 298.507 131.049Z" fill="black"/>
<path d="M314.453 153.678L309.304 241.031L302.588 241.476L285.194 190.825L288.047 130.691L288.651 117.986L296.384 124.399L300.199 127.558L303.185 119.884L308.737 124.771L314.453 153.678Z" fill="#3D666C"/>
<path opacity="0.1" d="M292.226 241.472C291.997 242.043 291.824 242.635 291.707 243.24C286.815 242.479 282.064 240.982 277.613 238.798L277.521 238.75L277.551 238.195V237.906L279.258 234.694C279.258 234.694 293.045 239.45 292.226 241.472Z" fill="black"/>
<path opacity="0.1" d="M304.345 243.254C303.095 243.469 301.835 243.615 300.57 243.691C300.495 241.968 300.451 240.78 300.451 240.78L304.232 240.008L304.345 243.254Z" fill="black"/>
<path opacity="0.1" d="M314.309 241.186C311.883 241.824 308.132 242.54 304.781 242.092L304.733 239.911L313.886 238.054C313.886 238.054 314.128 239.763 314.309 241.186Z" fill="black"/>
<path opacity="0.1" d="M304.719 242.492C290.727 244.904 277.913 237.988 277.913 237.988L278.036 235.645C278.036 235.645 278.353 209.081 277.473 207.044C276.592 205.008 275.906 194.694 276.404 193.12C276.903 191.545 274.586 167.768 274.586 167.768L274.21 158.12L260.461 152.479L266.603 139.547C267.433 137.734 268.146 135.869 268.74 133.964C269.808 130.605 274.766 127.307 274.766 127.307C274.766 127.307 279.851 124.013 281.861 124.137C283.871 124.261 286.506 121.221 286.506 121.221C288.451 116.215 290.212 118.465 290.212 118.465C290.212 118.706 290.212 118.465 290.116 119.206C289.434 124.702 301.153 142.069 301.32 142.379L302.45 169.829L303.579 204.567L304.719 242.492Z" fill="black"/>
<path d="M304.346 242.492C290.354 244.904 277.536 237.988 277.536 237.988L277.663 235.645C277.663 235.645 277.977 209.081 277.096 207.044C276.216 205.008 275.53 194.684 276.031 193.096C276.533 191.507 274.202 167.755 274.202 167.755L273.823 158.106L260.077 152.465L266.22 139.533C267.048 137.72 267.761 135.857 268.356 133.954C269.425 130.605 274.4 127.303 274.4 127.303C274.4 127.303 279.485 124.009 281.492 124.133C283.498 124.257 286.146 121.221 286.146 121.221C288.095 116.215 290.242 118.465 290.242 118.465C290.242 118.706 290.037 118.809 290.146 119.206C291.648 124.536 300.807 142.069 300.974 142.379L302.104 169.829L303.21 204.584L304.346 242.492Z" fill="white"/>
<path opacity="0.1" d="M300.575 143.155C299.07 142.52 291.098 133.33 291.098 133.33V131.239C290.808 130.55 289.082 130.97 287.686 131.452L288.286 118.747L288.969 119.319C290.46 124.647 300.411 142.848 300.575 143.155Z" fill="black"/>
<path d="M300.953 142.396C299.444 141.759 291.472 132.572 291.472 132.572V130.477C291.182 129.788 289.459 130.208 288.06 130.691L288.65 118L289.332 118.568C290.837 123.889 300.785 142.086 300.953 142.396Z" fill="white"/>
<path opacity="0.1" d="M277.914 188.226C278.102 188.226 287.644 187.213 287.644 187.213C287.644 187.213 293.421 198.688 293.043 201.476C292.664 204.264 291.978 206.738 289.654 206.3C287.33 205.863 277.146 206.645 277.146 206.645L277.914 188.226Z" fill="black"/>
<path d="M277.536 187.465C277.727 187.465 287.268 186.452 287.268 186.452C287.268 186.452 293.043 197.944 292.667 200.701C292.292 203.457 291.599 205.962 289.279 205.525C286.958 205.087 276.768 205.869 276.768 205.869L277.536 187.465Z" fill="white"/>
<path d="M284.725 182.093C284.725 182.093 293.482 186.848 293.669 188.295C293.857 189.743 289.212 187.661 288.209 187.406C287.548 187.248 286.876 187.142 286.199 187.089L279.507 187.272L284.725 182.093Z" fill="#BE8362"/>
<path opacity="0.1" d="M298.128 143.747C298.637 143.747 299.049 143.331 299.049 142.817C299.049 142.303 298.637 141.886 298.128 141.886C297.619 141.886 297.207 142.303 297.207 142.817C297.207 143.331 297.619 143.747 298.128 143.747Z" fill="black"/>
<path d="M298.128 143.368C298.637 143.368 299.049 142.951 299.049 142.438C299.049 141.924 298.637 141.507 298.128 141.507C297.619 141.507 297.207 141.924 297.207 142.438C297.207 142.951 297.619 143.368 298.128 143.368Z" fill="#2F2E41"/>
<path opacity="0.1" d="M299.822 184.022C300.331 184.022 300.743 183.606 300.743 183.092C300.743 182.578 300.331 182.162 299.822 182.162C299.313 182.162 298.9 182.578 298.9 183.092C298.9 183.606 299.313 184.022 299.822 184.022Z" fill="black"/>
<path d="M299.822 183.64C300.331 183.64 300.743 183.223 300.743 182.71C300.743 182.196 300.331 181.779 299.822 181.779C299.313 181.779 298.9 182.196 298.9 182.71C298.9 183.223 299.313 183.64 299.822 183.64Z" fill="#2F2E41"/>
<path opacity="0.1" d="M299.048 163.885C299.557 163.885 299.969 163.468 299.969 162.954C299.969 162.441 299.557 162.024 299.048 162.024C298.539 162.024 298.126 162.441 298.126 162.954C298.126 163.468 298.539 163.885 299.048 163.885Z" fill="black"/>
<path d="M299.048 163.506C299.557 163.506 299.969 163.089 299.969 162.575C299.969 162.062 299.557 161.645 299.048 161.645C298.539 161.645 298.126 162.062 298.126 162.575C298.126 163.089 298.539 163.506 299.048 163.506Z" fill="#2F2E41"/>
<path d="M320.289 186.896C320.289 186.896 320.917 187.847 320.289 188.275C319.662 188.702 320.351 189.798 320.351 189.798C320.351 189.798 318.785 190.721 319.474 191.559C320.163 192.396 319.726 196.155 319.726 196.155L317.843 199.322C317.843 199.322 317.955 201.352 317.962 204.095C317.962 208.375 317.713 214.391 316.334 217.134L316.519 239.639C316.519 239.639 309.922 242.075 304.4 241.331L303.581 205.218C303.581 205.218 304.776 184.739 305.216 180.811C305.474 178.772 305.579 176.715 305.53 174.66C305.53 174.66 305.342 168.513 304.711 165.663C304.711 165.663 304.028 153.299 303.96 149.877C303.929 148.241 304.015 143.465 304.11 138.923C304.216 133.957 304.335 129.274 304.335 129.274L303.09 119.319C303.09 119.319 304.335 119.195 304.711 119.698C304.879 119.857 305.062 119.999 305.257 120.122C307.41 121.59 315.007 126.104 315.007 126.104C315.007 126.104 319.211 127.793 320.218 130.212C321.225 132.631 321.924 134.347 322.412 135.036C322.9 135.725 323.166 138.964 323.166 138.964C323.166 138.964 324.613 144.926 325.743 145.935C326.872 146.945 327.685 153.354 327.685 153.354L317.703 161.28C317.703 161.28 316.826 174.464 316.638 174.974C316.45 175.484 320.289 186.896 320.289 186.896Z" fill="white"/>
<path d="M320.669 186.896C320.669 186.896 321.293 187.847 320.669 188.275C320.044 188.702 320.727 189.798 320.727 189.798C320.727 189.798 319.16 190.721 319.85 191.559C320.539 192.396 320.102 196.155 320.102 196.155L318.225 199.322C318.225 199.322 318.338 201.352 318.348 204.095C318.348 208.375 318.099 214.391 316.72 217.134L316.908 239.639C316.908 239.639 310.311 242.075 304.79 241.331L303.974 205.218C303.974 205.218 305.165 184.739 305.609 180.811C305.867 178.772 305.97 176.715 305.919 174.66C305.919 174.66 305.731 168.513 305.104 165.663C305.104 165.663 304.421 153.299 304.349 149.877C304.319 148.241 304.404 143.465 304.5 138.923C304.605 133.957 304.725 129.274 304.725 129.274L303.08 119.185C303.08 119.185 304.725 119.185 305.104 119.698C305.27 119.859 305.453 120.001 305.65 120.122C307.8 121.59 315.396 126.104 315.396 126.104C315.396 126.104 319.59 127.793 320.614 130.212C321.638 132.631 322.32 134.347 322.808 135.036C323.296 135.725 323.562 138.964 323.562 138.964C323.562 138.964 325.009 144.926 326.139 145.935C327.269 146.945 328.084 153.354 328.084 153.354L318.102 161.28C318.102 161.28 317.225 174.464 317.034 174.974C316.843 175.484 320.669 186.896 320.669 186.896Z" fill="white"/>
<path opacity="0.1" d="M308.714 132.2L309.618 134.853L304.871 139.678C304.977 134.712 305.097 130.029 305.097 130.029L303.452 119.943C303.452 119.943 305.097 119.943 305.475 120.456C305.642 120.617 305.825 120.759 306.021 120.88L310.055 132.627L308.714 132.2Z" fill="black"/>
<path d="M308.328 131.438L309.232 134.088L304.488 138.913C304.591 133.947 304.714 129.264 304.714 129.264L303.065 119.175C303.065 119.175 304.714 119.175 305.089 119.688C305.256 119.848 305.439 119.99 305.635 120.112L309.693 131.869L308.328 131.438Z" fill="white"/>
<path opacity="0.1" d="M308.327 105.184C308.329 106.426 308.135 107.66 307.754 108.84C307.69 108.851 307.624 108.849 307.561 108.833C307.497 108.818 307.438 108.79 307.385 108.751C307.293 105.65 305.785 102.734 303.925 100.257C303.402 99.5094 302.769 98.8471 302.048 98.2926C301.318 97.7395 300.411 97.4803 299.502 97.5655C298.478 97.7068 297.574 98.4097 296.54 98.4993C295.175 98.613 293.953 97.6585 292.598 97.6137C292.048 97.6183 291.504 97.7419 291.004 97.976C290.505 98.2102 290.06 98.5496 289.701 98.9714C288.989 99.8198 288.46 100.809 288.148 101.876C287.612 103.495 287.32 105.187 287.282 106.893C287.264 107.858 287.172 109.068 286.285 109.419C286.352 108.71 286.273 107.995 286.051 107.319C285.83 106.642 285.471 106.02 284.999 105.491L284.978 105.467C284.978 105.37 284.978 105.281 284.978 105.184C284.978 102.057 286.208 99.0576 288.398 96.8463C290.588 94.6349 293.559 93.3925 296.656 93.3925C299.753 93.3925 302.724 94.6349 304.914 96.8463C307.104 99.0576 308.334 102.057 308.334 105.184H308.327Z" fill="black"/>
<path d="M301.504 86.4629C299.73 85.6206 297.713 85.4613 295.832 86.0149C294.886 86.2975 293.996 86.7558 293.037 86.9866C290.989 87.4863 288.6 86.9453 286.843 88.1548C285.867 88.844 285.28 89.9329 284.734 90.9942L283.369 93.6165C282.625 95.0534 281.874 96.5145 281.564 98.0961C281.253 99.6778 281.441 101.449 282.434 102.724C283.154 103.647 284.225 104.23 285.01 105.102C285.482 105.633 285.839 106.257 286.06 106.935C286.281 107.613 286.36 108.33 286.293 109.04C287.181 108.696 287.269 107.479 287.29 106.514C287.328 104.808 287.62 103.116 288.157 101.497C288.468 100.43 288.997 99.4408 289.709 98.5923C290.068 98.1701 290.513 97.8302 291.012 97.5954C291.512 97.3607 292.056 97.2365 292.607 97.2312C293.972 97.2795 295.197 98.234 296.548 98.1168C297.572 98.0307 298.48 97.3277 299.511 97.1864C300.419 97.0996 301.327 97.3589 302.056 97.9135C302.778 98.4663 303.41 99.1289 303.93 99.8777C305.793 102.359 307.305 105.26 307.394 108.372C307.779 108.654 308.336 108.282 308.527 107.841C308.718 107.4 308.725 106.883 308.967 106.463C309.247 105.977 309.783 105.715 310.202 105.35C311.267 104.423 311.533 102.862 311.492 101.446C311.451 100.029 311.178 98.5924 311.445 97.2002C311.605 96.3491 311.967 95.5462 312.165 94.702C312.363 93.8577 312.386 92.9101 311.919 92.183C311.236 91.1182 309.8 90.9046 308.547 90.8047C307.124 90.6806 305.851 90.8391 304.943 89.6296C304.516 88.9993 304.037 88.4067 303.51 87.8584C303.322 87.6758 301.504 86.5387 301.504 86.4629Z" fill="#213047"/>
<path opacity="0.1" d="M264.401 159.129L260.838 152.475L259.708 162.744C259.708 162.744 260.336 167.307 260.21 168.006C260.084 168.706 262.783 174.977 262.783 174.977C262.783 174.977 271.7 191.018 275.341 191.841L287.627 182.965L284.364 178.781C284.364 178.781 283.235 178.337 282.952 178.781C282.952 178.781 276.891 168.258 276.266 167.499C275.642 166.741 275.761 165.215 275.761 165.215C275.761 165.215 274.819 164.202 275.133 163.251C275.447 162.3 273.331 159.005 273.331 159.005L275.277 157.169L264.401 159.129Z" fill="black"/>
<path d="M261.025 151.714L260.083 152.476L258.954 162.744C258.954 162.744 259.582 167.307 259.455 168.006C259.329 168.706 262.032 174.977 262.032 174.977C262.032 174.977 270.946 191.018 274.587 191.841L286.893 182.965L283.627 178.781C283.627 178.781 282.497 178.337 282.214 178.781C282.214 178.781 276.157 168.258 275.529 167.5C274.901 166.741 275.027 165.215 275.027 165.215C275.027 165.215 274.085 164.202 274.399 163.251C274.713 162.3 272.577 159.005 272.577 159.005L274.522 157.169L261.025 151.714Z" fill="white"/>
<path opacity="0.1" d="M319.475 191.955C320.157 192.792 319.727 196.555 319.727 196.555L317.844 199.701C317.844 199.701 317.956 201.734 317.963 204.477L314.796 205.477C314.509 205.567 314.206 205.587 313.91 205.534C313.614 205.482 313.335 205.359 313.096 205.175C312.857 204.992 312.665 204.753 312.535 204.48C312.406 204.206 312.343 203.905 312.353 203.602L312.902 185.821L320.29 188.671C319.663 189.112 320.352 190.194 320.352 190.194C320.352 190.194 318.785 191.118 319.475 191.955Z" fill="black"/>
<path d="M319.849 191.576C320.531 192.41 320.101 196.173 320.101 196.173L318.224 199.322C318.224 199.322 318.337 201.352 318.347 204.095L315.122 205.111C314.842 205.2 314.545 205.22 314.256 205.169C313.967 205.118 313.694 204.998 313.46 204.819C313.226 204.64 313.038 204.407 312.912 204.139C312.785 203.872 312.724 203.578 312.733 203.281L313.283 185.439L320.668 188.295C320.036 188.736 320.726 189.818 320.726 189.818C320.726 189.818 319.159 190.738 319.849 191.576Z" fill="white"/>
<path d="M322.299 183.092C322.299 183.092 321.797 186.328 320.541 186.517C319.286 186.707 318.722 191.752 317.47 191.576C316.218 191.4 317.047 186.883 317.091 186.007C317.136 185.132 315.726 181.507 316.777 180.683C317.828 179.86 321.173 180.683 321.173 180.683L322.299 183.092Z" fill="#BE8362"/>
<path opacity="0.1" d="M324.952 158.178L327.317 153.354C327.317 153.354 328.263 157.031 328.263 158.995C328.263 160.959 329.58 161.152 329.58 161.152C329.58 161.152 331.024 162.875 330.263 164.133C329.502 165.391 329.198 168.506 329.198 168.506C329.198 168.506 329.447 174.464 328.317 175.287C327.188 176.111 326.935 178.078 326.935 178.078C326.935 178.078 324.864 181.817 324.929 182.706C324.993 183.595 322.042 189.615 322.042 189.615C322.042 189.615 323.485 182.134 315.073 178.902C315.073 178.902 315.008 176.366 315.636 175.67C316.264 174.974 317.243 174.636 316.629 171.135C316.015 167.634 316.452 163.413 316.452 162.569C316.452 161.724 318.335 156.462 318.335 156.462L324.952 158.178Z" fill="black"/>
<path d="M326.005 152.665L328.074 153.354C328.074 153.354 329.019 157.031 329.019 158.995C329.019 160.959 330.336 161.152 330.336 161.152C330.336 161.152 331.78 162.875 331.019 164.133C330.258 165.391 329.95 168.506 329.95 168.506C329.95 168.506 330.203 174.464 329.073 175.287C327.944 176.111 327.708 178.078 327.708 178.078C327.708 178.078 325.637 181.817 325.702 182.706C325.767 183.595 322.811 189.615 322.811 189.615C322.811 189.615 324.255 182.134 315.843 178.902C315.843 178.902 315.781 176.366 316.409 175.67C317.037 174.974 318.017 174.636 317.402 171.135C316.788 167.634 317.225 163.413 317.225 162.568C317.225 161.724 319.109 156.462 319.109 156.462L326.005 152.665Z" fill="white"/>
<path opacity="0.1" d="M280.317 277.705C280.317 277.705 283.614 275.614 285.778 277.133C287.941 278.653 280.317 277.705 280.317 277.705Z" fill="black"/>
<path opacity="0.1" d="M305.939 271.238C305.939 271.238 308.857 270.859 311.307 273.522C313.757 276.186 305.939 271.238 305.939 271.238Z" fill="black"/>
<g opacity="0.1">
<path opacity="0.1" d="M310.201 104.592C309.781 104.96 309.242 105.219 308.962 105.705C308.723 106.122 308.716 106.639 308.525 107.083C308.334 107.528 307.778 107.896 307.389 107.614C307.3 104.512 305.788 101.601 303.928 99.1196C303.408 98.3719 302.776 97.7104 302.055 97.1589C301.325 96.6032 300.416 96.3427 299.506 96.4284C298.482 96.5696 297.581 97.2726 296.547 97.3622C295.182 97.4759 293.957 96.5214 292.602 96.4766C292.051 96.4808 291.508 96.6042 291.009 96.8384C290.51 97.0726 290.066 97.4122 289.708 97.8343C288.996 98.6827 288.467 99.6722 288.155 100.739C287.619 102.358 287.327 104.05 287.288 105.756C287.268 106.718 287.179 107.917 286.299 108.275C286.319 108.531 286.319 108.788 286.299 109.044C287.19 108.699 287.278 107.483 287.299 106.518C287.337 104.811 287.629 103.12 288.166 101.501C288.477 100.434 289.006 99.4443 289.718 98.5958C290.077 98.1738 290.52 97.834 291.019 97.5993C291.519 97.3645 292.062 97.2402 292.612 97.2347C293.977 97.2829 295.206 98.2375 296.557 98.1203C297.581 98.0341 298.489 97.3312 299.516 97.1899C300.426 97.1032 301.335 97.3625 302.065 97.917C302.787 98.4698 303.419 99.1324 303.939 99.8811C305.799 102.362 307.31 105.264 307.399 108.375C307.788 108.658 308.344 108.286 308.535 107.845C308.727 107.404 308.733 106.887 308.972 106.466C309.252 105.98 309.791 105.718 310.211 105.353C311.276 104.426 311.542 102.865 311.501 101.449C311.501 101.404 311.501 101.363 311.501 101.318C311.433 102.552 311.109 103.803 310.201 104.592Z" fill="black"/>
<path opacity="0.1" d="M285.005 104.35C284.223 103.479 283.152 102.893 282.432 101.969C281.824 101.154 281.477 100.17 281.439 99.1505C281.332 100.426 281.684 101.697 282.432 102.731C283.152 103.654 284.223 104.237 285.005 105.108C285.76 105.961 286.213 107.042 286.295 108.182C286.346 107.489 286.258 106.792 286.037 106.133C285.815 105.475 285.464 104.869 285.005 104.35Z" fill="black"/>
<path opacity="0.1" d="M312.163 93.9438C311.961 94.788 311.603 95.5909 311.439 96.4421C311.341 97.0176 311.305 97.6023 311.333 98.1857C311.345 97.8561 311.38 97.5279 311.439 97.2036C311.603 96.3525 311.961 95.5496 312.163 94.7053C312.278 94.2394 312.316 93.7573 312.275 93.2787C312.253 93.5028 312.215 93.7251 312.163 93.9438Z" fill="black"/>
</g>
<path opacity="0.1" d="M46.1291 289.067C64.494 289.067 79.3818 286.652 79.3818 283.674C79.3818 280.696 64.494 278.281 46.1291 278.281C27.7642 278.281 12.8765 280.696 12.8765 283.674C12.8765 286.652 27.7642 289.067 46.1291 289.067Z" fill="#3D666C"/>
<path d="M47.1991 180.363H45.0593V229.008H47.1991V180.363Z" fill="#535461"/>
<path d="M60.6494 228.864L60.5129 231.055L60.3252 234.157L60.2468 235.445L60.0556 238.547L59.9737 239.835L59.786 242.937L57.6259 278.109C57.5337 279.622 56.8734 281.043 55.7795 282.082C54.6856 283.12 53.2406 283.698 51.7391 283.698H40.5218C39.0161 283.699 37.5673 283.117 36.4726 282.074C35.3779 281.03 34.7204 279.603 34.635 278.085L32.4748 242.913L32.2871 239.811L32.2086 238.523L32.0141 235.421L31.9356 234.133L31.7479 231.031L31.6114 228.84C31.5878 228.42 31.649 227.999 31.7915 227.604C31.934 227.208 32.1546 226.846 32.44 226.54C32.7254 226.233 33.0696 225.988 33.4516 225.82C33.8337 225.652 34.2456 225.565 34.6623 225.563H57.602C58.0205 225.565 58.4341 225.654 58.8175 225.823C59.2008 225.993 59.5457 226.24 59.8311 226.549C60.1165 226.858 60.3363 227.223 60.477 227.621C60.6177 228.019 60.6764 228.442 60.6494 228.864Z" fill="#2F2E41"/>
<path d="M60.5138 231.052L60.3227 234.146H31.9365L31.7454 231.052H60.5138Z" fill="#67A3A3"/>
<path d="M60.2427 235.435L60.055 238.529H32.2045L32.0134 235.435H60.2427Z" fill="#67A3A3"/>
<path d="M59.9745 239.822L59.7868 242.913H32.4755L32.2844 239.822H59.9745Z" fill="#67A3A3"/>
<path d="M28.4921 198.599C40.955 207.703 46.1456 221.941 46.1456 221.941C46.1456 221.941 31.1301 221.421 18.6638 212.317C6.19743 203.213 1 188.985 1 188.985C1 188.985 16.0156 189.495 28.4921 198.599Z" fill="#3D666C"/>
<path d="M1 188.985C1 188.985 16.5855 197.72 21.585 204.953C26.5845 212.186 46.132 221.948 46.132 221.948" stroke="#535461" stroke-width="2.34737" stroke-miterlimit="10"/>
<path d="M36.523 180.26C43.3073 185.211 46.1329 192.961 46.1329 192.961C46.1329 192.961 37.9426 192.679 31.1754 187.727C24.4082 182.775 21.5654 175.022 21.5654 175.022C21.5654 175.022 29.7421 175.305 36.523 180.26Z" fill="#3D666C"/>
<path d="M21.5654 175.022C21.5654 175.022 30.0492 179.777 32.7725 183.713C35.4958 187.648 46.1329 192.961 46.1329 192.961" stroke="#535461" stroke-width="2.34737" stroke-miterlimit="10"/>
<path d="M55.9869 192.568C48.1959 201.214 46.5476 212.513 46.5476 212.513C46.5476 212.513 57.5329 209.791 65.3171 201.142C73.1013 192.492 74.7564 181.197 74.7564 181.197C74.7564 181.197 63.778 183.923 55.9869 192.568Z" fill="#3D666C"/>
<path d="M74.7632 181.2C74.7632 181.2 64.6141 190.063 62.0341 196.169C59.4542 202.275 46.5476 212.513 46.5476 212.513" stroke="#535461" stroke-width="2.34737" stroke-miterlimit="10"/>
<defs>
<linearGradient id="paint0_linear" x1="159.702" y1="287.923" x2="159.702" y2="88.8715" gradientUnits="userSpaceOnUse">
<stop stop-color="#808080" stop-opacity="0.25"/>
<stop offset="0.54" stop-color="#808080" stop-opacity="0.12"/>
<stop offset="1" stop-color="#808080" stop-opacity="0.1"/>
</linearGradient>
<linearGradient id="paint1_linear" x1="64936" y1="186543" x2="64936" y2="56074.5" gradientUnits="userSpaceOnUse">
<stop stop-color="#808080" stop-opacity="0.25"/>
<stop offset="0.54" stop-color="#808080" stop-opacity="0.12"/>
<stop offset="1" stop-color="#808080" stop-opacity="0.1"/>
</linearGradient>
</defs>
</svg>
