<?xml version="1.0" encoding="utf-8"?>
<!-- Generator: Adobe Illustrator 24.2.3, SVG Export Plug-In . SVG Version: 6.00 Build 0)  -->
<svg version="1.1" id="Layer_1" xmlns="http://www.w3.org/2000/svg" xmlns:xlink="http://www.w3.org/1999/xlink" x="0px" y="0px"
	 viewBox="0 0 1129 440" style="enable-background:new 0 0 1129 440;" xml:space="preserve">
<style type="text/css">
	.st0{opacity:0.1;fill:#97CAEB;enable-background:new    ;}
	.st1{opacity:0.1;fill:#3D666C;enable-background:new    ;}
	.st2{fill:url(#SVGID_1_);}
	.st3{fill:#A27772;}
	.st4{opacity:0.1;enable-background:new    ;}
	.st5{fill:#CC9381;}
	.st6{fill:#B07473;}
	.st7{fill:#444053;}
	.st8{opacity:0.1;}
	.st9{fill:#213047;}
	.st10{fill:#3D666C;}
	.st11{fill:#F6F8FB;}
	.st12{fill:url(#SVGID_2_);}
	.st13{fill:#2F2E41;}
	.st14{fill:#D5A8A8;}
	.st15{fill:#B0C7C5;}
	.st16{opacity:5.000000e-02;enable-background:new    ;}
	.st17{fill:#7C5C5C;}
	.st18{fill:#67A3A3;}
	.st19{fill:#8D6356;}
	.st20{fill:#E8F7F6;}
	.st21{opacity:0.2;enable-background:new    ;}
</style>
<path class="st0" d="M1084.5,135.1c-3.8-8.9-9.1-17.2-15.4-24.6L855,108.4l176.2-24.8c-11.4-4.5-23.5-6.9-35.8-7.1
	c-16.9-13.5-37.6-21.1-59.2-21.9c-21.6-0.7-42.8,5.5-60.5,17.8c-14.2-7.3-29.9-11.1-45.8-11c-47.6,0-87.2,32.9-96.1,76.6
	L1084.5,135.1z"/>
<path class="st0" d="M1092,171.7c0-11.8-2.2-23.6-6.7-34.6l-371,38.9c-3.8,6.9-6.8,14.3-8.7,22l114.9,17.1L703,227.7
	c3.5,49.4,45.9,88.5,97.7,88.5c26.1,0,49.8-9.9,67.3-26c17.6,16.4,41.5,26.6,67.9,26.6c39.1,0,72.8-22.3,88.6-54.4
	c31.5-10,56-35.1,64.4-66.6l-145.3-22.6H1092C1092,172.7,1092,172.2,1092,171.7z"/>
<path class="st1" d="M917,332.6c16.5,0,29.8-3,29.8-6.7c0-3.7-13.4-6.7-29.8-6.7c-16.5,0-29.8,3-29.8,6.7
	C887.2,329.6,900.6,332.6,917,332.6z"/>
<path class="st1" d="M996.8,346.1c31.4,0,56.9-2.1,56.9-4.8c0-2.6-25.5-4.8-56.9-4.8c-31.4,0-56.9,2.1-56.9,4.8
	C939.9,344,965.4,346.1,996.8,346.1z"/>
<path class="st1" d="M824.9,355.1c29.7,0,53.8-3,53.8-6.7c0-3.7-24.1-6.7-53.8-6.7s-53.8,3-53.8,6.7
	C771.1,352.1,795.2,355.1,824.9,355.1z"/>
<linearGradient id="SVGID_1_" gradientUnits="userSpaceOnUse" x1="920.197" y1="-188974" x2="920.197" y2="-41079.4062" gradientTransform="matrix(1 0 0 -1 0 442)">
	<stop  offset="0" style="stop-color:#808080;stop-opacity:0.25"/>
	<stop  offset="0.54" style="stop-color:#808080;stop-opacity:0.12"/>
	<stop  offset="1" style="stop-color:#808080;stop-opacity:0.1"/>
</linearGradient>
<path class="st2" d="M958.8,133.3c-5.5-0.1-10.3-4-13-8.7c-0.7-1.1-1.2-2.4-1.3-3.7c0-0.3,0.1-0.6,0.2-0.9c0.2-0.4,0.3-0.9,0.4-1.4
	c0-0.2,0-0.4,0-0.6c0,0,0,0,0,0c0.1-1-0.5-2-1.2-2.7c-0.7-0.7-1.6-1.2-2.4-1.9c-2.3-2.1-3.1-5.4-3.1-8.5v-0.2c0-1.3,0.1-2.7,0.1-4
	c0-0.8,0-1.5-0.1-2.3c-0.2-1.9-1-3.8-2.5-5.1c-3.9-3.2-10.5,0.1-14.5-2.9c-1-0.7-1.8-1.8-3-2.1c-0.9-0.2-1.8,0.1-2.7,0.4
	c-3,1-6.3,2.3-7.5,5.2c-0.7,1.7-0.5,3.5-1.1,5.2c-0.4,1.1-1.2,2.1-1.7,3.1c-0.5,0.8-0.7,1.7-0.6,2.6c0,0.5,0,1,0.2,1.4
	c0.2,0.5,0.5,1,1,1.4c-0.2,0.3-0.3,0.6-0.6,0.9c-0.8,0.9-1.9,1.6-2.7,2.5c-1.5,1.7-1.4,4-0.7,6c0.7,2,2,3.8,2.9,5.8
	c0.4,0.8,0.7,1.8,0.3,2.6c-0.3,0.6-0.9,1-1.3,1.5c-0.7,0.7-1.1,1.7-1.2,2.7c-8.9,2-8.9,9.2-8.9,9.2l-4.8,12.1c0,0-0.8,2-1.7,4.7
	l-5.7-1l4,6.6c-0.7,2.7-1.3,5.2-1.1,6.5c0,0-1.8,8.3,1.4,9.8l7,3.1c0.3,0.2,0.6,0.3,1,0.4l0.3,0.1c0.1,0,0.2,0.1,0.3,0.1
	c0.1,0,0.2,0,0.3-0.1h0h0.1c0.1,0,0.3,0,0.4-0.1c0.2-0.1,0.3-0.2,0.3-0.4c0,0,0,0,0,0l2.1-0.6l1.8,2.1c0.8,0.6,1.6,1,2.3,1.5
	l-2.7,27.1c0,0-0.4,36.1-1.8,44.3c-0.5,3-0.5,5.1-0.3,6.5l-0.1,0.1c0.3,2.3,1.2,2.8,1.2,2.8v0c0,0,0,0,0.1,0
	c0.4-1.1,0.9-2.1,1.4-3.1c0,0.2,0,0.4,0,0.6c0,3.1-0.1,7.3-0.4,10.1c-0.5,4.8,1.4,20.4,1.4,20.4l0.7,14.3c0.1,2.4-0.5,4.8-1.6,7
	c-1.6,2.9-3.6,6.9-3.8,8.6c0,0.1,0,0.2,0,0.3l-3.4,4.1c0,0-1.3,2.1,1.7,2.9c1.6,0.4,4.4,0,6.6-0.5c1-0.2,1.8-0.8,2.5-1.6
	c0.6-0.8,1-1.8,1-2.8c0.6-2,1.5-3.8,2.8-5.4l0.6,3.3l3.7,0.9l0.5-9c0.2-0.5,0.3-1,0.3-1.6c0.7-6.4-1.7-5.8-1.7-5.8
	c0.1,0.1,0.1,0.1,0.1,0.2l-0.1-0.2c-1.5-3-0.8-7.9-0.8-7.9s2-14.3,2.7-18c0.5-2.7,0.3-11.4,0.1-16.3c0-0.2,0-0.4,0-0.6
	c5.8-0.1,12.9-0.3,17.9-0.8v0.6l-0.9,33.7c-0.1,2.1-0.5,4.3-1.3,6.3c0,0,0,0.1,0,0.1c-1.1,2.8-1.7,5.8-1.8,8.8l-0.4,10.7v0.3
	c-0.7,0.3-1.9,1.1-2,3.5c-0.1,3.5,6.2,2.3,6.2,2.3c6.2,0,6.3-6.5,6.3-6.5s0.2-5.9,0.5-9.9c0.3-4-0.9-3.1-0.9-3.1l-0.1,11.3
	c0,0,0,0.1,0,0.1v-9.9l0.1-1.4v0v-0.3l0.8-11.6c0,0,5.7-19.4,6.6-23.1c0.6-2.6,0.4-10.6,0.2-15c0-0.2,0-0.4,0-0.6
	c1.8-0.2,3.3-0.2,4-0.2h0.3c0,0-0.3-31.1-1-42.8c-0.7-11.7-1.9-22.4-4.9-25.7c-1.8-2-4.3-8-5.9-12.4c3.5,1.5,7.2,2.7,10.9,3.6
	c9.4,2,8.1-6.2,8.1-6.2l-0.9-15.4h0.1c0-4-0.4-8-1-12c-0.5-3-1.3-6.2-2.4-8.7c1-0.4,2-0.8,3-1.3c2.5-1.1,5.4-2.7,5.8-5.4h-0.1
	C958.8,133.7,958.8,133.5,958.8,133.3z M900.9,155.5c0,1.6,0,4.3-0.1,7.4l-3-4l3-4.8L900.9,155.5z M941.9,169.6l-4.9-1.6
	c0.9-1.4,1.9-2.6,3.1-3.8l0.4-0.4l-0.2,0l0.2-0.2l0.1,0l-0.2,0.2l0.3-0.1c0.3,1.2,0.9,2.4,1.7,3.4
	C944.1,169.1,941.9,169.6,941.9,169.6L941.9,169.6z"/>
<path class="st3" d="M911.8,312.3l-0.6,11l-3.7-0.9l-0.8-4.6L911.8,312.3z"/>
<path class="st4" d="M911.8,312.3l-0.6,11l-3.7-0.9l-0.8-4.6L911.8,312.3z"/>
<path class="st5" d="M925.4,324.7l5.6,1.2l4.2-3.7v-10.4l0.1-1.4v0V310l0.8-11.5c0,0,5.6-19.2,6.5-22.9c0.6-2.6,0.4-10.5,0.2-14.9
	c-0.1-1.8-0.2-3-0.2-3l-12.4-3l-0.3,9.6l-0.9,33.5c-0.1,2.1-0.5,4.2-1.3,6.2l0,0.1c-1.1,2.8-1.7,5.8-1.8,8.8l-0.4,10.6v0.3
	L925.4,324.7z"/>
<path class="st4" d="M925.4,324.7l5.6,1.2l4.2-3.7v-0.9c0,0.2-0.1,0.4-0.2,0.6c-0.1,0.2-0.2,0.3-0.4,0.4l-0.1,0
	c-1.9,1-4.1,1.5-6.3,1.2l-2.2-0.2c-0.2,0-0.4,0.1-0.6,0.1v0.3L925.4,324.7z"/>
<path class="st6" d="M934.5,322.6L934.5,322.6c0.2-0.1,0.4-0.3,0.5-0.5s0.2-0.4,0.2-0.6l0.1-11.2c0,0,1.2-0.9,0.9,3.1
	c-0.3,3.9-0.5,9.8-0.5,9.8s0,6.4-6.2,6.4c0,0-6.1,1.2-6.1-2.3c0-3.5,2.5-3.6,2.5-3.6l2.2,0.2C930.4,324,932.6,323.6,934.5,322.6z"/>
<path class="st5" d="M896,322.3c0.1,2.5,7.6,1.1,7.6,1.1l5-9.7c0,0,4.2-3.2,2.1-6c-0.1-0.2-0.2-0.3-0.3-0.5c0,0,0,0,0,0
	c0-0.1-0.1-0.1-0.1-0.2c-1.5-3-0.8-7.8-0.8-7.8s1.9-14.2,2.6-17.9c0.5-2.6,0.3-11.3,0.1-16.1c-0.1-2-0.1-3.4-0.1-3.4l-12.3-3.3
	c0,0,0,1.5,0,3.7c0,3-0.1,7.3-0.4,10.1c-0.5,4.7,1.4,20.3,1.4,20.3l0.7,14.2c0.1,2.4-0.4,4.8-1.6,6.9c-1.5,2.8-3.6,6.8-3.7,8.6
	C896.1,322.2,896,322.2,896,322.3z"/>
<path class="st4" d="M896,322.3c0.1,2.5,7.6,1.1,7.6,1.1l5-9.7c0,0,4.2-3.2,2.1-6c-0.1-0.2-0.2-0.3-0.3-0.5
	c-0.1,1.5-1.7,5.2-1.7,5.2s-4.1,8.3-5.4,10.1c-1.3,1.9-7-0.4-7.2-0.4C896,322.2,896,322.2,896,322.3z"/>
<path class="st6" d="M910.3,306.9c0,0,2.4-0.6,1.7,5.8c0,0.7-0.1,1.4-0.5,2.1c-0.3,0.6-0.8,1.2-1.5,1.6c-1.7,1.1-4.4,3.5-5.8,8.1
	c0,1-0.3,2-0.9,2.7c-0.6,0.8-1.5,1.3-2.4,1.6c-2.2,0.5-5,1-6.5,0.5c-3-0.8-1.6-2.9-1.6-2.9l3.4-4c0,0,5.9,2.3,7.2,0.4
	c1.3-1.9,5.4-10.1,5.4-10.1S911,307.5,910.3,306.9z"/>
<path class="st4" d="M930.1,255.9l-0.3,9.6c3.3-0.3,5.7-0.8,6.1-1.4c0.9-1.4,4.1-1.9,6.8-2.2c-0.1-1.8-0.2-3-0.2-3L930.1,255.9z"/>
<path class="st4" d="M899.8,263.2c0.3-0.6,0.8-1.2,1.4-1.6c1.3-0.7,1.2,4.7,1.2,4.7s4.4,0,9.9,0c-0.1-2-0.1-3.4-0.1-3.4l-12.3-3.3
	C899.8,259.5,899.8,261.1,899.8,263.2z"/>
<path class="st7" d="M898.4,264.5c0,0,1.5-4,2.8-4.7c1.3-0.7,1.2,4.7,1.2,4.7s32,0.3,33.6-2.2c1.6-2.5,10.9-2.3,10.9-2.3
	s-0.3-30.9-1-42.5c-0.7-11.6-1.9-22.3-4.8-25.5c-1.9-2.1-4.6-8.8-6.2-13.3c-0.9-2.4-1.5-4.2-1.5-4.2l-30.6,1.7l-0.2,2.5l-3.2,32.5
	c0,0-0.4,35.8-1.7,44C896.2,263.3,898.4,264.5,898.4,264.5z"/>
<g class="st8">
	<path class="st4" d="M933.5,262.3c1.6-2.5,10.9-2.3,10.9-2.3s-0.3-30.9-1-42.5c-0.7-11.6-1.9-22.3-4.8-25.5
		c-1.9-2.1-4.6-8.8-6.2-13.3c-0.8-2.1-1.3-3.6-1.5-4.1l2.4-0.1c0,0,0.6,1.8,1.5,4.2c1.7,4.5,4.3,11.2,6.2,13.3
		c2.9,3.2,4.1,13.8,4.8,25.5c0.7,11.7,1,42.5,1,42.5s-9.3-0.1-10.9,2.3c-1.4,2.1-24.9,2.2-31.8,2.2
		C912.9,264.5,932.2,264.2,933.5,262.3z"/>
	<path class="st4" d="M898.7,259.8c0.6-0.3,0.9,0.6,1,1.7c-0.5,1-1,2-1.4,3c0,0-0.8-0.5-1.2-2.8
		C897.6,260.9,898.1,260.1,898.7,259.8z"/>
</g>
<path class="st9" d="M907.8,99.8c-2.1,2.9,0,7-2.2,9.8c-0.7,0.9-1.9,1.6-2.7,2.5c-1.4,1.7-1.4,4-0.7,6c0.7,2,2,3.8,2.9,5.7
	c0.4,0.8,0.7,1.8,0.3,2.6c-0.3,0.6-0.9,1-1.3,1.5c-1.5,1.6-1.5,3.9-0.7,5.8c0.8,1.9,2.3,3.6,3.8,5.2c0.6,0.6,1.3,1.3,2.3,1.3
	c0.5,0,1-0.2,1.4-0.5c3.4-1.7,5.9-4.7,7.2-8.2c1.2-3.6,1.1-7.5-0.5-10.9c-1.2-2.9-3.3-5.8-3.3-8.9c0-2.5,1.3-4.8,1.5-7.3
	c0.3-3-1.5-7.7-5.1-9C910.9,97.3,908.9,98.3,907.8,99.8z"/>
<path class="st4" d="M907.8,99.8c-2.1,2.9,0,7-2.2,9.8c-0.7,0.9-1.9,1.6-2.7,2.5c-1.4,1.7-1.4,4-0.7,6c0.7,2,2,3.8,2.9,5.7
	c0.4,0.8,0.7,1.8,0.3,2.6c-0.3,0.6-0.9,1-1.3,1.5c-1.5,1.6-1.5,3.9-0.7,5.8c0.8,1.9,2.3,3.6,3.8,5.2c0.6,0.6,1.3,1.3,2.3,1.3
	c0.5,0,1-0.2,1.4-0.5c3.4-1.7,5.9-4.7,7.2-8.2c1.2-3.6,1.1-7.5-0.5-10.9c-1.2-2.9-3.3-5.8-3.3-8.9c0-2.5,1.3-4.8,1.5-7.3
	c0.3-3-1.5-7.7-5.1-9C910.9,97.3,908.9,98.3,907.8,99.8z"/>
<path class="st4" d="M931.3,204.8c-4.2,0.2-8.2,2-11.9,4.1c-3.7,2.1-7.3,4.4-11.3,5.9"/>
<path class="st4" d="M928.7,214.7c-4.2,0.4-8.1,2.3-11,5.4c-1,1.1-1.9,2.3-3,3.4c-1.6,1.6-3.7,2.8-5.9,3.3"/>
<path class="st4" d="M929.5,222.3c-3.4,0.9-6.4,2.8-8.8,5.3c-0.7,0.7-1.2,1.5-1.9,2.2c-3.5,3.8-8.5,5.8-13.2,7.7"/>
<path class="st5" d="M929.2,117c0.1,3.4,0.4,6.8,0.9,10.1c0.4,2.4,1,4.5,1.7,5.5c2.3,2.8-11.4,6.5-11.4,6.5l-8.1-6.3
	c0,0,6.4-5.9,3.4-11.7C912.8,115.4,929.2,117,929.2,117z"/>
<path class="st4" d="M902.5,178.7h32.3c-0.9-2.4-1.5-4.2-1.5-4.2l-30.6,1.7L902.5,178.7z"/>
<path class="st10" d="M900.4,178.1H935c-1-3.5,0-6.7,1.4-9.2c1-1.7,2.2-3.3,3.6-4.7l0.2-0.2l12.1-2.7l0.6-0.1c0,0,0.1-21.9-7.7-25
	c-7.8-3-12.4-7.1-12.4-7.1l-10.7,3.3l-7.9-4c-2.5,2.7-9.2,1.6-9.2,1.6c-11,1.3-11,9.5-11,9.5s6.4,14.9,6.9,14.9
	C901.5,154.6,900.4,178.1,900.4,178.1z"/>
<path class="st4" d="M912.3,164.2c0,0-7-1.6-9.4-4.3L912.3,164.2z"/>
<path class="st4" d="M947.9,156l-8.2,6.7c0.1,0.5,0.1,1.1,0.3,1.6l0.2-0.2l12.1-2.7L947.9,156z"/>
<path class="st4" d="M925.8,175.8c0,0,1.8,1,4.5,2.3h4.7c-1-3.5,0-6.7,1.4-9.2l-8.3-2.7C930.9,168.9,925.8,175.8,925.8,175.8z"/>
<path class="st10" d="M899,137.1l-4.9,2.6l-4.8,12c0,0-5,13.2-4.5,16.7c0,0-1.7,8.3,1.4,9.7l8.1,3.7c0.1,0.1,0.3,0.1,0.5,0
	c0.2,0,0.3-0.1,0.4-0.2c0.1-0.1,0.2-0.3,0.2-0.4s0-0.3-0.1-0.5c-1.2-2.2-2.4-5.6-0.4-7.5l-2.3-4.9l8.4-13.8l2.8-4.8L899,137.1z"/>
<path class="st4" d="M909.8,161.4c0.4,1.7,1.8,4.4,6.5,5.3l5.2,4.2l5.5,2.5l2.2,1l0.9-6.8l-2.2-1.2l-2.5-1.4c0,0-5.7-10.3-14.6-5.9
	c-0.4,0.2-0.8,0.5-0.9,1C909.7,160.5,909.6,161,909.8,161.4z"/>
<path class="st5" d="M910,160.8c0.4,1.7,1.8,4.4,6.5,5.3l5.2,4.2l5.5,2.5l2.2,1l0.9-6.8l-2.2-1.2l-2.5-1.4c0,0-5.7-10.3-14.6-5.9
	c-0.4,0.2-0.7,0.5-0.9,0.9C910,159.9,909.9,160.4,910,160.8z"/>
<path class="st4" d="M920.1,125.8c6.9,0,12.5-5.6,12.5-12.5s-5.6-12.5-12.5-12.5s-12.5,5.6-12.5,12.5S913.2,125.8,920.1,125.8z"/>
<path class="st5" d="M920.1,125.6c6.9,0,12.5-5.6,12.5-12.5s-5.6-12.5-12.5-12.5s-12.5,5.6-12.5,12.5S913.2,125.6,920.1,125.6z"/>
<path class="st4" d="M927.9,139.8l-3.8-7.3c0,0,5.5-2.2,5.9-4.8c0.4-2.6,5.3,3,4.2,4.9C933.2,134.4,927.9,139.8,927.9,139.8z"/>
<path class="st10" d="M927.9,139.2l-3.8-7.3c0,0,5.5-2.2,5.9-4.8c0.4-2.6,5.3,3,4.2,4.9C933.2,133.8,927.9,139.2,927.9,139.2z"/>
<path class="st11" d="M897.1,158.1l20.8,28c0,0-7.7,4.2-18.2-3.3l-4.6-5.4l-13-22L897.1,158.1z"/>
<path class="st5" d="M893,173.3l1.9-0.1c0,0,11.6-11.2,14.4-5.6c2.8,5.7-7.2,11-7.2,11l-3.1,1.6l-4,1.2l-2.5-3.4L893,173.3z"/>
<path class="st4" d="M895.8,179.4c0.2,0.6,0.3,1.4,0,2c-0.1,0.2-0.2,0.3-0.3,0.4c-0.1,0-0.3,0.1-0.4,0.1c-1-0.1-1.9-0.5-2.6-1.3
	c-0.7-0.7-1.2-1.6-1.7-2.4c-0.5-0.9-1.1-1.9-0.9-2.9c0.2-1.1,1.2-1.9,2.2-2.5c1.9-1.3,2,0.2,2.4,1.8
	C894.9,176.1,895.3,177.7,895.8,179.4z"/>
<path class="st10" d="M895.5,179.4c0.2,0.6,0.3,1.4,0,2c-0.1,0.2-0.2,0.3-0.3,0.4c-0.1,0-0.3,0.1-0.4,0.1c-1-0.1-1.9-0.5-2.6-1.3
	c-0.7-0.7-1.2-1.6-1.7-2.4c-0.5-0.9-1.1-1.9-0.9-2.9c0.2-1.1,1.2-1.9,2.1-2.5c1.9-1.3,2,0.2,2.4,1.8
	C894.6,176.1,895,177.7,895.5,179.4z"/>
<path class="st4" d="M901,154.6l1-1.6l-0.8,3L901,154.6z"/>
<path class="st4" d="M927.2,172.9l2.2,1l0.9-6.8l-2.2-1.2C929.7,167.6,928.4,170.7,927.2,172.9z"/>
<path class="st4" d="M936.2,164.9c0,0-7.2,0.4-10.3-1.5L936.2,164.9z"/>
<g class="st8">
	<path class="st4" d="M935.3,169.5c1-1.7,2.2-3.3,3.6-4.7c0.3-0.2,0.7-0.4,1.1-0.6l11.2-2.3l0.7-0.1c0,0,0.1-21.9-7.7-25
		c-4.4-1.7-8.4-4-12.1-6.8l0.9-0.3c0,0,4.7,4.1,12.4,7.1c7.8,3,7.7,25,7.7,25h-1.2l-11.5,2.2c0,0-0.5,0.5-0.6,0.6
		c-1.4,1.4-2.7,3.1-3.7,4.9c-1.5,2.8-1.9,6.1-1,9.2h-1.2C932.9,175.2,933.9,172,935.3,169.5z"/>
	<path class="st4" d="M904.6,130.8c0.2,0,0.4-0.1,0.6-0.1c0.8,0.1,1.6,0.2,2.4,0.2C906.6,131,905.6,130.9,904.6,130.8z"/>
	<path class="st4" d="M921.1,133.1l-7.1-3.6c0.1-0.1,0.3-0.2,0.4-0.4l7.4,3.8L921.1,133.1z"/>
</g>
<path class="st10" d="M948.2,155.4l4.8,5.8l1,15.8c0,0,1.3,8.1-8,6.1c-9.2-1.9-19.9-7.9-19.9-7.9s5.2-6.9,2.3-9.5l13.2,4.3
	c0,0,2.2-0.5,0.5-2.4c-1.7-1.9-2.1-5.4-2.1-5.4L948.2,155.4z"/>
<path class="st4" d="M950.3,172.1l2.6,3c-0.7-0.2-1.3-0.6-1.7-1.1C950.7,173.5,950.4,172.8,950.3,172.1z"/>
<path class="st4" d="M945.9,171.6l4.1,5.2l-2,0.5L945.9,171.6z"/>
<path class="st4" d="M905.2,107.3c-0.4-1.1-0.1-2.4,0.4-3.4c0.5-1,1.3-2,1.7-3.1c0.6-1.7,0.4-3.5,1.1-5.2c1.2-2.9,4.4-4.2,7.4-5.2
	c0.9-0.3,1.8-0.6,2.7-0.4c1.2,0.3,2,1.4,2.9,2.1c4,3,10.5-0.3,14.3,2.8c1.5,1.2,2.2,3.1,2.4,5c0.2,1.9,0,3.8,0,5.7
	c-0.1,3.3,0.6,7,3.1,9.2c0.8,0.7,1.6,1.2,2.4,1.9c0.7,0.7,1.3,1.7,1.2,2.7c-0.1,0.5-0.2,0.9-0.4,1.3c-0.5,1.7,0.2,3.6,1.2,5.2
	c2.7,4.7,7.4,8.5,12.8,8.6c-0.4,2.7-3.2,4.3-5.7,5.4c-3.2,1.4-6.5,2.8-10,2.6c-3.5-0.2-7.1-2.4-7.7-5.9c-0.2-1.2-0.2-2.6-1.2-3.2
	c-0.6-0.4-1.4-0.3-2.1-0.6c-1-0.4-1.4-1.5-1.8-2.5c-0.6-2.1-1-4.2-1-6.3c0-2.6,0.3-5.3-1.2-7.4c-1.3-1.9-3.7-2.9-5.3-4.7
	c-1.4-1.7-3-3.7-5.3-4C913.8,107.6,907.1,112,905.2,107.3z"/>
<path class="st9" d="M905.2,106.7c-0.4-1.1-0.1-2.4,0.4-3.4c0.5-1,1.3-2,1.7-3.1c0.6-1.7,0.4-3.5,1.1-5.2c1.2-2.9,4.4-4.2,7.4-5.2
	c0.9-0.3,1.8-0.6,2.7-0.4c1.2,0.3,2,1.4,2.9,2.1c4,3,10.5-0.3,14.3,2.8c1.5,1.2,2.2,3.1,2.4,5c0.2,1.9,0,3.8,0,5.7
	c-0.1,3.3,0.6,7,3.1,9.2c0.8,0.7,1.6,1.2,2.4,1.9c0.7,0.7,1.3,1.7,1.2,2.7c-0.1,0.5-0.2,0.9-0.4,1.3c-0.5,1.7,0.2,3.6,1.2,5.2
	c2.7,4.6,7.4,8.5,12.8,8.6c-0.4,2.7-3.2,4.3-5.7,5.4c-3.2,1.4-6.5,2.8-10,2.6c-3.5-0.2-7.1-2.4-7.7-5.9c-0.2-1.2-0.2-2.6-1.2-3.2
	c-0.6-0.4-1.4-0.3-2.1-0.6c-1-0.4-1.4-1.5-1.8-2.5c-0.6-2.1-1-4.2-1-6.3c0-2.6,0.3-5.3-1.2-7.4c-1.3-1.9-3.7-2.9-5.3-4.7
	c-1.4-1.7-3-3.7-5.3-4C913.8,107,907.1,111.4,905.2,106.7z"/>
<path class="st4" d="M914.1,138.9l7.2-5.8c0,0-4.9-2.7-5.5-4.9c-0.6-2.3-4.5,1.1-4.1,3.1C912,133.3,914.1,138.9,914.1,138.9z"/>
<path class="st10" d="M914.4,138l7.2-5.8c0,0-4.9-2.7-5.5-4.9c-0.6-2.3-4.5,1.1-4.1,3.1C912.3,132.4,914.4,138,914.4,138z"/>
<path class="st4" d="M921.8,137.6c0.3,0,0.6-0.3,0.6-0.6c0-0.3-0.3-0.6-0.6-0.6s-0.6,0.3-0.6,0.6
	C921.2,137.4,921.5,137.6,921.8,137.6z"/>
<path class="st4" d="M921.8,140.8c0.3,0,0.6-0.3,0.6-0.6c0-0.3-0.3-0.6-0.6-0.6s-0.6,0.3-0.6,0.6
	C921.2,140.5,921.5,140.8,921.8,140.8z"/>
<path class="st4" d="M921.8,144c0.3,0,0.6-0.3,0.6-0.6s-0.3-0.6-0.6-0.6s-0.6,0.3-0.6,0.6S921.5,144,921.8,144z"/>
<g class="st8">
	<path class="st4" d="M908.1,98.6c0.6-1.6,0.4-3.3,1-4.9c-0.2,0.3-0.4,0.7-0.6,1.1c-0.7,1.6-0.5,3.5-1.1,5.2l0,0.1
		C907.6,99.6,907.9,99.1,908.1,98.6z"/>
	<path class="st4" d="M953.4,137.8c-3.2,1.4-6.5,2.8-10,2.6c-3.5-0.2-7.1-2.4-7.7-5.9c-0.2-1.2-0.2-2.6-1.2-3.2
		c-0.6-0.4-1.4-0.3-2.1-0.6c-1-0.4-1.4-1.5-1.8-2.5c-0.7-2.1-1-4.2-1-6.3c0-2.5,0.3-5.3-1.1-7.4c-1.3-1.9-3.7-2.9-5.3-4.7
		c-1.4-1.7-3-3.7-5.3-4c-3.2-0.4-9.9,4-11.8-0.7c-0.3-0.9-0.3-1.9,0.1-2.7c-0.1,0.2-0.3,0.5-0.4,0.7c-0.5,1.1-0.9,2.3-0.4,3.4
		c1.9,4.7,8.6,0.3,11.8,0.7c2.3,0.3,3.9,2.3,5.3,4c1.5,1.8,3.9,2.8,5.3,4.7c1.5,2.1,1.1,4.9,1.2,7.4c0,2.2,0.4,4.3,1,6.3
		c0.3,1,0.8,2.1,1.8,2.5c0.7,0.3,1.5,0.2,2.1,0.6c1,0.6,1,2.1,1.2,3.2c0.6,3.4,4.3,5.7,7.7,5.9c3.5,0.2,6.9-1.2,10-2.6
		c2.3-1,4.9-2.4,5.5-4.8C957.1,136,955.2,137,953.4,137.8z"/>
</g>
<linearGradient id="SVGID_2_" gradientUnits="userSpaceOnUse" x1="999.1735" y1="-202986" x2="999.1735" y2="-58576.9062" gradientTransform="matrix(1 0 0 -1 0 442)">
	<stop  offset="0" style="stop-color:#808080;stop-opacity:0.25"/>
	<stop  offset="0.54" style="stop-color:#808080;stop-opacity:0.12"/>
	<stop  offset="1" style="stop-color:#808080;stop-opacity:0.1"/>
</linearGradient>
<path class="st12" d="M1035.9,144.2c-8.9-5.1-12.2-6.3-12.2-6.3l-0.2-0.1c-1-0.7-1.7-1.7-2.2-2.8c0-0.2,0-0.4,0-0.6c0,0,0,0,0,0.1
	c0.1-2.7,2.1-5.2,3.9-7.3l4.6-5.5c0.5-0.5,0.9-1.2,1.2-1.9c0.1-0.4,0.1-0.8,0.1-1.2c0-0.2,0-0.3,0-0.5c0-1.4-0.1-2.7-0.1-4.1
	c0-1.2-0.3-2.7-1.5-2.9c-0.6-0.1-1.4,0.1-1.8-0.4c-0.1-0.2-0.1-0.5-0.1-0.7c0,0,0,0,0,0.1v-0.1c0.2-0.9,0.4-1.9,0.4-2.8
	c0-0.5,0-1-0.2-1.4c-0.7-2-3.1-2.8-5.2-3.2c-2.1-0.4-4.5-0.7-5.8-2.3c-0.3-0.5-0.7-1.1-1.1-1.6c-0.6-0.5-1.3-0.9-2.1-1.1
	c-2.6-0.6-5.3-0.4-7.8,0.7c-1,0.5-2,1.1-3.1,1c-1.1-0.1-2.1-0.9-3.3-1.1c-1.8-0.3-3.6,1-4.5,2.6c-0.5,0.9-0.8,2-0.8,3.1v0.2
	c0,1.2,0.4,2.3,1.2,3.2c0.8,0.8,2,1.4,2.3,2.5c0.1,0.4,0.1,0.9,0.2,1.4c0,0.1,0,0.1,0,0.2l-0.1,0.1c-1.9,2.4-2.9,5.4-2.9,8.5
	c0,3,1,5.9,2.8,8.3c1.8,2.4,4.3,4.2,7.1,5.1c0,0.1,0,0.3,0,0.4c0,1.7-0.5,3.4-1.9,4.7l-12.5,5c0,0-7.6-0.9-10.3,10.2
	c-0.4,1.8-0.6,3.7-0.5,5.6c0.1,1.7-0.1,4.6-2.1,8.4c-3.1,6.1-2.4,20,3.9,21.4c6,1.3,8.3,0.8,8.6,0.7v0.2c-0.1,2.6-1,25.2-4.5,27.9
	c-1,0.8-0.8,1.3,0,1.6c0,0,0,0.1,0,0.4c-0.1,1.7-0.6,7.9-2.9,11.5c-2.7,4.1-2.4,28-2.4,28l-1.8,14.1c0,0,1.1,8.7,0,10.2
	c-1,1.4-2.3,33.5-2.6,40.5h-0.1c-0.6,0-1.1,0.2-1.6,0.5c-0.5,0.3-0.9,0.7-1.1,1.2c-1.5,2.4-6.7,6.9-6.7,6.9
	c-1.1,1.6-5.3,3.1-7.5,3.8c-0.3,0.1-0.6,0.2-0.8,0.4c-0.8,0.4-1.5,1.1-1.9,2c-0.1,0.3-0.2,0.5-0.3,0.8c0,0.3,0,0.6,0.1,0.9
	c0.6,1.4,12.3,2.3,15.2,1c2.3-1.1,11.5-2.5,15.4-3.1c0.7-0.1,1.3-0.4,1.8-0.9c0.5-0.5,0.8-1.1,0.9-1.8c0-0.2,0-0.5,0-0.7
	c-0.1-0.2-0.2-0.5-0.3-0.6c-0.7-0.9-1.1-3.4-1.3-5c0.3-0.1,0.6-0.3,0.9-0.5c-0.3-5,0.4-10,2.1-14.8c2.8-7.5,3.7-21.3,3-30.2
	c0,0,8.6-37,15.4-40.4c0.1,0.1,3.4,4.3,3.8,17.4c0.4,13.3,5.2,21.9,5.2,21.9s-2.1,22.5,0,30.9l-2.8,13.3c-0.2-0.2-0.3-0.3-0.3-0.3
	s0.1,0.4,0.2,1l-0.1,0.3l0.1,0c0.3,1.7,0.8,4.6,0.6,6.3c-0.1,1-0.4,2.3-0.6,3.6c-0.3,2-0.4,4,0.7,4.5c1.8,0.7,12.1,1.7,13.9-0.6
	c0.4-0.5,0.7-1,0.7-1.6c0.1-0.6,0-1.2-0.2-1.8c-0.1-0.3-0.3-0.6-0.5-0.9c0,0-2.8-4.5-2-7.7c0.1-0.3,0.1-0.6,0-0.9
	c-0.1-0.3-0.2-0.6-0.4-0.9c0.1-1.6,0.8-8.8,2.4-14.9c1.8-6.6,5.5-21.2,2.7-30.8c-0.1-0.4-0.2-0.7-0.3-1.1
	c-1.6-5.2-2.1-10.7-1.5-16.1c-1-4.6-1-9.4,0-14.1c1.7-7.7,2.9-15.3,2.9-15.3s0.9-10.2,0.1-16.5c0-0.1,0-0.3-0.1-0.4l0.4-0.1
	c0,0-2.4-10.6-3.2-17.4c-0.2-1.6-0.5-3.6-0.7-5.8c0.8-0.1,1.6-0.3,2.3-0.6c7.6-2.6,10-26.4,10-26.4v-7.5
	C1042.2,160.8,1044.8,149.3,1035.9,144.2z M979.2,327.5c-0.2-0.1-0.4-0.2-0.4-0.2L979.2,327.5z"/>
<path class="st13" d="M1031.4,281.1c3.3,9.5-0.6,24.9-2.3,31.8c-1.8,6.9-2.3,15.1-2.3,15.1c-7,1.1-12.1-0.3-12.1-0.3l2.9-14.2
	c-2.1-8.4,0-30.8,0-30.8s-4.7-8.7-5.1-21.8c-0.4-13-3.6-17.2-3.7-17.3c-6.6,3.4-15,40.3-15,40.3c0.7,8.9-0.1,22.7-2.9,30.1
	c-1.7,4.7-2.4,9.7-2.1,14.7c-1,0.8-2.3,1-3.8,0.7c-3.9-0.6-8.6-4-8.6-4s1.5-40.1,2.6-41.6c1.1-1.5,0-10.2,0-10.2l1.8-14
	c0,0-0.3-23.8,2.3-27.9c2.3-3.6,2.8-9.8,2.9-11.5c0-0.3,0-0.4,0-0.4l4-4.8c0,0,38.5-2.9,41.4,0c0.7,0.7,1.1,2.3,1.4,4.3
	c0.8,6.2-0.1,16.4-0.1,16.4s-1.2,7.6-2.8,15.2c-1,4.6-1,9.4,0,14C1029.3,270.4,1029.8,275.9,1031.4,281.1z"/>
<path class="st3" d="M1028.8,341.5c-1.7,2.2-11.7,1.3-13.4,0.6c-1-0.4-1-2.4-0.7-4.4c0.2-1.3,0.4-2.6,0.5-3.5
	c0.3-2.4-0.8-7.4-0.8-7.4s2.2,2.4,2.8,0c0.2-1,1.1-1.6,1.9-1.8c1.2-0.4,2.4-0.3,3.5,0.2c1.8,0.8,4.7,2.4,4.2,4.6
	c-0.7,3.1,1.9,7.6,1.9,7.6c0.2,0.3,0.4,0.5,0.5,0.9c0.2,0.6,0.3,1.2,0.2,1.8C1029.4,340.5,1029.1,341.1,1028.8,341.5z"/>
<path class="st4" d="M1028.7,341.6c-1.7,2.2-11.7,1.3-13.4,0.6c-1-0.4-1-2.4-0.7-4.4c1.1,0.5,2.9,0.9,6,0.6c0.7-0.1,1.4-0.1,2.1-0.1
	c2.2,0.1,4.3,0.1,6.5-0.1c0.2,0.5,0.3,1.1,0.2,1.7C1029.4,340.5,1029.1,341.1,1028.7,341.6z"/>
<path class="st4" d="M993.5,283.9c0.7,8.9-0.1,22.6-2.9,30c-1.7,4.7-2.4,9.7-2.1,14.7c-1,0.8-2.3,1-3.8,0.7
	c0.8-5.8,4.4-30.7,6.7-50.4c2.6-22.4,14.7-37.9,14.7-37.9l2.4,2.6C1001.9,247.1,993.5,283.9,993.5,283.9z"/>
<path class="st14" d="M1024.7,139.2l-1.7,8.3l-8.3,13.9l-10.2-4.4c0,0-13.9-14.5-5.1-16.6c1-0.2,2-0.7,2.9-1.3
	c1.7-1.3,2.2-3.2,2.3-5c-0.1-2.1-0.5-4.1-1.4-6l17.8-5.6c-0.7,2.3-1.2,4.8-1.3,7.2c-0.1,4.9,1.7,7.3,3.1,8.4
	C1023.5,138.6,1024.1,139,1024.7,139.2z"/>
<path class="st4" d="M1021.2,122.5c-0.7,2.4-1.1,4.8-1.3,7.3c-0.3,0.4-0.7,0.8-1,1.1c-1.8,1.8-4.1,3-6.6,3.6
	c-2.5,0.6-5.1,0.5-7.5-0.3c-0.1-2.1-0.5-4.1-1.4-6L1021.2,122.5z"/>
<path class="st14" d="M1023.2,120.4c0,2.8-0.8,5.5-2.4,7.8c-1.5,2.3-3.7,4.1-6.3,5.2c-2.6,1.1-5.4,1.3-8.1,0.8
	c-2.7-0.5-5.2-1.9-7.2-3.8c-2-2-3.3-4.5-3.9-7.2c-0.5-2.7-0.3-5.6,0.8-8.1c1.1-2.6,2.9-4.8,5.2-6.3c2.3-1.5,5-2.4,7.8-2.4
	c1.8,0,3.7,0.3,5.4,1.1c1.7,0.7,3.3,1.7,4.6,3c1.3,1.3,2.4,2.9,3,4.6C1022.8,116.7,1023.2,118.5,1023.2,120.4z"/>
<path class="st4" d="M1024.7,139.4l-1.7,8.2l-8.3,13.8l-10.2-4.3c0,0-13.9-14.4-5.1-16.5c1-0.2,2-0.7,2.9-1.3
	c-1.6,4.3,4.9,13.2,4.9,13.2c0.8,1.1,2.5,0.4,2.5,0.4c4.2-0.6,11.9-12.6,13.1-14.6C1023.4,138.8,1024.1,139.2,1024.7,139.4z"/>
<path class="st4" d="M1032.7,219.2c-2.4,0.5-16,3.4-21.1,2.7c-5.6-0.8-16.6-1.3-16.6-1.3s-7,0.4-9.1-0.6c0-0.3,0-0.4,0-0.4l4-4.6
	c0,0,38.5-2.8,41.4,0C1032,215.7,1032.4,217.2,1032.7,219.2z"/>
<path class="st15" d="M1007.3,152.8c0,0-7.2-10-4.5-14l-12.2,5c0,0-7.4-0.9-10,10.1c-0.4,1.8-0.6,3.7-0.5,5.6c0.1,1.7-0.1,4.6-2,8.4
	c-3,6-2.3,19.9,3.8,21.3c6.2,1.4,8.4,0.7,8.4,0.7s-0.8,25.1-4.4,28c-3.6,2.9,9.1,2.2,9.1,2.2s10.9,0.6,16.6,1.4
	c5.6,0.8,21.4-2.9,21.4-2.9s-2.3-10.6-3.2-17.3c-0.8-6.7-2.8-21.1-2.8-21.1l14-19c0,0,2.5-11.5-6.2-16.6s-11.9-6.3-11.9-6.3
	s-8.7,14.2-13.2,14.8C1009.8,153.2,1008.1,153.9,1007.3,152.8z"/>
<path class="st4" d="M991.4,157c0,0-0.1,4.5,0.7,6.3c0.8,1.8,3.8,11.6,3.8,11.6h-6.7c0,0,3.6-3.9,3.4-5.9
	C992.2,167.1,991.4,157,991.4,157z"/>
<path class="st14" d="M1011.8,191.1c0,0-15.2-3.7-16.6-6.9c-1.4-3.2-5.3-10.3-5.3-10.3l1.6-2.2l7.4,5.8c0,0,8.8,7.1,12.9,7.8
	C1016,186,1011.8,191.1,1011.8,191.1z"/>
<path class="st16" d="M1011.8,191.1c0,0-15.2-3.7-16.6-6.9c-1.4-3.2-5.3-10.3-5.3-10.3l1.6-2.2l7.4,5.8c0,0,8.8,7.1,12.9,7.8
	C1016,186,1011.8,191.1,1011.8,191.1z"/>
<path class="st14" d="M1024.7,173.4v8.1h-1.3c-6.5,0-12.9,1.6-18.6,4.8l-2.5,1.4l-0.7,0.4l-4.3-9.5l4-3.5h0.2c1,0.1,5.2,0.4,7-0.2
	c1.7-0.6,3.8-2.4,8.8-1.1c2.5,0.6,4.6,3.3,6.9,2.5L1024.7,173.4z"/>
<path class="st4" d="M1038.2,158.1l2.8,3.1v7.5c0,0-2.3,23.7-9.8,26.3c-7.5,2.6-20.8-1.5-20.8-1.5s-3.5-9.1-1.8-9.6
	c1.6-0.5,14.2-3.9,14.2-3.9s-0.2-13.9,2.6-18c0,0-1.8-13,4.4-13.2C1036,148.4,1038.2,158.1,1038.2,158.1z"/>
<path class="st15" d="M1038.6,158.1l2.8,3.1v7.5c0,0-2.3,23.7-9.8,26.3c-7.5,2.6-20.8-1.5-20.8-1.5s-3.5-9.1-1.8-9.6
	c1.6-0.5,14.2-3.9,14.2-3.9s-0.2-13.9,2.6-18c0,0-1.8-13,4.4-13.2C1036.4,148.4,1038.6,158.1,1038.6,158.1z"/>
<path class="st4" d="M1019.2,126.3c0.1-0.9,0-1.8-0.3-2.7c-0.4-0.8-1.3-1.5-2.2-1.3c-1.2,0.3-1.7,1.8-2.8,2.2c-1,0.3-2-0.4-2.5-1.3
	c-0.5-0.9-0.5-2-0.5-3c0-1.1,0-2.3,0-3.4c0-1.3,0-2.6-0.8-3.6c-1-1.2-3.2-1.8-4.8-1.7c-1,0-2,0.4-2.7,1.1c-0.8,0.7-1.7,1.2-2.8,1
	c-0.5-0.1-0.9-0.3-1.2-0.6c-0.4-0.3-0.6-0.7-0.7-1.1v0c1.2-1.5,2.7-2.8,4.4-3.8c1.7-0.9,3.6-1.5,5.5-1.7c1.9-0.2,3.9,0,5.8,0.6
	c1.9,0.6,3.6,1.6,5,2.9c1.5,1.3,2.6,2.9,3.4,4.6c0.8,1.8,1.2,3.7,1.3,5.6c0,1.9-0.4,3.9-1.1,5.6c-0.8,1.8-1.9,3.4-3.3,4.7
	C1019,129.1,1019.2,127.7,1019.2,126.3z"/>
<path class="st17" d="M999.8,113.4c-0.5-0.1-0.9-0.3-1.2-0.6c-0.4-0.3-0.6-0.7-0.7-1.1c-0.1-0.4-0.1-0.9-0.2-1.4
	c-0.3-1.1-1.5-1.6-2.2-2.5c-1.5-1.6-1.4-4.3-0.4-6.3c0.9-1.6,2.6-2.9,4.4-2.6c1.1,0.2,2.1,1,3.2,1.1c1.1,0.1,2.1-0.5,3.1-1
	c2.4-1.1,5.1-1.3,7.6-0.7c0.8,0.2,1.5,0.5,2.1,1.1c0.4,0.5,0.8,1,1.1,1.6c1.3,1.6,3.6,1.9,5.6,2.3c2.1,0.4,4.4,1.2,5,3.1
	c0.4,1.3,0,2.7-0.2,4.1c-0.1,0.3-0.1,0.6,0,0.8c0.3,0.5,1.1,0.3,1.7,0.4c1.2,0.2,1.5,1.7,1.5,2.9c0,1.4,0.1,2.7,0.1,4.1
	c0,0.5,0,1-0.1,1.5c-0.2,0.7-0.7,1.4-1.2,1.9l-4.5,5.4c-2,2.4-4.1,5.2-3.8,8.4c-1,0.4-2.1-0.4-2.4-1.4c-0.3-1-0.1-2.1,0.2-3.1
	c0.4-1.8,0.6-3.6,0.7-5.4c0.1-0.9,0-1.8-0.3-2.7c-0.4-0.8-1.3-1.5-2.2-1.3c-1.2,0.3-1.7,1.8-2.8,2.2c-1,0.3-2-0.4-2.5-1.3
	c-0.5-0.9-0.5-2-0.5-3v-3.4c0-1.3,0-2.6-0.8-3.6c-1-1.2-3.2-1.8-4.7-1.7c-1,0-2,0.4-2.7,1.1C1001.8,113.1,1000.9,113.6,999.8,113.4z
	"/>
<path class="st4" d="M1002.9,156.6l4.4,17.4C1007.3,174.1,1010.8,174.1,1002.9,156.6z"/>
<path class="st4" d="M1017.6,153.5c0,0-5.7,9.3-3.5,19l1.1,0.1C1015.2,172.5,1013.3,168,1017.6,153.5z"/>
<path class="st4" d="M1021.2,205.9c0,0,7-2.3,7.5,3.1C1028.7,209,1027.4,205.3,1021.2,205.9z"/>
<path class="st4" d="M1001.4,175.3c0,0-1.4,9.5,1.1,13.4c0,0-5.1,2-12.2,1.6l-0.8-15H1001.4z"/>
<path class="st4" d="M1002.2,187.6l-0.7,0.4l-4.1-9.5l3.9-3.5h0.2C1001.4,175.3,1000.3,183.5,1002.2,187.6z"/>
<path class="st15" d="M1001.4,174.9c0,0-1.4,9.5,1.1,13.4c0,0-5.1,2.1-12.2,1.6l-4.9-15H1001.4z"/>
<path class="st3" d="M989.4,335.7c-0.1,0.7-0.4,1.3-0.9,1.8c-0.5,0.5-1.1,0.8-1.8,0.9c-3.8,0.6-12.8,2-15.1,3
	c-2.9,1.4-14.4,0.4-15-1c-0.1-0.3-0.1-0.6-0.1-0.8c0-0.3,0.1-0.6,0.3-0.8c0.4-0.8,1-1.5,1.9-2c0.3-0.1,0.6-0.3,0.8-0.4
	c2.2-0.7,6.3-2.2,7.4-3.8c0,0,5.1-4.4,6.6-6.8c0.3-0.5,0.7-0.9,1.1-1.1c0.5-0.3,1-0.5,1.5-0.5c1.2-0.1,2.6,0.5,3.1,3.2
	c0,0,6.6,3.7,8.4,0.5c0,0,0.3,5,1.4,6.4c0.2,0.2,0.3,0.4,0.3,0.7C989.5,335.3,989.5,335.5,989.4,335.7z"/>
<path class="st4" d="M989.4,335.6c-0.1,0.7-0.4,1.3-0.9,1.8c-0.5,0.5-1.1,0.8-1.8,0.9c-3.8,0.6-12.8,2-15.1,3.1
	c-2.9,1.4-14.4,0.4-15-1c-0.1-0.3-0.1-0.6-0.1-0.9c0-0.3,0.1-0.6,0.3-0.8c0.4-0.8,1-1.5,1.9-2c1.9,1.3,6,2.5,15.2,1
	c8.7-1.4,13.1-2.7,15.2-3.6c0.2,0.2,0.3,0.4,0.3,0.7C989.5,335.1,989.5,335.4,989.4,335.6z"/>
<g class="st8">
	<path class="st4" d="M1026.9,110.5L1026.9,110.5c0.2-1.1,0.5-2.2,0.4-3.2c-0.1,0.8-0.2,1.7-0.4,2.5
		C1026.9,110.1,1026.9,110.3,1026.9,110.5z"/>
	<path class="st4" d="M1018.9,123.4c0.2,0.5,0.3,1,0.3,1.6c0.1-0.7,0-1.5-0.3-2.2c-0.4-0.8-1.3-1.5-2.2-1.3
		c-1.2,0.3-1.7,1.8-2.8,2.2c-1,0.3-2-0.4-2.5-1.3c-0.5-0.9-0.5-2-0.5-3c0-1.2,0-2.3,0-3.5c0-1.3,0-2.6-0.8-3.6
		c-1-1.2-3.2-1.8-4.7-1.7c-1,0-2,0.4-2.7,1.1c-0.8,0.7-1.7,1.2-2.8,1c-0.5-0.1-0.9-0.3-1.2-0.6c-0.3-0.3-0.6-0.7-0.7-1.1
		c-0.1-0.4-0.1-0.9-0.2-1.4c-0.3-1.1-1.5-1.6-2.3-2.5c-0.7-0.8-1.1-1.8-1.2-2.9c-0.1,0.6,0,1.3,0.2,1.9c0.2,0.6,0.5,1.2,0.9,1.6
		c0.8,0.8,1.9,1.4,2.3,2.5c0.1,0.4,0.1,0.9,0.2,1.4c0.1,0.4,0.4,0.8,0.7,1.1c0.3,0.3,0.8,0.5,1.2,0.6c1.1,0.2,2-0.3,2.8-1
		c0.7-0.7,1.7-1.1,2.7-1.1c1.5,0,3.8,0.5,4.7,1.7c0.8,1,0.8,2.3,0.8,3.6c0,1.2,0,2.3,0,3.4c0,1,0,2.1,0.5,3c0.5,0.9,1.5,1.6,2.5,1.3
		c1.1-0.4,1.7-1.9,2.8-2.2C1017.6,122,1018.5,122.6,1018.9,123.4z"/>
	<path class="st4" d="M1030.2,119.6c-0.2,0.7-0.7,1.4-1.2,1.9l-4.6,5.5c-1.9,2.3-3.9,5-3.8,7.9c0.1-2.7,2-5.1,3.8-7.3l4.6-5.5
		c0.5-0.5,0.9-1.2,1.2-1.9c0.1-0.5,0.2-1,0.1-1.5C1030.3,119,1030.3,119.3,1030.2,119.6z"/>
	<path class="st4" d="M1018.4,134c-0.1-0.2-0.1-0.5-0.1-0.7c0,0.5,0,0.9,0.1,1.4c0.3,1,1.5,1.8,2.4,1.4c0-0.2,0-0.4-0.1-0.6
		C1019.8,135.8,1018.7,134.9,1018.4,134z"/>
</g>
<path class="st4" d="M972.4,327.1c0,0,1.5,2.5,6.7,0.3L972.4,327.1z"/>
<path class="st4" d="M1016.8,327.9c0,0,4.4,5,9.9,1.6L1016.8,327.9z"/>
<path class="st4" d="M1029.9,265.2c0,0-3.5,1.8-3.6,2.9c-0.1,1,1.8-0.8,1.8-0.8L1029.9,265.2z"/>
<path class="st4" d="M1031.1,280.3c-1.1,0.9-2.6,1.5-4.1,1.5c-2.5,0.1-2.3,3.2-0.7,2.3S1031.1,280.3,1031.1,280.3z"/>
<path class="st4" d="M1031.5,282.3c0,0-1.5,7.6-2.8,6.2L1031.5,282.3z"/>
<path class="st1" d="M784.6,322.2c5.9,0,10.7-0.8,10.7-1.8c0-1-4.8-1.8-10.7-1.8s-10.7,0.8-10.7,1.8
	C774,321.4,778.7,322.2,784.6,322.2z"/>
<path class="st1" d="M742.6,347.8c5.9,0,10.7-0.8,10.7-1.8c0-1-4.8-1.8-10.7-1.8s-10.7,0.8-10.7,1.8
	C731.9,347,736.7,347.8,742.6,347.8z"/>
<path class="st1" d="M1064.4,358.8c5.9,0,10.7-0.8,10.7-1.8c0-1-4.8-1.8-10.7-1.8c-5.9,0-10.7,0.8-10.7,1.8
	C1053.7,358,1058.5,358.8,1064.4,358.8z"/>
<path class="st1" d="M976,320.8c5.9,0,10.7-0.8,10.7-1.8s-4.8-1.8-10.7-1.8s-10.7,0.8-10.7,1.8S970.1,320.8,976,320.8z"/>
<path class="st18" d="M858.5,137.9l1.6-0.7c0,0,1.9,0.7,1.9,3.6c0,2.9-2.4,45.1-2.4,45.1l4.8,23.1l-6.5,1.2l-10.1-21.4L858.5,137.9z
	"/>
<path class="st13" d="M857.5,205.3c0,0,7.5,2.9,7,8.1c-0.6,5.2-8.1,108.7-8.1,108.7l2.3,11.6l-22.1,0.6l-0.6-74.6l-15.7,74.6h-22.1
	L814,203L857.5,205.3z"/>
<path class="st13" d="M855.4,331.5l5.2,5.2c0,0,12.2,2.3,9.3,6.3c-2.9,4-33.2-1.2-33.2-1.2l0.6-9.2L855.4,331.5z"/>
<path class="st13" d="M817.9,331.5l5.2,5.2c0,0,12.1,2.3,9.2,6.3c-2.9,4-32.9-1.2-32.9-1.2l0.6-9.2L817.9,331.5z"/>
<path class="st19" d="M838.7,117c7.7,0,13.9-6.2,13.9-13.9c0-7.7-6.2-13.9-13.9-13.9c-7.7,0-13.9,6.2-13.9,13.9
	C824.8,110.8,831.1,117,838.7,117z"/>
<path class="st19" d="M847.4,111.4l-1.2,23.4l-17.9-10.3l2.3-13.1H847.4z"/>
<path class="st20" d="M828,118.6l16.6,12.2l2.9-8.7l5.1,13.9l-2.9,25L828,118.6z"/>
<path class="st18" d="M828.1,117l18.4,25.5l0.7-21.3l5.7,4.5v4.6l8.1,7.5l-2.9,28.9l-0.6,34.1c0,0,3.5,2.9,2.3,4.6
	c-1.2,1.7-5.8,5.8-10.9,5.8c-5.2,0-37.5-4.1-37.5-6.4c0-2.3,1.2-32.4,1.2-32.4V132l13.8-10.4L828.1,117z"/>
<path class="st19" d="M809.8,213.1l7.4,11.3l2.9-13.1l-3.4-2.4L809.8,213.1z"/>
<path class="st21" d="M846.4,229.9l-11.1,30.2l1.1,0.4l11.1-30.2L846.4,229.9z"/>
<path class="st13" d="M830.8,89.4c0,0,1.7-8.8,11.4-7l-1.1,0.6c0,0,9.1-1.2,8,4.1c0,0,7.4,4.7,5.7,9.9c-1,3-1.8,6.2-2.3,9.3
	l-1.7-1.8c0,0-1.7-11.7-12-10.5c-7.7,0.9-10.8,4.6-11.6,7.3c-0.4,1.3-0.8,2.5-1.4,3.7l-0.6,0.1C825.1,105.1,821.7,92.3,830.8,89.4z"
	/>
<path class="st18" d="M818.5,131.5l-5.3-0.2l-1.1,0.8c-1.3,1.3-2.4,2.6-3.5,4c-1.2,1.7-16.2,43.8-16.2,43.8
	c-0.3,2.6,0.1,5.1,1.2,7.5c1.7,4,15.7,28.3,15.7,28.3l10.4-6.3l-13.9-28.3l9.9-13.8L818.5,131.5z"/>
</svg>
