<svg width="708" height="488" viewBox="0 0 708 488" fill="none" xmlns="http://www.w3.org/2000/svg">
<mask id="mask0" mask-type="alpha" maskUnits="userSpaceOnUse" x="0" y="0" width="708" height="488">
<rect width="708" height="488" fill="#C4C4C4"/>
</mask>
<g mask="url(#mask0)">
<path d="M886.33 335.644C838.421 386.079 804.801 363.962 754.914 380.631C694.686 400.755 711.534 436.861 726.006 505.922C744.097 592.249 729.517 666.774 667.598 699.454C605.679 732.135 325.062 735.195 256.158 527.568C187.254 319.942 426.67 272.264 478.131 236.373C529.593 200.482 517.051 61.6129 580.104 40.7221C643.157 19.8314 721.721 78.8831 818.776 153.359C892.099 209.624 934.239 285.21 886.33 335.644Z" fill="#FFC600"/>
<g clip-path="url(#clip0)">
<path d="M529.733 457.628C521.143 450.369 515.925 438.902 517.293 427.739C518.662 416.575 527.137 406.313 538.131 403.942C549.126 401.572 561.658 408.134 564.997 418.873C566.835 398.168 568.953 376.595 579.961 358.962C589.929 342.996 607.194 331.571 625.905 329.528C644.616 327.484 664.316 335.203 675.985 349.971C687.654 364.74 690.511 386.209 682.339 403.165C676.318 415.655 665.226 424.95 653.604 432.513C616.05 456.743 571.008 466.597 526.767 460.261L529.733 457.628Z" fill="#7CBF9A"/>
<path d="M657.482 335.631C642.043 348.206 627.88 362.27 615.197 377.62C595.347 401.561 579.285 428.402 567.569 457.21C566.712 459.312 570.124 460.227 570.972 458.148C590.141 411.33 620.743 370.064 659.978 338.126C661.739 336.692 659.229 334.208 657.482 335.631Z" fill="white"/>
<path d="M232.006 455.655C243.805 445.685 250.972 429.935 249.092 414.603C247.213 399.27 235.572 385.174 220.471 381.918C205.371 378.662 188.157 387.675 183.571 402.426C181.046 373.987 178.138 344.356 163.018 320.138C149.327 298.208 125.614 282.517 99.9145 279.71C74.2151 276.903 47.1569 287.505 31.1292 307.789C15.1014 328.073 11.1771 357.562 22.4025 380.85C30.6719 398.006 45.907 410.773 61.8696 421.16C112.796 454.297 175.97 468.118 236.081 459.272" fill="#7CBF9A"/>
<path d="M56.5428 288.093C77.748 305.365 97.2015 324.682 114.622 345.765C132.045 366.827 147.384 389.529 160.424 413.552C167.713 427.028 174.261 440.892 180.038 455.082C181.216 457.968 176.529 459.225 175.364 456.37C165.131 431.354 152.471 407.4 137.565 384.853C122.732 362.388 105.754 341.415 86.8707 322.228C76.1902 311.381 64.9214 301.13 53.1153 291.52C50.6954 289.55 54.1429 286.138 56.5428 288.093L56.5428 288.093Z" fill="white"/>
<path d="M497.655 461.286H216.143V172.448C216.143 110.995 266.138 61 327.591 61H386.207C447.659 61 497.655 110.995 497.655 172.448V461.286Z" fill="#E8F7F6"/>
<path d="M439.038 461.286H216.143V172.448C216.082 148.9 223.538 125.948 237.427 106.933C237.939 106.235 238.449 105.547 238.976 104.865C245.694 96.0544 253.688 88.2948 262.696 81.8426C263.204 81.4724 263.715 81.1086 264.234 80.7448C271.771 75.5291 279.923 71.2653 288.507 68.0506C289.017 67.8574 289.536 67.6638 290.055 67.4781C297.817 64.7078 305.865 62.8102 314.047 61.8202C314.555 61.7509 315.075 61.6967 315.596 61.6424C323.57 60.7898 331.613 60.7898 339.587 61.6424C340.106 61.6967 340.627 61.7509 341.14 61.8209C349.321 62.811 357.366 64.7084 365.127 67.4782C365.646 67.6638 366.165 67.8574 366.676 68.051C375.154 71.2252 383.211 75.4253 390.667 80.5577C391.185 80.9135 391.704 81.2773 392.215 81.6411C397.264 85.245 402.006 89.26 406.393 93.6451C409.912 97.1624 413.19 100.912 416.207 104.868C416.732 105.547 417.243 106.235 417.754 106.932C431.643 125.947 439.1 148.9 439.038 172.448V461.286Z" fill="#44797B"/>
<path d="M420.914 332.099C427.729 332.099 433.254 326.574 433.254 319.759C433.254 312.944 427.729 307.419 420.914 307.419C414.098 307.419 408.573 312.944 408.573 319.759C408.573 326.574 414.098 332.099 420.914 332.099Z" fill="#44797B"/>
<path d="M474.593 452.635H465.137L460.639 416.163L474.595 416.164L474.593 452.635Z" fill="#FFB8B8"/>
<path d="M458.383 449.933H476.619V461.415H446.901C446.901 459.907 447.198 458.414 447.775 457.021C448.352 455.628 449.198 454.362 450.264 453.296C451.33 452.23 452.596 451.384 453.989 450.807C455.382 450.23 456.875 449.933 458.383 449.933Z" fill="#2F2E41"/>
<path d="M521.64 452.635H512.184L507.686 416.163L521.642 416.164L521.64 452.635Z" fill="#FFB8B8"/>
<path d="M505.43 449.933H523.666V461.415H493.948C493.948 459.907 494.246 458.414 494.823 457.021C495.4 455.628 496.245 454.362 497.311 453.296C498.378 452.23 499.643 451.384 501.036 450.807C502.429 450.23 503.922 449.933 505.43 449.933Z" fill="#2F2E41"/>
<path d="M427.159 322.204C426.479 321.202 426.027 320.062 425.834 318.866C425.642 317.671 425.714 316.447 426.046 315.282C426.378 314.117 426.961 313.039 427.754 312.124C428.547 311.208 429.532 310.478 430.638 309.985L462.781 221.392L478.597 230.024L441.897 314.686C442.603 316.599 442.583 318.705 441.84 320.604C441.098 322.503 439.684 324.064 437.867 324.991C436.051 325.918 433.957 326.146 431.984 325.632C430.01 325.118 428.294 323.899 427.159 322.204Z" fill="#FFB8B8"/>
<path d="M516.81 338.851C515.759 338.248 514.853 337.423 514.156 336.432C513.459 335.442 512.987 334.31 512.774 333.118C512.562 331.926 512.613 330.701 512.925 329.53C513.236 328.36 513.801 327.272 514.579 326.343L504.621 232.628L522.621 233.45L526.759 325.632C528.233 327.042 529.138 328.943 529.303 330.976C529.468 333.008 528.882 335.031 527.656 336.66C526.43 338.29 524.648 339.413 522.649 339.816C520.65 340.22 518.573 339.876 516.81 338.851Z" fill="#FFB8B8"/>
<path d="M488.095 204.982C498.557 204.982 507.038 196.501 507.038 186.039C507.038 175.577 498.557 167.096 488.095 167.096C477.633 167.096 469.152 175.577 469.152 186.039C469.152 196.501 477.633 204.982 488.095 204.982Z" fill="#FFB8B8"/>
<path d="M516.689 317.537H459.579L459.648 317.093C459.751 316.428 469.826 250.425 462.395 228.832C461.649 226.71 461.715 224.387 462.579 222.311C463.443 220.234 465.045 218.551 467.076 217.584H467.076C477.698 212.582 498.087 206.423 515.296 221.371C517.828 223.606 519.806 226.401 521.072 229.532C522.338 232.664 522.858 236.048 522.592 239.415L516.689 317.537Z" fill="#44797B"/>
<path d="M470.548 260.179L444.837 254.963L456.889 226.403C457.61 223.637 459.399 221.27 461.863 219.821C464.327 218.372 467.266 217.96 470.033 218.674C472.801 219.389 475.173 221.172 476.628 223.633C478.083 226.093 478.502 229.031 477.794 231.8L470.548 260.179Z" fill="#44797B"/>
<path d="M503.478 269.865L501.932 234.432C500.76 227.771 504.573 221.474 510.437 220.445C516.303 219.42 522.031 224.039 523.208 230.749L529.018 263.858L503.478 269.865Z" fill="#44797B"/>
<path d="M514.789 313.295C523.978 348.292 524.981 392.789 522.502 441.325L510.161 439.782L487.795 347.231L475.455 441.325L461.572 440.554C457.424 389.627 453.386 345.908 460.029 317.151L514.789 313.295Z" fill="#2F2E41"/>
<path d="M500.577 200.679C497.043 204.443 490.48 202.423 490.02 197.28C489.984 196.881 489.986 196.479 490.027 196.08C490.265 193.802 491.581 191.734 491.266 189.329C491.195 188.73 490.972 188.16 490.618 187.671C487.802 183.9 481.191 189.358 478.534 185.944C476.904 183.851 478.82 180.555 477.569 178.216C475.919 175.128 471.03 176.651 467.964 174.96C464.553 173.079 464.757 167.845 467.002 164.662C469.741 160.78 474.542 158.708 479.283 158.409C484.025 158.111 488.734 159.393 493.16 161.118C498.19 163.078 503.177 165.787 506.272 170.209C510.036 175.587 510.398 182.818 508.516 189.106C507.371 192.932 503.463 197.605 500.577 200.679Z" fill="#2F2E41"/>
<path d="M663.848 461.782H94.428C94.1849 461.782 93.952 461.685 93.7804 461.513C93.6087 461.34 93.5123 461.107 93.5123 460.864C93.5123 460.621 93.6087 460.388 93.7804 460.216C93.952 460.044 94.1849 459.947 94.428 459.946H663.848C664.091 459.947 664.324 460.044 664.495 460.216C664.667 460.388 664.763 460.621 664.763 460.864C664.763 461.107 664.667 461.34 664.495 461.513C664.324 461.685 664.091 461.782 663.848 461.782Z" fill="#3F3D56"/>
<path d="M377.723 377.604H277.459C276.138 377.611 274.869 377.094 273.929 376.167C272.989 375.239 272.456 373.977 272.445 372.656V148.859C272.456 147.538 272.989 146.276 273.929 145.348C274.869 144.421 276.138 143.904 277.459 143.911H377.723C379.043 143.904 380.313 144.421 381.253 145.348C382.192 146.276 382.726 147.538 382.736 148.859V372.656C382.726 373.977 382.192 375.239 381.253 376.167C380.313 377.094 379.043 377.611 377.723 377.604Z" fill="white"/>
<path d="M382.736 216.325H272.445V217.867H382.736V216.325Z" fill="#CCCCCC"/>
<path d="M383.122 304.334H272.831V305.876H383.122V304.334Z" fill="#CCCCCC"/>
<path d="M308.695 143.911H307.152V378.375H308.695V143.911Z" fill="#CCCCCC"/>
<path d="M347.258 143.911H345.715V378.375H347.258V143.911Z" fill="#CCCCCC"/>
<path opacity="0.8" d="M141.763 151.354L160.929 144.007L144.588 133.861L157.169 113.837L134.623 122.383L128.543 98.5946L116.617 126.54L90.827 124.561L102.974 141.381L80.3092 159.976L109.133 158.471L102.769 190.56L125.186 161.306L144.501 172.992L141.763 151.354Z" fill="#E8F7F6"/>
<path opacity="0.8" d="M592.747 178.587L581.36 179.609L588.967 188.334L579.546 197.894L592.929 196.749L593.196 211.698L603.275 197.394L617.077 202.958L612.611 191.047L627.345 184.046L611.443 180.001L619.02 162.324L603.056 175.601L594.025 165.467L592.747 178.587Z" fill="#E8F7F6"/>
</g>
</g>
<defs>
<clipPath id="clip0">
<rect width="671" height="401.164" fill="white" transform="translate(16 61)"/>
</clipPath>
</defs>
</svg>
