<?xml version="1.0" encoding="utf-8"?>
<!-- Generator: Adobe Illustrator 24.2.3, SVG Export Plug-In . SVG Version: 6.00 Build 0)  -->
<svg version="1.1" id="Layer_1" xmlns="http://www.w3.org/2000/svg" xmlns:xlink="http://www.w3.org/1999/xlink" x="0px" y="0px"
	 viewBox="0 0 229 207" style="enable-background:new 0 0 229 207;" xml:space="preserve">
<style type="text/css">
	.st0{fill:#FFC600;}
	.st1{fill:#9F616A;}
	.st2{fill:#7CBF9A;}
	.st3{fill:#2F2E41;}
	.st4{opacity:0.2;enable-background:new    ;}
	.st5{fill:#3F3D56;}
	.st6{fill:#E6E6E6;}
	.st7{fill:#FFFFFF;}
</style>
<path class="st0" d="M116.4,241.1c-11.3-12.1-27.2-19.2-43.2-25.3c-16-6.1-32.6-11.6-46.3-21.1c-8.9-6.1-16.8-14.9-16.3-26.3
	c0.6-11,8.8-21.4,17.1-30.3c6.3-6.7,13.2-13.3,21.5-16.7c5.8-2.3,11.9-2.8,17.8-4.6c20.5-6.2,35.2-26.5,43.9-46.1
	c4.1-9.2,7.4-18.6,12.5-27.3c5.2-8.8,12.5-17.1,21.9-21.2c9.3-4.1,19.3-3.5,28.1-1.1c17.8,4.9,31.7,16.7,44.3,28.9
	c27.9,27.1,51.9,57.9,75.8,88.6c8.8,11.4,17.7,22.8,24.5,35.6c3.8,7.1,6.9,15.1,5.5,23.8c-1.8,11-11.6,21.6-22.8,24.8
	c-18.8,5.3-36.8-9-55-1c-10,4.4-16.9,14.5-21.4,24.2c-9.7,21-13.1,45.3-30.8,61.5c-12.2,11.1-29.8,15.7-43.6,11.5
	c-14.5-4.4-25.1-18.6-20.9-34.5C133.3,268.2,126.4,251.7,116.4,241.1z"/>
<path class="st1" d="M165.1,105.7l-2,4.7l-12.5,16.5c0,0-8.5,9.2-3.8,9.7c4.7,0.5,7.9-8.5,7.9-8.5l14.6-14.5l1.6-6.6L165.1,105.7z"
	/>
<path class="st2" d="M171.3,86.4l-2,0.5c0,0-8.8,23.4-8,26.3c0.8,2.8,4.5,6.4,6.1,6.1C169.1,119.1,171.3,86.4,171.3,86.4z"/>
<path class="st3" d="M198.7,206.7c0,0-0.9,4.3,1.7,2.6c2.6-1.7,3.9-5.1,3.9-5.1L198.7,206.7z"/>
<path class="st3" d="M168.1,109.3c0,0-27.5,96.9-17.7,99.8c9.7,2.8,24.1-0.3,24-2.2c-0.1-1.9-2.6-39.4-2.6-39.4s14.2,49.8,31.8,38.2
	c17.6-11.6,13.7-13.8,12-14.6c-1.6-0.8-26.1-39.4-26-46.6c0.1-7.2-0.3-29.6-3.2-33L168.1,109.3z"/>
<path class="st3" d="M185.5,74.9c-1.1-1-1.7-2.3-1.8-3.7c-0.1-1.4,0.3-2.8,1.1-4c-0.1,0.1-0.2,0.2-0.3,0.3c-1,1.1-1.5,2.6-1.5,4.1
	c0.1,1.5,0.7,2.9,1.9,3.9c1.1,1,2.6,1.5,4.1,1.5c1.5-0.1,2.9-0.7,3.9-1.9c0.1-0.1,0.2-0.2,0.3-0.4c-1,1-2.4,1.5-3.8,1.5
	C188,76.3,186.6,75.8,185.5,74.9z"/>
<path class="st3" d="M185,76.2c6.5,0,11.7-5.2,11.7-11.7s-5.2-11.7-11.7-11.7c-6.5,0-11.7,5.2-11.7,11.7S178.5,76.2,185,76.2z"/>
<path class="st3" d="M153.5,208.7c0,0-3.1,3.1,0,3.1c3.1,0,6.1-2,6.1-2L153.5,208.7z"/>
<path class="st1" d="M177.6,71.8c0,0,2,8.4,0.5,10c-1.5,1.6-4.7,2.8-4.7,2.8l0.5,15.2c0,0,6.2-2.2,6.5-2.4c0.3-0.3,5.8-9.1,5.8-9.1
	l5.4-5.1c0,0-8.3-3.9-5.8-10.7C188.2,65.7,177.6,71.8,177.6,71.8z"/>
<path class="st1" d="M189.5,69c0.6-3.8-2-7.5-5.8-8.1c-3.8-0.6-7.5,2-8.1,5.8c-0.6,3.8,2,7.5,5.8,8.1
	C185.3,75.5,188.9,72.9,189.5,69z"/>
<path class="st2" d="M186.4,111.5c0,0,3.1-10.3,4.6-11.6c1.5-1.4,5.1-14.1,5.1-14.1s-2.3-3.1-4.2-3.1c-1.9,0-3.7,0.7-5.8,2.7
	c-1,1-2.9,2-4.6,2.9c-0.6,0.3-1.2,0.5-1.9,0.5c-0.7,0.1-1.3,0-2-0.2c-0.6-0.2-1.2-0.5-1.7-1c-0.5-0.4-0.9-1-1.2-1.6
	c-0.3-0.7-0.4-1.4-0.1-1.9c0,0-5,1.4-5.3,3.2c-0.3,1.9,0,5.8-0.4,6.6c-0.4,0.8-1.6,2-1.1,7.2c0.5,5.1-0.6,11.6-0.6,11.6
	C172.3,117.5,179.3,114.6,186.4,111.5z"/>
<path class="st3" d="M182.5,65.7c3.3,0,6-1.8,6-4.1c0-2.2-2.7-4.1-6-4.1c-3.3,0-6,1.8-6,4.1C176.5,63.8,179.2,65.7,182.5,65.7z"/>
<path class="st3" d="M192.6,61.3c3.1,0,5.7-2.5,5.7-5.7c0-3.1-2.5-5.7-5.7-5.7s-5.7,2.5-5.7,5.7C187,58.8,189.5,61.3,192.6,61.3z"/>
<path class="st3" d="M196.7,59.7c-1.4,0-2.8-0.5-3.8-1.5c-1-1-1.7-2.3-1.8-3.7c0,0.2,0,0.3,0,0.5c0,1.5,0.6,3,1.7,4
	c1.1,1.1,2.5,1.7,4,1.7c1.5,0,3-0.6,4-1.7c1.1-1.1,1.7-2.5,1.7-4v0c0-0.2,0-0.3,0-0.5c-0.1,1.4-0.8,2.7-1.8,3.7
	C199.5,59.2,198.1,59.7,196.7,59.7z"/>
<path class="st2" d="M183.4,146.7h-1.9l-3.8,33l12.5-0.4L183.4,146.7z"/>
<path class="st4" d="M183.4,146.7h-1.9l-3.8,33l12.5-0.4L183.4,146.7z"/>
<path class="st2" d="M182.7,146.2l-2.3,33.2l28.3,2.1l2.3-32.3L182.7,146.2z"/>
<path class="st4" d="M192.3,149.6c0.2,0,0.4-0.2,0.4-0.4s-0.2-0.4-0.4-0.4c-0.2,0-0.4,0.2-0.4,0.4S192,149.6,192.3,149.6z"/>
<path class="st4" d="M201.1,150.7c0.2,0,0.4-0.2,0.4-0.4s-0.2-0.4-0.4-0.4c-0.2,0-0.4,0.2-0.4,0.4S200.9,150.7,201.1,150.7z"/>
<path class="st5" d="M201.2,150.2H201c0-0.1,0.1-8.9-4.9-9.8c-1-0.2-1.8,0.1-2.4,0.7c-2.1,2.1-1.2,8-1.2,8l-0.2,0
	c0-0.2-0.9-6,1.3-8.2c0.7-0.7,1.5-0.9,2.6-0.7C201.3,141.1,201.2,150.1,201.2,150.2z"/>
<path class="st1" d="M196.5,104.4l-0.7,7.6l1.4,22.7c0,0,3.1,11.5-1.6,11.2c-4.7-0.3-3-12-3-12l-2.2-26.4L196.5,104.4z"/>
<path class="st2" d="M192.6,83.9l3.5,1.9c0,0,4.7,32.2,2,35.3c-2.7,3.1-8.3,4.3-8.5,3.1c-0.3-1.2-1.2-26-1.2-26L192.6,83.9z"/>
<path class="st6" d="M66.2,42.5h-3.9c-0.1,0-0.3,0.1-0.4,0.2c-0.1,0.1-0.2,0.2-0.2,0.4v1.7c0,0.1,0.1,0.3,0.2,0.4
	c0.1,0.1,0.2,0.2,0.4,0.2h0.7v2.6h2.6v-2.6h0.7c0.1,0,0.3-0.1,0.4-0.2c0.1-0.1,0.2-0.2,0.2-0.4V43c0-0.1-0.1-0.3-0.2-0.4
	C66.4,42.6,66.3,42.5,66.2,42.5z"/>
<path class="st6" d="M70.1,58.4c-2.4-3.5-3.7-7.8-3.5-12c0-0.1,0-0.2-0.1-0.3c-0.1-0.1-0.1-0.1-0.2-0.2v-0.7h-4.2v0.7H62
	c-0.1,0-0.1,0-0.2,0c-0.1,0-0.1,0.1-0.1,0.1c0,0-0.1,0.1-0.1,0.1c0,0.1,0,0.1,0,0.2c0,0,0,0,0,0c0.3,4.6-0.8,8.7-3.3,12.3
	c-0.1,0.2-0.2,0.5-0.2,0.7l0.5,14.1c0,0.3,0.1,0.6,0.4,0.8c0.2,0.2,0.5,0.3,0.8,0.3h9.4c0.3,0,0.6-0.1,0.8-0.4
	c0.2-0.2,0.4-0.5,0.4-0.8l0.2-13.7C70.5,59.3,70.4,58.8,70.1,58.4z"/>
<path class="st7" d="M68.6,63h-8.2c-0.1,0-0.2,0-0.4,0.1c-0.1,0.1-0.2,0.1-0.3,0.2c-0.1,0.1-0.1,0.2-0.2,0.3c0,0.1,0,0.2,0,0.4
	l1.2,8.1h7.1l1.5-8c0-0.1,0-0.2,0-0.4c0-0.1-0.1-0.2-0.2-0.3c-0.1-0.1-0.2-0.2-0.3-0.2C68.9,63.1,68.7,63,68.6,63L68.6,63z"/>
<path class="st6" d="M110.1,84.7h-3.9c-0.1,0-0.3,0.1-0.4,0.2c-0.1,0.1-0.2,0.2-0.2,0.4V87c0,0.1,0.1,0.3,0.2,0.4
	c0.1,0.1,0.2,0.2,0.4,0.2h0.7v2.6h2.6v-2.6h0.7c0.1,0,0.3-0.1,0.4-0.2c0.1-0.1,0.2-0.2,0.2-0.4v-1.7c0-0.1-0.1-0.3-0.2-0.4
	C110.4,84.8,110.3,84.7,110.1,84.7z"/>
<path class="st6" d="M114.1,100.6c-2.4-3.5-3.7-7.8-3.5-12c0-0.1,0-0.2-0.1-0.3c-0.1-0.1-0.1-0.1-0.2-0.2v-0.7H106v0.7H106
	c-0.1,0-0.1,0-0.2,0c-0.1,0-0.1,0.1-0.1,0.1c0,0-0.1,0.1-0.1,0.1c0,0.1,0,0.1,0,0.2c0,0,0,0,0,0c0.3,4.6-0.8,8.7-3.3,12.3
	c-0.1,0.2-0.2,0.5-0.2,0.7l0.5,14.1c0,0.3,0.1,0.6,0.4,0.8c0.2,0.2,0.5,0.3,0.8,0.3h9.4c0.3,0,0.6-0.1,0.8-0.4
	c0.2-0.2,0.4-0.5,0.4-0.8l0.2-13.7C114.5,101.5,114.3,101,114.1,100.6z"/>
<path class="st7" d="M112.6,105.3h-8.2c-0.1,0-0.2,0-0.4,0.1c-0.1,0-0.2,0.1-0.3,0.2c-0.1,0.1-0.1,0.2-0.2,0.3c0,0.1,0,0.2,0,0.4
	l1.2,8.1h7.1l1.5-8c0-0.1,0-0.2,0-0.4c0-0.1-0.1-0.2-0.2-0.3c-0.1-0.1-0.2-0.2-0.3-0.2C112.8,105.3,112.7,105.3,112.6,105.3
	L112.6,105.3z"/>
<path class="st6" d="M60.6,144.5h-1.9c-0.1,0-0.1,0-0.2,0.1c0,0-0.1,0.1-0.1,0.2v0.8c0,0.1,0,0.1,0.1,0.2c0,0,0.1,0.1,0.2,0.1h0.3
	v1.2h1.3v-1.2h0.3c0.1,0,0.1,0,0.2-0.1c0,0,0.1-0.1,0.1-0.2v-0.8c0-0.1,0-0.1-0.1-0.2C60.7,144.5,60.7,144.5,60.6,144.5z"/>
<path class="st6" d="M62.5,152c-1.1-1.7-1.7-3.7-1.7-5.7c0,0,0-0.1,0-0.1s-0.1-0.1-0.1-0.1v-0.4h-2v0.4h0c0,0-0.1,0-0.1,0
	c0,0,0,0-0.1,0c0,0,0,0,0,0.1c0,0,0,0.1,0,0.1c0,0,0,0,0,0c0.2,2.1-0.4,4.1-1.6,5.8c-0.1,0.1-0.1,0.2-0.1,0.3l0.2,6.7
	c0,0.2,0.1,0.3,0.2,0.4c0.1,0.1,0.2,0.2,0.4,0.2H62c0.2,0,0.3-0.1,0.4-0.2c0.1-0.1,0.2-0.3,0.2-0.4l0.1-6.5
	C62.7,152.4,62.6,152.2,62.5,152z"/>
<path class="st7" d="M61.8,154.5h-4.3v2.1h4.3V154.5z"/>
<path class="st6" d="M69.3,144.5h-1.9c-0.1,0-0.1,0-0.2,0.1c0,0-0.1,0.1-0.1,0.2v0.8c0,0.1,0,0.1,0.1,0.2c0,0,0.1,0.1,0.2,0.1h0.3
	v1.2H69v-1.2h0.3c0.1,0,0.1,0,0.2-0.1c0,0,0.1-0.1,0.1-0.2v-0.8c0,0,0-0.1,0-0.1c0,0,0-0.1-0.1-0.1
	C69.5,144.5,69.5,144.5,69.3,144.5C69.4,144.5,69.4,144.5,69.3,144.5z"/>
<path class="st6" d="M71.2,152c-1.1-1.7-1.7-3.7-1.7-5.7c0,0,0-0.1,0-0.1s-0.1-0.1-0.1-0.1v-0.4h-2v0.4h0c0,0-0.1,0-0.1,0
	c0,0,0,0-0.1,0c0,0,0,0,0,0.1c0,0,0,0.1,0,0.1c0,0,0,0,0,0c0.2,2.1-0.4,4.1-1.6,5.8c-0.1,0.1-0.1,0.2-0.1,0.3l0.2,6.7
	c0,0.2,0.1,0.3,0.2,0.4c0.1,0.1,0.3,0.2,0.4,0.2h4.5c0.2,0,0.3-0.1,0.4-0.2c0.1-0.1,0.2-0.3,0.2-0.4l0.1-6.5
	C71.4,152.4,71.3,152.2,71.2,152z"/>
<path class="st7" d="M70.6,154.5h-4.3v2.1h4.3V154.5z"/>
<path class="st6" d="M78,144.5h-1.9c-0.1,0-0.1,0-0.2,0.1c0,0-0.1,0.1-0.1,0.2v0.8c0,0.1,0,0.1,0.1,0.2c0,0,0.1,0.1,0.2,0.1h0.3v1.2
	h1.3v-1.2H78c0.1,0,0.1,0,0.2-0.1c0,0,0.1-0.1,0.1-0.2v-0.8c0-0.1,0-0.1-0.1-0.2C78.2,144.5,78.1,144.5,78,144.5z"/>
<path class="st6" d="M79.9,152c-1.1-1.7-1.7-3.7-1.7-5.7c0,0,0-0.1,0-0.1s-0.1-0.1-0.1-0.1v-0.4h-2v0.4h0c0,0-0.1,0-0.1,0
	c0,0,0,0-0.1,0s0,0,0,0.1c0,0,0,0.1,0,0.1c0,0,0,0,0,0c0.2,2.1-0.4,4.1-1.6,5.8c-0.1,0.1-0.1,0.2-0.1,0.3l0.2,6.7
	c0,0.2,0.1,0.3,0.2,0.4c0.1,0.1,0.3,0.2,0.4,0.2h4.5c0.2,0,0.3-0.1,0.4-0.2c0.1-0.1,0.2-0.3,0.2-0.4l0.1-6.5
	C80.1,152.4,80.1,152.2,79.9,152z"/>
<path class="st7" d="M79.3,154.5H75v2.1h4.3V154.5z"/>
<path class="st6" d="M103.3,128.1h-3.9c-0.1,0-0.3,0.1-0.4,0.2c-0.1,0.1-0.2,0.2-0.2,0.4v1.7c0,0.1,0.1,0.3,0.2,0.4
	c0.1,0.1,0.2,0.2,0.4,0.2h0.7v2.6h2.6v-2.6h0.7c0.1,0,0.1,0,0.2,0c0.1,0,0.1-0.1,0.2-0.1c0,0,0.1-0.1,0.1-0.2c0-0.1,0-0.1,0-0.2
	v-1.7c0-0.1-0.1-0.3-0.2-0.4C103.5,128.2,103.4,128.1,103.3,128.1z"/>
<path class="st6" d="M107.2,144c-2.4-3.5-3.7-7.8-3.5-12c0-0.1,0-0.2-0.1-0.3c-0.1-0.1-0.1-0.1-0.2-0.2v-0.7h-4.2v0.7h-0.1
	c-0.1,0-0.1,0-0.2,0c-0.1,0-0.1,0.1-0.1,0.1c0,0-0.1,0.1-0.1,0.1c0,0.1,0,0.1,0,0.2c0,0,0,0,0,0c0.3,4.6-0.8,8.7-3.3,12.3
	c-0.1,0.2-0.2,0.5-0.2,0.7l0.5,14.1c0,0.3,0.1,0.6,0.4,0.8c0.2,0.2,0.5,0.3,0.8,0.3h9.4c0.3,0,0.6-0.1,0.8-0.4
	c0.2-0.2,0.4-0.5,0.4-0.8l0.2-13.7C107.6,144.9,107.5,144.4,107.2,144z"/>
<path class="st7" d="M105.7,148.7h-8.2c-0.1,0-0.2,0-0.4,0.1c-0.1,0.1-0.2,0.1-0.3,0.2c-0.1,0.1-0.1,0.2-0.2,0.3c0,0.1,0,0.2,0,0.4
	l1.2,8.1h7.1l1.5-8c0-0.1,0-0.2,0-0.4c0-0.1-0.1-0.2-0.2-0.3c-0.1-0.1-0.2-0.2-0.3-0.2C106,148.7,105.8,148.7,105.7,148.7
	L105.7,148.7z"/>
<path class="st6" d="M105.4,76.5H81.9c1.6-8.9,1.3-19.6,0-31.2h23.5C104.2,56.8,103.8,67.6,105.4,76.5z"/>
<path class="st7" d="M93.8,65.7c3.1,0,5.7-2.5,5.7-5.7c0-3.1-2.5-5.7-5.7-5.7c-3.1,0-5.7,2.5-5.7,5.7C88.1,63.2,90.7,65.7,93.8,65.7
	z"/>
<path class="st6" d="M83.9,117.9H60.3c1.6-8.9,1.3-19.6,0-31.2h23.5C82.6,98.2,82.3,109,83.9,117.9z"/>
<path class="st7" d="M72.2,107.1c3.1,0,5.7-2.5,5.7-5.7c0-3.1-2.5-5.7-5.7-5.7c-3.1,0-5.7,2.5-5.7,5.7
	C66.6,104.6,69.1,107.1,72.2,107.1z"/>
<path class="st6" d="M118.7,78.5H95.2c1.6-8.9,1.3-19.6,0-31.2h23.5C117.5,58.8,117.1,69.6,118.7,78.5z"/>
<path class="st7" d="M107.1,67.7c3.1,0,5.7-2.5,5.7-5.7c0-3.1-2.5-5.7-5.7-5.7c-3.1,0-5.7,2.5-5.7,5.7
	C101.4,65.1,104,67.7,107.1,67.7z"/>
<path class="st6" d="M118.7,77H95.2c1.6-8.9,1.3-19.6,0-31.2h23.5C117.5,57.4,117.1,68.1,118.7,77z"/>
<path class="st7" d="M107.1,66.3c3.1,0,5.7-2.5,5.7-5.7c0-3.1-2.5-5.7-5.7-5.7c-3.1,0-5.7,2.5-5.7,5.7
	C101.4,63.7,104,66.3,107.1,66.3z"/>
<path class="st6" d="M118.7,78.5H95.2c1.6-8.9,1.3-19.6,0-31.2h23.5C117.5,58.8,117.1,69.6,118.7,78.5z"/>
<path class="st7" d="M107.1,67.7c3.1,0,5.7-2.5,5.7-5.7c0-3.1-2.5-5.7-5.7-5.7c-3.1,0-5.7,2.5-5.7,5.7
	C101.4,65.1,104,67.7,107.1,67.7z"/>
<path class="st6" d="M124.1,74.8H47v8.5h77.1V74.8z"/>
<path class="st6" d="M124.1,117H47v8.5h77.1V117z"/>
<path class="st6" d="M124.1,159.3H47v8.5h77.1V159.3z"/>
</svg>
