<svg width="406" height="288" viewBox="0 0 406 288" fill="none" xmlns="http://www.w3.org/2000/svg">
<g clip-path="url(#clip0)">
<path opacity="0.1" d="M134.978 287.423C154.75 287.423 170.778 284.849 170.778 281.673C170.778 278.498 154.75 275.923 134.978 275.923C115.206 275.923 99.178 278.498 99.178 281.673C99.178 284.849 115.206 287.423 134.978 287.423Z" fill="#67A3A3"/>
<path opacity="0.1" d="M329.583 287.585C354.255 287.585 374.256 285.01 374.256 281.835C374.256 278.659 354.255 276.085 329.583 276.085C304.911 276.085 284.91 278.659 284.91 281.835C284.91 285.01 304.911 287.585 329.583 287.585Z" fill="#67A3A3"/>
<path opacity="0.1" d="M5.08476 124.257H42.373V175.081H7.8146C7.72275 175.603 7.63457 176.128 7.53905 176.653H42.373V217.641C42.3105 217.623 42.2554 217.601 42.1966 217.579C41.2119 217.19 40.2346 216.778 39.2573 216.337L38.6327 216.054C37.653 215.591 36.6732 215.101 35.6935 214.585C35.3518 214.405 35.0101 214.217 34.6721 214.026C29.2329 210.979 24.2917 207.119 20.0199 202.578C19.895 202.456 19.7774 202.328 19.6525 202.21C19.0573 201.564 18.4731 200.91 17.9073 200.241L17.2827 199.506C16.614 198.687 15.9674 197.845 15.3391 196.993C15.2473 196.868 15.1591 196.743 15.0636 196.626C12.5084 193.083 10.3868 189.247 8.74414 185.199C8.69271 185.078 8.64862 184.946 8.60085 184.832C8.09628 183.534 7.64927 182.223 7.25982 180.901C7.09081 180.346 6.92915 179.798 6.78954 179.222C6.7381 179.053 6.69401 178.887 6.65359 178.722C4.56672 170.577 4.32056 162.115 4.32056 153.713C4.32056 152.732 4.32056 151.747 4.32056 150.773C4.32056 147.375 4.36097 143.954 4.41976 140.537C4.41976 139.652 4.4565 138.77 4.47487 137.881C4.5263 135.625 4.59979 133.369 4.69531 131.113C4.71736 130.485 4.74675 129.86 4.77982 129.236C4.77982 128.876 4.79819 128.516 4.83493 128.156C4.92311 126.848 4.99659 125.551 5.08476 124.257Z" fill="#67A3A3"/>
<path opacity="0.1" d="M42.3733 67.6693H21.9197C25.2445 62.4652 28.8773 57.4645 32.7986 52.6937C35.8371 48.9609 39.0445 45.3235 42.3733 41.8185V67.6693Z" fill="#67A3A3"/>
<path opacity="0.1" d="M42.3733 69.2418V122.685H5.20264C5.20264 122.531 5.22835 122.373 5.23938 122.218C5.27244 121.796 5.30551 121.373 5.34225 120.954C5.38267 120.462 5.42675 119.966 5.47452 119.485C5.52228 119.003 5.57372 118.416 5.62883 117.883C5.68394 117.35 5.73538 116.81 5.79784 116.277C5.8603 115.745 5.91541 115.212 5.98154 114.683C6.04767 114.154 6.10646 113.617 6.17627 113.088C6.23138 112.647 6.29016 112.21 6.34895 111.769C6.43345 111.148 6.52163 110.524 6.61716 109.906C6.61716 109.815 6.64287 109.719 6.65757 109.631C7.32816 105.112 8.24188 100.633 9.39475 96.2132C10.6015 91.5765 12.1426 87.0332 14.0057 82.6191C15.9859 78.0015 18.3044 73.5363 20.9424 69.2602L42.3733 69.2418Z" fill="#67A3A3"/>
<path opacity="0.1" d="M51.2754 124.254V175.081H130.918V124.254H51.2754ZM51.2754 176.65V220.298C51.731 220.393 52.1829 220.485 52.6311 220.562C53.241 220.68 53.8472 220.786 54.4682 220.878C54.5857 220.897 54.707 220.915 54.8356 220.926C55.0781 220.966 55.3279 220.999 55.5704 221.032C56.184 221.117 56.7939 221.187 57.4074 221.242C57.6977 221.271 57.9916 221.297 58.2855 221.319L58.9946 221.374C59.3804 221.404 59.7625 221.426 60.1409 221.437C60.3761 221.437 60.6112 221.459 60.8537 221.466C61.0374 221.466 61.2211 221.466 61.4122 221.466C61.6032 221.466 61.8751 221.466 62.1066 221.466C62.4225 221.466 62.7385 221.466 63.0508 221.466H63.4733C63.7893 221.466 64.1053 221.466 64.4176 221.437H64.4396C64.6564 221.437 64.8768 221.437 65.0973 221.407C65.1584 221.411 65.2198 221.411 65.281 221.407C65.4647 221.407 65.6484 221.407 65.8247 221.382H65.9533L67.1841 221.286C67.5883 221.249 67.9961 221.201 68.4076 221.157L69.2453 221.058C72.6533 220.581 76.0234 219.864 79.3306 218.913C86.7596 216.84 94.0269 213.942 101.452 211.818C111.053 209.081 121.66 207.736 130.937 211.083V176.65H51.2754ZM130.918 67.6693V0.00381126C122.199 -0.0906579 113.503 0.929193 105.042 3.0386C84.8748 8.10515 66.78 19.0943 51.2754 33.1293V67.6656H55.2728V69.2344H51.2754V122.685H130.918V69.2381H71.6849V67.6693H130.918ZM233.216 44.8128C228.226 44.6365 223.266 43.0566 218.78 40.617C210.201 35.951 203.349 28.7461 195.692 22.6655C179.784 10.001 160.054 2.35889 139.813 0.463071V67.6693H253.507L253.79 67.3717L233.216 44.8128ZM243.573 42.9758L254.555 55.0268V39.8161C250.877 40.2717 247.655 41.3555 243.587 42.9611L243.573 42.9758ZM254.555 231.136V176.65H231.154C231.092 176.418 231.03 176.183 230.956 175.948C231.026 176.183 231.085 176.418 231.151 176.65H139.828V216.054C140.695 216.697 141.551 217.373 142.4 218.06C143.315 218.795 144.218 219.57 145.126 220.331L146.041 221.088C146.478 221.455 146.919 221.822 147.363 222.168C148.245 222.883 149.136 223.588 150.035 224.284C150.479 224.651 150.935 224.982 151.387 225.327C158.561 230.813 166.129 235.763 174.03 240.138C175.801 241.117 177.588 242.074 179.39 243.007C180.592 243.621 181.801 244.231 183.013 244.822C184.835 245.711 186.672 246.569 188.524 247.394C205.596 255.058 223.649 260.316 242.166 263.02C246.278 263.627 250.407 264.105 254.551 264.453V231.133H254.918L254.555 231.136ZM139.828 69.2381V122.685H254.569V69.2381H139.828ZM139.828 124.254V175.081H254.569V124.254H139.828ZM263.475 39.75V56.7168L277.492 41.3372C272.848 40.5876 268.176 40.0525 263.475 39.7316V39.75ZM263.475 124.272V175.081H375.075V124.254L263.475 124.272ZM374.667 235.17L375.061 176.65H263.475V265.037C270.664 265.339 277.863 265.253 285.042 264.78H285.167C288.596 264.564 292.009 264.251 295.407 263.839H295.484C313.608 261.73 331.331 257.001 348.097 249.801L374.667 235.17ZM396.594 132.623C396.176 131.635 395.738 130.654 395.294 129.684C394.463 127.847 393.585 126.061 392.681 124.276H383.974V175.081H405.989C405.978 160.693 402.337 145.997 396.605 132.605L396.594 132.623ZM383.974 176.668V227.003C390.176 221.058 395.415 214.257 399.188 206.483C403.726 197.122 405.802 186.985 405.971 176.661L383.974 176.668ZM383.974 109.462V122.689H391.866C389.478 118.135 386.848 113.714 383.985 109.443L383.974 109.462ZM308.288 49.7214C307.707 49.501 307.127 49.2768 306.543 49.0601C300.382 46.7848 294.086 44.8927 287.691 43.3946L266.242 66.9344L265.83 67.3717L266.106 67.6729H342.446C331.814 60.3543 320.352 54.3223 308.299 49.703L308.288 49.7214ZM344.683 69.2565H265.04L263.475 70.6893V122.685H277.194H277.216H375.09V97.4991C366.236 86.7913 356.017 77.29 344.694 69.2381L344.683 69.2565Z" fill="#67A3A3"/>
<path opacity="0.1" d="M42.3733 96.1985V122.685H5.20264C5.20264 122.531 5.22835 122.373 5.23938 122.218C5.27244 121.796 5.30551 121.373 5.34225 120.954C5.38267 120.462 5.42675 119.966 5.47452 119.485C5.52228 119.003 5.57372 118.416 5.62883 117.883C5.68394 117.35 5.73538 116.81 5.79784 116.277C5.8603 115.745 5.91541 115.212 5.98154 114.683C6.04767 114.154 6.10646 113.617 6.17627 113.088C6.23138 112.647 6.29016 112.21 6.34895 111.769C6.43345 111.148 6.52163 110.524 6.61716 109.906C6.61716 109.815 6.64287 109.719 6.65757 109.631C7.32816 105.112 8.24188 100.633 9.39475 96.2132L42.3733 96.1985Z" fill="#67A3A3"/>
<path opacity="0.1" d="M5.08476 124.257H42.373V175.081H7.8146C7.72275 175.603 7.63457 176.128 7.53905 176.653H42.373V217.641C42.3105 217.623 42.2554 217.601 42.1966 217.579C41.2119 217.19 40.2346 216.778 39.2573 216.337L38.6327 216.054C37.653 215.591 36.6732 215.101 35.6935 214.585C35.3518 214.405 35.0101 214.217 34.6721 214.026C29.2329 210.979 24.2917 207.119 20.0199 202.578C19.895 202.456 19.7774 202.328 19.6525 202.21C19.0573 201.564 18.4731 200.91 17.9073 200.241L17.2827 199.506C16.614 198.687 15.9674 197.845 15.3391 196.993C15.2473 196.868 15.1591 196.743 15.0636 196.626C12.5084 193.083 10.3868 189.247 8.74414 185.199C8.69271 185.078 8.64862 184.946 8.60085 184.832C8.09628 183.534 7.64927 182.223 7.25982 180.901C7.09081 180.346 6.92915 179.798 6.78954 179.222C6.7381 179.053 6.69401 178.887 6.65359 178.722C4.56672 170.577 4.32056 162.115 4.32056 153.713C4.32056 152.732 4.32056 151.747 4.32056 150.773C4.32056 147.375 4.36097 143.954 4.41976 140.537C4.41976 139.652 4.4565 138.77 4.47487 137.881C4.5263 135.625 4.59979 133.369 4.69531 131.113C4.71736 130.485 4.74675 129.86 4.77982 129.236C4.77982 128.876 4.79819 128.516 4.83493 128.156C4.92311 126.848 4.99659 125.551 5.08476 124.257Z" fill="#67A3A3"/>
<path opacity="0.1" d="M79.3123 76.8912V122.685H51.2754V76.8912H55.2728V61.3866H71.6812V76.8912H79.3123Z" fill="#67A3A3"/>
<path opacity="0.1" d="M79.3122 124.254H51.2791V175.077H79.3122V124.254Z" fill="#67A3A3"/>
<path opacity="0.1" d="M51.2754 176.653H79.3123V218.905C76.005 219.855 72.6349 220.571 69.2269 221.047L68.3892 221.15C67.9777 221.198 67.5699 221.238 67.1658 221.279C66.7616 221.319 66.3428 221.348 65.9349 221.374H65.8064C65.63 221.374 65.439 221.396 65.2663 221.4H65.0789C64.8584 221.4 64.638 221.422 64.4176 221.429C64.1053 221.448 63.793 221.451 63.4733 221.455C63.3374 221.455 63.2088 221.455 63.0728 221.455C62.7569 221.455 62.4446 221.455 62.1286 221.455H61.4342C61.2468 221.455 61.0668 221.455 60.8721 221.455L60.163 221.429C59.7956 221.429 59.3988 221.389 59.0167 221.363L58.3112 221.312L57.4331 221.231C56.8159 221.176 56.2023 221.106 55.5961 221.021L54.8613 220.919L54.4939 220.867C53.8803 220.772 53.2741 220.669 52.6568 220.551C52.2049 220.474 51.7567 220.378 51.3011 220.287L51.2754 176.653Z" fill="#67A3A3"/>
<path opacity="0.1" d="M254.569 71.483H231.452V122.681H254.569V71.483Z" fill="#67A3A3"/>
<path opacity="0.1" d="M254.573 124.254V175.081H139.828V153.158H200.946V166.09H231.452V124.254H254.573Z" fill="#67A3A3"/>
<path opacity="0.1" d="M254.937 231.147H254.569V264.49C250.43 264.139 246.303 263.663 242.188 263.06C223.662 260.348 205.601 255.078 188.524 247.401C183.593 245.182 178.763 242.76 174.034 240.134C166.133 235.757 158.564 230.807 151.387 225.324C149.584 223.942 147.804 222.529 146.048 221.084C144.832 220.081 143.623 219.052 142.4 218.053C141.551 217.366 140.695 216.69 139.828 216.043V176.653H231.147C231.085 176.418 231.022 176.183 230.956 175.952C231.026 176.183 231.092 176.418 231.154 176.653H254.569V231.125C254.694 231.129 254.815 231.14 254.937 231.147Z" fill="#67A3A3"/>
<path opacity="0.1" d="M314.861 67.6694H299.797V62.9887H306.55V49.0455C307.135 49.2586 307.718 49.4779 308.299 49.7032V62.9887H314.861V67.6694Z" fill="#67A3A3"/>
<path opacity="0.1" d="M351.153 122.685H277.202C277.202 122.685 277.202 122.685 277.227 122.703L277.194 122.685H263.475V71.4867H267.363V109.33H285.127V86.9178H299.801V69.2418H314.865V86.9325H329.539V109.344H351.153V122.685Z" fill="#67A3A3"/>
<path opacity="0.1" d="M263.475 124.254V175.081H351.153V124.254H263.475ZM374.954 234.909L375.075 194.678H351.153V176.675H263.475V265.037C270.664 265.339 277.863 265.253 285.042 264.78H285.167C288.596 264.564 292.009 264.251 295.407 263.839H295.484C313.608 261.73 331.331 257.001 348.097 249.8" fill="#67A3A3"/>
<path opacity="0.1" d="M385.532 176.653H405.985C405.805 186.974 403.733 197.111 399.199 206.472C395.426 214.25 390.183 221.051 383.989 226.992V194.66H385.532V176.653Z" fill="#67A3A3"/>
<path opacity="0.1" d="M405.996 175.081H385.532V132.605H396.605C402.337 145.997 405.978 160.693 405.996 175.081Z" fill="#67A3A3"/>
<path opacity="0.1" d="M254.573 85.7163H242.188V101.768H254.573V85.7163Z" fill="#67A3A3"/>
<path opacity="0.1" d="M254.573 118.989H242.188V122.685H254.573V118.989Z" fill="#67A3A3"/>
<path opacity="0.1" d="M254.573 124.254H242.188V135.037H254.573V124.254Z" fill="#67A3A3"/>
<path opacity="0.1" d="M254.573 152.261H242.188V168.313H254.573V152.261Z" fill="#67A3A3"/>
<path opacity="0.1" d="M254.573 185.534H242.188V201.586H254.573V185.534Z" fill="#67A3A3"/>
<path opacity="0.1" d="M254.569 231.125C254.694 231.125 254.816 231.125 254.937 231.147H254.569V234.877H242.188V218.806H254.569V231.125Z" fill="#67A3A3"/>
<path opacity="0.1" d="M254.569 252.071V264.471C250.43 264.121 246.303 263.644 242.188 263.042V252.071H254.569Z" fill="#67A3A3"/>
<path opacity="0.1" d="M192.907 173.901H139.828V175.081H192.907V173.901Z" fill="#67A3A3"/>
<path opacity="0.1" d="M192.907 176.65H139.828V181.169H192.907V176.65Z" fill="#67A3A3"/>
<path opacity="0.1" d="M192.907 195.983H139.828V203.25H192.907V195.983Z" fill="#67A3A3"/>
<path opacity="0.1" d="M192.904 218.064V225.331H151.386C149.584 223.955 147.803 222.541 146.044 221.091C144.828 220.088 143.623 219.06 142.396 218.064H192.904Z" fill="#67A3A3"/>
<path opacity="0.1" d="M192.904 240.141V247.401H188.521C183.595 245.18 178.766 242.756 174.034 240.13L192.904 240.141Z" fill="#67A3A3"/>
<path opacity="0.1" d="M295.495 129.181H285.046V139.63H295.495V129.181Z" fill="#67A3A3"/>
<path opacity="0.1" d="M69.2525 80.4954H58.8035V90.9444H69.2525V80.4954Z" fill="#67A3A3"/>
<path opacity="0.1" d="M69.2525 104.766H58.8035V115.215H69.2525V104.766Z" fill="#67A3A3"/>
<path opacity="0.1" d="M69.2525 129.037H58.8035V139.486H69.2525V129.037Z" fill="#67A3A3"/>
<path opacity="0.1" d="M69.2525 153.304H58.8035V163.754H69.2525V153.304Z" fill="#67A3A3"/>
<path opacity="0.1" d="M69.2525 177.575H58.8035V188.025H69.2525V177.575Z" fill="#67A3A3"/>
<path opacity="0.1" d="M69.2525 201.846H58.8035V212.296H69.2525V201.846Z" fill="#67A3A3"/>
<path opacity="0.1" d="M335.384 129.181H324.935V139.63H335.384V129.181Z" fill="#67A3A3"/>
<path opacity="0.1" d="M295.495 154.954H285.046V165.403H295.495V154.954Z" fill="#67A3A3"/>
<path opacity="0.1" d="M335.384 154.954H324.935V165.403H335.384V154.954Z" fill="#67A3A3"/>
<path opacity="0.1" d="M295.495 180.724H285.046V191.173H295.495V180.724Z" fill="#67A3A3"/>
<path opacity="0.1" d="M335.384 180.724H324.935V191.173H335.384V180.724Z" fill="#67A3A3"/>
<path opacity="0.1" d="M295.495 206.498H285.046V216.947H295.495V206.498Z" fill="#67A3A3"/>
<path opacity="0.1" d="M335.384 206.498H324.935V216.947H335.384V206.498Z" fill="#67A3A3"/>
<path opacity="0.1" d="M295.495 232.271H285.046V242.721H295.495V232.271Z" fill="#67A3A3"/>
<path opacity="0.1" d="M335.384 232.271H324.935V242.721H335.384V232.271Z" fill="#67A3A3"/>
<path opacity="0.1" d="M285.046 264.78V258.042H295.491V263.821L285.046 264.78Z" fill="#67A3A3"/>
<path opacity="0.1" d="M6.61328 109.624V115.601H42.3731V109.624H6.61328ZM10.1771 115.226H7.25992V109.991H10.1992L10.1771 115.226ZM13.7373 115.226H10.7981V109.991H13.7373V115.226ZM17.2901 115.226H14.3509V109.991H17.2901V115.226ZM20.8503 115.226H17.9147V109.991H20.854L20.8503 115.226ZM24.4068 115.226H21.4676V109.991H24.4068V115.226ZM27.967 115.226H25.0277V109.991H27.967V115.226ZM31.5272 115.226H28.5879V109.991H31.5272V115.226ZM35.0837 115.226H32.1444V109.991H35.0837V115.226ZM38.6402 115.226H35.7009V109.991H38.6402V115.226ZM42.1967 115.226H39.2574V109.991H42.1967V115.226Z" fill="#67A3A3"/>
<path opacity="0.1" d="M6.61328 127.017V132.994H42.3731V127.017H6.61328ZM10.1771 132.616H7.25992V127.395H10.1992L10.1771 132.616ZM13.7373 132.616H10.7981V127.395H13.7373V132.616ZM17.2901 132.616H14.3509V127.395H17.2901V132.616ZM20.8503 132.616H17.9147V127.395H20.854L20.8503 132.616ZM24.4068 132.616H21.4676V127.395H24.4068V132.616ZM27.967 132.616H25.0277V127.395H27.967V132.616ZM31.5272 132.616H28.5879V127.395H31.5272V132.616ZM35.0837 132.616H32.1444V127.395H35.0837V132.616ZM38.6402 132.616H35.7009V127.395H38.6402V132.616ZM42.1967 132.616H39.2574V127.395H42.1967V132.616Z" fill="#67A3A3"/>
<path opacity="0.1" d="M6.61328 144.417V150.406H42.3731V144.417H6.61328ZM10.1771 150.016H7.25992V144.792H10.1992L10.1771 150.016ZM13.7373 150.016H10.7981V144.792H13.7373V150.016ZM17.2901 150.016H14.3509V144.792H17.2901V150.016ZM20.8503 150.016H17.9147V144.792H20.854L20.8503 150.016ZM24.4068 150.016H21.4676V144.792H24.4068V150.016ZM27.967 150.016H25.0277V144.792H27.967V150.016ZM31.5272 150.016H28.5879V144.792H31.5272V150.016ZM35.0837 150.016H32.1444V144.792H35.0837V150.016ZM38.6402 150.016H35.7009V144.792H38.6402V150.016ZM42.1967 150.016H39.2574V144.792H42.1967V150.016Z" fill="#67A3A3"/>
<path opacity="0.1" d="M6.61328 161.818V167.788H42.3731V161.818H6.61328ZM10.1771 167.417H7.25992V162.189H10.1992L10.1771 167.417ZM13.7373 167.417H10.7981V162.189H13.7373V167.417ZM17.2901 167.417H14.3509V162.189H17.2901V167.417ZM20.8503 167.417H17.9147V162.189H20.854L20.8503 167.417ZM24.4068 167.417H21.4676V162.189H24.4068V167.417ZM27.967 167.417H25.0277V162.189H27.967V167.417ZM31.5272 167.417H28.5879V162.189H31.5272V167.417ZM35.0837 167.417H32.1444V162.189H35.0837V167.417ZM38.6402 167.417H35.7009V162.189H38.6402V167.417ZM42.1967 167.417H39.2574V162.189H42.1967V167.417Z" fill="#67A3A3"/>
<path opacity="0.1" d="M6.76758 179.214C6.91087 179.776 7.07252 180.338 7.24153 180.893V179.589H10.1808V184.813H8.60829C8.65605 184.935 8.70381 185.067 8.75158 185.181H42.373V179.214H6.76758ZM13.7483 184.813H10.8091V179.589H13.7483V184.813ZM17.3012 184.813H14.3619V179.589H17.3012V184.813ZM20.8613 184.813H17.9147V179.589H20.854L20.8613 184.813ZM24.4178 184.813H21.4786V179.589H24.4178V184.813ZM27.978 184.813H25.0388V179.589H27.978V184.813ZM31.5382 184.813H28.5989V179.589H31.5382V184.813ZM35.0947 184.813H32.1554V179.589H35.0947V184.813ZM38.6512 184.813H35.7119V179.589H38.6512V184.813ZM42.2077 184.813H39.2684V179.589H42.2077V184.813Z" fill="#67A3A3"/>
<path opacity="0.1" d="M15.071 196.615C15.1629 196.732 15.2511 196.865 15.3466 196.982H17.2902V199.492C17.4996 199.741 17.7054 199.991 17.9185 200.226V196.967H20.8577V202.21H19.6673C19.7849 202.332 19.8988 202.46 20.0347 202.578H42.3841V196.615H15.071ZM24.4069 202.21H21.4676V196.989H24.4069V202.21ZM27.967 202.21H25.0278V196.989H27.967V202.21ZM31.5272 202.21H28.588V196.989H31.5272V202.21ZM35.0837 202.21H32.1445V196.989H35.0837V202.21ZM38.6402 202.21H35.701V196.989H38.6402V202.21ZM42.1967 202.21H39.2575V196.989H42.1967V202.21Z" fill="#67A3A3"/>
<path opacity="0.1" d="M34.687 214.011C35.0214 214.203 35.363 214.379 35.7084 214.57V214.386H38.6477V216.04L39.2723 216.33V214.386H42.2115V217.564C42.2679 217.592 42.327 217.614 42.3879 217.63V214.011H34.687Z" fill="#67A3A3"/>
<path opacity="0.1" d="M277.201 122.685H277.224H277.201ZM254.569 231.121H254.937H254.569ZM230.956 175.948C231.026 176.183 231.085 176.418 231.151 176.65C231.092 176.418 231.029 176.183 230.956 175.948ZM277.201 122.674H277.224H277.201ZM55.2874 67.6582V69.227H71.6994V67.6582H55.2874ZM254.569 231.121H254.937H254.569ZM230.956 175.948C231.026 176.183 231.085 176.418 231.151 176.65C231.092 176.418 231.029 176.183 230.956 175.948ZM277.201 122.674H277.224H277.201ZM254.569 231.11H254.937H254.569ZM230.956 175.948C231.026 176.183 231.085 176.418 231.151 176.65C231.092 176.418 231.029 176.183 230.956 175.948Z" fill="#67A3A3"/>
<path d="M169.595 139.494C169.595 139.494 168.148 139.292 168.148 137.183C168.148 135.074 167.112 131.135 167.112 131.135C167.112 131.117 166.215 124.276 164.977 123.188C163.739 122.101 162.148 115.715 162.148 115.715C162.148 115.715 161.876 112.251 161.321 111.505C160.766 110.759 160.017 108.933 158.911 106.328C157.805 103.723 153.194 101.919 153.194 101.919C153.194 101.919 144.858 97.0839 142.495 95.5078C142.281 95.3783 142.08 95.2268 141.896 95.0559C141.485 94.5158 139.692 94.5048 139.692 94.5048C139.505 93.3217 139.325 91.9623 139.266 90.7315C139.266 90.5992 139.266 90.4669 139.247 90.3347C141.882 88.7775 143.866 86.3224 144.836 83.4201C144.88 83.2804 144.916 83.1335 144.957 82.9939C145.115 82.9419 145.26 82.8575 145.383 82.7462C145.507 82.6348 145.605 82.4989 145.673 82.3472C145.886 81.8733 145.89 81.3185 146.155 80.8776C146.463 80.3559 147.051 80.0767 147.514 79.6835C148.682 78.6915 148.984 77.0198 148.929 75.4988C148.892 74.2679 148.693 73.0261 148.771 71.8026L148.793 71.494C148.815 71.3103 148.84 71.1266 148.873 70.9503C149.053 70.0391 149.447 69.1794 149.667 68.2755C149.887 67.3717 149.91 66.354 149.395 65.5751C148.642 64.4324 147.073 64.2047 145.695 64.0871C144.134 63.9548 142.738 64.1275 141.738 62.8305C141.271 62.1527 140.744 61.5171 140.166 60.9311C139.96 60.74 137.961 59.5202 137.961 59.4394C136.011 58.5359 133.8 58.3663 131.734 58.9617C130.698 59.263 129.72 59.7553 128.67 60.0015C126.403 60.5379 123.794 59.9574 121.869 61.2544C120.796 61.9892 120.153 63.1575 119.551 64.2965C119.061 65.2346 118.564 66.1715 118.059 67.1072C117.247 68.6466 116.42 70.2118 116.079 71.9165C116.007 72.2875 115.963 72.6633 115.946 73.0408V73.0592C115.946 73.1951 115.946 73.3311 115.946 73.467V73.6397C115.946 73.7683 115.946 73.8932 115.968 74.0071C115.99 74.121 115.987 74.1577 115.998 74.2349C116.009 74.312 116.027 74.4847 116.049 74.6023C116.071 74.7199 116.115 74.9256 116.159 75.0873C116.178 75.1571 116.204 75.2232 116.226 75.2893C116.262 75.4143 116.306 75.5355 116.354 75.6567C116.38 75.7192 116.406 75.7853 116.435 75.8478C116.49 75.9764 116.556 76.1013 116.622 76.2152C116.652 76.2666 116.674 76.3144 116.703 76.3622C116.806 76.533 116.919 76.6974 117.041 76.8545C117.827 77.8355 118.985 78.4601 119.841 79.3786C119.841 79.4153 119.841 79.4521 119.841 79.4851C119.841 79.588 119.841 79.6872 119.841 79.7901C119.886 81.8386 120.432 83.8449 121.429 85.6347C122.427 87.4244 123.847 88.9432 125.565 90.0591C125.565 90.1987 125.583 90.342 125.591 90.4816C125.662 91.5722 125.649 92.6667 125.55 93.7552C125.401 93.579 125.214 93.4387 125.002 93.3446C124.791 93.2504 124.562 93.205 124.331 93.2115C124.173 93.2038 124.015 93.2174 123.86 93.2519L123.827 93.2262V93.2592C123.019 93.4576 122.023 94.299 121.072 96.6908C121.072 96.6908 118.177 99.9534 115.972 99.8175C113.768 99.6815 108.187 103.212 108.187 103.212C108.187 103.212 102.742 106.747 101.573 110.347C100.92 112.389 100.137 114.387 99.2293 116.329L92.4984 130.198L91.2566 141.202C91.2566 141.202 91.9436 146.096 91.8077 146.842C91.6718 147.588 94.6331 154.315 94.6331 154.315C94.6331 154.315 104.417 171.506 108.415 172.388L108.701 172.186C108.872 172.275 109.054 172.343 109.241 172.388L110.064 171.807C110.114 172.454 110.093 173.105 110.002 173.747C109.451 175.445 110.207 186.522 111.17 188.693C112.133 190.865 111.791 219.335 111.791 219.335L111.655 221.848C111.655 221.848 111.655 221.929 111.688 222.069L111.655 222.664L111.754 222.715C111.857 223.512 111.824 224.321 111.655 225.107C111.31 226.209 111.17 229.325 111.17 229.325C111.17 229.325 108.418 246.916 109.722 250.451C111.027 253.985 112.136 257.858 112.136 257.858C112.136 257.858 113.514 262.267 112.202 263.02C110.891 263.773 107.162 265.037 107.93 266.874C108.628 268.571 111.277 273.12 111.67 273.785L111.637 274.134L111.097 279.987C111.184 280.76 111.394 281.514 111.718 282.221C112.309 283.496 113.459 284.818 115.645 284.675C116.013 284.649 116.439 284.605 116.85 284.55C120.851 284.014 125.778 282.228 125.778 282.228C125.522 282.065 125.288 281.872 125.08 281.651C124.883 281.461 124.728 281.232 124.622 280.979C124.517 280.727 124.464 280.455 124.467 280.181C124.525 279.116 122.53 274.038 122.034 272.789C121.957 272.609 121.917 272.506 121.917 272.506C121.917 272.506 126.465 267.752 125.708 263.538C125.708 263.538 120.675 260.599 122.332 258.986C123.989 257.373 126.95 252.74 126.95 252.74C126.95 252.74 127.086 235.417 126.95 232.83C126.808 231.035 126.894 229.229 127.204 227.455C127.259 227.187 127.325 226.926 127.395 226.669C129.686 227.011 132 227.186 134.317 227.194C135.162 227.194 136.022 227.194 136.889 227.143C136.889 227.387 136.9 227.652 136.922 227.936C137.113 232.227 137.469 239.752 137.759 242.548C138.171 246.556 140.445 257.358 140.445 257.358C140.445 257.358 136.106 260.143 141.202 267.006C141.202 267.006 141.202 269.494 140.864 269.854C140.503 271.031 140.212 272.228 139.993 273.44C139.78 274.733 139.692 276.041 140.037 276.721C140.864 278.344 145.824 278.212 145.824 278.212L145.945 278.19C146.882 278.093 147.828 278.183 148.729 278.455C149.63 278.727 150.469 279.175 151.195 279.774C153.08 281.287 160.234 280.622 164.106 280.141C165.624 279.95 166.638 279.774 166.638 279.774C166.687 279.602 166.704 279.423 166.689 279.245C166.649 278.293 165.903 276.206 160.847 274.343C160.847 274.343 156.093 271.147 156.159 268.362H156.06H155.509C155.909 268.34 156.166 268.362 156.166 268.362C156.166 268.362 154.304 261.565 155.064 261.014C155.825 260.463 153.547 252.931 153.547 252.931C153.547 252.931 152.243 240.292 152.173 239.407C152.176 238.647 152.291 237.892 152.514 237.165L152.173 230.236C152.173 230.236 152.107 227.932 152.173 227.183C152.162 226.532 152.109 225.883 152.015 225.239C151.982 224.982 151.949 224.714 151.912 224.449C153.694 223.998 154.851 223.579 154.851 223.579L154.645 199.458C156.159 196.519 156.438 190.071 156.431 185.497C156.431 182.558 156.299 180.383 156.299 180.383L158.367 177.006C158.367 177.006 158.845 172.965 158.088 172.079C157.754 171.679 157.904 171.264 158.18 170.922C158.323 170.808 158.474 170.705 158.632 170.613C158.632 170.613 158.61 170.58 158.584 170.532C158.728 170.412 158.882 170.302 159.043 170.205C159.043 170.205 158.308 169.066 158.966 168.585C159.583 169.004 160.134 169.32 160.553 169.577C160.524 169.845 160.495 170 160.495 170L160.671 169.632C161.075 169.86 161.321 170 161.321 170C161.321 170 164.562 163.544 164.492 162.593C164.422 161.641 166.696 157.633 166.696 157.633C166.696 157.633 166.972 155.527 168.214 154.646C169.456 153.764 169.176 147.375 169.176 147.375C169.176 147.375 169.522 144.046 170.348 142.687C171.175 141.327 169.595 139.494 169.595 139.494ZM107.592 136.661L107.654 138.201C107.287 137.609 107.022 137.183 107.022 137.183L107.592 136.661Z" fill="url(#paint0_linear)"/>
<path d="M161.498 167.211L160.704 170.591C160.704 170.591 154.348 167.347 153.202 163.225C152.055 159.102 155.119 157.537 155.119 157.537L161.042 160.046L161.498 167.211Z" fill="white"/>
<path opacity="0.1" d="M161.498 167.211L160.704 170.591C160.704 170.591 154.348 167.347 153.202 163.225C152.055 159.102 155.119 157.537 155.119 157.537L161.042 160.046L161.498 167.211Z" fill="black"/>
<path d="M125.826 282.25C125.826 282.25 119.948 284.41 115.906 284.682C113.76 284.825 112.633 283.51 112.052 282.243C111.735 281.538 111.53 280.788 111.446 280.02L111.971 274.196L112.25 271.095L120.837 268.865L122.053 272.583L122.167 272.866C122.655 274.108 124.614 279.16 124.555 280.214C124.552 280.484 124.605 280.752 124.708 281.002C124.812 281.251 124.965 281.477 125.157 281.666C125.355 281.888 125.579 282.084 125.826 282.25Z" fill="white"/>
<path d="M165.98 279.289C165.995 279.465 165.977 279.643 165.929 279.814C165.929 279.814 153.356 281.912 150.784 279.814C150.059 279.201 149.214 278.747 148.303 278.48C147.391 278.213 146.435 278.139 145.493 278.264C145.493 278.264 140.629 278.396 139.817 276.794C139.479 276.122 139.567 274.817 139.777 273.531C139.99 272.326 140.275 271.135 140.629 269.964L140.824 269.81L141.981 268.88L155.531 268.479H155.634C155.568 271.25 160.234 274.428 160.234 274.428C165.19 276.265 165.921 278.341 165.98 279.289Z" fill="white"/>
<path opacity="0.1" d="M165.98 279.289C165.993 279.466 165.974 279.644 165.925 279.814C165.925 279.814 153.356 281.912 150.784 279.814C150.059 279.202 149.215 278.748 148.304 278.481C147.394 278.214 146.438 278.14 145.497 278.264C145.497 278.264 140.629 278.396 139.821 276.794C139.483 276.118 139.567 274.817 139.777 273.531C141.65 273.719 144.608 274.185 145.769 275.299C147.525 276.992 150.501 278.683 152.327 278.815C153.756 278.907 162.306 279.179 165.98 279.289Z" fill="black"/>
<path opacity="0.1" d="M125.826 282.25C125.826 282.25 119.948 284.41 115.906 284.682C113.76 284.826 112.632 283.51 112.056 282.239C113.551 282.742 115.627 283.272 116.718 282.787C118.011 282.213 122.597 281.842 125.168 281.684C125.364 281.899 125.585 282.089 125.826 282.25Z" fill="black"/>
<path d="M134.548 108.154C129.699 106.269 123.46 100.042 125.018 97.1317C125.364 96.3974 125.57 95.6049 125.624 94.795C125.724 93.6956 125.739 92.5901 125.668 91.4883C125.559 89.684 125.342 87.8879 125.018 86.1095C125.018 86.1095 140.159 86.4512 139.277 88.6813C139.02 89.3353 138.979 90.4706 139.049 91.7418C139.119 93.0131 139.303 94.4497 139.494 95.6658C139.758 97.3338 140.023 98.605 140.023 98.605C140.023 98.605 139.097 99.902 138.553 99.9718C138.009 100.042 141.507 110.84 134.548 108.154Z" fill="#CF6F80"/>
<path opacity="0.1" d="M122.156 272.866L122.042 272.991C117.515 267.517 112.041 274.34 112.041 274.34L111.96 274.196L112.239 271.095L120.826 268.865L122.042 272.583L122.156 272.866Z" fill="black"/>
<path opacity="0.1" d="M155.638 268.865C155.638 268.865 152.331 268.795 150.567 270.353C148.804 271.911 140.28 270.691 140.647 270.353C140.756 270.186 140.822 269.994 140.838 269.795L141.996 268.865L155.546 268.465C155.597 268.711 155.638 268.865 155.638 268.865Z" fill="black"/>
<path d="M127.788 225.875C127.542 226.484 127.355 227.115 127.23 227.76C126.923 229.525 126.838 231.322 126.976 233.109C127.112 235.681 126.976 252.916 126.976 252.916C126.976 252.916 124.07 257.512 122.45 259.133C120.829 260.753 125.756 263.663 125.756 263.663C126.491 267.851 122.038 272.583 122.038 272.583C117.512 267.109 112.037 273.936 112.037 273.936C112.037 273.936 109.061 268.792 108.319 266.955C107.577 265.118 111.225 263.847 112.508 263.101C113.79 262.355 112.445 257.957 112.445 257.957C112.445 257.957 111.361 254.103 110.075 250.587C108.789 247.071 111.493 229.567 111.493 229.567C111.493 229.567 111.633 226.459 111.967 225.375C112.136 224.593 112.17 223.788 112.067 222.994C112.045 222.726 112.019 222.502 112.001 222.352C111.982 222.201 111.967 222.131 111.967 222.131L112.019 222.043L113.856 218.619C113.856 218.619 128.67 223.718 127.788 225.875Z" fill="#67A3A3"/>
<path d="M155.637 268.461C155.637 268.461 152.331 268.391 150.567 269.931C148.804 271.47 140.28 270.269 140.647 269.931C141.015 269.593 140.985 267.091 140.985 267.091C135.985 260.264 140.25 257.494 140.25 257.494C140.25 257.494 138.017 246.747 137.612 242.761C137.33 239.976 136.981 232.492 136.793 228.219C136.712 226.382 136.665 225.118 136.665 225.118L140.75 224.295L141.276 224.189L151.129 222.212C151.129 222.212 151.401 224.049 151.585 225.552C151.677 226.193 151.728 226.84 151.739 227.488C151.673 228.223 151.739 230.523 151.739 230.523L152.074 237.419C151.855 238.142 151.743 238.893 151.739 239.649C151.805 240.527 153.088 253.1 153.088 253.1C153.088 253.1 155.318 260.602 154.557 261.142C153.797 261.683 155.637 268.461 155.637 268.461Z" fill="#67A3A3"/>
<path opacity="0.1" d="M139.277 88.6813C139.02 89.3353 138.979 90.4706 139.049 91.7418C137.021 92.9631 134.69 93.5875 132.323 93.5433C129.956 93.4991 127.649 92.7881 125.668 91.492C125.559 89.6865 125.342 87.8891 125.018 86.1095C125.018 86.1095 140.159 86.4438 139.277 88.6813Z" fill="black"/>
<path d="M145.13 80.5615C145.133 81.8855 144.924 83.2014 144.512 84.4597C143.592 87.2791 141.704 89.6822 139.183 91.2445C136.662 92.8068 133.67 93.4276 130.736 92.9971C127.801 92.5667 125.114 91.1127 123.148 88.8923C121.181 86.6718 120.064 83.8277 119.992 80.8628C119.992 80.7599 119.992 80.6644 119.992 80.5615C119.963 78.8926 120.267 77.2347 120.886 75.6846C121.505 74.1344 122.426 72.723 123.597 71.5327C124.767 70.3424 126.162 69.397 127.701 68.7516C129.241 68.1063 130.893 67.7739 132.562 67.7739C134.232 67.7739 135.884 68.1063 137.423 68.7516C138.963 69.397 140.358 70.3424 141.528 71.5327C142.698 72.723 143.62 74.1344 144.239 75.6846C144.858 77.2347 145.162 78.8926 145.133 80.5615H145.13Z" fill="#CF6F80"/>
<path opacity="0.1" d="M134.548 108.154C129.699 106.269 123.46 100.041 125.018 97.1316C125.364 96.3973 125.57 95.6048 125.624 94.7949L132.263 100.251L136.371 103.62L139.494 95.6693C139.758 97.3374 140.023 98.6086 140.023 98.6086C140.023 98.6086 139.097 99.9056 138.553 99.9754C138.009 100.045 141.507 110.84 134.548 108.154Z" fill="black"/>
<path d="M151.717 132.267L146.173 225.405L138.943 225.879L120.219 171.873L123.291 107.757L123.938 94.2108L132.263 101.048L136.374 104.417L139.589 96.2352L145.567 101.445L151.717 132.267Z" fill="#67A3A3"/>
<path opacity="0.1" d="M127.788 225.875C127.542 226.484 127.355 227.115 127.229 227.76C121.968 226.947 116.858 225.351 112.07 223.024L111.971 222.972L112.004 222.381L112.022 222.072L113.859 218.648C113.859 218.648 128.67 223.718 127.788 225.875Z" fill="black"/>
<path opacity="0.1" d="M140.835 227.774C139.49 228.003 138.133 228.158 136.771 228.237C136.69 226.4 136.643 225.136 136.643 225.136L140.728 224.313L140.835 227.774Z" fill="black"/>
<path opacity="0.1" d="M151.563 225.57C148.951 226.25 144.916 227.014 141.305 226.536L141.253 224.207L151.107 222.23C151.107 222.23 151.379 224.049 151.563 225.57Z" fill="black"/>
<path opacity="0.1" d="M141.239 226.962C126.175 229.534 112.379 222.16 112.379 222.16L112.511 219.662C112.511 219.662 112.853 191.339 111.905 189.167C110.957 186.996 110.218 175.985 110.755 174.295C111.291 172.604 108.797 147.261 108.797 147.261L108.392 136.973L93.6006 130.981L100.214 117.196C101.107 115.263 101.875 113.275 102.514 111.244C103.664 107.665 109.002 104.149 109.002 104.149C109.002 104.149 114.477 100.637 116.641 100.769C118.805 100.901 121.641 97.6607 121.641 97.6607C123.735 92.3222 125.631 94.7398 125.631 94.7398C125.631 94.9933 125.631 94.7398 125.528 95.5297C124.793 101.39 137.41 119.907 137.59 120.234L138.792 149.502L140.008 186.54L141.239 226.962Z" fill="black"/>
<path d="M140.835 226.963C125.771 229.534 111.971 222.161 111.971 222.161L112.107 219.662C112.107 219.662 112.449 191.339 111.497 189.167C110.546 186.996 109.811 175.985 110.351 174.295C110.891 172.605 108.393 147.261 108.393 147.261L107.985 136.973L93.1855 130.959L99.7989 117.174C100.69 115.24 101.458 113.252 102.099 111.222C103.245 107.643 108.587 104.127 108.587 104.127C108.587 104.127 114.062 100.615 116.222 100.747C118.382 100.879 121.222 97.6388 121.222 97.6388C123.32 92.3004 125.631 94.7179 125.631 94.7179C125.631 94.9714 125.411 95.0853 125.528 95.5079C127.145 101.192 137.006 119.885 137.186 120.212L138.402 149.48L139.619 186.518L140.835 226.963Z" fill="white"/>
<path opacity="0.1" d="M136.775 121.046C135.154 120.37 126.572 110.571 126.572 110.571V108.341C126.259 107.606 124.404 108.055 122.898 108.569L123.544 95.0227L124.279 95.6326C125.888 101.313 136.587 120.719 136.775 121.046Z" fill="black"/>
<path d="M137.183 120.234C135.559 119.558 126.976 109.76 126.976 109.76V107.529C126.664 106.795 124.808 107.243 123.302 107.757L123.952 94.2108L124.687 94.8207C126.3 100.501 137.003 119.911 137.183 120.234Z" fill="white"/>
<path opacity="0.1" d="M112.379 169.103C112.581 169.103 122.854 168.023 122.854 168.023C122.854 168.023 129.074 180.254 128.666 183.23C128.258 186.206 127.52 188.84 125.018 188.374C122.516 187.907 111.552 188.741 111.552 188.741L112.379 169.103Z" fill="black"/>
<path d="M111.971 168.291C112.173 168.291 122.446 167.211 122.446 167.211C122.446 167.211 128.662 179.446 128.258 182.418C127.854 185.39 127.108 188.028 124.61 187.562C122.111 187.095 111.144 187.929 111.144 187.929L111.971 168.291Z" fill="white"/>
<path d="M119.712 162.549C119.712 162.549 129.14 167.615 129.342 169.162C129.544 170.709 124.544 168.486 123.464 168.218C122.753 168.046 122.029 167.933 121.3 167.88L114.095 168.074L119.712 162.549Z" fill="#CF6F80"/>
<path opacity="0.1" d="M134.144 121.678C134.692 121.678 135.136 121.234 135.136 120.686C135.136 120.138 134.692 119.694 134.144 119.694C133.596 119.694 133.152 120.138 133.152 120.686C133.152 121.234 133.596 121.678 134.144 121.678Z" fill="black"/>
<path d="M134.144 121.274C134.692 121.274 135.136 120.83 135.136 120.282C135.136 119.734 134.692 119.29 134.144 119.29C133.596 119.29 133.152 119.734 133.152 120.282C133.152 120.83 133.596 121.274 134.144 121.274Z" fill="#3F3D56"/>
<path opacity="0.1" d="M135.97 164.621C136.518 164.621 136.962 164.177 136.962 163.629C136.962 163.081 136.518 162.637 135.97 162.637C135.422 162.637 134.978 163.081 134.978 163.629C134.978 164.177 135.422 164.621 135.97 164.621Z" fill="black"/>
<path d="M135.97 164.213C136.518 164.213 136.962 163.769 136.962 163.221C136.962 162.673 136.518 162.229 135.97 162.229C135.422 162.229 134.978 162.673 134.978 163.221C134.978 163.769 135.422 164.213 135.97 164.213Z" fill="#3F3D56"/>
<path opacity="0.1" d="M135.133 143.15C135.68 143.15 136.125 142.705 136.125 142.158C136.125 141.61 135.68 141.166 135.133 141.166C134.585 141.166 134.141 141.61 134.141 142.158C134.141 142.705 134.585 143.15 135.133 143.15Z" fill="black"/>
<path d="M135.133 142.745C135.68 142.745 136.125 142.301 136.125 141.753C136.125 141.206 135.68 140.761 135.133 140.761C134.585 140.761 134.141 141.206 134.141 141.753C134.141 142.301 134.585 142.745 135.133 142.745Z" fill="#3F3D56"/>
<path d="M158 167.674C158 167.674 158.676 168.688 158 169.162C157.324 169.636 158.066 170.782 158.066 170.782C158.066 170.782 156.38 171.771 157.122 172.66C157.864 173.549 157.394 177.565 157.394 177.565L155.366 180.923C155.366 180.923 155.487 183.087 155.494 186.011C155.494 190.574 155.226 196.989 153.742 199.914L153.947 223.909C153.947 223.909 146.845 226.503 140.901 225.713L140.019 187.209C140.019 187.209 141.305 165.374 141.779 161.186C142.056 159.011 142.169 156.819 142.117 154.627C142.117 154.627 141.915 148.073 141.235 145.031C141.235 145.031 140.5 131.852 140.427 128.203C140.394 126.458 140.486 121.366 140.589 116.523C140.702 111.229 140.831 106.236 140.831 106.236L139.49 95.6253C139.49 95.6253 140.831 95.4894 141.235 96.0295C141.416 96.1986 141.613 96.3499 141.823 96.4814C144.138 98.0466 152.316 102.86 152.316 102.86C152.316 102.86 156.843 104.66 157.926 107.239C159.01 109.818 159.764 111.648 160.289 112.383C160.814 113.118 161.101 116.571 161.101 116.571C161.101 116.571 162.659 122.927 163.875 124.004C165.091 125.08 165.98 131.929 165.98 131.929L155.233 140.379C155.233 140.379 154.289 154.436 154.087 154.98C153.885 155.524 158 167.674 158 167.674Z" fill="white"/>
<path d="M158.408 167.674C158.408 167.674 159.08 168.688 158.408 169.162C157.735 169.636 158.47 170.782 158.47 170.782C158.47 170.782 156.795 171.782 157.53 172.671C158.264 173.56 157.801 177.576 157.801 177.576L155.773 180.934C155.773 180.934 155.895 183.098 155.906 186.022C155.906 190.586 155.637 197.001 154.153 199.925L154.355 223.92C154.355 223.92 147.242 226.514 141.305 225.724L140.427 187.22C140.427 187.22 141.713 165.385 142.187 161.197C142.464 159.022 142.576 156.83 142.521 154.638C142.521 154.638 142.319 148.084 141.643 145.042C141.643 145.042 140.908 131.863 140.831 128.214C140.798 126.469 140.893 121.377 140.993 116.535C141.106 111.24 141.235 106.247 141.235 106.247L139.464 95.4932C139.464 95.4932 141.235 95.4932 141.643 96.0406C141.822 96.2117 142.019 96.3632 142.231 96.4925C144.545 98.0577 152.728 102.871 152.728 102.871C152.728 102.871 157.25 104.671 158.334 107.25C159.418 109.829 160.171 111.659 160.7 112.394C161.229 113.129 161.509 116.582 161.509 116.582C161.509 116.582 163.066 122.939 164.282 124.015C165.499 125.092 166.377 131.925 166.377 131.925L155.63 140.376C155.63 140.376 154.686 154.433 154.48 154.976C154.274 155.52 158.408 167.674 158.408 167.674Z" fill="white"/>
<path opacity="0.1" d="M145.537 109.366L146.507 112.195L141.4 117.339C141.514 112.048 141.643 107.052 141.643 107.052L139.872 96.2977C139.872 96.2977 141.643 96.2977 142.051 96.8452C142.23 97.0158 142.427 97.1661 142.639 97.2934L146.981 109.822L145.537 109.366Z" fill="black"/>
<path d="M145.13 108.554L146.103 111.383L140.996 116.527C141.11 111.233 141.239 106.24 141.239 106.24L139.464 95.4857C139.464 95.4857 141.239 95.4857 141.643 96.0332C141.823 96.2032 142.02 96.3546 142.231 96.4851L146.577 109.01L145.13 108.554Z" fill="white"/>
<path opacity="0.1" d="M145.13 80.5615C145.133 81.8855 144.924 83.2014 144.512 84.4597C144.443 84.4706 144.372 84.4674 144.304 84.4503C144.236 84.4333 144.172 84.4027 144.116 84.3605C144.02 81.0538 142.392 77.9493 140.39 75.3076C139.828 74.51 139.146 73.8037 138.369 73.2134C137.584 72.6234 136.607 72.347 135.628 72.4381C134.526 72.5888 133.553 73.3383 132.439 73.4338C130.97 73.5551 129.654 72.5373 128.196 72.4859C127.603 72.4915 127.018 72.6236 126.48 72.8732C125.942 73.1228 125.464 73.4843 125.077 73.9335C124.31 74.84 123.741 75.896 123.405 77.0344C122.827 78.7606 122.513 80.564 122.472 82.3839C122.453 83.4126 122.354 84.7022 121.399 85.077C121.471 84.3204 121.385 83.5571 121.146 82.8355C120.908 82.1139 120.522 81.4496 120.014 80.8848L119.992 80.8628C119.992 80.7599 119.992 80.6644 119.992 80.5615C119.963 78.8926 120.267 77.2347 120.886 75.6846C121.505 74.1344 122.426 72.723 123.597 71.5327C124.767 70.3424 126.162 69.397 127.701 68.7516C129.241 68.1063 130.893 67.7739 132.562 67.7739C134.232 67.7739 135.884 68.1063 137.423 68.7516C138.963 69.397 140.358 70.3424 141.528 71.5327C142.698 72.723 143.62 74.1344 144.239 75.6846C144.858 77.2347 145.162 78.8926 145.133 80.5615H145.13Z" fill="black"/>
<path d="M137.767 60.6004C135.858 59.7023 133.686 59.5325 131.66 60.1228C130.643 60.4241 129.684 60.9127 128.651 61.1589C126.447 61.6916 123.875 61.1148 121.983 62.4044C120.932 63.1392 120.3 64.3002 119.712 65.4282L118.243 68.2278C117.442 69.7599 116.633 71.3177 116.299 73.0041C115.965 74.6905 116.167 76.579 117.236 77.9347C118.015 78.923 119.165 79.544 120.01 80.4735C120.516 81.0389 120.9 81.7028 121.138 82.4235C121.376 83.1442 121.462 83.9063 121.391 84.6619C122.35 84.2945 122.442 83.0013 122.464 81.9725C122.505 80.1526 122.82 78.3493 123.397 76.6231C123.733 75.4843 124.302 74.4282 125.069 73.5221C125.457 73.0733 125.935 72.7121 126.473 72.4625C127.011 72.2129 127.596 72.0807 128.188 72.0746C129.658 72.126 130.977 73.14 132.432 73.0188C133.534 72.9269 134.511 72.1738 135.621 72.0268C136.599 71.9342 137.577 72.2107 138.362 72.802C139.139 73.3914 139.819 74.0979 140.379 74.8963C142.385 77.5379 144.013 80.6352 144.108 83.9492C144.523 84.2541 145.122 83.8573 145.328 83.387C145.534 82.9168 145.541 82.3656 145.802 81.9174C146.103 81.3994 146.68 81.1238 147.132 80.7344C148.278 79.746 148.565 78.0817 148.521 76.5716C148.477 75.0616 148.183 73.5295 148.469 72.0452C148.642 71.134 149.031 70.2816 149.245 69.3815C149.458 68.4813 149.483 67.4709 148.98 66.6957C148.245 65.5567 146.698 65.3326 145.35 65.2261C143.818 65.0938 142.448 65.2628 141.47 63.9732C141.011 63.3003 140.495 62.6684 139.927 62.0847C139.732 61.8937 137.767 60.6813 137.767 60.6004Z" fill="#512E4E"/>
<path opacity="0.1" d="M97.8334 138.079L93.994 130.981L92.7778 141.933C92.7778 141.933 93.4539 146.798 93.3179 147.544C93.182 148.29 96.0882 154.976 96.0882 154.976C96.0882 154.976 105.689 172.075 109.609 172.957L122.854 163.493L119.341 159.033C119.341 159.033 118.125 158.559 117.82 159.033C117.82 159.033 111.299 147.812 110.623 147C109.947 146.188 110.079 144.568 110.079 144.568C110.079 144.568 109.065 143.488 109.403 142.473C109.741 141.459 107.445 137.943 107.445 137.943L109.539 135.985L97.8334 138.079Z" fill="black"/>
<path d="M94.196 130.173L93.1819 130.981L91.9658 141.933C91.9658 141.933 92.6419 146.798 92.5059 147.544C92.37 148.289 95.2798 154.976 95.2798 154.976C95.2798 154.976 104.877 172.075 108.797 172.957L122.045 163.493L118.529 159.032C118.529 159.032 117.313 158.559 117.008 159.032C117.008 159.032 110.487 147.812 109.811 147C109.135 146.188 109.271 144.568 109.271 144.568C109.271 144.568 108.257 143.487 108.595 142.473C108.933 141.459 106.633 137.943 106.633 137.943L108.727 135.985L94.196 130.173Z" fill="white"/>
<path opacity="0.1" d="M157.122 173.078C157.856 173.971 157.394 177.98 157.394 177.98L155.365 181.338C155.365 181.338 155.487 183.505 155.494 186.426L152.084 187.492C151.776 187.588 151.45 187.609 151.132 187.554C150.814 187.498 150.514 187.367 150.257 187.172C150 186.976 149.793 186.723 149.654 186.431C149.515 186.14 149.448 185.819 149.458 185.497L150.045 166.535L158 169.577C157.324 170.047 158.066 171.201 158.066 171.201C158.066 171.201 156.379 172.186 157.122 173.078Z" fill="black"/>
<path d="M157.53 172.671C158.265 173.564 157.802 177.576 157.802 177.576L155.774 180.934C155.774 180.934 155.895 183.098 155.906 186.022L152.434 187.106C152.132 187.2 151.812 187.22 151.501 187.165C151.19 187.111 150.896 186.982 150.645 186.791C150.393 186.6 150.191 186.351 150.055 186.066C149.918 185.781 149.852 185.467 149.862 185.152L150.454 166.131L158.412 169.173C157.732 169.643 158.474 170.793 158.474 170.793C158.474 170.793 156.795 171.782 157.53 172.671Z" fill="white"/>
<path d="M160.164 163.633C160.164 163.633 159.624 167.082 158.272 167.285C156.92 167.487 156.313 172.865 154.965 172.674C153.617 172.483 154.509 167.674 154.557 166.741C154.605 165.808 153.088 161.942 154.223 161.064C155.358 160.186 158.951 161.064 158.951 161.064L160.164 163.633Z" fill="#CF6F80"/>
<path opacity="0.1" d="M163.041 137.065L165.591 131.922C165.591 131.922 166.605 135.842 166.605 137.936C166.605 140.03 168.023 140.236 168.023 140.236C168.023 140.236 169.577 142.073 168.758 143.41C167.938 144.748 167.608 148.077 167.608 148.077C167.608 148.077 167.876 154.429 166.66 155.307C165.444 156.185 165.19 158.283 165.19 158.283C165.19 158.283 162.956 162.269 163.026 163.217C163.096 164.165 159.918 170.584 159.918 170.584C159.918 170.584 161.472 162.608 152.415 159.161C152.415 159.161 152.346 156.453 153.022 155.711C153.698 154.969 154.752 154.631 154.091 150.88C153.429 147.129 153.9 142.646 153.9 141.746C153.9 140.846 155.928 135.232 155.928 135.232L163.041 137.065Z" fill="black"/>
<path d="M164.143 131.187L166.369 131.922C166.369 131.922 167.387 135.842 167.387 137.936C167.387 140.03 168.805 140.236 168.805 140.236C168.805 140.236 170.359 142.073 169.54 143.41C168.721 144.748 168.394 148.076 168.394 148.076C168.394 148.076 168.662 154.429 167.446 155.307C166.23 156.185 165.958 158.283 165.958 158.283C165.958 158.283 163.728 162.269 163.798 163.217C163.867 164.165 160.686 170.584 160.686 170.584C160.686 170.584 162.243 162.607 153.183 159.161C153.183 159.161 153.117 156.453 153.793 155.711C154.469 154.969 155.524 154.631 154.862 150.88C154.201 147.129 154.671 142.646 154.671 141.746C154.671 140.846 156.699 135.232 156.699 135.232L164.143 131.187Z" fill="white"/>
<path opacity="0.1" d="M114.966 264.508C114.966 264.508 118.515 262.278 120.844 263.898C123.173 265.518 114.966 264.508 114.966 264.508Z" fill="black"/>
<path opacity="0.1" d="M142.543 257.612C142.543 257.612 145.685 257.207 148.323 260.048C150.961 262.888 142.543 257.612 142.543 257.612Z" fill="black"/>
<g opacity="0.1">
<path opacity="0.1" d="M147.139 79.9299C146.687 80.3193 146.107 80.5985 145.806 81.1166C145.548 81.5611 145.541 82.1086 145.335 82.5862C145.13 83.0638 144.531 83.4533 144.115 83.152C144.02 79.8454 142.389 76.7408 140.386 74.0954C139.826 73.2971 139.146 72.5906 138.369 72.0012C137.583 71.41 136.604 71.1335 135.625 71.226C134.522 71.3766 133.552 72.1261 132.439 72.218C130.97 72.3429 129.651 71.3252 128.192 71.2737C127.599 71.2796 127.015 71.4122 126.477 71.6625C125.94 71.9128 125.462 72.275 125.076 72.725C124.309 73.6296 123.74 74.6846 123.405 75.8222C122.827 77.5486 122.513 79.3519 122.471 81.1717C122.449 82.1968 122.354 83.4753 121.406 83.8574C121.428 84.1289 121.428 84.4017 121.406 84.6731C122.361 84.3057 122.457 83.0124 122.479 81.9837C122.52 80.1638 122.834 78.3604 123.412 76.6342C123.747 75.4955 124.317 74.4393 125.084 73.5333C125.47 73.0845 125.948 72.7234 126.486 72.4737C127.023 72.2241 127.607 72.0919 128.199 72.0857C129.669 72.1371 130.992 73.1512 132.447 73.0299C133.549 72.9381 134.526 72.1849 135.632 72.0379C136.611 71.9455 137.59 72.222 138.377 72.8132C139.153 73.4026 139.834 74.1091 140.394 74.9074C142.396 77.5491 144.027 80.6463 144.123 83.9603C144.538 84.2653 145.137 83.8685 145.343 83.3982C145.548 82.9279 145.556 82.3768 145.813 81.9285C146.114 81.4105 146.695 81.1349 147.147 80.7455C148.293 79.7572 148.579 78.0928 148.535 76.5828C148.535 76.535 148.535 76.4872 148.535 76.4432C148.466 77.7511 148.117 79.0848 147.139 79.9299Z" fill="black"/>
<path opacity="0.1" d="M120.017 79.6691C119.172 78.7395 118.019 78.1186 117.243 77.1339C116.591 76.2623 116.218 75.213 116.174 74.1249C116.059 75.4846 116.438 76.8404 117.243 77.9422C118.019 78.9306 119.172 79.5515 120.017 80.481C120.829 81.3903 121.316 82.5428 121.402 83.7583C121.459 83.0186 121.365 82.2751 121.127 81.5724C120.889 80.8697 120.511 80.2223 120.017 79.6691Z" fill="black"/>
<path opacity="0.1" d="M149.252 68.577C149.035 69.4771 148.649 70.3332 148.473 71.2407C148.369 71.8471 148.33 72.463 148.359 73.0777C148.371 72.7276 148.409 72.3788 148.473 72.0343C148.649 71.1231 149.035 70.2707 149.252 69.3706C149.378 68.8741 149.419 68.3597 149.373 67.8495C149.35 68.0946 149.31 68.3377 149.252 68.577Z" fill="black"/>
</g>
<path opacity="0.1" d="M48.766 279.447C68.5379 279.447 84.5662 276.872 84.5662 273.697C84.5662 270.521 68.5379 267.947 48.766 267.947C28.9941 267.947 12.9658 270.521 12.9658 273.697C12.9658 276.872 28.9941 279.447 48.766 279.447Z" fill="#67A3A3"/>
<path d="M49.9196 163.548H47.616V215.415H49.9196V163.548Z" fill="#535461"/>
<path d="M64.3954 215.257L64.2521 217.594L64.0464 220.9L63.9619 222.274L63.7598 225.581L63.6716 226.955L63.4659 230.262L61.1439 267.763C61.0429 269.377 60.331 270.891 59.1529 271.998C57.9748 273.105 56.4191 273.722 54.8024 273.722H42.7294C41.1131 273.722 39.5578 273.105 38.3803 271.998C37.2028 270.891 36.4916 269.376 36.3916 267.763L34.0806 230.236L33.8749 226.929L33.7904 225.555L33.5846 222.249L33.5001 220.874L33.2944 217.568L33.1474 215.231C33.1219 214.781 33.1885 214.331 33.3432 213.908C33.4979 213.485 33.7374 213.098 34.0471 212.771C34.3567 212.444 34.7299 212.183 35.1438 212.005C35.5577 211.828 36.0036 211.736 36.4541 211.737H61.1475C61.5963 211.741 62.0395 211.837 62.4498 212.019C62.8601 212.2 63.2288 212.464 63.5332 212.794C63.8375 213.124 64.071 213.513 64.2193 213.936C64.3676 214.36 64.4276 214.809 64.3954 215.257Z" fill="#3F3D56"/>
<path d="M64.2522 217.594L64.0465 220.889H33.4855L33.2798 217.594H64.2522Z" fill="#9D9CB5"/>
<path d="M63.962 222.263L63.7599 225.563H33.7758L33.5701 222.263H63.962Z" fill="#9D9CB5"/>
<path d="M63.6718 226.94L63.4697 230.236H34.0661L33.8604 226.94H63.6718Z" fill="#9D9CB5"/>
<path d="M29.7636 182.988C43.1776 192.694 48.7769 207.876 48.7769 207.876C48.7769 207.876 32.611 207.321 19.1932 197.614C5.77553 187.907 0.187256 172.729 0.187256 172.729C0.187256 172.729 16.3458 173.281 29.7636 182.988Z" fill="#67A3A3"/>
<path d="M0.17627 172.729C0.17627 172.729 16.9594 182.043 22.342 189.755C27.7245 197.467 48.7769 207.876 48.7769 207.876" stroke="#535461" stroke-width="0.734815" stroke-miterlimit="10"/>
<path d="M38.4233 163.434C45.7237 168.714 48.7768 176.977 48.7768 176.977C48.7768 176.977 39.9774 176.675 32.6734 171.396C25.3693 166.116 22.3235 157.849 22.3235 157.849C22.3235 157.849 31.1192 158.151 38.4233 163.434Z" fill="#67A3A3"/>
<path d="M22.3235 157.849C22.3235 157.849 31.4572 162.92 34.3855 167.115C37.3137 171.311 48.7768 176.977 48.7768 176.977" stroke="#535461" stroke-width="0.734815" stroke-miterlimit="10"/>
<path d="M59.3768 176.558C50.9889 185.776 49.2144 197.823 49.2144 197.823C49.2144 197.823 61.0412 194.921 69.4218 185.699C77.8023 176.477 79.5843 164.433 79.5843 164.433C79.5843 164.433 67.7648 167.34 59.3768 176.558Z" fill="#67A3A3"/>
<path d="M79.5916 164.437C79.5916 164.437 68.6649 173.887 65.8873 180.397C63.1097 186.908 49.2144 197.823 49.2144 197.823" stroke="#535461" stroke-width="0.734815" stroke-miterlimit="10"/>
<path d="M367.286 173.314C367.286 173.314 361.22 143.135 363.542 139.38C363.542 139.38 363.627 135.89 363.487 131.44C363.487 131.271 363.487 131.102 363.487 130.93C363.896 131.202 364.322 131.447 364.762 131.664C366.901 132.764 369.358 133.081 371.706 132.561L369.869 130.514C369.428 130.026 368.969 129.497 368.873 128.85C368.778 128.203 369.042 127.627 369.27 127.05C371.015 122.641 371.107 117.097 367.745 113.731C364.905 110.902 364.215 107.25 361.132 104.667C358.88 102.775 357.642 100.001 356.473 97.3192C355.485 95.0523 354.489 92.767 353.924 90.3642C353.483 88.4867 353.306 86.5431 352.7 84.7098C352.094 82.8764 350.959 81.0945 349.184 80.2752C348.552 79.9849 347.85 79.8196 347.273 79.4338C346.517 78.9231 346.061 78.0928 345.514 77.3653C342.732 73.6912 333.419 75.8553 329.01 77.3469C327.811 77.7226 326.701 78.3375 325.747 79.1546L325.787 79.0884C325.821 79.0333 325.861 78.9782 325.898 78.9231C325.415 79.3133 324.998 79.7785 324.663 80.3009C324.02 81.3186 323.752 82.5053 323.216 83.6076C322.569 84.9118 318.972 88.5529 320.519 90.0188C320.627 90.1173 320.751 90.1968 320.886 90.254C321.467 90.4956 322.106 90.5596 322.723 90.4377L322.657 90.5956C322.129 91.889 321.858 93.2731 321.86 94.6702C321.86 100.707 326.838 105.601 332.985 105.601C334.141 105.602 335.289 105.424 336.391 105.075C336.417 105.215 336.439 105.354 336.464 105.494C336.464 105.549 336.483 105.604 336.49 105.659L336.295 105.931C336.286 105.914 336.275 105.898 336.262 105.883L330.494 113.944C329.612 114.565 324.535 118.239 324.248 120.995C323.947 124.011 323.645 127.542 323.645 127.542L323.605 128.299C323.353 128.51 323.058 128.663 322.741 128.749C322.424 128.834 322.092 128.85 321.768 128.795C319.968 128.501 319.968 135.408 319.968 135.408C319.968 135.408 318.77 136.511 317.947 135.555C317.124 134.6 314.949 137.837 314.949 137.837L301.318 138.425L301.006 138.443L300.271 136.169C300.192 135.929 300.021 135.73 299.796 135.615C299.571 135.5 299.31 135.479 299.07 135.555C299.013 135.574 298.957 135.597 298.904 135.625L298.853 135.654L298.757 135.721L298.71 135.765C298.683 135.789 298.659 135.814 298.636 135.842L298.592 135.893L298.57 135.915C298.485 136.033 298.429 136.168 298.406 136.311C298.383 136.454 298.394 136.6 298.438 136.738L299.07 138.689C296.439 139.218 293.75 140.71 295.943 144.818L284.825 142.764L288.422 145.784L306.991 149.616C306.745 150.057 306.906 150.696 307.674 151.596C310.981 155.48 317.006 156.534 319.431 156.806C320.072 158.239 320.872 159.594 321.816 160.848L321.606 164.716C321.606 164.716 315.467 194.205 314.343 195.7C314.91 195.057 315.43 194.373 315.897 193.653C314.115 199.712 311.624 208.004 310.97 209.246C309.919 211.23 308.946 219.258 310.143 219.772C310.511 219.93 311.561 219.853 313.06 219.739V220.404L312.994 245.605C312.994 245.605 313.296 261.062 312.469 262.535C311.642 264.008 311.422 267.098 311.422 267.098C311.422 267.098 308.115 273.193 305.496 275.644C305.478 275.663 305.458 275.68 305.437 275.696L305.356 275.122C305.356 275.122 302.207 279.098 295.241 278.874C295.241 278.874 291.049 281.6 297.266 281.747C303.482 281.894 311.422 281.526 311.422 281.526C311.422 281.526 316.966 273.076 321.61 274.178V280.582H323.032V274.075C323.691 273.641 324.256 273.078 324.691 272.419C325.126 271.76 325.423 271.02 325.563 270.243C325.685 269.442 325.596 268.624 325.305 267.868C325.013 267.112 324.53 266.446 323.903 265.934C323.621 265.679 323.395 265.368 323.238 265.022C323.082 264.675 322.999 264.3 322.995 263.92L322.944 263.964C322.944 263.836 322.911 263.703 322.896 263.567C322.488 260.261 321.977 253.438 323.781 248.39C326.254 241.468 327.004 231.827 325.203 226.088C324.622 224.254 324.145 222.388 323.774 220.5C323.73 220.261 323.69 220.033 323.653 219.82C324.883 219.987 326.102 220.232 327.301 220.555C331.471 221.705 340.594 221.918 348.383 221.856C348.401 222.069 348.423 222.293 348.449 222.517C348.588 224.075 348.878 225.615 349.316 227.117C350.294 230.056 350.742 243.015 350.742 243.015C350.742 243.015 352.002 253.669 351.315 258.005C350.948 260.415 350.58 262.836 350.371 265.269V265.316C350.371 265.316 348.306 271.195 346.796 274.388C346.759 274.468 346.719 274.549 346.682 274.626C346.279 274.663 345.883 274.751 345.503 274.887C345.503 274.887 343.478 278.929 341.461 279.597C339.444 280.266 340.113 282.467 344.68 281.659C349.246 280.85 356.143 280.189 356.143 280.189L356.44 276.067L357.844 274.31L357.476 278.422L358.972 278.128L358.773 273.127L361.07 270.254C361.07 270.254 363.844 267.785 359.721 262.928V263.035C359.677 262.965 359.637 262.891 359.589 262.822V262.8C358.906 261.741 358.362 259.768 359.357 256.267C361.158 249.94 362.205 244.198 362.205 244.198C362.205 244.198 366.224 228.814 361.393 221.536H361.606C361.111 220.512 360.761 219.424 360.566 218.303C360.542 218.171 360.52 218.035 360.5 217.895C364.075 217.689 367.584 217.043 370.446 215.646C370.435 215.632 368.712 179.126 367.286 173.314ZM321.9 147.852V147.926L321.165 147.963L321.9 147.852ZM319.38 148.201C319.259 148.228 319.146 148.282 319.049 148.359C318.733 148.806 318.535 149.326 318.472 149.869L317.326 149.612C317.326 149.612 316.521 149.44 315.364 149.245L314.817 148.694C316.323 148.569 317.888 148.385 319.38 148.201Z" fill="url(#paint1_linear)"/>
<path d="M357.307 273.179L356.87 278.385L358.336 278.091L358.116 272.444L357.307 273.179Z" fill="#1D2366"/>
<path d="M323.862 248.459C322.095 253.493 322.595 260.286 322.992 263.586C323.139 264.805 323.275 265.548 323.275 265.548C323.275 265.548 320.633 271.566 320.413 271.793C320.192 272.021 312.638 276.632 312.638 276.632L307.359 279.715C307.359 279.715 302.002 277.367 304.57 276.559C305.095 276.348 305.567 276.026 305.955 275.614C308.527 273.171 311.756 267.098 311.756 267.098C311.756 267.098 311.977 264.015 312.785 262.549C313.593 261.084 313.299 245.678 313.299 245.678L313.362 220.566V217.292L323.411 217.366C323.474 218.477 323.619 219.582 323.844 220.672C324.205 222.554 324.672 224.414 325.244 226.242C327.015 231.97 326.28 241.563 323.862 248.459Z" fill="#FFB0B1"/>
<path opacity="0.1" d="M323.275 265.548C323.275 265.548 320.633 271.566 320.413 271.794C320.192 272.021 312.638 276.632 312.638 276.632L307.359 279.715C307.359 279.715 302.002 277.367 304.57 276.559C305.095 276.348 305.567 276.026 305.955 275.615L306.183 277.22L307.943 277.147L323.006 263.593C323.139 264.805 323.275 265.548 323.275 265.548Z" fill="black"/>
<path d="M323.091 263.935L307.943 277.58L306.183 277.654L305.815 275.082C305.815 275.082 302.736 279.043 295.895 278.822C295.895 278.822 291.788 281.537 297.876 281.684C303.964 281.831 311.738 281.464 311.738 281.464C311.738 281.464 317.168 273.013 321.713 274.116V280.498H323.109V274.057C323.758 273.62 324.312 273.056 324.738 272.399C325.164 271.743 325.452 271.007 325.586 270.236C325.706 269.442 325.621 268.63 325.337 267.878C325.053 267.127 324.581 266.461 323.965 265.945C323.69 265.687 323.471 265.376 323.321 265.03C323.17 264.684 323.092 264.312 323.091 263.935Z" fill="#1D2366"/>
<path d="M358.704 256.307C357.726 259.798 358.259 261.763 358.928 262.818V262.84C359.785 264.142 360.382 265.598 360.684 267.128L360.743 267.458L353.85 277.507L350.11 278.976C350.11 278.976 344.096 276.923 345.194 276.335C345.47 276.192 345.9 275.427 346.392 274.373C347.861 271.195 349.89 265.331 349.89 265.331V265.283C350.103 262.862 350.441 260.448 350.815 258.045C351.488 253.721 350.253 243.107 350.253 243.107C350.253 243.107 349.812 230.199 348.857 227.264C348.426 225.771 348.139 224.241 348.001 222.693C347.803 220.856 347.759 219.343 347.759 219.343C347.759 219.343 351.719 213.831 358.979 219.783C359.56 220.258 360.071 220.812 360.497 221.429C365.512 228.565 361.474 244.282 361.474 244.282C361.474 244.282 360.464 249.999 358.704 256.307Z" fill="#FFB0B1"/>
<path opacity="0.1" d="M360.754 267.458L353.861 277.507L350.121 278.976C350.121 278.976 344.107 276.922 345.205 276.335C345.481 276.191 345.911 275.427 346.403 274.373C348.949 274.351 350.268 276.775 350.268 276.775L353.494 276.261C353.494 276.261 357.748 267.899 358.704 267.388C359.659 266.878 358.851 263.571 358.851 263.571V262.729C358.876 262.759 358.898 262.792 358.928 262.821V262.843C359.785 264.145 360.382 265.602 360.684 267.131L360.754 267.458Z" fill="black"/>
<path d="M350.488 276.992C350.488 276.992 348.651 273.619 345.132 274.865C345.132 274.865 343.151 278.906 341.171 279.56C339.191 280.214 339.852 282.419 344.327 281.614C348.802 280.81 355.548 280.145 355.548 280.145L355.841 276.033L360.39 270.239C360.39 270.239 363.101 267.781 359.067 262.943V263.784C359.067 263.784 359.876 267.091 358.92 267.601C357.965 268.112 353.725 276.478 353.725 276.478L350.488 276.992Z" fill="#1D2366"/>
<path opacity="0.1" d="M323.421 217.358C323.485 218.47 323.63 219.575 323.855 220.665C319.718 220.059 315.879 220.36 313.362 220.559V217.285L323.421 217.358Z" fill="black"/>
<path opacity="0.1" d="M360.904 222.344C360.904 222.344 355.026 222.631 348.016 222.689C347.817 220.852 347.773 219.339 347.773 219.339C347.773 219.339 351.734 213.828 358.994 219.78C359.574 220.254 360.085 220.808 360.511 221.426C360.625 221.739 360.756 222.045 360.904 222.344Z" fill="black"/>
<path d="M360.904 221.683C360.904 221.683 335.156 222.928 327.309 220.728C319.461 218.527 311.683 220.434 310.511 219.923C309.339 219.412 310.29 211.414 311.319 209.433C312.348 207.453 317.991 187.426 317.991 187.426L323.421 159.113L329.142 157.537L329.546 157.423L339.514 154.675L346.818 152.658C346.818 152.658 361.342 209.36 360.096 213.541C359.644 215.142 359.571 216.826 359.883 218.461C360.073 219.577 360.417 220.661 360.904 221.683Z" fill="#1D2366"/>
<path d="M304.493 139.751C304.493 139.751 299.349 145.262 303.244 148.334C307.138 151.405 309.699 148.628 309.699 148.628L304.493 139.751Z" fill="#C7DAF5"/>
<path opacity="0.1" d="M304.493 139.751C304.493 139.751 299.349 145.262 303.244 148.334C307.138 151.405 309.699 148.628 309.699 148.628L304.493 139.751Z" fill="black"/>
<path d="M346.05 103.517C346.05 103.517 345.447 104.09 344.54 104.935C343.247 106.144 341.333 107.911 339.635 109.392C337.284 111.439 335.344 112.941 336.038 111.659C336.733 110.377 336.6 108.143 336.255 106.052C336.229 105.913 336.207 105.773 336.181 105.637C335.895 104.102 335.516 102.585 335.046 101.096C335.046 101.096 338.845 96.1875 340.947 94.2513C341.729 93.5165 342.277 93.2152 342.31 93.7259C342.347 94.4129 342.861 95.9303 343.5 97.5396C343.519 97.591 343.537 97.6388 343.559 97.6902C343.985 98.7924 344.466 99.924 344.889 100.901C345.536 102.4 346.05 103.517 346.05 103.517Z" fill="#FFB0B1"/>
<path opacity="0.1" d="M343.559 97.6902C343.202 99.6104 342.336 101.399 341.051 102.87C339.766 104.341 338.11 105.44 336.255 106.052C335.963 104.375 335.559 102.719 335.046 101.096C335.046 101.096 342.2 91.8557 342.31 93.7258C342.336 94.4349 342.894 96.0074 343.559 97.6902Z" fill="black"/>
<path opacity="0.1" d="M335.542 108.521L336.468 107.217C336.468 107.217 337.082 110.957 339.338 109.307C341.594 107.658 341.704 121.722 341.704 121.722L339.283 157.923L321.787 156.876L322.283 139.383L324.263 130.566L329.16 117.747L332.074 113.511L335.542 108.521Z" fill="black"/>
<path d="M341.704 121.946L339.499 154.679L339.268 158.147L329.513 157.563L329.146 157.541L321.797 157.1L322.293 139.604L324.274 130.786L329.171 117.967L332.085 113.731L335.553 108.723L336.479 107.423C336.479 107.423 337.093 111.163 339.348 109.513L339.396 109.48C341.601 108.084 341.704 121.946 341.704 121.946Z" fill="#1D2366"/>
<path d="M324.52 127.722C324.52 127.722 323.642 129.559 321.878 129.261C320.115 128.964 320.119 135.875 320.119 135.875C320.119 135.875 318.947 136.977 318.138 136.022C317.33 135.067 315.199 138.296 315.199 138.296L301.847 138.884C301.847 138.884 307.788 141.599 306.624 149.814C306.624 149.814 326.794 148.565 327.456 146.658C328.117 144.751 324.52 127.722 324.52 127.722Z" fill="white"/>
<path opacity="0.03" d="M324.52 127.722C324.52 127.722 323.642 129.559 321.878 129.261C320.115 128.964 320.119 135.875 320.119 135.875C320.119 135.875 318.947 136.977 318.138 136.022C317.33 135.067 315.199 138.296 315.199 138.296L301.847 138.884C301.847 138.884 307.788 141.599 306.624 149.814C306.624 149.814 326.794 148.565 327.456 146.658C328.117 144.751 324.52 127.722 324.52 127.722Z" fill="black"/>
<path d="M285.718 143.201L289.238 146.206L318.212 152.294L314.619 148.628L285.718 143.201Z" fill="white"/>
<path d="M335.597 109.679C335.116 110.413 333.738 114.176 332.588 117.46C331.629 120.198 330.828 122.604 330.828 122.604C330.828 122.604 328.958 134.78 328.003 136.981C327.048 139.181 327.566 147.764 327.566 147.764L324.006 168.96C324.006 168.96 322.393 179.89 319.902 186.419C317.444 192.845 314.707 195.858 314.622 195.953C315.724 194.462 321.731 165.091 321.731 165.091L323.715 128.049C323.715 128.049 324.006 124.529 324.3 121.52C324.593 118.511 330.545 114.404 330.545 114.404L336.284 106.243C336.861 107.015 336.475 108.36 335.597 109.679Z" fill="white"/>
<path d="M320.633 157.284C320.633 157.284 312.182 156.916 308.089 152C303.997 147.084 317.55 150.038 317.55 150.038L321.074 150.847L320.633 157.284Z" fill="#FFB0B1"/>
<path opacity="0.1" d="M360.096 213.545C359.644 215.146 359.571 216.83 359.883 218.464C350.665 219.118 340.804 216.627 340.804 216.627C338.967 218.317 334.128 220.808 334.128 220.808L331.49 188.109C329.803 183.7 329.142 160.601 329.142 160.601C329.142 160.601 329.293 159.393 329.509 157.581C329.509 157.537 329.509 157.489 329.528 157.445C330.186 152.386 331.49 142.889 332.129 141.606C333.011 139.843 329.418 135.151 329.418 135.151L331.053 121.208L331.251 119.525C334.697 117.986 337.339 113.07 337.339 113.07L339.367 109.517C341.571 108.102 341.685 121.965 341.685 121.965L339.481 154.697L346.785 152.68C346.785 152.68 361.342 209.364 360.096 213.545Z" fill="black"/>
<path d="M369.557 215.804C359.508 220.794 341.244 216.172 341.244 216.172C339.407 217.862 334.568 220.353 334.568 220.353L331.927 187.654C330.244 183.245 329.583 160.146 329.583 160.146C329.583 160.146 331.706 142.911 332.588 141.151C332.845 140.637 332.72 139.872 332.415 139.049C330.916 135.132 330.365 130.916 330.806 126.745L331.512 120.752L331.706 119.073C335.156 117.53 337.798 112.614 337.798 112.614L339.635 109.396L343.015 103.466L344.617 100.659L344.889 100.905L346.965 102.786C346.965 102.786 347.847 103.521 349.169 104.623C352.046 107.048 357.017 111.317 359.582 113.93C361.837 116.23 362.55 125.176 362.756 131.911C362.892 136.345 362.811 139.821 362.811 139.821C360.537 143.565 366.485 173.622 366.485 173.622C367.87 179.431 369.557 215.804 369.557 215.804Z" fill="white"/>
<path opacity="0.03" d="M350.268 112.541C350.268 112.541 343.372 125.668 344.173 130.658C344.974 135.647 347.252 141.294 346.153 142.613C345.776 143.113 345.288 143.518 344.727 143.798C344.167 144.078 343.55 144.224 342.923 144.226C341.821 144.299 338.882 146.353 338.882 146.574C338.882 146.794 336.167 146.794 333.738 147.823C331.31 148.852 327.724 149.436 327.724 149.436C327.724 149.436 320.743 149.215 320.093 149.877C319.442 150.538 318.774 154.495 320.166 157.651C321.559 160.807 323.105 163.162 324.274 163.592C325.442 164.022 332.856 161.538 338.871 160.95C344.885 160.362 351.414 155.597 351.414 155.597C351.414 155.597 358.604 153.025 359.865 148.701C361.125 144.377 358.325 120.609 358.325 120.609C358.325 120.609 356.209 109.532 350.268 112.541Z" fill="black"/>
<path opacity="0.03" d="M349.386 111.439C349.386 111.439 342.49 124.57 343.298 129.555C344.107 134.541 346.377 140.192 345.275 141.515C344.899 142.015 344.412 142.421 343.852 142.701C343.292 142.981 342.675 143.127 342.049 143.127C340.947 143.201 338.008 145.255 338.008 145.475C338.008 145.696 335.292 145.696 332.864 146.721C330.435 147.746 326.849 148.334 326.849 148.334C326.849 148.334 319.869 148.113 319.222 148.775C318.575 149.436 317.899 153.397 319.295 156.549C320.692 159.701 322.235 162.06 323.403 162.49C324.571 162.92 331.986 160.436 338 159.852C344.015 159.268 350.544 154.495 350.544 154.495C350.544 154.495 357.73 151.923 358.976 147.603C360.221 143.282 357.436 119.507 357.436 119.507C357.436 119.507 355.327 108.433 349.386 111.439Z" fill="black"/>
<path d="M350.051 111.879C350.051 111.879 343.155 125.01 343.963 129.996C344.771 134.982 347.042 140.633 345.943 141.952C345.567 142.453 345.08 142.86 344.519 143.141C343.959 143.421 343.341 143.568 342.714 143.568C341.612 143.642 338.672 145.696 338.672 145.912C338.672 146.129 335.961 146.133 333.529 147.161C331.097 148.19 327.514 148.774 327.514 148.774C327.514 148.774 320.534 148.554 319.883 149.215C319.233 149.877 318.564 153.837 319.957 156.99C321.349 160.142 322.896 162.501 324.064 162.931C325.233 163.36 332.647 160.877 338.661 160.289C344.676 159.701 351.205 154.936 351.205 154.936C351.205 154.936 358.395 152.364 359.655 148.04C360.915 143.715 358.134 119.948 358.134 119.948C358.134 119.948 355.988 108.889 350.051 111.879Z" fill="white"/>
<path opacity="0.1" d="M349.9 147.099C349.9 147.099 344.389 145.997 346.307 147.834C348.225 149.671 348.214 151.28 350.562 151.207C352.909 151.133 349.9 147.099 349.9 147.099Z" fill="black"/>
<path opacity="0.1" d="M359.214 186.625C359.214 186.625 356.723 188.311 361.489 192.199C366.254 196.086 359.214 186.625 359.214 186.625Z" fill="black"/>
<path opacity="0.1" d="M354.46 200.487C354.46 200.708 353.578 208.57 356.878 210.536C360.177 212.501 354.46 200.487 354.46 200.487Z" fill="black"/>
<path d="M302.075 138.865C299.415 138.957 293.669 139.769 296.648 145.328C299.283 150.248 303.71 146.959 306.201 144.465C305.593 142.139 304.116 140.135 302.075 138.865Z" fill="#FFB0B1"/>
<path d="M306.234 144.421L306.344 144.307L306.234 144.421Z" fill="#FFB0B1"/>
<path opacity="0.1" d="M349.169 104.847C346.348 106.776 343.982 108.404 343.519 108.742C342.255 109.679 339.845 115.179 338.29 117.986C337.052 120.245 333.029 120.826 331.512 120.969L331.706 119.29C335.156 117.747 337.798 112.831 337.798 112.831L344.617 100.876L346.965 103.01C346.965 103.01 347.847 103.745 349.169 104.847Z" fill="black"/>
<path d="M349.169 104.627C346.348 106.556 343.982 108.183 343.519 108.525C342.255 109.458 339.845 114.958 338.29 117.765C337.052 120.025 333.029 120.605 331.512 120.749L331.706 119.07C335.156 117.527 337.798 112.611 337.798 112.611L344.617 100.655L346.965 102.782C346.965 102.782 347.847 103.51 349.169 104.627Z" fill="#DCE7FF"/>
<path d="M343.739 95.2653C343.74 97.4708 343.072 99.6247 341.821 101.441C340.344 103.589 338.146 105.137 335.626 105.803C333.106 106.469 330.43 106.209 328.085 105.071C325.74 103.934 323.88 101.993 322.843 99.6009C321.806 97.2091 321.662 94.525 322.435 92.0355C323.208 89.546 324.847 87.4161 327.057 86.0322C329.266 84.6484 331.898 84.1023 334.475 84.493C337.052 84.8837 339.404 86.1854 341.104 88.1618C342.804 90.1383 343.739 92.6585 343.739 95.2653Z" fill="#FFB0B1"/>
<path opacity="0.1" d="M362.756 131.914C361.264 130.996 360.049 129.691 359.24 128.137C358.626 126.925 358.219 125.525 357.171 124.665C356.227 123.894 354.967 123.706 353.791 123.361C349.926 122.218 346.686 118.691 346.564 114.664C346.506 112.769 347.097 110.876 346.829 108.999C346.676 107.936 346.254 106.931 345.602 106.078C345.278 105.67 344.923 105.288 344.54 104.935C344.026 104.45 343.486 103.98 343.015 103.466C342.719 103.147 342.46 102.796 342.244 102.419C342.069 102.11 341.927 101.784 341.821 101.445C341.086 99.1965 341.755 96.5291 340.947 94.2549L340.903 94.1299C340.598 93.3216 339.977 92.5133 339.113 92.4509C338.25 92.3884 337.511 93.1049 336.689 93.4245C334.965 94.0932 333.106 92.9542 331.67 91.7932C330.233 90.6322 328.613 89.3059 326.787 89.5631C325.578 89.7357 324.623 90.5587 323.51 90.9849C323.258 91.0822 322.999 91.1572 322.734 91.209C323.676 88.8595 325.407 86.9114 327.63 85.6995C329.852 84.4875 332.427 84.0873 334.913 84.5677C337.398 85.0481 339.639 86.379 341.249 88.3319C342.86 90.2847 343.74 92.7375 343.739 95.2689C343.74 96.0333 343.66 96.7957 343.5 97.5431C343.519 97.5946 343.537 97.6423 343.559 97.6938C343.985 98.796 344.467 99.9276 344.889 100.905L346.965 102.786C346.965 102.786 347.847 103.521 349.169 104.623C352.046 107.048 357.017 111.317 359.582 113.93C361.838 116.237 362.543 125.18 362.756 131.914Z" fill="black"/>
<path d="M323.381 84.2724C323.906 83.2033 324.167 82.0055 324.796 80.9915C325.718 79.5219 327.327 78.5813 328.98 78.0118C333.297 76.5238 342.42 74.3635 345.146 78.0118C345.683 78.7466 346.127 79.5623 346.869 80.0693C347.435 80.4551 348.119 80.6204 348.74 80.9107C350.477 81.7263 351.587 83.5046 352.178 85.3196C352.77 87.1345 352.946 89.0818 353.38 90.9519C353.935 93.3511 354.908 95.6253 355.878 97.8849C357.021 100.552 358.233 103.319 360.438 105.204C363.447 107.776 364.112 111.417 366.904 114.238C370.211 117.589 370.104 123.118 368.4 127.509C368.175 128.086 367.922 128.688 368.01 129.302C368.098 129.915 368.554 130.474 368.984 130.963L370.791 133.002C366.515 134.034 361.676 131.8 359.685 127.88C359.071 126.668 358.663 125.271 357.612 124.408C356.672 123.636 355.408 123.453 354.236 123.107C350.371 121.961 347.13 118.43 347.009 114.404C346.95 112.511 347.542 110.619 347.274 108.745C347.124 107.676 346.7 106.663 346.043 105.806C345.032 104.487 343.508 103.602 342.685 102.132C341.292 99.6742 342.35 96.4814 341.347 93.8434C341.039 93.0351 340.421 92.2268 339.558 92.1644C338.695 92.1019 337.956 92.8183 337.129 93.138C335.41 93.8067 333.551 92.6714 332.114 91.5067C330.678 90.342 329.058 89.0193 327.228 89.2802C326.019 89.4492 325.067 90.2722 323.954 90.7021C323.131 91.018 321.463 91.3009 320.743 90.6065C319.222 89.2067 322.745 85.5804 323.381 84.2724Z" fill="#591D4B"/>
<path opacity="0.1" d="M360.706 126.668C360.089 125.455 359.684 124.059 358.634 123.199C357.693 122.428 356.429 122.24 355.254 121.895C351.392 120.752 348.152 117.222 348.027 113.195C347.968 111.303 348.559 109.407 348.295 107.533C348.141 106.47 347.717 105.465 347.064 104.612C346.05 103.293 344.525 102.408 343.706 100.938C342.313 98.4838 343.372 95.291 342.365 92.6494C342.06 91.8447 341.439 91.0365 340.579 90.9703C339.72 90.9042 338.974 91.628 338.151 91.9476C336.431 92.6163 334.569 91.4773 333.136 90.3163C331.703 89.1553 330.075 87.829 328.249 88.0862C327.04 88.2589 326.085 89.0818 324.975 89.508C324.153 89.824 322.481 90.1106 321.761 89.4162C320.247 87.9466 323.77 84.3276 324.402 83.027C324.928 81.9541 325.189 80.7601 325.821 79.746C325.854 79.6909 325.89 79.6358 325.927 79.5807C325.454 79.9723 325.046 80.436 324.718 80.9548C324.09 81.9688 323.829 83.1592 323.304 84.2357C322.668 85.5364 319.145 89.1663 320.662 90.625C321.397 91.323 323.05 91.0364 323.873 90.7205C324.975 90.2906 325.938 89.4676 327.147 89.2986C328.984 89.0378 330.601 90.3641 332.033 91.5251C333.466 92.6861 335.34 93.8251 337.052 93.1564C337.875 92.8367 338.595 92.1166 339.477 92.1828C340.359 92.2489 340.947 93.0535 341.266 93.8618C342.269 96.4998 341.211 99.6926 342.604 102.151C343.427 103.594 344.951 104.498 345.962 105.825C346.619 106.681 347.043 107.694 347.193 108.764C347.461 110.638 346.869 112.53 346.928 114.422C347.049 118.463 350.29 121.98 354.155 123.126C355.32 123.471 356.591 123.655 357.531 124.426C358.586 125.29 359.001 126.686 359.604 127.898C361.595 131.819 366.434 134.053 370.71 133.02L369.858 132.057C366.151 132.113 362.4 130.004 360.706 126.668Z" fill="black"/>
<path opacity="0.1" d="M335.377 109.899C334.896 110.634 333.518 114.396 332.368 117.681C331.291 117.262 330.314 114.591 330.314 114.591L336.053 106.427C336.641 107.235 336.255 108.576 335.377 109.899Z" fill="black"/>
<path d="M335.598 109.679C335.116 110.413 333.738 114.176 332.588 117.46C331.512 117.045 330.535 114.37 330.535 114.37L336.274 106.21C336.861 107.015 336.476 108.36 335.598 109.679Z" fill="#DCE7FF"/>
<path d="M302.229 147.213L299.048 137.179C299.01 137.062 298.996 136.938 299.006 136.815C299.016 136.692 299.051 136.572 299.108 136.463C299.164 136.353 299.242 136.256 299.336 136.176C299.431 136.097 299.54 136.037 299.658 136C299.894 135.926 300.151 135.948 300.371 136.063C300.591 136.177 300.757 136.374 300.833 136.61L304.015 146.633L303.699 148.73L302.229 147.213Z" fill="#BE8B87"/>
<path opacity="0.1" d="M299.349 136.297C299.586 136.222 299.844 136.244 300.065 136.359C300.286 136.473 300.453 136.67 300.528 136.907L303.71 146.93L303.471 148.503L303.703 148.745L304.019 146.647L300.819 136.624C300.743 136.388 300.577 136.192 300.356 136.077C300.136 135.963 299.88 135.94 299.643 136.014C299.444 136.079 299.272 136.208 299.154 136.382C299.217 136.348 299.282 136.32 299.349 136.297Z" fill="white"/>
<path d="M302.229 147.213L304.015 146.647L303.754 148.367L303.699 148.745L303.177 148.201L302.229 147.213Z" fill="#EFC8C4"/>
<path d="M303.177 148.201C303.209 148.162 303.247 148.13 303.291 148.106C303.317 148.089 303.347 148.081 303.378 148.081C303.408 148.081 303.438 148.089 303.464 148.106C303.489 148.136 303.51 148.169 303.527 148.205C303.551 148.246 303.584 148.28 303.623 148.306C303.663 148.332 303.708 148.349 303.754 148.356L303.699 148.723L303.177 148.201Z" fill="#727A9C"/>
<path d="M299.029 140.743C299.029 140.743 305.411 140.706 303.908 143.421C302.406 146.136 300.058 146.463 300.058 146.463L299.029 140.743Z" fill="#FFB0B1"/>
<path d="M259.338 18.8922H259.063C248.099 18.8922 238.403 24.6936 232.826 33.2542C227.249 24.6936 217.553 18.8922 206.59 18.8922H206.314C198.086 18.9706 190.222 22.2929 184.43 28.1372C178.638 33.9814 175.387 41.8754 175.382 50.1035C175.382 60.3211 179.857 74.819 188.583 86.7487C205.208 109.48 232.826 129.368 232.826 129.368C232.826 129.368 260.444 109.484 277.066 86.7487C285.795 74.819 290.267 60.3211 290.267 50.1035C290.262 41.876 287.011 33.9826 281.22 28.1385C275.429 22.2943 267.565 18.9716 259.338 18.8922ZM255.396 88.4976C254.147 88.4928 252.929 88.1106 251.902 87.4012C250.875 86.6917 250.086 85.6881 249.639 84.5222H243.084C242.653 84.5195 242.233 84.3821 241.883 84.1292C241.533 83.8763 241.271 83.5204 241.133 83.1114L239.12 77.0455L232.749 99.3067C232.625 99.7352 232.365 100.112 232.009 100.38C231.652 100.649 231.219 100.794 230.772 100.795H230.644C230.178 100.772 229.735 100.591 229.387 100.28C229.039 99.9701 228.808 99.5499 228.733 99.0899L222.168 59.601L217.369 82.9681C217.259 83.412 217.004 83.8062 216.644 84.0879C216.283 84.3696 215.839 84.5225 215.382 84.5222H206.149C205.872 84.5339 205.596 84.4895 205.337 84.3917C205.077 84.2938 204.841 84.1446 204.641 83.9529C204.441 83.7612 204.282 83.531 204.173 83.2762C204.064 83.0214 204.008 82.7473 204.008 82.4702C204.008 82.1932 204.064 81.9191 204.173 81.6643C204.282 81.4095 204.441 81.1793 204.641 80.9876C204.841 80.7959 205.077 80.6466 205.337 80.5488C205.596 80.451 205.872 80.4066 206.149 80.4183H213.765L220.562 49.0013C220.674 48.5368 220.943 48.1255 221.324 47.8376C221.706 47.5498 222.175 47.4034 222.652 47.4233C223.13 47.4433 223.585 47.6284 223.941 47.9471C224.297 48.2657 224.531 48.6981 224.604 49.1703L231.309 89.4528L237.018 69.5357C237.137 69.1162 237.389 68.7464 237.735 68.4815C238.081 68.2167 238.504 68.0709 238.94 68.066H238.98C239.412 68.0662 239.833 68.2026 240.183 68.456C240.532 68.7093 240.793 69.0666 240.928 69.4769L244.569 80.4293H249.558C249.913 79.3516 250.558 78.3928 251.424 77.6588C252.289 76.9248 253.34 76.4441 254.461 76.2698C255.582 76.0956 256.73 76.2344 257.777 76.6711C258.824 77.1078 259.73 77.8254 260.396 78.7446C261.061 79.6638 261.459 80.7489 261.546 81.8801C261.634 83.0114 261.407 84.1448 260.891 85.1553C260.375 86.1657 259.59 87.014 258.622 87.6064C257.654 88.1987 256.542 88.5122 255.407 88.5123L255.396 88.4976Z" fill="#67A3A3"/>
</g>
<defs>
<linearGradient id="paint0_linear" x1="130.918" y1="284.693" x2="130.918" y2="58.6127" gradientUnits="userSpaceOnUse">
<stop stop-color="#808080" stop-opacity="0.25"/>
<stop offset="0.54" stop-color="#808080" stop-opacity="0.12"/>
<stop offset="1" stop-color="#808080" stop-opacity="0.1"/>
</linearGradient>
<linearGradient id="paint1_linear" x1="82011" y1="170581" x2="82011" y2="54531.7" gradientUnits="userSpaceOnUse">
<stop stop-color="#808080" stop-opacity="0.25"/>
<stop offset="0.54" stop-color="#808080" stop-opacity="0.12"/>
<stop offset="1" stop-color="#808080" stop-opacity="0.1"/>
</linearGradient>
<clipPath id="clip0">
<rect width="406" height="287.585" fill="white"/>
</clipPath>
</defs>
</svg>
