<?xml version="1.0" encoding="utf-8"?>
<!-- Generator: Adobe Illustrator 24.2.3, SVG Export Plug-In . SVG Version: 6.00 Build 0)  -->
<svg version="1.1" id="Layer_1" xmlns="http://www.w3.org/2000/svg" xmlns:xlink="http://www.w3.org/1999/xlink" x="0px" y="0px"
	 viewBox="0 0 1113 340" style="enable-background:new 0 0 1113 340;" xml:space="preserve">
<style type="text/css">
	.st0{fill:#E8F7F6;}
	.st1{fill:#3D666C;}
	.st2{fill:#FFFFFF;}
	.st3{fill:#67A3A3;}
	.st4{fill:#A0616A;}
	.st5{fill:#2F2E41;}
	.st6{opacity:0.2;enable-background:new    ;}
	.st7{fill:#3F3D56;}
	.st8{fill:#F2F2F2;}
	.st9{fill:#B3B3B3;}
</style>
<path class="st0" d="M24,0h1065c13.3,0,24,10.7,24,24v292c0,13.3-10.7,24-24,24H24c-13.3,0-24-10.7-24-24V24C0,10.7,10.7,0,24,0z"/>
<path class="st1" d="M836.7,97c-0.2,0-0.3,0.1-0.5,0.2c-0.1,0.1-0.2,0.3-0.2,0.5v52.6c0,0.2,0.1,0.3,0.2,0.5
	c0.1,0.1,0.3,0.2,0.5,0.2h41.6c0.2,0,0.3-0.1,0.5-0.2c0.1-0.1,0.2-0.3,0.2-0.5V97.6c0-0.2-0.1-0.4-0.2-0.5c-0.1-0.1-0.3-0.2-0.5-0.2
	H836.7z"/>
<path class="st2" d="M841,146.3h33v-44.1h-33V146.3z"/>
<path class="st1" d="M906.1,110.8c-0.1,0-0.2,0-0.3,0.1c-0.1,0.1-0.1,0.2-0.1,0.3v26.2c0,0.1,0,0.2,0.1,0.3c0.1,0.1,0.2,0.1,0.3,0.1
	h29.7c0.1,0,0.2,0,0.3-0.1c0.1-0.1,0.1-0.2,0.1-0.3v-26.2c0-0.1,0-0.2-0.1-0.3c-0.1-0.1-0.2-0.1-0.3-0.1H906.1z"/>
<path class="st2" d="M908.8,114.1v21h24.9v-21H908.8z"/>
<path class="st1" d="M863.7,100.9H852c-0.3,0-0.6-0.1-0.8-0.2c-0.2-0.2-0.4-0.4-0.6-0.6c-0.1-0.3-0.2-0.6-0.2-0.9
	c0-0.3,0.1-0.6,0.2-0.9l5.9-11c0,0,0,0,0,0c0.1-0.2,0.3-0.4,0.5-0.6c0.2-0.1,0.5-0.2,0.7-0.3l0,0c0,0,0.1,0,0.2,0
	c0.3,0,0.6,0.1,0.8,0.2c0.2,0.2,0.4,0.4,0.6,0.6l5.9,11c0.1,0.3,0.2,0.6,0.2,0.9c0,0.3-0.1,0.6-0.2,0.9c-0.1,0.3-0.3,0.5-0.6,0.6
	S864,100.9,863.7,100.9z M851.6,99.2c0,0.1,0,0.1,0,0.2c0,0.1,0.1,0.1,0.1,0.1c0,0,0.1,0,0.2,0h11.7c0.1,0,0.1,0,0.2,0
	c0,0,0.1-0.1,0.1-0.1c0-0.1,0-0.1,0-0.2c0-0.1,0-0.1,0-0.2l-5.9-11c0-0.1-0.1-0.1-0.1-0.1s-0.1,0-0.2,0c-0.1,0-0.1,0-0.2,0
	s-0.1,0.1-0.1,0.1l-5.9,11C851.7,99,851.6,99.1,851.6,99.2z"/>
<path class="st1" d="M857.5,89.7c0.5,0,0.9-0.4,0.9-1c0-0.5-0.4-1-0.9-1s-0.9,0.4-0.9,1C856.6,89.3,857,89.7,857.5,89.7z"/>
<path class="st1" d="M924.1,112.1h-6.3c-0.2,0-0.3,0-0.4-0.1s-0.2-0.2-0.3-0.3c-0.1-0.1-0.1-0.3-0.1-0.5s0-0.3,0.1-0.5l3.2-6l0,0
	c0.1-0.1,0.2-0.2,0.3-0.3s0.2-0.1,0.4-0.1h0c0,0,0.1,0,0.1,0c0.2,0,0.3,0,0.4,0.1c0.1,0.1,0.2,0.2,0.3,0.3l3.2,6
	c0.1,0.1,0.1,0.3,0.1,0.5c0,0.2,0,0.3-0.1,0.5c-0.1,0.1-0.2,0.3-0.3,0.3C924.4,112,924.3,112.1,924.1,112.1z M917.6,111.1
	C917.6,111.2,917.6,111.2,917.6,111.1c0,0.1,0.1,0.1,0.1,0.2c0,0,0.1,0,0.1,0h6.3c0,0,0.1,0,0.1,0c0,0,0,0,0.1-0.1c0,0,0-0.1,0-0.1
	c0,0,0-0.1,0-0.1l-3.2-6c0,0,0-0.1-0.1-0.1c0,0-0.1,0-0.1,0c0,0-0.1,0-0.1,0c0,0,0,0-0.1,0.1L917.6,111.1
	C917.6,111.1,917.6,111.1,917.6,111.1z"/>
<path class="st1" d="M921.2,106.2c0.3,0,0.6-0.3,0.6-0.7s-0.3-0.7-0.6-0.7c-0.3,0-0.6,0.3-0.6,0.7S920.9,106.2,921.2,106.2z"/>
<path class="st1" d="M841.4,129.2c0.5-1.1,1.1-2.2,2-3c0.8-0.9,1.9-1.5,2.9-1.9c1.1-0.5,2.4-0.7,3.6-0.6c1.2,0.1,2.4,0.4,3.5,1.1
	c2.5,1.4,4.5,3.7,7.1,5.1c2.5,1.3,5.2,2,8,2c3.1,0,6.3-0.8,9-2.5c0.1-0.1,0.2-0.2,0.2-0.3c0-0.1,0-0.3-0.1-0.4
	c-0.1-0.1-0.2-0.2-0.3-0.2c-0.1,0-0.3,0-0.4,0c-2.5,1.5-5.3,2.3-8.1,2.4c-2.8,0.1-5.7-0.6-8.2-2c-2.6-1.4-4.6-3.8-7.2-5.1
	c-1.1-0.6-2.3-0.9-3.6-1c-1.2-0.1-2.5,0.1-3.6,0.6c-1.3,0.5-2.5,1.2-3.5,2.2c-1,1-1.8,2.2-2.3,3.6
	C840.2,129.6,841.1,129.8,841.4,129.2L841.4,129.2z"/>
<path class="st1" d="M841,138.8c5.3-1.2,10.9-1.2,16.2,0.1c4.7,1.1,9.6,3.1,14.5,1.6c2.2-0.7,4.2-2,5.3-4c0.3-0.5-0.5-1-0.8-0.5
	c-2.1,3.8-7.1,4.5-11,3.8c-2.6-0.4-5.1-1.3-7.7-1.9c-5.5-1.3-11.3-1.3-16.8-0.1C840.1,138,840.4,139,841,138.8z"/>
<path class="st1" d="M840.4,116.2c5.1-0.8,10.4-0.7,15.4,0.5c4.7,1.1,9.3,3.7,14.3,3.2c2.3-0.2,4.6-1,6.2-2.7
	c0.4-0.4-0.3-1.1-0.7-0.7c-1.4,1.5-3.3,2.2-5.3,2.4c-2.3,0.2-4.6-0.2-6.8-0.9c-2.4-0.7-4.8-1.6-7.3-2.2c-5.3-1.3-10.8-1.5-16.2-0.6
	C839.5,115.4,839.8,116.3,840.4,116.2z"/>
<path class="st1" d="M913.3,113.6c2.1,2.4,3.6,5.5,4.2,8.8c0.5,2.6,0.4,5.4-0.2,8c-0.6,2.6-1.7,5-3.3,7.1c-0.4,0.5,0.3,1.2,0.7,0.7
	c2.1-2.8,3.5-6.2,3.9-9.9c0.3-2.8,0-5.7-0.8-8.3c-0.8-2.7-2.2-5.1-3.9-7.1C913.5,112.4,912.9,113.1,913.3,113.6z"/>
<path class="st1" d="M927.5,111.5c-3.1,2.3-4.8,6-5,9.9c-0.3,4,1.2,7.9,3.6,11c1.4,1.8,3.1,3.3,4.9,4.6c0.5,0.4,1-0.5,0.5-0.9
	c-3.1-2.1-5.7-5-7.1-8.5c-0.7-1.7-1-3.5-1-5.3s0.3-3.6,1-5.3c0.7-1.9,2-3.5,3.5-4.7C928.5,112,928,111.1,927.5,111.5z"/>
<path class="st1" d="M860,121.9c2.6,0,4.7-2.2,4.7-4.9c0-2.7-2.1-4.9-4.7-4.9s-4.7,2.2-4.7,4.9C855.3,119.7,857.4,121.9,860,121.9z"
	/>
<path class="st1" d="M965.1,222.8c0,0-65-32.4-42.1-54.9S965.1,222.8,965.1,222.8z"/>
<path class="st1" d="M963.4,230.6c0,0-30.3-105.8,14.3-100.8C1022.5,134.9,963.4,230.6,963.4,230.6z"/>
<path class="st1" d="M941.6,221.3l1.3,17.3l0,0.3c0,2.7,0.1,5.4,0.4,8.1c1.8,17.6,9.4,25.6,18.3,25.6s16.2-8,17.9-25.6
	c0.3-2.7,0.4-5.4,0.4-8.1l0-0.2l0-0.1l1.3-17.3H941.6z"/>
<path class="st2" d="M979.8,238.4L979.8,238.4l0,0.3c0,3-0.1,6-0.4,9h-35.9c-0.3-3-0.4-6-0.4-9l0-0.3H979.8z"/>
<path class="st1" d="M700.6,245.5c0,0-36.1-17.3-23.4-29.4C689.9,204.1,700.6,245.5,700.6,245.5z"/>
<path class="st1" d="M699.9,249.5c0,0-16.5-57.2,7.8-54.5C732,197.7,699.9,249.5,699.9,249.5z"/>
<path class="st1" d="M688.2,244.2l0.7,9.7l0,0.2c0,1.5,0.1,3,0.2,4.6c0.9,9.9,5,14.5,9.7,14.5c4.7,0,8.6-4.5,9.6-14.5
	c0.1-1.5,0.2-3,0.2-4.6l0-0.1l0,0l0.7-9.7H688.2z"/>
<path class="st2" d="M708.1,254.1L708.1,254.1l0,0.2c0,1.5-0.1,3-0.2,4.4H689c-0.1-1.5-0.2-3-0.2-4.4l0-0.2H708.1z"/>
<path class="st1" d="M761.3,127.8v-13.2h-1.9v13.2c-0.5,0.2-1,0.7-1.3,1.2c-0.3,0.6-0.4,1.2-0.3,1.8c0.1,0.6,0.4,1.2,0.9,1.6
	c0.4,0.4,1,0.6,1.6,0.6s1.1-0.2,1.6-0.6c0.4-0.4,0.7-1,0.9-1.6c0.1-0.6,0-1.3-0.3-1.8C762.2,128.5,761.8,128.1,761.3,127.8z"/>
<path class="st1" d="M765.8,259.9h-13.2V91h-5.1v168.9h-13.2c-1.6,0-3.1,0.3-4.6,1c-1.4,0.6-2.8,1.6-3.9,2.7c-1.1,1.2-2,2.5-2.6,4.1
	c-0.6,1.5-0.9,3.2-0.9,4.8l0,0h55.3l0,0c0-1.6-0.3-3.3-0.9-4.8c-0.6-1.5-1.5-2.9-2.6-4.1c-1.1-1.2-2.4-2.1-3.9-2.7
	C768.9,260.2,767.4,259.9,765.8,259.9z"/>
<path class="st3" d="M722.4,116h55.3l-3.4-44.3c-0.1-1.5-0.8-3-1.9-4c-1.1-1-2.5-1.6-3.9-1.6h-37c-1.5,0-2.9,0.6-3.9,1.6
	c-1.1,1-1.7,2.5-1.9,4L722.4,116z"/>
<path class="st4" d="M799.3,194.3c-0.5-0.1-1-0.1-1.5,0.1c-0.5,0.1-1,0.4-1.4,0.7c-0.4,0.3-0.8,0.7-1,1.2c-0.3,0.5-0.4,1-0.5,1.5
	l-1.5,10.7l5.2,1.5l3.8-10c0.2-0.6,0.3-1.2,0.3-1.8c0-0.6-0.2-1.2-0.5-1.8c-0.3-0.5-0.7-1-1.2-1.4
	C800.5,194.6,799.9,194.4,799.3,194.3z"/>
<path class="st3" d="M799.4,208.6c3,12.3,1.7,23.5-9.3,32.3c-13.2-3.8-22-13-27.4-26.3c-0.3-0.8-0.5-1.7-0.5-2.6
	c0-0.9,0.2-1.8,0.5-2.6c0.3-0.8,0.8-1.6,1.5-2.2c0.6-0.6,1.4-1.1,2.2-1.4c1.2-0.5,2.5-0.5,3.8-0.2c1.3,0.3,2.4,1.1,3.2,2.1l13,15.6
	l6.1-15.7L799.4,208.6z"/>
<path class="st1" d="M865.8,273.1c-11.8-0.7-19.2-5-21-14l1.9-3.8l21.8,10.7c0.6,0.3,1,0.7,1.3,1.3c0.3,0.6,0.5,1.2,0.5,1.8
	s-0.2,1.3-0.6,1.8c-0.4,0.5-0.8,0.9-1.4,1.2L865.8,273.1z"/>
<path class="st1" d="M856.9,272.9c-6.2-0.2-12.1-0.1-17.8,0.3c-1,0.1-2-0.3-2.7-0.9c-0.8-0.7-1.2-1.6-1.3-2.7l-0.3-4.4l-4.8-8
	l4.2-4.3c7,7.3,14.6,13.4,23.7,17c0.3,0.2,0.5,0.5,0.6,0.9c0.1,0.4,0.1,0.7,0,1.1c-0.1,0.4-0.3,0.7-0.6,0.9
	C857.6,272.8,857.2,272.9,856.9,272.9z"/>
<path class="st5" d="M823.1,241.2c-7.9,15-15.6,25-25.8,30.4c-12.6,4.4-21.7-1.4-28.9-13.4l20.7-14.5l3,3.2l27.5-22.2
	c0.7-0.7,1.6-1,2.5-1s1.8,0.4,2.4,1.1l23.4,30.5l-2.9,5.1L823.1,241.2z"/>
<path class="st5" d="M830.2,258.7l-10.8-17.9l2.5-5.2l14.3,16.1L830.2,258.7z"/>
<path class="st4" d="M767.5,202.1c6,0,10.9-5.2,10.9-11.5s-4.9-11.5-10.9-11.5s-10.9,5.2-10.9,11.5S761.5,202.1,767.5,202.1z"/>
<path class="st4" d="M770.3,212l-11.8-4.4c1.7-3,2.5-6.6,2.2-10.1h9.6C769.7,202.6,769.6,207.5,770.3,212z"/>
<path class="st3" d="M796.4,243.2c-1.8,0.8-2,3.4-3.7,4.3c-8.4,4.2-17.2,7.7-23.3,13.8c-14.2-10.2-27.4-42-10.3-55.9
	c5.8,3.6,11,6.2,10.9,0L796.4,243.2z"/>
<path class="st6" d="M788.9,229.4l-6-2.2l-11.7,9.7l-5.3-20.1c-0.4-1.4-1-0.7-1.8,0.3c-0.9-0.9-2-1.5-3.2-1.7
	c-1.2-0.2-2.4-0.1-3.5,0.4c-1.1,0.5-2.1,1.3-2.8,2.3c-0.7,1-1.1,2.3-1.1,3.6c-0.6,14.6,3.5,26.9,13.8,36.3
	c13.5-3.1,19.2-12.7,21.6-25.2l-0.6-0.4C788.5,231.3,788.7,230.4,788.9,229.4z"/>
<path class="st5" d="M768.9,175.5c3.6,0.9,7.7,2.1,8,3.3c3.7,1,6.5,3.4,7.1,7c0,0.3,0,0.6-0.1,0.9c-0.1,0.3-0.2,0.6-0.4,0.8
	c-0.2,0.2-0.4,0.4-0.7,0.6c-0.3,0.1-0.6,0.2-0.9,0.2c-2,0-5.1-0.2-7.1-1.1c-5.8,4-6.8,14.4-4.3,21.5l-4-0.4l-4.1-12.9l-1.1,12.4
	l-9.1-1.3l1.2-15.8c0.4-3.7,1.6-7.3,3.5-10.5c0.2-0.3,0.4-0.6,0.7-0.9c1.4-1.7,3.2-2.9,5.2-3.6C764.7,175.1,766.8,175,768.9,175.5z"
	/>
<path class="st7" d="M789.6,214.5l10,12.6l14.9-19l-10.1-13.2L789.6,214.5z"/>
<path class="st8" d="M811.7,208.7l-11.6-10.6c0.7-1.8,3.8-1.2,3.8-1.2l9.1,10.3c0.3,0.4,0.6,0.8,0.8,1.2L811.7,208.7z"/>
<path class="st7" d="M812.3,208l-13.5-11.1l-14.9,24l14.1,10.1c1.3,0.6,2.7-0.4,2.7-0.4l13.7-22.2L812.3,208z"/>
<path class="st3" d="M800.5,200.2l-0.1,0.2l8.6,6.5l0.1-0.2L800.5,200.2z"/>
<path class="st3" d="M809.2,209.2l-11.3,18.1l0.2,0.1l11.3-18.1L809.2,209.2z"/>
<path class="st3" d="M787.6,220.7l-0.1,0.2l9.2,7.1l0.1-0.2L787.6,220.7z"/>
<path class="st3" d="M798.9,200.5l-11.7,17.8l0.2,0.1l11.7-17.8L798.9,200.5z"/>
<path class="st9" d="M802.5,197.1l-0.1,0.1l10.7,10.3l0.1-0.1L802.5,197.1z"/>
<path class="st9" d="M801.6,197.1l-0.1,0.1l11.1,10.4l0.1-0.1L801.6,197.1z"/>
<path class="st9" d="M800.9,197.3l-0.1,0.1l11.6,10.2l0.1-0.1L800.9,197.3z"/>
<path class="st4" d="M794.7,218c-0.4-0.3-0.9-0.5-1.4-0.7c-0.5-0.1-1-0.1-1.6,0c-0.5,0.1-1,0.3-1.5,0.6c-0.4,0.3-0.8,0.7-1.1,1.1
	l-5.8,8.9l4.2,3.7l7.6-7.2c0.4-0.4,0.8-0.9,1-1.5c0.2-0.6,0.3-1.2,0.3-1.8c0-0.6-0.2-1.2-0.5-1.8C795.6,218.8,795.2,218.3,794.7,218
	z"/>
<path class="st3" d="M788.9,230.8c-2.4,12.5-8.1,22.2-21.6,25.2c-10.3-9.4-14.5-21.8-13.8-36.3c0-0.9,0.3-1.8,0.6-2.6
	c0.4-0.8,0.9-1.5,1.5-2.1c0.6-0.6,1.4-1,2.2-1.3c0.8-0.3,1.7-0.4,2.5-0.3c1.3,0.1,2.5,0.7,3.5,1.5s1.7,2,2,3.4l5.3,20.1l11.9-11.6
	L788.9,230.8z"/>
</svg>
