<svg width="451" height="341" viewBox="0 0 451 341" fill="none" xmlns="http://www.w3.org/2000/svg">
<path opacity="0.1" d="M406.468 85.1082C402.617 76.1707 397.413 67.8792 391.039 60.5249L176.983 58.416L353.224 33.6623C341.838 29.1282 329.717 26.7233 317.464 26.5671C300.604 13.0912 279.846 5.41766 258.275 4.68774C236.704 3.95783 215.474 10.2106 197.742 22.5159C183.572 15.2313 167.863 11.4456 151.93 11.4756C104.369 11.4756 64.7355 44.4149 55.8457 88.0993L406.468 85.1082Z" fill="#97CAEB"/>
<path opacity="0.1" d="M413.995 121.743C414.005 109.897 411.74 98.1596 407.324 87.1679L36.3358 126.108C32.5102 133.028 29.5838 140.407 27.6277 148.068L142.51 165.196L25.0039 177.69C28.5402 227.141 70.9335 266.191 122.72 266.191C148.788 266.191 172.477 256.294 190.026 240.158C207.635 256.601 231.549 266.71 257.896 266.71C296.992 266.71 330.734 244.451 346.446 212.265C377.974 202.262 402.462 177.138 410.845 145.709L265.578 123.159H413.995C413.987 122.686 413.995 122.216 413.995 121.743Z" fill="#97CAEB"/>
<path opacity="0.1" d="M239.049 282.572C255.52 282.572 268.872 279.575 268.872 275.877C268.872 272.179 255.52 269.182 239.049 269.182C222.579 269.182 209.227 272.179 209.227 275.877C209.227 279.575 222.579 282.572 239.049 282.572Z" fill="#3D666C"/>
<path opacity="0.1" d="M318.795 296.117C350.212 296.117 375.681 293.988 375.681 291.361C375.681 288.733 350.212 286.604 318.795 286.604C287.377 286.604 261.908 288.733 261.908 291.361C261.908 293.988 287.377 296.117 318.795 296.117Z" fill="#3D666C"/>
<path opacity="0.1" d="M146.929 305.069C176.643 305.069 200.731 302.071 200.731 298.373C200.731 294.676 176.643 291.678 146.929 291.678C117.215 291.678 93.127 294.676 93.127 298.373C93.127 302.071 117.215 305.069 146.929 305.069Z" fill="#3D666C"/>
<path d="M280.82 83.337C275.357 83.2299 270.537 79.3729 267.806 74.6596C267.089 73.5381 266.639 72.2675 266.49 70.9452C266.508 70.6448 266.559 70.3472 266.64 70.0573C266.807 69.6149 266.94 69.1603 267.037 68.6976C267.058 68.5132 267.058 68.327 267.037 68.1426C267.037 68.1426 267.037 68.1426 267.037 68.1109C267.167 67.108 266.577 66.1289 265.847 65.4431C265.118 64.7573 264.202 64.2539 263.441 63.572C261.094 61.5107 260.381 58.2047 260.337 55.0572V54.8907C260.365 53.5429 260.472 52.1911 260.46 50.8433C260.479 50.0782 260.445 49.3127 260.361 48.5521C260.135 46.6454 259.409 44.703 257.911 43.486C254.002 40.3147 247.43 43.6168 243.382 40.62C242.399 39.8866 241.602 38.8044 240.409 38.519C239.509 38.301 238.574 38.5943 237.694 38.8877C234.712 39.8707 231.387 41.163 230.221 44.041C229.555 45.694 229.741 47.5809 229.131 49.2537C228.734 50.3756 227.977 51.3389 227.426 52.4012C226.974 53.201 226.754 54.1114 226.792 55.0294C226.743 55.5047 226.81 55.9848 226.986 56.4287C227.193 56.9639 227.527 57.4412 227.957 57.8201C227.802 58.1512 227.608 58.4625 227.379 58.7477C226.618 59.6793 225.448 60.3334 224.655 61.261C223.189 62.9616 223.244 65.2726 223.966 67.2705C224.687 69.2684 225.991 71.0879 226.891 73.0343C227.288 73.8787 227.589 74.8221 227.188 75.6625C226.907 76.2452 226.324 76.6892 225.872 77.1926C225.211 77.9339 224.796 78.8617 224.683 79.8486C215.76 81.8861 215.752 89.0572 215.752 89.0572L210.931 101.179C210.931 101.179 210.158 103.221 209.25 105.916L203.546 104.894L207.51 111.53C206.761 114.233 206.23 116.738 206.404 117.999C206.404 117.999 204.632 126.324 207.784 127.778L214.737 130.906C215.038 131.091 215.362 131.236 215.7 131.338L215.982 131.465C216.083 131.514 216.194 131.54 216.307 131.54C216.419 131.54 216.53 131.514 216.632 131.465H216.652H216.727C216.862 131.474 216.997 131.454 217.123 131.406C217.278 131.322 217.401 131.19 217.472 131.029C217.47 131.016 217.47 131.002 217.472 130.989L219.553 130.387L221.317 132.476C222.11 133.035 222.903 133.518 223.652 133.954L220.921 161.077C220.921 161.077 220.481 197.15 219.149 205.371C218.657 208.416 218.653 210.493 218.84 211.904L218.788 211.991C219.117 214.31 219.978 214.766 219.978 214.766V214.735C219.993 214.747 220.011 214.758 220.029 214.766C220.43 213.713 220.907 212.69 221.456 211.706C221.456 211.9 221.456 212.102 221.456 212.301C221.428 215.361 221.333 219.646 221.016 222.433C220.477 227.19 222.396 242.868 222.396 242.868L223.058 257.138C223.165 259.561 222.603 261.967 221.432 264.091C219.847 266.942 217.821 270.953 217.674 272.733C217.666 272.83 217.666 272.926 217.674 273.023L214.273 277.114C214.273 277.114 212.945 279.167 215.946 279.995C217.559 280.443 220.342 279.995 222.578 279.468C223.554 279.243 224.425 278.695 225.049 277.911C225.673 277.128 226.014 276.157 226.015 275.155C226.58 273.19 227.535 271.358 228.822 269.768L229.381 273.054L233.123 273.982L233.603 264.975C233.796 264.47 233.883 263.93 233.86 263.39C234.598 256.984 232.124 257.559 232.124 257.559C232.19 257.615 232.233 257.694 232.243 257.781L232.124 257.563C230.606 254.566 231.331 249.634 231.331 249.634C231.331 249.634 233.313 235.364 233.991 231.594C234.479 228.93 234.276 220.209 234.114 215.341C234.114 215.139 234.114 214.945 234.094 214.75C239.898 214.675 247.009 214.481 252 213.997V214.584L251.081 248.299C251.018 250.448 250.58 252.57 249.788 254.57C249.788 254.609 249.761 254.645 249.745 254.685C248.651 257.509 248.033 260.494 247.917 263.521L247.489 274.224V274.521C246.744 274.806 245.566 275.635 245.535 278.037C245.483 281.557 251.687 280.384 251.687 280.384C257.887 280.384 257.939 273.93 257.939 273.93C257.939 273.93 258.133 268.012 258.43 264.052C258.728 260.092 257.495 260.964 257.495 260.964L257.4 272.23C257.4 272.258 257.4 272.285 257.4 272.317V262.442L257.495 261.011V260.972V260.667L258.276 249.048C258.276 249.048 263.988 229.687 264.872 225.973C265.502 223.333 265.241 215.381 265.035 210.985C265.035 210.782 265.035 210.588 265.003 210.402C266.775 210.243 268.341 210.227 268.967 210.227H269.257C269.257 210.227 268.963 179.133 268.222 167.415C267.481 155.697 266.303 144.975 263.35 141.748C261.566 139.798 259.08 133.776 257.404 129.316C260.929 130.841 264.587 132.035 268.333 132.884C277.684 134.842 276.404 126.724 276.404 126.724L275.457 111.371H275.52C275.485 107.349 275.141 103.336 274.489 99.3677C273.994 96.3233 273.237 93.1758 272.079 90.6468C273.094 90.2503 274.097 89.8262 275.08 89.3901C277.621 88.2683 280.483 86.6787 280.848 83.9395H280.725C280.774 83.7418 280.806 83.5402 280.82 83.337ZM222.852 105.536C222.871 107.122 222.812 109.873 222.717 112.913L219.748 108.949L222.725 104.121L222.852 105.536ZM263.873 119.585L258.926 117.999C259.803 116.63 260.828 115.362 261.982 114.217L262.41 113.821L262.256 113.853L262.494 113.634L262.636 113.603L262.41 113.821L262.68 113.765C262.978 115.008 263.554 116.167 264.365 117.155C266.141 119.093 263.877 119.585 263.877 119.585H263.873Z" fill="url(#paint0_linear)"/>
<path d="M233.82 262.288L233.241 273.26L229.55 272.337L228.773 267.774L233.82 262.288Z" fill="#A27772"/>
<path opacity="0.1" d="M233.82 262.288L233.241 273.26L229.55 272.337L228.773 267.774L233.82 262.288Z" fill="black"/>
<path d="M247.367 274.715L252.996 275.881L257.171 272.194V261.804L257.266 260.385V260.342V260.04L258.043 248.493C258.043 248.493 263.676 229.271 264.552 225.581C265.17 222.964 264.913 215.068 264.707 210.703C264.623 208.916 264.552 207.718 264.552 207.718L252.124 204.71L251.863 214.263L250.955 247.736C250.892 249.869 250.462 251.976 249.682 253.963L249.639 254.078C248.558 256.882 247.949 259.845 247.835 262.847L247.415 273.491V273.784L247.367 274.715Z" fill="#CC9381"/>
<path opacity="0.1" d="M247.367 274.715L252.996 275.881L257.171 272.194V271.31C257.157 271.506 257.095 271.695 256.991 271.861C256.886 272.027 256.743 272.165 256.572 272.262L256.513 272.297C254.574 273.322 252.377 273.756 250.194 273.546L247.998 273.36C247.797 273.378 247.601 273.426 247.415 273.502V273.796L247.367 274.715Z" fill="black"/>
<path d="M256.511 272.587L256.571 272.555C256.754 272.452 256.906 272.303 257.013 272.122C257.12 271.941 257.176 271.735 257.177 271.524L257.268 260.342C257.268 260.342 258.481 259.474 258.188 263.406C257.895 267.338 257.704 273.213 257.704 273.213C257.704 273.213 257.657 279.619 251.54 279.619C251.54 279.619 245.423 280.785 245.471 277.288C245.519 273.792 247.996 273.649 247.996 273.649L250.192 273.84C252.376 274.05 254.573 273.615 256.511 272.587Z" fill="#B07473"/>
<path d="M218.047 272.337C218.19 274.862 225.619 273.403 225.619 273.403L230.617 263.699C230.617 263.699 234.792 260.492 232.703 257.678C232.591 257.525 232.489 257.364 232.397 257.198C232.397 257.198 232.397 257.198 232.377 257.174C232.334 257.103 232.294 257.028 232.255 256.949C230.756 253.975 231.493 249.1 231.493 249.1C231.493 249.1 233.432 234.924 234.114 231.186C234.593 228.546 234.395 219.884 234.237 215.04C234.173 213.026 234.114 211.675 234.114 211.675L221.781 208.373C221.781 208.373 221.781 209.911 221.781 212.051C221.753 215.092 221.658 219.345 221.345 222.112C220.814 226.817 222.705 242.4 222.705 242.4L223.359 256.58C223.472 258.982 222.924 261.369 221.773 263.481C220.227 266.312 218.205 270.3 218.067 272.064C218.053 272.154 218.046 272.246 218.047 272.337Z" fill="#CC9381"/>
<path opacity="0.1" d="M218.046 272.337C218.189 274.862 225.618 273.403 225.618 273.403L230.617 263.699C230.617 263.699 234.791 260.492 232.702 257.678C232.59 257.524 232.488 257.364 232.397 257.198C232.329 258.669 230.716 262.351 230.716 262.351C230.716 262.351 226.589 270.609 225.277 272.499C223.965 274.39 218.264 272.147 218.05 272.067C218.042 272.157 218.041 272.247 218.046 272.337Z" fill="black"/>
<path d="M232.255 256.936C232.255 256.936 234.697 256.369 233.968 262.728C233.995 263.45 233.831 264.167 233.492 264.806C233.153 265.444 232.651 265.981 232.037 266.363C230.289 267.461 227.593 269.824 226.229 274.418C226.231 275.409 225.896 276.372 225.281 277.149C224.666 277.927 223.805 278.473 222.84 278.699C220.636 279.215 217.889 279.666 216.299 279.222C213.338 278.398 214.65 276.36 214.65 276.36L218.047 272.329C218.047 272.329 223.97 274.66 225.278 272.765C226.586 270.87 230.717 262.621 230.717 262.621C230.717 262.621 232.981 257.472 232.255 256.936Z" fill="#B07473"/>
<path opacity="0.1" d="M252.123 205.887L251.861 215.441C255.171 215.119 257.542 214.672 257.946 214.041C258.822 212.686 262.002 212.115 264.705 211.881C264.622 210.093 264.551 208.896 264.551 208.896L252.123 205.887Z" fill="black"/>
<path opacity="0.1" d="M221.781 213.212C222.098 212.565 222.564 212.003 223.141 211.571C224.449 210.846 224.306 216.233 224.306 216.233C224.306 216.233 228.667 216.273 234.237 216.201C234.173 214.188 234.114 212.832 234.114 212.832L221.781 209.534C221.781 209.534 221.805 211.064 221.781 213.212Z" fill="black"/>
<path d="M220.374 214.489C220.374 214.489 221.833 210.525 223.149 209.819C224.465 209.113 224.314 214.477 224.314 214.477C224.314 214.477 256.353 214.77 257.954 212.293C259.556 209.815 268.876 209.962 268.876 209.962C268.876 209.962 268.586 179.089 267.857 167.443C267.128 155.796 265.966 145.161 263.052 141.958C261.169 139.885 258.49 133.177 256.833 128.706C255.933 126.264 255.334 124.484 255.334 124.484L224.754 126.228L224.504 128.706L221.258 161.18C221.258 161.18 220.822 197.003 219.51 205.157C218.197 213.311 220.374 214.489 220.374 214.489Z" fill="#444053"/>
<g opacity="0.1">
<path opacity="0.1" d="M255.465 212.293C257.051 209.819 266.387 209.962 266.387 209.962C266.387 209.962 266.097 179.089 265.368 167.443C264.639 155.796 263.477 145.161 260.563 141.958C258.672 139.877 256.001 133.177 254.344 128.706C253.586 126.652 253.043 125.071 252.893 124.619L255.271 124.484C255.271 124.484 255.87 126.264 256.774 128.706C258.431 133.177 261.106 139.885 262.989 141.958C265.903 145.161 267.069 155.792 267.794 167.443C268.52 179.093 268.817 209.962 268.817 209.962C268.817 209.962 259.497 209.819 257.891 212.293C256.524 214.405 232.949 214.505 226.106 214.485C234.887 214.465 254.229 214.203 255.465 212.293Z" fill="black"/>
<path opacity="0.1" d="M220.66 209.819C221.251 209.49 221.544 210.402 221.691 211.508C221.161 212.467 220.702 213.463 220.315 214.489C220.315 214.489 219.471 214.033 219.126 211.714C219.61 210.885 220.145 210.104 220.66 209.819Z" fill="black"/>
</g>
<path d="M229.824 49.7887C227.707 52.6745 229.848 56.7773 227.576 59.5839C226.827 60.5115 225.674 61.1696 224.893 62.0813C223.446 63.77 223.501 66.0652 224.211 68.0473C224.92 70.0293 226.193 71.8369 227.097 73.7714C227.493 74.6078 227.786 75.5473 227.39 76.3798C227.113 76.9585 226.538 77.3985 226.09 77.898C224.631 79.5273 224.591 81.7908 225.376 83.7094C226.161 85.628 227.66 87.2771 229.138 88.9023C229.721 89.5406 230.458 90.2462 231.43 90.2263C231.94 90.1876 232.434 90.0257 232.869 89.7546C236.232 88.0368 238.803 85.0881 240.046 81.5223C241.29 77.9565 241.11 74.0486 239.544 70.612C238.315 67.6667 236.266 64.8443 236.246 61.7325C236.246 59.2628 237.515 56.9042 237.741 54.4465C238.014 51.4575 236.246 46.7125 232.639 45.4083C232.877 47.327 230.898 48.3061 229.824 49.7887Z" fill="#213047"/>
<path opacity="0.1" d="M229.824 49.7887C227.707 52.6745 229.848 56.7773 227.576 59.5839C226.827 60.5115 225.674 61.1696 224.893 62.0813C223.446 63.77 223.501 66.0652 224.211 68.0473C224.92 70.0293 226.193 71.8369 227.097 73.7714C227.493 74.6078 227.786 75.5473 227.39 76.3798C227.113 76.9585 226.538 77.3985 226.09 77.898C224.631 79.5273 224.591 81.7908 225.376 83.7094C226.161 85.628 227.66 87.2771 229.138 88.9023C229.721 89.5406 230.458 90.2462 231.43 90.2263C231.94 90.1876 232.434 90.0257 232.869 89.7546C236.232 88.0368 238.803 85.0881 240.046 81.5223C241.29 77.9565 241.11 74.0486 239.544 70.612C238.315 67.6667 236.266 64.8443 236.246 61.7325C236.246 59.2628 237.515 56.9042 237.741 54.4465C238.014 51.4575 236.246 46.7125 232.639 45.4083C232.877 47.327 230.898 48.3061 229.824 49.7887Z" fill="black"/>
<path opacity="0.1" d="M253.302 154.762C249.064 154.984 245.076 156.808 241.365 158.869C237.655 160.93 234.063 163.265 230.071 164.728" fill="black"/>
<path opacity="0.1" d="M250.669 164.747C246.477 165.147 242.57 167.048 239.668 170.099C238.637 171.189 237.749 172.41 236.675 173.457C235.031 175.061 232.998 176.213 230.776 176.798" fill="black"/>
<path opacity="0.1" d="M251.537 172.346C248.156 173.285 245.097 175.13 242.689 177.682C242.039 178.384 241.448 179.133 240.798 179.835C237.29 183.6 232.335 185.598 227.55 187.489" fill="black"/>
<path d="M251.178 66.9618C251.271 70.348 251.562 73.7259 252.05 77.0781C252.446 79.4566 253.001 81.5972 253.798 82.5446C256.129 85.3195 242.44 89.0259 242.44 89.0259L234.357 82.7627C234.357 82.7627 240.764 76.8641 237.779 71.1122C234.793 65.3603 251.178 66.9618 251.178 66.9618Z" fill="#CC9381"/>
<path opacity="0.1" d="M224.497 128.706H256.825C255.925 126.264 255.327 124.484 255.327 124.484L224.747 126.228L224.497 128.706Z" fill="black"/>
<path d="M222.416 128.123H256.98C256.009 124.647 256.98 121.432 258.364 118.958C259.334 117.225 260.553 115.643 261.983 114.265L262.221 114.047L274.288 111.375L274.938 111.232C274.938 111.232 275.037 89.291 267.268 86.2783C259.498 83.2656 254.84 79.1944 254.84 79.1944L244.164 82.4926L236.299 78.5285C233.774 81.2439 227.074 80.1775 227.074 80.1775C216.105 81.4381 216.105 89.6913 216.105 89.6913C216.105 89.6913 222.512 104.64 222.999 104.64C223.487 104.64 222.416 128.123 222.416 128.123Z" fill="#3D666C"/>
<path opacity="0.1" d="M234.349 114.173C234.349 114.173 227.301 112.612 224.902 109.88L234.349 114.173Z" fill="black"/>
<path opacity="0.1" d="M269.888 105.987L261.714 112.687C261.773 113.22 261.863 113.75 261.983 114.272L262.221 114.054L274.288 111.383L269.888 105.987Z" fill="black"/>
<path opacity="0.1" d="M247.755 125.792C247.755 125.792 249.543 126.799 252.282 128.123H256.98C256.008 124.647 256.98 121.432 258.363 118.958L250.082 116.278C252.9 118.899 247.755 125.792 247.755 125.792Z" fill="black"/>
<path d="M220.956 87.059L216.104 89.6792L211.347 101.718C211.347 101.718 206.395 114.919 206.879 118.415C206.879 118.415 205.135 126.668 208.239 128.123L216.326 131.786C216.469 131.849 216.628 131.866 216.781 131.835C216.934 131.803 217.073 131.725 217.18 131.611C217.287 131.497 217.355 131.353 217.376 131.198C217.397 131.043 217.369 130.886 217.297 130.747C216.143 128.563 214.875 125.146 216.901 123.267L214.57 118.415L222.994 104.628L225.808 99.8709L220.956 87.059Z" fill="#3D666C"/>
<path opacity="0.1" d="M231.752 111.419C232.172 113.131 233.591 115.779 238.289 116.766L243.442 120.988L248.924 123.473L251.16 124.484L252.108 117.638L249.955 116.449L247.446 115.078C247.446 115.078 241.785 104.822 232.822 109.131C232.405 109.329 232.071 109.665 231.875 110.083C231.68 110.5 231.636 110.972 231.752 111.419Z" fill="black"/>
<path d="M232.045 110.836C232.465 112.552 233.88 115.196 238.578 116.183L243.731 120.405L249.218 122.891L251.45 123.901L252.397 117.055L250.245 115.866L247.755 114.507C247.755 114.507 242.09 104.251 233.127 108.58C232.715 108.774 232.382 109.105 232.185 109.516C231.988 109.926 231.939 110.393 232.045 110.836Z" fill="#CC9381"/>
<path opacity="0.1" d="M242.146 75.8405C249.062 75.8405 254.669 70.2339 254.669 63.3179C254.669 56.4019 249.062 50.7954 242.146 50.7954C235.23 50.7954 229.623 56.4019 229.623 63.3179C229.623 70.2339 235.23 75.8405 242.146 75.8405Z" fill="black"/>
<path d="M242.146 75.5515C249.062 75.5515 254.669 69.945 254.669 63.029C254.669 56.113 249.062 50.5064 242.146 50.5064C235.23 50.5064 229.623 56.113 229.623 63.029C229.623 69.945 235.23 75.5515 242.146 75.5515Z" fill="#CC9381"/>
<path opacity="0.1" d="M249.904 89.7868L246.138 82.4691C246.138 82.4691 251.648 80.2412 252.048 77.6606C252.449 75.08 257.329 80.6852 256.274 82.5444C255.22 84.4035 249.904 89.7868 249.904 89.7868Z" fill="black"/>
<path d="M249.904 89.2034L246.138 81.8857C246.138 81.8857 251.648 79.6579 252.048 77.0773C252.449 74.4966 257.329 80.1058 256.274 81.961C255.22 83.8162 249.904 89.2034 249.904 89.2034Z" fill="#3D666C"/>
<path d="M219.082 108.109L239.89 136.084C239.89 136.084 232.219 140.258 221.655 132.786L217.092 127.347L204.065 105.39L219.082 108.109Z" fill="#F6F8FB"/>
<path d="M214.987 123.318L216.882 123.267C216.882 123.267 228.457 112.033 231.299 117.717C234.142 123.402 224.088 128.714 224.088 128.714L221.032 130.363L217.048 131.552L214.499 128.131L214.987 123.318Z" fill="#CC9381"/>
<path opacity="0.1" d="M217.781 129.388C217.956 130.034 218.122 130.748 217.829 131.346C217.759 131.506 217.637 131.639 217.484 131.723C217.358 131.771 217.222 131.79 217.088 131.778C216.085 131.693 215.152 131.231 214.475 130.486C213.811 129.743 213.242 128.92 212.783 128.036C212.267 127.136 211.732 126.141 211.914 125.118C212.121 124.005 213.104 123.232 214.067 122.605C215.986 121.337 216.049 122.815 216.469 124.449C216.889 126.082 217.341 127.739 217.781 129.388Z" fill="black"/>
<path d="M217.492 129.388C217.662 130.034 217.833 130.747 217.539 131.346C217.469 131.506 217.348 131.639 217.194 131.723C217.068 131.771 216.933 131.79 216.798 131.778C215.795 131.695 214.861 131.233 214.186 130.486C213.519 129.744 212.949 128.921 212.489 128.036C211.974 127.136 211.438 126.141 211.625 125.118C211.827 124.005 212.814 123.232 213.773 122.605C215.696 121.337 215.755 122.815 216.18 124.449C216.604 126.082 217.048 127.739 217.492 129.388Z" fill="#3D666C"/>
<path opacity="0.1" d="M222.998 104.628L223.965 102.991L223.121 106.031L222.998 104.628Z" fill="black"/>
<path opacity="0.1" d="M249.233 122.891L251.465 123.902L252.413 117.056L250.26 115.867C251.747 117.571 250.446 120.723 249.233 122.891Z" fill="black"/>
<path opacity="0.1" d="M258.192 114.943C258.192 114.943 250.985 115.383 247.925 113.417L258.192 114.943Z" fill="black"/>
<g opacity="0.1">
<path opacity="0.1" d="M257.297 119.541C258.267 117.807 259.486 116.224 260.916 114.844C261.259 114.629 261.615 114.435 261.983 114.265L273.217 111.958L273.867 111.815C273.867 111.815 273.967 89.874 266.201 86.8613C261.844 85.2049 257.761 82.9054 254.086 80.0391L254.938 79.7775C254.938 79.7775 259.596 83.8526 267.366 86.8613C275.136 89.8701 275.033 111.815 275.033 111.815H273.867L262.371 114.015C262.371 114.015 261.876 114.495 261.725 114.634C260.283 116.078 259.047 117.713 258.05 119.494C256.529 122.318 256.183 125.628 257.087 128.706H255.898C254.938 125.23 255.929 122.015 257.297 119.541Z" fill="black"/>
<path opacity="0.1" d="M226.614 80.812C226.801 80.7843 226.979 80.7565 227.173 80.7367C227.961 80.8485 228.756 80.9133 229.552 80.9309C228.571 80.958 227.59 80.9183 226.614 80.812Z" fill="black"/>
<path opacity="0.1" d="M243.093 83.0759L235.981 79.4765C236.123 79.3608 236.255 79.2349 236.378 79.0999L243.799 82.8539L243.093 83.0759Z" fill="black"/>
</g>
<path d="M270.169 105.39L274.926 111.217L275.897 127.042C275.897 127.042 277.158 135.097 267.937 133.154C258.717 131.212 248.045 125.21 248.045 125.21C248.045 125.21 253.198 118.317 250.376 115.696L263.581 119.97C263.581 119.97 265.812 119.482 264.064 117.544C262.316 115.605 262.007 112.105 262.007 112.105L270.169 105.39Z" fill="#3D666C"/>
<path opacity="0.1" d="M272.317 122.106L274.938 125.114C274.264 124.907 273.661 124.516 273.198 123.984C272.735 123.452 272.43 122.802 272.317 122.106Z" fill="black"/>
<path opacity="0.1" d="M267.851 121.618L271.93 126.858L269.892 127.346L267.851 121.618Z" fill="black"/>
<path opacity="0.1" d="M227.189 57.2808C226.741 56.1827 227.085 54.9023 227.625 53.8677C228.164 52.8331 228.905 51.854 229.309 50.74C229.908 49.0831 229.726 47.208 230.38 45.5867C231.533 42.7128 234.812 41.4284 237.749 40.4334C238.617 40.144 239.541 39.8547 240.429 40.0687C241.618 40.3502 242.391 41.4284 243.362 42.1538C247.35 45.1269 253.836 41.8526 257.693 45C259.168 46.1893 259.885 48.1356 260.107 50.0265C260.329 51.9174 260.107 53.836 260.084 55.7427C260.02 59.0805 260.646 62.7314 263.144 64.9434C263.897 65.6093 264.785 66.1088 265.522 66.7986C266.26 67.4883 266.839 68.4516 266.712 69.4506C266.614 69.9093 266.482 70.3598 266.315 70.7983C265.82 72.5386 266.561 74.366 267.465 75.9517C270.161 80.6174 274.914 84.4626 280.301 84.5696C279.94 87.289 277.13 88.8667 274.612 89.9806C271.441 91.4037 268.063 92.799 264.571 92.6207C261.079 92.4423 257.435 90.2065 256.825 86.7657C256.615 85.5765 256.643 84.1454 255.636 83.527C255.017 83.1504 254.216 83.2456 253.551 82.9641C252.587 82.5677 252.112 81.4855 251.794 80.4905C251.145 78.4375 250.796 76.3011 250.76 74.148C250.716 71.5951 251.053 68.8084 249.606 66.7074C248.266 64.761 245.888 63.774 244.342 61.9862C242.915 60.3292 241.365 58.3313 239.026 58.0221C235.791 57.5662 229.099 61.9624 227.189 57.2808Z" fill="black"/>
<path d="M227.189 56.6985C226.741 55.6005 227.085 54.3201 227.625 53.2855C228.164 52.2508 228.905 51.2717 229.309 50.1578C229.908 48.5008 229.726 46.6258 230.38 45.0045C231.533 42.1266 234.812 40.8422 237.749 39.8512C238.617 39.5618 239.541 39.2724 240.429 39.4865C241.618 39.7679 242.391 40.8462 243.362 41.5716C247.35 44.5447 253.836 41.2703 257.693 44.4178C259.168 45.607 259.885 47.5534 260.107 49.4482C260.329 51.3431 260.107 53.2538 260.083 55.1605C260.02 58.4982 260.646 62.1492 263.144 64.3611C263.897 65.0271 264.785 65.5266 265.522 66.2163C266.26 66.9061 266.839 67.8693 266.712 68.8683C266.614 69.327 266.482 69.7776 266.315 70.2161C265.82 71.9563 266.561 73.7838 267.465 75.3694C270.168 80.0193 274.902 83.8763 280.289 83.9834C279.928 86.7027 277.118 88.2804 274.6 89.3983C271.429 90.8175 268.052 92.2128 264.559 92.0344C261.067 91.856 257.424 89.6203 256.813 86.1795C256.603 84.9902 256.631 83.5592 255.624 82.9408C255.005 82.5642 254.205 82.6594 253.539 82.3779C252.575 81.9815 252.1 80.8993 251.782 79.9043C251.132 77.8514 250.784 75.7149 250.748 73.5618C250.704 71.0089 251.041 68.2222 249.594 66.1212C248.254 64.1748 245.876 63.1878 244.33 61.4C242.903 59.743 241.353 57.7451 239.014 57.4359C235.791 56.984 229.099 61.3881 227.189 56.6985Z" fill="#213047"/>
<path opacity="0.1" d="M236.076 88.8789L243.255 83.0517C243.255 83.0517 238.34 80.3878 237.753 78.1164C237.166 75.845 233.234 79.1946 233.634 81.2322C234.034 83.2697 236.076 88.8789 236.076 88.8789Z" fill="black"/>
<path d="M236.358 88.0029L243.537 82.1797C243.537 82.1797 238.621 79.5158 238.058 77.2444C237.495 74.973 233.539 78.3226 233.94 80.3602C234.34 82.3977 236.358 88.0029 236.358 88.0029Z" fill="#3D666C"/>
<path opacity="0.1" d="M243.818 87.6263C244.133 87.6263 244.389 87.3707 244.389 87.0555C244.389 86.7402 244.133 86.4847 243.818 86.4847C243.503 86.4847 243.247 86.7402 243.247 87.0555C243.247 87.3707 243.503 87.6263 243.818 87.6263Z" fill="black"/>
<path opacity="0.1" d="M243.818 90.7973C244.133 90.7973 244.389 90.5417 244.389 90.2265C244.389 89.9112 244.133 89.6557 243.818 89.6557C243.503 89.6557 243.247 89.9112 243.247 90.2265C243.247 90.5417 243.503 90.7973 243.818 90.7973Z" fill="black"/>
<path opacity="0.1" d="M243.818 93.965C244.133 93.965 244.389 93.7094 244.389 93.3942C244.389 93.0789 244.133 92.8233 243.818 92.8233C243.503 92.8233 243.247 93.0789 243.247 93.3942C243.247 93.7094 243.503 93.965 243.818 93.965Z" fill="black"/>
<g opacity="0.1">
<path opacity="0.1" d="M230.087 48.6038C230.654 47.0459 230.531 45.2977 231.062 43.7279C230.816 44.075 230.613 44.4503 230.456 44.8458C229.798 46.483 229.984 48.358 229.381 49.9991L229.342 50.0943C229.635 49.6214 229.885 49.1224 230.087 48.6038Z" fill="black"/>
<path opacity="0.1" d="M275.378 87.8445C272.207 89.2637 268.829 90.659 265.337 90.4806C261.844 90.3023 258.201 88.0665 257.591 84.6296C257.381 83.4404 257.408 82.0054 256.401 81.387C255.783 81.0104 254.982 81.1056 254.316 80.8241C253.353 80.4277 252.877 79.3455 252.56 78.3505C251.91 76.2976 251.561 74.1611 251.525 72.008C251.482 69.4591 251.823 66.6723 250.376 64.5674C249.032 62.621 246.653 61.6379 245.107 59.8462C243.68 58.1931 242.13 56.1913 239.791 55.8821C236.584 55.446 229.881 59.8462 227.986 55.1606C227.682 54.2753 227.726 53.3073 228.109 52.4531C227.97 52.687 227.835 52.9209 227.712 53.1587C227.173 54.2132 226.832 55.4777 227.28 56.5758C229.187 61.2534 235.879 56.8572 239.086 57.2973C241.425 57.6144 242.975 59.6162 244.402 61.2613C245.948 63.0531 248.326 64.0362 249.666 65.9865C251.117 68.0875 250.776 70.8743 250.82 73.4232C250.856 75.5763 251.204 77.7128 251.854 79.7657C252.172 80.7647 252.647 81.835 253.611 82.2393C254.277 82.5208 255.077 82.4296 255.696 82.8022C256.718 83.4206 256.691 84.8675 256.885 86.0448C257.503 89.4817 261.143 91.7174 264.631 91.8958C268.12 92.0742 271.481 90.6828 274.672 89.2597C276.972 88.237 279.532 86.8218 280.222 84.5028C279.12 86.0091 277.17 87.0477 275.378 87.8445Z" fill="black"/>
</g>
<path d="M357.919 94.1599C349.066 89.0656 345.72 87.8108 345.703 87.8108L345.519 87.6812C344.555 86.94 343.789 85.9715 343.29 84.8622C343.28 84.6601 343.28 84.4577 343.29 84.2557C343.288 84.2751 343.288 84.2948 343.29 84.3143C343.428 81.6165 345.348 79.1614 347.167 77.0199L351.822 71.545C352.35 71.0032 352.759 70.3563 353.022 69.6461C353.116 69.2645 353.158 68.872 353.147 68.4792C353.147 68.3202 353.147 68.1613 353.147 68.0024C353.122 66.6431 353.085 65.2795 353.034 63.9202C352.993 62.7324 352.687 61.235 351.5 60.9924C350.881 60.867 350.061 61.0886 349.735 60.5742C349.624 60.3558 349.596 60.1048 349.655 59.8673C349.653 59.8868 349.653 59.9064 349.655 59.9259V59.859C349.885 58.9414 350.032 58.0049 350.094 57.0609C350.12 56.5803 350.055 56.0992 349.902 55.643C349.216 53.673 346.845 52.8616 344.75 52.4894C342.654 52.1171 340.304 51.7992 338.991 50.1597C338.639 49.6126 338.257 49.0862 337.845 48.5829C337.239 48.0446 336.499 47.6791 335.703 47.5247C333.103 46.8839 330.363 47.1222 327.912 48.2023C326.9 48.654 325.884 49.2646 324.771 49.1977C323.659 49.1308 322.63 48.3277 321.492 48.1353C319.652 47.8217 317.892 49.1726 316.984 50.7745C316.447 51.7244 316.159 52.795 316.148 53.8863V54.0703C316.121 55.2446 316.55 56.3836 317.344 57.2491C318.138 58.0856 319.318 58.6377 319.648 59.721C319.782 60.1601 319.748 60.6369 319.87 61.0845C319.883 61.1399 319.899 61.1944 319.92 61.2476L319.861 61.327C317.963 63.7562 316.932 66.7511 316.934 69.8343C316.954 72.829 317.927 75.7396 319.71 78.1454C321.493 80.5513 323.995 82.3279 326.854 83.2184C326.854 83.3564 326.854 83.4945 326.854 83.6367C326.854 85.3097 326.373 87.0538 324.93 88.3211L312.388 93.3318C312.388 93.3318 304.826 92.4325 302.1 103.483C301.664 105.317 301.506 107.206 301.631 109.087C301.732 110.76 301.502 113.688 299.54 117.482C296.441 123.555 297.148 137.495 303.488 138.875C309.473 140.18 311.815 139.637 312.062 139.574V139.816C311.961 142.435 311.012 164.995 307.562 167.722C306.608 168.479 306.784 168.977 307.562 169.333C307.562 169.333 307.562 169.479 307.541 169.751C307.436 171.424 306.905 177.698 304.613 181.261C301.932 185.402 302.213 209.284 302.213 209.284L300.385 223.363C300.385 223.363 301.51 232.058 300.385 233.576C299.377 234.927 298.039 267.095 297.759 274.072H297.641C297.087 274.108 296.551 274.279 296.078 274.571C295.606 274.862 295.212 275.265 294.931 275.745C293.451 278.15 288.265 282.596 288.265 282.596C287.14 284.193 282.979 285.724 280.779 286.443C280.489 286.538 280.208 286.662 279.942 286.812C279.119 287.26 278.457 287.957 278.052 288.802C277.907 289.053 277.814 289.331 277.78 289.618C277.745 289.906 277.77 290.198 277.851 290.475C278.412 291.851 290.109 292.822 293.07 291.437C295.396 290.354 304.613 288.928 308.44 288.367C309.135 288.28 309.781 287.964 310.276 287.468C310.771 286.973 311.088 286.327 311.175 285.632C311.211 285.392 311.199 285.147 311.139 284.912C311.078 284.677 310.971 284.457 310.824 284.264C310.092 283.357 309.72 280.877 309.569 279.245C309.88 279.119 310.17 278.947 310.431 278.735C310.111 273.721 310.822 268.695 312.522 263.967C315.34 256.513 316.185 242.711 315.483 233.739C315.483 233.739 324.077 196.749 330.844 193.298C330.948 193.432 334.231 197.644 334.65 210.689C335.068 223.94 339.861 232.635 339.861 232.635C339.861 232.635 337.744 255.133 339.861 263.552L337.096 276.832C336.891 276.661 336.762 276.527 336.762 276.527C336.762 276.527 336.845 276.895 336.958 277.484L336.9 277.769L337.021 277.794C337.335 279.467 337.799 282.349 337.606 284.068C337.498 285.034 337.226 286.36 337.042 287.661C336.749 289.706 336.67 291.688 337.744 292.123C339.509 292.834 349.873 293.796 351.629 291.521C352.024 291.057 352.282 290.492 352.372 289.89C352.462 289.287 352.382 288.671 352.139 288.112C352.013 287.799 351.841 287.506 351.629 287.242C351.629 287.242 348.877 282.746 349.655 279.576C349.727 279.266 349.735 278.945 349.678 278.632C349.621 278.319 349.501 278.021 349.325 277.756C349.446 276.2 350.073 268.998 351.696 262.883C353.461 256.241 357.179 241.678 354.444 232.104C354.341 231.728 354.224 231.36 354.093 231C352.514 225.772 351.987 220.284 352.541 214.851C351.526 210.213 351.526 205.411 352.541 200.773C354.235 193.043 355.418 185.452 355.418 185.452C355.418 185.452 356.351 175.238 355.535 168.977C355.535 168.843 355.498 168.709 355.481 168.559L355.924 168.458C355.924 168.458 353.528 157.831 352.683 151.067C352.482 149.47 352.223 147.45 351.939 145.291C352.718 145.162 353.486 144.971 354.235 144.718C361.842 142.096 364.239 118.368 364.239 118.368V110.84C364.239 110.84 366.798 99.2668 357.919 94.1599ZM301.226 277.455C300.991 277.338 300.853 277.259 300.853 277.259L301.226 277.455Z" fill="url(#paint1_linear)"/>
<path d="M353.37 231.097C356.668 240.577 352.819 255.965 351.03 262.85C349.242 269.736 348.694 277.967 348.694 277.967C341.686 279.065 336.6 277.691 336.6 277.691L339.488 263.54C337.423 255.159 339.488 232.76 339.488 232.76C339.488 232.76 334.815 224.103 334.402 210.913C333.984 197.931 330.795 193.732 330.695 193.603C324.1 197.037 315.717 233.863 315.717 233.863C316.402 242.791 315.575 256.533 312.829 263.945C311.161 268.656 310.461 273.655 310.769 278.643C309.808 279.479 308.47 279.596 307.008 279.362C303.084 278.727 298.378 275.347 298.378 275.347C298.378 275.347 299.887 235.237 300.99 233.717C302.093 232.196 300.99 223.547 300.99 223.547L302.774 209.534C302.774 209.534 302.498 185.761 305.11 181.641C307.367 178.081 307.885 171.823 307.986 170.181C307.986 169.922 307.986 169.763 307.986 169.763L311.964 165C311.964 165 350.445 162.113 353.337 165C354.043 165.706 354.482 167.319 354.741 169.345C355.535 175.579 354.624 185.744 354.624 185.744C354.624 185.744 353.471 193.302 351.82 200.994C350.831 205.614 350.831 210.391 351.82 215.011C351.289 220.423 351.816 225.886 353.37 231.097Z" fill="#2F2E41"/>
<path d="M350.752 291.539C349.057 293.786 339.09 292.835 337.39 292.135C336.355 291.722 336.434 289.748 336.714 287.732C336.891 286.454 337.151 285.146 337.258 284.194C337.526 281.745 336.434 276.775 336.434 276.775C336.434 276.775 338.669 279.158 339.209 276.775C339.448 275.732 340.281 275.198 341.147 274.929C342.31 274.576 343.56 274.654 344.669 275.149C346.43 275.918 349.367 277.553 348.843 279.763C348.097 282.887 350.74 287.323 350.74 287.323C350.945 287.582 351.112 287.869 351.235 288.175C351.47 288.726 351.549 289.332 351.464 289.925C351.379 290.519 351.133 291.077 350.752 291.539Z" fill="#A27772"/>
<path opacity="0.1" d="M350.74 291.556C349.035 293.776 339.007 292.836 337.297 292.145C336.256 291.736 336.335 289.785 336.617 287.793C337.696 288.292 339.521 288.705 342.579 288.427C343.292 288.36 344.008 288.338 344.724 288.361C346.896 288.458 349.072 288.414 351.238 288.23C351.472 288.776 351.55 289.375 351.462 289.962C351.375 290.549 351.125 291.1 350.74 291.556Z" fill="black"/>
<path opacity="0.1" d="M315.461 233.924C316.15 242.841 315.318 256.564 312.557 263.966C310.88 268.671 310.175 273.663 310.485 278.645C309.519 279.479 308.174 279.596 306.703 279.362C307.544 273.575 311.09 248.641 313.364 228.938C315.957 206.503 328.072 191.069 328.072 191.069L330.488 193.71C323.891 197.148 315.461 233.924 315.461 233.924Z" fill="black"/>
<path d="M346.742 89.1621L345.062 97.4716L336.801 111.391L326.617 107.028C326.617 107.028 312.759 92.485 321.473 90.4087C322.514 90.1839 323.498 89.7451 324.362 89.1199C326.071 87.827 326.609 85.9486 326.617 84.1081C326.553 82.0488 326.076 80.0235 325.215 78.1529L343.029 72.543C342.302 74.8907 341.878 77.3225 341.769 79.7785C341.631 84.6472 343.449 87.0436 344.915 88.2018C345.456 88.6377 346.076 88.9638 346.742 89.1621Z" fill="#D5A8A8"/>
<path opacity="0.1" d="M343.174 72.543C342.445 74.897 342.02 77.3353 341.911 79.798C341.585 80.1874 341.238 80.5582 340.871 80.9086C339.028 82.6751 336.742 83.908 334.256 84.4768C331.771 85.0455 329.178 84.9289 326.753 84.1392C326.685 82.0735 326.202 80.0427 325.335 78.1679L343.174 72.543Z" fill="black"/>
<path d="M345.154 70.3583C345.155 73.1418 344.331 75.8629 342.785 78.1777C341.239 80.4924 339.041 82.2968 336.47 83.3625C333.899 84.4283 331.069 84.7076 328.339 84.1651C325.609 83.6226 323.101 82.2826 321.132 80.3147C319.164 78.3468 317.823 75.8394 317.28 73.1095C316.736 70.3796 317.015 67.5499 318.08 64.9782C319.145 62.4066 320.948 60.2085 323.263 58.662C325.577 57.1155 328.298 56.2901 331.082 56.2901C332.932 56.2812 334.765 56.639 336.477 57.3428C338.188 58.0466 339.742 59.0824 341.051 60.3905C342.359 61.6986 343.396 63.253 344.1 64.9638C344.804 66.6747 345.163 68.5082 345.154 70.3583Z" fill="#D5A8A8"/>
<path opacity="0.1" d="M346.742 89.3633L345.062 97.5976L336.801 111.391L326.617 107.067C326.617 107.067 312.759 92.6562 321.473 90.5986C322.514 90.3759 323.498 89.941 324.362 89.3216C322.792 93.6119 329.276 102.539 329.276 102.539C330.032 103.645 331.762 102.956 331.762 102.956C335.94 102.326 343.63 90.3858 344.885 88.3992C345.434 88.839 346.065 89.1666 346.742 89.3633Z" fill="black"/>
<path opacity="0.1" d="M354.669 169.207C352.228 169.747 338.724 172.653 333.604 171.925C327.97 171.113 317.016 170.592 317.016 170.592C317.016 170.592 310.04 170.958 307.892 170.003C307.892 169.751 307.892 169.597 307.892 169.597L311.871 164.965C311.871 164.965 350.356 162.157 353.248 164.965C353.971 165.668 354.41 167.236 354.669 169.207Z" fill="black"/>
<path d="M329.329 102.836C329.329 102.836 322.092 92.8106 324.82 88.8838L312.595 93.8967C312.595 93.8967 305.237 93.0027 302.585 104.002C302.161 105.83 302.007 107.71 302.13 109.583C302.23 111.254 302.005 114.178 300.115 117.938C297.1 123.983 297.784 137.86 303.957 139.243C310.13 140.625 312.32 139.928 312.32 139.928C312.32 139.928 311.486 165.068 307.932 167.954C304.378 170.841 317.025 170.152 317.025 170.152C317.025 170.152 327.957 170.703 333.584 171.526C339.21 172.349 354.981 168.639 354.981 168.639C354.981 168.639 352.649 158.062 351.824 151.332C350.998 144.602 349.075 130.265 349.075 130.265L363.064 111.283C363.064 111.283 365.534 99.812 356.891 94.728C348.249 89.6441 345 88.3992 345 88.3992C345 88.3992 336.316 102.561 331.79 103.246C331.798 103.246 330.08 103.939 329.329 102.836Z" fill="#B0C7C5"/>
<path opacity="0.1" d="M313.354 107.03C313.354 107.03 313.222 111.522 314.03 113.288C314.837 115.054 317.803 124.869 317.803 124.869H311.063C311.063 124.869 314.701 120.923 314.435 119.016C314.169 117.11 313.354 107.03 313.354 107.03Z" fill="black"/>
<path d="M333.796 141.122C333.796 141.122 318.592 137.379 317.177 134.193C315.762 131.007 311.856 123.872 311.856 123.872L313.46 121.698L320.852 127.539C320.852 127.539 329.643 134.606 333.796 135.302C337.949 135.997 333.796 141.122 333.796 141.122Z" fill="#D5A8A8"/>
<path opacity="0.05" d="M333.796 141.122C333.796 141.122 318.592 137.379 317.177 134.193C315.762 131.007 311.856 123.872 311.856 123.872L313.46 121.698L320.852 127.539C320.852 127.539 329.643 134.606 333.796 135.302C337.949 135.997 333.796 141.122 333.796 141.122Z" fill="black"/>
<path d="M346.742 123.373V131.471H345.424C338.9 131.47 332.484 133.109 326.78 136.232L324.304 137.584L323.641 137.95L319.389 128.495L323.366 124.98H323.57C324.542 125.075 328.748 125.42 330.532 124.828C332.225 124.261 334.326 122.465 339.312 123.718C341.768 124.339 343.869 127.052 346.25 126.205L346.742 123.373Z" fill="#D5A8A8"/>
<path opacity="0.1" d="M360.23 108.074L362.995 111.175V118.688C362.995 118.688 360.642 142.39 353.172 145.01C345.702 147.629 332.356 143.493 332.356 143.493C332.356 143.493 328.909 134.399 330.521 133.854C332.133 133.309 344.767 129.982 344.767 129.982C344.767 129.982 344.59 116.078 347.356 111.942C347.356 111.942 345.558 98.9884 351.787 98.7118C358.016 98.4352 360.23 108.074 360.23 108.074Z" fill="black"/>
<path d="M360.621 108.074L363.39 111.175V118.688C363.39 118.688 361.038 142.39 353.564 145.01C346.09 147.629 332.749 143.493 332.749 143.493C332.749 143.493 329.302 134.399 330.919 133.854C332.535 133.309 345.164 129.982 345.164 129.982C345.164 129.982 344.983 116.078 347.752 111.942C347.752 111.942 345.951 98.9884 352.179 98.7118C358.408 98.4352 360.621 108.074 360.621 108.074Z" fill="#B0C7C5"/>
<path opacity="0.1" d="M341.243 76.2945C341.362 75.3899 341.254 74.4702 340.928 73.6174C340.537 72.7821 339.625 72.1515 338.733 72.3645C337.552 72.6401 337.051 74.1687 335.883 74.5362C334.903 74.8453 333.835 74.1562 333.36 73.2499C332.885 72.3436 332.881 71.2786 332.881 70.2596C332.881 69.1152 332.881 67.9667 332.881 66.8182C332.881 65.5653 332.839 64.2205 332.065 63.2391C331.102 62.0196 328.836 61.485 327.323 61.5351C326.316 61.5464 325.349 61.9323 324.615 62.6168C323.808 63.3017 322.87 63.8029 321.769 63.6233C321.309 63.5552 320.879 63.3589 320.528 63.0572C320.176 62.7555 319.918 62.3609 319.784 61.9193V61.8776C320.957 60.3283 322.441 59.0378 324.142 58.0877C325.843 57.1376 327.725 56.5485 329.667 56.3579C331.609 56.1672 333.57 56.379 335.425 56.9799C337.28 57.5809 338.99 58.5578 340.446 59.849C341.901 61.1401 343.071 62.7174 343.882 64.4809C344.692 66.2444 345.125 68.1558 345.154 70.0942C345.182 72.0325 344.805 73.9556 344.046 75.7418C343.288 77.528 342.164 79.1383 340.747 80.4709C340.99 79.089 341.156 77.6947 341.243 76.2945Z" fill="black"/>
<path d="M321.822 63.3936C321.365 63.3235 320.937 63.126 320.588 62.8239C320.238 62.5217 319.981 62.1271 319.846 61.6854C319.733 61.2427 319.762 60.7708 319.633 60.3322C319.311 59.2505 318.158 58.6909 317.385 57.8681C315.839 56.2268 315.939 53.5288 317.034 51.5534C317.92 49.9621 319.632 48.6298 321.429 48.9305C322.54 49.1227 323.518 49.912 324.629 49.9872C325.741 50.0624 326.719 49.4484 327.692 48.9974C330.079 47.9141 332.764 47.6755 335.304 48.3208C336.084 48.4773 336.806 48.8425 337.393 49.3774C337.793 49.8796 338.165 50.4023 338.509 50.9436C339.787 52.5724 342.081 52.894 344.124 53.2615C346.167 53.629 348.478 54.4393 349.138 56.4022C349.585 57.7053 349.138 59.1169 348.896 60.4701C348.815 60.7463 348.835 61.0419 348.95 61.3054C349.272 61.8316 350.07 61.6102 350.671 61.723C351.829 61.9694 352.125 63.4604 352.171 64.6465C352.219 65.9997 352.255 67.3543 352.28 68.7102C352.313 69.2146 352.272 69.7212 352.159 70.2137C351.908 70.9195 351.511 71.5643 350.993 72.1057L346.456 77.5559C344.442 79.9699 342.307 82.7849 342.695 85.9088C341.743 86.3265 340.606 85.5121 340.297 84.5139C339.988 83.5157 340.235 82.4257 340.448 81.4192C340.817 79.6498 341.06 77.8564 341.175 76.0524C341.293 75.1492 341.185 74.2308 340.861 73.3795C340.473 72.5442 339.566 71.9136 338.68 72.1266C337.502 72.4022 337.009 73.9308 335.848 74.2983C334.874 74.6074 333.813 73.9182 333.341 73.012C332.869 72.1057 332.864 71.0449 332.864 70.0258V66.5802C332.864 65.3273 332.823 63.9825 332.054 63.001C331.097 61.7815 328.845 61.2469 327.341 61.297C326.342 61.3093 325.383 61.6952 324.655 62.3787C323.848 63.0678 322.916 63.5732 321.822 63.3936Z" fill="#7C5C5C"/>
<path opacity="0.1" d="M324.938 106.634L329.331 124.076C329.331 124.076 332.794 124.055 324.938 106.634Z" fill="black"/>
<path opacity="0.1" d="M339.606 103.463C339.606 103.463 333.944 112.778 336.153 122.414L337.207 122.49C337.207 122.49 335.326 118.031 339.606 103.463Z" fill="black"/>
<path opacity="0.1" d="M343.174 155.891C343.174 155.891 350.197 153.565 350.706 158.96C350.723 158.96 349.399 155.263 343.174 155.891Z" fill="black"/>
<path opacity="0.1" d="M323.43 125.265C323.43 125.265 322.039 134.807 324.542 138.636C324.542 138.636 319.468 140.682 312.306 140.275L311.46 125.265H323.43Z" fill="black"/>
<path opacity="0.1" d="M324.146 137.581L323.504 137.95L319.389 128.414L323.238 124.869H323.436C323.375 125.342 322.302 133.539 324.146 137.581Z" fill="black"/>
<path d="M323.434 124.869C323.434 124.869 322.047 134.413 324.542 138.239C324.542 138.239 319.485 140.289 312.347 139.878L307.496 124.869H323.434Z" fill="#B0C7C5"/>
<path d="M311.44 285.74C311.359 286.422 311.051 287.058 310.563 287.548C310.075 288.039 309.436 288.355 308.745 288.448C304.98 289.001 295.909 290.413 293.62 291.489C290.706 292.855 279.198 291.904 278.642 290.533C278.561 290.257 278.538 289.968 278.572 289.683C278.606 289.398 278.697 289.122 278.84 288.872C279.235 288.04 279.885 287.351 280.7 286.903C280.968 286.756 281.251 286.633 281.543 286.538C283.71 285.827 287.805 284.316 288.91 282.729C288.91 282.729 294.016 278.33 295.471 275.955C295.744 275.487 296.13 275.093 296.595 274.808C297.06 274.522 297.589 274.354 298.136 274.318C299.35 274.264 300.704 274.866 301.26 277.487C301.26 277.487 307.91 281.225 309.694 277.948C309.694 277.948 309.972 282.982 311.077 284.361C311.228 284.556 311.338 284.778 311.4 285.015C311.463 285.251 311.476 285.498 311.44 285.74Z" fill="#A27772"/>
<path opacity="0.1" d="M311.438 285.628C311.358 286.322 311.049 286.969 310.561 287.468C310.074 287.967 309.434 288.289 308.744 288.384C304.978 288.946 295.909 290.383 293.619 291.477C290.705 292.867 279.198 291.9 278.642 290.505C278.561 290.224 278.538 289.93 278.572 289.64C278.606 289.35 278.697 289.069 278.84 288.815C279.235 287.968 279.885 287.267 280.699 286.812C282.576 288.079 286.742 289.28 295.904 287.847C304.645 286.478 308.976 285.138 311.084 284.225C311.234 284.423 311.342 284.65 311.403 284.891C311.464 285.132 311.476 285.383 311.438 285.628Z" fill="black"/>
<g opacity="0.1">
<path opacity="0.1" d="M348.946 60.5399V60.4729C349.143 59.443 349.44 58.3796 349.365 57.3455C349.277 58.1906 349.137 59.0295 348.946 59.8575C348.894 60.082 348.894 60.3153 348.946 60.5399Z" fill="black"/>
<path opacity="0.1" d="M340.911 73.4263C341.13 73.9225 341.245 74.4582 341.25 75.0005C341.312 74.2527 341.196 73.5009 340.911 72.8067C340.526 71.9694 339.617 71.3372 338.73 71.5507C337.549 71.8271 337.055 73.3594 335.887 73.7278C334.915 74.0376 333.852 73.3468 333.375 72.4383C332.897 71.5298 332.897 70.4622 332.897 69.4407C332.897 68.2894 332.897 67.1422 332.897 65.9909C332.897 64.7349 332.856 63.3868 332.085 62.403C331.122 61.1763 328.87 60.6446 327.363 60.6906C326.359 60.7035 325.397 61.0918 324.666 61.7791C323.858 62.4657 322.929 62.9681 321.828 62.7881C321.371 62.7184 320.943 62.5211 320.593 62.2189C320.244 61.9167 319.987 61.5219 319.852 61.08C319.738 60.6362 319.768 60.1589 319.638 59.7193C319.316 58.6392 318.16 58.074 317.386 57.2534C316.659 56.4478 316.247 55.4073 316.226 54.3228C316.169 54.959 316.242 55.6002 316.442 56.2071C316.641 56.8139 316.962 57.3737 317.386 57.8521C318.16 58.6894 319.316 59.2379 319.638 60.318C319.768 60.7367 319.738 61.2349 319.852 61.6787C319.987 62.1206 320.244 62.5154 320.593 62.8176C320.943 63.1198 321.371 63.3171 321.828 63.3868C322.929 63.5668 323.858 63.0644 324.666 62.3778C325.397 61.6905 326.359 61.3021 327.363 61.2893C328.87 61.2433 331.131 61.775 332.085 63.0016C332.856 63.9855 332.893 65.3378 332.897 66.5896C332.897 67.7409 332.897 68.888 332.897 70.0394C332.897 71.0609 332.897 72.1327 333.375 73.0328C333.852 73.9329 334.903 74.6363 335.887 74.3265C337.042 73.958 337.561 72.4257 338.73 72.1494C339.617 71.9568 340.526 72.6183 340.911 73.4263Z" fill="black"/>
<path opacity="0.1" d="M352.228 69.6375C351.976 70.3442 351.577 70.9893 351.056 71.5298L346.509 76.9934C344.596 79.2918 342.574 81.9545 342.741 84.8893C342.879 82.1973 344.755 79.7482 346.509 77.613L351.056 72.1494C351.577 71.6089 351.976 70.9638 352.228 70.2571C352.342 69.7619 352.383 69.2527 352.35 68.7457C352.343 69.0466 352.302 69.3458 352.228 69.6375Z" fill="black"/>
<path opacity="0.1" d="M340.371 83.9683C340.296 83.7289 340.25 83.4816 340.233 83.2315C340.194 83.6883 340.241 84.1482 340.371 84.5879C340.681 85.5843 341.815 86.4091 342.774 85.9821C342.747 85.7821 342.73 85.5809 342.724 85.3792C341.769 85.7602 340.664 84.948 340.371 83.9683Z" fill="black"/>
</g>
<path opacity="0.1" d="M294.413 277.09C294.413 277.09 295.871 279.556 301.152 277.386L294.413 277.09Z" fill="black"/>
<path opacity="0.1" d="M338.812 277.883C338.812 277.883 343.195 282.835 348.722 279.508L338.812 277.883Z" fill="black"/>
<path opacity="0.1" d="M351.894 215.25C351.894 215.25 348.44 217.063 348.331 218.1C348.222 219.137 350.115 217.335 350.115 217.335L351.894 215.25Z" fill="black"/>
<path opacity="0.1" d="M353.084 230.313C351.932 231.23 350.5 231.765 349.004 231.837C346.525 231.942 346.735 235.031 348.354 234.104C349.973 233.177 353.084 230.313 353.084 230.313Z" fill="black"/>
<path opacity="0.1" d="M353.48 232.296C353.48 232.296 351.95 239.92 350.705 238.45L353.48 232.296Z" fill="black"/>
<path opacity="0.1" d="M106.645 272.178C112.541 272.178 117.321 271.371 117.321 270.375C117.321 269.378 112.541 268.571 106.645 268.571C100.749 268.571 95.9697 269.378 95.9697 270.375C95.9697 271.371 100.749 272.178 106.645 272.178Z" fill="#3D666C"/>
<path opacity="0.1" d="M64.5887 297.758C70.4847 297.758 75.2643 296.951 75.2643 295.955C75.2643 294.958 70.4847 294.151 64.5887 294.151C58.6927 294.151 53.9131 294.958 53.9131 295.955C53.9131 296.951 58.6927 297.758 64.5887 297.758Z" fill="#3D666C"/>
<path opacity="0.1" d="M386.356 308.842C392.252 308.842 397.032 308.035 397.032 307.039C397.032 306.042 392.252 305.235 386.356 305.235C380.46 305.235 375.681 306.042 375.681 307.039C375.681 308.035 380.46 308.842 386.356 308.842Z" fill="#3D666C"/>
<path opacity="0.1" d="M297.953 270.787C303.849 270.787 308.629 269.979 308.629 268.983C308.629 267.987 303.849 267.18 297.953 267.18C292.057 267.18 287.277 267.987 287.277 268.983C287.277 269.979 292.057 270.787 297.953 270.787Z" fill="#3D666C"/>
<path d="M180.538 87.8819L182.172 87.2098C182.172 87.2098 184.106 87.8819 184.106 90.7726C184.106 93.6633 181.728 135.867 181.728 135.867L186.485 158.993L179.944 160.149L169.835 138.758L180.538 87.8819Z" fill="#67A3A3"/>
<path d="M179.486 155.326C179.486 155.326 187.032 158.216 186.452 163.418C185.871 168.621 178.325 272.087 178.325 272.087L180.647 283.647L158.59 284.225L158.01 209.66L142.338 284.225H120.281L135.953 153.014L179.486 155.326Z" fill="#2F2E41"/>
<path d="M177.399 281.45L182.649 286.645C182.649 286.645 194.898 288.953 191.981 292.993C189.065 297.033 158.734 291.839 158.734 291.839L159.318 282.605L177.399 281.45Z" fill="#2F2E41"/>
<path d="M139.916 281.45L145.104 286.645C145.104 286.645 157.209 288.953 154.326 292.993C151.444 297.033 121.471 291.839 121.471 291.839L122.047 282.605L139.916 281.45Z" fill="#2F2E41"/>
<path d="M160.717 66.9933C168.379 66.9933 174.591 60.7815 174.591 53.119C174.591 45.4564 168.379 39.2446 160.717 39.2446C153.054 39.2446 146.842 45.4564 146.842 53.119C146.842 60.7815 153.054 66.9933 160.717 66.9933Z" fill="#8D6356"/>
<path d="M169.438 61.4433L168.285 84.8314L150.41 74.5638L152.716 61.4433H169.438Z" fill="#8D6356"/>
<path d="M150.014 68.5786L166.59 80.7806L169.448 72.0647L174.592 86.0097L171.734 110.994L150.014 68.5786Z" fill="#E8F7F6"/>
<path d="M150.073 66.9931L168.511 92.4606L169.179 71.1857L174.849 75.6752V80.3057L182.916 87.8302L180.035 116.77L179.459 150.92C179.459 150.92 182.916 153.814 181.763 155.55C180.611 157.287 176.002 161.338 170.816 161.338C165.63 161.338 133.363 157.287 133.363 154.972C133.363 152.656 134.516 122.558 134.516 122.558V82.0421L148.344 71.6236L150.073 66.9931Z" fill="#67A3A3"/>
<path d="M131.778 163.122L139.222 174.42L142.085 161.338L138.65 158.96L131.778 163.122Z" fill="#8D6356"/>
<path opacity="0.2" d="M168.382 179.862L157.233 210.059L158.322 210.461L169.47 180.263L168.382 179.862Z" fill="black"/>
<path d="M152.774 39.3505C152.774 39.3505 154.484 30.5886 164.174 32.341L163.034 32.9251C163.034 32.9251 172.154 31.7569 171.014 37.014C171.014 37.014 178.424 41.687 176.714 46.9442C175.709 49.9912 174.946 53.1168 174.434 56.2902L172.724 54.5378C172.724 54.5378 171.014 42.8553 160.754 44.0235C153.059 44.8997 149.924 48.6235 149.123 51.3069C148.754 52.5686 148.283 53.7966 147.715 54.9781L147.074 55.122C147.074 55.122 143.654 42.2711 152.774 39.3505Z" fill="#2F2E41"/>
<path d="M140.528 81.5075L135.247 81.2639L134.146 82.0842C132.883 83.3387 131.72 84.6883 130.665 86.1207C129.505 87.8507 114.422 129.946 114.422 129.946C114.142 132.503 114.542 135.088 115.582 137.443C117.322 141.479 131.246 165.699 131.246 165.699L141.688 159.356L127.765 131.1L137.627 117.26L140.528 81.5075Z" fill="#67A3A3"/>
<defs>
<linearGradient id="paint0_linear" x1="54577" y1="189366" x2="54577" y2="41471.4" gradientUnits="userSpaceOnUse">
<stop stop-color="#808080" stop-opacity="0.25"/>
<stop offset="0.54" stop-color="#808080" stop-opacity="0.12"/>
<stop offset="1" stop-color="#808080" stop-opacity="0.1"/>
</linearGradient>
<linearGradient id="paint1_linear" x1="76333.1" y1="203378" x2="76333.1" y2="58968.9" gradientUnits="userSpaceOnUse">
<stop stop-color="#808080" stop-opacity="0.25"/>
<stop offset="0.54" stop-color="#808080" stop-opacity="0.12"/>
<stop offset="1" stop-color="#808080" stop-opacity="0.1"/>
</linearGradient>
</defs>
</svg>
