<?xml version="1.0" encoding="utf-8"?>
<!-- Generator: Adobe Illustrator 24.2.3, SVG Export Plug-In . SVG Version: 6.00 Build 0)  -->
<svg version="1.1" id="Layer_1" xmlns="http://www.w3.org/2000/svg" xmlns:xlink="http://www.w3.org/1999/xlink" x="0px" y="0px"
	 viewBox="0 0 327 134" style="enable-background:new 0 0 327 134;" xml:space="preserve">
<style type="text/css">
	.st0{clip-path:url(#SVGID_2_);}
	.st1{opacity:0.2;fill:#E8F7F6;enable-background:new    ;}
	.st2{fill:#FFC600;}
	.st3{opacity:0.1;fill:#44797B;enable-background:new    ;}
	.st4{opacity:0.1;fill:#0A0806;enable-background:new    ;}
	.st5{fill:#E8F7F6;}
	.st6{fill:#44797B;}
	.st7{opacity:0.2;fill:#E6E6E6;enable-background:new    ;}
	.st8{fill:none;stroke:#0A0806;stroke-width:0.1322;stroke-miterlimit:10;}
	.st9{fill:none;stroke:#0A0806;stroke-width:0.2644;stroke-miterlimit:10;}
	.st10{fill:#7CBF9A;}
	.st11{opacity:0.4;fill:#E6E6E6;enable-background:new    ;}
	.st12{fill:#304D63;}
</style>
<g>
	<defs>
		<rect id="SVGID_1_" x="12" y="11" width="305" height="123"/>
	</defs>
	<clipPath id="SVGID_2_">
		<use xlink:href="#SVGID_1_"  style="overflow:visible;"/>
	</clipPath>
	<g class="st0">
		<path class="st1" d="M299.6,70.1c-10.6,3.8-7,10.6-0.8,16.3c2.1,1.9,4.4,3.9,3.4,5.7c-1.3,2.2-7.4,3.5-13.7,4
			c-11.6,0.9-25.3-0.4-35.7-3.3c-9-2.5-15.3-6.1-24.5-8.5c-15.3-4.1-35.2-4.2-52.2-3.1c-12,0.8-25.2,1.9-36.9-0.4
			c-8.3-1.6-13.9-4.7-16.8-7.8c-1.4-1.5-2.4-3-5.3-4.3c-1.7-0.8-3.9-1.4-6.2-1.9c-20.8-4.9-47.5-4.7-67.6-9.9
			c-13.6-3.5-22.1-9.1-25.7-14.6c-3.6-5.5-2.8-11-1.4-16.3C17.1,22,18.6,18,26,15.5c7.8-2.7,20.9-3,32.7-1.6
			c11.7,1.3,22.3,4.2,31.5,7.3c11.5,3.9,16.8,6.8,30.8,6.4c11.6-1.1,23,0.7,36.2,0.3c13.2-0.4,30.9,2.1,50.6,4.2
			c18.6,2,32.3,3.4,47.5,6.2c10.8,2,19.3,4.8,29.5,7.1c6.6,1.5,13.9,2.2,20.1,4c7.7,2.1,11.1,12.1,8.8,15.4
			C311.7,67.6,305.2,68.1,299.6,70.1z"/>
		<path class="st2" d="M21.5,24c3,0,5.5-2.5,5.5-5.5c0-3-2.5-5.5-5.5-5.5c-3,0-5.5,2.5-5.5,5.5C16,21.5,18.5,24,21.5,24z"/>
		<path class="st3" d="M164.1,99c0,0,24.2-6.3,55.5,9.8c31.3,16.1,65.6-12.7,64.9-17.1c-0.7-4.4,22.7,0,22.7,0v39H164.1V99z"/>
		<path class="st4" d="M248.1,123.9c0.1,0.4,0.2,0.7,0.2,0.7l2.9,1.7c0,0,2.1-4.9,1.1-5.1c-0.2,0-0.3-0.2-0.5-0.5
			c-0.1,0.1-0.2,0.2-0.3,0.4c-0.1,0.1-0.1,0.3,0,0.5c0,0.2,0.1,0.4,0.2,0.6c0.4,0.7-1.3,1.7-1.3,1.7
			C249.7,124.7,248.7,124.3,248.1,123.9z"/>
		<path class="st5" d="M251.5,121.9c-0.2-0.8,0.8-1.3,1.3-0.7c0.1,0.1,0.3,0.3,0.4,0.5c0.5,0.9,4.6,1.7,5.4,1.5
			c0.8-0.3,3.6-0.5,2.9,1.5c-0.7,2-12.7,4.9-12.7,4.9s-1.3-1.9-1.2-3.2c0.1-0.9,0.1-1.8,0-2.7c0,0,1.9,1.7,2.8,0.5
			c0,0,1.7-1.1,1.3-1.7C251.6,122.3,251.6,122.1,251.5,121.9z"/>
		<path class="st4" d="M213.4,120.9l1.1,2.5l4.8-0.5c-0.1-0.7-0.2-1.4-0.2-2.1c0-0.1-0.1-0.2-0.2-0.2c-0.1-0.1-0.2-0.1-0.3-0.1
			c-0.1,0-0.2,0-0.3,0c-0.1,0-0.2,0.1-0.3,0.2c-0.2,0.3-0.5,0.5-0.7,0.8c-0.5,0.7-2.3,0.3-2.3,0.3c-0.5,0.1-1-0.5-1.4-1.1
			C213.6,120.7,213.5,120.8,213.4,120.9z"/>
		<path class="st5" d="M217.9,120.9c0.1-0.1,0.2-0.2,0.3-0.2c0.1,0,0.2,0,0.3,0c0.1,0,0.2,0.1,0.3,0.2c0.1,0.1,0.1,0.2,0.2,0.3
			c0.2,0.9,0.8,2.2,1.9,2.6c2,0.8,4.8,2.1,3.9,3.3c-0.9,1.2-4.1,2.3-7,1.3c-2.8-0.9-6.8-3.2-6.8-3.2l2-5.3c0,0,1.1,2.3,1.9,2
			c0,0,1.7,0.4,2.3-0.3C217.4,121.5,217.6,121.2,217.9,120.9z"/>
		<path class="st6" d="M169,130.8c0,0-4.4-7.8,1.1-14c5.4-6.2,11.8-2.8,11.8-2.8s7.9,3.7,6.1,12.6c0,0-1.1,4.5-4.2,4.2H169z"/>
		<path class="st7" d="M169,130.8c0,0-4.4-7.8,1.1-14c5.4-6.2,11.8-2.8,11.8-2.8s7.9,3.7,6.1,12.6c0,0-1.1,4.5-4.2,4.2H169z"/>
		<path class="st8" d="M175.8,130.8l4.8-14.6"/>
		<path class="st8" d="M185,118.5c0,0-2.5-1.2-4.9-0.5c0,0-1.3-3.2-4.2-3.7"/>
		<path class="st8" d="M186.2,123.5c0,0-4.2-3-7.2-2.1c0,0-3.5-4.1-5.8-3.8"/>
		<path class="st8" d="M185.2,128.9c0,0-3.6-2.6-8-2.4c0,0-3.4-4.1-6.5-4.3"/>
		<path class="st8" d="M177.7,130.8c-0.5-0.3-1.1-0.5-1.7-0.6c0,0-2.8-3.6-8.3-2.4"/>
		<path class="st6" d="M216.2,130.8c0,0,4.4-7.1-6.5-17.7s-10.2-12.6-9.3-14.1c0,0-8.7,1.1-6.9,14.1c1.9,13.1,9.8,17.7,9.8,17.7
			H216.2z"/>
		<path class="st9" d="M210,130.8c0,0-3.2-9.4-8.1-15.1c-4.9-5.7-4-15.1-1.5-16.8"/>
		<path class="st5" d="M271.6,71.1c-1.9,2-2.1,5-2.1,5s3-0.2,5-2.1c1.9-2,2.1-5,2.1-5S273.6,69.2,271.6,71.1z"/>
		<path class="st10" d="M171.6,76.4c-1.9,2-2.1,5-2.1,5s3-0.2,5-2.1c1.9-2,2.1-5,2.1-5S173.6,74.4,171.6,76.4z"/>
		<path class="st6" d="M280.2,82.9c-1.9,2-2.1,5-2.1,5s3-0.2,5-2.1c1.9-2,2.1-5,2.1-5S282.1,80.9,280.2,82.9z"/>
		<path class="st6" d="M184.7,80.7c-2.6-1.1-5.4,0-5.4,0s1.3,2.7,3.9,3.8c2.6,1.1,5.4,0,5.4,0S187.3,81.7,184.7,80.7z"/>
		<path class="st2" d="M217,76.7c-1.5-2.3-4.4-3.2-4.4-3.2s-0.5,3,1,5.3s4.4,3.2,4.4,3.2S218.5,79.1,217,76.7z"/>
		<path class="st10" d="M252.8,87.6c0.6,0,1.1-0.5,1.1-1.1c0-0.6-0.5-1.1-1.1-1.1c-0.6,0-1.1,0.5-1.1,1.1
			C251.7,87,252.2,87.6,252.8,87.6z"/>
		<path class="st10" d="M255.5,99.8c0.6,0,1.1-0.5,1.1-1.1c0-0.6-0.5-1.1-1.1-1.1c-0.6,0-1.1,0.5-1.1,1.1
			C254.3,99.3,254.8,99.8,255.5,99.8z"/>
		<path class="st6" d="M231.3,102.4c0,0-4.4-4.9-5.9,1.2c-1.6,6.1-2.5,6.9-5.7,5.3c-3.2-1.6-6.5,5.9,1.3,11.4
			c7.8,5.4,3.4,10.8,3.4,10.8h27.9c0,0,3.7-10.8-4.4-14.5c-8.1-3.7-7.8-6.5-7.5-10.2C240.7,102.6,231.3,102.4,231.3,102.4z"/>
		<path class="st9" d="M227.6,100.5c0,0,18.1,23.9,11.9,30.5"/>
		<path class="st9" d="M222.9,109.2c0,0,4.3,3.6,11.3,1.8c7-1.9,5.3-6.6,5.3-6.6"/>
		<path class="st9" d="M252.3,120.8c0,0-9.3-4.5-14-2.8c-12.2,4.4-21.3-7.4-21.3-7.4"/>
		<path class="st6" d="M225.2,130.8c0,0,5.7-4.2-1.5-19c0,0-9.5-11.8,0-22.9c0,0-20.8,0.5-20.4,19.8c0.4,19.3,10.4,22.1,10.4,22.1
			H225.2z"/>
		<path class="st9" d="M219.8,130.8c0,0-1.4-10.2-5.3-16.4c-0.8-1.3-1.3-2.6-1.6-4.1c-1.3-5.6,0.5-11.5,4.7-15.6l6-5.9"/>
		<path class="st4" d="M225.2,130.8c0,0,5.7-4.2-1.5-19c0,0-9.5-11.8,0-22.9c0,0-20.8,0.5-20.4,19.8c0.4,19.3,10.4,22.1,10.4,22.1
			H225.2z"/>
		<path class="st6" d="M276.1,130.7c0,0-19.5-4.3,5.3-29.8c0,0,10.7,10.1,6.8,22.7c-1.6,5.1-6.6,8.2-11.8,7.2
			C276.3,130.7,276.2,130.7,276.1,130.7z"/>
		<path class="st11" d="M276.1,130.7c-0.4-0.1-19-4.8,5.3-29.8c0,0,10.7,10.1,6.8,22.7c-1.6,5.1-6.6,8.2-11.8,7.2
			C276.3,130.7,276.2,130.7,276.1,130.7z"/>
		<path class="st8" d="M276.4,130.8c0,0,10.3-15.5,5-29.9"/>
		<path class="st6" d="M195.6,130.7c0,0-19.5-4.3,5.3-29.8c0,0,10.7,10.1,6.8,22.7c-1.6,5.1-6.6,8.2-11.8,7.2
			C195.8,130.7,195.7,130.7,195.6,130.7z"/>
		<path class="st11" d="M195.6,130.7c-0.4-0.1-19-4.8,5.3-29.8c0,0,10.7,10.1,6.8,22.7c-1.6,5.1-6.6,8.2-11.8,7.2
			C195.8,130.7,195.7,130.7,195.6,130.7z"/>
		<path class="st8" d="M195.9,130.8c0,0,10.3-15.5,5-29.9"/>
		<path class="st6" d="M239.1,130.7c0,0-19.5-4.3,5.3-29.8c0,0,10.7,10.1,6.8,22.7c-1.6,5.1-6.6,8.2-11.8,7.2
			C239.3,130.7,239.2,130.7,239.1,130.7z"/>
		<path class="st11" d="M239.1,130.7c-0.4-0.1-19-4.8,5.3-29.8c0,0,10.7,10.1,6.8,22.7c-1.6,5.1-6.6,8.2-11.8,7.2
			C239.3,130.7,239.2,130.7,239.1,130.7z"/>
		<path class="st8" d="M239.4,130.8c0,0,10.3-15.5,5-29.9"/>
		<path class="st6" d="M298.9,130.7c0,0-19.5-4.3,5.3-29.8c0,0,10.7,10.1,6.8,22.7c-1.6,5.1-6.6,8.2-11.8,7.2
			C299.1,130.7,299,130.7,298.9,130.7z"/>
		<path class="st11" d="M298.9,130.7c-0.4-0.1-19-4.8,5.3-29.8c0,0,10.7,10.1,6.8,22.7c-1.6,5.1-6.6,8.2-11.8,7.2
			C299.1,130.7,299,130.7,298.9,130.7z"/>
		<path class="st8" d="M299.1,130.8c0,0,10.3-15.5,5-29.9"/>
		<path class="st6" d="M262.6,130.7c0,0-19.5-4.3,5.3-29.8c0,0,10.7,10.1,6.8,22.7c-1.6,5.1-6.6,8.2-11.8,7.2
			C262.8,130.7,262.7,130.7,262.6,130.7z"/>
		<path class="st11" d="M262.6,130.7c-0.4-0.1-19-4.8,5.3-29.8c0,0,10.7,10.1,6.8,22.7c-1.6,5.1-6.6,8.2-11.8,7.2
			C262.8,130.7,262.7,130.7,262.6,130.7z"/>
		<path class="st8" d="M262.9,130.8c0,0,10.3-15.5,5-29.9"/>
		<path class="st6" d="M194.9,129.2c0.6-0.4,1.1-0.9,1.3-1.6c0.1-0.3,0-0.7-0.1-1c-0.2-0.3-0.4-0.5-0.8-0.6
			c-0.8-0.3-1.7,0.2-2.4,0.7c-0.7,0.5-1.4,1-2.3,0.9c0.9-0.6,1.3-1.7,1.1-2.7c0-0.2-0.1-0.4-0.3-0.5c-0.5-0.4-1.3-0.2-1.8,0.1
			c-1.7,1-2.2,2.9-2.2,4.6c-0.2-0.6,0-1.3,0-1.9c0-0.6-0.2-1.3-0.9-1.7c-0.4-0.2-0.9-0.2-1.3-0.3c-0.8,0-1.6,0-2.2,0.5
			c-0.7,0.6-0.5,1.5,0.1,2.2c0.6,0.6,1.4,1,2.3,1.5c0.6,0.3,1.2,0.7,1.6,1.3c0,0.1,0.1,0.1,0.1,0.2h4.9
			C193,130.4,194,129.8,194.9,129.2z"/>
		<path class="st6" d="M276.8,129.2c0.6-0.4,1.1-0.9,1.3-1.6c0.1-0.3,0-0.7-0.1-1c-0.2-0.3-0.4-0.5-0.8-0.6
			c-0.8-0.3-1.7,0.2-2.4,0.7c-0.7,0.5-1.4,1-2.3,0.9c0.9-0.6,1.3-1.7,1.1-2.7c0-0.2-0.1-0.4-0.3-0.5c-0.5-0.4-1.3-0.2-1.8,0.1
			c-1.7,1-2.2,2.9-2.2,4.6c-0.2-0.6,0-1.3,0-1.9c0-0.6-0.2-1.3-0.9-1.7c-0.4-0.2-0.9-0.2-1.3-0.3c-0.8,0-1.6,0-2.2,0.5
			c-0.7,0.6-0.5,1.5,0.1,2.2c0.6,0.6,1.5,1,2.3,1.5c0.6,0.3,1.2,0.7,1.6,1.3c0,0.1,0.1,0.1,0.1,0.2h4.9
			C274.8,130.4,275.9,129.8,276.8,129.2z"/>
		<path class="st12" d="M250.5,119.6c4.3,7.9,13.3,11.3,13.3,11.3s2.1-9.4-2.1-17.4c-4.3-7.9-13.3-11.3-13.3-11.3
			S246.2,111.7,250.5,119.6z"/>
		<path class="st6" d="M253.4,117c7.7,4.6,10.7,13.9,10.7,13.9s-9.5,1.7-17.3-2.9c-7.7-4.6-10.7-13.9-10.7-13.9
			S245.7,112.4,253.4,117z"/>
		<path class="st12" d="M225.6,119.6c4.3,7.9,13.3,11.3,13.3,11.3s2.1-9.4-2.1-17.4c-4.3-7.9-13.3-11.3-13.3-11.3
			S221.4,111.7,225.6,119.6z"/>
		<path class="st6" d="M228.6,117c7.7,4.6,10.7,13.9,10.7,13.9s-9.5,1.7-17.3-2.9c-7.7-4.6-10.7-13.9-10.7-13.9
			S220.9,112.4,228.6,117z"/>
		<path class="st12" d="M200.2,92.9c-7.4,11.1-5.6,25.3-5.6,25.3s13.8-3.7,21.2-14.8c7.4-11.1,5.6-25.3,5.6-25.3
			S207.6,81.8,200.2,92.9z"/>
		<path class="st10" d="M205.7,94.9c-0.7,13.3-10.7,23.6-10.7,23.6s-8.8-11.3-8.1-24.6c0.7-13.3,10.7-23.6,10.7-23.6
			S206.4,81.6,205.7,94.9z"/>
		<path class="st6" d="M305.5,110c0.3,15.1-8.6,20.5-19.6,20.7c-0.3,0-0.5,0-0.8,0c-0.5,0-1,0-1.5,0c-10-0.5-17.8-5.9-18.1-19.9
			c-0.3-14.5,17.9-33.2,19.3-34.5c0,0,0,0,0,0c0.1-0.1,0.1-0.1,0.1-0.1S305.2,94.9,305.5,110z"/>
		<path class="st12" d="M285.1,128.4l7.1-10.4l-7.1,11.5l0,1.2c-0.5,0-1,0-1.5,0l0.5-15.1l0-0.1l0,0l0-1.4l-7.6-11.2l7.6,10.2l0,0.3
			l0.4-11.4L278,90.2l6.6,9.6l0.2-23.6l0-0.1l0,0.1l0.2,18.6l6.1-7.5l-6.1,9.1l0,10.2l5.7-9.9l-5.7,11.4l0,5.7l8.2-13.8l-8.2,15.8
			L285.1,128.4z"/>
		<path class="st6" d="M274.4,110c0.3,15.1-8.6,20.5-19.6,20.7c-0.3,0-0.5,0-0.8,0c-0.5,0-1,0-1.5,0c-10-0.5-17.8-5.9-18.1-19.9
			c-0.3-14.5,17.9-33.2,19.3-34.5c0,0,0,0,0,0c0.1-0.1,0.1-0.1,0.1-0.1S274.1,94.9,274.4,110z"/>
		<path class="st12" d="M254,128.4l7.1-10.4l-7.1,11.5l0,1.2c-0.5,0-1,0-1.5,0l0.5-15.1l0-0.1l0,0l0-1.4l-7.6-11.2l7.6,10.2l0,0.3
			l0.4-11.4l-6.5-11.6l6.6,9.6l0.2-23.6l0-0.1l0,0.1l0.2,18.6l6.1-7.5l-6.1,9.1l0,10.2l5.7-9.9l-5.7,11.4l0,5.7l8.2-13.8l-8.2,15.8
			L254,128.4z"/>
		<path class="st12" d="M311.6,110.2c0.3,15.1-8.6,20.5-19.6,20.7c-0.3,0-0.5,0-0.8,0c-0.5,0-1,0-1.5,0c-10-0.5-17.8-5.9-18.1-19.9
			c-0.3-14.5,17.9-33.2,19.3-34.5c0,0,0,0,0,0c0.1-0.1,0.1-0.1,0.1-0.1S311.3,95.2,311.6,110.2z"/>
		<path class="st10" d="M291.2,128.6l7.1-10.4l-7.1,11.5l0,1.2c-0.5,0-1,0-1.5,0l0.5-15.1l0-0.1l0,0l0-1.4l-7.6-11.2l7.6,10.2l0,0.3
			l0.4-11.4l-6.5-11.6l6.6,9.6l0.2-23.6l0-0.1l0,0.1l0.2,18.6l6.1-7.5l-6.1,9.1l0,10.2l5.7-9.9l-5.7,11.4l0,5.7l8.2-13.8l-8.2,15.8
			L291.2,128.6z"/>
		<path class="st6" d="M201,110c0.3,15.1-8.6,20.5-19.6,20.7c-0.3,0-0.5,0-0.8,0c-0.5,0-1,0-1.5,0c-10-0.5-17.8-5.9-18.1-19.9
			c-0.3-14.5,17.9-33.2,19.3-34.5c0,0,0,0,0,0c0.1-0.1,0.1-0.1,0.1-0.1S200.8,94.9,201,110z"/>
		<path class="st12" d="M180.6,128.4l7.1-10.4l-7.1,11.5l0,1.2c-0.5,0-1,0-1.5,0l0.5-15.1l0-0.1l0,0l0-1.4l-7.6-11.2l7.6,10.2l0,0.3
			l0.4-11.4l-6.5-11.6l6.6,9.6l0.2-23.6l0-0.1l0,0.1l0.2,18.6l6.1-7.5l-6.1,9.1l0,10.2l5.7-9.9l-5.7,11.4l0,5.7l8.2-13.8l-8.2,15.8
			L180.6,128.4z"/>
		<path class="st12" d="M282.4,133c-4.8-0.8-9.3-1.5-13.7-2.1l1.7-3.4c-0.6-0.2-3.2,1.7-3.2,1.7l2.3-9.8c-2.9,0.4-4.4,10.3-4.4,10.3
			l-3.3-3.4l1.6,3.8c-13.4-1.6-25.1-2.2-34.8-2.2l1.5-2.9c-0.6-0.2-3.2,1.7-3.2,1.7l2.3-9.8c-2.9,0.4-4.4,10.3-4.4,10.3l-3.3-3.4
			l1.7,4c-8.2,0.2-14.9,0.7-20,1.4c1.5-4.5,6.6-8.8,6.6-8.8c-3.9,1.2-5.9,3.1-7,4.9c-0.1-9.3,1.4-18.5,4.6-27.2c0,0-8.1,17.5-7,29.3
			l0.1,2.1c-6.8,1-10.3,2-10.3,2L282.4,133z"/>
		<path class="st12" d="M297.9,132.2c-4.8-0.8-9.3-1.5-13.7-2.1l1.7-3.4c-0.6-0.2-3.2,1.7-3.2,1.7l2.3-9.8
			c-2.9,0.4-4.4,10.3-4.4,10.3l-3.3-3.4l1.6,3.8c-13.4-1.6-25.1-2.2-34.8-2.2l1.5-2.9c-0.6-0.2-3.2,1.7-3.2,1.7l2.3-9.8
			c-2.9,0.4-4.4,10.3-4.4,10.3l-3.3-3.4l1.7,4c-8.2,0.2-14.9,0.7-20,1.4c1.5-4.5,6.6-8.8,6.6-8.8c-3.9,1.2-5.9,3.1-7,4.9
			c-0.1-9.3,1.4-18.5,4.6-27.2c0,0-8.1,17.5-7,29.3l0.1,2.1c-6.8,1-10.3,2-10.3,2L297.9,132.2z"/>
		<path class="st12" d="M315.6,133.5c-4.8-0.8-9.3-1.5-13.7-2.1l1.7-3.4c-0.6-0.2-3.2,1.7-3.2,1.7l2.3-9.8
			c-2.9,0.4-4.4,10.3-4.4,10.3L295,127l1.6,3.8c-13.4-1.6-25.1-2.2-34.8-2.2l1.5-2.9c-0.6-0.2-3.2,1.7-3.2,1.7l2.3-9.8
			c-2.9,0.4-4.4,10.3-4.4,10.3l-3.3-3.4l1.7,4c-8.2,0.2-14.9,0.7-20,1.4c1.5-4.5,6.6-8.8,6.6-8.8c-3.9,1.2-5.9,3.1-7,4.9
			c-0.1-9.3,1.4-18.5,4.5-27.2c0,0-8.1,17.5-7,29.3l0.1,2.1c-6.8,1-10.3,2-10.3,2L315.6,133.5z"/>
		<path class="st12" d="M257,132.2c-4.8-0.8-9.3-1.5-13.7-2.1l1.7-3.4c-0.6-0.2-3.2,1.7-3.2,1.7l2.3-9.8c-2.9,0.4-4.4,10.3-4.4,10.3
			l-3.3-3.4l1.6,3.8c-13.4-1.6-25.1-2.2-34.8-2.2l1.5-2.9c-0.6-0.2-3.2,1.7-3.2,1.7l2.3-9.8c-2.9,0.4-4.4,10.3-4.4,10.3l-3.3-3.4
			l1.7,4c-8.2,0.2-14.9,0.7-20,1.4c1.5-4.5,6.6-8.8,6.6-8.8c-3.9,1.2-5.9,3.1-7,4.9c-0.1-9.3,1.4-18.5,4.6-27.2c0,0-8.1,17.5-7,29.3
			l0.1,2.1c-6.8,1-10.3,2-10.3,2L257,132.2z"/>
	</g>
</g>
</svg>
