<svg width="40" height="40" viewBox="0 0 40 40" fill="none" xmlns="http://www.w3.org/2000/svg">
<path d="M25.084 8.33335C26.7119 8.65096 28.208 9.44712 29.3808 10.6199C30.5536 11.7927 31.3498 13.2888 31.6674 14.9167L25.084 8.33335ZM25.084 1.66669C28.4662 2.04241 31.62 3.55698 34.0278 5.9617C36.4355 8.36642 37.9541 11.5184 38.334 14.9L25.084 1.66669ZM36.6674 28.2V33.2C36.6693 33.6642 36.5742 34.1236 36.3882 34.5489C36.2023 34.9742 35.9295 35.356 35.5875 35.6698C35.2455 35.9836 34.8417 36.2225 34.402 36.3712C33.9622 36.5199 33.4963 36.5751 33.034 36.5334C27.9054 35.9761 22.979 34.2236 18.6507 31.4167C14.6237 28.8578 11.2096 25.4436 8.6507 21.4167C5.834 17.0687 4.08111 12.1183 3.53404 6.96669C3.49239 6.5058 3.54716 6.04129 3.69487 5.60273C3.84258 5.16417 4.07999 4.76117 4.39198 4.41939C4.70397 4.07761 5.08371 3.80454 5.50702 3.61756C5.93033 3.43058 6.38794 3.33379 6.8507 3.33335H11.8507C12.6595 3.32539 13.4437 3.61182 14.057 4.13924C14.6703 4.66666 15.0708 5.3991 15.184 6.20002C15.3951 7.80013 15.7865 9.37123 16.3507 10.8834C16.5749 11.4799 16.6235 12.1282 16.4905 12.7515C16.3576 13.3748 16.0488 13.9469 15.6007 14.4L13.484 16.5167C15.8566 20.6893 19.3115 24.1441 23.484 26.5167L25.6007 24.4C26.0539 23.9519 26.626 23.6431 27.2492 23.5102C27.8725 23.3772 28.5208 23.4258 29.1174 23.65C30.6295 24.2143 32.2006 24.6056 33.8007 24.8167C34.6103 24.9309 35.3497 25.3387 35.8783 25.9625C36.4068 26.5863 36.6877 27.3826 36.6674 28.2Z" stroke="white" stroke-width="2" stroke-linecap="round" stroke-linejoin="round"/>
</svg>
