<svg width="1006" height="261" viewBox="0 0 1006 261" fill="none" xmlns="http://www.w3.org/2000/svg">
<path opacity="0.2" d="M949.193 157.856C915.679 172.429 928.699 193.719 949.995 210.769C957.125 216.477 965.19 222.517 962.181 228.639C958.502 236.125 938.968 241.599 918.458 244.5C881.07 249.789 836.329 248.528 801.975 241.219C772.286 234.902 751.025 224.629 720.83 218.6C670.298 208.51 605.979 212.32 551.108 219.27C512.288 224.188 469.847 230.583 431.273 225.444C404.131 221.828 385.369 213.027 375.147 203.697C370.211 199.193 366.629 194.318 357.204 190.748C351.601 188.625 344.288 187.119 336.798 185.848C268.396 174.248 182.004 180.46 115.565 167.595C70.695 158.906 41.9692 142.515 29.2503 125.424C16.5314 108.333 18.0129 90.4124 21.2422 72.8112C23.5371 60.3028 27.6545 46.9488 51.0223 37.2949C75.7423 27.0823 118.167 23.2849 156.513 25.226C194.859 27.167 229.617 34.0854 260.195 42.2339C298.411 52.4179 316.145 60.8261 361.34 56.517C398.743 50.5918 436.089 54.1524 478.715 49.9831C521.342 45.8139 579.325 50.4471 643.718 53.2383C704.417 55.8694 749.002 57.5948 798.972 63.4308C834.334 67.5608 862.683 75.0577 896.074 80.2951C917.839 83.709 941.574 84.6517 962.181 89C987.566 94.3564 1000.5 126.098 994 137C987.816 147.365 966.98 150.121 949.193 157.856Z" fill="#E8F7F6"/>
<path opacity="0.1" d="M549.929 154.387C549.929 154.387 618.802 136.322 707.998 182.238C797.195 228.153 894.671 146.108 892.789 133.688C890.907 121.268 957.522 133.688 957.522 133.688V244.713H549.929V154.387Z" fill="#44797B"/>
<path opacity="0.1" d="M788.919 225.341C789.216 226.574 789.376 227.378 789.376 227.378L797.76 232.308C797.76 232.308 803.858 218.275 800.809 217.896C800.336 217.839 799.818 217.35 799.277 216.568C798.881 216.804 798.572 217.162 798.396 217.588C798.22 218.013 798.187 218.485 798.301 218.931C798.421 219.498 798.624 220.044 798.903 220.551C800.047 222.447 795.092 225.481 795.092 225.481C793.423 227.617 790.714 226.49 788.919 225.341Z" fill="#0A0806"/>
<path d="M798.682 219.689C798.159 217.502 800.908 216.035 802.452 217.677C802.845 218.088 803.189 218.543 803.477 219.034C805.001 221.689 816.434 223.964 818.72 223.206C821.007 222.447 829.01 221.689 827.104 227.378C825.199 233.067 790.9 241.411 790.9 241.411C790.9 241.411 787.09 236.101 787.471 232.309C787.692 229.785 787.692 227.247 787.471 224.723C787.471 224.723 792.806 229.654 795.474 226.24C795.474 226.24 800.428 223.206 799.285 221.309C799.005 220.802 798.802 220.256 798.682 219.689Z" fill="#E8F7F6"/>
<path opacity="0.1" d="M690.292 216.758L693.341 223.964L707.06 222.447C706.637 220.489 706.403 218.495 706.359 216.492C706.223 216.221 706.023 215.986 705.776 215.808C705.53 215.631 705.244 215.516 704.943 215.473C704.642 215.43 704.335 215.461 704.049 215.562C703.763 215.664 703.505 215.833 703.298 216.056C702.59 216.815 701.873 217.615 701.343 218.275C699.819 220.171 694.865 219.034 694.865 219.034C693.581 219.458 692.056 217.615 690.966 215.912C690.77 216.215 690.544 216.499 690.292 216.758Z" fill="#0A0806"/>
<path d="M702.916 216.815C703.144 216.568 703.433 216.387 703.755 216.291C704.076 216.194 704.418 216.186 704.743 216.266C705.069 216.347 705.368 216.513 705.607 216.748C705.847 216.983 706.019 217.278 706.106 217.602C706.799 220.299 708.32 223.783 711.633 225.102C717.349 227.378 725.352 231.171 722.685 234.584C720.017 237.998 710.871 241.032 702.868 238.377C694.865 235.722 683.432 229.274 683.432 229.274L689.149 214.103C689.149 214.103 692.197 220.551 694.484 219.792C694.484 219.792 699.438 220.93 700.962 219.034C701.493 218.373 702.209 217.575 702.916 216.815Z" fill="#E8F7F6"/>
<path d="M563.666 244.901C563.666 244.901 551.247 222.696 566.677 205.007C582.108 187.318 600.173 197.104 600.173 197.104C600.173 197.104 622.754 207.642 617.485 232.857C617.485 232.857 614.474 245.654 605.442 244.901H563.666Z" fill="#44797B"/>
<path opacity="0.2" d="M563.666 244.901C563.666 244.901 551.247 222.696 566.677 205.007C582.108 187.318 600.173 197.104 600.173 197.104C600.173 197.104 622.754 207.642 617.485 232.857C617.485 232.857 614.474 245.654 605.442 244.901H563.666Z" fill="#E6E6E6"/>
<path d="M583.174 244.933L596.785 203.502" stroke="#0A0806" stroke-width="0.376355" stroke-miterlimit="10"/>
<path d="M609.205 209.9C609.205 209.9 602.197 206.603 595.163 208.439C595.163 208.439 591.517 199.362 583.237 197.856" stroke="#0A0806" stroke-width="0.376355" stroke-miterlimit="10"/>
<path d="M612.592 224.201C612.592 224.201 600.676 215.589 591.956 218.201C591.956 218.201 582.108 206.513 575.333 207.265" stroke="#0A0806" stroke-width="0.376355" stroke-miterlimit="10"/>
<path d="M609.958 239.632C609.958 239.632 599.773 232.265 587.177 232.75C587.177 232.75 577.591 221.19 568.559 220.438" stroke="#0A0806" stroke-width="0.376355" stroke-miterlimit="10"/>
<path d="M588.612 244.933C587.05 244.196 585.421 243.612 583.747 243.189C583.747 243.189 575.898 232.983 560.185 236.307" stroke="#0A0806" stroke-width="0.376355" stroke-miterlimit="10"/>
<path d="M698.025 244.901C698.025 244.901 710.445 224.578 679.584 194.469C648.722 164.361 650.604 158.715 653.239 154.199C653.239 154.199 628.399 157.21 633.668 194.469C638.937 231.728 661.519 244.901 661.519 244.901H698.025Z" fill="#44797B"/>
<path d="M680.524 244.901C680.524 244.901 671.304 218.18 657.379 201.996C643.453 185.813 646.088 159.092 653.239 154.199" stroke="#0A0806" stroke-width="0.752711" stroke-miterlimit="10"/>
<path d="M855.899 75.1197C850.352 80.7479 849.988 89.3816 849.988 89.3816C849.988 89.3816 858.615 88.8902 864.161 83.262C869.707 77.6337 870.072 69 870.072 69C870.072 69 861.445 69.4915 855.899 75.1197Z" fill="#E8F7F6"/>
<path d="M571.277 89.9898C565.731 95.618 565.366 104.252 565.366 104.252C565.366 104.252 573.993 103.76 579.54 98.1321C585.086 92.5038 585.45 83.8701 585.45 83.8701C585.45 83.8701 576.823 84.3616 571.277 89.9898Z" fill="#7CBF9A"/>
<path d="M880.264 108.431C874.718 114.06 874.354 122.693 874.354 122.693C874.354 122.693 882.981 122.202 888.527 116.574C894.073 110.945 894.438 102.312 894.438 102.312C894.438 102.312 885.811 102.803 880.264 108.431Z" fill="#44797B"/>
<path d="M608.475 102.245C601.166 99.2407 593.037 102.17 593.037 102.17C593.037 102.17 596.756 109.97 604.064 112.974C611.372 115.979 619.502 113.05 619.502 113.05C619.502 113.05 615.783 105.249 608.475 102.245Z" fill="#44797B"/>
<path d="M700.367 90.9602C696.143 84.2825 687.817 81.9701 687.817 81.9701C687.817 81.9701 686.339 90.4843 690.564 97.162C694.788 103.84 703.114 106.152 703.114 106.152C703.114 106.152 704.592 97.6379 700.367 90.9602Z" fill="#FFC600"/>
<path d="M802.325 121.825C804.127 121.825 805.588 120.364 805.588 118.563C805.588 116.761 804.127 115.3 802.325 115.3C800.523 115.3 799.062 116.761 799.062 118.563C799.062 120.364 800.523 121.825 802.325 121.825Z" fill="#7CBF9A"/>
<path d="M809.938 156.627C811.74 156.627 813.201 155.166 813.201 153.364C813.201 151.562 811.74 150.101 809.938 150.101C808.136 150.101 806.675 151.562 806.675 153.364C806.675 155.166 808.136 156.627 809.938 156.627Z" fill="#7CBF9A"/>
<path d="M741.118 163.984C741.118 163.984 728.698 150.059 724.182 167.372C719.665 184.684 717.031 186.942 707.998 182.426C698.966 177.91 689.557 199.362 711.762 214.792C733.967 230.223 721.547 245.465 721.547 245.465H800.958C800.958 245.465 811.496 214.792 788.538 204.254C765.581 193.716 766.333 185.813 767.086 175.275C767.839 164.737 741.118 163.984 741.118 163.984Z" fill="#44797B"/>
<path d="M730.58 158.689C730.58 158.689 782.141 226.648 764.452 245.465" stroke="#0A0806" stroke-width="0.752711" stroke-miterlimit="10"/>
<path d="M717.249 183.521C717.249 183.521 729.451 193.905 749.398 188.636C769.344 183.367 764.426 169.85 764.426 169.85" stroke="#0A0806" stroke-width="0.752711" stroke-miterlimit="10"/>
<path d="M800.751 216.371C800.751 216.371 774.206 203.496 760.861 208.298C726.115 220.798 700.283 187.13 700.283 187.13" stroke="#0A0806" stroke-width="0.752711" stroke-miterlimit="10"/>
<path d="M723.617 244.901C723.617 244.901 739.801 232.858 719.477 190.706C719.477 190.706 692.38 157.21 719.477 125.596C719.477 125.596 660.39 127.102 661.519 182.05C662.648 236.998 691.063 244.901 691.063 244.901H723.617Z" fill="#44797B"/>
<path d="M708.5 244.901C708.5 244.901 704.423 215.922 693.509 198.233C691.355 194.659 689.806 190.754 688.923 186.676C685.274 170.632 690.476 153.854 702.26 142.372L719.477 125.596" stroke="#0A0806" stroke-width="0.752711" stroke-miterlimit="10"/>
<path opacity="0.1" d="M723.617 244.901C723.617 244.901 739.801 232.858 719.477 190.706C719.477 190.706 692.38 157.21 719.477 125.596C719.477 125.596 660.39 127.102 661.519 182.05C662.648 236.998 691.063 244.901 691.063 244.901H723.617Z" fill="#0A0806"/>
<path d="M868.679 244.569C868.679 244.569 813.301 232.189 883.763 159.743C883.763 159.743 914.136 188.529 902.993 224.315C898.513 238.703 884.101 247.585 869.505 244.739C869.231 244.686 868.956 244.629 868.679 244.569Z" fill="#44797B"/>
<path opacity="0.4" d="M868.679 244.569C867.463 244.297 814.494 230.963 883.763 159.743C883.763 159.743 914.136 188.529 902.993 224.315C898.513 238.703 884.101 247.585 869.505 244.739C869.231 244.686 868.956 244.629 868.679 244.569Z" fill="#E6E6E6"/>
<path d="M869.406 244.981C869.406 244.981 898.657 200.916 883.763 159.743" stroke="#0A0806" stroke-width="0.376355" stroke-miterlimit="10"/>
<path d="M639.479 244.569C639.479 244.569 584.101 232.189 654.562 159.743C654.562 159.743 684.936 188.529 673.793 224.315C669.313 238.703 654.901 247.585 640.304 244.739C640.031 244.686 639.756 244.629 639.479 244.569Z" fill="#44797B"/>
<path opacity="0.4" d="M639.479 244.569C638.263 244.297 585.293 230.963 654.562 159.743C654.562 159.743 684.936 188.529 673.793 224.315C669.313 238.703 654.901 247.585 640.304 244.739C640.031 244.686 639.756 244.629 639.479 244.569Z" fill="#E6E6E6"/>
<path d="M640.206 244.981C640.206 244.981 669.456 200.916 654.562 159.743" stroke="#0A0806" stroke-width="0.376355" stroke-miterlimit="10"/>
<path d="M763.3 244.569C763.3 244.569 707.922 232.189 778.383 159.743C778.383 159.743 808.757 188.529 797.614 224.315C793.134 238.703 778.722 247.585 764.125 244.739C763.852 244.686 763.577 244.629 763.3 244.569Z" fill="#44797B"/>
<path opacity="0.4" d="M763.3 244.569C762.084 244.297 709.114 230.963 778.383 159.743C778.383 159.743 808.757 188.529 797.614 224.315C793.134 238.703 778.722 247.585 764.125 244.739C763.852 244.686 763.577 244.629 763.3 244.569Z" fill="#E6E6E6"/>
<path d="M764.027 244.981C764.027 244.981 793.277 200.916 778.383 159.743" stroke="#0A0806" stroke-width="0.376355" stroke-miterlimit="10"/>
<path d="M933.412 244.569C933.412 244.569 878.034 232.189 948.496 159.743C948.496 159.743 978.869 188.529 967.727 224.315C963.247 238.703 948.835 247.585 934.238 244.739C933.965 244.686 933.689 244.629 933.412 244.569Z" fill="#44797B"/>
<path opacity="0.4" d="M933.413 244.569C932.197 244.297 879.227 230.963 948.496 159.743C948.496 159.743 978.869 188.529 967.727 224.315C963.247 238.703 948.835 247.585 934.238 244.739C933.965 244.686 933.69 244.629 933.413 244.569Z" fill="#E6E6E6"/>
<path d="M934.14 244.981C934.14 244.981 963.39 200.916 948.496 159.743" stroke="#0A0806" stroke-width="0.376355" stroke-miterlimit="10"/>
<path d="M830.291 244.569C830.291 244.569 774.913 232.189 845.374 159.743C845.374 159.743 875.748 188.529 864.605 224.315C860.125 238.703 845.713 247.585 831.117 244.739C830.843 244.686 830.568 244.629 830.291 244.569Z" fill="#44797B"/>
<path opacity="0.4" d="M830.291 244.569C829.075 244.297 776.106 230.963 845.374 159.743C845.374 159.743 875.748 188.529 864.605 224.315C860.125 238.703 845.713 247.585 831.117 244.739C830.843 244.686 830.568 244.629 830.291 244.569Z" fill="#E6E6E6"/>
<path d="M831.018 244.981C831.018 244.981 860.268 200.916 845.374 159.743" stroke="#0A0806" stroke-width="0.376355" stroke-miterlimit="10"/>
<path d="M637.624 240.242C639.259 239.003 640.793 237.541 641.264 235.761C641.506 234.819 641.378 233.82 640.904 232.971C640.431 232.121 639.649 231.486 638.721 231.197C636.385 230.469 633.889 231.789 631.997 233.123C630.105 234.457 627.937 235.979 625.46 235.697C628.026 233.844 629.245 230.833 628.538 228.097C628.417 227.508 628.119 226.969 627.682 226.554C626.386 225.423 624.035 225.909 622.483 226.8C617.546 229.633 616.169 235.104 616.142 240.028C615.644 238.252 616.064 236.401 616.051 234.579C616.039 232.757 615.427 230.737 613.543 229.759C612.425 229.178 611.043 229.065 609.718 229.025C607.499 228.958 605.027 229.14 603.512 230.464C601.629 232.11 602.117 234.87 603.755 236.681C605.393 238.493 607.885 239.628 610.179 240.879C611.927 241.832 613.694 242.946 614.769 244.451C614.906 244.65 615.02 244.864 615.109 245.089H629.021C632.078 243.835 634.968 242.207 637.624 240.242Z" fill="#44797B"/>
<path d="M870.589 240.242C872.223 239.003 873.757 237.541 874.228 235.761C874.47 234.819 874.342 233.82 873.869 232.971C873.395 232.121 872.613 231.486 871.685 231.197C869.349 230.469 866.854 231.789 864.961 233.123C863.069 234.457 860.901 235.979 858.424 235.697C860.99 233.844 862.21 230.833 861.502 228.097C861.381 227.508 861.083 226.969 860.646 226.554C859.35 225.423 857 225.909 855.447 226.8C850.511 229.633 849.133 235.104 849.106 240.028C848.608 238.252 849.028 236.401 849.015 234.579C849.003 232.757 848.391 230.737 846.507 229.759C845.389 229.178 844.007 229.065 842.682 229.025C840.463 228.958 837.991 229.14 836.476 230.464C834.593 232.11 835.081 234.87 836.719 236.681C838.357 238.493 840.849 239.628 843.143 240.879C844.891 241.832 846.659 242.946 847.733 244.451C847.87 244.65 847.984 244.864 848.073 245.089H861.985C865.042 243.835 867.932 242.207 870.589 240.242Z" fill="#44797B"/>
<path d="M795.741 213.158C807.908 235.722 833.731 245.408 833.731 245.408C833.731 245.408 839.827 218.511 827.66 195.947C815.493 173.383 789.67 163.696 789.67 163.696C789.67 163.696 783.574 190.594 795.741 213.158Z" fill="#304D63"/>
<path d="M804.104 205.734C826.07 218.95 834.53 245.2 834.53 245.2C834.53 245.2 807.376 250.023 785.409 236.808C763.443 223.592 754.983 197.342 754.983 197.342C754.983 197.342 782.138 192.519 804.104 205.734Z" fill="#44797B"/>
<path d="M724.986 213.158C737.153 235.722 762.976 245.408 762.976 245.408C762.976 245.408 769.072 218.511 756.905 195.947C744.738 173.383 718.915 163.696 718.915 163.696C718.915 163.696 712.819 190.594 724.986 213.158Z" fill="#304D63"/>
<path d="M733.349 205.734C755.316 218.95 763.775 245.2 763.775 245.2C763.775 245.2 736.621 250.023 714.654 236.808C692.688 223.592 684.228 197.342 684.228 197.342C684.228 197.342 711.383 192.519 733.349 205.734Z" fill="#44797B"/>
<path d="M652.634 136.902C631.586 168.413 636.81 208.846 636.81 208.846C636.81 208.846 676.161 198.188 697.21 166.677C718.258 135.165 713.034 94.733 713.034 94.733C713.034 94.733 673.683 105.391 652.634 136.902Z" fill="#304D63"/>
<path d="M668.119 142.686C666.065 180.525 637.636 209.746 637.636 209.746C637.636 209.746 612.538 177.618 614.593 139.779C616.648 101.94 645.077 72.719 645.077 72.719C645.077 72.719 670.174 104.847 668.119 142.686Z" fill="#7CBF9A"/>
<path d="M952.28 185.619C953.072 228.53 927.839 243.982 896.374 244.563C895.643 244.576 894.915 244.582 894.191 244.579C892.732 244.574 891.288 244.534 889.858 244.459C861.422 242.973 839.066 227.63 838.329 187.723C837.567 146.424 889.387 93.3315 893.275 89.4047C893.278 89.4047 893.278 89.4047 893.281 89.4011C893.429 89.2515 893.505 89.1766 893.505 89.1766C893.505 89.1766 951.488 142.712 952.28 185.619Z" fill="#44797B"/>
<path d="M894.179 238.037L914.479 208.537L894.185 241.235L894.191 244.579C892.732 244.574 891.288 244.534 889.858 244.459L891.31 201.489L891.287 201.158L891.324 201.094L891.463 197.034L869.921 165.028L891.469 193.994L891.538 194.853L892.635 162.387L874.088 129.246L892.75 156.683L893.274 89.4047L893.277 89.1808L893.281 89.4011L893.967 142.438L911.423 121.084L893.974 147.006L894.038 176.057L910.193 147.878L894.051 180.328L894.086 196.481L917.562 157.24L894.096 202.117L894.179 238.037Z" fill="#304D63"/>
<path d="M863.837 185.619C864.629 228.53 839.395 243.982 807.93 244.563C807.199 244.576 806.472 244.582 805.747 244.579C804.289 244.574 802.844 244.534 801.414 244.459C772.979 242.973 750.622 227.63 749.886 187.723C749.123 146.424 800.944 93.3315 804.831 89.4047C804.834 89.4047 804.834 89.4047 804.838 89.4011C804.985 89.2515 805.061 89.1766 805.061 89.1766C805.061 89.1766 863.044 142.712 863.837 185.619Z" fill="#44797B"/>
<path d="M805.735 238.037L826.036 208.537L805.742 241.235L805.748 244.579C804.289 244.574 802.844 244.534 801.415 244.459L802.867 201.489L802.844 201.158L802.881 201.094L803.019 197.034L781.478 165.028L803.026 193.994L803.094 194.853L804.192 162.387L785.645 129.246L804.307 156.683L804.831 89.4047L804.834 89.1808L804.838 89.4011L805.523 142.438L822.98 121.084L805.531 147.006L805.595 176.057L821.75 147.878L805.607 180.328L805.643 196.481L829.119 157.24L805.653 202.117L805.735 238.037Z" fill="#304D63"/>
<path d="M969.593 186.372C970.385 229.283 945.151 244.735 913.686 245.315C912.955 245.329 912.228 245.334 911.503 245.331C910.045 245.327 908.6 245.287 907.171 245.212C878.735 243.725 856.378 228.383 855.642 188.476C854.879 147.177 906.7 94.084 910.587 90.1573C910.59 90.1572 910.59 90.1572 910.594 90.1537C910.742 90.004 910.817 89.9292 910.817 89.9292C910.817 89.9292 968.801 143.464 969.593 186.372Z" fill="#304D63"/>
<path d="M911.491 238.79L931.792 209.29L911.498 241.987L911.503 245.331C910.045 245.327 908.6 245.287 907.17 245.212L908.623 202.242L908.599 201.91L908.637 201.847L908.775 197.786L887.234 165.781L908.782 194.746L908.85 195.606L909.947 163.14L891.401 129.998L910.062 157.436L910.587 90.1574L910.59 89.9335L910.594 90.1538L911.279 143.19L928.736 121.837L911.287 147.759L911.351 176.809L927.506 148.631L911.363 181.08L911.399 197.234L934.874 157.992L911.409 202.869L911.491 238.79Z" fill="#7CBF9A"/>
<path d="M654.959 185.619C655.752 228.53 630.518 243.982 599.053 244.563C598.322 244.576 597.594 244.582 596.87 244.579C595.411 244.574 593.967 244.534 592.537 244.459C564.102 242.973 541.745 227.63 541.008 187.723C540.246 146.424 592.066 93.3315 595.954 89.4047C595.957 89.4047 595.957 89.4047 595.961 89.4011C596.108 89.2515 596.184 89.1766 596.184 89.1766C596.184 89.1766 654.167 142.712 654.959 185.619Z" fill="#44797B"/>
<path d="M596.858 238.037L617.158 208.537L596.864 241.235L596.87 244.579C595.411 244.574 593.967 244.534 592.537 244.459L593.99 201.489L593.966 201.158L594.003 201.094L594.142 197.034L572.601 165.028L594.149 193.994L594.217 194.853L595.314 162.387L576.767 129.246L595.429 156.683L595.954 89.4047L595.956 89.1808L595.961 89.4011L596.646 142.438L614.103 121.084L596.653 147.006L596.717 176.057L612.873 147.878L596.73 180.328L596.766 196.481L620.241 157.24L596.775 202.117L596.858 238.037Z" fill="#304D63"/>
<path d="M886.535 251.106C872.992 248.812 859.969 246.841 847.463 245.195L852.407 235.61C850.74 235.031 843.416 240.52 843.416 240.52L849.904 212.697C841.52 213.708 837.257 242.117 837.257 242.117L827.89 232.512L832.425 243.311C794.152 238.803 761.098 237.132 733.296 237.072L737.527 228.868C735.86 228.289 728.536 233.778 728.536 233.778L735.024 205.956C726.64 206.967 722.377 235.375 722.377 235.375L713.01 225.771L717.813 237.208C694.506 237.674 675.499 239.265 660.828 241.079C665.108 228.299 679.646 216.144 679.646 216.144C668.543 219.446 662.719 224.98 659.676 230.138C659.404 203.769 663.788 177.559 672.628 152.714C672.628 152.714 649.679 202.653 652.607 236.175L652.957 242.127C633.501 244.913 623.72 247.812 623.72 247.812L886.535 251.106Z" fill="#304D63"/>
<path d="M930.568 248.848C917.026 246.554 904.002 244.583 891.497 242.937L896.441 233.352C894.774 232.773 887.45 238.262 887.45 238.262L893.938 210.439C885.554 211.45 881.291 239.859 881.291 239.859L871.924 230.254L876.459 241.053C838.186 236.545 805.132 234.874 777.329 234.814L781.561 226.61C779.894 226.031 772.57 231.52 772.57 231.52L779.057 203.698C770.673 204.709 766.411 233.117 766.411 233.117L757.044 223.513L761.847 234.95C738.539 235.416 719.532 237.007 704.862 238.82C709.141 226.041 723.68 213.886 723.68 213.886C712.577 217.188 706.753 222.722 703.709 227.88C703.438 201.511 707.822 175.301 716.662 150.456C716.662 150.456 693.712 200.395 696.641 233.917L696.991 239.869C677.535 242.655 667.754 245.554 667.754 245.554L930.568 248.848Z" fill="#304D63"/>
<path d="M981 252.612C967.458 250.317 954.434 248.347 941.929 246.701L946.872 237.116C945.205 236.537 937.882 242.026 937.882 242.026L944.369 214.203C935.985 215.214 931.723 243.623 931.723 243.623L922.356 234.018L926.89 244.816C888.617 240.309 855.563 238.638 827.761 238.577L831.992 230.374C830.325 229.795 823.001 235.284 823.001 235.284L829.489 207.461C821.105 208.472 816.842 236.881 816.842 236.881L807.475 227.276L812.279 238.713C788.971 239.179 769.964 240.77 755.293 242.584C759.573 229.804 774.111 217.649 774.111 217.649C763.008 220.952 757.184 226.485 754.141 231.644C753.869 205.275 758.254 179.064 767.093 154.219C767.093 154.219 744.144 204.159 747.072 237.681L747.423 243.633C727.967 246.419 718.185 249.317 718.185 249.317L981 252.612Z" fill="#304D63"/>
<path d="M814.275 248.848C800.732 246.554 787.709 244.583 775.203 242.937L780.147 233.352C778.48 232.773 771.156 238.262 771.156 238.262L777.644 210.439C769.26 211.45 764.997 239.859 764.997 239.859L755.63 230.254L760.165 241.053C721.892 236.545 688.838 234.874 661.036 234.814L665.267 226.61C663.6 226.031 656.276 231.52 656.276 231.52L662.764 203.698C654.38 204.709 650.117 233.117 650.117 233.117L640.75 223.513L645.553 234.95C622.246 235.416 603.239 237.007 588.568 238.82C592.848 226.041 607.386 213.886 607.386 213.886C596.283 217.188 590.459 222.722 587.416 227.88C587.144 201.511 591.528 175.301 600.368 150.456C600.368 150.456 577.419 200.395 580.347 233.917L580.697 239.869C561.241 242.655 551.46 245.554 551.46 245.554L814.275 248.848Z" fill="#304D63"/>
<path d="M26.7182 69.4364C37.056 69.4364 45.4364 61.056 45.4364 50.7182C45.4364 40.3804 37.056 32 26.7182 32C16.3804 32 8 40.3804 8 50.7182C8 61.056 16.3804 69.4364 26.7182 69.4364Z" fill="#FFC600"/>
</svg>
