<svg width="301" height="217" viewBox="0 0 301 217" fill="none" xmlns="http://www.w3.org/2000/svg">
<path d="M179.436 245.584C168.132 233.508 152.209 226.363 136.223 220.235C120.237 214.106 103.657 208.654 89.8962 199.169C81.0453 193.074 73.0703 184.282 73.6457 172.836C74.1966 161.821 82.4493 151.415 90.7616 142.532C97.0169 135.848 103.92 129.193 112.272 125.877C118.072 123.58 124.157 123.073 130.063 121.284C150.609 115.058 165.228 94.7408 173.918 75.2295C177.999 66.0748 181.296 56.6734 186.454 47.905C191.613 39.1366 199.001 30.8351 208.369 26.7349C217.649 22.6754 227.695 23.2333 236.459 25.6372C254.254 30.5251 268.138 42.2915 280.765 54.5401C308.684 81.6791 332.653 112.442 356.553 143.124C365.396 154.481 374.278 165.889 381.033 178.709C384.785 185.828 387.925 193.803 386.527 202.468C384.749 213.469 374.974 224.114 363.735 227.285C344.886 232.601 326.956 218.304 308.695 226.331C298.646 230.751 291.785 240.786 287.286 250.57C277.633 271.553 274.209 295.913 256.515 312.051C244.363 323.136 226.724 327.783 212.924 323.539C198.456 319.097 187.808 304.949 192.011 289.054C196.344 272.682 189.414 256.246 179.436 245.584Z" fill="#FFC600"/>
<g opacity="0.1">
<path opacity="0.1" d="M207.918 195.782C210.936 195.782 213.383 192.579 213.383 188.629C213.383 184.679 210.936 181.476 207.918 181.476C204.899 181.476 202.452 184.679 202.452 188.629C202.452 192.579 204.899 195.782 207.918 195.782Z" fill="#304D63"/>
<path opacity="0.1" d="M212.243 158.029C213.008 156.7 213.405 155.191 213.393 153.657C213.393 149.699 210.946 146.505 207.928 146.505C204.909 146.505 202.465 149.706 202.465 153.657C202.449 155.19 202.843 156.699 203.605 158.029C202.857 159.364 202.465 160.869 202.465 162.4C202.465 163.93 202.857 165.435 203.605 166.77C202.858 168.106 202.465 169.611 202.465 171.142C202.465 172.673 202.858 174.178 203.605 175.514C202.843 176.844 202.449 178.353 202.465 179.885C202.465 183.844 204.912 187.038 207.928 187.038C210.944 187.038 213.393 183.837 213.393 179.885C213.408 178.353 213.015 176.844 212.252 175.514C213 174.178 213.393 172.673 213.393 171.142C213.393 169.611 213 168.106 212.252 166.77C213 165.435 213.393 163.93 213.393 162.4C213.393 160.869 213 159.364 212.252 158.029H212.243Z" fill="#304D63"/>
<path opacity="0.1" d="M207.918 152.069C210.936 152.069 213.383 148.867 213.383 144.916C213.383 140.966 210.936 137.764 207.918 137.764C204.899 137.764 202.452 140.966 202.452 144.916C202.452 148.867 204.899 152.069 207.918 152.069Z" fill="#304D63"/>
<path opacity="0.1" d="M207.918 143.325C210.936 143.325 213.383 140.123 213.383 136.173C213.383 132.222 210.936 129.02 207.918 129.02C204.899 129.02 202.452 132.222 202.452 136.173C202.452 140.123 204.899 143.325 207.918 143.325Z" fill="#304D63"/>
<path opacity="0.1" d="M228.374 76.3436C229.119 75.3927 229.799 74.3916 230.407 73.3474L216.057 70.9896L231.588 71.1059C233.076 67.8645 233.887 64.3536 233.972 60.7878C234.058 57.2221 233.414 53.6765 232.082 50.3678L211.245 61.1698L230.464 47.0525C228.663 43.9442 226.242 41.24 223.35 39.108C220.459 36.9761 217.16 35.4621 213.658 34.6603C210.156 33.8585 206.527 33.7861 202.996 34.4475C199.465 35.109 196.108 36.4902 193.134 38.5051C190.16 40.52 187.632 43.1255 185.709 46.1594C183.785 49.1933 182.506 52.5908 181.952 56.1402C181.399 59.6896 181.581 63.315 182.489 66.7908C183.397 70.2666 185.01 73.5183 187.229 76.3436C186.066 77.8228 185.066 79.4229 184.245 81.1162L202.883 90.7999L183.011 84.1197C181.612 88.2431 181.265 92.6501 181.999 96.9417C182.734 101.233 184.527 105.274 187.217 108.698C184.18 112.558 182.291 117.196 181.765 122.079C181.24 126.963 182.099 131.896 184.245 136.315C186.391 140.733 189.737 144.458 193.901 147.064C198.064 149.671 202.877 151.053 207.789 151.053C212.701 151.053 217.514 149.671 221.677 147.064C225.84 144.458 229.186 140.733 231.332 136.315C233.479 131.896 234.338 126.963 233.812 122.079C233.287 117.196 231.398 112.558 228.361 108.698C231.99 104.084 233.963 98.3852 233.963 92.5157C233.963 86.6462 231.99 80.947 228.361 76.3337L228.374 76.3436Z" fill="#E8F7F6"/>
<path opacity="0.1" d="M181.627 92.5267C181.618 98.3973 183.592 104.099 187.229 108.707C184.192 112.568 182.303 117.206 181.778 122.089C181.252 126.973 182.112 131.906 184.258 136.324C186.404 140.743 189.75 144.468 193.913 147.074C198.076 149.681 202.889 151.063 207.801 151.063C212.713 151.063 217.526 149.681 221.689 147.074C225.853 144.468 229.199 140.743 231.345 136.324C233.491 131.906 234.35 126.973 233.825 122.089C233.299 117.206 231.41 112.568 228.373 108.707C231.882 104.254 181.627 89.5875 181.627 92.5267Z" fill="#0A0806"/>
</g>
<g opacity="0.1">
<path opacity="0.1" d="M54.6309 188.132C56.4673 188.132 57.9561 186.182 57.9561 183.777C57.9561 181.372 56.4673 179.423 54.6309 179.423C52.7944 179.423 51.3057 181.372 51.3057 183.777C51.3057 186.182 52.7944 188.132 54.6309 188.132Z" fill="#304D63"/>
<path opacity="0.1" d="M57.2754 165.15C57.7395 164.34 57.9795 163.421 57.9706 162.487C57.9706 160.083 56.4861 158.133 54.6429 158.133C52.7997 158.133 51.3177 160.083 51.3177 162.487C51.308 163.421 51.5471 164.34 52.0104 165.15C51.5563 165.963 51.3179 166.879 51.3179 167.811C51.3179 168.742 51.5563 169.658 52.0104 170.471C51.5563 171.285 51.3179 172.201 51.3179 173.132C51.3179 174.064 51.5563 174.98 52.0104 175.793C51.5468 176.602 51.3076 177.521 51.3177 178.453C51.3177 180.86 52.8022 182.81 54.6429 182.81C56.4837 182.81 57.9706 180.86 57.9706 178.453C57.9799 177.52 57.7399 176.602 57.2754 175.793C57.7309 174.98 57.9701 174.064 57.9701 173.132C57.9701 172.201 57.7309 171.284 57.2754 170.471C57.7309 169.659 57.9701 168.742 57.9701 167.811C57.9701 166.879 57.7309 165.962 57.2754 165.15Z" fill="#304D63"/>
<path opacity="0.1" d="M54.6309 161.52C56.4673 161.52 57.9561 159.57 57.9561 157.166C57.9561 154.761 56.4673 152.811 54.6309 152.811C52.7944 152.811 51.3057 154.761 51.3057 157.166C51.3057 159.57 52.7944 161.52 54.6309 161.52Z" fill="#304D63"/>
<path opacity="0.1" d="M54.6309 156.198C56.4673 156.198 57.9561 154.249 57.9561 151.844C57.9561 149.439 56.4673 147.489 54.6309 147.489C52.7944 147.489 51.3057 149.439 51.3057 151.844C51.3057 154.249 52.7944 156.198 54.6309 156.198Z" fill="#304D63"/>
<path opacity="0.1" d="M42.1833 115.42C41.7292 114.841 41.3159 114.232 40.9463 113.596L49.6873 112.161L40.2337 112.233C39.3287 110.261 38.8349 108.125 38.7826 105.956C38.7303 103.786 39.1205 101.629 39.9294 99.6152L52.6043 106.199L40.9092 97.5889C42.0061 95.6979 43.4804 94.0529 45.2404 92.7563C47.0003 91.4596 49.0083 90.5389 51.1393 90.0516C53.2704 89.5642 55.4789 89.5206 57.6275 89.9234C59.7762 90.3263 61.8189 91.1669 63.6287 92.3931C65.4385 93.6193 66.9766 95.2048 68.1473 97.051C69.318 98.8971 70.0963 100.964 70.4338 103.124C70.7712 105.284 70.6606 107.49 70.1088 109.606C69.557 111.721 68.5759 113.7 67.2264 115.42C67.9343 116.319 68.5432 117.292 69.0424 118.322L57.6961 124.22L69.7945 120.16C70.6442 122.671 70.8543 125.355 70.4059 127.967C69.9575 130.58 68.8647 133.04 67.2264 135.124C69.0748 137.474 70.2246 140.297 70.5444 143.27C70.8641 146.243 70.3408 149.246 69.0344 151.935C67.728 154.625 65.6911 156.893 63.1566 158.479C60.6222 160.066 57.6925 160.907 54.7024 160.907C51.7123 160.907 48.7826 160.066 46.2481 158.479C43.7137 156.893 41.6768 154.625 40.3704 151.935C39.0639 149.246 38.5407 146.243 38.8604 143.27C39.1801 140.297 40.3299 137.474 42.1784 135.124C39.9696 132.315 38.7688 128.845 38.7688 125.272C38.7688 121.698 39.9696 118.229 42.1784 115.42H42.1833Z" fill="#E8F7F6"/>
<path opacity="0.1" d="M70.6357 125.272C70.641 128.846 69.4397 132.317 67.2264 135.124C69.0748 137.474 70.2246 140.297 70.5444 143.27C70.8641 146.243 70.3408 149.246 69.0344 151.935C67.728 154.625 65.6911 156.893 63.1566 158.479C60.6222 160.066 57.6925 160.907 54.7024 160.907C51.7123 160.907 48.7826 160.066 46.2481 158.479C43.7137 156.893 41.6768 154.625 40.3704 151.935C39.0639 149.246 38.5407 146.243 38.8604 143.27C39.1801 140.297 40.3299 137.474 42.1784 135.124C40.0432 132.424 70.6357 123.483 70.6357 125.272Z" fill="#0A0806"/>
</g>
<g opacity="0.1">
<path opacity="0.1" d="M129.597 191.922C132.055 191.922 134.048 189.313 134.048 186.095C134.048 182.878 132.055 180.269 129.597 180.269C127.139 180.269 125.146 182.878 125.146 186.095C125.146 189.313 127.139 191.922 129.597 191.922Z" fill="#304D63"/>
<path opacity="0.1" d="M133.12 161.166C133.74 160.082 134.06 158.852 134.047 157.603C134.047 154.387 132.068 151.777 129.594 151.777C127.12 151.777 125.141 154.387 125.141 157.603C125.127 158.853 125.449 160.083 126.071 161.166C125.461 162.254 125.141 163.48 125.141 164.728C125.141 165.975 125.461 167.201 126.071 168.289C125.461 169.377 125.141 170.603 125.141 171.849C125.141 173.096 125.461 174.322 126.071 175.41C125.449 176.493 125.127 177.723 125.141 178.972C125.141 182.189 127.135 184.799 129.594 184.799C132.053 184.799 134.047 182.189 134.047 178.972C134.06 177.724 133.74 176.494 133.12 175.41C133.728 174.322 134.048 173.096 134.048 171.849C134.048 170.603 133.728 169.377 133.12 168.289C133.728 167.201 134.047 165.975 134.047 164.728C134.047 163.481 133.728 162.255 133.12 161.166Z" fill="#304D63"/>
<path opacity="0.1" d="M129.597 156.309C132.055 156.309 134.048 153.701 134.048 150.483C134.048 147.265 132.055 144.656 129.597 144.656C127.139 144.656 125.146 147.265 125.146 150.483C125.146 153.701 127.139 156.309 129.597 156.309Z" fill="#304D63"/>
<path opacity="0.1" d="M129.597 149.187C132.055 149.187 134.048 146.578 134.048 143.36C134.048 140.142 132.055 137.533 129.597 137.533C127.139 137.533 125.146 140.142 125.146 143.36C125.146 146.578 127.139 149.187 129.597 149.187Z" fill="#304D63"/>
<path opacity="0.1" d="M112.943 94.6199C112.335 93.8461 111.781 93.031 111.286 92.1804L122.981 90.2605L110.333 90.3545C109.12 87.7141 108.457 84.8538 108.387 81.9487C108.317 79.0436 108.84 76.1547 109.925 73.4587L126.897 82.2616L111.244 70.757C112.706 68.2155 114.677 66.0029 117.033 64.2575C119.389 62.5121 122.08 61.2713 124.938 60.6128C127.795 59.9543 130.757 59.8922 133.64 60.4304C136.522 60.9685 139.263 62.0953 141.69 63.7404C144.117 65.3855 146.179 67.5135 147.747 69.9915C149.315 72.4694 150.355 75.2441 150.802 78.1421C151.249 81.0401 151.093 83.9991 150.345 86.8343C149.597 89.6695 148.272 92.3199 146.453 94.6199C147.4 95.8254 148.214 97.1293 148.882 98.5092L133.701 106.397L149.889 100.954C151.026 104.314 151.308 107.904 150.708 111.401C150.108 114.897 148.645 118.188 146.453 120.977C148.926 124.122 150.465 127.899 150.893 131.878C151.321 135.856 150.62 139.875 148.872 143.474C147.124 147.073 144.398 150.108 141.007 152.231C137.615 154.354 133.694 155.48 129.693 155.48C125.692 155.48 121.771 154.354 118.38 152.231C114.988 150.108 112.262 147.073 110.514 143.474C108.766 139.875 108.066 135.856 108.493 131.878C108.921 127.899 110.46 124.122 112.933 120.977C109.978 117.218 108.371 112.575 108.371 107.793C108.371 103.012 109.978 98.3688 112.933 94.61L112.943 94.6199Z" fill="#E8F7F6"/>
<path opacity="0.1" d="M151.015 107.804C151.022 112.587 149.415 117.232 146.453 120.987C148.926 124.132 150.465 127.909 150.893 131.888C151.321 135.866 150.62 139.885 148.872 143.484C147.124 147.083 144.398 150.117 141.007 152.241C137.615 154.364 133.694 155.49 129.693 155.49C125.692 155.49 121.771 154.364 118.38 152.241C114.988 150.117 112.262 147.083 110.514 143.484C108.766 139.885 108.066 135.866 108.493 131.888C108.921 127.909 110.46 124.132 112.933 120.987C110.076 117.359 151.015 105.409 151.015 107.804Z" fill="#0A0806"/>
</g>
<path d="M282.792 191.398C282.792 193.097 270.367 194.651 249.824 195.851C246.088 196.066 242.085 196.272 237.84 196.465C234.171 196.63 230.326 196.785 226.305 196.932C222.409 197.071 218.364 197.199 214.17 197.318C200.923 197.697 186.279 197.969 170.722 198.105C166.946 198.14 163.12 198.166 159.244 198.184C155.206 198.202 151.122 198.211 146.992 198.209C71.9919 198.209 11.1953 195.163 11.1953 191.405C11.1953 187.647 71.9919 184.601 146.992 184.601C179.282 184.601 208.934 185.168 232.241 186.108L234.789 186.212H234.804C264.162 187.456 282.792 189.329 282.792 191.398Z" fill="#304D63"/>
<path opacity="0.15" d="M282.792 191.398C282.792 193.097 270.367 194.651 249.824 195.851C246.088 196.066 242.085 196.272 237.84 196.465C234.171 196.63 230.326 196.785 226.305 196.932C222.409 197.071 218.364 197.199 214.17 197.318C200.923 197.697 186.279 197.969 170.722 198.105C166.946 198.14 163.12 198.166 159.244 198.184C155.206 198.202 151.122 198.211 146.992 198.209C71.9919 198.209 11.1953 195.163 11.1953 191.405C11.1953 187.647 71.9919 184.601 146.992 184.601C179.282 184.601 208.934 185.168 232.241 186.108L234.789 186.212H234.804C264.162 187.456 282.792 189.329 282.792 191.398Z" fill="#0A0806"/>
<path d="M271.596 190.2C271.596 191.62 259.171 192.922 238.629 193.911C234.895 194.092 230.89 194.263 226.647 194.423C222.977 194.562 219.132 194.692 215.112 194.814C211.216 194.93 207.171 195.038 202.977 195.138C189.728 195.455 175.084 195.683 159.526 195.797C155.754 195.825 151.928 195.846 148.049 195.861C144.011 195.876 139.928 195.883 135.799 195.883C60.799 195.883 0 193.337 0 190.193C0 187.048 60.799 184.502 135.799 184.502C168.087 184.502 197.739 184.975 221.045 185.762L223.594 185.848H223.611C252.979 186.905 271.596 188.461 271.596 190.2Z" fill="#304D63"/>
<path d="M35.0729 138.508L31.6636 128.07L113.31 127.177L116.655 137.511L35.0729 138.508Z" fill="#304D63"/>
<path opacity="0.15" d="M35.0729 138.508L31.6636 128.07L113.31 127.177L116.655 137.511L35.0729 138.508Z" fill="#0A0806"/>
<path d="M29.63 138.508L26.2207 128.07L107.867 127.177L111.212 137.511L29.63 138.508Z" fill="#304D63"/>
<path d="M169.01 122.469C160.568 122.469 153.915 119.118 149.051 112.416C144.187 105.715 141.755 97.5963 141.755 88.061C141.755 78.4614 144.107 70.3595 148.811 63.7553C153.515 57.151 160.151 53.8522 168.718 53.8588C177.803 53.8588 184.648 57.3382 189.253 64.2971C193.858 71.256 196.161 79.31 196.163 88.4593C196.163 97.5427 193.78 105.483 189.013 112.28C184.246 119.077 177.578 122.474 169.01 122.469ZM169.257 114.93C174.811 114.93 178.961 112.509 181.709 107.668C184.457 102.827 185.831 96.7246 185.831 89.3599C185.831 81.1623 184.425 74.45 181.613 69.2231C178.8 63.9961 174.487 61.3818 168.673 61.3801C157.622 61.3801 152.096 70.1583 152.096 87.7146C152.096 105.86 157.815 114.932 169.252 114.93H169.257ZM172.038 187.122H159.828L239.762 55.2022H251.742L172.038 187.122ZM242.753 188.476C234.184 188.476 227.504 185.094 222.713 178.332C217.921 171.569 215.516 163.45 215.496 153.974C215.496 144.439 217.831 136.369 222.502 129.765C227.174 123.161 233.826 119.862 242.459 119.868C251.479 119.868 258.277 123.348 262.85 130.307C267.424 137.265 269.712 145.319 269.714 154.466C269.714 163.49 267.346 171.416 262.61 178.243C257.875 185.07 251.254 188.481 242.748 188.476H242.753ZM242.897 180.744C248.424 180.744 252.552 178.365 255.282 173.606C258.012 168.848 259.377 162.77 259.377 155.372C259.377 147.455 257.995 140.815 255.233 135.453C252.47 130.091 248.166 127.405 242.32 127.397C231.205 127.397 225.647 136.175 225.647 153.732C225.644 171.742 231.392 180.746 242.892 180.744H242.897Z" fill="#304D63"/>
<path d="M169.01 122.469C160.568 122.469 153.915 119.118 149.051 112.416C144.187 105.715 141.755 97.5963 141.755 88.061C141.755 78.4614 144.107 70.3595 148.811 63.7553C153.515 57.151 160.151 53.8522 168.718 53.8588C177.803 53.8588 184.648 57.3382 189.253 64.2971C193.858 71.256 196.161 79.31 196.163 88.4593C196.163 97.5427 193.78 105.483 189.013 112.28C184.246 119.077 177.578 122.474 169.01 122.469ZM169.257 114.93C174.811 114.93 178.961 112.509 181.709 107.668C184.457 102.827 185.831 96.7246 185.831 89.3599C185.831 81.1623 184.425 74.45 181.613 69.2231C178.8 63.9961 174.487 61.3818 168.673 61.3801C157.622 61.3801 152.096 70.1583 152.096 87.7146C152.096 105.86 157.815 114.932 169.252 114.93H169.257ZM172.038 187.122H159.828L239.762 55.2022H251.742L172.038 187.122ZM242.753 188.476C234.184 188.476 227.504 185.094 222.713 178.332C217.921 171.569 215.516 163.45 215.496 153.974C215.496 144.439 217.831 136.369 222.502 129.765C227.174 123.161 233.826 119.862 242.459 119.868C251.479 119.868 258.277 123.348 262.85 130.307C267.424 137.265 269.712 145.319 269.714 154.466C269.714 163.49 267.346 171.416 262.61 178.243C257.875 185.07 251.254 188.481 242.748 188.476H242.753ZM242.897 180.744C248.424 180.744 252.552 178.365 255.282 173.606C258.012 168.848 259.377 162.77 259.377 155.372C259.377 147.455 257.995 140.815 255.233 135.453C252.47 130.091 248.166 127.405 242.32 127.397C231.205 127.397 225.647 136.175 225.647 153.732C225.644 171.742 231.392 180.746 242.892 180.744H242.897Z" fill="#304D63"/>
<path opacity="0.15" d="M169.01 122.469C160.568 122.469 153.915 119.118 149.051 112.416C144.187 105.715 141.755 97.5963 141.755 88.061C141.755 78.4614 144.107 70.3595 148.811 63.7553C153.515 57.151 160.151 53.8522 168.718 53.8588C177.803 53.8588 184.648 57.3382 189.253 64.2971C193.858 71.256 196.161 79.31 196.163 88.4593C196.163 97.5427 193.78 105.483 189.013 112.28C184.246 119.077 177.578 122.474 169.01 122.469ZM169.257 114.93C174.811 114.93 178.961 112.509 181.709 107.668C184.457 102.827 185.831 96.7246 185.831 89.3599C185.831 81.1623 184.425 74.45 181.613 69.2231C178.8 63.9961 174.487 61.3818 168.673 61.3801C157.622 61.3801 152.096 70.1583 152.096 87.7146C152.096 105.86 157.815 114.932 169.252 114.93H169.257ZM172.038 187.122H159.828L239.762 55.2022H251.742L172.038 187.122ZM242.753 188.476C234.184 188.476 227.504 185.094 222.713 178.332C217.921 171.569 215.516 163.45 215.496 153.974C215.496 144.439 217.831 136.369 222.502 129.765C227.174 123.161 233.826 119.862 242.459 119.868C251.479 119.868 258.277 123.348 262.85 130.307C267.424 137.265 269.712 145.319 269.714 154.466C269.714 163.49 267.346 171.416 262.61 178.243C257.875 185.07 251.254 188.481 242.748 188.476H242.753ZM242.897 180.744C248.424 180.744 252.552 178.365 255.282 173.606C258.012 168.848 259.377 162.77 259.377 155.372C259.377 147.455 257.995 140.815 255.233 135.453C252.47 130.091 248.166 127.405 242.32 127.397C231.205 127.397 225.647 136.175 225.647 153.732C225.644 171.742 231.392 180.746 242.892 180.744H242.897Z" fill="#0A0806"/>
<path d="M161.34 122.469C152.898 122.469 146.245 119.118 141.381 112.416C136.517 105.715 134.085 97.5963 134.085 88.061C134.085 78.4614 136.437 70.3595 141.141 63.7553C145.845 57.151 152.481 53.8522 161.048 53.8588C170.133 53.8588 176.978 57.3382 181.583 64.2971C186.188 71.256 188.491 79.31 188.493 88.4593C188.493 97.5427 186.11 105.483 181.343 112.28C176.576 119.077 169.908 122.474 161.34 122.469ZM161.587 114.93C167.141 114.93 171.291 112.509 174.039 107.668C176.787 102.827 178.161 96.7246 178.161 89.3599C178.161 81.1623 176.755 74.45 173.943 69.2231C171.131 63.9961 166.817 61.3818 161.003 61.3801C149.952 61.3801 144.427 70.1583 144.427 87.7146C144.427 105.86 150.145 114.932 161.582 114.93H161.587ZM164.368 187.122H152.158L232.092 55.2022H244.072L164.368 187.122ZM235.083 188.476C226.515 188.476 219.834 185.094 215.043 178.332C210.251 171.569 207.846 163.45 207.826 153.974C207.826 144.439 210.161 136.369 214.833 129.765C219.504 123.161 226.156 119.862 234.789 119.868C243.809 119.868 250.607 123.348 255.181 130.307C259.754 137.265 262.042 145.319 262.044 154.466C262.044 163.49 259.676 171.416 254.941 178.243C250.205 185.07 243.584 188.481 235.078 188.476H235.083ZM235.227 180.744C240.754 180.744 244.882 178.365 247.612 173.606C250.342 168.848 251.707 162.77 251.707 155.372C251.707 147.455 250.325 140.815 247.563 135.453C244.8 130.091 240.494 127.405 234.645 127.397C223.53 127.397 217.972 136.175 217.972 153.732C217.972 171.742 223.722 180.746 235.222 180.744H235.227Z" fill="#304D63"/>
<path d="M188.05 190.433C189.07 188.542 187.912 186.227 186.581 184.539C185.25 182.852 183.627 181.1 183.661 178.95C183.711 175.865 186.986 174.042 189.599 172.404C191.542 171.19 193.334 169.75 194.938 168.114C195.61 167.483 196.165 166.74 196.579 165.917C197.12 164.709 197.103 163.336 197.073 162.015C196.96 157.608 196.742 153.207 196.42 148.813" stroke="#304D63" stroke-width="0.989648" stroke-miterlimit="10"/>
<path d="M201.398 148.571C201.361 147.764 201.121 146.981 200.701 146.291C200.281 145.602 199.695 145.03 198.996 144.627L197.917 146.76L197.949 144.177C197.434 144.026 196.899 143.962 196.363 143.986C195.412 144.031 194.495 144.356 193.729 144.922C192.963 145.487 192.382 146.267 192.059 147.163C191.736 148.059 191.686 149.03 191.916 149.955C192.145 150.879 192.643 151.714 193.347 152.355C194.051 152.996 194.929 153.414 195.871 153.556C196.813 153.698 197.775 153.558 198.637 153.153C199.499 152.747 200.221 152.096 200.712 151.28C201.204 150.465 201.442 149.522 201.398 148.571Z" fill="#E8F7F6"/>
<path d="M192.813 181.165C192.308 182.146 191.48 182.924 190.47 183.368C189.459 183.812 188.326 183.895 187.262 183.603C186.197 183.311 185.265 182.662 184.622 181.765C183.979 180.867 183.664 179.776 183.731 178.674C183.797 177.572 184.24 176.527 184.985 175.712C185.731 174.898 186.734 174.365 187.826 174.203C188.917 174.04 190.032 174.258 190.982 174.82C191.933 175.381 192.661 176.253 193.045 177.288L190.037 179.735L193.352 178.963C193.351 179.729 193.166 180.484 192.813 181.165Z" fill="#E8F7F6"/>
<path d="M190.435 171.81C189.804 171.84 189.173 171.744 188.578 171.53C187.983 171.316 187.436 170.986 186.968 170.561C186.501 170.135 186.122 169.621 185.853 169.049C185.584 168.477 185.43 167.857 185.401 167.225C185.363 166.471 185.506 165.719 185.816 165.031C186.104 164.388 186.529 163.815 187.062 163.354C187.594 162.893 188.221 162.554 188.899 162.361L188.872 164.341L189.963 162.183C191.239 162.123 192.486 162.573 193.43 163.433C194.374 164.292 194.938 165.492 194.998 166.768C195.057 168.043 194.608 169.29 193.748 170.235C192.888 171.179 191.689 171.743 190.413 171.803L190.435 171.81Z" fill="#E8F7F6"/>
<path d="M202.123 164.034C201.484 164.076 200.843 163.991 200.237 163.782C199.632 163.574 199.074 163.247 198.596 162.82C198.118 162.394 197.73 161.876 197.455 161.298C197.18 160.72 197.022 160.092 196.992 159.452C196.962 158.813 197.06 158.173 197.28 157.572C197.501 156.97 197.838 156.419 198.274 155.949C198.71 155.48 199.235 155.102 199.819 154.838C200.402 154.574 201.033 154.429 201.673 154.412C202.573 154.368 203.467 154.58 204.251 155.023L203.4 157.354L205.152 155.674C206.092 156.531 206.653 157.726 206.713 158.996C206.735 159.442 206.693 159.889 206.589 160.323C206.35 161.343 205.784 162.257 204.978 162.927C204.172 163.596 203.17 163.985 202.123 164.034Z" fill="#E8F7F6"/>
<path opacity="0.1" d="M200.75 149.855C199.639 149.976 198.56 150.322 197.445 150.392C196.329 150.461 195.104 150.194 194.399 149.325C194.018 148.86 193.83 148.269 193.508 147.759C193.205 147.285 192.788 146.893 192.296 146.619C191.987 147.229 191.811 147.898 191.781 148.581C191.751 149.265 191.867 149.947 192.121 150.582C192.375 151.217 192.762 151.791 193.255 152.265C193.748 152.739 194.336 153.102 194.981 153.331C195.626 153.56 196.312 153.649 196.993 153.592C197.675 153.534 198.337 153.333 198.934 153C199.532 152.667 200.052 152.21 200.459 151.661C200.867 151.111 201.152 150.481 201.297 149.813C201.114 149.823 200.933 149.835 200.75 149.855Z" fill="#0A0806"/>
<path opacity="0.1" d="M202.123 164.034C201.293 164.072 200.468 163.894 199.727 163.519C198.986 163.144 198.354 162.584 197.894 161.893C197.433 161.202 197.159 160.404 197.097 159.575C197.036 158.747 197.189 157.917 197.543 157.166C197.925 157.424 198.253 157.753 198.511 158.135C198.855 158.653 199.062 159.251 199.466 159.726C200.208 160.61 201.497 160.897 202.657 160.845C203.818 160.793 204.941 160.461 206.099 160.35C206.26 160.335 206.423 160.325 206.594 160.32C206.355 161.341 205.788 162.257 204.982 162.927C204.175 163.597 203.171 163.986 202.123 164.034Z" fill="#0A0806"/>
<path opacity="0.1" d="M190.435 171.81C189.804 171.84 189.173 171.744 188.578 171.53C187.983 171.316 187.436 170.986 186.968 170.56C186.501 170.135 186.122 169.621 185.853 169.049C185.584 168.477 185.43 167.857 185.401 167.225C185.363 166.471 185.506 165.719 185.816 165.031C186.213 165.295 186.558 165.631 186.833 166.02C187.207 166.547 187.442 167.156 187.88 167.643C188.691 168.547 190.057 168.866 191.287 168.836C192.516 168.806 193.627 168.519 194.812 168.428C194.518 169.373 193.941 170.204 193.158 170.81C192.375 171.415 191.424 171.764 190.435 171.81Z" fill="#0A0806"/>
<path opacity="0.1" d="M192.813 181.165C192.253 182.266 191.291 183.109 190.126 183.521C188.961 183.932 187.683 183.88 186.555 183.376C185.427 182.871 184.537 181.952 184.068 180.809C183.599 179.666 183.587 178.387 184.035 177.236C184.431 177.496 184.787 177.814 185.091 178.178C185.549 178.737 185.851 179.371 186.38 179.89C187.37 180.855 188.953 181.254 190.369 181.291C191.185 181.297 192.001 181.255 192.813 181.165Z" fill="#0A0806"/>
<path d="M262.521 190.185C263.541 188.295 262.383 185.979 261.052 184.292C259.721 182.605 258.098 180.853 258.132 178.703C258.182 175.618 261.458 173.794 264.07 172.156C266.013 170.943 267.806 169.502 269.409 167.866C270.081 167.236 270.636 166.492 271.05 165.669C271.592 164.462 271.574 163.089 271.545 161.768C271.431 157.36 271.213 152.96 270.891 148.566" stroke="#304D63" stroke-width="0.989648" stroke-miterlimit="10"/>
<path d="M275.869 148.323C275.832 147.517 275.592 146.733 275.173 146.044C274.753 145.355 274.166 144.782 273.467 144.379L272.388 146.512L272.42 143.929C271.906 143.779 271.37 143.714 270.834 143.739C269.883 143.783 268.967 144.109 268.2 144.674C267.434 145.24 266.853 146.02 266.53 146.916C266.207 147.811 266.157 148.783 266.387 149.707C266.616 150.631 267.114 151.467 267.818 152.108C268.522 152.749 269.401 153.167 270.342 153.309C271.284 153.451 272.246 153.31 273.108 152.905C273.97 152.5 274.692 151.849 275.184 151.033C275.675 150.217 275.914 149.274 275.869 148.323Z" fill="#E8F7F6"/>
<path d="M267.284 180.917C266.779 181.899 265.952 182.677 264.941 183.121C263.93 183.565 262.797 183.648 261.733 183.356C260.668 183.064 259.736 182.415 259.093 181.518C258.45 180.62 258.136 179.529 258.202 178.427C258.268 177.325 258.711 176.279 259.456 175.465C260.202 174.651 261.205 174.118 262.297 173.955C263.389 173.793 264.503 174.011 265.454 174.572C266.404 175.134 267.132 176.005 267.517 177.04L264.508 179.487L267.823 178.715C267.822 179.482 267.637 180.237 267.284 180.917Z" fill="#E8F7F6"/>
<path d="M264.907 171.562C264.275 171.592 263.644 171.497 263.049 171.283C262.454 171.068 261.907 170.739 261.44 170.313C260.972 169.887 260.593 169.374 260.324 168.801C260.055 168.229 259.901 167.61 259.872 166.978C259.834 166.224 259.977 165.472 260.287 164.783C260.575 164.14 261 163.568 261.533 163.107C262.065 162.645 262.693 162.307 263.37 162.114L263.343 164.093L264.434 161.936H264.446C265.078 161.906 265.709 162.001 266.304 162.216C266.899 162.43 267.446 162.759 267.913 163.185C268.381 163.611 268.76 164.125 269.029 164.697C269.298 165.269 269.452 165.889 269.481 166.52C269.511 167.152 269.416 167.783 269.201 168.378C268.987 168.973 268.658 169.52 268.232 169.987C267.806 170.455 267.292 170.834 266.72 171.103C266.148 171.372 265.528 171.525 264.897 171.555L264.907 171.562Z" fill="#E8F7F6"/>
<path d="M276.594 163.786C275.955 163.829 275.314 163.743 274.708 163.535C274.102 163.327 273.544 163 273.067 162.573C272.589 162.146 272.201 161.629 271.926 161.051C271.65 160.472 271.493 159.845 271.463 159.205C271.433 158.565 271.531 157.926 271.751 157.324C271.971 156.723 272.309 156.171 272.745 155.702C273.181 155.233 273.706 154.855 274.29 154.591C274.873 154.327 275.503 154.182 276.144 154.164C277.044 154.121 277.937 154.333 278.722 154.776L277.871 157.106L279.622 155.426C280.563 156.283 281.124 157.478 281.184 158.749C281.205 159.195 281.164 159.641 281.06 160.075C280.82 161.095 280.255 162.009 279.449 162.679C278.643 163.349 277.641 163.738 276.594 163.786Z" fill="#E8F7F6"/>
<path opacity="0.1" d="M275.221 149.607C274.11 149.728 273.031 150.075 271.916 150.144C270.8 150.213 269.575 149.946 268.87 149.078C268.489 148.613 268.301 148.021 267.979 147.512C267.676 147.037 267.259 146.645 266.767 146.371C266.458 146.981 266.282 147.65 266.252 148.334C266.222 149.017 266.338 149.699 266.592 150.334C266.846 150.97 267.232 151.543 267.726 152.017C268.219 152.491 268.807 152.855 269.452 153.084C270.097 153.312 270.783 153.401 271.464 153.344C272.146 153.287 272.808 153.085 273.405 152.752C274.003 152.419 274.523 151.963 274.93 151.413C275.337 150.864 275.623 150.234 275.768 149.565C275.585 149.575 275.404 149.587 275.221 149.607Z" fill="#0A0806"/>
<path opacity="0.1" d="M276.594 163.786C275.764 163.824 274.939 163.647 274.198 163.272C273.457 162.897 272.826 162.337 272.365 161.646C271.904 160.955 271.63 160.156 271.568 159.328C271.507 158.5 271.661 157.67 272.015 156.918C272.396 157.177 272.724 157.506 272.982 157.888C273.326 158.405 273.534 159.004 273.937 159.479C274.679 160.362 275.968 160.649 277.129 160.597C278.289 160.545 279.412 160.214 280.57 160.102C280.731 160.088 280.894 160.078 281.065 160.073C280.826 161.094 280.26 162.009 279.453 162.68C278.646 163.35 277.642 163.739 276.594 163.786Z" fill="#0A0806"/>
<path opacity="0.1" d="M264.907 171.562C264.275 171.592 263.644 171.497 263.049 171.283C262.454 171.068 261.907 170.739 261.44 170.313C260.972 169.887 260.593 169.374 260.324 168.801C260.055 168.229 259.901 167.61 259.872 166.978C259.834 166.224 259.977 165.472 260.287 164.783C260.684 165.048 261.029 165.383 261.304 165.773C261.678 166.3 261.913 166.909 262.351 167.396C263.162 168.299 264.528 168.618 265.758 168.589C266.95 168.564 268.098 168.272 269.283 168.18C268.99 169.125 268.412 169.957 267.629 170.562C266.846 171.167 265.895 171.517 264.907 171.562Z" fill="#0A0806"/>
<path opacity="0.1" d="M267.284 180.917C266.724 182.018 265.762 182.862 264.597 183.273C263.432 183.685 262.154 183.633 261.026 183.128C259.899 182.624 259.008 181.705 258.539 180.562C258.07 179.419 258.058 178.14 258.506 176.988C258.902 177.249 259.258 177.567 259.562 177.931C260.02 178.49 260.322 179.123 260.851 179.643C261.841 180.608 263.425 181.006 264.84 181.043C265.656 181.05 266.473 181.008 267.284 180.917Z" fill="#0A0806"/>
<path d="M27.1977 186.969C26.1784 185.079 27.3363 182.763 28.6673 181.076C29.9984 179.388 31.6214 177.637 31.5868 175.487C31.5373 172.401 28.2616 170.578 25.6489 168.94C23.7058 167.726 21.9136 166.286 20.3098 164.65C19.6381 164.02 19.0829 163.276 18.6694 162.453C18.1276 161.246 18.1449 159.872 18.1746 158.551C18.2884 154.144 18.5061 149.743 18.8278 145.349" stroke="#304D63" stroke-width="0.989648" stroke-miterlimit="10"/>
<path d="M13.85 145.107C13.8872 144.301 14.1268 143.517 14.5466 142.828C14.9665 142.138 15.5531 141.566 16.2523 141.163L17.3311 143.296L17.2989 140.713C17.8135 140.562 18.3493 140.498 18.8848 140.522C19.836 140.567 20.7526 140.892 21.5187 141.458C22.2848 142.023 22.866 142.803 23.1889 143.699C23.5117 144.595 23.5616 145.567 23.3324 146.491C23.1031 147.415 22.605 148.25 21.9009 148.892C21.1968 149.533 20.3185 149.951 19.3769 150.092C18.4353 150.234 17.4728 150.094 16.611 149.689C15.7493 149.284 15.027 148.632 14.5356 147.817C14.0441 147.001 13.8055 146.058 13.85 145.107Z" fill="#E8F7F6"/>
<path d="M22.4351 177.701C22.9403 178.682 23.7676 179.46 24.7783 179.905C25.789 180.349 26.9217 180.432 27.9863 180.14C29.051 179.848 29.9829 179.199 30.6258 178.301C31.2687 177.404 31.5835 176.313 31.5174 175.211C31.4513 174.109 31.0083 173.063 30.2627 172.249C29.5172 171.435 28.5143 170.902 27.4224 170.739C26.3305 170.576 25.2159 170.794 24.2655 171.356C23.3151 171.918 22.5868 172.789 22.2025 173.824L25.2111 176.271L21.8958 175.499C21.8971 176.265 22.0821 177.02 22.4351 177.701Z" fill="#E8F7F6"/>
<path d="M24.8129 168.346C25.4445 168.376 26.0758 168.281 26.6707 168.066C27.2656 167.852 27.8124 167.522 28.2799 167.097C28.7474 166.671 29.1265 166.157 29.3956 165.585C29.6646 165.013 29.8182 164.393 29.8477 163.762C29.8852 163.007 29.7427 162.255 29.4321 161.567C29.1445 160.924 28.7194 160.352 28.1868 159.89C27.6542 159.429 27.027 159.09 26.3493 158.898L26.3766 160.877L25.2855 158.719C24.0099 158.66 22.7628 159.109 21.8186 159.969C20.8743 160.829 20.3103 162.028 20.2506 163.304C20.1909 164.58 20.6404 165.827 21.5002 166.771C22.3599 167.715 23.5596 168.279 24.8352 168.339L24.8129 168.346Z" fill="#E8F7F6"/>
<path d="M13.125 160.57C13.7641 160.613 14.4052 160.527 15.0109 160.319C15.6166 160.11 16.1746 159.783 16.6524 159.357C17.1302 158.93 17.5181 158.413 17.7935 157.834C18.0688 157.256 18.226 156.629 18.256 155.989C18.2859 155.349 18.188 154.71 17.9678 154.108C17.7477 153.507 17.4098 152.955 16.974 152.486C16.5381 152.016 16.0131 151.639 15.4295 151.375C14.8459 151.111 14.2155 150.966 13.5752 150.948C12.6796 150.907 11.7904 151.119 11.0096 151.559L11.8607 153.89L10.0966 152.217C9.15825 153.073 8.59691 154.265 8.53546 155.533C8.51354 155.978 8.5552 156.425 8.65916 156.859C8.8986 157.879 9.46414 158.793 10.27 159.463C11.0759 160.133 12.0782 160.521 13.125 160.57Z" fill="#E8F7F6"/>
<path opacity="0.1" d="M14.4982 146.391C15.6091 146.512 16.6878 146.858 17.8036 146.928C18.9194 146.997 20.1441 146.73 20.8493 145.861C21.2303 145.396 21.4183 144.805 21.7399 144.295C22.0437 143.821 22.4602 143.429 22.9523 143.155C23.2613 143.765 23.4368 144.434 23.467 145.118C23.4971 145.801 23.3813 146.483 23.1273 147.118C22.8732 147.753 22.4867 148.327 21.9936 148.801C21.5004 149.275 20.9119 149.639 20.2672 149.867C19.6225 150.096 18.9365 150.185 18.2548 150.128C17.5731 150.071 16.9114 149.869 16.3138 149.536C15.7163 149.203 15.1965 148.747 14.7891 148.197C14.3818 147.647 14.0962 147.017 13.9514 146.349C14.1345 146.359 14.3151 146.371 14.4982 146.391Z" fill="#0A0806"/>
<path opacity="0.1" d="M13.125 160.57C13.9547 160.608 14.7801 160.431 15.5211 160.055C16.2621 159.68 16.8936 159.12 17.3544 158.429C17.8151 157.738 18.0895 156.94 18.1508 156.112C18.2122 155.283 18.0585 154.453 17.7046 153.702C17.3232 153.96 16.9948 154.29 16.7372 154.672C16.3933 155.189 16.1855 155.788 15.7822 156.263C15.04 157.146 13.751 157.433 12.5906 157.381C11.4303 157.329 10.307 156.997 9.14912 156.886C8.9883 156.871 8.82501 156.861 8.6543 156.856C8.8935 157.878 9.45958 158.793 10.2665 159.463C11.0734 160.134 12.0771 160.522 13.125 160.57Z" fill="#0A0806"/>
<path opacity="0.1" d="M24.8128 168.346C25.4444 168.376 26.0757 168.281 26.6705 168.066C27.2654 167.852 27.8122 167.522 28.2798 167.097C28.7473 166.671 29.1264 166.157 29.3954 165.585C29.6644 165.013 29.8181 164.393 29.8476 163.762C29.885 163.007 29.7426 162.255 29.4319 161.567C29.035 161.831 28.6902 162.167 28.4151 162.557C28.0415 163.084 27.8064 163.692 27.3685 164.18C26.557 165.083 25.1913 165.402 23.9617 165.372C22.7691 165.347 21.6211 165.056 20.436 164.964C20.7298 165.909 21.3075 166.741 22.0906 167.346C22.8737 167.951 23.8242 168.3 24.8128 168.346Z" fill="#0A0806"/>
<path opacity="0.1" d="M22.4353 177.701C22.9956 178.802 23.9576 179.645 25.1224 180.057C26.2872 180.469 27.5657 180.417 28.6933 179.912C29.8209 179.407 30.7113 178.488 31.1804 177.346C31.6495 176.203 31.6613 174.923 31.2135 173.772C30.8171 174.033 30.4612 174.35 30.157 174.715C29.6993 175.274 29.3975 175.907 28.868 176.427C27.8784 177.392 26.2949 177.79 24.8797 177.827C24.0631 177.834 23.2469 177.792 22.4353 177.701Z" fill="#0A0806"/>
<path d="M166.632 163.784C166.636 163.184 166.5 162.592 166.235 162.054C165.969 161.516 165.582 161.047 165.103 160.686C165.043 158.418 163.425 156.564 161.345 156.277C161.184 155.507 160.823 154.792 160.298 154.205C159.774 153.617 159.104 153.179 158.356 152.932C158.174 152.875 157.988 152.831 157.799 152.801H157.745L157.648 152.789H157.567H157.485H157.379H157.314H157.139C155.016 152.789 153.249 154.412 152.886 156.552C151.512 156.235 150.253 156.646 150.028 157.515C149.97 157.745 149.983 157.987 150.065 158.21C150.298 158.883 151.055 159.526 152.081 159.845L152.215 159.885C152.282 159.905 152.349 159.919 152.415 159.934H152.46C152.083 160.739 152.029 161.658 152.31 162.501C152.592 163.345 153.187 164.047 153.972 164.464C153.941 164.481 153.911 164.5 153.883 164.521C153.756 164.638 153.655 164.779 153.586 164.937C153.338 165.372 153.145 165.837 153.012 166.32C152.913 166.733 152.895 167.166 152.764 167.574C152.539 168.317 151.96 168.967 151.893 169.756C151.864 170.108 151.921 170.521 151.671 170.761C151.609 170.815 151.542 170.863 151.473 170.907C151.298 171.027 151.149 171.182 151.037 171.362C150.964 171.511 150.867 171.647 150.748 171.763C150.523 171.934 150.152 171.916 150.04 172.179C149.929 172.441 150.216 172.75 150.149 173.037C150.095 173.27 149.84 173.376 149.654 173.532C149.447 173.757 149.302 174.033 149.234 174.331C148.864 174.402 148.483 174.391 148.119 174.298C147.754 174.206 147.414 174.033 147.123 173.794C147.223 174.049 147.296 174.314 147.341 174.583C147.047 174.269 146.562 174.178 146.203 174.014C145.74 173.802 145.327 173.496 144.991 173.114L145.639 173.025L142.769 168.67L141.923 168.497L142.682 169.954C142.62 169.984 142.566 170.028 142.523 170.082C142.48 170.136 142.45 170.199 142.435 170.266C142.394 170.428 142.384 170.596 142.405 170.761C142.445 171.152 142.511 171.539 142.601 171.921L142.821 172.946C142.839 173.042 142.863 173.137 142.893 173.23C142.606 173.22 142.319 173.252 142.041 173.327C141.473 173.116 140.88 172.976 140.277 172.908C140.145 172.885 140.009 172.892 139.879 172.928C139.732 172.996 139.604 173.1 139.508 173.23C139.013 173.802 138.574 174.42 138.197 175.076C136.655 177.758 134.597 180.098 132.669 182.523C131.338 183.065 129.997 183.579 128.654 184.089L125.767 185.19C125.19 185.41 124.591 185.635 123.978 185.596C123.701 185.578 123.364 185.536 123.208 185.771C123.133 185.888 123.073 186.015 123.033 186.148C122.931 186.148 122.83 186.172 122.736 186.177H122.719C122.536 185.722 122.377 185.235 122.026 184.903C121.955 184.914 121.888 184.942 121.831 184.985C121.774 185.029 121.729 185.085 121.699 185.15C121.63 185.279 121.588 185.42 121.509 185.539C121.353 185.766 121.083 185.878 120.89 186.071C120.697 186.264 120.576 186.566 120.368 186.754C120.077 186.965 119.736 187.097 119.379 187.137C118.843 187.263 118.326 187.46 117.842 187.721C117.664 187.831 117.473 187.919 117.273 187.983C117.054 188.025 116.829 188.033 116.608 188.006L115.079 187.894C114.942 187.876 114.804 187.882 114.67 187.912C114.513 187.969 114.379 188.078 114.289 188.219C114.2 188.361 114.16 188.529 114.175 188.696C114.194 188.862 114.247 189.022 114.329 189.166C114.412 189.311 114.524 189.437 114.658 189.537C114.923 189.732 115.217 189.884 115.529 189.99C116.857 190.504 118.227 190.906 119.623 191.19V191.499C120.591 191.986 121.66 192.241 122.743 192.241C122.823 192.247 122.903 192.233 122.976 192.199C123.076 192.124 123.146 192.015 123.171 191.892C123.496 190.922 123.701 189.916 123.782 188.896C123.974 188.884 124.161 188.836 124.334 188.755C124.861 188.612 125.383 188.973 125.925 189.032C126.593 189.104 127.214 188.716 127.845 188.476C127.937 188.441 128.028 188.411 128.12 188.382C127.94 188.614 127.727 188.82 127.489 188.993C127.226 189.181 126.932 189.319 126.675 189.515C126.461 189.71 126.232 189.888 125.989 190.047C125.819 190.126 125.642 190.194 125.462 190.25C125.201 190.345 124.952 190.47 124.72 190.623C124.512 190.746 124.336 190.915 124.206 191.118C124.14 191.213 124.099 191.323 124.088 191.437C124.077 191.552 124.095 191.668 124.141 191.773C124.187 191.879 124.26 191.971 124.352 192.041C124.443 192.111 124.552 192.156 124.666 192.172C124.872 192.209 125.083 192.215 125.292 192.189C126.118 192.127 126.942 192.051 127.766 191.977C128.115 191.953 128.461 191.904 128.802 191.828C128.983 191.784 129.161 191.724 129.342 191.677C129.65 191.596 129.966 191.549 130.284 191.536C130.377 191.529 130.47 191.538 130.559 191.563C130.752 191.625 130.888 191.811 131.084 191.86C131.21 191.873 131.338 191.855 131.457 191.808C132.06 191.677 132.676 191.612 133.293 191.613C133.563 191.598 133.879 191.546 134.006 191.296C134.159 190.987 133.902 190.641 133.8 190.306C133.748 190.094 133.72 189.877 133.716 189.658C133.669 189.119 133.514 188.595 133.261 188.117C133.126 187.894 133.013 187.659 132.922 187.414C134.104 186.965 135.235 186.391 136.297 185.702C136.905 185.324 137.534 184.915 138.221 184.777C139.023 184.616 139.849 184.829 140.639 185.056C142.519 185.6 144.368 186.245 146.178 186.989C147.044 187.342 147.91 187.719 148.796 187.978C149.055 188.328 149.368 188.633 149.724 188.884C150.317 189.267 151.042 189.379 151.74 189.433C152.683 189.519 153.629 189.555 154.575 189.54C155.298 189.527 156.043 189.478 156.688 189.149C156.846 189.068 156.995 188.97 157.131 188.857C157.626 188.946 158.133 188.681 158.522 188.342C159.036 187.905 159.406 187.323 159.585 186.672C159.813 185.779 159.637 184.737 160.187 184.007C160.333 183.812 160.523 183.654 160.667 183.456C160.843 183.191 160.93 182.876 160.914 182.558L160.939 182.52C161.063 182.233 161.146 181.93 161.186 181.62C161.251 181.377 161.334 181.14 161.434 180.91C161.713 180.219 161.955 179.515 162.161 178.799C162.304 178.325 162.416 177.841 162.497 177.352C162.557 176.961 162.592 176.568 162.624 176.174C162.663 175.559 162.783 174.951 162.98 174.366C163.468 172.97 163.744 171.509 163.799 170.031C163.799 170.001 163.799 169.974 163.799 169.944C164.517 169.866 165.18 169.522 165.658 168.98C166.137 168.438 166.395 167.738 166.384 167.015C166.385 166.58 166.294 166.149 166.117 165.751C166.458 165.152 166.636 164.473 166.632 163.784ZM152.641 180.784C152.683 180.935 152.732 181.085 152.782 181.236C152.554 181.011 152.329 180.779 152.099 180.556C152.19 180.583 152.282 180.613 152.371 180.645C152.466 180.683 152.557 180.729 152.643 180.784H152.641ZM151.532 180.041C150.181 178.869 148.618 177.958 147.235 176.825C147.977 177.199 148.719 177.632 149.461 178.047C150.326 178.542 151.2 179.015 152.084 179.467C151.939 179.687 151.754 179.879 151.54 180.031L151.532 180.041ZM152.109 177.087L152.173 177.02C152.173 177.186 152.173 177.342 152.173 177.483C152.052 177.444 151.926 177.404 151.809 177.359C151.916 177.272 152.017 177.178 152.111 177.077L152.109 177.087ZM140.216 180.264C140.772 179.635 141.256 178.945 141.658 178.208C142.192 179.146 143.063 179.821 143.806 180.605C142.613 180.437 141.418 180.306 140.218 180.254L140.216 180.264Z" fill="url(#paint0_linear)"/>
<path d="M142.146 168.858L142.999 169.032L145.906 173.327L144.622 173.5L142.146 168.858Z" fill="#72A5BD"/>
<path d="M121.474 186.291C121.704 187.052 121.988 187.796 122.323 188.518C123.286 188.316 124.234 188.046 125.158 187.709C124.979 187.43 124.782 187.163 124.569 186.91C124.342 186.657 124.07 186.448 123.768 186.293C123.473 186.165 123.11 186.261 122.795 186.279C122.355 186.295 121.915 186.299 121.474 186.291Z" fill="#FBBEBE"/>
<path d="M123.772 187.439C123.292 187.288 122.998 186.803 122.802 186.336C122.607 185.868 122.449 185.358 122.078 185.014C122.007 185.025 121.94 185.054 121.883 185.097C121.826 185.14 121.781 185.197 121.751 185.262C121.679 185.385 121.637 185.526 121.556 185.645C121.402 185.868 121.13 185.977 120.935 186.167C120.739 186.358 120.618 186.647 120.408 186.838C120.116 187.048 119.775 187.179 119.418 187.219C118.879 187.341 118.358 187.534 117.869 187.793C117.688 187.898 117.496 187.981 117.295 188.04C117.074 188.082 116.848 188.09 116.625 188.062L115.083 187.951C114.946 187.934 114.807 187.941 114.673 187.971C114.516 188.026 114.381 188.131 114.292 188.271C114.202 188.411 114.162 188.577 114.178 188.743C114.198 188.908 114.253 189.067 114.338 189.209C114.423 189.352 114.537 189.475 114.673 189.572C114.941 189.763 115.236 189.913 115.548 190.017C116.891 190.522 118.273 190.917 119.68 191.197V191.501C120.658 191.986 121.734 192.239 122.825 192.244C122.909 192.251 122.995 192.237 123.072 192.202C123.172 192.128 123.243 192.021 123.27 191.9C123.64 190.819 123.856 189.691 123.911 188.55C123.939 188.261 123.918 187.97 123.847 187.689C123.762 187.412 124.049 187.528 123.782 187.419" fill="#72A5BD"/>
<path d="M153.323 181.63C148.754 181.907 144.241 180.566 139.664 180.422C139.096 180.388 138.526 180.424 137.967 180.531C137.384 180.687 136.82 180.906 136.284 181.184C133.832 182.325 131.294 183.27 128.758 184.215L125.848 185.299C125.264 185.514 124.663 185.734 124.042 185.697C123.765 185.68 123.426 185.638 123.268 185.87C122.795 186.571 123.02 187.602 123.332 188.389C123.434 188.636 123.604 188.921 123.877 188.951C124.069 188.937 124.258 188.89 124.433 188.81C124.963 188.669 125.492 189.025 126.036 189.082C126.712 189.154 127.338 188.77 127.974 188.535C129.028 188.147 130.181 188.159 131.289 187.973C133.15 187.664 134.871 186.801 136.485 185.816C137.098 185.442 137.722 185.042 138.424 184.905C139.233 184.747 140.067 184.955 140.861 185.18C142.755 185.716 144.619 186.351 146.445 187.083C147.396 187.496 148.371 187.851 149.365 188.147C151.531 188.717 153.822 188.583 155.906 187.766C156.649 187.476 157.431 186.966 157.473 186.177C157.497 185.727 157.148 185.331 156.916 184.94C156.765 184.693 156.617 184.445 156.453 184.21C155.666 183.062 154.711 181.546 153.323 181.63Z" fill="#72A5BD"/>
<path opacity="0.1" d="M153.323 181.63C148.754 181.907 144.241 180.566 139.664 180.422C139.096 180.388 138.526 180.424 137.967 180.531C137.384 180.687 136.82 180.906 136.284 181.184C133.832 182.325 131.294 183.27 128.758 184.215L125.848 185.299C125.264 185.514 124.663 185.734 124.042 185.697C123.765 185.68 123.426 185.638 123.268 185.87C122.795 186.571 123.02 187.602 123.332 188.389C123.434 188.636 123.604 188.921 123.877 188.951C124.069 188.937 124.258 188.89 124.433 188.81C124.963 188.669 125.492 189.025 126.036 189.082C126.712 189.154 127.338 188.77 127.974 188.535C129.028 188.147 130.181 188.159 131.289 187.973C133.15 187.664 134.871 186.801 136.485 185.816C137.098 185.442 137.722 185.042 138.424 184.905C139.233 184.747 140.067 184.955 140.861 185.18C142.755 185.716 144.619 186.351 146.445 187.083C147.396 187.496 148.371 187.851 149.365 188.147C151.531 188.717 153.822 188.583 155.906 187.766C156.649 187.476 157.431 186.966 157.473 186.177C157.497 185.727 157.148 185.331 156.916 184.94C156.765 184.693 156.617 184.445 156.453 184.21C155.666 183.062 154.711 181.546 153.323 181.63Z" fill="#0A0806"/>
<path d="M130.245 186.514C130.961 186.756 131.682 186.981 132.407 187.187C132.815 186.516 133.578 186.051 133.751 185.287C133.761 185.253 133.761 185.218 133.751 185.185C133.732 185.153 133.703 185.127 133.669 185.111C133.147 184.823 132.569 184.654 131.974 184.616C131.504 184.586 131.291 185.076 131.079 185.42C131.004 185.559 130.435 186.578 130.245 186.514Z" fill="#FBBEBE"/>
<path d="M131.252 186.024C131.038 185.988 130.834 185.908 130.653 185.79C130.472 185.671 130.318 185.515 130.2 185.333C130.099 185.158 129.992 184.92 129.79 184.933C129.587 184.945 129.517 185.168 129.475 185.353C129.338 186.046 129.14 186.726 128.884 187.385C128.625 188.045 128.188 188.62 127.62 189.045C127.355 189.228 127.061 189.366 126.801 189.559C126.584 189.752 126.353 189.928 126.108 190.084C125.936 190.163 125.758 190.229 125.576 190.282C125.31 190.375 125.055 190.499 124.817 190.65C124.608 190.773 124.431 190.942 124.299 191.145C124.236 191.248 124.199 191.365 124.191 191.486C124.183 191.607 124.205 191.728 124.255 191.838C124.308 191.928 124.38 192.005 124.465 192.065C124.55 192.125 124.647 192.167 124.75 192.187C124.958 192.221 125.171 192.226 125.381 192.202C126.214 192.14 127.046 192.066 127.877 191.991C128.229 191.97 128.579 191.922 128.924 191.848C129.107 191.803 129.285 191.744 129.465 191.697C129.777 191.617 130.096 191.571 130.418 191.558C130.511 191.551 130.605 191.56 130.695 191.586C130.888 191.647 131.024 191.833 131.222 191.878C131.35 191.891 131.478 191.874 131.598 191.828C132.207 191.699 132.827 191.635 133.449 191.635C133.721 191.62 134.043 191.568 134.166 191.323C134.322 191.019 134.065 190.678 133.961 190.351C133.91 190.142 133.881 189.928 133.874 189.713C133.827 189.181 133.672 188.665 133.417 188.196C133.204 187.805 132.922 187.375 133.063 186.959C133.139 186.829 133.187 186.685 133.204 186.536C133.169 185.865 131.628 186.113 131.252 186.024Z" fill="#72A5BD"/>
<path d="M146.473 174.301C145.663 173.944 145.015 173.3 144.652 172.493C144.578 172.32 144.513 172.139 144.442 171.963C144.201 171.383 143.828 170.866 143.353 170.454C143.302 170.398 143.24 170.354 143.17 170.324C143.1 170.295 143.025 170.281 142.95 170.283C142.877 170.305 142.811 170.346 142.758 170.402C142.706 170.457 142.67 170.526 142.653 170.6C142.61 170.762 142.599 170.93 142.621 171.095C142.663 171.479 142.729 171.86 142.819 172.236L143.041 173.245C143.069 173.4 143.116 173.551 143.18 173.695C143.275 173.865 143.401 174.015 143.551 174.138C143.754 174.326 143.959 174.507 144.167 174.682C144.281 174.786 144.407 174.877 144.541 174.955C144.76 175.059 144.995 175.127 145.236 175.157C146.144 175.326 147.067 175.568 147.831 176.147C147.831 176.147 147.831 175.472 147.814 175.405C147.805 175.209 147.737 175.021 147.621 174.863C147.334 174.554 146.839 174.462 146.473 174.301Z" fill="#FBBEBE"/>
<path opacity="0.1" d="M146.473 174.301C145.663 173.944 145.015 173.3 144.652 172.493C144.578 172.32 144.513 172.139 144.442 171.963C144.201 171.383 143.828 170.866 143.353 170.454C143.302 170.398 143.24 170.354 143.17 170.324C143.1 170.295 143.025 170.281 142.95 170.283C142.877 170.305 142.811 170.346 142.758 170.402C142.706 170.457 142.67 170.526 142.653 170.6C142.61 170.762 142.599 170.93 142.621 171.095C142.663 171.479 142.729 171.86 142.819 172.236L143.041 173.245C143.069 173.4 143.116 173.551 143.18 173.695C143.275 173.865 143.401 174.015 143.551 174.138C143.754 174.326 143.959 174.507 144.167 174.682C144.281 174.786 144.407 174.877 144.541 174.955C144.76 175.059 144.995 175.127 145.236 175.157C146.144 175.326 147.067 175.568 147.831 176.147C147.831 176.147 147.831 175.472 147.814 175.405C147.805 175.209 147.737 175.021 147.621 174.863C147.334 174.554 146.839 174.462 146.473 174.301Z" fill="#0A0806"/>
<path d="M155.775 166.582C156.389 166.582 156.886 166.082 156.886 165.464C156.886 164.846 156.389 164.346 155.775 164.346C155.162 164.346 154.665 164.846 154.665 165.464C154.665 166.082 155.162 166.582 155.775 166.582Z" fill="#72A5BD"/>
<path d="M155.088 164.788C154.789 164.72 154.476 164.765 154.209 164.915C154.081 165.028 153.979 165.168 153.91 165.325C153.66 165.752 153.466 166.21 153.331 166.686C153.232 167.094 153.215 167.52 153.084 167.923C152.856 168.665 152.272 169.296 152.205 170.071C152.176 170.417 152.233 170.825 151.98 171.06C151.917 171.113 151.85 171.16 151.78 171.201C151.604 171.319 151.455 171.473 151.342 171.652C151.266 171.812 151.161 171.957 151.033 172.08C150.805 172.248 150.431 172.231 150.32 172.49C150.209 172.75 150.496 173.052 150.429 173.334C150.374 173.564 150.117 173.67 149.934 173.829C149.726 174.05 149.58 174.322 149.511 174.618C149.139 174.688 148.757 174.677 148.39 174.585C148.023 174.493 147.681 174.323 147.386 174.086C147.695 174.851 147.702 175.694 147.715 176.518C147.75 176.782 147.68 177.049 147.519 177.26C148.405 177.28 149.266 177.508 150.13 177.713C150.499 177.837 150.898 177.837 151.268 177.713C151.465 177.607 151.642 177.466 151.79 177.298C152.26 176.82 152.752 176.308 152.866 175.642C152.896 175.268 152.903 174.892 152.886 174.517C152.931 174.053 153.027 173.596 153.17 173.153C153.419 172.234 153.584 171.294 153.665 170.345C153.717 169.759 154.222 169.289 154.489 168.764C154.984 167.775 155.503 166.748 155.543 165.639C155.578 165.278 155.454 164.835 155.088 164.788Z" fill="#72A5BD"/>
<path opacity="0.1" d="M155.088 164.788C154.789 164.72 154.476 164.765 154.209 164.915C154.081 165.028 153.979 165.168 153.91 165.325C153.66 165.752 153.466 166.21 153.331 166.686C153.232 167.094 153.215 167.52 153.084 167.923C152.856 168.665 152.272 169.296 152.205 170.071C152.176 170.417 152.233 170.825 151.98 171.06C151.917 171.113 151.85 171.16 151.78 171.201C151.604 171.319 151.455 171.473 151.342 171.652C151.266 171.812 151.161 171.957 151.033 172.08C150.805 172.248 150.431 172.231 150.32 172.49C150.209 172.75 150.496 173.052 150.429 173.334C150.374 173.564 150.117 173.67 149.934 173.829C149.726 174.05 149.58 174.322 149.511 174.618C149.139 174.688 148.757 174.677 148.39 174.585C148.023 174.493 147.681 174.323 147.386 174.086C147.695 174.851 147.702 175.694 147.715 176.518C147.75 176.782 147.68 177.049 147.519 177.26C148.405 177.28 149.266 177.508 150.13 177.713C150.499 177.837 150.898 177.837 151.268 177.713C151.465 177.607 151.642 177.466 151.79 177.298C152.26 176.82 152.752 176.308 152.866 175.642C152.896 175.268 152.903 174.892 152.886 174.517C152.931 174.053 153.027 173.596 153.17 173.153C153.419 172.234 153.584 171.294 153.665 170.345C153.717 169.759 154.222 169.289 154.489 168.764C154.984 167.775 155.503 166.748 155.543 165.639C155.578 165.278 155.454 164.835 155.088 164.788Z" fill="#0A0806"/>
<path d="M154.048 182.592C153.096 182.139 152.401 181.296 151.631 180.573C150.162 179.193 148.365 178.218 146.822 176.924C145.8 176.068 144.884 175.071 143.759 174.353C142.769 173.722 141.646 173.328 140.478 173.203C140.344 173.18 140.208 173.186 140.077 173.223C139.93 173.289 139.801 173.391 139.704 173.52C139.205 174.082 138.761 174.691 138.38 175.338C136.423 178.658 133.644 181.452 131.341 184.542C131.267 184.615 131.223 184.712 131.218 184.816C131.213 184.92 131.247 185.021 131.314 185.101L131.781 186.019C132.044 186.531 132.464 187.13 133.018 187.028C133.273 186.955 133.5 186.81 133.674 186.61L135.777 184.599L137.982 182.491C139.273 181.254 140.587 179.992 141.43 178.413C142.089 179.554 143.256 180.301 144.058 181.348C144.362 181.744 144.61 182.181 144.882 182.602C145.32 183.278 145.815 183.911 146.309 184.542L148.84 187.771C149.16 188.23 149.556 188.632 150.011 188.958C150.609 189.337 151.339 189.438 152.044 189.5C152.994 189.587 153.948 189.621 154.902 189.604C155.629 189.591 156.387 189.544 157.03 189.22C157.673 188.896 158.22 188.231 158.185 187.506C158.146 187.126 158.022 186.76 157.821 186.434C156.928 184.777 155.746 183.391 154.048 182.592Z" fill="#72A5BD"/>
<path d="M156.458 167.097C156.93 167.097 157.312 166.712 157.312 166.238C157.312 165.764 156.93 165.38 156.458 165.38C155.987 165.38 155.605 165.764 155.605 166.238C155.605 166.712 155.987 167.097 156.458 167.097Z" fill="#E8E8F0"/>
<path d="M156.27 165.592C156.463 165.976 156.497 166.421 156.364 166.83C156.232 167.232 156.048 167.614 155.815 167.968C155.615 168.333 155.375 168.674 155.1 168.987C156.419 169.051 157.698 168.534 158.861 167.906C159.798 167.411 160.734 166.78 161.233 165.837C161.085 165.873 160.93 165.877 160.78 165.849C160.629 165.821 160.486 165.763 160.36 165.677C160.108 165.501 159.883 165.291 159.69 165.053L159.029 164.311C158.873 164.148 158.736 163.968 158.621 163.774C158.476 163.511 158.415 163.209 158.445 162.911C158.182 163.186 157.888 163.43 157.569 163.638C157.097 163.947 156.58 164.17 156.102 164.474C155.934 164.583 155.56 164.759 155.657 164.969C155.753 165.179 156.137 165.355 156.27 165.592Z" fill="#FBBEBE"/>
<path opacity="0.1" d="M156.27 165.592C156.463 165.976 156.497 166.421 156.364 166.83C156.232 167.232 156.048 167.614 155.815 167.968C155.615 168.333 155.375 168.674 155.1 168.987C156.419 169.051 157.698 168.534 158.861 167.906C159.798 167.411 160.734 166.78 161.233 165.837C161.085 165.873 160.93 165.877 160.78 165.849C160.629 165.821 160.486 165.763 160.36 165.677C160.108 165.501 159.883 165.291 159.69 165.053L159.029 164.311C158.873 164.148 158.736 163.968 158.621 163.774C158.476 163.511 158.415 163.209 158.445 162.911C158.182 163.186 157.888 163.43 157.569 163.638C157.097 163.947 156.58 164.17 156.102 164.474C155.934 164.583 155.56 164.759 155.657 164.969C155.753 165.179 156.137 165.355 156.27 165.592Z" fill="#0A0806"/>
<path d="M156.288 165.721C156.154 165.91 156.083 166.135 156.083 166.366C156.083 166.597 156.154 166.822 156.288 167.01C156.325 167.057 156.466 167.352 156.535 167.354C156.593 167.349 156.647 167.322 156.686 167.277C156.985 166.965 157.264 166.635 157.522 166.288C157.783 165.936 158.16 165.689 158.586 165.59C159.103 165.508 159.6 165.783 160.053 166.045C160.248 166.142 160.417 166.283 160.548 166.456C160.643 166.628 160.7 166.819 160.714 167.015C160.844 168.195 160.893 169.382 160.862 170.568C160.886 171.423 160.83 172.279 160.694 173.124C160.61 173.559 160.484 173.985 160.424 174.425C160.381 174.813 160.364 175.203 160.372 175.593V177.226C160.361 177.525 160.383 177.825 160.437 178.119C160.539 178.47 160.658 178.816 160.795 179.156C160.916 179.56 160.999 179.974 161.043 180.393L161.265 182.083C161.337 182.617 161.389 183.198 161.065 183.626C160.922 183.822 160.729 183.975 160.57 184.168C160.014 184.876 160.199 185.903 159.952 186.781C159.769 187.425 159.394 187.999 158.878 188.426C158.485 188.76 157.975 189.025 157.465 188.921C156.78 188.792 156.367 188.077 156.179 187.402C155.991 186.726 155.931 185.989 155.518 185.423C155.187 184.955 154.674 184.663 154.212 184.329C153.749 183.995 153.294 183.567 153.192 183.003C153.148 182.756 153.175 182.508 153.15 182.261C153.114 181.945 152.993 181.646 152.8 181.393C152.608 181.141 152.351 180.945 152.057 180.826C151.705 180.69 151.27 180.64 151.067 180.331C151.571 180.015 151.938 179.521 152.096 178.948C152.25 178.383 152.333 177.801 152.344 177.216L152.463 175.252C152.514 174.373 152.539 173.502 152.925 172.713C153.098 172.362 153.314 172.03 153.492 171.681C153.73 171.192 153.934 170.686 154.1 170.167C154.38 169.363 154.662 168.557 154.912 167.743C155.012 167.348 155.162 166.968 155.357 166.612C155.587 166.241 155.892 165.795 156.288 165.721Z" fill="#E8E8F0"/>
<path d="M151.926 178.485L152.445 178.502L152.557 177.718C152.571 177.561 152.608 177.407 152.666 177.26C152.752 177.106 152.852 176.959 152.965 176.823C153.477 176.1 153.44 175.14 153.566 174.262C153.734 173.092 154.224 171.993 154.709 170.914L155.719 168.665C155.808 168.48 155.881 168.287 155.934 168.089C155.978 167.87 155.999 167.647 155.996 167.423C155.996 167.077 156.109 165.813 156.117 165.464C156.117 165.335 155.835 165.407 155.775 165.293C155.649 165.046 155.476 165.719 155.239 165.867C155.015 166.038 154.852 166.277 154.773 166.547C154.556 167.114 154.422 167.71 154.219 168.279C154.041 168.862 153.717 169.389 153.277 169.811C153.071 169.994 152.831 170.137 152.636 170.33C152.007 170.951 151.948 171.931 151.926 172.805C151.911 173.346 151.809 178.485 151.926 178.485Z" fill="#72A5BD"/>
<path d="M159.41 164.783C158.915 164.981 158.628 165.526 158.487 166.055C158.346 166.585 158.287 167.144 158.015 167.614C157.381 168.717 155.766 169.039 155.318 170.231C155.204 170.634 155.143 171.05 155.137 171.469C155.058 172.322 154.776 173.148 154.692 174.002C154.648 174.666 154.664 175.333 154.739 175.994L155.306 182.731C155.416 183.723 155.358 184.727 155.135 185.7C155.716 185.783 156.309 185.686 156.832 185.42C157.364 185.173 157.849 184.846 158.359 184.564C159.237 184.069 160.207 183.735 160.974 183.08C161.113 182.971 161.233 182.84 161.328 182.691C161.451 182.408 161.534 182.109 161.575 181.803C161.64 181.565 161.723 181.331 161.822 181.105C162.107 180.426 162.354 179.732 162.565 179.027C162.709 178.559 162.822 178.082 162.904 177.599C162.966 177.216 162.998 176.827 163.032 176.442C163.072 175.834 163.193 175.235 163.391 174.66C163.882 173.288 164.16 171.849 164.215 170.392C164.232 170.182 164.218 169.97 164.173 169.764C164.087 169.514 163.973 169.275 163.831 169.051C163.596 168.608 163.455 168.121 163.233 167.673C162.738 166.659 161.85 165.889 160.922 165.244C160.447 164.929 159.925 164.588 159.41 164.783Z" fill="#72A5BD"/>
<path d="M147.599 175.776C147.197 175.566 146.833 175.29 146.522 174.96C146.381 174.794 146.275 174.608 146.122 174.445C145.758 174.058 145.287 173.789 144.768 173.673C144.253 173.56 143.727 173.509 143.2 173.522C142.848 173.498 142.494 173.541 142.158 173.648C141.989 173.703 141.837 173.8 141.716 173.93C141.595 174.06 141.509 174.218 141.465 174.39C141.389 174.811 141.663 175.219 141.992 175.487C142.298 175.737 142.658 175.912 143.044 175.999C143.358 176.053 143.675 176.09 143.994 176.11C145.864 176.305 147.534 177.322 149.172 178.25C150.612 179.063 152.08 179.824 153.576 180.534C153.635 180.086 153.66 179.634 153.65 179.183C153.65 178.846 153.626 178.332 153.307 178.134C152.935 177.901 152.317 177.849 151.906 177.711C150.942 177.396 150 177.016 149.088 176.573C148.571 176.323 148.076 176.058 147.599 175.776Z" fill="#FBBEBE"/>
<path d="M155.775 165.209C157.616 165.209 159.108 163.708 159.108 161.857C159.108 160.005 157.616 158.504 155.775 158.504C153.935 158.504 152.443 160.005 152.443 161.857C152.443 163.708 153.935 165.209 155.775 165.209Z" fill="#FBBEBE"/>
<path d="M160.362 168.584C160.097 168.956 159.88 169.361 159.716 169.789C159.303 170.637 158.658 171.365 158.336 172.263C157.994 173.195 158.007 174.306 157.346 175.041C157.213 175.153 157.113 175.298 157.057 175.462C157.053 175.564 157.041 175.666 157.022 175.766C156.928 176.033 156.49 176.046 156.409 176.318C156.386 176.397 156.409 176.484 156.369 176.565C156.302 176.741 156.072 176.766 155.916 176.872C155.592 177.092 155.669 177.602 155.421 177.919C155.321 178.036 155.191 178.125 155.045 178.176C154.899 178.228 154.742 178.239 154.59 178.211C154.287 178.147 153.995 178.037 153.724 177.886C153.629 177.833 153.524 177.8 153.415 177.79C153.286 177.793 153.161 177.835 153.056 177.911C152.44 178.302 152.151 179.079 152.156 179.811C152.199 180.544 152.372 181.262 152.668 181.934C152.703 182.05 152.761 182.158 152.838 182.251C153.041 182.466 153.398 182.431 153.67 182.31C153.925 182.159 154.196 182.038 154.479 181.949C154.993 181.855 155.498 182.211 156.02 182.181C156.402 182.123 156.762 181.965 157.062 181.721C157.592 181.399 158.066 180.994 158.467 180.521C158.695 180.222 158.863 179.881 159.063 179.561C159.319 179.169 159.6 178.794 159.905 178.438L161.827 176.085C162.02 175.862 162.193 175.623 162.344 175.37C162.517 175.028 162.653 174.668 162.747 174.296C162.953 173.676 163.087 173.035 163.146 172.384C163.155 171.845 163.108 171.307 163.005 170.778C162.94 170.252 162.801 169.738 162.591 169.252C162.163 168.386 161.147 167.668 160.362 168.584Z" fill="#72A5BD"/>
<path d="M167.058 164.217C167.06 163.623 166.922 163.036 166.653 162.506C166.385 161.975 165.994 161.516 165.514 161.166C165.499 160.111 165.11 159.095 164.417 158.3C163.723 157.505 162.769 156.982 161.726 156.824C161.524 155.825 160.976 154.928 160.178 154.293C159.381 153.658 158.384 153.325 157.365 153.353C156.346 153.38 155.369 153.767 154.606 154.444C153.844 155.121 153.345 156.045 153.198 157.054C151.812 156.743 150.545 157.148 150.315 158.002C150.068 158.895 151.057 159.939 152.522 160.335C152.981 160.465 153.459 160.512 153.935 160.476C154.275 160.976 154.717 161.4 155.231 161.719C155.745 162.039 156.319 162.247 156.919 162.332C157.095 163.139 157.492 163.881 158.067 164.474C158.642 165.067 159.371 165.488 160.172 165.689C160.394 166.225 160.738 166.701 161.177 167.079C161.177 167.183 161.159 167.29 161.159 167.399C161.143 167.779 161.205 168.159 161.339 168.515C161.474 168.871 161.679 169.196 161.942 169.471C162.206 169.745 162.522 169.964 162.872 170.113C163.222 170.263 163.599 170.34 163.98 170.34C164.36 170.34 164.737 170.263 165.087 170.113C165.438 169.964 165.754 169.745 166.017 169.471C166.281 169.196 166.486 168.871 166.621 168.515C166.755 168.159 166.816 167.779 166.8 167.399C166.8 166.972 166.708 166.55 166.531 166.162C166.878 165.573 167.06 164.901 167.058 164.217Z" fill="#F86D70"/>
<path opacity="0.1" d="M151.255 158.173C151.485 157.319 152.74 156.913 154.138 157.225C154.3 156.2 154.82 155.266 155.604 154.587C156.389 153.908 157.388 153.528 158.425 153.514C158.522 153.514 158.618 153.514 158.712 153.514C158.311 153.392 157.894 153.33 157.475 153.331C156.438 153.345 155.439 153.725 154.654 154.404C153.87 155.083 153.35 156.017 153.188 157.042C151.802 156.73 150.535 157.136 150.305 157.99C150.058 158.883 151.047 159.927 152.512 160.323C152.785 160.398 153.064 160.446 153.346 160.466C151.955 160.06 151.02 159.046 151.255 158.173Z" fill="#0A0806"/>
<path opacity="0.1" d="M162.1 167.572C162.1 167.463 162.1 167.357 162.117 167.25C161.678 166.873 161.334 166.397 161.113 165.862C160.312 165.659 159.584 165.237 159.009 164.644C158.435 164.05 158.036 163.309 157.859 162.502C157.26 162.418 156.685 162.21 156.171 161.89C155.657 161.571 155.216 161.147 154.875 160.647C154.598 160.669 154.319 160.661 154.044 160.624C154.386 161.085 154.816 161.474 155.31 161.767C155.803 162.06 156.35 162.252 156.919 162.332C157.095 163.139 157.493 163.88 158.067 164.474C158.642 165.067 159.371 165.488 160.172 165.689C160.394 166.225 160.738 166.701 161.177 167.079C161.177 167.183 161.16 167.29 161.16 167.399C161.147 168.157 161.435 168.89 161.96 169.437C162.486 169.984 163.207 170.301 163.965 170.318C163.412 170.105 162.937 169.727 162.603 169.236C162.27 168.746 162.094 168.165 162.1 167.572Z" fill="#0A0806"/>
<path d="M157.3 163.085C157.526 162.913 157.524 162.529 157.295 162.228C157.066 161.926 156.697 161.821 156.471 161.993C156.245 162.165 156.247 162.549 156.476 162.85C156.705 163.152 157.074 163.257 157.3 163.085Z" fill="#FBBEBE"/>
<path d="M77.6375 179.767L80.9331 177.829C80.4877 177.068 79.9182 176.387 79.2482 175.813L73.0332 177.745L77.9023 174.883C76.6966 174.222 75.3397 173.887 73.9653 173.911C72.5908 173.934 71.2461 174.315 70.0635 175.016C68.8809 175.716 67.9011 176.713 67.2206 177.908C66.54 179.102 66.1822 180.453 66.1824 181.828C66.1824 186.199 69.7278 186.35 74.0996 186.35C78.4713 186.35 82.0167 186.199 82.0167 181.828C82.0193 180.719 81.7875 179.623 81.3364 178.611L77.6375 179.767Z" fill="#E8F7F6"/>
<path opacity="0.1" d="M78.4763 184.017C78.1253 183.665 77.7332 183.357 77.3085 183.099C76.7122 182.701 76.0912 182.295 75.3861 182.162C74.7676 182.043 74.1292 182.144 73.4983 182.107C72.4029 182.04 71.3717 181.568 70.6061 180.781C70.1558 180.316 69.802 179.744 69.2602 179.388C68.6546 179.028 67.94 178.898 67.2462 179.02C67.0452 179.048 66.846 179.088 66.65 179.141C66.3399 180.003 66.1816 180.912 66.1824 181.828C66.1824 186.199 69.7278 186.35 74.0996 186.35C76.2224 186.35 78.1472 186.316 79.5698 185.779L79.3224 185.336C79.0977 184.862 78.8133 184.419 78.4763 184.017Z" fill="#0A0806"/>
<defs>
<linearGradient id="paint0_linear" x1="140.406" y1="192.244" x2="140.406" y2="152.747" gradientUnits="userSpaceOnUse">
<stop stop-color="#808080" stop-opacity="0.25"/>
<stop offset="0.54" stop-color="#808080" stop-opacity="0.12"/>
<stop offset="1" stop-color="#808080" stop-opacity="0.1"/>
</linearGradient>
</defs>
</svg>
