<svg width="336" height="316" viewBox="0 0 336 316" fill="none" xmlns="http://www.w3.org/2000/svg">
<g clip-path="url(#clip0)">
<path d="M92.468 57.7171C73.3244 70.8125 53.5455 82.06 33.9314 100.578C14.3173 119.096 -5.14639 144.855 1.23642 164.629C7.69684 184.326 39.9941 198.032 65.4429 205.371C90.9693 212.699 109.642 213.563 125.716 214.193C141.785 214.746 155.336 215.061 183.069 224.592C210.715 234.205 252.557 253.208 271.623 244.841C290.689 236.475 287.066 200.797 294.473 165.192C301.956 129.66 320.547 94.1272 315.27 64.1872C309.911 34.252 280.761 9.74893 249.012 2.49793C217.171 -4.82582 182.831 5.09762 156.442 17.4607C130.052 29.8238 111.534 44.7283 92.468 57.7171Z" fill="#E8F7F6"/>
<path d="M37.8462 52.8086C37.8462 43.1083 43.7973 35.2413 51.1308 35.2413C58.4642 35.2413 64.3911 43.1083 64.3911 52.8086C64.3911 57.9061 62.7517 62.509 60.1327 65.7004C61.0493 72.4906 63.4114 81.9969 63.8139 83.6993C63.8139 83.6993 42.2647 98.7348 42.2647 85.0428C42.2647 74.6538 41.542 68.0672 40.8872 64.0319C38.8475 60.6473 37.7943 56.76 37.8462 52.8086Z" fill="#DC8E6C"/>
<path d="M46.6972 36.4343H64.9387C65.9539 36.4343 66.7769 37.2573 66.7769 38.2725V63.246C66.7769 64.2612 65.9539 65.0842 64.9387 65.0842H46.6972C45.682 65.0842 44.859 64.2612 44.859 63.246V38.2725C44.859 37.2573 45.682 36.4343 46.6972 36.4343Z" fill="#EFEFEF"/>
<path d="M141.465 117.374C136.881 115.735 103.469 115.735 76.2835 132.769C74.6441 126.216 68.4214 79.1791 68.4214 79.1791L40.5766 80.9979C40.5766 80.9979 34.3538 141.926 46.7993 173.369C52.6971 185.82 120.522 159.939 120.522 159.939L141.465 117.374Z" fill="#7CBF9A"/>
<path d="M169.553 107.247C85.4071 104.511 89.3454 300.114 98.4249 308.407C107.504 316.701 220.489 318.04 227.992 309.377C235.495 300.715 252.869 109.958 169.553 107.247Z" fill="#7CBF9A"/>
<path d="M156.331 108.45C164.906 106.156 175.329 107.373 181.217 108.935C177.589 119.78 160.362 252.189 158.717 315.178C152.693 315.076 143.827 314.863 136.576 314.426C137.037 266.308 140.199 160.191 156.331 108.45Z" fill="white"/>
<path d="M164.304 125.867C156.137 167.132 147.969 261.055 146.737 303.552" stroke="#D8D8D8" stroke-width="0.970033" stroke-miterlimit="10" stroke-linecap="round"/>
<path d="M156.132 117.069C156.132 120.949 178.646 120.949 178.646 116.71C178.646 112.471 181.673 81.0221 181.673 81.0221L159.255 79.1791C159.255 79.1791 156.137 114.605 156.132 117.069Z" fill="#D37C59"/>
<path d="M128.631 87.235C128.442 85.0621 128.34 82.8698 128.34 80.6096C128.34 50.6793 146.038 26.4091 167.869 26.4091C189.699 26.4091 207.397 50.6599 207.397 80.6096C207.397 83.9661 207.17 87.3187 206.718 90.6446L128.631 87.235Z" fill="black"/>
<path d="M136.173 57.1203C141.024 55.2093 145.723 53.1529 149.545 49.3309C159.546 60.3311 177.089 73.2422 183.472 77.4037C180.921 93.8942 171.158 106.194 159.498 106.194C145.893 106.194 134.864 89.4757 134.864 68.848C134.859 64.9137 135.276 60.9903 136.105 57.1445L136.173 57.1203Z" fill="#DC8E6C"/>
<path d="M184.859 30.2602C179.028 30.2602 174.3 25.5329 174.3 19.7014C174.3 13.8699 179.028 9.14258 184.859 9.14258C190.691 9.14258 195.418 13.8699 195.418 19.7014C195.418 25.5329 190.691 30.2602 184.859 30.2602Z" fill="black"/>
<path d="M180.649 79.2614C177.489 79.2614 174.926 76.6991 174.926 73.5383C174.926 70.3774 177.489 67.8151 180.649 67.8151C183.81 67.8151 186.373 70.3774 186.373 73.5383C186.373 76.6991 183.81 79.2614 180.649 79.2614Z" fill="#DC8E6C"/>
<path d="M136.288 195.072L185.407 176.776L212.356 249.125L163.237 267.421L136.288 195.072Z" fill="white"/>
<path d="M147.727 186.952L171.434 178.121L174.09 185.252L150.383 194.083L147.727 186.952Z" fill="#78D5DD"/>
<path d="M142.582 196.984L181.897 182.339L205.731 246.325L166.416 260.97L142.582 196.984Z" fill="#FDD28A"/>
<path d="M166.06 222.623C159.479 222.278 152.422 216.027 145.791 216.027C137.856 216.027 132.284 221.051 132.284 227.337C132.284 240.602 142.648 244.458 146.577 244.458C153.173 244.458 154.284 243.445 155.511 242.576C157.509 243.061 160.449 245.559 168.282 245.559C176.115 245.559 166.06 222.623 166.06 222.623Z" fill="#DC8E6C"/>
<path d="M212.277 123.844C246.539 115.788 259.004 234.913 253.542 245.215C248.081 255.516 170.503 252.107 166.157 251.282C164.906 246.432 163.426 223.67 164.944 220.94C167.078 220.101 204.493 219.64 204.493 219.64C203.523 215.76 191.363 166.569 190.951 160.953C189.04 134.592 193.066 128.365 212.277 123.844Z" fill="#7CBF9A"/>
<path d="M45.8336 30.8036H66.408C68.4358 30.8036 70.0796 32.4474 70.0796 34.4752V34.48C70.0796 36.5078 68.4358 38.1516 66.408 38.1516H45.8336C43.8059 38.1516 42.162 36.5078 42.162 34.48V34.4752C42.162 32.4474 43.8059 30.8036 45.8336 30.8036Z" fill="#7CBF9A"/>
<path d="M47.942 58.3261L53.9905 61.8182C54.6238 62.1838 54.8408 62.9936 54.4752 63.6269L54.4727 63.6311C54.1071 64.2644 53.2973 64.4814 52.664 64.1158L46.6155 60.6237C45.9822 60.258 45.7652 59.4482 46.1308 58.8149L46.1332 58.8107C46.4989 58.1774 47.3087 57.9604 47.942 58.3261Z" fill="#78D5DD"/>
<path d="M46.4018 53.8697L52.7156 50.8838C53.3767 50.5712 54.166 50.8537 54.4787 51.5147L54.4807 51.5191C54.7934 52.1802 54.5109 52.9696 53.8498 53.2822L47.536 56.2681C46.8749 56.5807 46.0856 56.2982 45.7729 55.6372L45.7709 55.6328C45.4582 54.9717 45.7407 54.1823 46.4018 53.8697Z" fill="#78D5DD"/>
<path d="M65.9774 56.5322L63.9785 63.2243C63.7693 63.925 63.0316 64.3234 62.3309 64.1141L62.3263 64.1127C61.6256 63.9034 61.2272 63.1658 61.4365 62.4651L63.4353 55.7729C63.6446 55.0723 64.3823 54.6739 65.083 54.8832L65.0876 54.8846C65.7883 55.0939 66.1867 55.8315 65.9774 56.5322Z" fill="#78D5DD"/>
<path d="M62.3666 57.6585L57.8959 63.0243C57.4278 63.5862 56.5929 63.6622 56.0311 63.1941L56.0273 63.191C55.4655 62.7229 55.3895 61.8879 55.8576 61.3261L60.3283 55.9602C60.7964 55.3984 61.6313 55.3224 62.1932 55.7905L62.1969 55.7936C62.7587 56.2617 62.8347 57.0966 62.3666 57.6585Z" fill="#78D5DD"/>
<path d="M57.0515 58.3148L50.0833 58.7874C49.3537 58.8368 48.7221 58.2855 48.6726 57.5559L48.6723 57.5511C48.6228 56.8215 49.1742 56.1899 49.9038 56.1404L56.872 55.6678C57.6016 55.6183 58.2331 56.1697 58.2826 56.8993L58.283 56.9041C58.3324 57.6337 57.7811 58.2653 57.0515 58.3148Z" fill="#78D5DD"/>
<path d="M178.06 120.372L167.869 124.164L164.3 121.24L160.623 124.164L155.516 118.965" stroke="#D8D8D8" stroke-width="0.970033" stroke-miterlimit="10" stroke-linecap="round"/>
<path d="M328.856 171.997C324.91 171.997 321.711 168.798 321.711 164.852C321.711 160.907 324.91 157.708 328.856 157.708C332.801 157.708 336 160.907 336 164.852C336 168.798 332.801 171.997 328.856 171.997Z" fill="#E8F7F6"/>
<path d="M317.836 153.159C316.277 153.159 315.014 151.895 315.014 150.336C315.014 148.777 316.277 147.513 317.836 147.513C319.395 147.513 320.659 148.777 320.659 150.336C320.659 151.895 319.395 153.159 317.836 153.159Z" fill="#E8F7F6"/>
<path d="M17.2568 199.036C15.6978 199.036 14.434 197.773 14.434 196.214C14.434 194.655 15.6978 193.391 17.2568 193.391C18.8158 193.391 20.0796 194.655 20.0796 196.214C20.0796 197.773 18.8158 199.036 17.2568 199.036Z" fill="#E8F7F6"/>
<path d="M113.988 32.9423C108.912 32.9423 104.797 28.8273 104.797 23.7512C104.797 18.6752 108.912 14.5602 113.988 14.5602C119.064 14.5602 123.179 18.6752 123.179 23.7512C123.179 28.8273 119.064 32.9423 113.988 32.9423Z" fill="#E8F7F6"/>
<path d="M93.5939 16.6263C91.0572 16.6263 89.0008 14.5699 89.0008 12.0332C89.0008 9.49647 91.0572 7.44006 93.5939 7.44006C96.1306 7.44006 98.187 9.49647 98.187 12.0332C98.187 14.5699 96.1306 16.6263 93.5939 16.6263Z" fill="#E8F7F6"/>
<path d="M247.717 12.0334H303.645C306.859 12.0334 309.465 14.6392 309.465 17.8536V44.9418C309.465 48.1562 306.859 50.762 303.645 50.762H247.717C244.503 50.762 241.897 48.1562 241.897 44.9418V17.8536C241.897 14.6392 244.503 12.0334 247.717 12.0334Z" fill="white" stroke="#7CBF9A" stroke-width="0.970033" stroke-miterlimit="10"/>
<path d="M275.683 23.5574V39.238" stroke="#7CBF9A" stroke-width="3.88013" stroke-miterlimit="10"/>
<path d="M283.521 31.4H267.845" stroke="#7CBF9A" stroke-width="3.88013" stroke-miterlimit="10"/>
<path d="M255.957 23.0628C255.363 23.0628 254.881 22.5807 254.881 21.986C254.881 21.3914 255.363 20.9093 255.957 20.9093C256.552 20.9093 257.034 21.3914 257.034 21.986C257.034 22.5807 256.552 23.0628 255.957 23.0628Z" stroke="#7CBF9A" stroke-width="0.970033" stroke-miterlimit="10"/>
<path d="M248.625 21.7678C247.371 21.7678 246.355 20.7515 246.355 19.4979C246.355 18.2443 247.371 17.228 248.625 17.228C249.878 17.228 250.895 18.2443 250.895 19.4979C250.895 20.7515 249.878 21.7678 248.625 21.7678Z" stroke="#7CBF9A" stroke-width="0.970033" stroke-miterlimit="10"/>
<path d="M252.18 43.7146C251.395 43.7146 250.759 43.0784 250.759 42.2935C250.759 41.5087 251.395 40.8724 252.18 40.8724C252.965 40.8724 253.601 41.5087 253.601 42.2935C253.601 43.0784 252.965 43.7146 252.18 43.7146Z" stroke="#7CBF9A" stroke-width="0.970033" stroke-miterlimit="10"/>
<path d="M304.135 25.5168H288.959" stroke="#7CBF9A" stroke-width="0.970033" stroke-miterlimit="10"/>
<path d="M304.135 28.4562H288.959" stroke="#7CBF9A" stroke-width="0.970033" stroke-miterlimit="10"/>
<path d="M304.135 31.4H288.959" stroke="#7CBF9A" stroke-width="0.970033" stroke-miterlimit="10"/>
<path d="M304.135 34.3395H288.959" stroke="#7CBF9A" stroke-width="0.970033" stroke-miterlimit="10"/>
<path d="M304.135 37.2833H294.842" stroke="#7CBF9A" stroke-width="0.970033" stroke-miterlimit="10"/>
<path d="M247.004 27.8814C246.582 27.242 246.757 26.3822 247.396 25.9609C248.034 25.5395 248.893 25.7163 249.315 26.3557L254.585 34.3378C255.007 34.9772 254.832 35.837 254.193 36.2583C253.555 36.6797 252.696 36.5029 252.273 35.8636L247.004 27.8814Z" stroke="#7CBF9A" stroke-width="0.970033" stroke-miterlimit="10"/>
<path d="M251.142 29.1206L248.828 30.6484" stroke="#7CBF9A" stroke-width="0.970033" stroke-miterlimit="10"/>
<path d="M252.179 50.7618L218.519 65.0844" stroke="#7CBF9A" stroke-width="0.970033" stroke-miterlimit="10"/>
</g>
<defs>
<clipPath id="clip0">
<rect width="336" height="315.275" fill="white" transform="matrix(-1 0 0 1 336 0)"/>
</clipPath>
</defs>
</svg>
