<svg width="275" height="248" viewBox="0 0 275 248" fill="none" xmlns="http://www.w3.org/2000/svg">
<path d="M136.5 156.5C123.757 143.647 125.144 112.74 119.094 95.0091C113.045 77.2785 107.76 58.9274 97.9501 43.4931C91.6461 33.5664 82.3576 24.4874 69.8185 24.6496C57.7521 24.8026 46.0362 33.402 35.9841 42.1288C28.4203 48.696 20.8621 55.9727 16.8949 64.9704C14.1471 71.2187 13.3446 77.8518 11.1475 84.2366C3.50102 106.449 -19.3114 121.605 -41.0008 130.312C-51.1776 134.4 -61.5921 137.621 -71.3904 142.904C-81.1888 148.187 -90.5675 155.927 -95.4331 166.003C-100.251 175.985 -100.05 186.993 -97.7794 196.674C-93.1607 216.331 -80.861 231.993 -67.9828 246.3C-39.4463 277.935 -6.78595 305.4 25.7882 332.785C37.8459 342.918 49.9577 353.096 63.7008 361.004C71.3318 365.398 79.9233 369.156 89.4557 367.981C101.557 366.486 113.596 356.232 117.522 344.071C124.103 323.678 109.202 303.489 118.724 283.849C123.967 273.041 132.67 278.484 143.551 273.964C166.89 264.265 205.866 276.07 224.234 257.38C236.85 244.544 245.201 212.911 241.124 197.648C236.857 181.646 214.983 174.668 186.5 172.5C161.074 170.565 147.751 167.845 136.5 156.5Z" fill="#67A3A3"/>
<path d="M46.915 228.595H140.744V114.786C140.744 108.76 134.808 103.857 127.512 103.857H60.1469C52.8507 103.857 46.915 108.76 46.915 114.786V228.595Z" fill="#E6E6E6"/>
<path d="M54.0642 223.889H133.596V127.422C133.596 122.314 128.564 118.159 122.38 118.159H65.2798C59.0954 118.159 54.0642 122.314 54.0642 127.422V223.889Z" fill="white"/>
<path d="M46.2063 95C43.8872 95 42.0002 96.5585 42.0002 98.474V108.502C42.0002 110.418 43.8872 111.976 46.2063 111.976H141.453C143.772 111.976 145.659 110.418 145.659 108.502V98.474C145.659 96.5585 143.772 95 141.453 95H46.2063Z" fill="#3F3D56"/>
<path d="M65.7617 211.519C64.6729 211.522 63.6296 211.956 62.8597 212.726C62.0897 213.496 61.6558 214.54 61.6526 215.628C61.6558 216.717 62.0897 217.76 62.8596 218.53C63.6295 219.3 64.6729 219.734 65.7617 219.737H73.4531V211.519H65.7617Z" fill="#3F3D56"/>
<path d="M80.5125 211.519H73.0317V219.737H80.5125C81.6013 219.734 82.6446 219.3 83.4145 218.53C84.1844 217.761 84.6184 216.717 84.6216 215.628C84.6184 214.54 84.1844 213.496 83.4145 212.726C82.6446 211.956 81.6013 211.522 80.5125 211.519Z" fill="#6BD5E1"/>
<path opacity="0.2" d="M83.1938 212.526C83.8418 213.269 84.1992 214.221 84.2001 215.207C84.1969 216.296 83.763 217.339 82.9931 218.109C82.2232 218.879 81.1798 219.313 80.091 219.316H73.0317V219.738H80.5125C81.6013 219.734 82.6446 219.3 83.4145 218.53C84.1844 217.761 84.6184 216.717 84.6216 215.628C84.6206 215.039 84.4925 214.457 84.2461 213.921C83.9998 213.386 83.6408 212.91 83.1938 212.526Z" fill="black"/>
<path d="M100.47 149.625C99.7208 148.835 98.6894 148.373 97.601 148.341C96.5126 148.309 95.4558 148.709 94.6613 149.453C93.8712 150.203 93.4097 151.234 93.3775 152.322C93.3454 153.411 93.7453 154.468 94.4898 155.262L99.7656 160.859L105.746 155.222L100.47 149.625Z" fill="#3F3D56"/>
<path d="M110.588 160.359L105.456 154.915L99.4763 160.552L104.608 165.996C105.357 166.786 106.388 167.247 107.477 167.28C108.565 167.312 109.622 166.912 110.416 166.167C111.206 165.418 111.668 164.387 111.7 163.298C111.732 162.21 111.332 161.153 110.588 160.359Z" fill="#6BD5E1"/>
<path opacity="0.2" d="M111.695 163C111.598 163.981 111.151 164.894 110.434 165.571C109.639 166.316 108.582 166.716 107.494 166.684C106.406 166.651 105.374 166.19 104.625 165.4L99.783 160.263L99.4763 160.552L104.608 165.996C105.357 166.786 106.388 167.247 107.477 167.279C108.565 167.311 109.622 166.912 110.416 166.167C110.844 165.762 111.18 165.269 111.401 164.723C111.622 164.176 111.722 163.589 111.695 163Z" fill="black"/>
<path d="M78.5766 162.582C77.8275 161.792 76.796 161.331 75.7077 161.299C74.6193 161.266 73.5625 161.666 72.768 162.411C71.9779 163.16 71.5164 164.191 71.4842 165.28C71.4521 166.368 71.852 167.425 72.5965 168.219L77.8723 173.816L83.8525 168.179L78.5766 162.582Z" fill="#3F3D56"/>
<path d="M88.6944 173.316L83.5632 167.873L77.583 173.51L82.7143 178.953C83.4634 179.743 84.4949 180.205 85.5832 180.237C86.6716 180.269 87.7284 179.869 88.5229 179.125C89.313 178.376 89.7746 177.344 89.8067 176.256C89.8388 175.167 89.439 174.111 88.6944 173.316Z" fill="#6BD5E1"/>
<path opacity="0.2" d="M89.8014 175.957C89.7051 176.938 89.2573 177.852 88.5405 178.529C87.746 179.273 86.6892 179.673 85.6008 179.641C84.5125 179.609 83.4811 179.147 82.7319 178.357L77.8897 173.22L77.583 173.51L82.7143 178.953C83.4634 179.743 84.4949 180.205 85.5832 180.237C86.6716 180.269 87.7284 179.869 88.5229 179.124C88.9511 178.719 89.287 178.227 89.5076 177.68C89.7282 177.134 89.8284 176.546 89.8014 175.957Z" fill="black"/>
<path d="M100.47 174.646C99.7208 173.856 98.6894 173.394 97.601 173.362C96.5126 173.33 95.4558 173.73 94.6613 174.475C93.8712 175.224 93.4097 176.255 93.3775 177.344C93.3454 178.432 93.7453 179.489 94.4898 180.283L99.7656 185.88L105.746 180.243L100.47 174.646Z" fill="#3F3D56"/>
<path d="M110.588 185.38L105.456 179.936L99.4763 185.573L104.608 191.017C105.357 191.807 106.388 192.269 107.477 192.301C108.565 192.333 109.622 191.933 110.416 191.188C111.206 190.439 111.668 189.408 111.7 188.319C111.732 187.231 111.332 186.174 110.588 185.38Z" fill="#6BD5E1"/>
<path opacity="0.2" d="M111.695 188.021C111.598 189.002 111.151 189.915 110.434 190.592C109.639 191.337 108.582 191.737 107.494 191.705C106.406 191.673 105.374 191.211 104.625 190.421L99.783 185.284L99.4763 185.573L104.608 191.017C105.357 191.807 106.388 192.268 107.477 192.3C108.565 192.333 109.622 191.933 110.416 191.188C110.844 190.783 111.18 190.291 111.401 189.744C111.622 189.197 111.722 188.61 111.695 188.021Z" fill="black"/>
<path d="M113.826 200.323C114.607 199.564 115.056 198.527 115.075 197.438C115.094 196.35 114.681 195.298 113.927 194.512C113.168 193.731 112.131 193.283 111.042 193.264C109.954 193.245 108.902 193.657 108.117 194.412L102.584 199.755L108.294 205.666L113.826 200.323Z" fill="#3F3D56"/>
<path d="M103.216 210.57L108.597 205.373L102.887 199.462L97.5068 204.659C96.7258 205.418 96.2768 206.455 96.2579 207.543C96.239 208.632 96.6517 209.684 97.4059 210.469C98.1646 211.25 99.2015 211.699 100.29 211.718C101.379 211.737 102.431 211.324 103.216 210.57Z" fill="#6BD5E1"/>
<path opacity="0.2" d="M100.588 211.709C99.6061 211.625 98.6874 211.188 98.0018 210.48C97.2477 209.694 96.835 208.642 96.8539 207.554C96.8728 206.465 97.3218 205.428 98.1027 204.669L103.18 199.765L102.887 199.462L97.5068 204.659C96.7258 205.418 96.2768 206.455 96.2579 207.543C96.239 208.632 96.6517 209.684 97.4059 210.469C97.8161 210.893 98.3127 211.222 98.8619 211.436C99.4111 211.65 100 211.743 100.588 211.709Z" fill="black"/>
<path d="M84.3369 187.365C85.1179 186.607 85.5668 185.57 85.5857 184.481C85.6046 183.392 85.1919 182.34 84.4378 181.555C83.6791 180.774 82.6421 180.325 81.5535 180.306C80.4648 180.287 79.4129 180.7 78.6275 181.454L73.0952 186.798L78.8046 192.709L84.3369 187.365Z" fill="#3F3D56"/>
<path d="M73.7269 197.613L79.1076 192.416L73.3982 186.505L68.0175 191.702C67.2365 192.46 66.7876 193.497 66.7687 194.586C66.7498 195.675 67.1625 196.727 67.9166 197.512C68.6754 198.293 69.7123 198.742 70.801 198.761C71.8896 198.78 72.9415 198.367 73.7269 197.613Z" fill="#6BD5E1"/>
<path opacity="0.2" d="M71.0992 198.752C70.1169 198.667 69.1982 198.231 68.5126 197.522C67.7584 196.737 67.3457 195.685 67.3646 194.596C67.3835 193.508 67.8325 192.471 68.6135 191.712L73.691 186.808L73.3982 186.505L68.0175 191.702C67.2365 192.46 66.7876 193.497 66.7687 194.586C66.7498 195.675 67.1625 196.727 67.9166 197.512C68.3268 197.935 68.8234 198.265 69.3726 198.479C69.9219 198.693 70.5107 198.786 71.0992 198.752Z" fill="black"/>
<path d="M126.337 171.727C127.118 170.968 127.567 169.931 127.585 168.843C127.604 167.754 127.192 166.702 126.438 165.917C125.679 165.136 124.642 164.687 123.553 164.668C122.465 164.649 121.413 165.062 120.627 165.816L115.095 171.159L120.804 177.071L126.337 171.727Z" fill="#3F3D56"/>
<path d="M115.727 181.975L121.107 176.778L115.398 170.866L110.017 176.063C109.236 176.822 108.787 177.859 108.768 178.948C108.75 180.036 109.162 181.088 109.916 181.874C110.675 182.655 111.712 183.104 112.801 183.123C113.889 183.141 114.941 182.729 115.727 181.975Z" fill="#6BD5E1"/>
<path opacity="0.2" d="M113.099 183.114C112.117 183.029 111.198 182.593 110.512 181.884C109.758 181.099 109.345 180.047 109.364 178.958C109.383 177.869 109.832 176.833 110.613 176.074L115.691 171.17L115.398 170.866L110.017 176.063C109.236 176.822 108.787 177.859 108.768 178.948C108.75 180.036 109.162 181.088 109.916 181.874C110.327 182.297 110.823 182.627 111.372 182.841C111.922 183.055 112.51 183.148 113.099 183.114Z" fill="black"/>
<path d="M117.002 204.135C116.253 203.345 115.221 202.884 114.133 202.851C113.044 202.819 111.988 203.219 111.193 203.964C110.403 204.713 109.941 205.744 109.909 206.833C109.877 207.921 110.277 208.978 111.022 209.772L116.297 215.369L122.278 209.732L117.002 204.135Z" fill="#3F3D56"/>
<path d="M127.12 214.869L121.988 209.425L116.008 215.063L121.14 220.506C121.889 221.296 122.92 221.758 124.009 221.79C125.097 221.822 126.154 221.422 126.948 220.678C127.738 219.928 128.2 218.897 128.232 217.809C128.264 216.72 127.864 215.663 127.12 214.869Z" fill="#6BD5E1"/>
<path opacity="0.2" d="M128.227 217.51C128.13 218.491 127.683 219.405 126.966 220.082C126.171 220.826 125.114 221.226 124.026 221.194C122.938 221.162 121.906 220.7 121.157 219.91L116.315 214.773L116.008 215.062L121.14 220.506C121.889 221.296 122.92 221.758 124.009 221.79C125.097 221.822 126.154 221.422 126.948 220.677C127.376 220.272 127.712 219.78 127.933 219.233C128.154 218.687 128.254 218.099 128.227 217.51Z" fill="black"/>
<path d="M87.9594 203.688C87.2103 202.898 86.1789 202.437 85.0905 202.405C84.0021 202.372 82.9453 202.772 82.1508 203.517C81.3607 204.266 80.8992 205.298 80.867 206.386C80.8349 207.474 81.2348 208.531 81.9793 209.326L87.2551 214.922L93.2353 209.285L87.9594 203.688Z" fill="#3F3D56"/>
<path d="M98.0772 214.422L92.946 208.979L86.9658 214.616L92.0971 220.059C92.8463 220.849 93.8777 221.311 94.966 221.343C96.0544 221.375 97.1112 220.975 97.9057 220.231C98.6958 219.482 99.1574 218.45 99.1895 217.362C99.2217 216.273 98.8218 215.217 98.0772 214.422Z" fill="#6BD5E1"/>
<path opacity="0.2" d="M99.1842 217.063C99.0879 218.045 98.6401 218.958 97.9233 219.635C97.1288 220.379 96.072 220.779 94.9836 220.747C93.8953 220.715 92.8639 220.253 92.1147 219.463L87.2725 214.327L86.9658 214.616L92.0971 220.059C92.8463 220.849 93.8777 221.311 94.966 221.343C96.0544 221.375 97.1112 220.975 97.9057 220.231C98.3339 219.826 98.6698 219.333 98.8904 218.786C99.1111 218.24 99.2113 217.652 99.1842 217.063Z" fill="black"/>
<path d="M96.1343 188.947C96.1346 190.313 95.6629 191.637 94.799 192.696C93.935 193.754 92.732 194.481 91.3935 194.754C90.6112 194.912 89.8053 194.912 89.0231 194.754C87.6847 194.481 86.4818 193.753 85.6179 192.695C84.7541 191.637 84.2822 190.313 84.2822 188.947C84.2822 187.581 84.7541 186.257 85.6179 185.198C86.4818 184.14 87.6847 183.413 89.0231 183.139C89.8053 182.981 90.6112 182.981 91.3935 183.139C92.732 183.412 93.935 184.14 94.799 185.198C95.6629 186.256 96.1346 187.581 96.1343 188.947Z" fill="#6BD5E1"/>
<path opacity="0.2" d="M91.3936 183.139V194.754C90.6114 194.912 89.8054 194.912 89.0232 194.754V183.139C89.8054 182.981 90.6114 182.981 91.3936 183.139Z" fill="black"/>
<path d="M98.815 165.266C98.8153 166.632 98.3435 167.957 97.4796 169.015C96.6157 170.073 95.4127 170.8 94.0741 171.074C93.2919 171.232 92.486 171.232 91.7037 171.074C90.3653 170.8 89.1625 170.073 88.2986 169.014C87.4347 167.956 86.9629 166.632 86.9629 165.266C86.9629 163.9 87.4347 162.576 88.2986 161.518C89.1625 160.459 90.3653 159.732 91.7037 159.459C92.486 159.301 93.2919 159.301 94.0741 159.459C95.4127 159.732 96.6157 160.459 97.4796 161.517C98.3435 162.576 98.8153 163.9 98.815 165.266Z" fill="#6BD5E1"/>
<path opacity="0.2" d="M94.0745 159.459V171.074C93.2923 171.232 92.4863 171.232 91.7041 171.074V159.459C92.4863 159.301 93.2923 159.301 94.0745 159.459Z" fill="black"/>
<path d="M98.815 199.223C98.8153 200.589 98.3435 201.914 97.4796 202.972C96.6157 204.03 95.4127 204.758 94.0741 205.031C93.2919 205.189 92.486 205.189 91.7037 205.031C90.3653 204.757 89.1625 204.03 88.2986 202.972C87.4347 201.913 86.9629 200.589 86.9629 199.223C86.9629 197.857 87.4347 196.533 88.2986 195.475C89.1625 194.417 90.3653 193.689 91.7037 193.416C92.486 193.258 93.2919 193.258 94.0741 193.416C95.4127 193.689 96.6157 194.416 97.4796 195.475C98.3435 196.533 98.8153 197.857 98.815 199.223Z" fill="#6BD5E1"/>
<path opacity="0.2" d="M94.0745 193.416V205.031C93.2923 205.189 92.4863 205.189 91.7041 205.031V193.416C92.4863 193.258 93.2923 193.258 94.0745 193.416Z" fill="black"/>
<path d="M113.56 215.755C113.56 217.121 113.088 218.446 112.224 219.504C111.361 220.562 110.158 221.289 108.819 221.563C108.037 221.721 107.231 221.721 106.449 221.563C105.11 221.289 103.907 220.562 103.043 219.504C102.18 218.445 101.708 217.121 101.708 215.755C101.708 214.389 102.18 213.065 103.043 212.007C103.907 210.948 105.11 210.221 106.449 209.948C107.231 209.79 108.037 209.79 108.819 209.948C110.158 210.221 111.361 210.948 112.224 212.006C113.088 213.065 113.56 214.389 113.56 215.755Z" fill="#6BD5E1"/>
<path opacity="0.2" d="M108.819 209.948V221.563C108.037 221.721 107.231 221.721 106.448 221.563V209.948C107.231 209.79 108.037 209.79 108.819 209.948Z" fill="black"/>
<path d="M126.585 185.338C127.569 186.286 128.195 187.545 128.357 188.901C128.52 190.258 128.209 191.629 127.476 192.782C127.047 193.455 126.488 194.035 125.831 194.489C124.706 195.263 123.347 195.624 121.986 195.512C120.624 195.399 119.343 194.82 118.36 193.872C117.376 192.924 116.75 191.665 116.588 190.309C116.426 188.953 116.737 187.582 117.468 186.428C117.898 185.755 118.457 185.175 119.114 184.722C120.239 183.947 121.598 183.586 122.959 183.698C124.321 183.811 125.602 184.39 126.585 185.338Z" fill="#6BD5E1"/>
<path opacity="0.2" d="M119.113 184.722L127.476 192.782C127.047 193.455 126.488 194.035 125.831 194.489L117.468 186.428C117.897 185.755 118.457 185.175 119.113 184.722Z" fill="black"/>
<path d="M128.372 198.296C129.356 199.244 129.982 200.502 130.144 201.859C130.307 203.215 129.996 204.586 129.263 205.739C128.834 206.412 128.275 206.993 127.618 207.446C126.493 208.22 125.134 208.581 123.773 208.469C122.411 208.357 121.131 207.777 120.147 206.829C119.163 205.881 118.537 204.623 118.375 203.266C118.213 201.91 118.524 200.539 119.256 199.386C119.685 198.713 120.244 198.132 120.901 197.679C122.026 196.905 123.385 196.543 124.746 196.656C126.108 196.768 127.389 197.348 128.372 198.296Z" fill="#6BD5E1"/>
<path opacity="0.2" d="M120.901 197.679L129.264 205.74C128.834 206.412 128.275 206.993 127.618 207.446L119.256 199.386C119.685 198.713 120.244 198.133 120.901 197.679Z" fill="black"/>
<path d="M75.2022 201.423C76.186 202.371 76.8121 203.63 76.9745 204.986C77.1369 206.343 76.8257 207.714 76.0936 208.867C75.6645 209.54 75.1052 210.12 74.4486 210.574C73.3228 211.348 71.9643 211.709 70.6029 211.597C69.2415 211.484 67.9606 210.905 66.9771 209.957C65.9935 209.009 65.3676 207.75 65.2051 206.394C65.0427 205.038 65.3538 203.667 66.0857 202.513C66.5148 201.84 67.0741 201.26 67.7307 200.807C68.8563 200.032 70.2149 199.671 71.5764 199.783C72.9379 199.896 74.2188 200.475 75.2022 201.423Z" fill="#6BD5E1"/>
<path opacity="0.2" d="M67.7307 200.807L76.0936 208.867C75.6645 209.54 75.1052 210.12 74.4486 210.574L66.0857 202.513C66.5148 201.84 67.0741 201.26 67.7307 200.807Z" fill="black"/>
<path opacity="0.2" d="M56.0748 95H53.8408V111.532H56.0748V95Z" fill="black"/>
<path opacity="0.2" d="M69.0319 95H66.7979V111.532H69.0319V95Z" fill="black"/>
<path opacity="0.2" d="M81.9892 95H79.7551V111.532H81.9892V95Z" fill="black"/>
<path opacity="0.2" d="M94.9467 95H92.7126V111.532H94.9467V95Z" fill="black"/>
<path opacity="0.2" d="M107.904 95H105.67V111.532H107.904V95Z" fill="black"/>
<path opacity="0.2" d="M120.861 95H118.627V111.532H120.861V95Z" fill="black"/>
<path opacity="0.2" d="M133.819 95H131.585V111.532H133.819V95Z" fill="black"/>
</svg>
