<svg width="1158" height="317" viewBox="0 0 1158 317" fill="none" xmlns="http://www.w3.org/2000/svg">
<path d="M1158 317H0V173C0 77.4547 77.4547 0 173 0H1158V317Z" fill="#67A3A3"/>
<path d="M1044.36 192.926C1093.39 148.547 1110.82 87.8977 1083.27 57.4615C1055.73 27.0254 993.644 38.3279 944.608 82.7065C895.572 127.085 878.151 187.734 905.696 218.171C933.241 248.607 995.323 237.304 1044.36 192.926Z" fill="#3D666C"/>
<path d="M901.515 314.396C894.886 300.765 892.538 285.405 893.692 270.367C894.839 255.425 899.475 240.929 906.685 227.807C913.667 215.099 922.895 203.724 933.385 193.721C944.518 183.105 957.073 174.093 970.281 166.216C984.229 157.899 998.886 150.831 1013.71 144.218C1015.56 143.393 1017.41 142.576 1019.26 141.764C1020.48 141.231 1019.43 139.455 1018.22 139.985C1003.1 146.611 988.113 153.593 973.779 161.786C960.085 169.613 946.984 178.566 935.28 189.147C924.361 199.017 914.63 210.308 907.084 222.95C899.239 235.912 894.151 250.339 892.137 265.338C890.204 280.444 891.699 296.152 897.452 310.326C898.153 312.054 898.912 313.757 899.727 315.436C900.308 316.629 902.093 315.586 901.515 314.396V314.396Z" fill="#F0EEEF"/>
<path d="M958.636 171.39C957.95 160.143 958.802 148.855 961.168 137.835C963.526 126.809 967.355 116.146 972.552 106.127C975.478 100.502 978.831 95.1075 982.582 89.9896C983.369 88.9151 981.569 87.8847 980.79 88.9484C974.05 98.174 968.595 108.262 964.573 118.938C960.541 129.616 957.954 140.779 956.879 152.134C956.273 158.535 956.167 164.973 956.56 171.39C956.641 172.709 958.717 172.718 958.636 171.39L958.636 171.39Z" fill="#F0EEEF"/>
<path d="M274.787 268.486C272.679 285.009 264.927 300.125 256.658 314.687C256.384 315.183 256.103 315.671 255.815 316.167H169.868C168.129 315.715 166.414 315.22 164.705 314.687C154.997 311.73 145.833 307.22 137.567 301.331C105.947 278.542 93.7801 235.478 99.2758 196.891C102.693 172.918 113.211 148.441 133.691 135.53C144.505 128.7 158.396 126.48 170.844 129.018C171.17 129.077 171.495 129.151 171.828 129.218C182.538 131.63 192.079 137.623 197.508 147.279C207.271 164.631 201.458 186.125 196.658 205.437C191.872 224.749 189.276 247.864 203.167 262.108C198.581 248.604 203.107 232.496 214.062 223.366C222.338 216.477 233.862 213.895 244.372 216.033C245.378 216.248 246.369 216.492 247.346 216.788C249.705 217.479 251.98 218.432 254.128 219.629C270.511 228.782 277.146 249.862 274.787 268.486Z" fill="#7EBE9B"/>
<path d="M223.741 314.684C226.129 315.24 228.525 315.729 230.936 316.167H217.902C216.196 315.707 214.497 315.218 212.813 314.684C209.111 313.528 205.466 312.201 201.878 310.703C187.487 304.669 174.23 295.61 164.2 283.556C159.295 277.716 155.289 271.178 152.316 264.156C149.091 256.22 147.042 247.857 146.233 239.33C144.415 221.835 146.27 203.858 149.734 186.674C153.309 168.864 159.08 151.566 166.915 135.175C167.858 133.211 168.832 131.258 169.838 129.319C169.907 129.159 170.012 129.017 170.145 128.904C170.277 128.791 170.433 128.71 170.602 128.666C170.945 128.6 171.299 128.672 171.589 128.866C171.936 129.066 172.194 129.391 172.308 129.774C172.423 130.158 172.386 130.57 172.205 130.927C164.126 146.67 158.003 163.339 153.97 180.566C150.024 197.371 147.783 214.955 148.547 232.235C149.274 248.381 153.495 264.26 163.072 277.463C171.819 289.516 183.896 299.02 197.257 305.492C205.713 309.535 214.597 312.618 223.741 314.684Z" fill="white"/>
<path d="M252.13 316.167H248.374C247.953 315.678 247.547 315.182 247.149 314.686C238.594 304.073 232.799 291.429 230.299 277.923C227.263 261.068 229.625 243.663 237.034 228.286C239.102 223.974 241.538 219.857 244.314 215.982C245.3 216.197 246.271 216.441 247.228 216.737C239.926 226.616 235.015 238.117 232.894 250.302C231.003 261.721 231.632 273.426 234.735 284.565C237.838 295.703 243.338 305.994 250.832 314.686C251.252 315.182 251.687 315.678 252.13 316.167Z" fill="white"/>
</svg>
