<svg width="321" height="208" viewBox="0 0 321 208" fill="none" xmlns="http://www.w3.org/2000/svg">
<path d="M162.695 30.9535C162.525 30.9537 162.362 31.0247 162.242 31.1511C162.122 31.2775 162.054 31.4488 162.054 31.6275V84.1987C162.054 84.3774 162.122 84.5487 162.242 84.675C162.362 84.8014 162.525 84.8725 162.695 84.8726H204.321C204.49 84.8724 204.653 84.8014 204.773 84.675C204.893 84.5487 204.961 84.3773 204.961 84.1987V31.6275C204.961 31.4488 204.893 31.2775 204.773 31.1511C204.653 31.0248 204.49 30.9537 204.321 30.9535H162.695Z" fill="#3D666C"/>
<path d="M167.029 80.2699H199.986V36.214H167.029V80.2699Z" fill="white"/>
<path d="M232.081 44.7622C231.98 44.7623 231.883 44.8048 231.812 44.8802C231.74 44.9556 231.7 45.0579 231.7 45.1646V71.3194C231.7 71.4261 231.74 71.5284 231.812 71.6038C231.883 71.6792 231.98 71.7217 232.081 71.7218H261.789C261.89 71.7217 261.987 71.6792 262.058 71.6038C262.13 71.5284 262.17 71.4261 262.17 71.3194V45.1646C262.17 45.0579 262.13 44.9557 262.058 44.8802C261.987 44.8048 261.89 44.7624 261.789 44.7622L232.081 44.7622Z" fill="#3D666C"/>
<path d="M234.809 48.0498V69.0914H259.683V48.0498H234.809Z" fill="white"/>
<path d="M189.672 34.8988H177.968C177.685 34.9001 177.407 34.8203 177.162 34.6676C176.917 34.5149 176.713 34.2947 176.571 34.0294C176.43 33.764 176.356 33.4629 176.356 33.1565C176.357 32.8501 176.432 32.5492 176.575 32.2845L182.427 21.3042C182.431 21.2952 182.436 21.2862 182.441 21.2772C182.569 21.0436 182.746 20.8461 182.958 20.7008C183.17 20.5555 183.41 20.4665 183.66 20.4411L183.668 20.4403C183.718 20.4353 183.769 20.4328 183.82 20.4328C184.103 20.4309 184.381 20.5107 184.626 20.6639C184.87 20.817 185.073 21.038 185.213 21.3042L191.065 32.2845C191.206 32.5495 191.28 32.85 191.28 33.1559C191.28 33.4619 191.206 33.7624 191.065 34.0273C190.924 34.2923 190.721 34.5123 190.476 34.6653C190.231 34.8183 189.954 34.8988 189.672 34.8988ZM177.645 33.1542C177.645 33.2161 177.661 33.2767 177.689 33.3302C177.717 33.3836 177.758 33.428 177.807 33.4586C177.856 33.4893 177.911 33.5051 177.968 33.5045H189.672C189.728 33.5052 189.784 33.4893 189.833 33.4587C189.882 33.428 189.923 33.3837 189.95 33.3302C189.979 33.2767 189.994 33.2162 189.995 33.1544C189.994 33.0936 189.979 33.0341 189.95 32.9818L184.098 22.0014C184.07 21.9484 184.03 21.9044 183.981 21.8738C183.932 21.8432 183.876 21.8271 183.82 21.8271C183.763 21.8271 183.708 21.8432 183.659 21.8738C183.61 21.9044 183.569 21.9484 183.541 22.0014L177.689 32.9817C177.661 33.0339 177.645 33.0935 177.645 33.1542Z" fill="#3D666C"/>
<path d="M183.507 23.7206C184.023 23.7206 184.44 23.279 184.44 22.7342C184.44 22.1895 184.023 21.7479 183.507 21.7479C182.992 21.7479 182.575 22.1895 182.575 22.7342C182.575 23.279 182.992 23.7206 183.507 23.7206Z" fill="#3D666C"/>
<path d="M250.106 46.0772H243.766C243.613 46.0779 243.462 46.0344 243.329 45.9511C243.196 45.8678 243.086 45.7477 243.01 45.603C242.933 45.4583 242.893 45.294 242.893 45.1269C242.893 44.9597 242.934 44.7957 243.011 44.6512L246.181 38.662L246.189 38.6472C246.258 38.5198 246.354 38.4121 246.469 38.3329C246.584 38.2536 246.714 38.2051 246.849 38.1912L246.854 38.1908C246.881 38.1881 246.908 38.1867 246.936 38.1867C247.089 38.1857 247.24 38.2292 247.372 38.3127C247.505 38.3963 247.615 38.5168 247.69 38.662L250.86 44.6512C250.937 44.7958 250.977 44.9597 250.977 45.1266C250.977 45.2934 250.937 45.4574 250.86 45.6019C250.784 45.7464 250.674 45.8664 250.541 45.9498C250.409 46.0333 250.259 46.0772 250.106 46.0772ZM243.591 45.1257C243.591 45.1594 243.6 45.1924 243.615 45.2216C243.63 45.2508 243.652 45.275 243.679 45.2917C243.705 45.3084 243.735 45.3171 243.766 45.3167H250.106C250.136 45.3171 250.166 45.3084 250.193 45.2917C250.22 45.275 250.242 45.2508 250.257 45.2216C250.272 45.1925 250.28 45.1594 250.281 45.1257C250.28 45.0926 250.272 45.0601 250.257 45.0316L247.087 39.0423C247.071 39.0134 247.049 38.9894 247.023 38.9727C246.996 38.956 246.966 38.9472 246.936 38.9472C246.905 38.9472 246.875 38.956 246.849 38.9727C246.822 38.9894 246.8 39.0134 246.785 39.0423L243.615 45.0315C243.599 45.06 243.591 45.0925 243.591 45.1257Z" fill="#3D666C"/>
<path d="M247.246 40.1592C247.589 40.1592 247.868 39.8648 247.868 39.5017C247.868 39.1385 247.589 38.8441 247.246 38.8441C246.902 38.8441 246.624 39.1385 246.624 39.5017C246.624 39.8648 246.902 40.1592 247.246 40.1592Z" fill="#3D666C"/>
<path d="M167.381 63.2112C167.846 62.0686 168.523 61.0394 169.372 60.1865C170.221 59.3335 171.223 58.6746 172.318 58.2501C173.456 57.7797 174.676 57.5782 175.894 57.6593C177.112 57.7404 178.299 58.1022 179.374 58.72C181.899 60.1541 183.917 62.4088 186.481 63.7813C188.974 65.1033 191.717 65.795 194.5 65.8032C197.65 65.8295 200.751 64.9679 203.491 63.3051C203.597 63.2332 203.674 63.1198 203.704 62.9888C203.733 62.8579 203.715 62.7196 203.651 62.6033C203.587 62.4869 203.484 62.4015 203.363 62.3651C203.242 62.3287 203.112 62.3441 203.001 62.4081C200.517 63.8979 197.728 64.7067 194.881 64.7626C192.035 64.8185 189.22 64.1197 186.687 62.7285C184.114 61.2849 182.076 58.954 179.456 57.6014C178.343 57.0236 177.135 56.6879 175.9 56.6137C174.666 56.5396 173.43 56.7284 172.264 57.1694C170.968 57.6347 169.779 58.3893 168.776 59.3832C167.773 60.3772 166.978 61.5878 166.445 62.935C166.209 63.5538 167.148 63.8231 167.381 63.2112V63.2112Z" fill="#3D666C"/>
<path d="M167.008 72.8224C172.348 71.6281 177.888 71.6473 183.22 72.8787C187.956 73.9791 192.846 75.9586 197.729 74.4823C199.911 73.8227 201.911 72.5034 203.031 70.4731C203.331 69.9297 202.501 69.4429 202.2 69.9865C200.09 73.8093 195.146 74.4543 191.241 73.8271C188.632 73.408 186.117 72.5676 183.549 71.9662C178.028 70.6695 172.285 70.6444 166.752 71.8928C166.148 72.028 166.404 72.9576 167.008 72.8224Z" fill="#3D666C"/>
<path d="M166.39 50.1579C171.522 49.3153 176.778 49.4958 181.835 50.6883C186.56 51.8056 191.177 54.3581 196.173 53.9173C198.486 53.7132 200.775 52.8922 202.346 51.1844C202.757 50.7377 202.078 50.077 201.664 50.5261C200.309 51.9993 198.357 52.7629 196.354 52.9692C194.045 53.207 191.776 52.7452 189.579 52.0892C187.146 51.363 184.783 50.443 182.31 49.8428C177.019 48.5604 171.509 48.3619 166.134 49.2602C165.523 49.3608 165.782 50.2581 166.39 50.1579Z" fill="#3D666C"/>
<path d="M239.295 47.6178C241.414 50.0446 242.875 53.0925 243.51 56.4093C243.999 59.0477 243.944 61.7759 243.349 64.387C242.755 66.9982 241.637 69.4236 240.08 71.4796C239.698 71.9824 240.347 72.715 240.732 72.2084C242.853 69.4131 244.207 65.9921 244.632 62.3566C244.942 59.5502 244.681 56.7018 243.87 54.0237C243.059 51.3456 241.718 48.9068 239.947 46.889C239.531 46.4145 238.88 47.1436 239.295 47.6178Z" fill="#3D666C"/>
<path d="M253.528 45.517C250.47 47.8244 248.758 51.5488 248.517 55.401C248.267 59.4092 249.752 63.2802 252.145 66.3922C253.541 68.1841 255.209 69.7328 257.084 70.9788C257.623 71.3416 258.124 70.4531 257.588 70.0924C254.533 68.036 251.919 65.1149 250.53 61.6093C249.854 59.9441 249.503 58.158 249.498 56.3532C249.493 54.5484 249.834 52.7603 250.502 51.0912C251.249 49.2316 252.468 47.6126 254.032 46.4034C254.544 46.0167 254.047 45.1254 253.528 45.517Z" fill="#3D666C"/>
<path d="M185.995 55.9404C188.571 55.9404 190.659 53.7324 190.659 51.0088C190.659 48.2851 188.571 46.0771 185.995 46.0771C183.419 46.0771 181.331 48.2851 181.331 51.0088C181.331 53.7324 183.419 55.9404 185.995 55.9404Z" fill="#3D666C"/>
<path d="M291.128 156.829C291.128 156.829 226.178 124.403 248.995 101.918C271.811 79.4326 291.128 156.829 291.128 156.829Z" fill="#3D666C"/>
<path d="M289.443 164.593C289.443 164.593 259.103 58.7739 303.78 63.8346C348.456 68.8953 289.443 164.593 289.443 164.593Z" fill="#3D666C"/>
<path d="M267.633 155.276L268.937 172.532L268.957 172.83C268.956 175.524 269.091 178.217 269.361 180.898C271.13 198.498 278.735 206.52 287.623 206.52C296.511 206.52 303.785 198.498 305.554 180.898C305.824 178.217 305.959 175.524 305.958 172.83L305.968 172.589L305.973 172.532L307.282 155.276H267.633Z" fill="#3D666C"/>
<path d="M305.814 172.357L305.808 172.421L305.798 172.689C305.799 175.69 305.666 178.689 305.398 181.674H269.522C269.254 178.689 269.12 175.69 269.122 172.689L269.101 172.357H305.814Z" fill="white"/>
<path d="M26.6318 179.511C26.6318 179.511 -9.46606 162.168 3.21508 150.14C15.8962 138.113 26.6318 179.511 26.6318 179.511Z" fill="#3D666C"/>
<path d="M25.8928 183.457C25.8928 183.457 9.37488 126.239 33.6982 128.975C58.0215 131.711 25.8928 183.457 25.8928 183.457Z" fill="#3D666C"/>
<path d="M14.1953 178.196L14.8905 187.939L14.9015 188.107C14.9009 189.628 14.9727 191.149 15.1167 192.662C16.0602 202.6 20.1154 207.129 24.8548 207.129C29.5942 207.129 33.4729 202.6 34.4164 192.662C34.5604 191.149 34.6322 189.628 34.6315 188.107L34.6371 187.971L34.6398 187.939L35.3378 178.196H14.1953Z" fill="#3D666C"/>
<path d="M34.0938 188.06L34.0911 188.091L34.0857 188.224C34.0864 189.706 34.0163 191.188 33.8757 192.662H15.0377C14.8971 191.188 14.827 189.706 14.8277 188.224L14.8169 188.06H34.0938Z" fill="white"/>
<path d="M87.2609 61.8142V48.6587H85.3954V61.8142C84.8603 62.0516 84.4171 62.4856 84.1419 63.042C83.8666 63.5983 83.7764 64.2424 83.8866 64.8637C83.9969 65.485 84.3008 66.0449 84.7462 66.4474C85.1917 66.85 85.7509 67.0701 86.3282 67.0701C86.9054 67.0701 87.4647 66.85 87.9101 66.4474C88.3556 66.0449 88.6595 65.485 88.7697 64.8637C88.88 64.2424 88.7898 63.5983 88.5145 63.042C88.2392 62.4856 87.7961 62.0516 87.2609 61.8142Z" fill="#3D666C"/>
<path d="M91.8342 193.92H78.6419V24.9869H73.4936V193.92H60.3013C58.7378 193.92 57.1897 194.244 55.7453 194.875C54.3009 195.506 52.9885 196.43 51.883 197.596C50.7775 198.761 49.9005 200.145 49.3022 201.668C48.7039 203.19 48.396 204.823 48.396 206.471V206.471H103.74V206.471C103.74 204.823 103.432 203.19 102.833 201.668C102.235 200.145 101.358 198.761 100.253 197.596C99.147 196.43 97.8346 195.506 96.3902 194.875C94.9458 194.244 93.3976 193.92 91.8342 193.92Z" fill="#3D666C"/>
<path d="M48.396 49.9739H103.739L100.355 5.62534C100.231 4.09611 99.5664 2.67077 98.4908 1.62973C97.4152 0.588697 96.0069 0.0073251 94.543 0H57.5924C56.1286 0.00732473 54.7203 0.588695 53.6447 1.62973C52.5691 2.67076 51.904 4.09609 51.7803 5.62532L48.396 49.9739Z" fill="#67A3A3"/>
<path d="M125.337 128.279C124.824 128.188 124.3 128.207 123.795 128.334C123.29 128.461 122.813 128.694 122.393 129.02C121.972 129.345 121.617 129.757 121.346 130.231C121.076 130.704 120.897 131.231 120.819 131.779L119.286 142.526L124.501 144.004L128.323 133.991C128.545 133.409 128.642 132.781 128.606 132.154C128.57 131.527 128.402 130.916 128.116 130.368C127.829 129.819 127.43 129.347 126.949 128.985C126.468 128.623 125.917 128.382 125.337 128.279Z" fill="#A0616A"/>
<path d="M125.376 142.624C128.333 154.886 127.06 166.102 116.047 174.908C102.837 171.11 94.0508 161.944 88.6902 148.623C88.3569 147.794 88.1879 146.904 88.1935 146.006C88.1991 145.108 88.3791 144.22 88.7226 143.396C89.0661 142.573 89.5661 141.83 90.1923 141.214C90.8185 140.597 91.5579 140.119 92.366 139.809C93.5801 139.343 94.9014 139.274 96.1541 139.611C97.4068 139.948 98.5315 140.675 99.3786 141.695L112.34 157.302L118.421 141.565L125.376 142.624Z" fill="#67A3A3"/>
<path d="M191.848 207.128C180.023 206.453 172.677 202.085 170.898 193.13L172.802 189.375L194.608 200.059C195.158 200.329 195.622 200.768 195.939 201.322C196.257 201.876 196.414 202.519 196.391 203.169C196.368 203.819 196.166 204.447 195.81 204.974C195.454 205.5 194.961 205.901 194.393 206.125L191.848 207.128Z" fill="#3D666C"/>
<path d="M182.891 206.856C176.704 206.66 170.754 206.721 165.117 207.119C164.128 207.19 163.152 206.851 162.402 206.175C161.651 205.499 161.185 204.541 161.106 203.51L160.768 199.092L155.974 191.083L160.129 186.744C167.112 194.006 174.77 200.105 183.865 203.731C184.157 203.94 184.377 204.242 184.491 204.593C184.605 204.943 184.607 205.322 184.498 205.674C184.388 206.026 184.172 206.331 183.882 206.544C183.593 206.757 183.245 206.866 182.891 206.856Z" fill="#3D666C"/>
<path d="M149.124 175.236C141.239 190.191 133.484 200.272 123.283 205.668C110.733 210.059 101.561 204.242 94.4121 192.312L115.148 177.772L118.179 180.984L145.646 158.83C146.317 158.157 147.211 157.791 148.135 157.813C149.059 157.835 149.937 158.242 150.579 158.946L174.007 189.438L171.136 194.51L149.124 175.236Z" fill="#2F2E41"/>
<path d="M156.174 192.662L145.403 174.801L147.937 169.648L162.192 185.792L156.174 192.662Z" fill="#2F2E41"/>
<path d="M93.4794 136.113C99.4894 136.113 104.362 130.961 104.362 124.606C104.362 118.251 99.4894 113.099 93.4794 113.099C87.4693 113.099 82.5972 118.251 82.5972 124.606C82.5972 130.961 87.4693 136.113 93.4794 136.113Z" fill="#A0616A"/>
<path d="M96.2778 145.976L84.4629 141.603C86.2113 138.597 86.9776 135.043 86.6393 131.51H96.2778C95.7296 136.643 95.6475 141.512 96.2778 145.976Z" fill="#A0616A"/>
<path d="M122.395 177.23C120.562 178.027 120.429 180.612 118.696 181.49C110.322 185.736 101.462 189.181 95.3804 195.293C81.168 185.065 67.9948 153.3 85.0892 139.401C90.9242 143.019 96.1364 145.608 96.0236 139.401L122.395 177.23Z" fill="#67A3A3"/>
<path opacity="0.2" d="M114.933 163.355L108.981 161.138L97.2377 170.858L91.9736 150.768C91.6085 149.375 91.0169 150.081 90.1674 151.049C89.282 150.18 88.1806 149.598 86.9933 149.37C85.8059 149.143 84.582 149.281 83.466 149.767C82.35 150.253 81.3883 151.067 80.6944 152.113C80.0004 153.16 79.6032 154.395 79.5495 155.673C78.9233 170.245 83.0687 182.574 93.377 192.005C106.86 188.944 112.582 179.287 114.933 166.765L114.296 166.315C114.53 165.347 114.743 164.36 114.933 163.355Z" fill="black"/>
<path d="M94.883 109.481C98.4955 110.361 102.607 111.608 102.838 112.768C106.554 113.766 109.359 116.158 109.931 119.805C109.979 120.12 109.962 120.442 109.88 120.749C109.798 121.057 109.654 121.341 109.459 121.582C109.263 121.824 109.02 122.017 108.746 122.147C108.473 122.277 108.176 122.342 107.877 122.337C105.856 122.309 102.822 122.103 100.819 121.211C94.9993 125.209 94.0225 135.609 96.5639 142.689L92.5647 142.298L88.4272 129.382L87.3704 141.79L78.2441 140.503L79.4196 124.68C79.7809 120.951 80.9711 117.367 82.8913 114.227C83.0908 113.911 83.309 113.61 83.5445 113.324C84.9329 111.652 86.7202 110.411 88.7165 109.735C90.7128 109.058 92.8437 108.97 94.883 109.481Z" fill="#2F2E41"/>
<path d="M115.555 148.473L125.504 161.1L140.428 142.087L130.344 128.88L115.555 148.473Z" fill="#3F3D56"/>
<path d="M137.701 142.688L126.125 132.121C126.783 130.359 129.94 130.946 129.94 130.946L139.001 141.197C139.317 141.553 139.588 141.957 139.806 142.395L137.701 142.688Z" fill="#F2F2F2"/>
<path d="M138.343 141.977L124.89 130.853L109.958 154.814L124.016 164.869C125.361 165.44 126.706 164.441 126.706 164.441L140.428 142.191L138.343 141.977Z" fill="#3F3D56"/>
<path d="M126.519 134.232L126.392 134.419L135.008 140.966L135.135 140.779L126.519 134.232Z" fill="#67A3A3"/>
<path d="M135.25 143.229L123.942 161.308L124.124 161.435L135.432 143.356L135.25 143.229Z" fill="#67A3A3"/>
<path d="M113.599 154.729L113.469 154.915L122.621 162.035L122.751 161.849L113.599 154.729Z" fill="#67A3A3"/>
<path d="M124.886 134.544L113.174 152.337L113.353 152.469L125.065 134.675L124.886 134.544Z" fill="#67A3A3"/>
<path d="M128.504 131.052L128.413 131.157L139.065 141.495L139.156 141.39L128.504 131.052Z" fill="#B3B3B3"/>
<path d="M127.616 131.141L127.527 131.248L138.66 141.64L138.75 141.534L127.616 131.141Z" fill="#B3B3B3"/>
<path d="M126.92 131.348L126.834 131.457L138.391 141.644L138.477 141.534L126.92 131.348Z" fill="#B3B3B3"/>
<path d="M120.688 151.981C120.255 151.667 119.767 151.445 119.252 151.329C118.737 151.214 118.204 151.206 117.686 151.307C117.168 151.408 116.674 151.616 116.234 151.917C115.793 152.219 115.414 152.61 115.119 153.066L109.336 162.007L113.517 165.703L121.101 158.46C121.541 158.039 121.885 157.52 122.108 156.942C122.33 156.363 122.425 155.739 122.386 155.117C122.346 154.495 122.173 153.89 121.879 153.347C121.585 152.804 121.178 152.337 120.688 151.981Z" fill="#A0616A"/>
<path d="M114.933 164.792C112.582 177.315 106.86 186.972 93.377 190.032C83.0687 180.601 78.9233 168.272 79.5495 153.699C79.5885 152.793 79.8002 151.905 80.172 151.088C80.5437 150.271 81.0677 149.543 81.7124 148.946C82.3571 148.35 83.1091 147.898 83.923 147.619C84.7369 147.339 85.5958 147.237 86.4479 147.319C87.728 147.442 88.9424 147.976 89.9295 148.849C90.9166 149.722 91.6295 150.893 91.9736 152.206L97.2377 172.296L109.122 160.685L114.933 164.792Z" fill="#67A3A3"/>
</svg>
