<svg width="365" height="245" viewBox="0 0 365 245" fill="none" xmlns="http://www.w3.org/2000/svg">
<g clip-path="url(#clip0)">
<path opacity="0.1" d="M212.068 40.276C188.668 39.4586 166.384 31.9123 145.117 23.6468C123.85 15.3813 102.757 6.22236 79.9181 1.84408C65.2119 -0.972334 48.4116 -1.36834 36.5757 6.51065C25.1864 14.0887 21.5051 27.1728 19.5283 39.3097C18.0393 48.4433 17.1649 58.0584 21.2422 66.6058C24.0744 72.5428 29.1022 77.5325 32.5807 83.2192C44.6891 103.001 36.1353 127.398 23.0163 146.717C16.8639 155.778 9.72941 164.423 4.98364 174.07C0.23787 183.717 -1.9576 194.77 2.19574 204.61C6.31423 214.362 16.1194 221.689 26.7451 226.841C48.326 237.295 73.7562 240.302 98.5527 242C153.446 245.754 208.631 244.129 263.669 242.5C284.037 241.898 304.496 241.287 324.531 238.138C335.661 236.389 347.148 233.614 355.227 226.91C365.482 218.404 368.023 203.999 361.151 193.329C349.626 175.435 317.748 170.994 309.698 151.789C305.263 141.22 309.819 129.445 316.263 119.643C330.088 98.6129 353.259 80.1652 354.482 56.1258C355.319 39.617 344.18 23.086 326.955 15.2577C308.897 7.0714 283.869 8.10103 270.547 21.654C256.833 35.6252 232.73 40.9951 212.068 40.276Z" fill="#7CBF9A"/>
<g opacity="0.5">
<path opacity="0.5" d="M158.645 127.54L148.044 127.759L146.312 130.138V138.359L148.475 139.874H158.645L160.809 137.494V129.704L158.645 127.54Z" fill="#7CBF9A"/>
<path opacity="0.2" d="M158.423 128.839C158.423 128.839 148.688 130.354 147.823 128.839L148.041 127.759L158.423 127.531V128.839Z" fill="white"/>
<path opacity="0.5" d="M159.509 151.339L161.238 153.072V161.309L159.509 163.013C159.509 163.013 153.236 165.177 149.124 163.444L147.175 161.499V153.262L148.908 151.313L159.509 151.339Z" fill="#7CBF9A"/>
<path opacity="0.2" d="M159.075 153.287C159.075 153.287 151.503 155.017 148.909 153.287V151.339H159.509L159.075 153.287Z" fill="white"/>
<path opacity="0.5" d="M155.397 139.816V151.519C155.373 151.983 155.165 152.418 154.821 152.729C154.477 153.04 154.023 153.202 153.56 153.179C153.096 153.202 152.643 153.04 152.298 152.729C151.954 152.418 151.747 151.983 151.722 151.519V139.816C151.722 138.822 152.673 138.052 153.775 138.166C154.202 138.192 154.603 138.375 154.903 138.68C155.202 138.985 155.378 139.39 155.397 139.816Z" fill="#7CBF9A"/>
<path opacity="0.5" d="M175.622 127.876L165.022 128.092L163.289 130.471V138.692L165.452 140.206H175.622L177.786 137.827V130.037L175.622 127.876Z" fill="#7CBF9A"/>
<path opacity="0.2" d="M175.404 129.172C175.404 129.172 165.668 130.686 164.803 129.172L165.019 128.092L175.404 127.876V129.172Z" fill="white"/>
<path opacity="0.5" d="M176.48 151.672L178.21 153.404V161.641L176.48 163.355C176.48 163.355 170.204 165.519 166.095 163.786L164.147 161.841V153.62L165.88 151.672H176.48Z" fill="#7CBF9A"/>
<path opacity="0.2" d="M176.053 153.62C176.053 153.62 168.481 155.35 165.887 153.62V151.672H176.481L176.053 153.62Z" fill="white"/>
<path opacity="0.5" d="M172.362 140.149V151.852C172.337 152.315 172.129 152.75 171.785 153.061C171.441 153.372 170.988 153.534 170.525 153.512C170.061 153.535 169.607 153.373 169.262 153.062C168.917 152.751 168.709 152.316 168.684 151.852V140.149C168.684 139.155 169.635 138.385 170.74 138.499C171.167 138.525 171.568 138.708 171.868 139.013C172.167 139.318 172.343 139.722 172.362 140.149Z" fill="#7CBF9A"/>
<path opacity="0.5" d="M197.235 134.133L188.507 134.314L187.081 136.272V143.039L188.862 144.287H197.235L199.015 142.326V135.914L197.235 134.133Z" fill="#7CBF9A"/>
<path opacity="0.2" d="M197.054 135.204C197.054 135.204 189.042 136.449 188.329 135.204L188.507 134.314L197.06 134.133L197.054 135.204Z" fill="white"/>
<path opacity="0.5" d="M197.944 153.724L199.37 155.15V161.917L197.944 163.343C197.944 163.343 192.78 165.123 189.391 163.698L187.788 162.095V155.328L189.213 153.724H197.944Z" fill="#7CBF9A"/>
<path opacity="0.2" d="M197.59 155.328C197.59 155.328 191.355 156.753 189.22 155.328V153.724H197.945L197.59 155.328Z" fill="white"/>
<path opacity="0.5" d="M194.561 144.239V153.873C194.54 154.255 194.369 154.613 194.086 154.869C193.802 155.125 193.428 155.258 193.046 155.239C192.665 155.258 192.292 155.125 192.008 154.869C191.725 154.613 191.555 154.255 191.535 153.873V144.239C191.547 144.035 191.602 143.836 191.695 143.655C191.789 143.474 191.919 143.314 192.079 143.186C192.238 143.058 192.422 142.964 192.619 142.912C192.816 142.859 193.022 142.848 193.224 142.88C193.575 142.902 193.906 143.052 194.153 143.303C194.4 143.554 194.545 143.888 194.561 144.239Z" fill="#7CBF9A"/>
<path opacity="0.5" d="M211.209 134.408L202.481 134.586L201.059 136.544V143.314L202.839 144.559H211.209L212.99 142.601V136.189L211.209 134.408Z" fill="#7CBF9A"/>
<path opacity="0.2" d="M211.031 135.476C211.031 135.476 203.016 136.724 202.303 135.476L202.481 134.586L211.034 134.408L211.031 135.476Z" fill="white"/>
<path opacity="0.5" d="M211.922 154L213.344 155.423V162.19L211.922 163.615C211.922 163.615 206.755 165.396 203.368 163.973L201.768 162.38V155.603L203.194 154H211.922Z" fill="#7CBF9A"/>
<path opacity="0.2" d="M211.563 155.603C211.563 155.603 205.332 157.026 203.193 155.603V154H211.921L211.563 155.603Z" fill="white"/>
<path opacity="0.5" d="M208.538 144.512V154.143C208.518 154.524 208.347 154.882 208.063 155.138C207.779 155.394 207.406 155.527 207.024 155.508C206.642 155.527 206.269 155.394 205.985 155.138C205.701 154.882 205.53 154.524 205.51 154.143V144.512C205.51 143.694 206.302 143.061 207.202 143.156C207.553 143.176 207.883 143.327 208.13 143.577C208.377 143.827 208.523 144.16 208.538 144.512Z" fill="#7CBF9A"/>
</g>
<path d="M332.35 169.372C331.669 168.139 330.395 167.328 329.055 166.954C327.699 166.628 326.297 166.54 324.911 166.695C322.672 166.854 320.452 167.22 318.281 167.788C316.934 168.142 315.537 168.618 314.628 169.688C314.602 169.72 314.574 169.758 314.545 169.79C313.155 170.154 311.773 170.715 310.427 171.171C309.076 171.619 307.701 171.993 306.308 172.289C308.13 171.253 309.904 170.157 311.406 168.694C312.116 168.005 312.753 167.245 313.307 166.425C314.336 166.72 315.416 166.792 316.475 166.638C318.62 166.27 320.353 164.737 321.965 163.241L327.151 158.47C327.978 157.71 328.818 156.931 329.369 155.936C330.113 154.551 330.18 152.904 330.199 151.323C330.224 149.15 330.199 146.976 330.136 144.806L331.777 146.074C331.527 143.397 332.025 140.703 333.215 138.293C333.785 137.143 334.533 135.999 334.549 134.71C334.574 132.72 332.863 131.155 331.111 130.274C329.359 129.394 327.389 128.83 325.954 127.477C323.818 125.465 323.419 122.256 322.364 119.5C321.738 117.991 320.997 116.532 320.147 115.137L318.094 111.557C317.061 109.671 315.91 107.852 314.647 106.111C312.512 103.295 309.822 100.973 307.151 98.676L293.262 86.7102C289.885 83.7987 286.495 80.8841 282.843 78.337C275.432 73.1698 267.072 69.6216 258.765 66.1082C256.674 65.2212 254.498 64.3214 252.236 64.4291C250.532 64.5395 248.917 65.2305 247.661 66.387C246.471 66.0254 245.306 65.583 244.176 65.0628L244.088 65.0216C244.113 64.8346 244.141 64.6509 244.16 64.464C244.189 64.2169 244.205 63.9698 244.224 63.7195C244.849 63.623 245.455 63.4251 246.017 63.1334C246.302 62.9987 246.554 62.8029 246.755 62.56C247.01 62.1369 247.141 61.6505 247.132 61.1565C247.385 57.8459 247.639 54.5036 247.366 51.2088C247.094 47.914 246.267 44.578 244.515 41.7774C243.973 40.9094 243.295 40.0635 242.355 39.6865C241.087 39.1796 239.621 39.6516 238.268 39.4235C235.927 39.0275 234.466 36.737 232.771 35.0484C228.485 30.7747 221.154 30.1316 216.205 33.5911C214.33 34.9059 212.828 36.6895 211.155 38.2609C209.483 39.8322 207.522 41.2547 205.263 41.562C204.846 41.5796 204.439 41.6877 204.068 41.8788C203.606 42.1703 203.397 42.731 203.219 43.2506C202.586 45.0437 201.977 46.8843 201.784 48.7598C201.762 48.6458 201.743 48.5317 201.724 48.4177C201.638 49.1123 201.62 49.8137 201.67 50.5118C201.734 51.4015 201.991 52.2666 202.424 53.0462C202.785 53.7874 203.4 54.3744 204.157 54.7C204.693 54.8895 205.258 54.9807 205.827 54.9693H206.077C205.985 55.2132 205.896 55.4572 205.814 55.7043C205.109 57.7979 204.75 59.9927 204.753 62.202C204.753 73.2902 213.601 82.2749 224.525 82.2749C225.839 82.2685 227.15 82.1305 228.437 81.863C228.865 81.9993 229.293 82.1387 229.704 82.2876C230.548 82.5663 231.375 82.892 232.182 83.2633C232.524 83.4249 233.908 84.2328 235.581 85.2751L235.467 85.5127C233.835 87.0369 232.638 88.9677 231.998 91.1072C231.359 93.2466 231.3 95.5177 231.827 97.6876C233.037 102.398 237.007 106.438 236.608 111.288C236.551 111.979 236.405 112.679 236.522 113.363C236.684 114.314 237.327 115.087 237.97 115.79C238.528 116.405 239.107 117 239.697 117.583C239.649 120.678 239.38 123.77 239.088 126.856C239.063 127.125 239.057 127.398 239.053 127.673C239.071 129.007 239.555 130.293 240.422 131.307C241.341 132.425 241.708 134.101 241.534 135.597C241.284 137.738 240.229 139.68 239.522 141.711C236.335 150.845 240.251 161.144 238.046 170.575C237.504 172.898 236.592 175.156 236.462 177.545C236.389 179.037 236.624 180.602 236.05 181.98C235.553 183.178 234.517 184.043 233.538 184.882C232.154 186.067 230.807 187.292 229.495 188.557C227.513 187.474 225.467 186.511 223.368 185.674C223.026 185.537 222.677 185.416 222.323 185.313C219.845 182.994 216.722 181.512 213.788 179.807C211.355 178.397 209.036 176.813 206.704 175.229C204.487 173.709 202.221 172.175 200.346 170.221C199.396 169.232 198.55 168.142 197.526 167.239C196.627 166.491 195.674 165.809 194.675 165.199C190.18 162.287 185.895 159.064 181.851 155.552C178.768 152.879 176.246 149.435 172.952 147.037C170.934 145.567 168.586 144.227 166.115 144.502C165.328 144.595 164.565 144.83 163.862 145.196C163.207 144.918 162.508 144.762 161.797 144.733C159.788 144.67 157.944 145.76 156.221 146.809C146.083 152.969 135.787 158.856 125.332 164.467C123.222 165.602 121.1 166.726 119.085 168.025C115.153 170.568 111.67 173.744 108.776 177.425C108.244 178.1 107.572 178.866 106.726 178.765C106.495 178.729 106.272 178.65 106.07 178.53C104.768 177.824 103.97 176.459 103.219 175.163C102.674 174.212 102.085 173.221 101.287 172.498C101.116 172.049 100.888 171.623 100.609 171.231C101.733 168.456 102.703 165.614 103.602 162.753C104.071 161.252 104.524 159.741 105.123 158.283C106.599 154.678 108.953 151.412 109.787 147.597C109.986 146.675 110.103 145.728 110.259 144.797C119.367 143.004 126.242 134.868 126.242 125.098C126.242 114.009 117.39 105.025 106.47 105.025C95.5493 105.025 86.7008 114.009 86.7008 125.098C86.691 128.473 87.5303 131.796 89.1413 134.762C90.7523 137.727 93.0833 140.24 95.9199 142.069C95.9199 142.107 95.9199 142.145 95.9199 142.18C95.9009 142.817 95.8385 143.452 95.733 144.081C95.3687 146.203 94.4658 148.199 93.5565 150.135C92.9546 151.431 92.3527 152.733 91.7286 154.025C91.4291 153.965 91.1385 153.867 90.8637 153.734C90.3283 153.436 90.0938 152.784 89.8911 152.207C88.9938 149.565 87.8955 146.995 86.6058 144.521C86.1027 143.47 85.4636 142.489 84.7049 141.603C83.368 140.14 81.5369 139.272 79.7659 138.394C79.4491 138.242 79.1545 138.077 78.8503 137.932C78.5873 137.736 78.3122 137.557 78.0266 137.396C76.5535 136.563 74.9188 135.964 73.6895 134.798C72.7676 133.924 72.134 132.787 71.2723 131.858C69.8372 130.316 67.8571 129.435 65.9341 128.595C64.933 128.158 63.8812 127.711 62.7882 127.772C62.6342 127.779 62.4808 127.796 62.3288 127.822C62.066 127.867 61.8058 127.926 61.5495 128C61.3 127.867 61.0644 127.71 60.8462 127.531C59.6708 126.625 59.2146 125.069 58.8313 123.621C58.1977 121.201 57.5292 118.695 57.9221 116.218C57.9904 115.79 58.0835 115.367 58.2008 114.95C58.299 114.789 58.3941 114.634 58.4796 114.459C61.0019 113.701 63.3065 112.351 65.2013 110.522C67.0962 108.693 68.5265 106.437 69.373 103.943C70.2195 101.449 70.4577 98.7891 70.0679 96.1844C69.678 93.5797 68.6713 91.1059 67.1316 88.969C66.9701 88.7473 66.8148 88.5318 66.6343 88.3164L66.8243 88.2119C68.5763 87.1411 68.9755 84.5812 68.1644 82.6741C67.3534 80.7669 65.63 79.4205 63.8844 78.3623C63.6309 78.2071 63.3743 78.0614 63.1145 77.9156L62.8928 77.7952C62.6963 77.6875 62.5031 77.583 62.3067 77.4784L62.0754 77.3612C61.8441 77.244 61.6129 77.1331 61.3816 77.0254L61.277 76.9747C60.9887 76.8448 60.7004 76.7181 60.409 76.5977C60.127 76.4805 59.8451 76.3728 59.5599 76.2809L59.4427 76.2365C59.1734 76.1383 58.901 76.0465 58.6285 75.9577L58.5683 75.9387C56.5756 75.291 54.4982 74.9408 52.4033 74.8996C50.3525 74.9119 48.3086 75.138 46.3047 75.5744C44.3537 75.9277 42.4433 76.4764 40.6022 77.2123C37.5594 78.5018 34.8768 80.5135 32.7866 83.0732C32.346 83.1066 31.9092 83.1787 31.4813 83.2887C29.7674 83.7227 28.2245 84.6795 26.8147 85.7629C25.6339 86.631 24.5878 87.6687 23.71 88.8423C22.6763 90.3462 21.9635 92.0469 21.6159 93.8384C20.4152 99.4553 21.8916 105.243 22.9782 110.889C24.0649 116.534 24.6921 122.687 22.0278 127.753C21.0235 129.653 19.5979 131.304 18.5429 133.17C17.4879 135.036 16.7561 137.288 17.3644 139.357C18.1025 141.87 20.5325 143.45 21.7997 145.731C23.2823 148.389 22.8737 151.96 20.9348 154.285C20.8493 154.387 20.7637 154.488 20.6718 154.602C20.58 154.716 20.4501 154.836 20.3297 154.944C22.3288 155.647 24.5559 154.89 26.349 153.762C27.7831 152.915 28.9992 151.745 29.9004 150.344C32.1656 146.625 31.1487 141.816 31.947 137.517C32.9957 131.887 37.2282 126.866 36.6453 121.166C36.2524 117.342 33.756 114.146 31.795 110.857C30.4914 108.65 29.3989 106.325 28.5318 103.913C28.497 103.811 28.4621 103.707 28.4241 103.596C27.8507 101.964 27.4103 100.235 27.705 98.5271C27.8055 97.974 27.9714 97.4348 28.1992 96.9209C28.1992 96.9811 28.1992 97.0444 28.1992 97.1046C28.2377 98.7562 28.605 100.384 29.2795 101.892C31.2595 106.01 36.0243 107.911 39.0498 111.25C39.1766 111.389 39.2969 111.532 39.4173 111.678C39.4522 111.716 39.4839 111.757 39.5155 111.798L39.7722 112.115L39.8799 112.264C39.9591 112.375 40.0383 112.486 40.1111 112.6L40.2094 112.742C40.3107 112.904 40.4121 113.059 40.5072 113.233C41.277 112.381 42.0722 111.485 42.3827 110.382C42.4112 110.287 42.4302 110.189 42.4492 110.091C42.4745 110.116 42.4967 110.144 42.522 110.173C42.5822 110.512 42.6298 110.851 42.6741 111.193C42.6741 111.682 42.7261 112.169 42.8294 112.647C43.0701 115.689 42.8769 118.812 42.6741 121.863C42.5664 123.495 42.9909 125.918 41.9518 127.135L41.9201 127.17C41.8592 127.241 41.7924 127.306 41.7205 127.366C41.5431 127.55 41.3625 127.73 41.1946 127.92C37.7097 131.849 36.1257 137.425 36.2081 142.766C36.2904 148.846 38.2325 154.735 40.4343 160.39C41.2033 162.455 42.1092 164.466 43.1462 166.409C43.6814 167.459 44.3893 168.411 45.2403 169.226C46.1305 170.015 47.214 170.534 48.2816 171.041C48.5477 171.168 48.817 171.291 49.0831 171.421L49.7643 171.738L54.9504 174.203C55.9008 175.6 56.8196 177.035 57.7478 178.473C57.8809 178.676 58.0108 178.885 58.147 179.088C59.1608 180.672 60.1809 182.256 61.22 183.796L69.9607 196.741C70.5943 197.691 71.2565 198.641 72.1467 199.345C72.3999 199.544 72.674 199.715 72.9641 199.855C73.1114 199.926 73.2626 199.988 73.4171 200.042C73.2252 200.33 73.1432 200.677 73.1858 201.021C73.3026 201.357 73.5248 201.647 73.8194 201.847C75.7963 203.482 77.9918 205.206 78.6127 207.718C79.0531 209.508 78.6127 211.425 79.0087 213.224C79.7342 216.468 82.9435 218.436 85.9785 219.684C92.7803 222.478 100.336 223.552 107.563 222.253C114.789 220.954 121.654 217.206 126.333 211.482C127.772 209.714 128.998 207.784 130.363 205.96C131.314 204.673 132.359 203.447 133.439 202.266C134.605 201.733 135.729 201.112 136.801 200.409C139.085 198.892 141.052 196.943 143.137 195.137C144.692 193.782 146.321 192.502 147.75 191.019C149.032 189.613 150.231 188.132 151.339 186.584C153.873 183.226 156.491 179.934 159.193 176.709C160.637 174.982 162.167 173.224 164.186 172.273L164.277 172.235C164.518 173.655 165.643 174.859 166.432 176.085C169.695 181.154 173.11 186.371 178.154 189.603C180.916 191.371 184.04 192.454 187.157 193.443C195.077 195.945 203.124 197.91 211.178 199.877C211.444 199.37 211.703 198.901 211.995 198.445C212.12 198.577 212.236 198.717 212.343 198.863C212.378 198.914 212.407 198.968 212.442 199.018C212.383 199.03 212.326 199.046 212.271 199.066C211.753 199.307 211.347 199.735 211.133 200.263C210.265 202.003 210.183 204.021 210.142 205.966C210.113 207.867 210.142 209.768 210.142 211.669C210.095 212.378 210.203 213.089 210.458 213.753C211.073 215.02 212.635 215.492 214.032 215.654C216.459 215.923 218.904 215.695 221.319 215.369C221.458 215.938 221.686 216.482 221.993 216.981C223.349 219.199 225.691 220.663 228.127 221.521C230.563 222.38 233.145 222.722 235.676 223.226C240.172 224.119 244.772 225.548 249.242 224.54C251.026 224.138 252.727 223.359 254.51 223.017C258.594 222.244 262.827 223.809 266.939 223.181C268.925 222.864 270.804 222.072 272.603 221.163C273.51 220.765 274.333 220.197 275.027 219.49C275.686 218.749 276.082 217.697 275.809 216.737C275.654 216.186 275.299 215.717 275.062 215.198C274.743 214.367 274.562 213.489 274.526 212.6C274.196 209.235 273.626 205.898 272.822 202.614C272.8 202.522 272.774 202.427 272.749 202.332C275.857 201.1 278.642 199.164 281.392 197.238L287.306 193.1C289.207 191.76 291.156 190.414 293.291 189.476C296.567 188.038 300.194 187.626 303.764 187.629C305.225 187.629 306.689 187.702 308.143 187.835C307.957 188.037 307.818 188.277 307.734 188.538C307.443 189.444 307.905 190.439 308.593 191.101C309.28 191.763 310.177 192.137 310.985 192.597C313.217 193.854 315.075 195.68 316.37 197.891C317.181 199.281 317.771 200.97 317.257 202.5C316.624 204.42 314.365 205.744 314.495 207.765C314.571 208.957 315.531 209.942 316.624 210.382C317.717 210.823 318.93 210.816 320.109 210.781C322.038 210.721 324.024 210.572 325.751 209.695C326.914 209.102 327.899 208.209 328.865 207.325C329.746 206.517 330.646 205.678 331.146 204.588C331.615 203.561 331.688 202.399 331.71 201.271C331.805 195.961 330.89 190.579 331.944 185.377C332.261 183.793 332.768 182.243 333.037 180.647C333.462 178.112 333.3 175.552 333.139 173.005C333.06 171.751 332.965 170.458 332.35 169.372Z" fill="url(#paint0_linear)"/>
<path opacity="0.06" d="M265.414 95.9388C264.169 96.7783 263.735 98.4004 263.577 99.8957C262.902 106.254 265.525 112.549 265.351 118.939C265.212 124.024 263.317 128.874 261.448 133.604C258.261 141.673 256.601 150.436 255.958 159.088C255.315 167.74 254.374 176.75 249.729 184.068C248.674 185.725 247.445 187.265 246.412 188.931C245.329 190.674 244.47 192.543 243.514 194.355C240.695 199.707 237.061 204.588 232.742 208.824C231.475 210.059 230.132 211.257 228.516 211.969C227.475 212.421 226.354 212.66 225.219 212.672C224.084 212.684 222.958 212.469 221.907 212.039C219.74 211.143 217.916 209.121 217.827 206.777C217.748 204.68 218.999 202.788 220.254 201.109C224.506 195.421 229.395 190.238 234.827 185.662C235.812 184.832 236.851 183.973 237.361 182.788C237.935 181.423 237.7 179.874 237.773 178.394C237.89 176.034 238.809 173.794 239.357 171.494C241.575 162.152 237.634 151.95 240.84 142.899C241.553 140.887 242.611 138.964 242.861 136.845C243.038 135.362 242.671 133.705 241.743 132.593C240.873 131.594 240.387 130.319 240.371 128.994C240.371 128.722 240.371 128.453 240.403 128.187C240.789 124.04 241.172 119.874 240.963 115.714C240.754 111.554 239.927 107.372 238.007 103.675C237.013 101.759 235.726 99.9654 235.112 97.8967C234.123 94.548 235.036 90.9269 236.509 87.7588C237.659 85.2814 239.192 82.9212 241.334 81.2231C245.313 78.0709 251.269 77.7065 255.625 80.3139C258.838 82.2337 261.036 85.462 262.82 88.7536C264.1 91.1582 265.433 93.1952 265.414 95.9388Z" fill="black"/>
<path d="M254.856 70.6892C254.247 72.3302 253.642 73.9713 253.04 75.6124C252.641 76.6895 252.245 77.7762 251.833 78.8533C249.932 83.8177 247.807 88.7028 244.48 92.8118C244.978 92.1972 240.298 89.1052 236.848 86.9952C235.166 85.9593 233.772 85.1609 233.43 85.0025C232.617 84.6351 231.784 84.3115 230.937 84.0331C229.622 83.5896 228.291 83.2062 226.977 82.7279C223.935 81.6285 226.061 79.978 227.363 78.2038C231.624 72.3936 232.432 64.4544 237.27 59.1162C239.044 62.487 241.85 65.2014 245.278 66.8621C245.345 66.897 245.415 66.9287 245.484 66.9572C248.358 68.3004 251.532 68.8802 254.504 70.0049C254.665 70.0651 254.852 70.1506 254.906 70.3217C254.926 70.4465 254.909 70.5745 254.856 70.6892Z" fill="#A1616A"/>
<path d="M246.583 188.041C245.207 190.013 244.35 192.3 244.093 194.69C243.835 197.081 244.185 199.498 245.11 201.718C245.344 202.338 245.708 202.901 246.178 203.368C246.776 203.835 247.472 204.16 248.215 204.319C254.507 206.108 261.223 205.757 267.667 204.635C269.85 204.299 271.995 203.753 274.073 203.004C277.263 201.784 280.111 199.836 282.924 197.89L288.874 193.791C290.8 192.464 292.742 191.13 294.893 190.198C298.188 188.776 301.838 188.367 305.427 188.37C308.51 188.374 311.586 188.668 314.614 189.248C316.633 189.638 319.05 190.04 320.469 188.567C321.28 187.734 321.521 186.514 321.679 185.364C322.306 180.889 322.294 176.349 321.644 171.877C321.629 171.501 321.492 171.14 321.255 170.848C321.031 170.658 320.759 170.534 320.469 170.49C317.665 169.856 314.852 171.171 312.128 172.074C306.466 173.956 300.387 174.181 294.627 175.73C288.582 177.355 282.905 180.431 276.658 181.055C273.68 181.353 270.689 181.093 267.705 181.16C264.936 181.22 262.354 182.177 259.642 182.291C254.415 182.522 249.869 183.435 246.583 188.041Z" fill="#A1616A"/>
<path opacity="0.06" d="M246.583 188.041C245.207 190.013 244.35 192.3 244.093 194.69C243.835 197.081 244.185 199.498 245.11 201.718C245.344 202.338 245.708 202.901 246.178 203.368C246.776 203.835 247.472 204.16 248.215 204.319C254.507 206.108 261.223 205.757 267.667 204.635C269.85 204.299 271.995 203.753 274.073 203.004C277.263 201.784 280.111 199.836 282.924 197.89L288.874 193.791C290.8 192.464 292.742 191.13 294.893 190.198C298.188 188.776 301.838 188.367 305.427 188.37C308.51 188.374 311.586 188.668 314.614 189.248C316.633 189.638 319.05 190.04 320.469 188.567C321.28 187.734 321.521 186.514 321.679 185.364C322.306 180.889 322.294 176.349 321.644 171.877C321.629 171.501 321.492 171.14 321.255 170.848C321.031 170.658 320.759 170.534 320.469 170.49C317.665 169.856 314.852 171.171 312.128 172.074C306.466 173.956 300.387 174.181 294.627 175.73C288.582 177.355 282.905 180.431 276.658 181.055C273.68 181.353 270.689 181.093 267.705 181.16C264.936 181.22 262.354 182.177 259.642 182.291C254.415 182.522 249.869 183.435 246.583 188.041Z" fill="black"/>
<path d="M251.697 181.344C251.548 182.044 251.415 182.785 251.624 183.47C251.884 184.143 252.322 184.732 252.891 185.174C258.277 189.996 265.972 190.994 273.167 191.776C275.115 191.989 277.099 192.201 279.028 191.849C280.786 191.532 282.427 190.756 284.046 189.989C287.531 188.339 291.035 186.669 294.023 184.243C296.953 181.867 299.304 178.825 302.339 176.585C305.789 174.051 310.031 172.6 313.11 169.616C315.337 167.468 316.816 164.663 317.333 161.613C317.682 159.532 317.568 157.406 317.333 155.309C317.083 152.898 316.681 150.446 315.534 148.31C314.206 145.839 311.976 143.973 309.622 142.44C304.642 139.202 298.778 137.194 292.831 137.244C284.594 137.317 276.991 142.11 271.079 147.493C264.826 153.194 259.765 160.078 256.189 167.746C254.17 172.09 252.663 176.653 251.697 181.344Z" fill="#464353"/>
<path opacity="0.06" d="M251.697 181.344C251.548 182.044 251.415 182.785 251.624 183.47C251.884 184.143 252.322 184.732 252.891 185.174C258.277 189.996 265.972 190.994 273.167 191.776C275.115 191.989 277.099 192.201 279.028 191.849C280.786 191.532 282.427 190.756 284.046 189.989C287.531 188.339 291.035 186.669 294.023 184.243C296.953 181.867 299.304 178.825 302.339 176.585C305.789 174.051 310.031 172.6 313.11 169.616C315.337 167.468 316.816 164.663 317.333 161.613C317.682 159.532 317.568 157.406 317.333 155.309C317.083 152.898 316.681 150.446 315.534 148.31C314.206 145.839 311.976 143.973 309.622 142.44C304.642 139.202 298.778 137.194 292.831 137.244C284.594 137.317 276.991 142.11 271.079 147.493C264.826 153.194 259.765 160.078 256.189 167.746C254.17 172.09 252.663 176.653 251.697 181.344Z" fill="black"/>
<path d="M265.414 95.9388C264.169 96.7783 263.735 98.4004 263.577 99.8957C262.902 106.254 265.525 112.549 265.351 118.939C265.212 124.024 263.317 128.874 261.448 133.604C258.261 141.673 256.601 150.436 255.958 159.088C255.315 167.74 254.374 176.75 249.729 184.068C248.674 185.725 247.445 187.265 246.412 188.931C245.329 190.674 244.47 192.543 243.514 194.355C240.695 199.707 237.061 204.588 232.742 208.824C231.475 210.059 230.132 211.257 228.516 211.969C227.475 212.421 226.354 212.66 225.219 212.672C224.084 212.684 222.958 212.469 221.907 212.039C219.74 211.143 217.916 209.121 217.827 206.777C217.748 204.68 218.999 202.788 220.254 201.109C224.506 195.421 229.395 190.238 234.827 185.662C235.812 184.832 236.851 183.973 237.361 182.788C237.935 181.423 237.7 179.874 237.773 178.394C237.89 176.034 238.809 173.794 239.357 171.494C241.575 162.152 237.634 151.95 240.84 142.899C241.553 140.887 242.611 138.964 242.861 136.845C243.038 135.362 242.671 133.705 241.743 132.593C240.873 131.594 240.387 130.319 240.371 128.994C240.371 128.722 240.371 128.453 240.403 128.187C240.789 124.04 241.172 119.874 240.963 115.714C240.754 111.554 239.927 107.372 238.007 103.675C237.013 101.759 235.726 99.9654 235.112 97.8967C234.123 94.548 235.036 90.9269 236.509 87.7588C237.659 85.2814 239.192 82.9212 241.334 81.2231C245.313 78.0709 251.269 77.7065 255.625 80.3139C258.838 82.2337 261.036 85.462 262.82 88.7536C264.1 91.1582 265.433 93.1952 265.414 95.9388Z" fill="#A1616A"/>
<path d="M247.911 117.222C254.534 117.222 259.902 108.798 259.902 98.4065C259.902 88.0152 254.534 79.5913 247.911 79.5913C241.289 79.5913 235.92 88.0152 235.92 98.4065C235.92 108.798 241.289 117.222 247.911 117.222Z" fill="#A1616A"/>
<path d="M217.33 196.728C217.684 197.227 217.924 197.798 218.034 198.4C218.143 199.002 218.119 199.621 217.963 200.213C219.094 201.024 220.468 201.424 221.857 201.347C223.236 201.272 224.591 200.96 225.864 200.425C226.972 200.021 228.02 199.471 228.982 198.79C230.636 197.567 231.833 195.818 232.784 194.006C233.319 193.005 233.775 191.709 233.1 190.81C232.835 190.504 232.512 190.255 232.15 190.075C229.709 188.682 227.167 187.474 224.547 186.46C223.827 186.128 223.045 185.953 222.253 185.947C221.28 186.001 220.396 186.533 219.623 187.128C217.886 188.48 216.485 190.214 215.53 192.197C215.232 192.831 214.333 194.336 214.779 194.988C214.982 195.289 215.73 195.394 216.047 195.584C216.55 195.87 216.988 196.26 217.33 196.728Z" fill="#FBBEBE"/>
<path opacity="0.03" d="M217.33 196.728C217.684 197.227 217.924 197.798 218.034 198.4C218.143 199.002 218.119 199.621 217.963 200.213C219.094 201.024 220.468 201.424 221.857 201.347C223.236 201.272 224.591 200.96 225.864 200.425C226.972 200.021 228.02 199.471 228.982 198.79C230.636 197.567 231.833 195.818 232.784 194.006C233.319 193.005 233.775 191.709 233.1 190.81C232.835 190.504 232.512 190.255 232.15 190.075C229.709 188.682 227.167 187.474 224.547 186.46C223.827 186.128 223.045 185.953 222.253 185.947C221.28 186.001 220.396 186.533 219.623 187.128C217.886 188.48 216.485 190.214 215.53 192.197C215.232 192.831 214.333 194.336 214.779 194.988C214.982 195.289 215.73 195.394 216.047 195.584C216.55 195.87 216.988 196.26 217.33 196.728Z" fill="black"/>
<path d="M230.449 189.387C235.81 190.382 240.739 192.974 246.008 194.371C248.14 194.935 250.335 195.321 252.372 196.151C254.409 196.981 256.329 198.401 257.207 200.422C257.578 201.392 257.824 202.405 257.939 203.438C258.167 204.898 258.354 206.53 257.486 207.727C256.57 208.995 254.84 209.273 253.291 209.46C247.722 210.122 242.152 210.788 236.564 211.257C235.432 211.325 234.306 211.459 233.19 211.659C232.271 211.843 231.374 212.121 230.462 212.337C229.28 212.612 228.08 212.787 226.882 212.97C223.819 213.411 220.72 213.851 217.644 213.515C216.241 213.36 214.669 212.907 214.051 211.64C213.795 210.983 213.687 210.278 213.735 209.574C213.719 207.692 213.703 205.814 213.735 203.935C213.763 202.006 213.858 200.004 214.733 198.283C214.949 197.757 215.358 197.332 215.876 197.095C216.195 197.004 216.528 196.974 216.858 197.007C218.506 197.064 220.21 197.133 221.683 197.868C222.852 198.448 223.803 199.414 224.994 199.94C227.25 200.941 229.971 200.222 232.255 201.163C232.787 199.522 232.667 197.862 232.271 196.18C231.875 194.497 231.321 192.847 231.153 191.13C231.146 190.752 231.073 190.379 230.937 190.027C230.766 189.676 230.823 189.333 230.449 189.387Z" fill="#464353"/>
<path opacity="0.06" d="M230.449 189.387C235.81 190.382 240.739 192.974 246.008 194.371C248.14 194.935 250.335 195.321 252.372 196.151C254.409 196.981 256.329 198.401 257.207 200.422C257.578 201.392 257.824 202.405 257.939 203.438C258.167 204.898 258.354 206.53 257.486 207.727C256.57 208.995 254.84 209.273 253.291 209.46C247.722 210.122 242.152 210.788 236.564 211.257C235.432 211.325 234.306 211.459 233.19 211.659C232.271 211.843 231.374 212.121 230.462 212.337C229.28 212.612 228.08 212.787 226.882 212.97C223.819 213.411 220.72 213.851 217.644 213.515C216.241 213.36 214.669 212.907 214.051 211.64C213.795 210.983 213.687 210.278 213.735 209.574C213.719 207.692 213.703 205.814 213.735 203.935C213.763 202.006 213.858 200.004 214.733 198.283C214.949 197.757 215.358 197.332 215.876 197.095C216.195 197.004 216.528 196.974 216.858 197.007C218.506 197.064 220.21 197.133 221.683 197.868C222.852 198.448 223.803 199.414 224.994 199.94C227.25 200.941 229.971 200.222 232.255 201.163C232.787 199.522 232.667 197.862 232.271 196.18C231.875 194.497 231.321 192.847 231.153 191.13C231.146 190.752 231.073 190.379 230.937 190.027C230.766 189.676 230.823 189.333 230.449 189.387Z" fill="black"/>
<path d="M51.386 135.369C50.3057 135.026 49.2634 135.983 48.6583 136.953C46.1428 140.906 46.3488 146.184 48.3605 150.417C48.8391 151.49 49.4993 152.473 50.312 153.322C51.4018 154.396 52.8053 155.083 54.1137 155.856C57.7442 158.001 60.8556 160.922 63.2251 164.41C64.7743 166.694 65.994 169.207 67.7523 171.333C72.0799 176.566 79.1922 178.936 83.3899 184.258C84.3941 185.525 85.2432 186.995 86.5833 187.917C87.3799 188.465 88.3083 188.79 89.2726 188.859C90.2369 188.928 91.2021 188.738 92.0685 188.309C92.935 187.881 93.6712 187.228 94.2011 186.42C94.7311 185.611 95.0356 184.676 95.0832 183.71C96.7148 181.312 98.0485 178.663 99.3189 176.053C101.199 172.068 102.787 167.953 104.071 163.739C104.543 162.25 104.999 160.751 105.601 159.303C107.087 155.73 109.454 152.495 110.29 148.719C110.626 147.204 110.708 145.63 111.196 144.16C111.633 142.841 112.381 141.645 113.376 140.675C116.67 137.472 118.445 132.806 121.065 129.036C122.129 127.512 123.235 125.991 123.938 124.268C124.641 122.544 124.911 120.57 124.255 118.828C123.599 117.086 121.885 115.679 120.029 115.777C119.198 115.863 118.392 116.111 117.656 116.506C115.097 117.72 112.75 119.337 110.705 121.296C109.811 122.157 108.964 123.066 108.171 124.021C104.299 128.646 101.27 134.26 101.004 140.285C100.916 142.351 101.08 144.641 99.7688 146.241C96.1509 150.661 94.9882 156.737 91.9025 161.546C90.4737 163.764 88.8358 166.061 86.3932 167.071C86.0324 167.245 85.6333 167.324 85.2337 167.3C84.2579 167.189 83.6972 166.162 83.2853 165.269C81.6759 161.784 79.8133 158.422 77.7127 155.21C76.8826 153.943 75.9671 152.644 74.6397 151.9C73.7336 151.396 72.6818 151.171 71.8296 150.582C70.6415 149.761 70.0206 148.364 69.4028 147.056C67.4006 142.83 64.8656 138.878 61.8596 135.296C60.4847 133.658 58.6726 131.966 56.55 132.21C54.5287 132.448 53.2932 134.573 51.386 135.369Z" fill="#FBBEBE"/>
<path opacity="0.03" d="M51.386 135.369C50.3057 135.026 49.2634 135.983 48.6583 136.953C46.1428 140.906 46.3488 146.184 48.3605 150.417C48.8391 151.49 49.4993 152.473 50.312 153.322C51.4018 154.396 52.8053 155.083 54.1137 155.856C57.7442 158.001 60.8556 160.922 63.2251 164.41C64.7743 166.694 65.994 169.207 67.7523 171.333C72.0799 176.566 79.1922 178.936 83.3899 184.258C84.3941 185.525 85.2432 186.995 86.5833 187.917C87.3799 188.465 88.3083 188.79 89.2726 188.859C90.2369 188.928 91.2021 188.738 92.0685 188.309C92.935 187.881 93.6712 187.228 94.2011 186.42C94.7311 185.611 95.0356 184.676 95.0832 183.71C96.7148 181.312 98.0485 178.663 99.3189 176.053C101.199 172.068 102.787 167.953 104.071 163.739C104.543 162.25 104.999 160.751 105.601 159.303C107.087 155.73 109.454 152.495 110.29 148.719C110.626 147.204 110.708 145.63 111.196 144.16C111.633 142.841 112.381 141.645 113.376 140.675C116.67 137.472 118.445 132.806 121.065 129.036C122.129 127.512 123.235 125.991 123.938 124.268C124.641 122.544 124.911 120.57 124.255 118.828C123.599 117.086 121.885 115.679 120.029 115.777C119.198 115.863 118.392 116.111 117.656 116.506C115.097 117.72 112.75 119.337 110.705 121.296C109.811 122.157 108.964 123.066 108.171 124.021C104.299 128.646 101.27 134.26 101.004 140.285C100.916 142.351 101.08 144.641 99.7688 146.241C96.1509 150.661 94.9882 156.737 91.9025 161.546C90.4737 163.764 88.8358 166.061 86.3932 167.071C86.0324 167.245 85.6333 167.324 85.2337 167.3C84.2579 167.189 83.6972 166.162 83.2853 165.269C81.6759 161.784 79.8133 158.422 77.7127 155.21C76.8826 153.943 75.9671 152.644 74.6397 151.9C73.7336 151.396 72.6818 151.171 71.8296 150.582C70.6415 149.761 70.0206 148.364 69.4028 147.056C67.4006 142.83 64.8656 138.878 61.8596 135.296C60.4847 133.658 58.6726 131.966 56.55 132.21C54.5287 132.448 53.2932 134.573 51.386 135.369Z" fill="black"/>
<path d="M51.1645 120.232C55.7767 120.232 59.5156 116.857 59.5156 112.695C59.5156 108.532 55.7767 105.158 51.1645 105.158C46.5524 105.158 42.8135 108.532 42.8135 112.695C42.8135 116.857 46.5524 120.232 51.1645 120.232Z" fill="#FBBEBE"/>
<path d="M58.9962 114.152C60.6567 114.152 62.0028 112.806 62.0028 111.145C62.0028 109.485 60.6567 108.139 58.9962 108.139C57.3358 108.139 55.9897 109.485 55.9897 111.145C55.9897 112.806 57.3358 114.152 58.9962 114.152Z" fill="#FBBEBE"/>
<path d="M52.2601 112.695C58.6132 112.695 63.7634 111.317 63.7634 109.618C63.7634 107.92 58.6132 106.542 52.2601 106.542C45.907 106.542 40.7568 107.92 40.7568 109.618C40.7568 111.317 45.907 112.695 52.2601 112.695Z" fill="#FBBEBE"/>
<path d="M42.0025 108.963C42.2824 109.85 42.5025 110.755 42.6615 111.671C41.6956 110.691 40.8588 109.591 40.1714 108.399C39.986 108.193 39.8371 107.957 39.731 107.702C38.7045 105.313 38.0044 102.896 38.0044 100.279C38.0042 97.2447 38.8523 94.271 40.453 91.6934C42.0537 89.1159 44.3432 87.0373 47.063 85.6923C49.7827 84.3473 52.8243 83.7896 55.8443 84.0822C58.8643 84.3747 61.7424 85.5058 64.1534 87.3477C66.5645 89.1896 68.4125 91.669 69.4888 94.5059C70.565 97.3427 70.8267 100.424 70.2441 103.402C69.6616 106.379 68.2581 109.135 66.1921 111.357C64.1261 113.579 61.48 115.179 58.5525 115.977C59.0499 114.374 59.731 112.809 59.8197 111.145C59.8732 110.591 59.7928 110.031 59.5853 109.514C59.3073 108.964 58.8969 108.491 58.3909 108.139C56.5788 106.754 54.2471 106.149 51.9661 106.187C49.6824 106.282 47.439 106.82 45.3607 107.771C44.7049 108.053 43.9192 108.433 43.143 108.693C42.773 108.821 42.3908 108.912 42.0025 108.963Z" fill="#FBBEBE"/>
<path d="M83.2666 144.565C82.2243 146.235 79.9971 146.745 78.0392 146.596C74.3896 146.327 71.0695 144.379 68.2499 142.034C65.4303 139.69 62.9656 136.965 60.0826 134.71C54.7191 130.506 48.6775 128.817 41.8535 128.719C43.1873 127.613 42.6962 124.99 42.8039 123.267C43.0384 119.782 43.2601 116.205 42.8039 112.771C42.7564 112.4 42.7026 112.036 42.6392 111.671C42.7469 111.785 42.861 111.896 42.9782 112.01C45.0075 113.958 47.5065 115.347 50.2318 116.042C52.9572 116.737 55.8161 116.714 58.5303 115.977C58.3557 116.529 58.2191 117.092 58.1216 117.662C57.7287 120.111 58.3877 122.595 59.0371 124.993C59.4236 126.428 59.883 127.968 61.0647 128.865C61.8314 129.447 62.7976 129.676 63.7069 129.983C65.5193 130.601 67.1923 131.569 68.6301 132.834C69.6312 133.712 70.5309 134.735 71.6049 135.498C72.6263 136.145 73.7022 136.7 74.8205 137.159C77.565 138.425 80.1581 139.997 82.5506 141.844C83.0021 142.126 83.3535 142.543 83.5549 143.035C83.614 143.297 83.619 143.567 83.5694 143.83C83.5198 144.093 83.4167 144.344 83.2666 144.565Z" fill="#FBBEBE"/>
<path d="M101.98 175.261C101.761 176.705 100.437 177.833 99.5024 178.955C96.9616 182.021 94.3859 185.098 91.5442 187.905C88.5028 190.905 85.1637 193.579 81.8277 196.252L77.5001 199.715C76.9663 200.203 76.3405 200.58 75.6595 200.824C74.8617 201.023 74.0186 200.923 73.2897 200.542C72.9995 200.403 72.7245 200.234 72.4692 200.038C71.5727 199.341 70.9137 198.391 70.2706 197.456C67.3433 193.184 64.4128 188.91 61.4792 184.635C60.4337 183.108 59.4073 181.54 58.3871 179.972C58.2509 179.769 58.121 179.563 57.9848 179.36C57.0534 177.935 56.1251 176.509 55.1715 175.131L49.9569 172.688L49.2726 172.371L48.4647 171.994C47.3908 171.491 46.3009 170.978 45.4075 170.198C44.5521 169.394 43.8396 168.45 43.3008 167.407C42.2573 165.478 41.345 163.481 40.5699 161.429C38.3522 155.831 36.4007 149.995 36.3183 143.97C36.2455 138.669 37.8105 133.157 41.3334 129.267C41.8149 128.731 42.3325 128.23 42.8826 127.765C43.5606 127.198 44.2607 126.865 45.1319 126.989C46.0031 127.112 46.83 127.239 47.6664 127.382C49.9727 127.779 52.2611 128.264 54.5316 128.839C56.5782 129.362 58.6976 129.957 60.7664 129.542C61.099 129.476 61.4285 129.381 61.758 129.295C62.0273 129.225 62.2934 129.159 62.569 129.115C62.722 129.088 62.8764 129.071 63.0315 129.064C64.1308 129.007 65.1858 129.447 66.1996 129.881C68.1353 130.711 70.128 131.586 71.5853 133.113C72.4534 134.031 73.0902 135.159 74.0152 136.024C75.2508 137.181 76.8982 137.773 78.3808 138.6C78.6673 138.759 78.9434 138.935 79.2077 139.129C79.7925 139.567 80.3241 140.072 80.7917 140.634C82.7116 142.899 83.8521 145.956 85.9715 148.209C87.6677 150.008 89.1419 152.004 90.3625 154.155C90.5621 154.513 90.7553 154.874 90.9454 155.242C91.2622 155.853 91.5569 156.474 91.8293 157.101C91.899 157.263 91.9687 157.418 92.0321 157.586C92.4307 158.535 92.7786 159.505 93.0744 160.491C93.7935 162.883 94.2719 165.465 95.8686 167.385C96.9838 168.719 98.5298 169.603 99.8319 170.753C100.67 171.463 101.33 172.36 101.758 173.373C101.993 173.972 102.07 174.623 101.98 175.261Z" fill="#FBBEBE"/>
<path opacity="0.06" d="M93.16 156.233C92.7967 156.692 92.424 157.144 92.0417 157.589C91.9783 157.672 91.9086 157.751 91.8389 157.83C88.5041 161.731 84.6866 165.192 80.4782 168.13C77.8741 169.948 75.1273 171.561 72.387 173.17L67.3181 176.138C65.1986 177.383 63.0507 178.638 60.6999 179.354C59.9459 179.579 59.1571 179.759 58.3873 179.972C58.251 179.769 58.1211 179.563 57.9849 179.36C57.0535 177.935 56.1253 176.509 55.1717 175.131L49.957 172.688C52.8369 170.868 55.3918 168.579 57.516 165.915C60.6841 162.009 63.1204 157.554 65.5218 153.129C65.9475 152.414 66.2787 151.647 66.507 150.848C66.8238 149.52 66.5577 148.126 66.168 146.821C64.7416 142.141 61.7423 138.098 57.6776 135.375C54.8263 133.474 51.5822 132.318 48.3571 131.202C46.1046 130.423 43.6367 129.669 41.3462 129.989C41.827 129.454 42.3446 128.953 42.8954 128.491C43.5733 127.92 44.2735 127.588 45.1447 127.711C46.0159 127.835 46.8428 127.961 47.6792 128.107C49.3741 128.627 51.0405 129.248 52.6974 129.888C53.7874 130.287 54.8463 130.767 55.8655 131.323C56.8799 131.942 57.8544 132.625 58.7833 133.366C61.5303 135.46 64.4226 137.356 67.4384 139.04C70.9233 140.963 74.5824 142.525 78.2384 144.109C78.6261 144.308 79.054 144.417 79.4898 144.426C79.7081 144.426 79.92 144.353 80.0921 144.218C80.2642 144.084 80.3867 143.896 80.4402 143.685C80.4547 143.454 80.4019 143.224 80.2881 143.023C79.6545 141.727 78.2162 141.074 76.9141 140.444C71.5094 137.827 66.7573 134.06 62.0559 130.322C61.9417 130.231 61.8414 130.124 61.7581 130.005L62.5691 129.824C67.8306 133.603 73.3873 136.953 79.1857 139.842C79.4919 139.998 79.7992 140.15 80.1076 140.298C80.3293 140.409 80.5479 140.517 80.7729 140.615C82.3347 141.381 83.8966 142.199 85.0719 143.466C85.83 144.34 86.4691 145.311 86.9728 146.352C88.2677 148.799 89.3734 151.34 90.2802 153.956C90.2975 154.011 90.3176 154.066 90.3404 154.12C90.4554 154.52 90.6541 154.89 90.9234 155.207C91.0182 155.313 91.1308 155.402 91.256 155.47C91.8516 155.822 92.669 155.784 93.16 156.233Z" fill="black"/>
<path d="M62.5818 129.115C67.8425 132.894 73.3994 136.243 79.1983 139.129L80.1202 139.588C81.8944 140.456 83.7413 141.318 85.0878 142.756C85.8451 143.632 86.4842 144.603 86.9886 145.646C88.2843 148.091 89.3891 150.633 90.2929 153.249C90.4957 153.829 90.7333 154.466 91.2719 154.763C91.8104 155.061 92.6658 155.039 93.1442 155.489C92.7133 156.027 92.2761 156.56 91.8231 157.073C88.4892 160.976 84.6716 164.438 80.4624 167.375C77.8582 169.194 75.1115 170.806 72.3711 172.416L67.3022 175.384C65.1828 176.626 63.0348 177.881 60.6841 178.597C59.8002 178.866 58.8656 179.069 57.9691 179.329C57.0377 177.903 56.1094 176.477 55.1558 175.099L49.2569 172.337C52.4249 170.543 55.1875 167.993 57.4939 165.158C60.6619 161.255 63.0982 156.8 65.4996 152.375C65.9248 151.66 66.2559 150.893 66.4849 150.094C66.8017 148.766 66.5355 147.369 66.1459 146.064C64.7187 141.399 61.7282 137.368 57.6776 134.649C54.8263 132.748 51.5822 131.595 48.3571 130.477C46.1046 129.701 43.6367 128.944 41.3462 129.267C41.8277 128.731 42.3453 128.23 42.8954 127.765C43.5733 127.198 44.2735 126.865 45.1447 126.989C46.0159 127.112 46.8428 127.239 47.6792 127.382C49.3741 127.904 51.0405 128.525 52.6974 129.165C53.7879 129.563 54.847 130.043 55.8655 130.6C56.8799 131.22 57.8544 131.902 58.7833 132.644C61.5348 134.733 64.4314 136.624 67.4511 138.302C70.936 140.228 74.5951 141.803 78.2511 143.371C78.6387 143.57 79.0667 143.679 79.5025 143.688C79.721 143.688 79.9335 143.616 80.1058 143.481C80.2782 143.347 80.4004 143.159 80.4529 142.946C80.4671 142.717 80.4143 142.488 80.3008 142.287C79.6672 140.992 78.2289 140.336 76.9268 139.709C71.5221 137.092 66.77 133.322 62.0686 129.571C61.9534 129.481 61.853 129.374 61.7708 129.254L62.5818 129.115Z" fill="#7CBF9A"/>
<path d="M106.97 146.314C117.953 146.314 126.856 137.411 126.856 126.428C126.856 115.446 117.953 106.542 106.97 106.542C95.9872 106.542 87.084 115.446 87.084 126.428C87.084 137.411 95.9872 146.314 106.97 146.314Z" fill="#7CBF9A"/>
<path d="M126.742 205.573C130.465 204.404 134.244 203.213 137.514 201.074C139.811 199.573 141.791 197.64 143.875 195.853C145.444 194.51 147.078 193.243 148.517 191.76C149.805 190.373 151.011 188.911 152.128 187.382C154.671 184.053 157.297 180.788 160.007 177.586C161.461 175.879 162.998 174.139 165.029 173.189C168.637 171.494 172.873 172.638 176.681 173.8C182.383 175.543 188.057 177.39 193.392 180.041C196.427 181.553 199.367 183.238 202.431 184.686C208.032 187.331 213.979 189.147 219.903 190.952C220.343 191.14 220.832 191.18 221.297 191.066C221.629 190.914 221.915 190.676 222.124 190.376C222.896 189.422 223.515 188.353 223.958 187.208C224.042 187.078 224.074 186.92 224.046 186.768C224.019 186.615 223.934 186.479 223.809 186.387C221.275 183.919 217.986 182.402 214.913 180.643C212.467 179.246 210.126 177.678 207.788 176.11C205.542 174.605 203.277 173.084 201.392 171.149C200.441 170.17 199.586 169.089 198.556 168.196C197.647 167.452 196.683 166.776 195.673 166.175C191.157 163.291 186.847 160.097 182.773 156.617C179.675 153.968 177.137 150.556 173.826 148.18C171.796 146.723 169.432 145.395 166.948 145.662C163.926 145.978 161.696 148.513 159.589 150.699C152.508 158.052 143.574 163.314 135.673 169.78C129.223 175.052 123.194 181.315 115.337 184.097C115.689 185.262 115.813 186.428 116.167 187.581C116.61 189.184 117.161 190.755 117.818 192.283C118.469 193.636 119.203 194.948 120.013 196.211L123.163 201.353C123.796 202.399 124.458 203.46 125.364 204.29C125.84 204.746 126.742 204.911 126.742 205.573Z" fill="#464353"/>
<path opacity="0.06" d="M126.742 205.573C130.465 204.404 134.244 203.213 137.514 201.074C139.811 199.573 141.791 197.64 143.875 195.853C145.444 194.51 147.078 193.243 148.517 191.76C149.805 190.373 151.011 188.911 152.128 187.382C154.671 184.053 157.297 180.788 160.007 177.586C161.461 175.879 162.998 174.139 165.029 173.189C168.637 171.494 172.873 172.638 176.681 173.8C182.383 175.543 188.057 177.39 193.392 180.041C196.427 181.553 199.367 183.238 202.431 184.686C208.032 187.331 213.979 189.147 219.903 190.952C220.343 191.14 220.832 191.18 221.297 191.066C221.629 190.914 221.915 190.676 222.124 190.376C222.896 189.422 223.515 188.353 223.958 187.208C224.042 187.078 224.074 186.92 224.046 186.768C224.019 186.615 223.934 186.479 223.809 186.387C221.275 183.919 217.986 182.402 214.913 180.643C212.467 179.246 210.126 177.678 207.788 176.11C205.542 174.605 203.277 173.084 201.392 171.149C200.441 170.17 199.586 169.089 198.556 168.196C197.647 167.452 196.683 166.776 195.673 166.175C191.157 163.291 186.847 160.097 182.773 156.617C179.675 153.968 177.137 150.556 173.826 148.18C171.796 146.723 169.432 145.395 166.948 145.662C163.926 145.978 161.696 148.513 159.589 150.699C152.508 158.052 143.574 163.314 135.673 169.78C129.223 175.052 123.194 181.315 115.337 184.097C115.689 185.262 115.813 186.428 116.167 187.581C116.61 189.184 117.161 190.755 117.818 192.283C118.469 193.636 119.203 194.948 120.013 196.211L123.163 201.353C123.796 202.399 124.458 203.46 125.364 204.29C125.84 204.746 126.742 204.911 126.742 205.573Z" fill="black"/>
<path d="M213.472 199.538C213.825 200.037 214.065 200.608 214.175 201.21C214.284 201.812 214.261 202.431 214.105 203.023C215.231 203.837 216.602 204.24 217.989 204.166C219.371 204.09 220.729 203.779 222.007 203.248C223.113 202.843 224.161 202.293 225.124 201.613C226.781 200.39 227.975 198.641 228.941 196.826C229.477 195.828 229.933 194.532 229.242 193.633C228.979 193.326 228.655 193.076 228.292 192.898C225.856 191.506 223.32 190.298 220.705 189.283C219.985 188.952 219.203 188.776 218.411 188.766C217.435 188.82 216.551 189.356 215.778 189.951C214.042 191.303 212.642 193.038 211.688 195.02C211.39 195.654 210.491 197.162 210.934 197.814C211.137 198.115 211.885 198.22 212.201 198.407C212.699 198.691 213.132 199.076 213.472 199.538Z" fill="#FBBEBE"/>
<path d="M227.978 192.042C233.338 193.04 238.268 195.629 243.536 197.026C245.668 197.59 247.864 197.976 249.901 198.806C251.938 199.636 253.858 201.056 254.735 203.077C255.106 204.047 255.352 205.061 255.467 206.093C255.695 207.553 255.882 209.185 255.014 210.382C254.099 211.65 252.369 211.932 250.82 212.115C245.25 212.781 239.681 213.443 234.092 213.912C232.963 213.982 231.839 214.116 230.725 214.314C229.806 214.501 228.909 214.776 227.997 214.992C226.818 215.271 225.614 215.442 224.417 215.626C221.353 216.063 218.255 216.506 215.179 216.167C213.775 216.012 212.204 215.559 211.586 214.292C211.33 213.635 211.222 212.93 211.269 212.226C211.269 210.347 211.238 208.466 211.269 206.587C211.298 204.658 211.393 202.655 212.267 200.935C212.485 200.409 212.894 199.985 213.411 199.747C213.73 199.656 214.063 199.626 214.393 199.658C216.041 199.715 217.745 199.785 219.218 200.52C220.387 201.1 221.23 199.367 222.421 199.887C224.68 200.884 223.15 197.859 225.431 198.8C225.963 197.159 228.225 198.135 227.832 196.452C227.439 194.77 228.849 195.502 228.688 193.772C228.681 193.395 228.608 193.022 228.472 192.67C228.295 192.331 228.352 191.989 227.978 192.042Z" fill="#464353"/>
<path opacity="0.06" d="M67.407 90.6798C66.1778 91.3958 64.654 91.2628 63.222 91.2311C61.9697 91.2052 60.7172 91.2698 59.4742 91.4243C59.0266 91.4556 58.589 91.5717 58.1848 91.7665C57.6584 92.106 57.2423 92.5915 56.9872 93.1636C56.4803 94.1374 56.1387 95.1888 55.9766 96.2747C55.7992 97.4944 55.8182 98.8281 55.0579 99.7944C54.0219 101.109 52.4062 100.906 50.9394 101.166C49.6628 101.411 48.4393 101.879 47.3246 102.547C46.2255 103.211 45.2824 104.104 44.5597 105.165C43.8369 106.226 43.3515 107.431 43.1364 108.697C43.0952 108.985 43.0667 109.27 43.0541 109.558C43.0224 110.376 43.1047 111.209 42.997 112.01C42.971 112.211 42.9307 112.409 42.8766 112.603C42.8626 112.66 42.8446 112.716 42.8228 112.771C42.7753 112.4 42.7214 112.036 42.658 111.671C41.6922 110.691 40.8554 109.591 40.1679 108.399C39.9826 108.193 39.8337 107.958 39.7276 107.702C38.7011 105.313 38.001 102.896 38.001 100.279C38.0008 96.8474 39.0858 93.5034 41.1009 90.7256C43.116 87.9478 45.9579 85.8784 49.2202 84.8133C52.4825 83.7482 55.998 83.7421 59.264 84.7958C62.53 85.8495 65.3791 87.909 67.4039 90.6798H67.407Z" fill="black"/>
<path d="M68.4494 84.4451C67.6352 82.5601 65.915 81.2232 64.1472 80.1745C60.6623 78.0963 56.6515 76.791 52.5837 76.7372C50.5313 76.7377 48.4845 76.9501 46.4757 77.3708C44.5181 77.7207 42.6004 78.2652 40.751 78.996C37.6994 80.2651 35.0019 82.257 32.891 84.7999C32.4475 84.8335 32.0077 84.9046 31.5762 85.0122C29.8528 85.443 28.3004 86.3903 26.8843 87.4643C25.6992 88.3227 24.6467 89.3506 23.7606 90.5151C22.7235 92.0023 22.0061 93.6883 21.6538 95.4668C20.4468 101.03 21.9326 106.771 23.0224 112.356C24.1122 117.941 24.749 124.043 22.072 129.061C21.0614 130.962 19.6262 132.578 18.5491 134.428C17.472 136.278 16.756 138.505 17.3674 140.558C18.0961 143.054 20.5482 144.638 21.8281 146.885C22.6119 148.354 22.8917 150.04 22.6244 151.684C22.3571 153.328 21.5576 154.838 20.3486 155.983C22.3603 156.68 24.6001 155.929 26.4123 154.814C27.849 153.978 29.0714 152.818 29.9827 151.428C32.2605 147.74 31.2499 142.978 32.0419 138.717C33.0969 133.142 37.3548 128.168 36.7687 122.522C36.3727 118.72 33.8636 115.568 31.8899 112.308C30.5733 110.134 29.4669 107.84 28.5856 105.456C27.9519 103.755 27.4387 101.927 27.7524 100.14C27.8561 99.5942 28.023 99.0626 28.2497 98.5557C28.2497 98.6159 28.2497 98.6761 28.2497 98.7363C28.2858 100.377 28.6544 101.994 29.3332 103.488C31.6903 108.304 37.9662 110.078 40.6242 114.732C41.4004 113.886 42.2083 112.999 42.5251 111.896C42.8039 110.914 42.6613 109.869 42.7025 108.849C42.8134 105.997 44.5463 103.311 46.9731 101.841C48.0868 101.171 49.3108 100.705 50.5878 100.463C52.0515 100.2 53.6672 100.4 54.7063 99.0848C55.4667 98.1343 55.4476 96.7847 55.6282 95.5682C55.7888 94.481 56.1304 93.4283 56.6388 92.454C56.893 91.8821 57.3094 91.3975 57.8364 91.06C58.2411 90.8636 58.68 90.7474 59.1289 90.7179C60.3709 90.5632 61.6224 90.4987 62.8736 90.5246C64.3214 90.5595 65.8706 90.6894 67.1125 89.9449C68.8613 88.8804 69.2636 86.3459 68.4494 84.4451Z" fill="#464353"/>
<path opacity="0.06" d="M245.484 66.9573C245.484 67.0016 245.484 67.0428 245.484 67.0872C244.911 72.0294 240.159 71.8013 239.05 79.5884C238.613 82.6393 233.981 83.2032 230.937 84.0237C229.622 83.5802 228.291 83.1968 226.977 82.7185C223.935 81.6191 226.061 79.9686 227.363 78.1944C231.624 72.3842 232.432 64.445 237.27 59.1068C239.044 62.4776 241.85 65.192 245.278 66.8527C245.345 66.8971 245.415 66.9288 245.484 66.9573Z" fill="black"/>
<path d="M245.595 64.1219C245.595 64.8713 245.553 65.6201 245.469 66.3648C244.885 71.5087 242.319 76.2222 238.315 79.5037C234.311 82.7852 229.185 84.3761 224.027 83.9381C218.869 83.5002 214.085 81.0681 210.691 77.1585C207.298 73.249 205.563 68.1703 205.855 63.0017C206.147 57.8332 208.443 52.9822 212.255 49.4798C216.067 45.9773 221.095 44.0995 226.27 44.2453C231.444 44.3912 236.358 46.5492 239.967 50.2608C243.576 53.9725 245.595 58.9451 245.595 64.1219Z" fill="#A1616A"/>
<path d="M253.595 66.3457C255.873 66.2348 258.062 67.1282 260.165 68.0057C268.507 71.4906 276.918 75.004 284.373 80.1205C288.048 82.6549 291.453 85.5315 294.853 88.4176L308.821 100.285C311.504 102.563 314.206 104.863 316.361 107.651C317.629 109.37 318.785 111.169 319.823 113.037L321.895 116.569C322.744 117.952 323.485 119.397 324.113 120.894C325.177 123.621 325.573 126.802 327.721 128.795C329.163 130.135 331.149 130.68 332.911 131.564C334.672 132.448 336.396 134 336.367 135.97C336.367 137.238 335.6 138.378 335.024 139.519C333.83 141.902 333.329 144.573 333.579 147.227L310.737 129.77C309.828 129.077 308.878 128.361 307.759 128.126C306.308 127.809 304.829 128.358 303.429 128.852C292.39 132.745 280.659 134.287 268.989 133.379C263.828 132.973 258.588 132.045 254.07 129.52C251.57 128.126 249.359 126.279 247.164 124.451C244.423 122.158 241.673 119.858 239.243 117.234C238.61 116.534 237.951 115.764 237.789 114.827C237.669 114.149 237.818 113.458 237.875 112.774C238.274 107.968 234.282 103.967 233.066 99.3C232.525 97.0996 232.6 94.7929 233.282 92.6322C233.965 90.4715 235.228 88.5401 236.934 87.049C239.655 89.4314 239.557 93.6164 239.24 97.2185C238.813 102.069 240.169 104.473 239.741 109.327C241.464 109.264 241.151 110.372 241.886 108.811C242.621 107.249 242.763 105.487 242.903 103.767C243.412 97.5448 244.029 91.3333 244.756 85.1323C245.117 82.0308 245.529 78.9356 245.925 75.8372C246.166 73.9522 246.134 72.1908 247.129 70.518C248.51 68.2022 250.858 66.4756 253.595 66.3457Z" fill="#7CBF9A"/>
<path d="M256.576 71.9979C258.027 71.5417 259.589 71.9599 261.046 72.394C263.623 73.1585 266.185 73.9664 268.732 74.8175C270.813 75.5113 272.923 76.2558 274.685 77.5643C276.513 78.9202 277.853 80.8052 279.18 82.6585C280.131 83.9923 281.081 85.3419 281.715 86.8562C282.538 88.8394 282.76 91.0127 282.982 93.148C283.127 94.0695 283.116 95.0089 282.947 95.9264C282.65 96.9226 282.126 97.8366 281.417 98.5971C280.326 99.888 279.062 101.021 277.66 101.965C273.931 104.474 269.423 105.519 265.032 106.441C261.113 107.262 257.165 108.025 253.167 108.272C251.612 108.371 249.806 108.272 248.855 107.043C248.585 106.66 248.372 106.239 248.222 105.795C245.886 99.6079 244.875 92.9994 245.253 86.3968C245.288 85.1934 245.474 83.999 245.808 82.8423C246.137 81.9166 246.545 81.0209 247.028 80.1652C248.228 77.8937 249.492 75.543 251.561 74.0223C253.725 72.4383 256.529 71.9378 259.212 72.0391" fill="#A1616A"/>
<path opacity="0.06" d="M271.171 95.4923C269.926 96.3318 269.492 97.9539 269.333 99.4492C268.659 105.808 271.282 112.102 271.107 118.492C270.968 123.561 269.074 128.428 267.204 133.157C264.017 141.227 262.357 149.989 261.714 158.641C261.071 167.293 260.13 176.303 255.486 183.622C254.431 185.279 253.201 186.818 252.169 188.485C251.085 190.227 250.227 192.096 249.27 193.908C246.451 199.26 242.817 204.142 238.498 208.377C237.231 209.613 235.888 210.81 234.272 211.523C233.231 211.975 232.11 212.214 230.975 212.226C229.84 212.238 228.714 212.022 227.664 211.593C225.497 210.696 223.672 208.675 223.583 206.33C223.504 204.233 224.755 202.342 226.01 200.663C230.262 194.974 235.152 189.791 240.583 185.215C241.568 184.385 242.607 183.527 243.118 182.342C243.691 180.976 243.456 179.427 243.529 177.948C243.647 175.587 244.565 173.348 245.113 171.048C247.331 161.705 243.39 151.504 246.596 142.453C247.309 140.441 248.367 138.518 248.617 136.398C248.795 134.916 248.424 133.259 247.499 132.147C246.63 131.147 246.143 129.872 246.124 128.548C246.124 128.275 246.124 128.006 246.159 127.74C246.545 123.593 246.929 119.427 246.72 115.267C246.511 111.108 245.684 106.926 243.764 103.229C242.769 101.312 241.483 99.5189 240.868 97.4501C239.88 94.1015 240.792 90.4804 242.265 87.3123C243.415 84.8349 244.949 82.4747 247.09 80.7766C251.069 77.6243 257.025 77.26 261.381 79.8673C264.594 81.7872 266.793 85.0154 268.576 88.3071C269.856 90.7116 271.206 92.7487 271.171 95.4923Z" fill="black"/>
<path d="M271.894 95.4923C270.649 96.3318 270.215 97.9539 270.056 99.4492C269.381 105.808 272.005 112.102 271.83 118.492C271.691 123.561 269.796 128.428 267.927 133.157C264.74 141.227 263.083 149.989 262.437 158.641C261.791 167.293 260.853 176.303 256.209 183.622C255.154 185.279 253.928 186.818 252.892 188.485C251.811 190.227 250.95 192.096 249.993 193.908C247.173 199.26 243.539 204.141 239.221 208.377C237.954 209.613 236.608 210.81 234.992 211.523C233.951 211.975 232.83 212.214 231.695 212.226C230.56 212.238 229.434 212.022 228.383 211.593C226.22 210.696 224.395 208.675 224.306 206.33C224.224 204.233 225.475 202.342 226.733 200.663C230.985 194.974 235.874 189.791 241.306 185.215C242.291 184.385 243.334 183.527 243.84 182.342C244.417 180.976 244.179 179.427 244.252 177.948C244.369 175.587 245.288 173.348 245.836 171.048C248.054 161.705 244.113 151.504 247.319 142.453C248.032 140.441 249.093 138.518 249.343 136.398C249.518 134.916 249.15 133.259 248.225 132.147C247.34 131.154 246.839 129.878 246.812 128.548C246.812 128.275 246.812 128.006 246.847 127.74C247.23 123.593 247.614 119.427 247.405 115.267C247.195 111.108 246.369 106.926 244.449 103.229C243.454 101.312 242.168 99.5189 241.553 97.4501C240.565 94.1015 241.477 90.4804 242.95 87.3123C244.103 84.8349 245.634 82.4747 247.775 80.7766C251.754 77.6243 257.71 77.26 262.066 79.8673C265.279 81.7872 267.477 85.0154 269.261 88.3071C270.573 90.7116 271.916 92.7487 271.894 95.4923Z" fill="#A1616A"/>
<path d="M303.933 178.22L303.66 178.302L303.933 178.22Z" fill="#464353"/>
<path d="M248.443 192.356C248.455 192.249 248.474 192.143 248.5 192.039L248.443 192.356Z" fill="#464353"/>
<path d="M316.368 170.617C317.28 169.562 318.687 169.09 320.039 168.738C322.219 168.174 324.446 167.812 326.692 167.654C328.087 167.504 329.496 167.591 330.861 167.911C332.211 168.282 333.491 169.086 334.175 170.306C334.78 171.383 334.875 172.663 334.955 173.896C335.119 176.43 335.271 178.964 334.853 181.461C334.584 183.045 334.08 184.578 333.754 186.15C332.696 191.301 333.615 196.633 333.519 201.892C333.497 203.013 333.424 204.163 332.952 205.18C332.449 206.261 331.543 207.081 330.659 207.892C329.686 208.77 328.698 209.654 327.525 210.24C325.789 211.111 323.79 211.257 321.848 211.317C320.667 211.352 319.45 211.355 318.363 210.921C317.277 210.487 316.298 209.511 316.219 208.329C316.092 206.324 318.354 205.012 319 203.112C319.513 201.597 318.924 199.924 318.107 198.546C316.796 196.35 314.925 194.54 312.686 193.303C311.856 192.847 310.972 192.464 310.282 191.821C309.591 191.177 309.122 190.179 309.417 189.286C309.768 188.206 311.026 187.702 312.157 187.594C313.288 187.487 314.483 187.569 315.499 187.065C316.406 186.619 317.036 185.757 317.47 184.848C318.394 182.907 318.522 180.682 317.828 178.648C317.553 177.874 317.155 177.15 316.649 176.503C316.174 175.895 315.199 175.381 314.86 174.716C314.258 173.519 315.56 171.567 316.368 170.617Z" fill="#7CBF9A"/>
<path opacity="0.06" d="M297.958 124.705C292.724 120.079 285.428 118.822 278.585 117.418C275.06 116.698 271.552 115.895 268.06 115.01C265.767 114.428 263.467 113.807 261.091 113.645C258.715 113.483 256.269 113.816 254.235 115.026C252.201 116.236 250.668 118.429 250.655 120.795C250.655 121.746 250.88 122.677 250.81 123.618C250.699 125.132 249.86 126.469 249.286 127.885C248.409 130.124 248.275 132.585 248.903 134.906C249.917 138.603 252.838 141.86 252.584 145.677C252.163 152.067 252.293 158.746 253.604 165.003C254.916 171.26 256.554 177.545 256.516 183.948C256.478 190.35 254.539 197.083 249.758 201.347C252.998 204.388 256.959 206.552 261.268 207.635C264.953 208.557 269.334 208.465 271.957 205.719C272.565 205.085 273.069 204.239 272.942 203.368C272.812 202.818 272.581 202.297 272.261 201.832C270.459 198.603 270.677 194.624 271.476 191.019C272.274 187.414 273.639 183.91 273.985 180.228C274.238 177.558 273.953 174.843 274.463 172.207C274.856 170.189 275.705 168.288 276.215 166.295C277.72 160.384 276.139 154.177 274.568 148.288C275.882 151.313 278.369 153.674 280.942 155.727C284.845 158.838 289.565 161.584 294.526 161.033C298.943 160.539 302.703 157.469 305.298 153.867C305.32 149.701 306.765 145.763 306.508 141.606C306.343 139.781 306.016 137.973 305.532 136.205C305.048 134.228 304.55 132.232 303.632 130.417C302.418 128.006 299.979 126.488 297.958 124.705Z" fill="black"/>
<path d="M299.041 124.705C293.808 120.079 286.515 118.822 279.669 117.418C276.144 116.698 272.637 115.895 269.147 115.01C266.854 114.428 264.551 113.807 262.178 113.645C259.805 113.483 257.359 113.816 255.325 115.026C253.291 116.236 251.755 118.429 251.745 120.795C251.745 121.746 251.967 122.677 251.897 123.618C251.79 125.132 250.931 126.469 250.373 127.885C249.497 130.124 249.364 132.586 249.993 134.906C251.004 138.603 253.925 141.86 253.675 145.677C253.25 152.067 253.38 158.746 254.691 165.003C256.003 171.26 257.641 177.545 257.603 183.948C257.565 190.35 255.613 197.06 250.83 201.318C254.069 204.359 258.03 206.523 262.339 207.607C266.024 208.529 270.408 208.437 273.028 205.69C273.637 205.057 274.14 204.211 274.014 203.339C273.883 202.79 273.652 202.269 273.332 201.803C271.53 198.575 271.748 194.596 272.547 190.99C273.345 187.385 274.711 183.881 275.059 180.2C275.309 177.529 275.024 174.814 275.537 172.178C275.927 170.16 276.779 168.259 277.286 166.267C278.791 160.355 277.213 154.149 275.639 148.259C276.954 151.285 279.44 153.645 282.016 155.698C285.919 158.809 290.636 161.556 295.598 161.005C300.014 160.51 303.774 157.44 306.369 153.838C306.388 149.672 307.833 145.734 307.576 141.578C307.411 139.752 307.084 137.945 306.6 136.176C306.119 134.199 305.618 132.204 304.7 130.388C303.521 128.006 301.063 126.488 299.041 124.705Z" fill="#A1616A"/>
<path d="M262.684 204.651C260.36 203.236 258.353 201.356 256.789 199.129C256.225 198.331 255.718 197.482 255.014 196.804C254.311 196.126 253.358 195.622 252.385 195.723C251.286 195.838 250.405 196.674 249.708 197.536C247.839 199.851 246.635 202.684 244.56 204.822C242.165 207.296 238.822 208.624 235.486 209.473C232.15 210.322 228.707 210.769 225.437 211.843C224.411 212.178 223.331 212.635 222.776 213.563C222.073 214.745 222.459 216.294 223.201 217.466C224.566 219.684 226.917 221.112 229.369 221.961C231.821 222.81 234.416 223.149 236.972 223.65C241.49 224.534 246.118 225.95 250.614 224.952C252.407 224.553 254.099 223.78 255.911 223.444C260.029 222.677 264.278 224.227 268.412 223.606C270.411 223.305 272.299 222.506 274.115 221.607C275.025 221.213 275.853 220.651 276.554 219.95C277.216 219.215 277.615 218.172 277.343 217.222C277.188 216.674 276.83 216.211 276.592 215.695C276.218 214.897 276.142 214 276.054 213.123C275.712 209.782 275.131 206.47 274.317 203.213C274.035 202.075 273.614 200.808 272.553 200.311C272.336 200.194 272.083 200.166 271.846 200.232C271.469 200.374 271.346 200.83 271.232 201.214C270.921 202.274 270.325 203.228 269.51 203.973C268.695 204.718 267.691 205.226 266.608 205.441C265.524 205.656 264.402 205.57 263.365 205.192C262.327 204.814 261.412 204.159 260.72 203.298" fill="#7CBF9A"/>
<path opacity="0.06" d="M245.595 64.1219C245.595 64.8713 245.552 65.6201 245.468 66.3649C244.47 66.5144 243.45 66.4262 242.493 66.1075C241.535 65.7887 240.666 65.2485 239.956 64.5306C239.287 63.8209 238.787 62.9624 238.125 62.2464C237.463 61.5304 236.541 60.9348 235.59 61.0108C234.779 61.071 234.076 61.5842 233.521 62.1798C232.8 62.9553 232.272 63.8897 231.979 64.9076C231.766 65.6267 231.662 66.4441 231.066 66.9225C230.471 67.4008 229.739 67.3691 229.032 67.3438C228.117 67.3121 227.166 67.2678 226.358 66.8369C224.838 66.0164 224.325 64.1377 223.761 62.503C222.81 59.7563 220.672 54.5606 217.348 54.0062C215.764 53.7433 213.838 54.5796 212.596 55.4825C210.724 56.8416 209.343 57.7224 206.922 57.6844C208.448 53.231 211.504 49.4633 215.547 47.0514C219.59 44.6394 224.357 43.7396 229.001 44.512C233.645 45.2844 237.864 47.6789 240.908 51.2695C243.952 54.8602 245.624 59.4143 245.627 64.1219H245.595Z" fill="black"/>
<path d="M206.894 56.9587C206.323 56.9711 205.754 56.8809 205.215 56.6926C203.678 56.0907 202.931 54.3166 202.801 52.6723C202.598 50.1664 203.434 47.708 204.274 45.3351C204.451 44.8187 204.664 44.2643 205.126 43.976C205.501 43.7921 205.91 43.6896 206.327 43.675C208.601 43.3582 210.575 41.9674 212.254 40.4087C213.933 38.85 215.448 37.0823 217.323 35.7833C222.297 32.3523 229.679 32.9923 233.981 37.2248C235.685 38.8976 237.149 41.1659 239.512 41.5587C240.875 41.7837 242.335 41.3148 243.631 41.8217C244.581 42.1924 245.259 43.0319 245.804 43.8904C247.572 46.6657 248.402 49.9541 248.678 53.2331C248.953 56.512 248.7 59.81 248.443 63.089C248.458 63.5799 248.331 64.0647 248.079 64.4861C247.876 64.7291 247.622 64.924 247.334 65.0563C246.13 65.6501 244.769 65.8497 243.445 65.6268C242.12 65.4039 240.9 64.7698 239.956 63.8145C239.284 63.108 238.787 62.2494 238.125 61.5303C237.463 60.8111 236.541 60.2219 235.59 60.2979C234.782 60.3581 234.073 60.8713 233.522 61.4669C232.8 62.2423 232.272 63.1768 231.979 64.1946C231.77 64.9138 231.662 65.7311 231.066 66.2064C230.471 66.6816 229.739 66.6562 229.029 66.6309C228.117 66.596 227.166 66.5548 226.359 66.1208C224.835 65.3035 224.321 63.4248 223.761 61.7901C222.81 59.0433 220.675 53.8445 217.349 53.2933C215.764 53.0272 213.838 53.8667 212.596 54.7696C210.696 56.1192 209.327 56.9999 206.894 56.9587Z" fill="#464353"/>
<path opacity="0.06" d="M101.98 175.261C101.762 176.706 100.437 177.834 99.5027 178.955C96.9619 182.022 94.3862 185.098 91.5445 187.905C88.5031 190.905 85.164 193.579 81.828 196.253L77.5004 199.715C76.9665 200.204 76.3408 200.58 75.6598 200.824C74.862 201.023 74.0189 200.923 73.29 200.542C73.3534 200.416 73.4199 200.298 73.4928 200.181L78.6821 191.485C79.7022 189.78 80.3707 188.228 81.5334 186.628C83.2853 184.233 85.0531 181.825 87.2106 179.795C89.9383 177.225 93.4358 175.359 96.6799 173.503C97.1488 172.096 99.113 171.706 100.44 172.372C100.932 172.627 101.375 172.967 101.749 173.376C101.987 173.974 102.066 174.623 101.98 175.261Z" fill="black"/>
<path d="M79.0435 191.843L73.8542 200.542C73.6419 200.894 73.4233 201.293 73.5152 201.692C73.6318 202.027 73.8542 202.315 74.1488 202.513C76.1384 204.132 78.3434 205.839 78.9675 208.326C79.4142 210.1 78.9675 212.001 79.3666 213.782C80.0985 216.994 83.3267 218.946 86.3807 220.181C93.2238 222.95 100.821 224.014 108.092 222.716C115.362 221.417 122.262 217.716 126.97 212.026C128.415 210.278 129.65 208.364 131.022 206.558C134.824 201.569 139.649 197.472 144.436 193.417C150.598 188.196 154.228 180.409 159.642 174.409C160.628 173.316 161.714 172.191 163.127 171.83C163.919 171.63 165.028 171.925 165.06 172.742C165.133 174.326 166.406 175.622 167.277 176.946C170.56 181.965 173.994 187.138 179.066 190.338C181.841 192.093 184.987 193.167 188.123 194.14C196.075 196.617 204.182 198.575 212.28 200.514C212.689 199.696 213.179 198.923 213.744 198.204C214.583 197.175 215.689 196.389 216.532 195.353C218.074 193.487 218.616 191.019 219.11 188.649C214.273 185.687 209.308 182.63 204.537 179.551C202.136 178.005 199.719 176.424 197.773 174.333C196.506 172.958 195.442 171.383 194.171 169.999C192.872 168.655 191.472 167.413 189.983 166.283L178.578 157.149C175.302 154.529 171.963 151.763 168.757 149.052C166.954 147.525 164.955 145.918 162.598 145.845C160.58 145.782 158.724 146.862 156.988 147.902C146.791 154.007 136.442 159.839 125.94 165.396C123.815 166.517 121.679 167.632 119.652 168.922C115.707 171.431 112.204 174.576 109.286 178.229C108.751 178.898 108.073 179.658 107.224 179.557C106.99 179.523 106.765 179.444 106.561 179.326C105.253 178.625 104.451 177.273 103.71 175.99C102.969 174.707 102.142 173.357 100.814 172.692C99.4871 172.026 97.526 172.416 97.054 173.826C93.794 175.736 90.3092 177.586 87.5783 180.156C85.4208 182.186 83.653 184.591 81.9011 186.989C80.7321 188.589 80.0604 190.141 79.0435 191.843Z" fill="#464353"/>
<path opacity="0.06" d="M70.5435 138.784C70.5435 138.784 75.7613 141.099 79.5028 143.713L70.5435 138.784Z" fill="black"/>
<path d="M331.865 143.545C331.96 146.501 332.036 149.463 332.001 152.416C331.982 153.981 331.916 155.613 331.165 156.984C330.629 157.97 329.783 158.739 328.947 159.493L323.729 164.223C322.11 165.69 320.365 167.22 318.207 167.585C315.739 168.003 313.328 166.802 310.956 166.001C308.566 165.196 306.064 164.775 303.542 164.756C302.098 164.756 300.64 164.87 299.215 164.642C298.184 164.445 297.172 164.158 296.192 163.783L291.481 162.148C291.615 160.96 292.749 160.203 293.699 159.452C297.073 156.715 298.553 152.315 299.617 148.104C300.482 144.817 301.099 141.47 301.461 138.09C301.622 136.417 301.695 134.716 301.344 133.072C301.012 131.745 300.545 130.457 299.95 129.226L298.293 125.49C297.342 123.381 295.442 122.443 293.506 121.198C296.427 122.307 299.988 122.741 302.209 124.939C302.637 125.426 303.145 125.838 303.71 126.156C304.315 126.444 305.003 126.473 305.665 126.58C308.963 127.075 311.767 129.146 314.491 131.063C317.826 133.412 321.254 135.618 324.775 137.681C326.359 138.613 327.993 139.528 329.327 140.799C330.661 142.069 331.706 143.761 331.792 145.601" fill="#464353"/>
<path opacity="0.06" d="M47.7649 138.356C43.6116 139.177 41.4509 144.059 41.6949 148.282C41.9293 152.054 43.4786 155.624 46.0732 158.372C47.8061 160.194 49.9667 161.6 51.5318 163.568C53.8444 166.47 54.6491 170.306 56.7179 173.389C58.2196 175.625 60.3263 177.38 62.4204 179.063C67.2486 182.915 72.234 186.562 77.3769 190.002C79.4678 191.399 81.7552 192.812 84.2706 192.758C86.6403 192.708 88.8231 191.317 90.3692 189.517C91.9152 187.718 92.9036 185.532 93.9079 183.378C97.5258 175.489 101.169 167.515 102.899 159.012C103.441 156.341 103.805 153.588 105.015 151.146C105.966 149.245 107.372 147.616 108.627 145.899C111.591 141.825 113.671 137.176 114.735 132.251C115.425 129.039 115.657 125.598 114.523 122.525C113.388 119.452 110.635 116.788 107.356 116.547C104.762 116.357 102.215 117.688 100.472 119.623C98.7297 121.559 97.7032 124.033 97.0031 126.539C95.9994 130.144 95.6138 133.893 95.8626 137.627C96.0654 140.64 96.68 143.682 96.1604 146.66C95.7929 148.76 94.8773 150.721 93.9713 152.654C91.6301 157.64 89.2508 162.69 85.7121 166.91C84.5589 168.285 82.9717 169.676 81.2071 169.353C78.7677 168.909 78.1214 165.82 76.9175 163.65C75.4412 160.989 72.6406 159.389 70.4451 157.276C67.3214 154.266 65.4491 150.23 63.2283 146.504C61.0075 142.779 58.134 139.101 54.0409 137.672C49.9477 136.243 44.4923 138.077 43.4405 142.285" fill="black"/>
<path opacity="0.06" d="M50.8988 141.248C46.7423 142.069 41.4516 142.604 41.7114 146.834C41.9431 150.606 43.4927 154.178 46.0896 156.924C47.8226 158.749 49.9832 160.156 51.5482 162.123C53.8609 165.025 54.6656 168.858 56.7344 171.944C58.236 174.184 60.3428 175.939 62.4369 177.618C67.265 181.472 72.2505 185.119 77.3934 188.557C79.4843 189.958 81.7716 191.371 84.2871 191.317C86.6568 191.266 88.8396 189.872 90.3856 188.076C91.9316 186.279 92.9201 184.09 93.9244 181.933C97.5423 174.044 101.186 166.07 102.915 157.567C103.457 154.9 103.821 152.143 105.032 149.704C105.982 147.803 107.389 146.175 108.643 144.455C111.608 140.381 113.688 135.734 114.751 130.81C115.442 127.594 115.673 124.157 114.539 121.081C113.405 118.004 110.652 115.346 107.373 115.102C104.778 114.912 102.231 116.246 100.489 118.179C98.7462 120.111 97.7197 122.589 97.0196 125.098C96.0157 128.703 95.63 132.452 95.8791 136.186C96.0818 139.202 96.6964 142.243 96.1769 145.218C95.8094 147.322 94.8938 149.283 93.9877 151.215C91.6465 156.202 89.2673 161.249 85.7286 165.472C84.5754 166.847 82.9882 168.234 81.2236 167.914C78.7841 167.467 78.1379 164.379 76.934 162.212C75.4577 159.55 72.6571 157.951 70.4616 155.837C67.3379 152.831 65.4656 148.792 63.2447 145.066C61.0239 141.34 58.1505 137.665 54.0573 136.233C49.9642 134.801 55.0901 143.973 54.0352 148.18" fill="black"/>
<path d="M47.7649 137.631C43.6116 138.451 41.4509 143.333 41.6949 147.556C41.9286 151.329 43.4779 154.901 46.0732 157.65C47.8061 159.471 49.9667 160.878 51.5318 162.845C53.8444 165.747 54.6491 169.584 56.7179 172.666C58.2196 174.906 60.3263 176.661 62.4204 178.343C67.2486 182.196 72.234 185.841 77.3769 189.28C79.4678 190.68 81.7552 192.093 84.2706 192.039C86.6403 191.988 88.8231 190.598 90.3692 188.798C91.9152 186.999 92.9036 184.813 93.9079 182.658C97.5258 174.77 101.169 166.796 102.899 158.29C103.441 155.622 103.805 152.866 105.015 150.426C105.966 148.526 107.372 146.897 108.627 145.177C111.591 141.104 113.672 136.456 114.735 131.532C115.425 128.316 115.657 124.879 114.523 121.803C113.388 118.727 110.635 116.069 107.356 115.828C104.762 115.635 102.215 116.968 100.472 118.904C98.7297 120.84 97.7032 123.314 97.0031 125.82C95.9994 129.425 95.6138 133.174 95.8626 136.908C96.0654 139.921 96.68 142.962 96.1604 145.937C95.7929 148.041 94.8773 150.002 93.9713 151.934C91.6301 156.921 89.2508 161.971 85.7121 166.191C84.5589 167.566 82.9717 168.953 81.2071 168.633C78.7677 168.187 78.1214 165.101 76.9175 162.931C75.4412 160.266 72.6406 158.667 70.4451 156.557C67.3214 153.547 65.4491 149.511 63.2283 145.785C61.0075 142.06 58.134 138.385 54.0409 136.956C49.9477 135.527 44.4923 137.361 43.4405 141.569" fill="#FBBEBE"/>
<g opacity="0.06">
<path opacity="0.06" d="M31.8902 112.324C30.5736 110.15 29.4672 107.855 28.5859 105.471L28.4781 105.155C27.8096 104.437 27.2474 103.627 26.8086 102.75C26.1294 101.256 25.7608 99.6389 25.7251 97.9978C25.7251 97.9376 25.7251 97.8775 25.7251 97.8173C25.4984 98.3242 25.3315 98.8558 25.2277 99.4013C24.9109 101.188 25.4336 103.013 26.0609 104.717C26.9429 107.101 28.0493 109.395 29.3652 111.57C31.3326 114.858 33.8449 118.026 34.2345 121.8C34.8206 127.445 30.5627 132.416 29.5109 137.995C28.7062 142.256 29.7264 147.017 27.4485 150.705C26.5381 152.096 25.3154 153.254 23.8781 154.089C22.9766 154.663 21.9896 155.091 20.954 155.356C20.7651 155.58 20.5619 155.792 20.3457 155.989C22.3574 156.686 24.5973 155.936 26.4094 154.82C27.8462 153.984 29.0686 152.824 29.9798 151.434C32.2577 147.746 31.247 142.984 32.0391 138.723C33.094 133.148 37.3519 128.174 36.7658 122.528C36.373 118.733 33.8639 115.568 31.8902 112.324Z" fill="black"/>
<path opacity="0.06" d="M68.4495 84.445C67.6353 82.5599 65.915 81.223 64.1472 80.1744C61.9063 78.8297 59.4677 77.8461 56.9209 77.2598C58.5553 77.8303 60.1282 78.5637 61.6159 79.4489C63.3837 80.5007 65.1008 81.8345 65.9214 83.7226C66.7419 85.6108 66.3332 88.1579 64.5718 89.2097C63.3299 89.9542 61.7807 89.8212 60.3329 89.7895C59.0817 89.7609 57.8301 89.8244 56.5882 89.9796C56.1398 90.012 55.7014 90.128 55.2956 90.3217C54.767 90.6642 54.3506 91.1544 54.0981 91.7315C53.5887 92.7057 53.246 93.7583 53.0843 94.8457C52.9069 96.0623 52.9228 97.396 52.1624 98.3623C51.1296 99.677 49.5139 99.4775 48.0439 99.7372C46.7673 99.9822 45.5438 100.45 44.4291 101.119C42.0024 102.585 40.2695 105.266 40.1586 108.126C40.1206 109.146 40.26 110.189 39.9843 111.171C39.8065 111.744 39.5276 112.28 39.1606 112.755C39.722 113.355 40.2131 114.017 40.6243 114.729C41.4005 113.883 42.2083 112.996 42.5251 111.893C42.8039 110.911 42.6614 109.866 42.7025 108.845C42.8134 105.994 44.5464 103.308 46.9731 101.838C48.0869 101.168 49.3108 100.701 50.5879 100.46C52.0515 100.197 53.6672 100.396 54.7064 99.0815C55.4667 98.131 55.4477 96.7814 55.6283 95.5649C55.7889 94.4777 56.1305 93.425 56.6389 92.4507C56.893 91.8788 57.3094 91.3941 57.8364 91.0567C58.2412 90.8603 58.6801 90.7441 59.129 90.7146C60.3709 90.5599 61.6224 90.4953 62.8737 90.5213C64.3215 90.5562 65.8707 90.6861 67.1126 89.9416C68.8613 88.8803 69.2637 86.3458 68.4495 84.445Z" fill="black"/>
</g>
<path opacity="0.06" d="M47.7051 114.716C47.7051 114.716 51.4466 117.935 58.5526 115.983C58.5526 115.977 54.1521 117.71 47.7051 114.716Z" fill="black"/>
<path opacity="0.06" d="M248.374 60.4152C248.381 60.9044 248.249 61.3856 247.994 61.8028C247.791 62.0449 247.536 62.2387 247.249 62.3699C246.046 62.9643 244.685 63.1645 243.361 62.9421C242.038 62.7198 240.817 62.0862 239.874 61.1311C239.202 60.4215 238.705 59.5471 238.043 58.847C237.381 58.1468 236.459 57.5354 235.508 57.6114C234.7 57.6748 233.994 58.188 233.44 58.7804C232.722 59.5584 232.194 60.492 231.897 61.5082C231.691 62.2305 231.58 63.0447 230.987 63.523C230.395 64.0014 229.66 63.9697 228.95 63.9444C228.035 63.9127 227.084 63.8715 226.28 63.4375C224.756 62.6201 224.243 60.7383 223.679 59.1068C222.728 56.3569 220.593 51.1612 217.27 50.6068C215.686 50.3439 213.756 51.1834 212.518 52.0831C210.645 53.4422 209.264 54.323 206.84 54.3008C206.269 54.3118 205.701 54.2217 205.161 54.0347C203.767 53.4866 203.023 51.9722 202.798 50.4706C202.712 51.1588 202.694 51.8539 202.744 52.5457C202.877 54.1867 203.625 55.9609 205.161 56.566C205.701 56.7529 206.269 56.843 206.84 56.8321C209.264 56.8701 210.642 55.9894 212.518 54.6303C213.763 53.7305 215.686 52.8878 217.27 53.1539C220.58 53.6925 222.735 58.8882 223.666 61.6349C224.23 63.2696 224.743 65.1514 226.267 65.9688C227.072 66.3996 228.022 66.444 228.938 66.4757C229.647 66.501 230.427 66.5042 230.975 66.0543C231.523 65.6045 231.678 64.7586 231.884 64.0394C232.18 63.023 232.708 62.0892 233.427 61.3117C233.981 60.7193 234.694 60.2061 235.496 60.1427C236.471 60.0667 237.396 60.6591 238.03 61.3783C238.664 62.0974 239.19 62.9623 239.861 63.6624C240.805 64.6174 242.025 65.2511 243.349 65.4734C244.673 65.6958 246.033 65.4955 247.236 64.9012C247.523 64.7689 247.777 64.5753 247.981 64.3341C248.237 63.9159 248.369 63.4336 248.361 62.9433C248.609 60.2748 248.715 57.5951 248.678 54.9154C248.653 56.7497 248.516 58.584 248.374 60.4152Z" fill="black"/>
<path d="M28.4524 195.565C28.4524 195.565 28.9561 195.005 28.0089 194.783V193.861H28.5791C28.5779 192.747 28.1943 191.667 27.4925 190.802C26.7908 189.937 25.8133 189.339 24.7236 189.109V187.99H24.8725V186.536H21.207V187.99H21.3116V189.121C20.2321 189.363 19.2673 189.966 18.5762 190.83C17.8851 191.694 17.509 192.767 17.5099 193.874H18.0136V194.757C18.0136 194.757 16.8129 195.324 18.0136 196.341C19.2143 197.358 19.0274 198.093 19.0274 198.093C19.0274 198.093 18.5237 199.994 17.5131 200.241V217.865C17.5127 218.38 17.6136 218.889 17.8102 219.365C18.0068 219.84 18.2952 220.272 18.6588 220.636C19.0225 221 19.4543 221.289 19.9296 221.486C20.4049 221.683 20.9143 221.784 21.4288 221.784H24.524C25.5634 221.784 26.5602 221.371 27.2951 220.636C28.03 219.901 28.4429 218.905 28.4429 217.865V200.241C28.4429 200.241 26.672 198.914 26.9888 198.093C27.4138 197.216 27.903 196.371 28.4524 195.565Z" fill="#464353"/>
</g>
<defs>
<linearGradient id="paint0_linear" x1="175.831" y1="224.892" x2="175.831" y2="31.3544" gradientUnits="userSpaceOnUse">
<stop stop-color="#808080" stop-opacity="0.25"/>
<stop offset="0.54" stop-color="#808080" stop-opacity="0.12"/>
<stop offset="1" stop-color="#808080" stop-opacity="0.1"/>
</linearGradient>
<clipPath id="clip0">
<rect width="365" height="244.29" fill="white"/>
</clipPath>
</defs>
</svg>
